solid compact_holder
facet normal 0.0 -1.0 0.0
  outer loop
    vertex 533.9955105091032 -270.4174865392307 -90.62979048971961
    vertex 553.7220006704208 -270.4174865392307 -90.62979048971961
    vertex 533.9955105091032 -270.4174865392307 -87.62979048971961
  endloop
endfacet
facet normal 0.0 -1.0 0.0
  outer loop
    vertex 553.7220006704208 -270.4174865392307 -87.62979048971961
    vertex 533.9955105091032 -270.4174865392307 -87.62979048971961
    vertex 553.7220006704208 -270.4174865392307 -90.62979048971961
  endloop
endfacet
facet normal 0.0 -1.0 0.0
  outer loop
    vertex 501.41341782216494 -319.89106351742527 -90.62979048971961
    vertex 561.4134178221649 -319.89106351742527 -90.62979048971961
    vertex 501.41341782216494 -319.89106351742527 -87.62979048971961
  endloop
endfacet
facet normal 0.0 -1.0 0.0
  outer loop
    vertex 561.4134178221649 -319.89106351742527 -87.62979048971961
    vertex 501.41341782216494 -319.89106351742527 -87.62979048971961
    vertex 561.4134178221649 -319.89106351742527 -90.62979048971961
  endloop
endfacet
facet normal -1.0 0.0 0.0
  outer loop
    vertex 501.41341782216494 -286.72717492757624 -87.62979048971961
    vertex 501.41341782216494 -286.72717492757624 -90.62979048971961
    vertex 501.41341782216494 -319.89106351742527 -87.62979048971961
  endloop
endfacet
facet normal -1.0 0.0 0.0
  outer loop
    vertex 501.41341782216494 -319.89106351742527 -90.62979048971961
    vertex 501.41341782216494 -319.89106351742527 -87.62979048971961
    vertex 501.41341782216494 -286.72717492757624 -90.62979048971961
  endloop
endfacet
facet normal -0.0 1.0 -0.0
  outer loop
    vertex 553.7220006704208 -314.4696463656807 -90.62979048971961
    vertex 509.104834973909 -314.4696463656807 -90.62979048971961
    vertex 553.7220006704208 -314.4696463656807 -87.62979048971961
  endloop
endfacet
facet normal -0.0 1.0 -0.0
  outer loop
    vertex 509.104834973909 -314.4696463656807 -87.62979048971961
    vertex 553.7220006704208 -314.4696463656807 -87.62979048971961
    vertex 509.104834973909 -314.4696463656807 -90.62979048971961
  endloop
endfacet
facet normal 0.0 -1.0 0.0
  outer loop
    vertex 561.4134178221649 -264.82606938748654 -87.62979048971961
    vertex 549.3978561454518 -264.8260693874865 -74.40319772901717
    vertex 546.4134178221649 -264.82606938748654 -87.62979048971961
  endloop
endfacet
facet normal 0.0 -1.0 0.0
  outer loop
    vertex 548.7621816550602 -264.8260693874865 -73.57477060427098
    vertex 546.4134178221649 -264.82606938748654 -87.62979048971961
    vertex 549.3978561454518 -264.8260693874865 -74.40319772901717
  endloop
endfacet
facet normal 0.0 -1.0 0.0
  outer loop
    vertex 546.4134178221649 -264.82606938748654 -68.35545155200474
    vertex 546.4134178221649 -264.82606938748654 -87.62979048971961
    vertex 548.7621816550602 -264.8260693874865 -73.57477060427098
  endloop
endfacet
facet normal 0.0 -1.0 0.0
  outer loop
    vertex 550.226283270198 -264.8260693874865 -75.03887221940873
    vertex 549.3978561454518 -264.8260693874865 -74.40319772901717
    vertex 561.4134178221649 -264.82606938748654 -87.62979048971961
  endloop
endfacet
facet normal 0.0 -1.0 0.0
  outer loop
    vertex 551.191007089788 -264.8260693874865 -75.43847390942724
    vertex 550.226283270198 -264.8260693874865 -75.03887221940873
    vertex 561.4134178221649 -264.82606938748654 -87.62979048971961
  endloop
endfacet
facet normal 0.0 -1.0 0.0
  outer loop
    vertex 552.226283270198 -264.8260693874865 -75.57477060427098
    vertex 551.191007089788 -264.8260693874865 -75.43847390942724
    vertex 561.4134178221649 -264.82606938748654 -87.62979048971961
  endloop
endfacet
facet normal 0.0 -1.0 0.0
  outer loop
    vertex 548.3625799650417 -264.8260693874865 -72.61004678468106
    vertex 546.4134178221649 -264.82606938748654 -68.35545155200474
    vertex 548.7621816550602 -264.8260693874865 -73.57477060427098
  endloop
endfacet
facet normal 0.0 -1.0 0.0
  outer loop
    vertex 548.226283270198 -264.8260693874865 -71.57477060427098
    vertex 546.4134178221649 -264.82606938748654 -68.35545155200474
    vertex 548.3625799650417 -264.8260693874865 -72.61004678468106
  endloop
endfacet
facet normal 0.0 -1.0 0.0
  outer loop
    vertex 548.3625799650417 -264.8260693874865 -70.5394944238609
    vertex 546.4134178221649 -264.82606938748654 -68.35545155200474
    vertex 548.226283270198 -264.8260693874865 -71.57477060427098
  endloop
endfacet
facet normal 0.0 -1.0 0.0
  outer loop
    vertex 548.7621816550602 -264.8260693874865 -69.57477060427098
    vertex 546.4134178221649 -264.82606938748654 -68.35545155200474
    vertex 548.3625799650417 -264.8260693874865 -70.5394944238609
  endloop
endfacet
facet normal 0.0 -1.0 0.0
  outer loop
    vertex 549.3978561454518 -264.8260693874865 -68.7463434795248
    vertex 546.4134178221649 -264.82606938748654 -68.35545155200474
    vertex 548.7621816550602 -264.8260693874865 -69.57477060427098
  endloop
endfacet
facet normal 0.0 -1.0 0.0
  outer loop
    vertex 550.226283270198 -264.8260693874865 -68.11066898913325
    vertex 546.4134178221649 -264.82606938748654 -68.35545155200474
    vertex 549.3978561454518 -264.8260693874865 -68.7463434795248
  endloop
endfacet
facet normal 0.0 -1.0 0.0
  outer loop
    vertex 547.7486200775729 -264.82606938748654 -66.7999018301529
    vertex 546.4134178221649 -264.82606938748654 -68.35545155200474
    vertex 550.226283270198 -264.8260693874865 -68.11066898913325
  endloop
endfacet
facet normal 0.0 -1.0 0.0
  outer loop
    vertex 551.191007089788 -264.8260693874865 -67.71106729911472
    vertex 547.7486200775729 -264.82606938748654 -66.7999018301529
    vertex 550.226283270198 -264.8260693874865 -68.11066898913325
  endloop
endfacet
facet normal 0.0 -1.0 0.0
  outer loop
    vertex 552.226283270198 -264.8260693874865 -67.574770604271
    vertex 547.7486200775729 -264.82606938748654 -66.7999018301529
    vertex 551.191007089788 -264.8260693874865 -67.71106729911472
  endloop
endfacet
facet normal 0.0 -1.0 0.0
  outer loop
    vertex 561.4134178221649 -264.82606938748654 -72.46674367638721
    vertex 553.261559450608 -264.8260693874865 -75.43847390942724
    vertex 561.4134178221649 -264.82606938748654 -87.62979048971961
  endloop
endfacet
facet normal 0.0 -1.0 0.0
  outer loop
    vertex 552.226283270198 -264.8260693874865 -75.57477060427098
    vertex 561.4134178221649 -264.82606938748654 -87.62979048971961
    vertex 553.261559450608 -264.8260693874865 -75.43847390942724
  endloop
endfacet
facet normal 0.0 -1.0 0.0
  outer loop
    vertex 554.226283270198 -264.8260693874865 -75.03887221940873
    vertex 553.261559450608 -264.8260693874865 -75.43847390942724
    vertex 561.4134178221649 -264.82606938748654 -72.46674367638721
  endloop
endfacet
facet normal 0.0 -1.0 0.0
  outer loop
    vertex 555.0547103949442 -264.8260693874865 -74.40319772901717
    vertex 554.226283270198 -264.8260693874865 -75.03887221940873
    vertex 561.4134178221649 -264.82606938748654 -72.46674367638721
  endloop
endfacet
facet normal 0.0 -1.0 0.0
  outer loop
    vertex 555.6903848853357 -264.8260693874865 -73.57477060427098
    vertex 555.0547103949442 -264.8260693874865 -74.40319772901717
    vertex 561.4134178221649 -264.82606938748654 -72.46674367638721
  endloop
endfacet
facet normal 0.0 -1.0 0.0
  outer loop
    vertex 556.0899865753543 -264.8260693874865 -72.61004678468106
    vertex 555.6903848853357 -264.8260693874865 -73.57477060427098
    vertex 561.4134178221649 -264.82606938748654 -72.46674367638721
  endloop
endfacet
facet normal 0.0 -1.0 0.0
  outer loop
    vertex 556.226283270198 -264.8260693874865 -71.57477060427098
    vertex 556.0899865753543 -264.8260693874865 -72.61004678468106
    vertex 561.4134178221649 -264.82606938748654 -72.46674367638721
  endloop
endfacet
facet normal 0.0 -1.0 0.0
  outer loop
    vertex 555.8931098063396 -264.82606938748654 -65.64979048971972
    vertex 556.226283270198 -264.8260693874865 -71.57477060427098
    vertex 561.4134178221649 -264.82606938748654 -72.46674367638721
  endloop
endfacet
facet normal 0.0 -1.0 0.0
  outer loop
    vertex 556.0899865753543 -264.8260693874865 -70.5394944238609
    vertex 556.226283270198 -264.8260693874865 -71.57477060427098
    vertex 555.8931098063396 -264.82606938748654 -65.64979048971972
  endloop
endfacet
facet normal 0.0 -1.0 0.0
  outer loop
    vertex 555.6903848853357 -264.8260693874865 -69.57477060427098
    vertex 556.0899865753543 -264.8260693874865 -70.5394944238609
    vertex 555.8931098063396 -264.82606938748654 -65.64979048971972
  endloop
endfacet
facet normal 0.0 -1.0 0.0
  outer loop
    vertex 555.0547103949442 -264.8260693874865 -68.7463434795248
    vertex 555.6903848853357 -264.8260693874865 -69.57477060427098
    vertex 555.8931098063396 -264.82606938748654 -65.64979048971972
  endloop
endfacet
facet normal 0.0 -1.0 0.0
  outer loop
    vertex 554.226283270198 -264.8260693874865 -68.11066898913325
    vertex 555.0547103949442 -264.8260693874865 -68.7463434795248
    vertex 555.8931098063396 -264.82606938748654 -65.64979048971972
  endloop
endfacet
facet normal 0.0 -1.0 0.0
  outer loop
    vertex 553.261559450608 -264.8260693874865 -67.71106729911472
    vertex 554.226283270198 -264.8260693874865 -68.11066898913325
    vertex 555.8931098063396 -264.82606938748654 -65.64979048971972
  endloop
endfacet
facet normal 0.0 -1.0 0.0
  outer loop
    vertex 552.226283270198 -264.8260693874865 -67.574770604271
    vertex 553.261559450608 -264.8260693874865 -67.71106729911472
    vertex 555.8931098063396 -264.82606938748654 -65.64979048971972
  endloop
endfacet
facet normal 0.0 -1.0 0.0
  outer loop
    vertex 547.7486200775729 -264.82606938748654 -66.7999018301529
    vertex 552.226283270198 -264.8260693874865 -67.574770604271
    vertex 555.8931098063396 -264.82606938748654 -65.64979048971972
  endloop
endfacet
facet normal 0.0 -1.0 0.0
  outer loop
    vertex 549.0919457935603 -264.82606938748654 -66.06752486385291
    vertex 547.7486200775729 -264.82606938748654 -66.7999018301529
    vertex 555.8931098063396 -264.82606938748654 -65.64979048971972
  endloop
endfacet
facet normal 0.0 -1.0 0.0
  outer loop
    vertex 550.7302863407516 -264.82606938748654 -65.64979048971972
    vertex 549.0919457935603 -264.82606938748654 -66.06752486385291
    vertex 555.8931098063396 -264.82606938748654 -65.64979048971972
  endloop
endfacet
facet normal 0.6034157743816141 -0.7974267384703357 1.983243178446811e-16
  outer loop
    vertex 509.104834973909 -289.2523531525094 -90.62979048971961
    vertex 533.9955105091032 -270.4174865392307 -90.62979048971961
    vertex 509.104834973909 -289.2523531525094 -87.62979048971961
  endloop
endfacet
facet normal 0.6034157743816141 -0.7974267384703357 1.983243178446811e-16
  outer loop
    vertex 533.9955105091032 -270.4174865392307 -87.62979048971961
    vertex 509.104834973909 -289.2523531525094 -87.62979048971961
    vertex 533.9955105091032 -270.4174865392307 -90.62979048971961
  endloop
endfacet
facet normal -1.0 0.0 0.0
  outer loop
    vertex 546.4134178221649 -262.7260693874866 -68.35545155200474
    vertex 546.4134178221649 -262.7260693874866 -87.62979048971961
    vertex 546.4134178221649 -264.82606938748654 -68.35545155200474
  endloop
endfacet
facet normal -1.0 0.0 0.0
  outer loop
    vertex 546.4134178221649 -264.82606938748654 -87.62979048971961
    vertex 546.4134178221649 -264.82606938748654 -68.35545155200474
    vertex 546.4134178221649 -262.7260693874866 -87.62979048971961
  endloop
endfacet
facet normal 0.0 0.0 1.0
  outer loop
    vertex 550.7302863407516 -262.7260693874866 -65.64979048971972
    vertex 550.7302863407516 -264.82606938748654 -65.64979048971972
    vertex 555.8931098063396 -262.7260693874866 -65.64979048971972
  endloop
endfacet
facet normal 0.0 0.0 1.0
  outer loop
    vertex 555.8931098063396 -264.82606938748654 -65.64979048971972
    vertex 555.8931098063396 -262.7260693874866 -65.64979048971972
    vertex 550.7302863407516 -264.82606938748654 -65.64979048971972
  endloop
endfacet
facet normal 0.7771432757106328 7.262788044777376e-29 0.629323707655883
  outer loop
    vertex 561.4134178221649 -262.7260693874866 -72.46674367638721
    vertex 555.8931098063396 -262.7260693874866 -65.64979048971972
    vertex 561.4134178221649 -264.82606938748654 -72.46674367638721
  endloop
endfacet
facet normal 0.7771432757106328 7.262788044777376e-29 0.629323707655883
  outer loop
    vertex 555.8931098063396 -264.82606938748654 -65.64979048971972
    vertex 561.4134178221649 -264.82606938748654 -72.46674367638721
    vertex 555.8931098063396 -262.7260693874866 -65.64979048971972
  endloop
endfacet
facet normal 0.0 1.0 0.0
  outer loop
    vertex 531.4134178221649 -262.7260693874866 -90.62979048971961
    vertex 546.4134178221649 -262.7260693874866 -87.62979048971961
    vertex 561.4134178221649 -262.7260693874866 -90.62979048971961
  endloop
endfacet
facet normal 0.0 1.0 0.0
  outer loop
    vertex 561.4134178221649 -262.7260693874866 -72.46674367638721
    vertex 561.4134178221649 -262.7260693874866 -90.62979048971961
    vertex 546.4134178221649 -262.7260693874866 -87.62979048971961
  endloop
endfacet
facet normal 0.0 1.0 0.0
  outer loop
    vertex 553.261559450608 -262.7260693874866 -75.43847390942724
    vertex 561.4134178221649 -262.7260693874866 -72.46674367638721
    vertex 546.4134178221649 -262.7260693874866 -87.62979048971961
  endloop
endfacet
facet normal 0.0 1.0 0.0
  outer loop
    vertex 552.226283270198 -262.7260693874866 -75.57477060427098
    vertex 553.261559450608 -262.7260693874866 -75.43847390942724
    vertex 546.4134178221649 -262.7260693874866 -87.62979048971961
  endloop
endfacet
facet normal 0.0 1.0 0.0
  outer loop
    vertex 554.226283270198 -262.7260693874866 -75.03887221940873
    vertex 561.4134178221649 -262.7260693874866 -72.46674367638721
    vertex 553.261559450608 -262.7260693874866 -75.43847390942724
  endloop
endfacet
facet normal 0.0 1.0 0.0
  outer loop
    vertex 555.0547103949442 -262.7260693874866 -74.40319772901717
    vertex 561.4134178221649 -262.7260693874866 -72.46674367638721
    vertex 554.226283270198 -262.7260693874866 -75.03887221940873
  endloop
endfacet
facet normal 0.0 1.0 0.0
  outer loop
    vertex 555.6903848853357 -262.7260693874866 -73.57477060427098
    vertex 561.4134178221649 -262.7260693874866 -72.46674367638721
    vertex 555.0547103949442 -262.7260693874866 -74.40319772901717
  endloop
endfacet
facet normal 0.0 1.0 0.0
  outer loop
    vertex 556.0899865753543 -262.7260693874866 -72.61004678468106
    vertex 561.4134178221649 -262.7260693874866 -72.46674367638721
    vertex 555.6903848853357 -262.7260693874866 -73.57477060427098
  endloop
endfacet
facet normal 0.0 1.0 0.0
  outer loop
    vertex 556.226283270198 -262.7260693874866 -71.57477060427098
    vertex 561.4134178221649 -262.7260693874866 -72.46674367638721
    vertex 556.0899865753543 -262.7260693874866 -72.61004678468106
  endloop
endfacet
facet normal 0.0 1.0 0.0
  outer loop
    vertex 555.8931098063396 -262.7260693874866 -65.64979048971972
    vertex 561.4134178221649 -262.7260693874866 -72.46674367638721
    vertex 556.226283270198 -262.7260693874866 -71.57477060427098
  endloop
endfacet
facet normal 0.0 1.0 0.0
  outer loop
    vertex 556.0899865753543 -262.7260693874866 -70.5394944238609
    vertex 555.8931098063396 -262.7260693874866 -65.64979048971972
    vertex 556.226283270198 -262.7260693874866 -71.57477060427098
  endloop
endfacet
facet normal 0.0 1.0 0.0
  outer loop
    vertex 555.6903848853357 -262.7260693874866 -69.57477060427098
    vertex 555.8931098063396 -262.7260693874866 -65.64979048971972
    vertex 556.0899865753543 -262.7260693874866 -70.5394944238609
  endloop
endfacet
facet normal 0.0 1.0 0.0
  outer loop
    vertex 555.0547103949442 -262.7260693874866 -68.7463434795248
    vertex 555.8931098063396 -262.7260693874866 -65.64979048971972
    vertex 555.6903848853357 -262.7260693874866 -69.57477060427098
  endloop
endfacet
facet normal 0.0 1.0 0.0
  outer loop
    vertex 554.226283270198 -262.7260693874866 -68.11066898913325
    vertex 555.8931098063396 -262.7260693874866 -65.64979048971972
    vertex 555.0547103949442 -262.7260693874866 -68.7463434795248
  endloop
endfacet
facet normal 0.0 1.0 0.0
  outer loop
    vertex 553.261559450608 -262.7260693874866 -67.71106729911472
    vertex 555.8931098063396 -262.7260693874866 -65.64979048971972
    vertex 554.226283270198 -262.7260693874866 -68.11066898913325
  endloop
endfacet
facet normal 0.0 1.0 0.0
  outer loop
    vertex 552.226283270198 -262.7260693874866 -67.574770604271
    vertex 555.8931098063396 -262.7260693874866 -65.64979048971972
    vertex 553.261559450608 -262.7260693874866 -67.71106729911472
  endloop
endfacet
facet normal 0.0 1.0 0.0
  outer loop
    vertex 547.7486200775729 -262.7260693874866 -66.7999018301529
    vertex 555.8931098063396 -262.7260693874866 -65.64979048971972
    vertex 552.226283270198 -262.7260693874866 -67.574770604271
  endloop
endfacet
facet normal 0.0 1.0 0.0
  outer loop
    vertex 549.0919457935603 -262.7260693874866 -66.06752486385291
    vertex 555.8931098063396 -262.7260693874866 -65.64979048971972
    vertex 547.7486200775729 -262.7260693874866 -66.7999018301529
  endloop
endfacet
facet normal 0.0 1.0 0.0
  outer loop
    vertex 550.7302863407516 -262.7260693874866 -65.64979048971972
    vertex 555.8931098063396 -262.7260693874866 -65.64979048971972
    vertex 549.0919457935603 -262.7260693874866 -66.06752486385291
  endloop
endfacet
facet normal 0.0 1.0 0.0
  outer loop
    vertex 546.4134178221649 -262.7260693874866 -68.35545155200474
    vertex 548.7621816550602 -262.7260693874866 -73.57477060427098
    vertex 546.4134178221649 -262.7260693874866 -87.62979048971961
  endloop
endfacet
facet normal 0.0 1.0 0.0
  outer loop
    vertex 549.3978561454518 -262.7260693874866 -74.40319772901717
    vertex 546.4134178221649 -262.7260693874866 -87.62979048971961
    vertex 548.7621816550602 -262.7260693874866 -73.57477060427098
  endloop
endfacet
facet normal 0.0 1.0 0.0
  outer loop
    vertex 550.226283270198 -262.7260693874866 -75.03887221940873
    vertex 546.4134178221649 -262.7260693874866 -87.62979048971961
    vertex 549.3978561454518 -262.7260693874866 -74.40319772901717
  endloop
endfacet
facet normal 0.0 1.0 0.0
  outer loop
    vertex 551.191007089788 -262.7260693874866 -75.43847390942724
    vertex 546.4134178221649 -262.7260693874866 -87.62979048971961
    vertex 550.226283270198 -262.7260693874866 -75.03887221940873
  endloop
endfacet
facet normal 0.0 1.0 0.0
  outer loop
    vertex 552.226283270198 -262.7260693874866 -75.57477060427098
    vertex 546.4134178221649 -262.7260693874866 -87.62979048971961
    vertex 551.191007089788 -262.7260693874866 -75.43847390942724
  endloop
endfacet
facet normal 0.0 1.0 0.0
  outer loop
    vertex 548.3625799650417 -262.7260693874866 -72.61004678468106
    vertex 548.7621816550602 -262.7260693874866 -73.57477060427098
    vertex 546.4134178221649 -262.7260693874866 -68.35545155200474
  endloop
endfacet
facet normal 0.0 1.0 0.0
  outer loop
    vertex 548.226283270198 -262.7260693874866 -71.57477060427098
    vertex 548.3625799650417 -262.7260693874866 -72.61004678468106
    vertex 546.4134178221649 -262.7260693874866 -68.35545155200474
  endloop
endfacet
facet normal 0.0 1.0 0.0
  outer loop
    vertex 548.3625799650417 -262.7260693874866 -70.5394944238609
    vertex 548.226283270198 -262.7260693874866 -71.57477060427098
    vertex 546.4134178221649 -262.7260693874866 -68.35545155200474
  endloop
endfacet
facet normal 0.0 1.0 0.0
  outer loop
    vertex 548.7621816550602 -262.7260693874866 -69.57477060427098
    vertex 548.3625799650417 -262.7260693874866 -70.5394944238609
    vertex 546.4134178221649 -262.7260693874866 -68.35545155200474
  endloop
endfacet
facet normal 0.0 1.0 0.0
  outer loop
    vertex 549.3978561454518 -262.7260693874866 -68.7463434795248
    vertex 548.7621816550602 -262.7260693874866 -69.57477060427098
    vertex 546.4134178221649 -262.7260693874866 -68.35545155200474
  endloop
endfacet
facet normal 0.0 1.0 0.0
  outer loop
    vertex 550.226283270198 -262.7260693874866 -68.11066898913325
    vertex 549.3978561454518 -262.7260693874866 -68.7463434795248
    vertex 546.4134178221649 -262.7260693874866 -68.35545155200474
  endloop
endfacet
facet normal 0.0 1.0 0.0
  outer loop
    vertex 547.7486200775729 -262.7260693874866 -66.7999018301529
    vertex 550.226283270198 -262.7260693874866 -68.11066898913325
    vertex 546.4134178221649 -262.7260693874866 -68.35545155200474
  endloop
endfacet
facet normal 0.0 1.0 0.0
  outer loop
    vertex 551.191007089788 -262.7260693874866 -67.71106729911472
    vertex 550.226283270198 -262.7260693874866 -68.11066898913325
    vertex 547.7486200775729 -262.7260693874866 -66.7999018301529
  endloop
endfacet
facet normal 0.0 1.0 0.0
  outer loop
    vertex 552.226283270198 -262.7260693874866 -67.574770604271
    vertex 551.191007089788 -262.7260693874866 -67.71106729911472
    vertex 547.7486200775729 -262.7260693874866 -66.7999018301529
  endloop
endfacet
facet normal 0.0 1.0 0.0
  outer loop
    vertex 546.4134178221649 -262.7260693874866 -87.62979048971961
    vertex 531.4134178221649 -262.7260693874866 -90.62979048971961
    vertex 531.4134178221649 -262.7260693874866 -87.62979048971961
  endloop
endfacet
facet normal -0.7588047423667611 -2.0661521943624853e-17 0.6513181733697545
  outer loop
    vertex 547.7486200775729 -262.7260693874866 -66.7999018301529
    vertex 546.4134178221649 -262.7260693874866 -68.35545155200474
    vertex 547.7486200775729 -264.82606938748654 -66.7999018301529
  endloop
endfacet
facet normal -0.7588047423667611 -2.0661521943624853e-17 0.6513181733697545
  outer loop
    vertex 546.4134178221649 -264.82606938748654 -68.35545155200474
    vertex 547.7486200775729 -264.82606938748654 -66.7999018301529
    vertex 546.4134178221649 -262.7260693874866 -68.35545155200474
  endloop
endfacet
facet normal -0.478677755751643 1.5184914775836974e-17 0.8779906640440833
  outer loop
    vertex 547.7486200775729 -262.7260693874866 -66.7999018301529
    vertex 547.7486200775729 -264.82606938748654 -66.7999018301529
    vertex 549.0919457935603 -262.7260693874866 -66.06752486385291
  endloop
endfacet
facet normal -0.478677755751643 1.5184914775836974e-17 0.8779906640440833
  outer loop
    vertex 549.0919457935603 -264.82606938748654 -66.06752486385291
    vertex 549.0919457935603 -262.7260693874866 -66.06752486385291
    vertex 547.7486200775729 -264.82606938748654 -66.7999018301529
  endloop
endfacet
facet normal -0.2470693244514651 -7.83768744309625e-18 0.9689978064552556
  outer loop
    vertex 549.0919457935603 -262.7260693874866 -66.06752486385291
    vertex 549.0919457935603 -264.82606938748654 -66.06752486385291
    vertex 550.7302863407516 -262.7260693874866 -65.64979048971972
  endloop
endfacet
facet normal -0.2470693244514651 -7.83768744309625e-18 0.9689978064552556
  outer loop
    vertex 550.7302863407516 -264.82606938748654 -65.64979048971972
    vertex 550.7302863407516 -262.7260693874866 -65.64979048971972
    vertex 549.0919457935603 -264.82606938748654 -66.06752486385291
  endloop
endfacet
facet normal -0.9914448613738077 0.0 0.1305261922200734
  outer loop
    vertex 556.226283270198 -262.7260693874866 -71.57477060427098
    vertex 556.0899865753543 -262.7260693874866 -72.61004678468106
    vertex 556.226283270198 -264.8260693874865 -71.57477060427098
  endloop
endfacet
facet normal -0.9914448613738077 0.0 0.1305261922200734
  outer loop
    vertex 556.0899865753543 -264.8260693874865 -72.61004678468106
    vertex 556.226283270198 -264.8260693874865 -71.57477060427098
    vertex 556.0899865753543 -262.7260693874866 -72.61004678468106
  endloop
endfacet
facet normal -0.9914448613738077 -0.0 -0.1305261922200734
  outer loop
    vertex 556.0899865753543 -262.7260693874866 -70.5394944238609
    vertex 556.226283270198 -262.7260693874866 -71.57477060427098
    vertex 556.0899865753543 -264.8260693874865 -70.5394944238609
  endloop
endfacet
facet normal -0.9914448613738077 -0.0 -0.1305261922200734
  outer loop
    vertex 556.226283270198 -264.8260693874865 -71.57477060427098
    vertex 556.0899865753543 -264.8260693874865 -70.5394944238609
    vertex 556.226283270198 -262.7260693874866 -71.57477060427098
  endloop
endfacet
facet normal -0.92387953251129 -0.0 -0.382683432365082
  outer loop
    vertex 555.6903848853357 -262.7260693874866 -69.57477060427098
    vertex 556.0899865753543 -262.7260693874866 -70.5394944238609
    vertex 555.6903848853357 -264.8260693874865 -69.57477060427098
  endloop
endfacet
facet normal -0.92387953251129 -0.0 -0.382683432365082
  outer loop
    vertex 556.0899865753543 -264.8260693874865 -70.5394944238609
    vertex 555.6903848853357 -264.8260693874865 -69.57477060427098
    vertex 556.0899865753543 -262.7260693874866 -70.5394944238609
  endloop
endfacet
facet normal -0.7933533402912477 -0.0 -0.6087614290087042
  outer loop
    vertex 555.0547103949442 -262.7260693874866 -68.7463434795248
    vertex 555.6903848853357 -262.7260693874866 -69.57477060427098
    vertex 555.0547103949442 -264.8260693874865 -68.7463434795248
  endloop
endfacet
facet normal -0.7933533402912477 -0.0 -0.6087614290087042
  outer loop
    vertex 555.6903848853357 -264.8260693874865 -69.57477060427098
    vertex 555.0547103949442 -264.8260693874865 -68.7463434795248
    vertex 555.6903848853357 -262.7260693874866 -69.57477060427098
  endloop
endfacet
facet normal -0.6087614290087128 -0.0 -0.7933533402912413
  outer loop
    vertex 554.226283270198 -264.8260693874865 -68.11066898913325
    vertex 554.226283270198 -262.7260693874866 -68.11066898913325
    vertex 555.0547103949442 -264.8260693874865 -68.7463434795248
  endloop
endfacet
facet normal -0.6087614290087128 -0.0 -0.7933533402912413
  outer loop
    vertex 555.0547103949442 -262.7260693874866 -68.7463434795248
    vertex 555.0547103949442 -264.8260693874865 -68.7463434795248
    vertex 554.226283270198 -262.7260693874866 -68.11066898913325
  endloop
endfacet
facet normal -0.3826834323650799 -0.0 -0.9238795325112908
  outer loop
    vertex 553.261559450608 -264.8260693874865 -67.71106729911472
    vertex 553.261559450608 -262.7260693874866 -67.71106729911472
    vertex 554.226283270198 -264.8260693874865 -68.11066898913325
  endloop
endfacet
facet normal -0.3826834323650799 -0.0 -0.9238795325112908
  outer loop
    vertex 554.226283270198 -262.7260693874866 -68.11066898913325
    vertex 554.226283270198 -264.8260693874865 -68.11066898913325
    vertex 553.261559450608 -262.7260693874866 -67.71106729911472
  endloop
endfacet
facet normal -0.13052619222005635 -0.0 -0.9914448613738098
  outer loop
    vertex 552.226283270198 -264.8260693874865 -67.574770604271
    vertex 552.226283270198 -262.7260693874866 -67.574770604271
    vertex 553.261559450608 -264.8260693874865 -67.71106729911472
  endloop
endfacet
facet normal -0.13052619222005635 -0.0 -0.9914448613738098
  outer loop
    vertex 553.261559450608 -262.7260693874866 -67.71106729911472
    vertex 553.261559450608 -264.8260693874865 -67.71106729911472
    vertex 552.226283270198 -262.7260693874866 -67.574770604271
  endloop
endfacet
facet normal 0.13052619222005635 0.0 -0.9914448613738098
  outer loop
    vertex 551.191007089788 -264.8260693874865 -67.71106729911472
    vertex 551.191007089788 -262.7260693874866 -67.71106729911472
    vertex 552.226283270198 -264.8260693874865 -67.574770604271
  endloop
endfacet
facet normal 0.13052619222005635 0.0 -0.9914448613738098
  outer loop
    vertex 552.226283270198 -262.7260693874866 -67.574770604271
    vertex 552.226283270198 -264.8260693874865 -67.574770604271
    vertex 551.191007089788 -262.7260693874866 -67.71106729911472
  endloop
endfacet
facet normal 0.3826834323650799 0.0 -0.9238795325112908
  outer loop
    vertex 550.226283270198 -264.8260693874865 -68.11066898913325
    vertex 550.226283270198 -262.7260693874866 -68.11066898913325
    vertex 551.191007089788 -264.8260693874865 -67.71106729911472
  endloop
endfacet
facet normal 0.3826834323650799 0.0 -0.9238795325112908
  outer loop
    vertex 551.191007089788 -262.7260693874866 -67.71106729911472
    vertex 551.191007089788 -264.8260693874865 -67.71106729911472
    vertex 550.226283270198 -262.7260693874866 -68.11066898913325
  endloop
endfacet
facet normal 0.6087614290087128 0.0 -0.7933533402912413
  outer loop
    vertex 549.3978561454518 -264.8260693874865 -68.7463434795248
    vertex 549.3978561454518 -262.7260693874866 -68.7463434795248
    vertex 550.226283270198 -264.8260693874865 -68.11066898913325
  endloop
endfacet
facet normal 0.6087614290087128 0.0 -0.7933533402912413
  outer loop
    vertex 550.226283270198 -262.7260693874866 -68.11066898913325
    vertex 550.226283270198 -264.8260693874865 -68.11066898913325
    vertex 549.3978561454518 -262.7260693874866 -68.7463434795248
  endloop
endfacet
facet normal 0.7933533402912477 0.0 -0.6087614290087042
  outer loop
    vertex 548.7621816550602 -262.7260693874866 -69.57477060427098
    vertex 549.3978561454518 -262.7260693874866 -68.7463434795248
    vertex 548.7621816550602 -264.8260693874865 -69.57477060427098
  endloop
endfacet
facet normal 0.7933533402912477 0.0 -0.6087614290087042
  outer loop
    vertex 549.3978561454518 -264.8260693874865 -68.7463434795248
    vertex 548.7621816550602 -264.8260693874865 -69.57477060427098
    vertex 549.3978561454518 -262.7260693874866 -68.7463434795248
  endloop
endfacet
facet normal 0.92387953251129 0.0 -0.382683432365082
  outer loop
    vertex 548.3625799650417 -262.7260693874866 -70.5394944238609
    vertex 548.7621816550602 -262.7260693874866 -69.57477060427098
    vertex 548.3625799650417 -264.8260693874865 -70.5394944238609
  endloop
endfacet
facet normal 0.92387953251129 0.0 -0.382683432365082
  outer loop
    vertex 548.7621816550602 -264.8260693874865 -69.57477060427098
    vertex 548.3625799650417 -264.8260693874865 -70.5394944238609
    vertex 548.7621816550602 -262.7260693874866 -69.57477060427098
  endloop
endfacet
facet normal 0.9914448613738077 0.0 -0.1305261922200734
  outer loop
    vertex 548.226283270198 -262.7260693874866 -71.57477060427098
    vertex 548.3625799650417 -262.7260693874866 -70.5394944238609
    vertex 548.226283270198 -264.8260693874865 -71.57477060427098
  endloop
endfacet
facet normal 0.9914448613738077 0.0 -0.1305261922200734
  outer loop
    vertex 548.3625799650417 -264.8260693874865 -70.5394944238609
    vertex 548.226283270198 -264.8260693874865 -71.57477060427098
    vertex 548.3625799650417 -262.7260693874866 -70.5394944238609
  endloop
endfacet
facet normal 0.9914448613738077 0.0 0.1305261922200734
  outer loop
    vertex 548.3625799650417 -262.7260693874866 -72.61004678468106
    vertex 548.226283270198 -262.7260693874866 -71.57477060427098
    vertex 548.3625799650417 -264.8260693874865 -72.61004678468106
  endloop
endfacet
facet normal 0.9914448613738077 0.0 0.1305261922200734
  outer loop
    vertex 548.226283270198 -264.8260693874865 -71.57477060427098
    vertex 548.3625799650417 -264.8260693874865 -72.61004678468106
    vertex 548.226283270198 -262.7260693874866 -71.57477060427098
  endloop
endfacet
facet normal 0.92387953251129 0.0 0.382683432365082
  outer loop
    vertex 548.7621816550602 -262.7260693874866 -73.57477060427098
    vertex 548.3625799650417 -262.7260693874866 -72.61004678468106
    vertex 548.7621816550602 -264.8260693874865 -73.57477060427098
  endloop
endfacet
facet normal 0.92387953251129 0.0 0.382683432365082
  outer loop
    vertex 548.3625799650417 -264.8260693874865 -72.61004678468106
    vertex 548.7621816550602 -264.8260693874865 -73.57477060427098
    vertex 548.3625799650417 -262.7260693874866 -72.61004678468106
  endloop
endfacet
facet normal 0.7933533402912477 0.0 0.6087614290087042
  outer loop
    vertex 549.3978561454518 -262.7260693874866 -74.40319772901717
    vertex 548.7621816550602 -262.7260693874866 -73.57477060427098
    vertex 549.3978561454518 -264.8260693874865 -74.40319772901717
  endloop
endfacet
facet normal 0.7933533402912477 0.0 0.6087614290087042
  outer loop
    vertex 548.7621816550602 -264.8260693874865 -73.57477060427098
    vertex 549.3978561454518 -264.8260693874865 -74.40319772901717
    vertex 548.7621816550602 -262.7260693874866 -73.57477060427098
  endloop
endfacet
facet normal 0.6087614290087128 0.0 0.7933533402912413
  outer loop
    vertex 549.3978561454518 -262.7260693874866 -74.40319772901717
    vertex 549.3978561454518 -264.8260693874865 -74.40319772901717
    vertex 550.226283270198 -262.7260693874866 -75.03887221940873
  endloop
endfacet
facet normal 0.6087614290087128 0.0 0.7933533402912413
  outer loop
    vertex 550.226283270198 -264.8260693874865 -75.03887221940873
    vertex 550.226283270198 -262.7260693874866 -75.03887221940873
    vertex 549.3978561454518 -264.8260693874865 -74.40319772901717
  endloop
endfacet
facet normal 0.3826834323650799 0.0 0.9238795325112908
  outer loop
    vertex 550.226283270198 -262.7260693874866 -75.03887221940873
    vertex 550.226283270198 -264.8260693874865 -75.03887221940873
    vertex 551.191007089788 -262.7260693874866 -75.43847390942724
  endloop
endfacet
facet normal 0.3826834323650799 0.0 0.9238795325112908
  outer loop
    vertex 551.191007089788 -264.8260693874865 -75.43847390942724
    vertex 551.191007089788 -262.7260693874866 -75.43847390942724
    vertex 550.226283270198 -264.8260693874865 -75.03887221940873
  endloop
endfacet
facet normal 0.13052619222005635 0.0 0.9914448613738098
  outer loop
    vertex 551.191007089788 -262.7260693874866 -75.43847390942724
    vertex 551.191007089788 -264.8260693874865 -75.43847390942724
    vertex 552.226283270198 -262.7260693874866 -75.57477060427098
  endloop
endfacet
facet normal 0.13052619222005635 0.0 0.9914448613738098
  outer loop
    vertex 552.226283270198 -264.8260693874865 -75.57477060427098
    vertex 552.226283270198 -262.7260693874866 -75.57477060427098
    vertex 551.191007089788 -264.8260693874865 -75.43847390942724
  endloop
endfacet
facet normal -0.13052619222005635 0.0 0.9914448613738098
  outer loop
    vertex 552.226283270198 -262.7260693874866 -75.57477060427098
    vertex 552.226283270198 -264.8260693874865 -75.57477060427098
    vertex 553.261559450608 -262.7260693874866 -75.43847390942724
  endloop
endfacet
facet normal -0.13052619222005635 0.0 0.9914448613738098
  outer loop
    vertex 553.261559450608 -264.8260693874865 -75.43847390942724
    vertex 553.261559450608 -262.7260693874866 -75.43847390942724
    vertex 552.226283270198 -264.8260693874865 -75.57477060427098
  endloop
endfacet
facet normal -0.3826834323650799 0.0 0.9238795325112908
  outer loop
    vertex 553.261559450608 -262.7260693874866 -75.43847390942724
    vertex 553.261559450608 -264.8260693874865 -75.43847390942724
    vertex 554.226283270198 -262.7260693874866 -75.03887221940873
  endloop
endfacet
facet normal -0.3826834323650799 0.0 0.9238795325112908
  outer loop
    vertex 554.226283270198 -264.8260693874865 -75.03887221940873
    vertex 554.226283270198 -262.7260693874866 -75.03887221940873
    vertex 553.261559450608 -264.8260693874865 -75.43847390942724
  endloop
endfacet
facet normal -0.6087614290087128 0.0 0.7933533402912413
  outer loop
    vertex 554.226283270198 -262.7260693874866 -75.03887221940873
    vertex 554.226283270198 -264.8260693874865 -75.03887221940873
    vertex 555.0547103949442 -262.7260693874866 -74.40319772901717
  endloop
endfacet
facet normal -0.6087614290087128 0.0 0.7933533402912413
  outer loop
    vertex 555.0547103949442 -264.8260693874865 -74.40319772901717
    vertex 555.0547103949442 -262.7260693874866 -74.40319772901717
    vertex 554.226283270198 -264.8260693874865 -75.03887221940873
  endloop
endfacet
facet normal -0.7933533402912477 0.0 0.6087614290087042
  outer loop
    vertex 555.6903848853357 -262.7260693874866 -73.57477060427098
    vertex 555.0547103949442 -262.7260693874866 -74.40319772901717
    vertex 555.6903848853357 -264.8260693874865 -73.57477060427098
  endloop
endfacet
facet normal -0.7933533402912477 0.0 0.6087614290087042
  outer loop
    vertex 555.0547103949442 -264.8260693874865 -74.40319772901717
    vertex 555.6903848853357 -264.8260693874865 -73.57477060427098
    vertex 555.0547103949442 -262.7260693874866 -74.40319772901717
  endloop
endfacet
facet normal -0.92387953251129 0.0 0.382683432365082
  outer loop
    vertex 556.0899865753543 -262.7260693874866 -72.61004678468106
    vertex 555.6903848853357 -262.7260693874866 -73.57477060427098
    vertex 556.0899865753543 -264.8260693874865 -72.61004678468106
  endloop
endfacet
facet normal -0.92387953251129 0.0 0.382683432365082
  outer loop
    vertex 555.6903848853357 -264.8260693874865 -73.57477060427098
    vertex 556.0899865753543 -264.8260693874865 -72.61004678468106
    vertex 555.6903848853357 -262.7260693874866 -73.57477060427098
  endloop
endfacet
facet normal 0.0 0.0 1.0
  outer loop
    vertex 501.41341782216494 -319.89106351742527 -87.62979048971961
    vertex 509.104834973909 -289.2523531525094 -87.62979048971961
    vertex 501.41341782216494 -286.72717492757624 -87.62979048971961
  endloop
endfacet
facet normal 0.0 0.0 1.0
  outer loop
    vertex 531.4134178221649 -262.7260693874866 -87.62979048971961
    vertex 501.41341782216494 -286.72717492757624 -87.62979048971961
    vertex 509.104834973909 -289.2523531525094 -87.62979048971961
  endloop
endfacet
facet normal 0.0 0.0 1.0
  outer loop
    vertex 533.9955105091032 -270.4174865392307 -87.62979048971961
    vertex 531.4134178221649 -262.7260693874866 -87.62979048971961
    vertex 509.104834973909 -289.2523531525094 -87.62979048971961
  endloop
endfacet
facet normal 0.0 0.0 1.0
  outer loop
    vertex 546.4134178221649 -262.7260693874866 -87.62979048971961
    vertex 531.4134178221649 -262.7260693874866 -87.62979048971961
    vertex 533.9955105091032 -270.4174865392307 -87.62979048971961
  endloop
endfacet
facet normal 0.0 0.0 1.0
  outer loop
    vertex 546.4134178221649 -264.82606938748654 -87.62979048971961
    vertex 546.4134178221649 -262.7260693874866 -87.62979048971961
    vertex 533.9955105091032 -270.4174865392307 -87.62979048971961
  endloop
endfacet
facet normal 0.0 0.0 1.0
  outer loop
    vertex 553.7220006704208 -270.4174865392307 -87.62979048971961
    vertex 546.4134178221649 -264.82606938748654 -87.62979048971961
    vertex 533.9955105091032 -270.4174865392307 -87.62979048971961
  endloop
endfacet
facet normal 0.0 0.0 1.0
  outer loop
    vertex 561.4134178221649 -264.82606938748654 -87.62979048971961
    vertex 546.4134178221649 -264.82606938748654 -87.62979048971961
    vertex 553.7220006704208 -270.4174865392307 -87.62979048971961
  endloop
endfacet
facet normal 0.0 0.0 1.0
  outer loop
    vertex 553.7220006704208 -314.4696463656807 -87.62979048971961
    vertex 561.4134178221649 -264.82606938748654 -87.62979048971961
    vertex 553.7220006704208 -270.4174865392307 -87.62979048971961
  endloop
endfacet
facet normal 0.0 0.0 1.0
  outer loop
    vertex 561.4134178221649 -319.89106351742527 -87.62979048971961
    vertex 509.104834973909 -314.4696463656807 -87.62979048971961
    vertex 501.41341782216494 -319.89106351742527 -87.62979048971961
  endloop
endfacet
facet normal 0.0 0.0 1.0
  outer loop
    vertex 509.104834973909 -289.2523531525094 -87.62979048971961
    vertex 501.41341782216494 -319.89106351742527 -87.62979048971961
    vertex 509.104834973909 -314.4696463656807 -87.62979048971961
  endloop
endfacet
facet normal 0.0 0.0 1.0
  outer loop
    vertex 553.7220006704208 -314.4696463656807 -87.62979048971961
    vertex 509.104834973909 -314.4696463656807 -87.62979048971961
    vertex 561.4134178221649 -319.89106351742527 -87.62979048971961
  endloop
endfacet
facet normal 0.0 0.0 1.0
  outer loop
    vertex 561.4134178221649 -264.82606938748654 -87.62979048971961
    vertex 553.7220006704208 -314.4696463656807 -87.62979048971961
    vertex 561.4134178221649 -319.89106351742527 -87.62979048971961
  endloop
endfacet
facet normal 1.0 0.0 0.0
  outer loop
    vertex 561.4134178221649 -262.7260693874866 -72.46674367638721
    vertex 561.4134178221649 -264.82606938748654 -87.62979048971961
    vertex 561.4134178221649 -262.7260693874866 -90.62979048971961
  endloop
endfacet
facet normal 1.0 0.0 0.0
  outer loop
    vertex 561.4134178221649 -319.89106351742527 -90.62979048971961
    vertex 561.4134178221649 -262.7260693874866 -90.62979048971961
    vertex 561.4134178221649 -264.82606938748654 -87.62979048971961
  endloop
endfacet
facet normal 1.0 0.0 0.0
  outer loop
    vertex 561.4134178221649 -319.89106351742527 -87.62979048971961
    vertex 561.4134178221649 -319.89106351742527 -90.62979048971961
    vertex 561.4134178221649 -264.82606938748654 -87.62979048971961
  endloop
endfacet
facet normal 1.0 0.0 0.0
  outer loop
    vertex 561.4134178221649 -264.82606938748654 -87.62979048971961
    vertex 561.4134178221649 -262.7260693874866 -72.46674367638721
    vertex 561.4134178221649 -264.82606938748654 -72.46674367638721
  endloop
endfacet
facet normal -1.0 0.0 0.0
  outer loop
    vertex 553.7220006704208 -270.4174865392307 -87.62979048971961
    vertex 553.7220006704208 -270.4174865392307 -90.62979048971961
    vertex 553.7220006704208 -314.4696463656807 -87.62979048971961
  endloop
endfacet
facet normal -1.0 0.0 0.0
  outer loop
    vertex 553.7220006704208 -314.4696463656807 -90.62979048971961
    vertex 553.7220006704208 -314.4696463656807 -87.62979048971961
    vertex 553.7220006704208 -270.4174865392307 -90.62979048971961
  endloop
endfacet
facet normal -0.624712593458817 0.780854772396224 7.065381453135518e-29
  outer loop
    vertex 531.4134178221649 -262.7260693874866 -90.62979048971961
    vertex 501.41341782216494 -286.72717492757624 -90.62979048971961
    vertex 531.4134178221649 -262.7260693874866 -87.62979048971961
  endloop
endfacet
facet normal -0.624712593458817 0.780854772396224 7.065381453135518e-29
  outer loop
    vertex 501.41341782216494 -286.72717492757624 -87.62979048971961
    vertex 531.4134178221649 -262.7260693874866 -87.62979048971961
    vertex 501.41341782216494 -286.72717492757624 -90.62979048971961
  endloop
endfacet
facet normal 1.0 0.0 0.0
  outer loop
    vertex 509.104834973909 -289.2523531525094 -90.62979048971961
    vertex 509.104834973909 -289.2523531525094 -87.62979048971961
    vertex 509.104834973909 -314.4696463656807 -90.62979048971961
  endloop
endfacet
facet normal 1.0 0.0 0.0
  outer loop
    vertex 509.104834973909 -314.4696463656807 -87.62979048971961
    vertex 509.104834973909 -314.4696463656807 -90.62979048971961
    vertex 509.104834973909 -289.2523531525094 -87.62979048971961
  endloop
endfacet
facet normal 0.0 0.0 -1.0
  outer loop
    vertex 501.41341782216494 -286.72717492757624 -90.62979048971961
    vertex 509.104834973909 -314.4696463656807 -90.62979048971961
    vertex 501.41341782216494 -319.89106351742527 -90.62979048971961
  endloop
endfacet
facet normal 0.0 0.0 -1.0
  outer loop
    vertex 561.4134178221649 -319.89106351742527 -90.62979048971961
    vertex 501.41341782216494 -319.89106351742527 -90.62979048971961
    vertex 509.104834973909 -314.4696463656807 -90.62979048971961
  endloop
endfacet
facet normal 0.0 0.0 -1.0
  outer loop
    vertex 553.7220006704208 -314.4696463656807 -90.62979048971961
    vertex 561.4134178221649 -319.89106351742527 -90.62979048971961
    vertex 509.104834973909 -314.4696463656807 -90.62979048971961
  endloop
endfacet
facet normal 0.0 0.0 -1.0
  outer loop
    vertex 553.7220006704208 -270.4174865392307 -90.62979048971961
    vertex 561.4134178221649 -319.89106351742527 -90.62979048971961
    vertex 553.7220006704208 -314.4696463656807 -90.62979048971961
  endloop
endfacet
facet normal 0.0 0.0 -1.0
  outer loop
    vertex 531.4134178221649 -262.7260693874866 -90.62979048971961
    vertex 509.104834973909 -289.2523531525094 -90.62979048971961
    vertex 501.41341782216494 -286.72717492757624 -90.62979048971961
  endloop
endfacet
facet normal 0.0 0.0 -1.0
  outer loop
    vertex 509.104834973909 -314.4696463656807 -90.62979048971961
    vertex 501.41341782216494 -286.72717492757624 -90.62979048971961
    vertex 509.104834973909 -289.2523531525094 -90.62979048971961
  endloop
endfacet
facet normal 0.0 0.0 -1.0
  outer loop
    vertex 533.9955105091032 -270.4174865392307 -90.62979048971961
    vertex 509.104834973909 -289.2523531525094 -90.62979048971961
    vertex 531.4134178221649 -262.7260693874866 -90.62979048971961
  endloop
endfacet
facet normal 0.0 0.0 -1.0
  outer loop
    vertex 561.4134178221649 -262.7260693874866 -90.62979048971961
    vertex 533.9955105091032 -270.4174865392307 -90.62979048971961
    vertex 531.4134178221649 -262.7260693874866 -90.62979048971961
  endloop
endfacet
facet normal 0.0 0.0 -1.0
  outer loop
    vertex 553.7220006704208 -270.4174865392307 -90.62979048971961
    vertex 533.9955105091032 -270.4174865392307 -90.62979048971961
    vertex 561.4134178221649 -262.7260693874866 -90.62979048971961
  endloop
endfacet
facet normal 0.0 0.0 -1.0
  outer loop
    vertex 561.4134178221649 -319.89106351742527 -90.62979048971961
    vertex 553.7220006704208 -270.4174865392307 -90.62979048971961
    vertex 561.4134178221649 -262.7260693874866 -90.62979048971961
  endloop
endfacet
facet normal 0.0 1.0 0.0
  outer loop
    vertex 533.9955105091032 -369.3646404956198 -87.62979048971961
    vertex 553.7220006704208 -369.3646404956198 -90.62979048971961
    vertex 533.9955105091032 -369.3646404956198 -90.62979048971961
  endloop
endfacet
facet normal 0.0 1.0 0.0
  outer loop
    vertex 553.7220006704208 -369.3646404956198 -90.62979048971961
    vertex 533.9955105091032 -369.3646404956198 -87.62979048971961
    vertex 553.7220006704208 -369.3646404956198 -87.62979048971961
  endloop
endfacet
facet normal 0.0 1.0 0.0
  outer loop
    vertex 501.41341782216494 -319.89106351742527 -87.62979048971961
    vertex 561.4134178221649 -319.89106351742527 -90.62979048971961
    vertex 501.41341782216494 -319.89106351742527 -90.62979048971961
  endloop
endfacet
facet normal 0.0 1.0 0.0
  outer loop
    vertex 561.4134178221649 -319.89106351742527 -90.62979048971961
    vertex 501.41341782216494 -319.89106351742527 -87.62979048971961
    vertex 561.4134178221649 -319.89106351742527 -87.62979048971961
  endloop
endfacet
facet normal -1.0 0.0 0.0
  outer loop
    vertex 501.41341782216494 -319.89106351742527 -87.62979048971961
    vertex 501.41341782216494 -353.05495210727423 -90.62979048971961
    vertex 501.41341782216494 -353.05495210727423 -87.62979048971961
  endloop
endfacet
facet normal -1.0 0.0 0.0
  outer loop
    vertex 501.41341782216494 -353.05495210727423 -90.62979048971961
    vertex 501.41341782216494 -319.89106351742527 -87.62979048971961
    vertex 501.41341782216494 -319.89106351742527 -90.62979048971961
  endloop
endfacet
facet normal -0.0 -1.0 -0.0
  outer loop
    vertex 553.7220006704208 -325.3124806691698 -87.62979048971961
    vertex 509.104834973909 -325.3124806691698 -90.62979048971961
    vertex 553.7220006704208 -325.3124806691698 -90.62979048971961
  endloop
endfacet
facet normal -0.0 -1.0 -0.0
  outer loop
    vertex 509.104834973909 -325.3124806691698 -90.62979048971961
    vertex 553.7220006704208 -325.3124806691698 -87.62979048971961
    vertex 509.104834973909 -325.3124806691698 -87.62979048971961
  endloop
endfacet
facet normal 0.0 1.0 0.0
  outer loop
    vertex 546.4134178221649 -374.956057647364 -87.62979048971961
    vertex 549.3978561454518 -374.95605764736405 -74.40319772901717
    vertex 561.4134178221649 -374.956057647364 -87.62979048971961
  endloop
endfacet
facet normal 0.0 1.0 0.0
  outer loop
    vertex 549.3978561454518 -374.95605764736405 -74.40319772901717
    vertex 546.4134178221649 -374.956057647364 -87.62979048971961
    vertex 548.7621816550602 -374.95605764736405 -73.57477060427098
  endloop
endfacet
facet normal 0.0 1.0 0.0
  outer loop
    vertex 548.7621816550602 -374.95605764736405 -73.57477060427098
    vertex 546.4134178221649 -374.956057647364 -87.62979048971961
    vertex 546.4134178221649 -374.956057647364 -68.35545155200474
  endloop
endfacet
facet normal 0.0 1.0 0.0
  outer loop
    vertex 561.4134178221649 -374.956057647364 -87.62979048971961
    vertex 549.3978561454518 -374.95605764736405 -74.40319772901717
    vertex 550.226283270198 -374.95605764736405 -75.03887221940873
  endloop
endfacet
facet normal 0.0 1.0 0.0
  outer loop
    vertex 561.4134178221649 -374.956057647364 -87.62979048971961
    vertex 550.226283270198 -374.95605764736405 -75.03887221940873
    vertex 551.191007089788 -374.95605764736405 -75.43847390942724
  endloop
endfacet
facet normal 0.0 1.0 0.0
  outer loop
    vertex 561.4134178221649 -374.956057647364 -87.62979048971961
    vertex 551.191007089788 -374.95605764736405 -75.43847390942724
    vertex 552.226283270198 -374.95605764736405 -75.57477060427098
  endloop
endfacet
facet normal 0.0 1.0 0.0
  outer loop
    vertex 548.7621816550602 -374.95605764736405 -73.57477060427098
    vertex 546.4134178221649 -374.956057647364 -68.35545155200474
    vertex 548.3625799650417 -374.95605764736405 -72.61004678468106
  endloop
endfacet
facet normal 0.0 1.0 0.0
  outer loop
    vertex 548.3625799650417 -374.95605764736405 -72.61004678468106
    vertex 546.4134178221649 -374.956057647364 -68.35545155200474
    vertex 548.226283270198 -374.95605764736405 -71.57477060427098
  endloop
endfacet
facet normal 0.0 1.0 0.0
  outer loop
    vertex 548.226283270198 -374.95605764736405 -71.57477060427098
    vertex 546.4134178221649 -374.956057647364 -68.35545155200474
    vertex 548.3625799650417 -374.95605764736405 -70.5394944238609
  endloop
endfacet
facet normal 0.0 1.0 0.0
  outer loop
    vertex 548.3625799650417 -374.95605764736405 -70.5394944238609
    vertex 546.4134178221649 -374.956057647364 -68.35545155200474
    vertex 548.7621816550602 -374.95605764736405 -69.57477060427098
  endloop
endfacet
facet normal 0.0 1.0 0.0
  outer loop
    vertex 548.7621816550602 -374.95605764736405 -69.57477060427098
    vertex 546.4134178221649 -374.956057647364 -68.35545155200474
    vertex 549.3978561454518 -374.95605764736405 -68.7463434795248
  endloop
endfacet
facet normal 0.0 1.0 0.0
  outer loop
    vertex 549.3978561454518 -374.95605764736405 -68.7463434795248
    vertex 546.4134178221649 -374.956057647364 -68.35545155200474
    vertex 550.226283270198 -374.95605764736405 -68.11066898913325
  endloop
endfacet
facet normal 0.0 1.0 0.0
  outer loop
    vertex 550.226283270198 -374.95605764736405 -68.11066898913325
    vertex 546.4134178221649 -374.956057647364 -68.35545155200474
    vertex 547.7486200775729 -374.956057647364 -66.7999018301529
  endloop
endfacet
facet normal 0.0 1.0 0.0
  outer loop
    vertex 550.226283270198 -374.95605764736405 -68.11066898913325
    vertex 547.7486200775729 -374.956057647364 -66.7999018301529
    vertex 551.191007089788 -374.95605764736405 -67.71106729911472
  endloop
endfacet
facet normal 0.0 1.0 0.0
  outer loop
    vertex 551.191007089788 -374.95605764736405 -67.71106729911472
    vertex 547.7486200775729 -374.956057647364 -66.7999018301529
    vertex 552.226283270198 -374.95605764736405 -67.574770604271
  endloop
endfacet
facet normal 0.0 1.0 0.0
  outer loop
    vertex 561.4134178221649 -374.956057647364 -87.62979048971961
    vertex 553.261559450608 -374.95605764736405 -75.43847390942724
    vertex 561.4134178221649 -374.956057647364 -72.46674367638721
  endloop
endfacet
facet normal 0.0 1.0 0.0
  outer loop
    vertex 553.261559450608 -374.95605764736405 -75.43847390942724
    vertex 561.4134178221649 -374.956057647364 -87.62979048971961
    vertex 552.226283270198 -374.95605764736405 -75.57477060427098
  endloop
endfacet
facet normal 0.0 1.0 0.0
  outer loop
    vertex 561.4134178221649 -374.956057647364 -72.46674367638721
    vertex 553.261559450608 -374.95605764736405 -75.43847390942724
    vertex 554.226283270198 -374.95605764736405 -75.03887221940873
  endloop
endfacet
facet normal 0.0 1.0 0.0
  outer loop
    vertex 561.4134178221649 -374.956057647364 -72.46674367638721
    vertex 554.226283270198 -374.95605764736405 -75.03887221940873
    vertex 555.0547103949442 -374.95605764736405 -74.40319772901717
  endloop
endfacet
facet normal 0.0 1.0 0.0
  outer loop
    vertex 561.4134178221649 -374.956057647364 -72.46674367638721
    vertex 555.0547103949442 -374.95605764736405 -74.40319772901717
    vertex 555.6903848853357 -374.95605764736405 -73.57477060427098
  endloop
endfacet
facet normal 0.0 1.0 0.0
  outer loop
    vertex 561.4134178221649 -374.956057647364 -72.46674367638721
    vertex 555.6903848853357 -374.95605764736405 -73.57477060427098
    vertex 556.0899865753543 -374.95605764736405 -72.61004678468106
  endloop
endfacet
facet normal 0.0 1.0 0.0
  outer loop
    vertex 561.4134178221649 -374.956057647364 -72.46674367638721
    vertex 556.0899865753543 -374.95605764736405 -72.61004678468106
    vertex 556.226283270198 -374.95605764736405 -71.57477060427098
  endloop
endfacet
facet normal 0.0 1.0 0.0
  outer loop
    vertex 561.4134178221649 -374.956057647364 -72.46674367638721
    vertex 556.226283270198 -374.95605764736405 -71.57477060427098
    vertex 555.8931098063396 -374.956057647364 -65.64979048971972
  endloop
endfacet
facet normal 0.0 1.0 0.0
  outer loop
    vertex 555.8931098063396 -374.956057647364 -65.64979048971972
    vertex 556.226283270198 -374.95605764736405 -71.57477060427098
    vertex 556.0899865753543 -374.95605764736405 -70.5394944238609
  endloop
endfacet
facet normal 0.0 1.0 0.0
  outer loop
    vertex 555.8931098063396 -374.956057647364 -65.64979048971972
    vertex 556.0899865753543 -374.95605764736405 -70.5394944238609
    vertex 555.6903848853357 -374.95605764736405 -69.57477060427098
  endloop
endfacet
facet normal 0.0 1.0 0.0
  outer loop
    vertex 555.8931098063396 -374.956057647364 -65.64979048971972
    vertex 555.6903848853357 -374.95605764736405 -69.57477060427098
    vertex 555.0547103949442 -374.95605764736405 -68.7463434795248
  endloop
endfacet
facet normal 0.0 1.0 0.0
  outer loop
    vertex 555.8931098063396 -374.956057647364 -65.64979048971972
    vertex 555.0547103949442 -374.95605764736405 -68.7463434795248
    vertex 554.226283270198 -374.95605764736405 -68.11066898913325
  endloop
endfacet
facet normal 0.0 1.0 0.0
  outer loop
    vertex 555.8931098063396 -374.956057647364 -65.64979048971972
    vertex 554.226283270198 -374.95605764736405 -68.11066898913325
    vertex 553.261559450608 -374.95605764736405 -67.71106729911472
  endloop
endfacet
facet normal 0.0 1.0 0.0
  outer loop
    vertex 555.8931098063396 -374.956057647364 -65.64979048971972
    vertex 553.261559450608 -374.95605764736405 -67.71106729911472
    vertex 552.226283270198 -374.95605764736405 -67.574770604271
  endloop
endfacet
facet normal 0.0 1.0 0.0
  outer loop
    vertex 555.8931098063396 -374.956057647364 -65.64979048971972
    vertex 552.226283270198 -374.95605764736405 -67.574770604271
    vertex 547.7486200775729 -374.956057647364 -66.7999018301529
  endloop
endfacet
facet normal 0.0 1.0 0.0
  outer loop
    vertex 555.8931098063396 -374.956057647364 -65.64979048971972
    vertex 547.7486200775729 -374.956057647364 -66.7999018301529
    vertex 549.0919457935603 -374.956057647364 -66.06752486385291
  endloop
endfacet
facet normal 0.0 1.0 0.0
  outer loop
    vertex 555.8931098063396 -374.956057647364 -65.64979048971972
    vertex 549.0919457935603 -374.956057647364 -66.06752486385291
    vertex 550.7302863407516 -374.956057647364 -65.64979048971972
  endloop
endfacet
facet normal 0.6034157743816141 0.7974267384703357 1.983243178446811e-16
  outer loop
    vertex 509.104834973909 -350.5297738823411 -87.62979048971961
    vertex 533.9955105091032 -369.3646404956198 -90.62979048971961
    vertex 509.104834973909 -350.5297738823411 -90.62979048971961
  endloop
endfacet
facet normal 0.6034157743816141 0.7974267384703357 1.983243178446811e-16
  outer loop
    vertex 533.9955105091032 -369.3646404956198 -90.62979048971961
    vertex 509.104834973909 -350.5297738823411 -87.62979048971961
    vertex 533.9955105091032 -369.3646404956198 -87.62979048971961
  endloop
endfacet
facet normal -1.0 0.0 0.0
  outer loop
    vertex 546.4134178221649 -374.956057647364 -68.35545155200474
    vertex 546.4134178221649 -377.0560576473639 -87.62979048971961
    vertex 546.4134178221649 -377.0560576473639 -68.35545155200474
  endloop
endfacet
facet normal -1.0 0.0 0.0
  outer loop
    vertex 546.4134178221649 -377.0560576473639 -87.62979048971961
    vertex 546.4134178221649 -374.956057647364 -68.35545155200474
    vertex 546.4134178221649 -374.956057647364 -87.62979048971961
  endloop
endfacet
facet normal 0.0 0.0 1.0
  outer loop
    vertex 555.8931098063396 -377.0560576473639 -65.64979048971972
    vertex 550.7302863407516 -374.956057647364 -65.64979048971972
    vertex 550.7302863407516 -377.0560576473639 -65.64979048971972
  endloop
endfacet
facet normal 0.0 0.0 1.0
  outer loop
    vertex 550.7302863407516 -374.956057647364 -65.64979048971972
    vertex 555.8931098063396 -377.0560576473639 -65.64979048971972
    vertex 555.8931098063396 -374.956057647364 -65.64979048971972
  endloop
endfacet
facet normal 0.7771432757106328 -7.262788044777376e-29 0.629323707655883
  outer loop
    vertex 561.4134178221649 -374.956057647364 -72.46674367638721
    vertex 555.8931098063396 -377.0560576473639 -65.64979048971972
    vertex 561.4134178221649 -377.0560576473639 -72.46674367638721
  endloop
endfacet
facet normal 0.7771432757106328 -7.262788044777376e-29 0.629323707655883
  outer loop
    vertex 555.8931098063396 -377.0560576473639 -65.64979048971972
    vertex 561.4134178221649 -374.956057647364 -72.46674367638721
    vertex 555.8931098063396 -374.956057647364 -65.64979048971972
  endloop
endfacet
facet normal 0.0 -1.0 0.0
  outer loop
    vertex 561.4134178221649 -377.0560576473639 -90.62979048971961
    vertex 546.4134178221649 -377.0560576473639 -87.62979048971961
    vertex 531.4134178221649 -377.0560576473639 -90.62979048971961
  endloop
endfacet
facet normal 0.0 -1.0 0.0
  outer loop
    vertex 546.4134178221649 -377.0560576473639 -87.62979048971961
    vertex 561.4134178221649 -377.0560576473639 -90.62979048971961
    vertex 561.4134178221649 -377.0560576473639 -72.46674367638721
  endloop
endfacet
facet normal 0.0 -1.0 0.0
  outer loop
    vertex 546.4134178221649 -377.0560576473639 -87.62979048971961
    vertex 561.4134178221649 -377.0560576473639 -72.46674367638721
    vertex 553.261559450608 -377.0560576473639 -75.43847390942724
  endloop
endfacet
facet normal 0.0 -1.0 0.0
  outer loop
    vertex 546.4134178221649 -377.0560576473639 -87.62979048971961
    vertex 553.261559450608 -377.0560576473639 -75.43847390942724
    vertex 552.226283270198 -377.0560576473639 -75.57477060427098
  endloop
endfacet
facet normal 0.0 -1.0 0.0
  outer loop
    vertex 553.261559450608 -377.0560576473639 -75.43847390942724
    vertex 561.4134178221649 -377.0560576473639 -72.46674367638721
    vertex 554.226283270198 -377.0560576473639 -75.03887221940873
  endloop
endfacet
facet normal 0.0 -1.0 0.0
  outer loop
    vertex 554.226283270198 -377.0560576473639 -75.03887221940873
    vertex 561.4134178221649 -377.0560576473639 -72.46674367638721
    vertex 555.0547103949442 -377.0560576473639 -74.40319772901717
  endloop
endfacet
facet normal 0.0 -1.0 0.0
  outer loop
    vertex 555.0547103949442 -377.0560576473639 -74.40319772901717
    vertex 561.4134178221649 -377.0560576473639 -72.46674367638721
    vertex 555.6903848853357 -377.0560576473639 -73.57477060427098
  endloop
endfacet
facet normal 0.0 -1.0 0.0
  outer loop
    vertex 555.6903848853357 -377.0560576473639 -73.57477060427098
    vertex 561.4134178221649 -377.0560576473639 -72.46674367638721
    vertex 556.0899865753543 -377.0560576473639 -72.61004678468106
  endloop
endfacet
facet normal 0.0 -1.0 0.0
  outer loop
    vertex 556.0899865753543 -377.0560576473639 -72.61004678468106
    vertex 561.4134178221649 -377.0560576473639 -72.46674367638721
    vertex 556.226283270198 -377.0560576473639 -71.57477060427098
  endloop
endfacet
facet normal 0.0 -1.0 0.0
  outer loop
    vertex 556.226283270198 -377.0560576473639 -71.57477060427098
    vertex 561.4134178221649 -377.0560576473639 -72.46674367638721
    vertex 555.8931098063396 -377.0560576473639 -65.64979048971972
  endloop
endfacet
facet normal 0.0 -1.0 0.0
  outer loop
    vertex 556.226283270198 -377.0560576473639 -71.57477060427098
    vertex 555.8931098063396 -377.0560576473639 -65.64979048971972
    vertex 556.0899865753543 -377.0560576473639 -70.5394944238609
  endloop
endfacet
facet normal 0.0 -1.0 0.0
  outer loop
    vertex 556.0899865753543 -377.0560576473639 -70.5394944238609
    vertex 555.8931098063396 -377.0560576473639 -65.64979048971972
    vertex 555.6903848853357 -377.0560576473639 -69.57477060427098
  endloop
endfacet
facet normal 0.0 -1.0 0.0
  outer loop
    vertex 555.6903848853357 -377.0560576473639 -69.57477060427098
    vertex 555.8931098063396 -377.0560576473639 -65.64979048971972
    vertex 555.0547103949442 -377.0560576473639 -68.7463434795248
  endloop
endfacet
facet normal 0.0 -1.0 0.0
  outer loop
    vertex 555.0547103949442 -377.0560576473639 -68.7463434795248
    vertex 555.8931098063396 -377.0560576473639 -65.64979048971972
    vertex 554.226283270198 -377.0560576473639 -68.11066898913325
  endloop
endfacet
facet normal 0.0 -1.0 0.0
  outer loop
    vertex 554.226283270198 -377.0560576473639 -68.11066898913325
    vertex 555.8931098063396 -377.0560576473639 -65.64979048971972
    vertex 553.261559450608 -377.0560576473639 -67.71106729911472
  endloop
endfacet
facet normal 0.0 -1.0 0.0
  outer loop
    vertex 553.261559450608 -377.0560576473639 -67.71106729911472
    vertex 555.8931098063396 -377.0560576473639 -65.64979048971972
    vertex 552.226283270198 -377.0560576473639 -67.574770604271
  endloop
endfacet
facet normal 0.0 -1.0 0.0
  outer loop
    vertex 552.226283270198 -377.0560576473639 -67.574770604271
    vertex 555.8931098063396 -377.0560576473639 -65.64979048971972
    vertex 547.7486200775729 -377.0560576473639 -66.7999018301529
  endloop
endfacet
facet normal 0.0 -1.0 0.0
  outer loop
    vertex 547.7486200775729 -377.0560576473639 -66.7999018301529
    vertex 555.8931098063396 -377.0560576473639 -65.64979048971972
    vertex 549.0919457935603 -377.0560576473639 -66.06752486385291
  endloop
endfacet
facet normal 0.0 -1.0 0.0
  outer loop
    vertex 549.0919457935603 -377.0560576473639 -66.06752486385291
    vertex 555.8931098063396 -377.0560576473639 -65.64979048971972
    vertex 550.7302863407516 -377.0560576473639 -65.64979048971972
  endloop
endfacet
facet normal 0.0 -1.0 0.0
  outer loop
    vertex 546.4134178221649 -377.0560576473639 -87.62979048971961
    vertex 548.7621816550602 -377.0560576473639 -73.57477060427098
    vertex 546.4134178221649 -377.0560576473639 -68.35545155200474
  endloop
endfacet
facet normal 0.0 -1.0 0.0
  outer loop
    vertex 548.7621816550602 -377.0560576473639 -73.57477060427098
    vertex 546.4134178221649 -377.0560576473639 -87.62979048971961
    vertex 549.3978561454518 -377.0560576473639 -74.40319772901717
  endloop
endfacet
facet normal 0.0 -1.0 0.0
  outer loop
    vertex 549.3978561454518 -377.0560576473639 -74.40319772901717
    vertex 546.4134178221649 -377.0560576473639 -87.62979048971961
    vertex 550.226283270198 -377.0560576473639 -75.03887221940873
  endloop
endfacet
facet normal 0.0 -1.0 0.0
  outer loop
    vertex 550.226283270198 -377.0560576473639 -75.03887221940873
    vertex 546.4134178221649 -377.0560576473639 -87.62979048971961
    vertex 551.191007089788 -377.0560576473639 -75.43847390942724
  endloop
endfacet
facet normal 0.0 -1.0 0.0
  outer loop
    vertex 551.191007089788 -377.0560576473639 -75.43847390942724
    vertex 546.4134178221649 -377.0560576473639 -87.62979048971961
    vertex 552.226283270198 -377.0560576473639 -75.57477060427098
  endloop
endfacet
facet normal 0.0 -1.0 0.0
  outer loop
    vertex 546.4134178221649 -377.0560576473639 -68.35545155200474
    vertex 548.7621816550602 -377.0560576473639 -73.57477060427098
    vertex 548.3625799650417 -377.0560576473639 -72.61004678468106
  endloop
endfacet
facet normal 0.0 -1.0 0.0
  outer loop
    vertex 546.4134178221649 -377.0560576473639 -68.35545155200474
    vertex 548.3625799650417 -377.0560576473639 -72.61004678468106
    vertex 548.226283270198 -377.0560576473639 -71.57477060427098
  endloop
endfacet
facet normal 0.0 -1.0 0.0
  outer loop
    vertex 546.4134178221649 -377.0560576473639 -68.35545155200474
    vertex 548.226283270198 -377.0560576473639 -71.57477060427098
    vertex 548.3625799650417 -377.0560576473639 -70.5394944238609
  endloop
endfacet
facet normal 0.0 -1.0 0.0
  outer loop
    vertex 546.4134178221649 -377.0560576473639 -68.35545155200474
    vertex 548.3625799650417 -377.0560576473639 -70.5394944238609
    vertex 548.7621816550602 -377.0560576473639 -69.57477060427098
  endloop
endfacet
facet normal 0.0 -1.0 0.0
  outer loop
    vertex 546.4134178221649 -377.0560576473639 -68.35545155200474
    vertex 548.7621816550602 -377.0560576473639 -69.57477060427098
    vertex 549.3978561454518 -377.0560576473639 -68.7463434795248
  endloop
endfacet
facet normal 0.0 -1.0 0.0
  outer loop
    vertex 546.4134178221649 -377.0560576473639 -68.35545155200474
    vertex 549.3978561454518 -377.0560576473639 -68.7463434795248
    vertex 550.226283270198 -377.0560576473639 -68.11066898913325
  endloop
endfacet
facet normal 0.0 -1.0 0.0
  outer loop
    vertex 546.4134178221649 -377.0560576473639 -68.35545155200474
    vertex 550.226283270198 -377.0560576473639 -68.11066898913325
    vertex 547.7486200775729 -377.0560576473639 -66.7999018301529
  endloop
endfacet
facet normal 0.0 -1.0 0.0
  outer loop
    vertex 547.7486200775729 -377.0560576473639 -66.7999018301529
    vertex 550.226283270198 -377.0560576473639 -68.11066898913325
    vertex 551.191007089788 -377.0560576473639 -67.71106729911472
  endloop
endfacet
facet normal 0.0 -1.0 0.0
  outer loop
    vertex 547.7486200775729 -377.0560576473639 -66.7999018301529
    vertex 551.191007089788 -377.0560576473639 -67.71106729911472
    vertex 552.226283270198 -377.0560576473639 -67.574770604271
  endloop
endfacet
facet normal 0.0 -1.0 0.0
  outer loop
    vertex 531.4134178221649 -377.0560576473639 -87.62979048971961
    vertex 531.4134178221649 -377.0560576473639 -90.62979048971961
    vertex 546.4134178221649 -377.0560576473639 -87.62979048971961
  endloop
endfacet
facet normal -0.7588047423667611 2.0661521943624853e-17 0.6513181733697545
  outer loop
    vertex 547.7486200775729 -374.956057647364 -66.7999018301529
    vertex 546.4134178221649 -377.0560576473639 -68.35545155200474
    vertex 547.7486200775729 -377.0560576473639 -66.7999018301529
  endloop
endfacet
facet normal -0.7588047423667611 2.0661521943624853e-17 0.6513181733697545
  outer loop
    vertex 546.4134178221649 -377.0560576473639 -68.35545155200474
    vertex 547.7486200775729 -374.956057647364 -66.7999018301529
    vertex 546.4134178221649 -374.956057647364 -68.35545155200474
  endloop
endfacet
facet normal -0.478677755751643 -1.5184914775836974e-17 0.8779906640440833
  outer loop
    vertex 549.0919457935603 -377.0560576473639 -66.06752486385291
    vertex 547.7486200775729 -374.956057647364 -66.7999018301529
    vertex 547.7486200775729 -377.0560576473639 -66.7999018301529
  endloop
endfacet
facet normal -0.478677755751643 -1.5184914775836974e-17 0.8779906640440833
  outer loop
    vertex 547.7486200775729 -374.956057647364 -66.7999018301529
    vertex 549.0919457935603 -377.0560576473639 -66.06752486385291
    vertex 549.0919457935603 -374.956057647364 -66.06752486385291
  endloop
endfacet
facet normal -0.2470693244514651 7.83768744309625e-18 0.9689978064552556
  outer loop
    vertex 550.7302863407516 -377.0560576473639 -65.64979048971972
    vertex 549.0919457935603 -374.956057647364 -66.06752486385291
    vertex 549.0919457935603 -377.0560576473639 -66.06752486385291
  endloop
endfacet
facet normal -0.2470693244514651 7.83768744309625e-18 0.9689978064552556
  outer loop
    vertex 549.0919457935603 -374.956057647364 -66.06752486385291
    vertex 550.7302863407516 -377.0560576473639 -65.64979048971972
    vertex 550.7302863407516 -374.956057647364 -65.64979048971972
  endloop
endfacet
facet normal -0.9914448613738077 0.0 0.1305261922200734
  outer loop
    vertex 556.226283270198 -374.95605764736405 -71.57477060427098
    vertex 556.0899865753543 -377.0560576473639 -72.61004678468106
    vertex 556.226283270198 -377.0560576473639 -71.57477060427098
  endloop
endfacet
facet normal -0.9914448613738077 0.0 0.1305261922200734
  outer loop
    vertex 556.0899865753543 -377.0560576473639 -72.61004678468106
    vertex 556.226283270198 -374.95605764736405 -71.57477060427098
    vertex 556.0899865753543 -374.95605764736405 -72.61004678468106
  endloop
endfacet
facet normal -0.9914448613738077 0.0 -0.1305261922200734
  outer loop
    vertex 556.0899865753543 -374.95605764736405 -70.5394944238609
    vertex 556.226283270198 -377.0560576473639 -71.57477060427098
    vertex 556.0899865753543 -377.0560576473639 -70.5394944238609
  endloop
endfacet
facet normal -0.9914448613738077 0.0 -0.1305261922200734
  outer loop
    vertex 556.226283270198 -377.0560576473639 -71.57477060427098
    vertex 556.0899865753543 -374.95605764736405 -70.5394944238609
    vertex 556.226283270198 -374.95605764736405 -71.57477060427098
  endloop
endfacet
facet normal -0.92387953251129 0.0 -0.382683432365082
  outer loop
    vertex 555.6903848853357 -374.95605764736405 -69.57477060427098
    vertex 556.0899865753543 -377.0560576473639 -70.5394944238609
    vertex 555.6903848853357 -377.0560576473639 -69.57477060427098
  endloop
endfacet
facet normal -0.92387953251129 0.0 -0.382683432365082
  outer loop
    vertex 556.0899865753543 -377.0560576473639 -70.5394944238609
    vertex 555.6903848853357 -374.95605764736405 -69.57477060427098
    vertex 556.0899865753543 -374.95605764736405 -70.5394944238609
  endloop
endfacet
facet normal -0.7933533402912477 0.0 -0.6087614290087042
  outer loop
    vertex 555.0547103949442 -374.95605764736405 -68.7463434795248
    vertex 555.6903848853357 -377.0560576473639 -69.57477060427098
    vertex 555.0547103949442 -377.0560576473639 -68.7463434795248
  endloop
endfacet
facet normal -0.7933533402912477 0.0 -0.6087614290087042
  outer loop
    vertex 555.6903848853357 -377.0560576473639 -69.57477060427098
    vertex 555.0547103949442 -374.95605764736405 -68.7463434795248
    vertex 555.6903848853357 -374.95605764736405 -69.57477060427098
  endloop
endfacet
facet normal -0.6087614290087128 0.0 -0.7933533402912413
  outer loop
    vertex 555.0547103949442 -374.95605764736405 -68.7463434795248
    vertex 554.226283270198 -377.0560576473639 -68.11066898913325
    vertex 554.226283270198 -374.95605764736405 -68.11066898913325
  endloop
endfacet
facet normal -0.6087614290087128 0.0 -0.7933533402912413
  outer loop
    vertex 554.226283270198 -377.0560576473639 -68.11066898913325
    vertex 555.0547103949442 -374.95605764736405 -68.7463434795248
    vertex 555.0547103949442 -377.0560576473639 -68.7463434795248
  endloop
endfacet
facet normal -0.3826834323650799 0.0 -0.9238795325112908
  outer loop
    vertex 554.226283270198 -374.95605764736405 -68.11066898913325
    vertex 553.261559450608 -377.0560576473639 -67.71106729911472
    vertex 553.261559450608 -374.95605764736405 -67.71106729911472
  endloop
endfacet
facet normal -0.3826834323650799 0.0 -0.9238795325112908
  outer loop
    vertex 553.261559450608 -377.0560576473639 -67.71106729911472
    vertex 554.226283270198 -374.95605764736405 -68.11066898913325
    vertex 554.226283270198 -377.0560576473639 -68.11066898913325
  endloop
endfacet
facet normal -0.13052619222005635 0.0 -0.9914448613738098
  outer loop
    vertex 553.261559450608 -374.95605764736405 -67.71106729911472
    vertex 552.226283270198 -377.0560576473639 -67.574770604271
    vertex 552.226283270198 -374.95605764736405 -67.574770604271
  endloop
endfacet
facet normal -0.13052619222005635 0.0 -0.9914448613738098
  outer loop
    vertex 552.226283270198 -377.0560576473639 -67.574770604271
    vertex 553.261559450608 -374.95605764736405 -67.71106729911472
    vertex 553.261559450608 -377.0560576473639 -67.71106729911472
  endloop
endfacet
facet normal 0.13052619222005635 0.0 -0.9914448613738098
  outer loop
    vertex 552.226283270198 -374.95605764736405 -67.574770604271
    vertex 551.191007089788 -377.0560576473639 -67.71106729911472
    vertex 551.191007089788 -374.95605764736405 -67.71106729911472
  endloop
endfacet
facet normal 0.13052619222005635 0.0 -0.9914448613738098
  outer loop
    vertex 551.191007089788 -377.0560576473639 -67.71106729911472
    vertex 552.226283270198 -374.95605764736405 -67.574770604271
    vertex 552.226283270198 -377.0560576473639 -67.574770604271
  endloop
endfacet
facet normal 0.3826834323650799 0.0 -0.9238795325112908
  outer loop
    vertex 551.191007089788 -374.95605764736405 -67.71106729911472
    vertex 550.226283270198 -377.0560576473639 -68.11066898913325
    vertex 550.226283270198 -374.95605764736405 -68.11066898913325
  endloop
endfacet
facet normal 0.3826834323650799 0.0 -0.9238795325112908
  outer loop
    vertex 550.226283270198 -377.0560576473639 -68.11066898913325
    vertex 551.191007089788 -374.95605764736405 -67.71106729911472
    vertex 551.191007089788 -377.0560576473639 -67.71106729911472
  endloop
endfacet
facet normal 0.6087614290087128 0.0 -0.7933533402912413
  outer loop
    vertex 550.226283270198 -374.95605764736405 -68.11066898913325
    vertex 549.3978561454518 -377.0560576473639 -68.7463434795248
    vertex 549.3978561454518 -374.95605764736405 -68.7463434795248
  endloop
endfacet
facet normal 0.6087614290087128 0.0 -0.7933533402912413
  outer loop
    vertex 549.3978561454518 -377.0560576473639 -68.7463434795248
    vertex 550.226283270198 -374.95605764736405 -68.11066898913325
    vertex 550.226283270198 -377.0560576473639 -68.11066898913325
  endloop
endfacet
facet normal 0.7933533402912477 0.0 -0.6087614290087042
  outer loop
    vertex 548.7621816550602 -374.95605764736405 -69.57477060427098
    vertex 549.3978561454518 -377.0560576473639 -68.7463434795248
    vertex 548.7621816550602 -377.0560576473639 -69.57477060427098
  endloop
endfacet
facet normal 0.7933533402912477 0.0 -0.6087614290087042
  outer loop
    vertex 549.3978561454518 -377.0560576473639 -68.7463434795248
    vertex 548.7621816550602 -374.95605764736405 -69.57477060427098
    vertex 549.3978561454518 -374.95605764736405 -68.7463434795248
  endloop
endfacet
facet normal 0.92387953251129 0.0 -0.382683432365082
  outer loop
    vertex 548.3625799650417 -374.95605764736405 -70.5394944238609
    vertex 548.7621816550602 -377.0560576473639 -69.57477060427098
    vertex 548.3625799650417 -377.0560576473639 -70.5394944238609
  endloop
endfacet
facet normal 0.92387953251129 0.0 -0.382683432365082
  outer loop
    vertex 548.7621816550602 -377.0560576473639 -69.57477060427098
    vertex 548.3625799650417 -374.95605764736405 -70.5394944238609
    vertex 548.7621816550602 -374.95605764736405 -69.57477060427098
  endloop
endfacet
facet normal 0.9914448613738077 0.0 -0.1305261922200734
  outer loop
    vertex 548.226283270198 -374.95605764736405 -71.57477060427098
    vertex 548.3625799650417 -377.0560576473639 -70.5394944238609
    vertex 548.226283270198 -377.0560576473639 -71.57477060427098
  endloop
endfacet
facet normal 0.9914448613738077 0.0 -0.1305261922200734
  outer loop
    vertex 548.3625799650417 -377.0560576473639 -70.5394944238609
    vertex 548.226283270198 -374.95605764736405 -71.57477060427098
    vertex 548.3625799650417 -374.95605764736405 -70.5394944238609
  endloop
endfacet
facet normal 0.9914448613738077 0.0 0.1305261922200734
  outer loop
    vertex 548.3625799650417 -374.95605764736405 -72.61004678468106
    vertex 548.226283270198 -377.0560576473639 -71.57477060427098
    vertex 548.3625799650417 -377.0560576473639 -72.61004678468106
  endloop
endfacet
facet normal 0.9914448613738077 0.0 0.1305261922200734
  outer loop
    vertex 548.226283270198 -377.0560576473639 -71.57477060427098
    vertex 548.3625799650417 -374.95605764736405 -72.61004678468106
    vertex 548.226283270198 -374.95605764736405 -71.57477060427098
  endloop
endfacet
facet normal 0.92387953251129 0.0 0.382683432365082
  outer loop
    vertex 548.7621816550602 -374.95605764736405 -73.57477060427098
    vertex 548.3625799650417 -377.0560576473639 -72.61004678468106
    vertex 548.7621816550602 -377.0560576473639 -73.57477060427098
  endloop
endfacet
facet normal 0.92387953251129 0.0 0.382683432365082
  outer loop
    vertex 548.3625799650417 -377.0560576473639 -72.61004678468106
    vertex 548.7621816550602 -374.95605764736405 -73.57477060427098
    vertex 548.3625799650417 -374.95605764736405 -72.61004678468106
  endloop
endfacet
facet normal 0.7933533402912477 0.0 0.6087614290087042
  outer loop
    vertex 549.3978561454518 -374.95605764736405 -74.40319772901717
    vertex 548.7621816550602 -377.0560576473639 -73.57477060427098
    vertex 549.3978561454518 -377.0560576473639 -74.40319772901717
  endloop
endfacet
facet normal 0.7933533402912477 0.0 0.6087614290087042
  outer loop
    vertex 548.7621816550602 -377.0560576473639 -73.57477060427098
    vertex 549.3978561454518 -374.95605764736405 -74.40319772901717
    vertex 548.7621816550602 -374.95605764736405 -73.57477060427098
  endloop
endfacet
facet normal 0.6087614290087128 0.0 0.7933533402912413
  outer loop
    vertex 550.226283270198 -377.0560576473639 -75.03887221940873
    vertex 549.3978561454518 -374.95605764736405 -74.40319772901717
    vertex 549.3978561454518 -377.0560576473639 -74.40319772901717
  endloop
endfacet
facet normal 0.6087614290087128 0.0 0.7933533402912413
  outer loop
    vertex 549.3978561454518 -374.95605764736405 -74.40319772901717
    vertex 550.226283270198 -377.0560576473639 -75.03887221940873
    vertex 550.226283270198 -374.95605764736405 -75.03887221940873
  endloop
endfacet
facet normal 0.3826834323650799 0.0 0.9238795325112908
  outer loop
    vertex 551.191007089788 -377.0560576473639 -75.43847390942724
    vertex 550.226283270198 -374.95605764736405 -75.03887221940873
    vertex 550.226283270198 -377.0560576473639 -75.03887221940873
  endloop
endfacet
facet normal 0.3826834323650799 0.0 0.9238795325112908
  outer loop
    vertex 550.226283270198 -374.95605764736405 -75.03887221940873
    vertex 551.191007089788 -377.0560576473639 -75.43847390942724
    vertex 551.191007089788 -374.95605764736405 -75.43847390942724
  endloop
endfacet
facet normal 0.13052619222005635 0.0 0.9914448613738098
  outer loop
    vertex 552.226283270198 -377.0560576473639 -75.57477060427098
    vertex 551.191007089788 -374.95605764736405 -75.43847390942724
    vertex 551.191007089788 -377.0560576473639 -75.43847390942724
  endloop
endfacet
facet normal 0.13052619222005635 0.0 0.9914448613738098
  outer loop
    vertex 551.191007089788 -374.95605764736405 -75.43847390942724
    vertex 552.226283270198 -377.0560576473639 -75.57477060427098
    vertex 552.226283270198 -374.95605764736405 -75.57477060427098
  endloop
endfacet
facet normal -0.13052619222005635 0.0 0.9914448613738098
  outer loop
    vertex 553.261559450608 -377.0560576473639 -75.43847390942724
    vertex 552.226283270198 -374.95605764736405 -75.57477060427098
    vertex 552.226283270198 -377.0560576473639 -75.57477060427098
  endloop
endfacet
facet normal -0.13052619222005635 0.0 0.9914448613738098
  outer loop
    vertex 552.226283270198 -374.95605764736405 -75.57477060427098
    vertex 553.261559450608 -377.0560576473639 -75.43847390942724
    vertex 553.261559450608 -374.95605764736405 -75.43847390942724
  endloop
endfacet
facet normal -0.3826834323650799 0.0 0.9238795325112908
  outer loop
    vertex 554.226283270198 -377.0560576473639 -75.03887221940873
    vertex 553.261559450608 -374.95605764736405 -75.43847390942724
    vertex 553.261559450608 -377.0560576473639 -75.43847390942724
  endloop
endfacet
facet normal -0.3826834323650799 0.0 0.9238795325112908
  outer loop
    vertex 553.261559450608 -374.95605764736405 -75.43847390942724
    vertex 554.226283270198 -377.0560576473639 -75.03887221940873
    vertex 554.226283270198 -374.95605764736405 -75.03887221940873
  endloop
endfacet
facet normal -0.6087614290087128 0.0 0.7933533402912413
  outer loop
    vertex 555.0547103949442 -377.0560576473639 -74.40319772901717
    vertex 554.226283270198 -374.95605764736405 -75.03887221940873
    vertex 554.226283270198 -377.0560576473639 -75.03887221940873
  endloop
endfacet
facet normal -0.6087614290087128 0.0 0.7933533402912413
  outer loop
    vertex 554.226283270198 -374.95605764736405 -75.03887221940873
    vertex 555.0547103949442 -377.0560576473639 -74.40319772901717
    vertex 555.0547103949442 -374.95605764736405 -74.40319772901717
  endloop
endfacet
facet normal -0.7933533402912477 0.0 0.6087614290087042
  outer loop
    vertex 555.6903848853357 -374.95605764736405 -73.57477060427098
    vertex 555.0547103949442 -377.0560576473639 -74.40319772901717
    vertex 555.6903848853357 -377.0560576473639 -73.57477060427098
  endloop
endfacet
facet normal -0.7933533402912477 0.0 0.6087614290087042
  outer loop
    vertex 555.0547103949442 -377.0560576473639 -74.40319772901717
    vertex 555.6903848853357 -374.95605764736405 -73.57477060427098
    vertex 555.0547103949442 -374.95605764736405 -74.40319772901717
  endloop
endfacet
facet normal -0.92387953251129 0.0 0.382683432365082
  outer loop
    vertex 556.0899865753543 -374.95605764736405 -72.61004678468106
    vertex 555.6903848853357 -377.0560576473639 -73.57477060427098
    vertex 556.0899865753543 -377.0560576473639 -72.61004678468106
  endloop
endfacet
facet normal -0.92387953251129 0.0 0.382683432365082
  outer loop
    vertex 555.6903848853357 -377.0560576473639 -73.57477060427098
    vertex 556.0899865753543 -374.95605764736405 -72.61004678468106
    vertex 555.6903848853357 -374.95605764736405 -73.57477060427098
  endloop
endfacet
facet normal 0.0 0.0 1.0
  outer loop
    vertex 501.41341782216494 -353.05495210727423 -87.62979048971961
    vertex 509.104834973909 -350.5297738823411 -87.62979048971961
    vertex 501.41341782216494 -319.89106351742527 -87.62979048971961
  endloop
endfacet
facet normal 0.0 0.0 1.0
  outer loop
    vertex 509.104834973909 -350.5297738823411 -87.62979048971961
    vertex 501.41341782216494 -353.05495210727423 -87.62979048971961
    vertex 531.4134178221649 -377.0560576473639 -87.62979048971961
  endloop
endfacet
facet normal 0.0 0.0 1.0
  outer loop
    vertex 509.104834973909 -350.5297738823411 -87.62979048971961
    vertex 531.4134178221649 -377.0560576473639 -87.62979048971961
    vertex 533.9955105091032 -369.3646404956198 -87.62979048971961
  endloop
endfacet
facet normal 0.0 0.0 1.0
  outer loop
    vertex 533.9955105091032 -369.3646404956198 -87.62979048971961
    vertex 531.4134178221649 -377.0560576473639 -87.62979048971961
    vertex 546.4134178221649 -377.0560576473639 -87.62979048971961
  endloop
endfacet
facet normal 0.0 0.0 1.0
  outer loop
    vertex 533.9955105091032 -369.3646404956198 -87.62979048971961
    vertex 546.4134178221649 -377.0560576473639 -87.62979048971961
    vertex 546.4134178221649 -374.956057647364 -87.62979048971961
  endloop
endfacet
facet normal 0.0 0.0 1.0
  outer loop
    vertex 533.9955105091032 -369.3646404956198 -87.62979048971961
    vertex 546.4134178221649 -374.956057647364 -87.62979048971961
    vertex 553.7220006704208 -369.3646404956198 -87.62979048971961
  endloop
endfacet
facet normal 0.0 0.0 1.0
  outer loop
    vertex 553.7220006704208 -369.3646404956198 -87.62979048971961
    vertex 546.4134178221649 -374.956057647364 -87.62979048971961
    vertex 561.4134178221649 -374.956057647364 -87.62979048971961
  endloop
endfacet
facet normal 0.0 0.0 1.0
  outer loop
    vertex 553.7220006704208 -369.3646404956198 -87.62979048971961
    vertex 561.4134178221649 -374.956057647364 -87.62979048971961
    vertex 553.7220006704208 -325.3124806691698 -87.62979048971961
  endloop
endfacet
facet normal 0.0 0.0 1.0
  outer loop
    vertex 501.41341782216494 -319.89106351742527 -87.62979048971961
    vertex 509.104834973909 -325.3124806691698 -87.62979048971961
    vertex 561.4134178221649 -319.89106351742527 -87.62979048971961
  endloop
endfacet
facet normal 0.0 0.0 1.0
  outer loop
    vertex 509.104834973909 -325.3124806691698 -87.62979048971961
    vertex 501.41341782216494 -319.89106351742527 -87.62979048971961
    vertex 509.104834973909 -350.5297738823411 -87.62979048971961
  endloop
endfacet
facet normal 0.0 0.0 1.0
  outer loop
    vertex 561.4134178221649 -319.89106351742527 -87.62979048971961
    vertex 509.104834973909 -325.3124806691698 -87.62979048971961
    vertex 553.7220006704208 -325.3124806691698 -87.62979048971961
  endloop
endfacet
facet normal 0.0 0.0 1.0
  outer loop
    vertex 561.4134178221649 -319.89106351742527 -87.62979048971961
    vertex 553.7220006704208 -325.3124806691698 -87.62979048971961
    vertex 561.4134178221649 -374.956057647364 -87.62979048971961
  endloop
endfacet
facet normal 1.0 0.0 0.0
  outer loop
    vertex 561.4134178221649 -377.0560576473639 -90.62979048971961
    vertex 561.4134178221649 -374.956057647364 -87.62979048971961
    vertex 561.4134178221649 -377.0560576473639 -72.46674367638721
  endloop
endfacet
facet normal 1.0 0.0 0.0
  outer loop
    vertex 561.4134178221649 -374.956057647364 -87.62979048971961
    vertex 561.4134178221649 -377.0560576473639 -90.62979048971961
    vertex 561.4134178221649 -319.89106351742527 -90.62979048971961
  endloop
endfacet
facet normal 1.0 0.0 0.0
  outer loop
    vertex 561.4134178221649 -374.956057647364 -87.62979048971961
    vertex 561.4134178221649 -319.89106351742527 -90.62979048971961
    vertex 561.4134178221649 -319.89106351742527 -87.62979048971961
  endloop
endfacet
facet normal 1.0 0.0 0.0
  outer loop
    vertex 561.4134178221649 -374.956057647364 -72.46674367638721
    vertex 561.4134178221649 -377.0560576473639 -72.46674367638721
    vertex 561.4134178221649 -374.956057647364 -87.62979048971961
  endloop
endfacet
facet normal -1.0 0.0 0.0
  outer loop
    vertex 553.7220006704208 -325.3124806691698 -87.62979048971961
    vertex 553.7220006704208 -369.3646404956198 -90.62979048971961
    vertex 553.7220006704208 -369.3646404956198 -87.62979048971961
  endloop
endfacet
facet normal -1.0 0.0 0.0
  outer loop
    vertex 553.7220006704208 -369.3646404956198 -90.62979048971961
    vertex 553.7220006704208 -325.3124806691698 -87.62979048971961
    vertex 553.7220006704208 -325.3124806691698 -90.62979048971961
  endloop
endfacet
facet normal -0.624712593458817 -0.780854772396224 7.065381453135518e-29
  outer loop
    vertex 531.4134178221649 -377.0560576473639 -87.62979048971961
    vertex 501.41341782216494 -353.05495210727423 -90.62979048971961
    vertex 531.4134178221649 -377.0560576473639 -90.62979048971961
  endloop
endfacet
facet normal -0.624712593458817 -0.780854772396224 7.065381453135518e-29
  outer loop
    vertex 501.41341782216494 -353.05495210727423 -90.62979048971961
    vertex 531.4134178221649 -377.0560576473639 -87.62979048971961
    vertex 501.41341782216494 -353.05495210727423 -87.62979048971961
  endloop
endfacet
facet normal 1.0 0.0 0.0
  outer loop
    vertex 509.104834973909 -325.3124806691698 -90.62979048971961
    vertex 509.104834973909 -350.5297738823411 -87.62979048971961
    vertex 509.104834973909 -350.5297738823411 -90.62979048971961
  endloop
endfacet
facet normal 1.0 0.0 0.0
  outer loop
    vertex 509.104834973909 -350.5297738823411 -87.62979048971961
    vertex 509.104834973909 -325.3124806691698 -90.62979048971961
    vertex 509.104834973909 -325.3124806691698 -87.62979048971961
  endloop
endfacet
facet normal 0.0 0.0 -1.0
  outer loop
    vertex 501.41341782216494 -319.89106351742527 -90.62979048971961
    vertex 509.104834973909 -325.3124806691698 -90.62979048971961
    vertex 501.41341782216494 -353.05495210727423 -90.62979048971961
  endloop
endfacet
facet normal 0.0 0.0 -1.0
  outer loop
    vertex 509.104834973909 -325.3124806691698 -90.62979048971961
    vertex 501.41341782216494 -319.89106351742527 -90.62979048971961
    vertex 561.4134178221649 -319.89106351742527 -90.62979048971961
  endloop
endfacet
facet normal 0.0 0.0 -1.0
  outer loop
    vertex 509.104834973909 -325.3124806691698 -90.62979048971961
    vertex 561.4134178221649 -319.89106351742527 -90.62979048971961
    vertex 553.7220006704208 -325.3124806691698 -90.62979048971961
  endloop
endfacet
facet normal 0.0 0.0 -1.0
  outer loop
    vertex 553.7220006704208 -325.3124806691698 -90.62979048971961
    vertex 561.4134178221649 -319.89106351742527 -90.62979048971961
    vertex 553.7220006704208 -369.3646404956198 -90.62979048971961
  endloop
endfacet
facet normal 0.0 0.0 -1.0
  outer loop
    vertex 501.41341782216494 -353.05495210727423 -90.62979048971961
    vertex 509.104834973909 -350.5297738823411 -90.62979048971961
    vertex 531.4134178221649 -377.0560576473639 -90.62979048971961
  endloop
endfacet
facet normal 0.0 0.0 -1.0
  outer loop
    vertex 509.104834973909 -350.5297738823411 -90.62979048971961
    vertex 501.41341782216494 -353.05495210727423 -90.62979048971961
    vertex 509.104834973909 -325.3124806691698 -90.62979048971961
  endloop
endfacet
facet normal 0.0 0.0 -1.0
  outer loop
    vertex 531.4134178221649 -377.0560576473639 -90.62979048971961
    vertex 509.104834973909 -350.5297738823411 -90.62979048971961
    vertex 533.9955105091032 -369.3646404956198 -90.62979048971961
  endloop
endfacet
facet normal 0.0 0.0 -1.0
  outer loop
    vertex 531.4134178221649 -377.0560576473639 -90.62979048971961
    vertex 533.9955105091032 -369.3646404956198 -90.62979048971961
    vertex 561.4134178221649 -377.0560576473639 -90.62979048971961
  endloop
endfacet
facet normal 0.0 0.0 -1.0
  outer loop
    vertex 561.4134178221649 -377.0560576473639 -90.62979048971961
    vertex 533.9955105091032 -369.3646404956198 -90.62979048971961
    vertex 553.7220006704208 -369.3646404956198 -90.62979048971961
  endloop
endfacet
facet normal 0.0 0.0 -1.0
  outer loop
    vertex 561.4134178221649 -377.0560576473639 -90.62979048971961
    vertex 553.7220006704208 -369.3646404956198 -90.62979048971961
    vertex 561.4134178221649 -319.89106351742527 -90.62979048971961
  endloop
endfacet
endsolid compact_holder
