solid compact_holder
facet normal 0.8427115963462755 -0.5383652713100096 -5.55083337828259e-06
  outer loop
    vertex 549.7869044586241 -188.41112994543724 -72.34317522862503
    vertex 550.69137171417 -186.9953737966778 -70.34318216203931
    vertex 549.7869180583954 -188.41112927857 -70.34317522867137
  endloop
endfacet
facet normal 0.8427115963462755 -0.5383652713100096 -5.55083337828259e-06
  outer loop
    vertex 550.69137171417 -186.9953737966778 -70.34318216203931
    vertex 549.7869044586241 -188.41112994543724 -72.34317522862503
    vertex 550.6913581143988 -186.99537446354503 -72.34318216199297
  endloop
endfacet
facet normal 0.5696956745846344 -0.8218557284259811 -3.599831092347479e-06
  outer loop
    vertex 549.7869044586241 -188.41112994543724 -72.34317522862503
    vertex 548.3651076482073 -189.3967027956045 -70.34317629202442
    vertex 548.365094048436 -189.39670346247172 -72.34317629197808
  endloop
endfacet
facet normal 0.5696956745846344 -0.8218557284259811 -3.599831092347479e-06
  outer loop
    vertex 548.3651076482073 -189.3967027956045 -70.34317629202442
    vertex 549.7869044586241 -188.41112994543724 -72.34317522862503
    vertex 549.7869180583954 -188.41112927857 -70.34317522867137
  endloop
endfacet
facet normal 0.9817028017707811 -0.1904195603179478 -6.611974472574141e-06
  outer loop
    vertex 550.69137171417 -186.9953737966778 -70.34318216203931
    vertex 551.0485640720627 -185.15380898138747 -72.34317629197808
    vertex 551.048577671834 -185.15380831452023 -70.34317629202442
  endloop
endfacet
facet normal 0.9817028017707811 -0.1904195603179478 -6.611974472574141e-06
  outer loop
    vertex 551.0485640720627 -185.15380898138747 -72.34317629197808
    vertex 550.69137171417 -186.9953737966778 -70.34318216203931
    vertex 550.6913581143988 -186.99537446354503 -72.34318216199297
  endloop
endfacet
facet normal 0.9527054612798227 0.3038952187914594 -6.579617038494586e-06
  outer loop
    vertex 551.0485640720627 -185.15380898138747 -72.34317629197808
    vertex 548.5972317548648 -177.4688876636784 -70.34317629202447
    vertex 551.048577671834 -185.15380831452023 -70.34317629202442
  endloop
endfacet
facet normal 0.9527054612798227 0.3038952187914594 -6.579617038494586e-06
  outer loop
    vertex 548.5972317548648 -177.4688876636784 -70.34317629202447
    vertex 551.0485640720627 -185.15380898138747 -72.34317629197808
    vertex 548.5972181550935 -177.46888833054567 -72.34317629197812
  endloop
endfacet
facet normal 0.9999999999768809 -7.54938956895063e-22 -6.799885609920152e-06
  outer loop
    vertex 548.5972181550935 -177.46888833054567 -72.34317629197812
    vertex 548.5972317548648 -176.75888766367842 -70.34317629202447
    vertex 548.5972317548648 -177.4688876636784 -70.34317629202447
  endloop
endfacet
facet normal 0.9999999999768809 -7.54938956895063e-22 -6.799885609920152e-06
  outer loop
    vertex 548.5972317548648 -176.75888766367842 -70.34317629202447
    vertex 548.5972181550935 -177.46888833054567 -72.34317629197812
    vertex 548.5972181550935 -176.75888833054566 -72.34317629197812
  endloop
endfacet
facet normal 0.23947307936501955 0.9709030045558745 -1.9521212459983852e-06
  outer loop
    vertex 543.7260472076044 -187.90691267422505 -70.34313465510068
    vertex 544.7398597854093 -188.1569734146101 -72.34314125130689
    vertex 543.7260336078332 -187.9069133410923 -72.34313465505434
  endloop
endfacet
facet normal 0.23947307936501955 0.9709030045558745 -1.9521212459983852e-06
  outer loop
    vertex 544.7398597854093 -188.1569734146101 -72.34314125130689
    vertex 543.7260472076044 -187.90691267422505 -70.34313465510068
    vertex 544.7398733851804 -188.15697274774283 -70.34314125135323
  endloop
endfacet
facet normal 0.48260142058027067 0.8758400931911794 -3.573668984543297e-06
  outer loop
    vertex 542.811486628759 -187.40297566790483 -70.34312893070846
    vertex 543.7260336078332 -187.9069133410923 -72.34313465505434
    vertex 542.8114730289877 -187.4029763347721 -72.34312893066212
  endloop
endfacet
facet normal 0.48260142058027067 0.8758400931911794 -3.573668984543297e-06
  outer loop
    vertex 543.7260336078332 -187.9069133410923 -72.34313465505434
    vertex 542.811486628759 -187.40297566790483 -70.34312893070846
    vertex 543.7260472076044 -187.90691267422505 -70.34313465510068
  endloop
endfacet
facet normal 0.6928412725195862 0.7210901268696734 -4.951677087559172e-06
  outer loop
    vertex 542.0585174407098 -186.67950420296765 -70.3431244682844
    vertex 542.8114730289877 -187.4029763347721 -72.34312893066212
    vertex 542.0585038409386 -186.67950486983486 -72.34312446823806
  endloop
endfacet
facet normal 0.6928412725195862 0.7210901268696734 -4.951677087559172e-06
  outer loop
    vertex 542.8114730289877 -187.4029763347721 -72.34312893066212
    vertex 542.0585174407098 -186.67950420296765 -70.3431244682844
    vertex 542.811486628759 -187.40297566790483 -70.34312893070846
  endloop
endfacet
facet normal -0.9494928563692087 -0.3137886480750915 6.561070494493014e-06
  outer loop
    vertex 537.2633359669115 -177.4688883305457 -72.34298237997076
    vertex 540.8795444427667 -188.41112927857 -70.34316026943044
    vertex 537.2633495666828 -177.46888766367846 -70.3429823800171
  endloop
endfacet
facet normal -0.9494928563692087 -0.3137886480750915 6.561070494493014e-06
  outer loop
    vertex 540.8795444427667 -188.41112927857 -70.34316026943044
    vertex 537.2633359669115 -177.4688883305457 -72.34298237997076
    vertex 540.8795308429956 -188.41112994543724 -72.3431602693841
  endloop
endfacet
facet normal 0.0 -0.9999999999999445 3.334336160297949e-07
  outer loop
    vertex 548.365094048436 -189.39670346247172 -72.34317629197808
    vertex 542.2432569655053 -189.3967027956045 -70.34317629202442
    vertex 542.2432433657341 -189.39670346247172 -72.34317629197808
  endloop
endfacet
facet normal 0.0 -0.9999999999999445 3.334336160297949e-07
  outer loop
    vertex 542.2432569655053 -189.3967027956045 -70.34317629202442
    vertex 548.365094048436 -189.39670346247172 -72.34317629197808
    vertex 548.3651076482073 -189.3967027956045 -70.34317629202442
  endloop
endfacet
facet normal 3.332974165280744e-06 0.9999999999078559 -1.3159779448049477e-05
  outer loop
    vertex 547.100676778167 -169.06892289383 -70.34317629202447
    vertex 539.2039582321735 -169.06892289383 -72.34317629197808
    vertex 539.2039582321735 -169.0688702547122 -70.34317629339579
  endloop
endfacet
facet normal 3.332974165280744e-06 0.9999999999078559 -1.3159779448049477e-05
  outer loop
    vertex 539.2039582321735 -169.06892289383 -72.34317629197808
    vertex 547.100676778167 -169.06892289383 -70.34317629202447
    vertex 547.100676778167 -169.06892289383 -72.34317629197808
  endloop
endfacet
facet normal -0.5857522308293829 -0.8104901751781518 4.253292835353721e-06
  outer loop
    vertex 542.2432433657341 -189.39670346247172 -72.34317629197808
    vertex 540.8795444427667 -188.41112927857 -70.34316026943044
    vertex 540.8795308429956 -188.41112994543724 -72.3431602693841
  endloop
endfacet
facet normal -0.5857522308293829 -0.8104901751781518 4.253292835353721e-06
  outer loop
    vertex 540.8795444427667 -188.41112927857 -70.34316026943044
    vertex 542.2432433657341 -189.39670346247172 -72.34317629197808
    vertex 542.2432569655053 -189.3967027956045 -70.34317629202442
  endloop
endfacet
facet normal 0.7210901268545425 -0.692841272537274 -4.67231380633026e-06
  outer loop
    vertex 541.9612239766061 -181.8103851152279 -72.34312776920149
    vertex 542.6847090412944 -181.05741526029865 -70.34313323260771
    vertex 541.9612375763772 -181.81038444836062 -70.34312776924783
  endloop
endfacet
facet normal 0.7210901268545425 -0.692841272537274 -4.67231380633026e-06
  outer loop
    vertex 542.6847090412944 -181.05741526029865 -70.34313323260771
    vertex 541.9612239766061 -181.8103851152279 -72.34312776920149
    vertex 542.6846954415231 -181.0574159271659 -72.34313323256137
  endloop
endfacet
facet normal 0.8758400931720179 -0.48260142059348765 -5.794696909519606e-06
  outer loop
    vertex 541.457286970302 -182.72494569409082 -72.3431236469614
    vertex 541.9612375763772 -181.81038444836062 -70.34312776924783
    vertex 541.4573005700732 -182.72494502722358 -70.34312364700774
  endloop
endfacet
facet normal 0.8758400931720179 -0.48260142059348765 -5.794696909519606e-06
  outer loop
    vertex 541.9612375763772 -181.81038444836062 -70.34312776924783
    vertex 541.457286970302 -182.72494569409082 -72.3431236469614
    vertex 541.9612239766061 -181.8103851152279 -72.34312776920149
  endloop
endfacet
facet normal -0.27806173201439005 0.9605632062424061 1.570503906955241e-06
  outer loop
    vertex 545.7838745829125 -188.13611470769175 -70.34314826994236
    vertex 546.7868902446971 -187.845760661899 -72.34315523251648
    vertex 545.7838609831413 -188.136115374559 -72.34314826989602
  endloop
endfacet
facet normal -0.27806173201439005 0.9605632062424061 1.570503906955241e-06
  outer loop
    vertex 546.7868902446971 -187.845760661899 -72.34315523251648
    vertex 545.7838745829125 -188.13611470769175 -70.34314826994236
    vertex 546.7869038444684 -187.84575999503176 -70.34315523256282
  endloop
endfacet
facet normal -0.48260142058027067 -0.8758400931911794 3.573668984543297e-06
  outer loop
    vertex 547.5538151960217 -180.96013606285777 -72.3431659665765
    vertex 546.6392682169475 -180.45619838967033 -70.34316024223062
    vertex 546.6392546171763 -180.45619905653757 -72.34316024218428
  endloop
endfacet
facet normal -0.48260142058027067 -0.8758400931911794 3.573668984543297e-06
  outer loop
    vertex 546.6392682169475 -180.45619838967033 -70.34316024223062
    vertex 547.5538151960217 -180.96013606285777 -72.3431659665765
    vertex 547.5538287957929 -180.96013539599056 -70.34316596662285
  endloop
endfacet
facet normal -0.01997495646102205 0.9998004806531859 -1.9753967057131165e-07
  outer loop
    vertex 544.7398733851804 -188.15697274774283 -70.34314125135323
    vertex 545.7838609831413 -188.136115374559 -72.34314826989602
    vertex 544.7398597854093 -188.1569734146101 -72.34314125130689
  endloop
endfacet
facet normal -0.01997495646102205 0.9998004806531859 -1.9753967057131165e-07
  outer loop
    vertex 545.7838609831413 -188.136115374559 -72.34314826989602
    vertex 544.7398733851804 -188.15697274774283 -70.34314125135323
    vertex 545.7838745829125 -188.13611470769175 -70.34314826994236
  endloop
endfacet
facet normal -0.9605632062196084 -0.2780617320186705 6.624435052328984e-06
  outer loop
    vertex 548.8468485754988 -182.57731006660688 -72.34317332534957
    vertex 549.1372168879291 -183.5803386613194 -70.34317445828856
    vertex 548.8468621752701 -182.57730939973962 -70.34317332539591
  endloop
endfacet
facet normal -0.9605632062196084 -0.2780617320186705 6.624435052328984e-06
  outer loop
    vertex 549.1372168879291 -183.5803386613194 -70.34317445828856
    vertex 548.8468485754988 -182.57731006660688 -72.34317332534957
    vertex 549.1372032881579 -183.58033932818662 -72.34317445824222
  endloop
endfacet
facet normal 0.9998004806300829 0.019974956459144075 -6.805189223147137e-06
  outer loop
    vertex 541.2280849368516 -184.78277306944324 -72.34312043899641
    vertex 541.2072404965666 -183.73877120482078 -70.34312114681128
    vertex 541.2280985366228 -184.782772402576 -70.34312043904275
  endloop
endfacet
facet normal 0.9998004806300829 0.019974956459144075 -6.805189223147137e-06
  outer loop
    vertex 541.2072404965666 -183.73877120482078 -70.34312114681128
    vertex 541.2280849368516 -184.78277306944324 -72.34312043899641
    vertex 541.2072268967953 -183.73877187168804 -72.34312114676494
  endloop
endfacet
facet normal 0.9709030045340128 -0.23947307937279302 -6.522180994514642e-06
  outer loop
    vertex 541.2072268967953 -183.73877187168804 -72.34312114676494
    vertex 541.4573005700732 -182.72494502722358 -70.34312364700774
    vertex 541.2072404965666 -183.73877120482078 -70.34312114681128
  endloop
endfacet
facet normal 0.9709030045340128 -0.23947307937279302 -6.522180994514642e-06
  outer loop
    vertex 541.4573005700732 -182.72494502722358 -70.34312364700774
    vertex 541.2072268967953 -183.73877187168804 -72.34312114676494
    vertex 541.457286970302 -182.72494569409082 -72.3431236469614
  endloop
endfacet
facet normal -0.9998004806300829 -0.019974956459144075 6.805189223147137e-06
  outer loop
    vertex 549.1372168879291 -183.5803386613194 -70.34317445828856
    vertex 549.1580613282142 -184.62434052594182 -72.34317375047368
    vertex 549.1580749279854 -184.6243398590746 -70.34317375052002
  endloop
endfacet
facet normal -0.9998004806300829 -0.019974956459144075 6.805189223147137e-06
  outer loop
    vertex 549.1580613282142 -184.62434052594182 -72.34317375047368
    vertex 549.1372168879291 -183.5803386613194 -70.34317445828856
    vertex 549.1372032881579 -183.58033932818662 -72.34317445824222
  endloop
endfacet
facet normal -0.7210901268545425 0.692841272537274 4.67231380633026e-06
  outer loop
    vertex 548.4040778481747 -186.5527266155348 -70.34316712808348
    vertex 547.6805927834863 -187.305696470464 -72.34316166467725
    vertex 547.6806063832576 -187.30569580359676 -70.3431616647236
  endloop
endfacet
facet normal -0.7210901268545425 0.692841272537274 4.67231380633026e-06
  outer loop
    vertex 547.6805927834863 -187.305696470464 -72.34316166467725
    vertex 548.4040778481747 -186.5527266155348 -70.34316712808348
    vertex 548.4040642484034 -186.55272728240203 -72.34316712803714
  endloop
endfacet
facet normal -0.23947307936501955 -0.9709030045558745 1.9521212459983852e-06
  outer loop
    vertex 546.6392546171763 -180.45619905653757 -72.34316024218428
    vertex 545.6254420393715 -180.20613831615256 -70.34315364597808
    vertex 545.6254284396002 -180.20613898301977 -72.34315364593174
  endloop
endfacet
facet normal -0.23947307936501955 -0.9709030045558745 1.9521212459983852e-06
  outer loop
    vertex 545.6254420393715 -180.20613831615256 -70.34315364597808
    vertex 546.6392546171763 -180.45619905653757 -72.34316024218428
    vertex 546.6392682169475 -180.45619838967033 -70.34316024223062
  endloop
endfacet
facet normal -0.8758400931720179 0.48260142059348765 5.794696909519606e-06
  outer loop
    vertex 548.9080148544787 -185.63816603667183 -70.34317125032356
    vertex 548.4040642484034 -186.55272728240203 -72.34316712803714
    vertex 548.4040778481747 -186.5527266155348 -70.34316712808348
  endloop
endfacet
facet normal -0.8758400931720179 0.48260142059348765 5.794696909519606e-06
  outer loop
    vertex 548.4040642484034 -186.55272728240203 -72.34316712803714
    vertex 548.9080148544787 -185.63816603667183 -70.34317125032356
    vertex 548.9080012547074 -185.63816670353907 -72.34317125027722
  endloop
endfacet
facet normal -0.5171990600496925 0.8558651367319923 3.2315202386030415e-06
  outer loop
    vertex 546.7869038444684 -187.84575999503176 -70.34315523256282
    vertex 547.6805927834863 -187.305696470464 -72.34316166467725
    vertex 546.7868902446971 -187.845760661899 -72.34315523251648
  endloop
endfacet
facet normal -0.5171990600496925 0.8558651367319923 3.2315202386030415e-06
  outer loop
    vertex 547.6805927834863 -187.305696470464 -72.34316166467725
    vertex 546.7869038444684 -187.84575999503176 -70.34315523256282
    vertex 547.6806063832576 -187.30569580359676 -70.3431616647236
  endloop
endfacet
facet normal 0.5171990600496925 -0.8558651367319923 -3.2315202386030415e-06
  outer loop
    vertex 543.5783979803123 -180.5173517357309 -72.34313966472214
    vertex 542.6847090412944 -181.05741526029865 -70.34313323260771
    vertex 542.6846954415231 -181.0574159271659 -72.34313323256137
  endloop
endfacet
facet normal 0.5171990600496925 -0.8558651367319923 -3.2315202386030415e-06
  outer loop
    vertex 542.6847090412944 -181.05741526029865 -70.34313323260771
    vertex 543.5783979803123 -180.5173517357309 -72.34313966472214
    vertex 543.5784115800835 -180.51735106886366 -70.34313966476849
  endloop
endfacet
facet normal 0.8558651367110426 0.5171990600597429 -5.992236580091251e-06
  outer loop
    vertex 542.0585174407098 -186.67950420296765 -70.3431244682844
    vertex 541.5184396495107 -185.78580233102298 -72.34312157188906
    vertex 541.518453249282 -185.78580166415577 -70.3431215719354
  endloop
endfacet
facet normal 0.8558651367110426 0.5171990600597429 -5.992236580091251e-06
  outer loop
    vertex 541.5184396495107 -185.78580233102298 -72.34312157188906
    vertex 542.0585174407098 -186.67950420296765 -70.3431244682844
    vertex 542.0585038409386 -186.67950486983486 -72.34312446823806
  endloop
endfacet
facet normal 0.01997495646102205 -0.9998004806531859 1.9753967057131165e-07
  outer loop
    vertex 545.6254284396002 -180.20613898301977 -72.34315364593174
    vertex 544.5814408416395 -180.22699635620367 -70.34314662738895
    vertex 544.5814272418683 -180.22699702307088 -72.3431466273426
  endloop
endfacet
facet normal 0.01997495646102205 -0.9998004806531859 1.9753967057131165e-07
  outer loop
    vertex 544.5814408416395 -180.22699635620367 -70.34314662738895
    vertex 545.6254284396002 -180.20613898301977 -72.34315364593174
    vertex 545.6254420393715 -180.20613831615256 -70.34315364597808
  endloop
endfacet
facet normal 0.9605632062196084 0.2780617320186705 -6.624435052328984e-06
  outer loop
    vertex 541.518453249282 -185.78580166415577 -70.3431215719354
    vertex 541.2280849368516 -184.78277306944324 -72.34312043899641
    vertex 541.2280985366228 -184.782772402576 -70.34312043904275
  endloop
endfacet
facet normal 0.9605632062196084 0.2780617320186705 -6.624435052328984e-06
  outer loop
    vertex 541.2280849368516 -184.78277306944324 -72.34312043899641
    vertex 541.518453249282 -185.78580166415577 -70.3431215719354
    vertex 541.5184396495107 -185.78580233102298 -72.34312157188906
  endloop
endfacet
facet normal -0.6928412725195917 -0.7210901268696679 4.951677087559208e-06
  outer loop
    vertex 548.306784384071 -181.68360752779503 -72.34317042900057
    vertex 547.5538287957929 -180.96013539599056 -70.34316596662285
    vertex 547.5538151960217 -180.96013606285777 -72.3431659665765
  endloop
endfacet
facet normal -0.6928412725195917 -0.7210901268696679 4.951677087559208e-06
  outer loop
    vertex 547.5538287957929 -180.96013539599056 -70.34316596662285
    vertex 548.306784384071 -181.68360752779503 -72.34317042900057
    vertex 548.3067979838422 -181.68360686092777 -70.3431704290469
  endloop
endfacet
facet normal -0.8558651367110398 -0.5171990600597477 5.992236580091233e-06
  outer loop
    vertex 548.306784384071 -181.68360752779503 -72.34317042900057
    vertex 548.8468621752701 -182.57730939973962 -70.34317332539591
    vertex 548.3067979838422 -181.68360686092777 -70.3431704290469
  endloop
endfacet
facet normal -0.8558651367110398 -0.5171990600597477 5.992236580091233e-06
  outer loop
    vertex 548.8468621752701 -182.57730939973962 -70.34317332539591
    vertex 548.306784384071 -181.68360752779503 -72.34317042900057
    vertex 548.8468485754988 -182.57731006660688 -72.34317332534957
  endloop
endfacet
facet normal -0.9709030045340128 0.23947307937279302 6.522180994514642e-06
  outer loop
    vertex 549.1580749279854 -184.6243398590746 -70.34317375052002
    vertex 548.9080012547074 -185.63816670353907 -72.34317125027722
    vertex 548.9080148544787 -185.63816603667183 -70.34317125032356
  endloop
endfacet
facet normal -0.9709030045340128 0.23947307937279302 6.522180994514642e-06
  outer loop
    vertex 548.9080012547074 -185.63816670353907 -72.34317125027722
    vertex 549.1580749279854 -184.6243398590746 -70.34317375052002
    vertex 549.1580613282142 -184.62434052594182 -72.34317375047368
  endloop
endfacet
facet normal 0.27806173201439005 -0.9605632062424061 -1.570503906955241e-06
  outer loop
    vertex 544.5814272418683 -180.22699702307088 -72.3431466273426
    vertex 543.5784115800835 -180.51735106886366 -70.34313966476849
    vertex 543.5783979803123 -180.5173517357309 -72.34313966472214
  endloop
endfacet
facet normal 0.27806173201439005 -0.9605632062424061 -1.570503906955241e-06
  outer loop
    vertex 543.5784115800835 -180.51735106886366 -70.34313966476849
    vertex 544.5814272418683 -180.22699702307088 -72.3431466273426
    vertex 544.5814408416395 -180.22699635620367 -70.34314662738895
  endloop
endfacet
facet normal 0.7071067811865461 0.7071067811865489 -7.850462293418892e-17
  outer loop
    vertex 548.5972181550935 -170.56546427075656 -70.34317629202447
    vertex 547.100676778167 -169.06892289383 -72.34317629197808
    vertex 547.100676778167 -169.06892289383 -70.34317629202447
  endloop
endfacet
facet normal 0.7071067811865461 0.7071067811865489 -7.850462293418892e-17
  outer loop
    vertex 547.100676778167 -169.06892289383 -72.34317629197808
    vertex 548.5972181550935 -170.56546427075656 -70.34317629202447
    vertex 548.5972181550935 -170.56546427075656 -72.34317629197808
  endloop
endfacet
facet normal -0.6206862717365192 0.7840590230664858 -2.0636087649393223e-05
  outer loop
    vertex 539.2039582321735 -169.0688702547122 -70.34317629339579
    vertex 537.2633359616598 -170.60518172851405 -72.34313585832317
    vertex 537.2633359616598 -170.60512908939629 -70.34313585974087
  endloop
endfacet
facet normal -0.6206862717365192 0.7840590230664858 -2.0636087649393223e-05
  outer loop
    vertex 537.2633359616598 -170.60518172851405 -72.34313585832317
    vertex 539.2039582321735 -169.0688702547122 -70.34317629339579
    vertex 539.2039582321735 -169.06892289383 -72.34317629197808
  endloop
endfacet
facet normal 0.9999999999936175 1.0979202375950632e-06 -3.3999429907459067e-06
  outer loop
    vertex 548.5972181550935 -176.75888833054566 -72.34317629197812
    vertex 548.5972181550935 -170.56546427075656 -70.34317629202447
    vertex 548.5972317548648 -176.75888766367842 -70.34317629202447
  endloop
endfacet
facet normal 0.9999999999936175 1.0979202375950632e-06 -3.3999429907459067e-06
  outer loop
    vertex 548.5972181550935 -170.56546427075656 -70.34317629202447
    vertex 548.5972181550935 -176.75888833054566 -72.34317629197812
    vertex 548.5972181550935 -170.56546427075656 -72.34317629197808
  endloop
endfacet
facet normal -0.9999999999937288 -9.913908016541575e-07 3.3999560208137265e-06
  outer loop
    vertex 537.2633359616598 -170.60512908939629 -70.34313585974087
    vertex 537.2633359669115 -177.4688883305457 -72.34298237997076
    vertex 537.2633495666828 -177.46888766367846 -70.3429823800171
  endloop
endfacet
facet normal -0.9999999999937288 -9.913908016541575e-07 3.3999560208137265e-06
  outer loop
    vertex 537.2633359669115 -177.4688883305457 -72.34298237997076
    vertex 537.2633359616598 -170.60512908939629 -70.34313585974087
    vertex 537.2633359616598 -170.60518172851405 -72.34313585832317
  endloop
endfacet
facet normal 8.081633492992331e-06 4.0068621162786544e-07 0.9999999999672633
  outer loop
    vertex 549.7869180583954 -188.41112927857 -70.34317522867137
    vertex 542.2432569655053 -189.3967027956045 -70.34317629202442
    vertex 548.3651076482073 -189.3967027956045 -70.34317629202442
  endloop
endfacet
facet normal 8.081633492992331e-06 4.0068621162786544e-07 0.9999999999672633
  outer loop
    vertex 542.2432569655053 -189.3967027956045 -70.34317629202442
    vertex 549.7869180583954 -188.41112927857 -70.34317522867137
    vertex 540.8795444427667 -188.41112927857 -70.34316026943044
  endloop
endfacet
facet normal 8.081633492992331e-06 4.0068621162786544e-07 0.9999999999672633
  outer loop
    vertex 540.8795444427667 -188.41112927857 -70.34316026943044
    vertex 549.7869180583954 -188.41112927857 -70.34317522867137
    vertex 545.7838745829125 -188.13611470769175 -70.34314826994236
  endloop
endfacet
facet normal 8.081633492992331e-06 4.0068621162786544e-07 0.9999999999672633
  outer loop
    vertex 545.7838745829125 -188.13611470769175 -70.34314826994236
    vertex 549.7869180583954 -188.41112927857 -70.34317522867137
    vertex 550.69137171417 -186.9953737966778 -70.34318216203931
  endloop
endfacet
facet normal 8.081633492992331e-06 4.0068621162786544e-07 0.9999999999672633
  outer loop
    vertex 540.8795444427667 -188.41112927857 -70.34316026943044
    vertex 545.7838745829125 -188.13611470769175 -70.34314826994236
    vertex 544.7398733851804 -188.15697274774283 -70.34314125135323
  endloop
endfacet
facet normal 8.081633492992331e-06 4.0068621162786544e-07 0.9999999999672633
  outer loop
    vertex 545.7838745829125 -188.13611470769175 -70.34314826994236
    vertex 550.69137171417 -186.9953737966778 -70.34318216203931
    vertex 546.7869038444684 -187.84575999503176 -70.34315523256282
  endloop
endfacet
facet normal 8.081633492992331e-06 4.0068621162786544e-07 0.9999999999672633
  outer loop
    vertex 546.7869038444684 -187.84575999503176 -70.34315523256282
    vertex 550.69137171417 -186.9953737966778 -70.34318216203931
    vertex 547.6806063832576 -187.30569580359676 -70.3431616647236
  endloop
endfacet
facet normal 8.081633492992331e-06 4.0068621162786544e-07 0.9999999999672633
  outer loop
    vertex 547.6806063832576 -187.30569580359676 -70.3431616647236
    vertex 550.69137171417 -186.9953737966778 -70.34318216203931
    vertex 548.4040778481747 -186.5527266155348 -70.34316712808348
  endloop
endfacet
facet normal 8.081633492992331e-06 4.0068621162786544e-07 0.9999999999672633
  outer loop
    vertex 548.4040778481747 -186.5527266155348 -70.34316712808348
    vertex 550.69137171417 -186.9953737966778 -70.34318216203931
    vertex 551.048577671834 -185.15380831452023 -70.34317629202442
  endloop
endfacet
facet normal 8.081633492992331e-06 4.0068621162786544e-07 0.9999999999672633
  outer loop
    vertex 548.4040778481747 -186.5527266155348 -70.34316712808348
    vertex 551.048577671834 -185.15380831452023 -70.34317629202442
    vertex 548.9080148544787 -185.63816603667183 -70.34317125032356
  endloop
endfacet
facet normal 8.081633492992331e-06 4.0068621162786544e-07 0.9999999999672633
  outer loop
    vertex 548.9080148544787 -185.63816603667183 -70.34317125032356
    vertex 551.048577671834 -185.15380831452023 -70.34317629202442
    vertex 549.1580749279854 -184.6243398590746 -70.34317375052002
  endloop
endfacet
facet normal 8.081633492992331e-06 4.0068621162786544e-07 0.9999999999672633
  outer loop
    vertex 549.1580749279854 -184.6243398590746 -70.34317375052002
    vertex 551.048577671834 -185.15380831452023 -70.34317629202442
    vertex 549.1372168879291 -183.5803386613194 -70.34317445828856
  endloop
endfacet
facet normal 8.081633492992331e-06 4.0068621162786544e-07 0.9999999999672633
  outer loop
    vertex 549.1372168879291 -183.5803386613194 -70.34317445828856
    vertex 551.048577671834 -185.15380831452023 -70.34317629202442
    vertex 548.5972317548648 -177.4688876636784 -70.34317629202447
  endloop
endfacet
facet normal 8.081633492992331e-06 4.0068621162786544e-07 0.9999999999672633
  outer loop
    vertex 549.1372168879291 -183.5803386613194 -70.34317445828856
    vertex 548.5972317548648 -177.4688876636784 -70.34317629202447
    vertex 548.8468621752701 -182.57730939973962 -70.34317332539591
  endloop
endfacet
facet normal 8.081633492992331e-06 4.0068621162786544e-07 0.9999999999672633
  outer loop
    vertex 548.8468621752701 -182.57730939973962 -70.34317332539591
    vertex 548.5972317548648 -177.4688876636784 -70.34317629202447
    vertex 548.3067979838422 -181.68360686092777 -70.3431704290469
  endloop
endfacet
facet normal 8.081633492992331e-06 4.0068621162786544e-07 0.9999999999672633
  outer loop
    vertex 548.3067979838422 -181.68360686092777 -70.3431704290469
    vertex 548.5972317548648 -177.4688876636784 -70.34317629202447
    vertex 547.5538287957929 -180.96013539599056 -70.34316596662285
  endloop
endfacet
facet normal 8.081633492992331e-06 4.0068621162786544e-07 0.9999999999672633
  outer loop
    vertex 547.5538287957929 -180.96013539599056 -70.34316596662285
    vertex 548.5972317548648 -177.4688876636784 -70.34317629202447
    vertex 546.6392682169475 -180.45619838967033 -70.34316024223062
  endloop
endfacet
facet normal 8.081633492992331e-06 4.0068621162786544e-07 0.9999999999672633
  outer loop
    vertex 546.6392682169475 -180.45619838967033 -70.34316024223062
    vertex 548.5972317548648 -177.4688876636784 -70.34317629202447
    vertex 545.6254420393715 -180.20613831615256 -70.34315364597808
  endloop
endfacet
facet normal 8.081633492992331e-06 4.0068621162786544e-07 0.9999999999672633
  outer loop
    vertex 545.6254420393715 -180.20613831615256 -70.34315364597808
    vertex 548.5972317548648 -177.4688876636784 -70.34317629202447
    vertex 537.2633495666828 -177.46888766367846 -70.3429823800171
  endloop
endfacet
facet normal 8.081633492992331e-06 4.0068621162786544e-07 0.9999999999672633
  outer loop
    vertex 537.2633495666828 -177.46888766367846 -70.3429823800171
    vertex 548.5972317548648 -177.4688876636784 -70.34317629202447
    vertex 537.2633359616598 -170.60512908939629 -70.34313585974087
  endloop
endfacet
facet normal 8.081633492992331e-06 4.0068621162786544e-07 0.9999999999672633
  outer loop
    vertex 537.2633359616598 -170.60512908939629 -70.34313585974087
    vertex 548.5972317548648 -177.4688876636784 -70.34317629202447
    vertex 548.5972317548648 -176.75888766367842 -70.34317629202447
  endloop
endfacet
facet normal 8.081633492992331e-06 4.0068621162786544e-07 0.9999999999672633
  outer loop
    vertex 537.2633359616598 -170.60512908939629 -70.34313585974087
    vertex 548.5972317548648 -176.75888766367842 -70.34317629202447
    vertex 548.5972181550935 -170.56546427075656 -70.34317629202447
  endloop
endfacet
facet normal 8.081633492992331e-06 4.0068621162786544e-07 0.9999999999672633
  outer loop
    vertex 537.2633359616598 -170.60512908939629 -70.34313585974087
    vertex 548.5972181550935 -170.56546427075656 -70.34317629202447
    vertex 539.2039582321735 -169.0688702547122 -70.34317629339579
  endloop
endfacet
facet normal 8.081633492992331e-06 4.0068621162786544e-07 0.9999999999672633
  outer loop
    vertex 539.2039582321735 -169.0688702547122 -70.34317629339579
    vertex 548.5972181550935 -170.56546427075656 -70.34317629202447
    vertex 547.100676778167 -169.06892289383 -70.34317629202447
  endloop
endfacet
facet normal 8.081633492992331e-06 4.0068621162786544e-07 0.9999999999672633
  outer loop
    vertex 540.8795444427667 -188.41112927857 -70.34316026943044
    vertex 541.518453249282 -185.78580166415577 -70.3431215719354
    vertex 537.2633495666828 -177.46888766367846 -70.3429823800171
  endloop
endfacet
facet normal 8.081633492992331e-06 4.0068621162786544e-07 0.9999999999672633
  outer loop
    vertex 541.518453249282 -185.78580166415577 -70.3431215719354
    vertex 540.8795444427667 -188.41112927857 -70.34316026943044
    vertex 542.0585174407098 -186.67950420296765 -70.3431244682844
  endloop
endfacet
facet normal 8.081633492992331e-06 4.0068621162786544e-07 0.9999999999672633
  outer loop
    vertex 542.0585174407098 -186.67950420296765 -70.3431244682844
    vertex 540.8795444427667 -188.41112927857 -70.34316026943044
    vertex 542.811486628759 -187.40297566790483 -70.34312893070846
  endloop
endfacet
facet normal 8.081633492992331e-06 4.0068621162786544e-07 0.9999999999672633
  outer loop
    vertex 542.811486628759 -187.40297566790483 -70.34312893070846
    vertex 540.8795444427667 -188.41112927857 -70.34316026943044
    vertex 543.7260472076044 -187.90691267422505 -70.34313465510068
  endloop
endfacet
facet normal 8.081633492992331e-06 4.0068621162786544e-07 0.9999999999672633
  outer loop
    vertex 543.7260472076044 -187.90691267422505 -70.34313465510068
    vertex 540.8795444427667 -188.41112927857 -70.34316026943044
    vertex 544.7398733851804 -188.15697274774283 -70.34314125135323
  endloop
endfacet
facet normal 8.081633492992331e-06 4.0068621162786544e-07 0.9999999999672633
  outer loop
    vertex 537.2633495666828 -177.46888766367846 -70.3429823800171
    vertex 541.518453249282 -185.78580166415577 -70.3431215719354
    vertex 541.2280985366228 -184.782772402576 -70.34312043904275
  endloop
endfacet
facet normal 8.081633492992331e-06 4.0068621162786544e-07 0.9999999999672633
  outer loop
    vertex 537.2633495666828 -177.46888766367846 -70.3429823800171
    vertex 541.2280985366228 -184.782772402576 -70.34312043904275
    vertex 541.2072404965666 -183.73877120482078 -70.34312114681128
  endloop
endfacet
facet normal 8.081633492992331e-06 4.0068621162786544e-07 0.9999999999672633
  outer loop
    vertex 537.2633495666828 -177.46888766367846 -70.3429823800171
    vertex 541.2072404965666 -183.73877120482078 -70.34312114681128
    vertex 541.4573005700732 -182.72494502722358 -70.34312364700774
  endloop
endfacet
facet normal 8.081633492992331e-06 4.0068621162786544e-07 0.9999999999672633
  outer loop
    vertex 537.2633495666828 -177.46888766367846 -70.3429823800171
    vertex 541.4573005700732 -182.72494502722358 -70.34312364700774
    vertex 541.9612375763772 -181.81038444836062 -70.34312776924783
  endloop
endfacet
facet normal 8.081633492992331e-06 4.0068621162786544e-07 0.9999999999672633
  outer loop
    vertex 537.2633495666828 -177.46888766367846 -70.3429823800171
    vertex 541.9612375763772 -181.81038444836062 -70.34312776924783
    vertex 542.6847090412944 -181.05741526029865 -70.34313323260771
  endloop
endfacet
facet normal 8.081633492992331e-06 4.0068621162786544e-07 0.9999999999672633
  outer loop
    vertex 537.2633495666828 -177.46888766367846 -70.3429823800171
    vertex 542.6847090412944 -181.05741526029865 -70.34313323260771
    vertex 543.5784115800835 -180.51735106886366 -70.34313966476849
  endloop
endfacet
facet normal 8.081633492992331e-06 4.0068621162786544e-07 0.9999999999672633
  outer loop
    vertex 537.2633495666828 -177.46888766367846 -70.3429823800171
    vertex 543.5784115800835 -180.51735106886366 -70.34313966476849
    vertex 544.5814408416395 -180.22699635620367 -70.34314662738895
  endloop
endfacet
facet normal 8.081633492992331e-06 4.0068621162786544e-07 0.9999999999672633
  outer loop
    vertex 537.2633495666828 -177.46888766367846 -70.3429823800171
    vertex 544.5814408416395 -180.22699635620367 -70.34314662738895
    vertex 545.6254420393715 -180.20613831615256 -70.34315364597808
  endloop
endfacet
facet normal -6.34718195436091e-06 -3.3039806702894393e-07 -0.9999999999798022
  outer loop
    vertex 540.8795308429956 -188.41112994543724 -72.3431602693841
    vertex 548.365094048436 -189.39670346247172 -72.34317629197808
    vertex 542.2432433657341 -189.39670346247172 -72.34317629197808
  endloop
endfacet
facet normal -6.34718195436091e-06 -3.3039806702894393e-07 -0.9999999999798022
  outer loop
    vertex 548.365094048436 -189.39670346247172 -72.34317629197808
    vertex 540.8795308429956 -188.41112994543724 -72.3431602693841
    vertex 549.7869044586241 -188.41112994543724 -72.34317522862503
  endloop
endfacet
facet normal -6.34718195436091e-06 -3.3039806702894393e-07 -0.9999999999798022
  outer loop
    vertex 549.7869044586241 -188.41112994543724 -72.34317522862503
    vertex 540.8795308429956 -188.41112994543724 -72.3431602693841
    vertex 544.7398597854093 -188.1569734146101 -72.34314125130689
  endloop
endfacet
facet normal -6.34718195436091e-06 -3.3039806702894393e-07 -0.9999999999798022
  outer loop
    vertex 544.7398597854093 -188.1569734146101 -72.34314125130689
    vertex 540.8795308429956 -188.41112994543724 -72.3431602693841
    vertex 543.7260336078332 -187.9069133410923 -72.34313465505434
  endloop
endfacet
facet normal -6.34718195436091e-06 -3.3039806702894393e-07 -0.9999999999798022
  outer loop
    vertex 543.7260336078332 -187.9069133410923 -72.34313465505434
    vertex 540.8795308429956 -188.41112994543724 -72.3431602693841
    vertex 542.8114730289877 -187.4029763347721 -72.34312893066212
  endloop
endfacet
facet normal -6.34718195436091e-06 -3.3039806702894393e-07 -0.9999999999798022
  outer loop
    vertex 542.8114730289877 -187.4029763347721 -72.34312893066212
    vertex 540.8795308429956 -188.41112994543724 -72.3431602693841
    vertex 542.0585038409386 -186.67950486983486 -72.34312446823806
  endloop
endfacet
facet normal -6.34718195436091e-06 -3.3039806702894393e-07 -0.9999999999798022
  outer loop
    vertex 542.0585038409386 -186.67950486983486 -72.34312446823806
    vertex 540.8795308429956 -188.41112994543724 -72.3431602693841
    vertex 541.5184396495107 -185.78580233102298 -72.34312157188906
  endloop
endfacet
facet normal -6.34718195436091e-06 -3.3039806702894393e-07 -0.9999999999798022
  outer loop
    vertex 541.5184396495107 -185.78580233102298 -72.34312157188906
    vertex 540.8795308429956 -188.41112994543724 -72.3431602693841
    vertex 537.2633359669115 -177.4688883305457 -72.34298237997076
  endloop
endfacet
facet normal -6.34718195436091e-06 -3.3039806702894393e-07 -0.9999999999798022
  outer loop
    vertex 541.5184396495107 -185.78580233102298 -72.34312157188906
    vertex 537.2633359669115 -177.4688883305457 -72.34298237997076
    vertex 541.2280849368516 -184.78277306944324 -72.34312043899641
  endloop
endfacet
facet normal -6.34718195436091e-06 -3.3039806702894393e-07 -0.9999999999798022
  outer loop
    vertex 541.2280849368516 -184.78277306944324 -72.34312043899641
    vertex 537.2633359669115 -177.4688883305457 -72.34298237997076
    vertex 541.2072268967953 -183.73877187168804 -72.34312114676494
  endloop
endfacet
facet normal -6.34718195436091e-06 -3.3039806702894393e-07 -0.9999999999798022
  outer loop
    vertex 541.2072268967953 -183.73877187168804 -72.34312114676494
    vertex 537.2633359669115 -177.4688883305457 -72.34298237997076
    vertex 541.457286970302 -182.72494569409082 -72.3431236469614
  endloop
endfacet
facet normal -6.34718195436091e-06 -3.3039806702894393e-07 -0.9999999999798022
  outer loop
    vertex 541.457286970302 -182.72494569409082 -72.3431236469614
    vertex 537.2633359669115 -177.4688883305457 -72.34298237997076
    vertex 541.9612239766061 -181.8103851152279 -72.34312776920149
  endloop
endfacet
facet normal -6.34718195436091e-06 -3.3039806702894393e-07 -0.9999999999798022
  outer loop
    vertex 541.9612239766061 -181.8103851152279 -72.34312776920149
    vertex 537.2633359669115 -177.4688883305457 -72.34298237997076
    vertex 542.6846954415231 -181.0574159271659 -72.34313323256137
  endloop
endfacet
facet normal -6.34718195436091e-06 -3.3039806702894393e-07 -0.9999999999798022
  outer loop
    vertex 542.6846954415231 -181.0574159271659 -72.34313323256137
    vertex 537.2633359669115 -177.4688883305457 -72.34298237997076
    vertex 543.5783979803123 -180.5173517357309 -72.34313966472214
  endloop
endfacet
facet normal -6.34718195436091e-06 -3.3039806702894393e-07 -0.9999999999798022
  outer loop
    vertex 543.5783979803123 -180.5173517357309 -72.34313966472214
    vertex 537.2633359669115 -177.4688883305457 -72.34298237997076
    vertex 544.5814272418683 -180.22699702307088 -72.3431466273426
  endloop
endfacet
facet normal -6.34718195436091e-06 -3.3039806702894393e-07 -0.9999999999798022
  outer loop
    vertex 544.5814272418683 -180.22699702307088 -72.3431466273426
    vertex 537.2633359669115 -177.4688883305457 -72.34298237997076
    vertex 545.6254284396002 -180.20613898301977 -72.34315364593174
  endloop
endfacet
facet normal -6.34718195436091e-06 -3.3039806702894393e-07 -0.9999999999798022
  outer loop
    vertex 549.7869044586241 -188.41112994543724 -72.34317522862503
    vertex 545.7838609831413 -188.136115374559 -72.34314826989602
    vertex 550.6913581143988 -186.99537446354503 -72.34318216199297
  endloop
endfacet
facet normal -6.34718195436091e-06 -3.3039806702894393e-07 -0.9999999999798022
  outer loop
    vertex 545.7838609831413 -188.136115374559 -72.34314826989602
    vertex 549.7869044586241 -188.41112994543724 -72.34317522862503
    vertex 544.7398597854093 -188.1569734146101 -72.34314125130689
  endloop
endfacet
facet normal -6.34718195436091e-06 -3.3039806702894393e-07 -0.9999999999798022
  outer loop
    vertex 550.6913581143988 -186.99537446354503 -72.34318216199297
    vertex 545.7838609831413 -188.136115374559 -72.34314826989602
    vertex 546.7868902446971 -187.845760661899 -72.34315523251648
  endloop
endfacet
facet normal -6.34718195436091e-06 -3.3039806702894393e-07 -0.9999999999798022
  outer loop
    vertex 550.6913581143988 -186.99537446354503 -72.34318216199297
    vertex 546.7868902446971 -187.845760661899 -72.34315523251648
    vertex 547.6805927834863 -187.305696470464 -72.34316166467725
  endloop
endfacet
facet normal -6.34718195436091e-06 -3.3039806702894393e-07 -0.9999999999798022
  outer loop
    vertex 550.6913581143988 -186.99537446354503 -72.34318216199297
    vertex 547.6805927834863 -187.305696470464 -72.34316166467725
    vertex 548.4040642484034 -186.55272728240203 -72.34316712803714
  endloop
endfacet
facet normal -6.34718195436091e-06 -3.3039806702894393e-07 -0.9999999999798022
  outer loop
    vertex 550.6913581143988 -186.99537446354503 -72.34318216199297
    vertex 548.4040642484034 -186.55272728240203 -72.34316712803714
    vertex 551.0485640720627 -185.15380898138747 -72.34317629197808
  endloop
endfacet
facet normal -6.34718195436091e-06 -3.3039806702894393e-07 -0.9999999999798022
  outer loop
    vertex 551.0485640720627 -185.15380898138747 -72.34317629197808
    vertex 548.4040642484034 -186.55272728240203 -72.34316712803714
    vertex 548.9080012547074 -185.63816670353907 -72.34317125027722
  endloop
endfacet
facet normal -6.34718195436091e-06 -3.3039806702894393e-07 -0.9999999999798022
  outer loop
    vertex 551.0485640720627 -185.15380898138747 -72.34317629197808
    vertex 548.9080012547074 -185.63816670353907 -72.34317125027722
    vertex 549.1580613282142 -184.62434052594182 -72.34317375047368
  endloop
endfacet
facet normal -6.34718195436091e-06 -3.3039806702894393e-07 -0.9999999999798022
  outer loop
    vertex 551.0485640720627 -185.15380898138747 -72.34317629197808
    vertex 549.1580613282142 -184.62434052594182 -72.34317375047368
    vertex 549.1372032881579 -183.58033932818662 -72.34317445824222
  endloop
endfacet
facet normal -6.34718195436091e-06 -3.3039806702894393e-07 -0.9999999999798022
  outer loop
    vertex 551.0485640720627 -185.15380898138747 -72.34317629197808
    vertex 549.1372032881579 -183.58033932818662 -72.34317445824222
    vertex 548.5972181550935 -177.46888833054567 -72.34317629197812
  endloop
endfacet
facet normal -6.34718195436091e-06 -3.3039806702894393e-07 -0.9999999999798022
  outer loop
    vertex 548.5972181550935 -177.46888833054567 -72.34317629197812
    vertex 549.1372032881579 -183.58033932818662 -72.34317445824222
    vertex 548.8468485754988 -182.57731006660688 -72.34317332534957
  endloop
endfacet
facet normal -6.34718195436091e-06 -3.3039806702894393e-07 -0.9999999999798022
  outer loop
    vertex 548.5972181550935 -177.46888833054567 -72.34317629197812
    vertex 548.8468485754988 -182.57731006660688 -72.34317332534957
    vertex 548.306784384071 -181.68360752779503 -72.34317042900057
  endloop
endfacet
facet normal -6.34718195436091e-06 -3.3039806702894393e-07 -0.9999999999798022
  outer loop
    vertex 548.5972181550935 -177.46888833054567 -72.34317629197812
    vertex 548.306784384071 -181.68360752779503 -72.34317042900057
    vertex 547.5538151960217 -180.96013606285777 -72.3431659665765
  endloop
endfacet
facet normal -6.34718195436091e-06 -3.3039806702894393e-07 -0.9999999999798022
  outer loop
    vertex 548.5972181550935 -177.46888833054567 -72.34317629197812
    vertex 547.5538151960217 -180.96013606285777 -72.3431659665765
    vertex 546.6392546171763 -180.45619905653757 -72.34316024218428
  endloop
endfacet
facet normal -6.34718195436091e-06 -3.3039806702894393e-07 -0.9999999999798022
  outer loop
    vertex 548.5972181550935 -177.46888833054567 -72.34317629197812
    vertex 546.6392546171763 -180.45619905653757 -72.34316024218428
    vertex 545.6254284396002 -180.20613898301977 -72.34315364593174
  endloop
endfacet
facet normal -6.34718195436091e-06 -3.3039806702894393e-07 -0.9999999999798022
  outer loop
    vertex 548.5972181550935 -177.46888833054567 -72.34317629197812
    vertex 545.6254284396002 -180.20613898301977 -72.34315364593174
    vertex 537.2633359669115 -177.4688883305457 -72.34298237997076
  endloop
endfacet
facet normal -6.34718195436091e-06 -3.3039806702894393e-07 -0.9999999999798022
  outer loop
    vertex 548.5972181550935 -177.46888833054567 -72.34317629197812
    vertex 537.2633359669115 -177.4688883305457 -72.34298237997076
    vertex 537.2633359616598 -170.60518172851405 -72.34313585832317
  endloop
endfacet
facet normal -6.34718195436091e-06 -3.3039806702894393e-07 -0.9999999999798022
  outer loop
    vertex 548.5972181550935 -177.46888833054567 -72.34317629197812
    vertex 537.2633359616598 -170.60518172851405 -72.34313585832317
    vertex 548.5972181550935 -176.75888833054566 -72.34317629197812
  endloop
endfacet
facet normal -6.34718195436091e-06 -3.3039806702894393e-07 -0.9999999999798022
  outer loop
    vertex 548.5972181550935 -176.75888833054566 -72.34317629197812
    vertex 537.2633359616598 -170.60518172851405 -72.34313585832317
    vertex 548.5972181550935 -170.56546427075656 -72.34317629197808
  endloop
endfacet
facet normal -6.34718195436091e-06 -3.3039806702894393e-07 -0.9999999999798022
  outer loop
    vertex 548.5972181550935 -170.56546427075656 -72.34317629197808
    vertex 537.2633359616598 -170.60518172851405 -72.34313585832317
    vertex 539.2039582321735 -169.06892289383 -72.34317629197808
  endloop
endfacet
facet normal -6.34718195436091e-06 -3.3039806702894393e-07 -0.9999999999798022
  outer loop
    vertex 548.5972181550935 -170.56546427075656 -72.34317629197808
    vertex 539.2039582321735 -169.06892289383 -72.34317629197808
    vertex 547.100676778167 -169.06892289383 -72.34317629197808
  endloop
endfacet
facet normal 0.8427115963462755 -0.5383652713100096 -5.55083337828259e-06
  outer loop
    vertex 549.7869044586241 -212.65112994543725 -72.34317522862503
    vertex 550.69137171417 -211.23537379667778 -70.34318216203931
    vertex 549.7869180583954 -212.65112927857 -70.34317522867137
  endloop
endfacet
facet normal 0.8427115963462755 -0.5383652713100096 -5.55083337828259e-06
  outer loop
    vertex 550.69137171417 -211.23537379667778 -70.34318216203931
    vertex 549.7869044586241 -212.65112994543725 -72.34317522862503
    vertex 550.6913581143988 -211.235374463545 -72.34318216199297
  endloop
endfacet
facet normal 0.5696956745846344 -0.8218557284259811 -3.599831092347479e-06
  outer loop
    vertex 549.7869044586241 -212.65112994543725 -72.34317522862503
    vertex 548.3651076482073 -213.63670279560452 -70.34317629202442
    vertex 548.365094048436 -213.63670346247173 -72.34317629197808
  endloop
endfacet
facet normal 0.5696956745846344 -0.8218557284259811 -3.599831092347479e-06
  outer loop
    vertex 548.3651076482073 -213.63670279560452 -70.34317629202442
    vertex 549.7869044586241 -212.65112994543725 -72.34317522862503
    vertex 549.7869180583954 -212.65112927857 -70.34317522867137
  endloop
endfacet
facet normal 0.9817028017707811 -0.1904195603179478 -6.611974472574141e-06
  outer loop
    vertex 550.69137171417 -211.23537379667778 -70.34318216203931
    vertex 551.0485640720627 -209.39380898138745 -72.34317629197808
    vertex 551.048577671834 -209.39380831452024 -70.34317629202442
  endloop
endfacet
facet normal 0.9817028017707811 -0.1904195603179478 -6.611974472574141e-06
  outer loop
    vertex 551.0485640720627 -209.39380898138745 -72.34317629197808
    vertex 550.69137171417 -211.23537379667778 -70.34318216203931
    vertex 550.6913581143988 -211.235374463545 -72.34318216199297
  endloop
endfacet
facet normal 0.9527054612798227 0.3038952187914594 -6.579617038494586e-06
  outer loop
    vertex 551.0485640720627 -209.39380898138745 -72.34317629197808
    vertex 548.5972317548648 -201.70888766367844 -70.34317629202447
    vertex 551.048577671834 -209.39380831452024 -70.34317629202442
  endloop
endfacet
facet normal 0.9527054612798227 0.3038952187914594 -6.579617038494586e-06
  outer loop
    vertex 548.5972317548648 -201.70888766367844 -70.34317629202447
    vertex 551.0485640720627 -209.39380898138745 -72.34317629197808
    vertex 548.5972181550935 -201.70888833054565 -72.34317629197812
  endloop
endfacet
facet normal 0.9999999999768809 -7.54938956895063e-22 -6.799885609920152e-06
  outer loop
    vertex 548.5972181550935 -201.70888833054565 -72.34317629197812
    vertex 548.5972317548648 -200.9988876636784 -70.34317629202447
    vertex 548.5972317548648 -201.70888766367844 -70.34317629202447
  endloop
endfacet
facet normal 0.9999999999768809 -7.54938956895063e-22 -6.799885609920152e-06
  outer loop
    vertex 548.5972317548648 -200.9988876636784 -70.34317629202447
    vertex 548.5972181550935 -201.70888833054565 -72.34317629197812
    vertex 548.5972181550935 -200.99888833054564 -72.34317629197812
  endloop
endfacet
facet normal 0.23947307936501955 0.9709030045558745 -1.9521212459983852e-06
  outer loop
    vertex 543.7260472076044 -212.14691267422506 -70.34313465510068
    vertex 544.7398597854093 -212.39697341461007 -72.34314125130689
    vertex 543.7260336078332 -212.1469133410923 -72.34313465505434
  endloop
endfacet
facet normal 0.23947307936501955 0.9709030045558745 -1.9521212459983852e-06
  outer loop
    vertex 544.7398597854093 -212.39697341461007 -72.34314125130689
    vertex 543.7260472076044 -212.14691267422506 -70.34313465510068
    vertex 544.7398733851804 -212.39697274774286 -70.34314125135323
  endloop
endfacet
facet normal 0.48260142058027067 0.8758400931911794 -3.573668984543297e-06
  outer loop
    vertex 542.811486628759 -211.64297566790486 -70.34312893070846
    vertex 543.7260336078332 -212.1469133410923 -72.34313465505434
    vertex 542.8114730289877 -211.64297633477207 -72.34312893066212
  endloop
endfacet
facet normal 0.48260142058027067 0.8758400931911794 -3.573668984543297e-06
  outer loop
    vertex 543.7260336078332 -212.1469133410923 -72.34313465505434
    vertex 542.811486628759 -211.64297566790486 -70.34312893070846
    vertex 543.7260472076044 -212.14691267422506 -70.34313465510068
  endloop
endfacet
facet normal 0.6928412725195862 0.7210901268696734 -4.951677087559172e-06
  outer loop
    vertex 542.0585174407098 -210.91950420296766 -70.3431244682844
    vertex 542.8114730289877 -211.64297633477207 -72.34312893066212
    vertex 542.0585038409386 -210.91950486983487 -72.34312446823806
  endloop
endfacet
facet normal 0.6928412725195862 0.7210901268696734 -4.951677087559172e-06
  outer loop
    vertex 542.8114730289877 -211.64297633477207 -72.34312893066212
    vertex 542.0585174407098 -210.91950420296766 -70.3431244682844
    vertex 542.811486628759 -211.64297566790486 -70.34312893070846
  endloop
endfacet
facet normal -0.9494928563692087 -0.3137886480750915 6.561070494493014e-06
  outer loop
    vertex 537.2633359669115 -201.70888833054568 -72.34298237997076
    vertex 540.8795444427667 -212.65112927857 -70.34316026943044
    vertex 537.2633495666828 -201.70888766367847 -70.3429823800171
  endloop
endfacet
facet normal -0.9494928563692087 -0.3137886480750915 6.561070494493014e-06
  outer loop
    vertex 540.8795444427667 -212.65112927857 -70.34316026943044
    vertex 537.2633359669115 -201.70888833054568 -72.34298237997076
    vertex 540.8795308429956 -212.65112994543725 -72.3431602693841
  endloop
endfacet
facet normal 0.0 -0.9999999999999445 3.334336160297949e-07
  outer loop
    vertex 548.365094048436 -213.63670346247173 -72.34317629197808
    vertex 542.2432569655053 -213.63670279560452 -70.34317629202442
    vertex 542.2432433657341 -213.63670346247173 -72.34317629197808
  endloop
endfacet
facet normal 0.0 -0.9999999999999445 3.334336160297949e-07
  outer loop
    vertex 542.2432569655053 -213.63670279560452 -70.34317629202442
    vertex 548.365094048436 -213.63670346247173 -72.34317629197808
    vertex 548.3651076482073 -213.63670279560452 -70.34317629202442
  endloop
endfacet
facet normal 3.332974165280744e-06 0.9999999999078559 -1.3159779448049477e-05
  outer loop
    vertex 547.100676778167 -193.30892289383 -70.34317629202447
    vertex 539.2039582321735 -193.30892289383 -72.34317629197808
    vertex 539.2039582321735 -193.3088702547122 -70.34317629339579
  endloop
endfacet
facet normal 3.332974165280744e-06 0.9999999999078559 -1.3159779448049477e-05
  outer loop
    vertex 539.2039582321735 -193.30892289383 -72.34317629197808
    vertex 547.100676778167 -193.30892289383 -70.34317629202447
    vertex 547.100676778167 -193.30892289383 -72.34317629197808
  endloop
endfacet
facet normal -0.5857522308293829 -0.8104901751781518 4.253292835353721e-06
  outer loop
    vertex 542.2432433657341 -213.63670346247173 -72.34317629197808
    vertex 540.8795444427667 -212.65112927857 -70.34316026943044
    vertex 540.8795308429956 -212.65112994543725 -72.3431602693841
  endloop
endfacet
facet normal -0.5857522308293829 -0.8104901751781518 4.253292835353721e-06
  outer loop
    vertex 540.8795444427667 -212.65112927857 -70.34316026943044
    vertex 542.2432433657341 -213.63670346247173 -72.34317629197808
    vertex 542.2432569655053 -213.63670279560452 -70.34317629202442
  endloop
endfacet
facet normal 0.7210901268545425 -0.692841272537274 -4.67231380633026e-06
  outer loop
    vertex 541.9612239766061 -206.05038511522784 -72.34312776920149
    vertex 542.6847090412944 -205.29741526029866 -70.34313323260771
    vertex 541.9612375763772 -206.05038444836063 -70.34312776924783
  endloop
endfacet
facet normal 0.7210901268545425 -0.692841272537274 -4.67231380633026e-06
  outer loop
    vertex 542.6847090412944 -205.29741526029866 -70.34313323260771
    vertex 541.9612239766061 -206.05038511522784 -72.34312776920149
    vertex 542.6846954415231 -205.29741592716587 -72.34313323256137
  endloop
endfacet
facet normal 0.8758400931720179 -0.48260142059348765 -5.794696909519606e-06
  outer loop
    vertex 541.457286970302 -206.9649456940908 -72.3431236469614
    vertex 541.9612375763772 -206.05038444836063 -70.34312776924783
    vertex 541.4573005700732 -206.96494502722354 -70.34312364700774
  endloop
endfacet
facet normal 0.8758400931720179 -0.48260142059348765 -5.794696909519606e-06
  outer loop
    vertex 541.9612375763772 -206.05038444836063 -70.34312776924783
    vertex 541.457286970302 -206.9649456940908 -72.3431236469614
    vertex 541.9612239766061 -206.05038511522784 -72.34312776920149
  endloop
endfacet
facet normal -0.27806173201439005 0.9605632062424061 1.570503906955241e-06
  outer loop
    vertex 545.7838745829125 -212.37611470769176 -70.34314826994236
    vertex 546.7868902446971 -212.085760661899 -72.34315523251648
    vertex 545.7838609831413 -212.37611537455896 -72.34314826989602
  endloop
endfacet
facet normal -0.27806173201439005 0.9605632062424061 1.570503906955241e-06
  outer loop
    vertex 546.7868902446971 -212.085760661899 -72.34315523251648
    vertex 545.7838745829125 -212.37611470769176 -70.34314826994236
    vertex 546.7869038444684 -212.08575999503174 -70.34315523256282
  endloop
endfacet
facet normal -0.48260142058027067 -0.8758400931911794 3.573668984543297e-06
  outer loop
    vertex 547.5538151960217 -205.2001360628578 -72.3431659665765
    vertex 546.6392682169475 -204.69619838967034 -70.34316024223062
    vertex 546.6392546171763 -204.69619905653755 -72.34316024218428
  endloop
endfacet
facet normal -0.48260142058027067 -0.8758400931911794 3.573668984543297e-06
  outer loop
    vertex 546.6392682169475 -204.69619838967034 -70.34316024223062
    vertex 547.5538151960217 -205.2001360628578 -72.3431659665765
    vertex 547.5538287957929 -205.20013539599054 -70.34316596662285
  endloop
endfacet
facet normal -0.01997495646102205 0.9998004806531859 -1.9753967057131165e-07
  outer loop
    vertex 544.7398733851804 -212.39697274774286 -70.34314125135323
    vertex 545.7838609831413 -212.37611537455896 -72.34314826989602
    vertex 544.7398597854093 -212.39697341461007 -72.34314125130689
  endloop
endfacet
facet normal -0.01997495646102205 0.9998004806531859 -1.9753967057131165e-07
  outer loop
    vertex 545.7838609831413 -212.37611537455896 -72.34314826989602
    vertex 544.7398733851804 -212.39697274774286 -70.34314125135323
    vertex 545.7838745829125 -212.37611470769176 -70.34314826994236
  endloop
endfacet
facet normal -0.9605632062196084 -0.2780617320186705 6.624435052328984e-06
  outer loop
    vertex 548.8468485754988 -206.81731006660686 -72.34317332534957
    vertex 549.1372168879291 -207.8203386613194 -70.34317445828856
    vertex 548.8468621752701 -206.81730939973966 -70.34317332539591
  endloop
endfacet
facet normal -0.9605632062196084 -0.2780617320186705 6.624435052328984e-06
  outer loop
    vertex 549.1372168879291 -207.8203386613194 -70.34317445828856
    vertex 548.8468485754988 -206.81731006660686 -72.34317332534957
    vertex 549.1372032881579 -207.8203393281866 -72.34317445824222
  endloop
endfacet
facet normal 0.9998004806300829 0.019974956459144075 -6.805189223147137e-06
  outer loop
    vertex 541.2280849368516 -209.02277306944322 -72.34312043899641
    vertex 541.2072404965666 -207.97877120482082 -70.34312114681128
    vertex 541.2280985366228 -209.022772402576 -70.34312043904275
  endloop
endfacet
facet normal 0.9998004806300829 0.019974956459144075 -6.805189223147137e-06
  outer loop
    vertex 541.2072404965666 -207.97877120482082 -70.34312114681128
    vertex 541.2280849368516 -209.02277306944322 -72.34312043899641
    vertex 541.2072268967953 -207.97877187168802 -72.34312114676494
  endloop
endfacet
facet normal 0.9709030045340128 -0.23947307937279302 -6.522180994514642e-06
  outer loop
    vertex 541.2072268967953 -207.97877187168802 -72.34312114676494
    vertex 541.4573005700732 -206.96494502722354 -70.34312364700774
    vertex 541.2072404965666 -207.97877120482082 -70.34312114681128
  endloop
endfacet
facet normal 0.9709030045340128 -0.23947307937279302 -6.522180994514642e-06
  outer loop
    vertex 541.4573005700732 -206.96494502722354 -70.34312364700774
    vertex 541.2072268967953 -207.97877187168802 -72.34312114676494
    vertex 541.457286970302 -206.9649456940908 -72.3431236469614
  endloop
endfacet
facet normal -0.9998004806300829 -0.019974956459144075 6.805189223147137e-06
  outer loop
    vertex 549.1372168879291 -207.8203386613194 -70.34317445828856
    vertex 549.1580613282142 -208.86434052594186 -72.34317375047368
    vertex 549.1580749279854 -208.8643398590746 -70.34317375052002
  endloop
endfacet
facet normal -0.9998004806300829 -0.019974956459144075 6.805189223147137e-06
  outer loop
    vertex 549.1580613282142 -208.86434052594186 -72.34317375047368
    vertex 549.1372168879291 -207.8203386613194 -70.34317445828856
    vertex 549.1372032881579 -207.8203393281866 -72.34317445824222
  endloop
endfacet
facet normal -0.7210901268545425 0.692841272537274 4.67231380633026e-06
  outer loop
    vertex 548.4040778481747 -210.79272661553475 -70.34316712808348
    vertex 547.6805927834863 -211.545696470464 -72.34316166467725
    vertex 547.6806063832576 -211.54569580359674 -70.3431616647236
  endloop
endfacet
facet normal -0.7210901268545425 0.692841272537274 4.67231380633026e-06
  outer loop
    vertex 547.6805927834863 -211.545696470464 -72.34316166467725
    vertex 548.4040778481747 -210.79272661553475 -70.34316712808348
    vertex 548.4040642484034 -210.792727282402 -72.34316712803714
  endloop
endfacet
facet normal -0.23947307936501955 -0.9709030045558745 1.9521212459983852e-06
  outer loop
    vertex 546.6392546171763 -204.69619905653755 -72.34316024218428
    vertex 545.6254420393715 -204.44613831615254 -70.34315364597808
    vertex 545.6254284396002 -204.4461389830198 -72.34315364593174
  endloop
endfacet
facet normal -0.23947307936501955 -0.9709030045558745 1.9521212459983852e-06
  outer loop
    vertex 545.6254420393715 -204.44613831615254 -70.34315364597808
    vertex 546.6392546171763 -204.69619905653755 -72.34316024218428
    vertex 546.6392682169475 -204.69619838967034 -70.34316024223062
  endloop
endfacet
facet normal -0.8758400931720179 0.48260142059348765 5.794696909519606e-06
  outer loop
    vertex 548.9080148544787 -209.87816603667184 -70.34317125032356
    vertex 548.4040642484034 -210.792727282402 -72.34316712803714
    vertex 548.4040778481747 -210.79272661553475 -70.34316712808348
  endloop
endfacet
facet normal -0.8758400931720179 0.48260142059348765 5.794696909519606e-06
  outer loop
    vertex 548.4040642484034 -210.792727282402 -72.34316712803714
    vertex 548.9080148544787 -209.87816603667184 -70.34317125032356
    vertex 548.9080012547074 -209.87816670353905 -72.34317125027722
  endloop
endfacet
facet normal -0.5171990600496925 0.8558651367319923 3.2315202386030415e-06
  outer loop
    vertex 546.7869038444684 -212.08575999503174 -70.34315523256282
    vertex 547.6805927834863 -211.545696470464 -72.34316166467725
    vertex 546.7868902446971 -212.085760661899 -72.34315523251648
  endloop
endfacet
facet normal -0.5171990600496925 0.8558651367319923 3.2315202386030415e-06
  outer loop
    vertex 547.6805927834863 -211.545696470464 -72.34316166467725
    vertex 546.7869038444684 -212.08575999503174 -70.34315523256282
    vertex 547.6806063832576 -211.54569580359674 -70.3431616647236
  endloop
endfacet
facet normal 0.5171990600496925 -0.8558651367319923 -3.2315202386030415e-06
  outer loop
    vertex 543.5783979803123 -204.75735173573085 -72.34313966472214
    vertex 542.6847090412944 -205.29741526029866 -70.34313323260771
    vertex 542.6846954415231 -205.29741592716587 -72.34313323256137
  endloop
endfacet
facet normal 0.5171990600496925 -0.8558651367319923 -3.2315202386030415e-06
  outer loop
    vertex 542.6847090412944 -205.29741526029866 -70.34313323260771
    vertex 543.5783979803123 -204.75735173573085 -72.34313966472214
    vertex 543.5784115800835 -204.75735106886364 -70.34313966476849
  endloop
endfacet
facet normal 0.8558651367110426 0.5171990600597429 -5.992236580091251e-06
  outer loop
    vertex 542.0585174407098 -210.91950420296766 -70.3431244682844
    vertex 541.5184396495107 -210.02580233102302 -72.34312157188906
    vertex 541.518453249282 -210.02580166415575 -70.3431215719354
  endloop
endfacet
facet normal 0.8558651367110426 0.5171990600597429 -5.992236580091251e-06
  outer loop
    vertex 541.5184396495107 -210.02580233102302 -72.34312157188906
    vertex 542.0585174407098 -210.91950420296766 -70.3431244682844
    vertex 542.0585038409386 -210.91950486983487 -72.34312446823806
  endloop
endfacet
facet normal 0.01997495646102205 -0.9998004806531859 1.9753967057131165e-07
  outer loop
    vertex 545.6254284396002 -204.4461389830198 -72.34315364593174
    vertex 544.5814408416395 -204.46699635620365 -70.34314662738895
    vertex 544.5814272418683 -204.4669970230709 -72.3431466273426
  endloop
endfacet
facet normal 0.01997495646102205 -0.9998004806531859 1.9753967057131165e-07
  outer loop
    vertex 544.5814408416395 -204.46699635620365 -70.34314662738895
    vertex 545.6254284396002 -204.4461389830198 -72.34315364593174
    vertex 545.6254420393715 -204.44613831615254 -70.34315364597808
  endloop
endfacet
facet normal 0.9605632062196084 0.2780617320186705 -6.624435052328984e-06
  outer loop
    vertex 541.518453249282 -210.02580166415575 -70.3431215719354
    vertex 541.2280849368516 -209.02277306944322 -72.34312043899641
    vertex 541.2280985366228 -209.022772402576 -70.34312043904275
  endloop
endfacet
facet normal 0.9605632062196084 0.2780617320186705 -6.624435052328984e-06
  outer loop
    vertex 541.2280849368516 -209.02277306944322 -72.34312043899641
    vertex 541.518453249282 -210.02580166415575 -70.3431215719354
    vertex 541.5184396495107 -210.02580233102302 -72.34312157188906
  endloop
endfacet
facet normal -0.6928412725195917 -0.7210901268696679 4.951677087559208e-06
  outer loop
    vertex 548.306784384071 -205.92360752779499 -72.34317042900057
    vertex 547.5538287957929 -205.20013539599054 -70.34316596662285
    vertex 547.5538151960217 -205.2001360628578 -72.3431659665765
  endloop
endfacet
facet normal -0.6928412725195917 -0.7210901268696679 4.951677087559208e-06
  outer loop
    vertex 547.5538287957929 -205.20013539599054 -70.34316596662285
    vertex 548.306784384071 -205.92360752779499 -72.34317042900057
    vertex 548.3067979838422 -205.92360686092778 -70.3431704290469
  endloop
endfacet
facet normal -0.8558651367110398 -0.5171990600597477 5.992236580091233e-06
  outer loop
    vertex 548.306784384071 -205.92360752779499 -72.34317042900057
    vertex 548.8468621752701 -206.81730939973966 -70.34317332539591
    vertex 548.3067979838422 -205.92360686092778 -70.3431704290469
  endloop
endfacet
facet normal -0.8558651367110398 -0.5171990600597477 5.992236580091233e-06
  outer loop
    vertex 548.8468621752701 -206.81730939973966 -70.34317332539591
    vertex 548.306784384071 -205.92360752779499 -72.34317042900057
    vertex 548.8468485754988 -206.81731006660686 -72.34317332534957
  endloop
endfacet
facet normal -0.9709030045340128 0.23947307937279302 6.522180994514642e-06
  outer loop
    vertex 549.1580749279854 -208.8643398590746 -70.34317375052002
    vertex 548.9080012547074 -209.87816670353905 -72.34317125027722
    vertex 548.9080148544787 -209.87816603667184 -70.34317125032356
  endloop
endfacet
facet normal -0.9709030045340128 0.23947307937279302 6.522180994514642e-06
  outer loop
    vertex 548.9080012547074 -209.87816670353905 -72.34317125027722
    vertex 549.1580749279854 -208.8643398590746 -70.34317375052002
    vertex 549.1580613282142 -208.86434052594186 -72.34317375047368
  endloop
endfacet
facet normal 0.27806173201439005 -0.9605632062424061 -1.570503906955241e-06
  outer loop
    vertex 544.5814272418683 -204.4669970230709 -72.3431466273426
    vertex 543.5784115800835 -204.75735106886364 -70.34313966476849
    vertex 543.5783979803123 -204.75735173573085 -72.34313966472214
  endloop
endfacet
facet normal 0.27806173201439005 -0.9605632062424061 -1.570503906955241e-06
  outer loop
    vertex 543.5784115800835 -204.75735106886364 -70.34313966476849
    vertex 544.5814272418683 -204.4669970230709 -72.3431466273426
    vertex 544.5814408416395 -204.46699635620365 -70.34314662738895
  endloop
endfacet
facet normal 0.7071067811865461 0.7071067811865489 -7.850462293418892e-17
  outer loop
    vertex 548.5972181550935 -194.80546427075654 -70.34317629202447
    vertex 547.100676778167 -193.30892289383 -72.34317629197808
    vertex 547.100676778167 -193.30892289383 -70.34317629202447
  endloop
endfacet
facet normal 0.7071067811865461 0.7071067811865489 -7.850462293418892e-17
  outer loop
    vertex 547.100676778167 -193.30892289383 -72.34317629197808
    vertex 548.5972181550935 -194.80546427075654 -70.34317629202447
    vertex 548.5972181550935 -194.80546427075654 -72.34317629197808
  endloop
endfacet
facet normal -0.6206862717365192 0.7840590230664858 -2.0636087649393223e-05
  outer loop
    vertex 539.2039582321735 -193.3088702547122 -70.34317629339579
    vertex 537.2633359616598 -194.84518172851406 -72.34313585832317
    vertex 537.2633359616598 -194.84512908939627 -70.34313585974087
  endloop
endfacet
facet normal -0.6206862717365192 0.7840590230664858 -2.0636087649393223e-05
  outer loop
    vertex 537.2633359616598 -194.84518172851406 -72.34313585832317
    vertex 539.2039582321735 -193.3088702547122 -70.34317629339579
    vertex 539.2039582321735 -193.30892289383 -72.34317629197808
  endloop
endfacet
facet normal 0.9999999999936175 1.0979202375950632e-06 -3.3999429907459067e-06
  outer loop
    vertex 548.5972181550935 -200.99888833054564 -72.34317629197812
    vertex 548.5972181550935 -194.80546427075654 -70.34317629202447
    vertex 548.5972317548648 -200.9988876636784 -70.34317629202447
  endloop
endfacet
facet normal 0.9999999999936175 1.0979202375950632e-06 -3.3999429907459067e-06
  outer loop
    vertex 548.5972181550935 -194.80546427075654 -70.34317629202447
    vertex 548.5972181550935 -200.99888833054564 -72.34317629197812
    vertex 548.5972181550935 -194.80546427075654 -72.34317629197808
  endloop
endfacet
facet normal -0.9999999999937288 -9.913908016541575e-07 3.3999560208137265e-06
  outer loop
    vertex 537.2633359616598 -194.84512908939627 -70.34313585974087
    vertex 537.2633359669115 -201.70888833054568 -72.34298237997076
    vertex 537.2633495666828 -201.70888766367847 -70.3429823800171
  endloop
endfacet
facet normal -0.9999999999937288 -9.913908016541575e-07 3.3999560208137265e-06
  outer loop
    vertex 537.2633359669115 -201.70888833054568 -72.34298237997076
    vertex 537.2633359616598 -194.84512908939627 -70.34313585974087
    vertex 537.2633359616598 -194.84518172851406 -72.34313585832317
  endloop
endfacet
facet normal 8.081633492992331e-06 4.0068621162786544e-07 0.9999999999672633
  outer loop
    vertex 549.7869180583954 -212.65112927857 -70.34317522867137
    vertex 542.2432569655053 -213.63670279560452 -70.34317629202442
    vertex 548.3651076482073 -213.63670279560452 -70.34317629202442
  endloop
endfacet
facet normal 8.081633492992331e-06 4.0068621162786544e-07 0.9999999999672633
  outer loop
    vertex 542.2432569655053 -213.63670279560452 -70.34317629202442
    vertex 549.7869180583954 -212.65112927857 -70.34317522867137
    vertex 540.8795444427667 -212.65112927857 -70.34316026943044
  endloop
endfacet
facet normal 8.081633492992331e-06 4.0068621162786544e-07 0.9999999999672633
  outer loop
    vertex 540.8795444427667 -212.65112927857 -70.34316026943044
    vertex 549.7869180583954 -212.65112927857 -70.34317522867137
    vertex 545.7838745829125 -212.37611470769176 -70.34314826994236
  endloop
endfacet
facet normal 8.081633492992331e-06 4.0068621162786544e-07 0.9999999999672633
  outer loop
    vertex 545.7838745829125 -212.37611470769176 -70.34314826994236
    vertex 549.7869180583954 -212.65112927857 -70.34317522867137
    vertex 550.69137171417 -211.23537379667778 -70.34318216203931
  endloop
endfacet
facet normal 8.081633492992331e-06 4.0068621162786544e-07 0.9999999999672633
  outer loop
    vertex 540.8795444427667 -212.65112927857 -70.34316026943044
    vertex 545.7838745829125 -212.37611470769176 -70.34314826994236
    vertex 544.7398733851804 -212.39697274774286 -70.34314125135323
  endloop
endfacet
facet normal 8.081633492992331e-06 4.0068621162786544e-07 0.9999999999672633
  outer loop
    vertex 545.7838745829125 -212.37611470769176 -70.34314826994236
    vertex 550.69137171417 -211.23537379667778 -70.34318216203931
    vertex 546.7869038444684 -212.08575999503174 -70.34315523256282
  endloop
endfacet
facet normal 8.081633492992331e-06 4.0068621162786544e-07 0.9999999999672633
  outer loop
    vertex 546.7869038444684 -212.08575999503174 -70.34315523256282
    vertex 550.69137171417 -211.23537379667778 -70.34318216203931
    vertex 547.6806063832576 -211.54569580359674 -70.3431616647236
  endloop
endfacet
facet normal 8.081633492992331e-06 4.0068621162786544e-07 0.9999999999672633
  outer loop
    vertex 547.6806063832576 -211.54569580359674 -70.3431616647236
    vertex 550.69137171417 -211.23537379667778 -70.34318216203931
    vertex 548.4040778481747 -210.79272661553475 -70.34316712808348
  endloop
endfacet
facet normal 8.081633492992331e-06 4.0068621162786544e-07 0.9999999999672633
  outer loop
    vertex 548.4040778481747 -210.79272661553475 -70.34316712808348
    vertex 550.69137171417 -211.23537379667778 -70.34318216203931
    vertex 551.048577671834 -209.39380831452024 -70.34317629202442
  endloop
endfacet
facet normal 8.081633492992331e-06 4.0068621162786544e-07 0.9999999999672633
  outer loop
    vertex 548.4040778481747 -210.79272661553475 -70.34316712808348
    vertex 551.048577671834 -209.39380831452024 -70.34317629202442
    vertex 548.9080148544787 -209.87816603667184 -70.34317125032356
  endloop
endfacet
facet normal 8.081633492992331e-06 4.0068621162786544e-07 0.9999999999672633
  outer loop
    vertex 548.9080148544787 -209.87816603667184 -70.34317125032356
    vertex 551.048577671834 -209.39380831452024 -70.34317629202442
    vertex 549.1580749279854 -208.8643398590746 -70.34317375052002
  endloop
endfacet
facet normal 8.081633492992331e-06 4.0068621162786544e-07 0.9999999999672633
  outer loop
    vertex 549.1580749279854 -208.8643398590746 -70.34317375052002
    vertex 551.048577671834 -209.39380831452024 -70.34317629202442
    vertex 549.1372168879291 -207.8203386613194 -70.34317445828856
  endloop
endfacet
facet normal 8.081633492992331e-06 4.0068621162786544e-07 0.9999999999672633
  outer loop
    vertex 549.1372168879291 -207.8203386613194 -70.34317445828856
    vertex 551.048577671834 -209.39380831452024 -70.34317629202442
    vertex 548.5972317548648 -201.70888766367844 -70.34317629202447
  endloop
endfacet
facet normal 8.081633492992331e-06 4.0068621162786544e-07 0.9999999999672633
  outer loop
    vertex 549.1372168879291 -207.8203386613194 -70.34317445828856
    vertex 548.5972317548648 -201.70888766367844 -70.34317629202447
    vertex 548.8468621752701 -206.81730939973966 -70.34317332539591
  endloop
endfacet
facet normal 8.081633492992331e-06 4.0068621162786544e-07 0.9999999999672633
  outer loop
    vertex 548.8468621752701 -206.81730939973966 -70.34317332539591
    vertex 548.5972317548648 -201.70888766367844 -70.34317629202447
    vertex 548.3067979838422 -205.92360686092778 -70.3431704290469
  endloop
endfacet
facet normal 8.081633492992331e-06 4.0068621162786544e-07 0.9999999999672633
  outer loop
    vertex 548.3067979838422 -205.92360686092778 -70.3431704290469
    vertex 548.5972317548648 -201.70888766367844 -70.34317629202447
    vertex 547.5538287957929 -205.20013539599054 -70.34316596662285
  endloop
endfacet
facet normal 8.081633492992331e-06 4.0068621162786544e-07 0.9999999999672633
  outer loop
    vertex 547.5538287957929 -205.20013539599054 -70.34316596662285
    vertex 548.5972317548648 -201.70888766367844 -70.34317629202447
    vertex 546.6392682169475 -204.69619838967034 -70.34316024223062
  endloop
endfacet
facet normal 8.081633492992331e-06 4.0068621162786544e-07 0.9999999999672633
  outer loop
    vertex 546.6392682169475 -204.69619838967034 -70.34316024223062
    vertex 548.5972317548648 -201.70888766367844 -70.34317629202447
    vertex 545.6254420393715 -204.44613831615254 -70.34315364597808
  endloop
endfacet
facet normal 8.081633492992331e-06 4.0068621162786544e-07 0.9999999999672633
  outer loop
    vertex 545.6254420393715 -204.44613831615254 -70.34315364597808
    vertex 548.5972317548648 -201.70888766367844 -70.34317629202447
    vertex 537.2633495666828 -201.70888766367847 -70.3429823800171
  endloop
endfacet
facet normal 8.081633492992331e-06 4.0068621162786544e-07 0.9999999999672633
  outer loop
    vertex 537.2633495666828 -201.70888766367847 -70.3429823800171
    vertex 548.5972317548648 -201.70888766367844 -70.34317629202447
    vertex 537.2633359616598 -194.84512908939627 -70.34313585974087
  endloop
endfacet
facet normal 8.081633492992331e-06 4.0068621162786544e-07 0.9999999999672633
  outer loop
    vertex 537.2633359616598 -194.84512908939627 -70.34313585974087
    vertex 548.5972317548648 -201.70888766367844 -70.34317629202447
    vertex 548.5972317548648 -200.9988876636784 -70.34317629202447
  endloop
endfacet
facet normal 8.081633492992331e-06 4.0068621162786544e-07 0.9999999999672633
  outer loop
    vertex 537.2633359616598 -194.84512908939627 -70.34313585974087
    vertex 548.5972317548648 -200.9988876636784 -70.34317629202447
    vertex 548.5972181550935 -194.80546427075654 -70.34317629202447
  endloop
endfacet
facet normal 8.081633492992331e-06 4.0068621162786544e-07 0.9999999999672633
  outer loop
    vertex 537.2633359616598 -194.84512908939627 -70.34313585974087
    vertex 548.5972181550935 -194.80546427075654 -70.34317629202447
    vertex 539.2039582321735 -193.3088702547122 -70.34317629339579
  endloop
endfacet
facet normal 8.081633492992331e-06 4.0068621162786544e-07 0.9999999999672633
  outer loop
    vertex 539.2039582321735 -193.3088702547122 -70.34317629339579
    vertex 548.5972181550935 -194.80546427075654 -70.34317629202447
    vertex 547.100676778167 -193.30892289383 -70.34317629202447
  endloop
endfacet
facet normal 8.081633492992331e-06 4.0068621162786544e-07 0.9999999999672633
  outer loop
    vertex 540.8795444427667 -212.65112927857 -70.34316026943044
    vertex 541.518453249282 -210.02580166415575 -70.3431215719354
    vertex 537.2633495666828 -201.70888766367847 -70.3429823800171
  endloop
endfacet
facet normal 8.081633492992331e-06 4.0068621162786544e-07 0.9999999999672633
  outer loop
    vertex 541.518453249282 -210.02580166415575 -70.3431215719354
    vertex 540.8795444427667 -212.65112927857 -70.34316026943044
    vertex 542.0585174407098 -210.91950420296766 -70.3431244682844
  endloop
endfacet
facet normal 8.081633492992331e-06 4.0068621162786544e-07 0.9999999999672633
  outer loop
    vertex 542.0585174407098 -210.91950420296766 -70.3431244682844
    vertex 540.8795444427667 -212.65112927857 -70.34316026943044
    vertex 542.811486628759 -211.64297566790486 -70.34312893070846
  endloop
endfacet
facet normal 8.081633492992331e-06 4.0068621162786544e-07 0.9999999999672633
  outer loop
    vertex 542.811486628759 -211.64297566790486 -70.34312893070846
    vertex 540.8795444427667 -212.65112927857 -70.34316026943044
    vertex 543.7260472076044 -212.14691267422506 -70.34313465510068
  endloop
endfacet
facet normal 8.081633492992331e-06 4.0068621162786544e-07 0.9999999999672633
  outer loop
    vertex 543.7260472076044 -212.14691267422506 -70.34313465510068
    vertex 540.8795444427667 -212.65112927857 -70.34316026943044
    vertex 544.7398733851804 -212.39697274774286 -70.34314125135323
  endloop
endfacet
facet normal 8.081633492992331e-06 4.0068621162786544e-07 0.9999999999672633
  outer loop
    vertex 537.2633495666828 -201.70888766367847 -70.3429823800171
    vertex 541.518453249282 -210.02580166415575 -70.3431215719354
    vertex 541.2280985366228 -209.022772402576 -70.34312043904275
  endloop
endfacet
facet normal 8.081633492992331e-06 4.0068621162786544e-07 0.9999999999672633
  outer loop
    vertex 537.2633495666828 -201.70888766367847 -70.3429823800171
    vertex 541.2280985366228 -209.022772402576 -70.34312043904275
    vertex 541.2072404965666 -207.97877120482082 -70.34312114681128
  endloop
endfacet
facet normal 8.081633492992331e-06 4.0068621162786544e-07 0.9999999999672633
  outer loop
    vertex 537.2633495666828 -201.70888766367847 -70.3429823800171
    vertex 541.2072404965666 -207.97877120482082 -70.34312114681128
    vertex 541.4573005700732 -206.96494502722354 -70.34312364700774
  endloop
endfacet
facet normal 8.081633492992331e-06 4.0068621162786544e-07 0.9999999999672633
  outer loop
    vertex 537.2633495666828 -201.70888766367847 -70.3429823800171
    vertex 541.4573005700732 -206.96494502722354 -70.34312364700774
    vertex 541.9612375763772 -206.05038444836063 -70.34312776924783
  endloop
endfacet
facet normal 8.081633492992331e-06 4.0068621162786544e-07 0.9999999999672633
  outer loop
    vertex 537.2633495666828 -201.70888766367847 -70.3429823800171
    vertex 541.9612375763772 -206.05038444836063 -70.34312776924783
    vertex 542.6847090412944 -205.29741526029866 -70.34313323260771
  endloop
endfacet
facet normal 8.081633492992331e-06 4.0068621162786544e-07 0.9999999999672633
  outer loop
    vertex 537.2633495666828 -201.70888766367847 -70.3429823800171
    vertex 542.6847090412944 -205.29741526029866 -70.34313323260771
    vertex 543.5784115800835 -204.75735106886364 -70.34313966476849
  endloop
endfacet
facet normal 8.081633492992331e-06 4.0068621162786544e-07 0.9999999999672633
  outer loop
    vertex 537.2633495666828 -201.70888766367847 -70.3429823800171
    vertex 543.5784115800835 -204.75735106886364 -70.34313966476849
    vertex 544.5814408416395 -204.46699635620365 -70.34314662738895
  endloop
endfacet
facet normal 8.081633492992331e-06 4.0068621162786544e-07 0.9999999999672633
  outer loop
    vertex 537.2633495666828 -201.70888766367847 -70.3429823800171
    vertex 544.5814408416395 -204.46699635620365 -70.34314662738895
    vertex 545.6254420393715 -204.44613831615254 -70.34315364597808
  endloop
endfacet
facet normal -6.34718195436091e-06 -3.3039806702894393e-07 -0.9999999999798022
  outer loop
    vertex 540.8795308429956 -212.65112994543725 -72.3431602693841
    vertex 548.365094048436 -213.63670346247173 -72.34317629197808
    vertex 542.2432433657341 -213.63670346247173 -72.34317629197808
  endloop
endfacet
facet normal -6.34718195436091e-06 -3.3039806702894393e-07 -0.9999999999798022
  outer loop
    vertex 548.365094048436 -213.63670346247173 -72.34317629197808
    vertex 540.8795308429956 -212.65112994543725 -72.3431602693841
    vertex 549.7869044586241 -212.65112994543725 -72.34317522862503
  endloop
endfacet
facet normal -6.34718195436091e-06 -3.3039806702894393e-07 -0.9999999999798022
  outer loop
    vertex 549.7869044586241 -212.65112994543725 -72.34317522862503
    vertex 540.8795308429956 -212.65112994543725 -72.3431602693841
    vertex 544.7398597854093 -212.39697341461007 -72.34314125130689
  endloop
endfacet
facet normal -6.34718195436091e-06 -3.3039806702894393e-07 -0.9999999999798022
  outer loop
    vertex 544.7398597854093 -212.39697341461007 -72.34314125130689
    vertex 540.8795308429956 -212.65112994543725 -72.3431602693841
    vertex 543.7260336078332 -212.1469133410923 -72.34313465505434
  endloop
endfacet
facet normal -6.34718195436091e-06 -3.3039806702894393e-07 -0.9999999999798022
  outer loop
    vertex 543.7260336078332 -212.1469133410923 -72.34313465505434
    vertex 540.8795308429956 -212.65112994543725 -72.3431602693841
    vertex 542.8114730289877 -211.64297633477207 -72.34312893066212
  endloop
endfacet
facet normal -6.34718195436091e-06 -3.3039806702894393e-07 -0.9999999999798022
  outer loop
    vertex 542.8114730289877 -211.64297633477207 -72.34312893066212
    vertex 540.8795308429956 -212.65112994543725 -72.3431602693841
    vertex 542.0585038409386 -210.91950486983487 -72.34312446823806
  endloop
endfacet
facet normal -6.34718195436091e-06 -3.3039806702894393e-07 -0.9999999999798022
  outer loop
    vertex 542.0585038409386 -210.91950486983487 -72.34312446823806
    vertex 540.8795308429956 -212.65112994543725 -72.3431602693841
    vertex 541.5184396495107 -210.02580233102302 -72.34312157188906
  endloop
endfacet
facet normal -6.34718195436091e-06 -3.3039806702894393e-07 -0.9999999999798022
  outer loop
    vertex 541.5184396495107 -210.02580233102302 -72.34312157188906
    vertex 540.8795308429956 -212.65112994543725 -72.3431602693841
    vertex 537.2633359669115 -201.70888833054568 -72.34298237997076
  endloop
endfacet
facet normal -6.34718195436091e-06 -3.3039806702894393e-07 -0.9999999999798022
  outer loop
    vertex 541.5184396495107 -210.02580233102302 -72.34312157188906
    vertex 537.2633359669115 -201.70888833054568 -72.34298237997076
    vertex 541.2280849368516 -209.02277306944322 -72.34312043899641
  endloop
endfacet
facet normal -6.34718195436091e-06 -3.3039806702894393e-07 -0.9999999999798022
  outer loop
    vertex 541.2280849368516 -209.02277306944322 -72.34312043899641
    vertex 537.2633359669115 -201.70888833054568 -72.34298237997076
    vertex 541.2072268967953 -207.97877187168802 -72.34312114676494
  endloop
endfacet
facet normal -6.34718195436091e-06 -3.3039806702894393e-07 -0.9999999999798022
  outer loop
    vertex 541.2072268967953 -207.97877187168802 -72.34312114676494
    vertex 537.2633359669115 -201.70888833054568 -72.34298237997076
    vertex 541.457286970302 -206.9649456940908 -72.3431236469614
  endloop
endfacet
facet normal -6.34718195436091e-06 -3.3039806702894393e-07 -0.9999999999798022
  outer loop
    vertex 541.457286970302 -206.9649456940908 -72.3431236469614
    vertex 537.2633359669115 -201.70888833054568 -72.34298237997076
    vertex 541.9612239766061 -206.05038511522784 -72.34312776920149
  endloop
endfacet
facet normal -6.34718195436091e-06 -3.3039806702894393e-07 -0.9999999999798022
  outer loop
    vertex 541.9612239766061 -206.05038511522784 -72.34312776920149
    vertex 537.2633359669115 -201.70888833054568 -72.34298237997076
    vertex 542.6846954415231 -205.29741592716587 -72.34313323256137
  endloop
endfacet
facet normal -6.34718195436091e-06 -3.3039806702894393e-07 -0.9999999999798022
  outer loop
    vertex 542.6846954415231 -205.29741592716587 -72.34313323256137
    vertex 537.2633359669115 -201.70888833054568 -72.34298237997076
    vertex 543.5783979803123 -204.75735173573085 -72.34313966472214
  endloop
endfacet
facet normal -6.34718195436091e-06 -3.3039806702894393e-07 -0.9999999999798022
  outer loop
    vertex 543.5783979803123 -204.75735173573085 -72.34313966472214
    vertex 537.2633359669115 -201.70888833054568 -72.34298237997076
    vertex 544.5814272418683 -204.4669970230709 -72.3431466273426
  endloop
endfacet
facet normal -6.34718195436091e-06 -3.3039806702894393e-07 -0.9999999999798022
  outer loop
    vertex 544.5814272418683 -204.4669970230709 -72.3431466273426
    vertex 537.2633359669115 -201.70888833054568 -72.34298237997076
    vertex 545.6254284396002 -204.4461389830198 -72.34315364593174
  endloop
endfacet
facet normal -6.34718195436091e-06 -3.3039806702894393e-07 -0.9999999999798022
  outer loop
    vertex 549.7869044586241 -212.65112994543725 -72.34317522862503
    vertex 545.7838609831413 -212.37611537455896 -72.34314826989602
    vertex 550.6913581143988 -211.235374463545 -72.34318216199297
  endloop
endfacet
facet normal -6.34718195436091e-06 -3.3039806702894393e-07 -0.9999999999798022
  outer loop
    vertex 545.7838609831413 -212.37611537455896 -72.34314826989602
    vertex 549.7869044586241 -212.65112994543725 -72.34317522862503
    vertex 544.7398597854093 -212.39697341461007 -72.34314125130689
  endloop
endfacet
facet normal -6.34718195436091e-06 -3.3039806702894393e-07 -0.9999999999798022
  outer loop
    vertex 550.6913581143988 -211.235374463545 -72.34318216199297
    vertex 545.7838609831413 -212.37611537455896 -72.34314826989602
    vertex 546.7868902446971 -212.085760661899 -72.34315523251648
  endloop
endfacet
facet normal -6.34718195436091e-06 -3.3039806702894393e-07 -0.9999999999798022
  outer loop
    vertex 550.6913581143988 -211.235374463545 -72.34318216199297
    vertex 546.7868902446971 -212.085760661899 -72.34315523251648
    vertex 547.6805927834863 -211.545696470464 -72.34316166467725
  endloop
endfacet
facet normal -6.34718195436091e-06 -3.3039806702894393e-07 -0.9999999999798022
  outer loop
    vertex 550.6913581143988 -211.235374463545 -72.34318216199297
    vertex 547.6805927834863 -211.545696470464 -72.34316166467725
    vertex 548.4040642484034 -210.792727282402 -72.34316712803714
  endloop
endfacet
facet normal -6.34718195436091e-06 -3.3039806702894393e-07 -0.9999999999798022
  outer loop
    vertex 550.6913581143988 -211.235374463545 -72.34318216199297
    vertex 548.4040642484034 -210.792727282402 -72.34316712803714
    vertex 551.0485640720627 -209.39380898138745 -72.34317629197808
  endloop
endfacet
facet normal -6.34718195436091e-06 -3.3039806702894393e-07 -0.9999999999798022
  outer loop
    vertex 551.0485640720627 -209.39380898138745 -72.34317629197808
    vertex 548.4040642484034 -210.792727282402 -72.34316712803714
    vertex 548.9080012547074 -209.87816670353905 -72.34317125027722
  endloop
endfacet
facet normal -6.34718195436091e-06 -3.3039806702894393e-07 -0.9999999999798022
  outer loop
    vertex 551.0485640720627 -209.39380898138745 -72.34317629197808
    vertex 548.9080012547074 -209.87816670353905 -72.34317125027722
    vertex 549.1580613282142 -208.86434052594186 -72.34317375047368
  endloop
endfacet
facet normal -6.34718195436091e-06 -3.3039806702894393e-07 -0.9999999999798022
  outer loop
    vertex 551.0485640720627 -209.39380898138745 -72.34317629197808
    vertex 549.1580613282142 -208.86434052594186 -72.34317375047368
    vertex 549.1372032881579 -207.8203393281866 -72.34317445824222
  endloop
endfacet
facet normal -6.34718195436091e-06 -3.3039806702894393e-07 -0.9999999999798022
  outer loop
    vertex 551.0485640720627 -209.39380898138745 -72.34317629197808
    vertex 549.1372032881579 -207.8203393281866 -72.34317445824222
    vertex 548.5972181550935 -201.70888833054565 -72.34317629197812
  endloop
endfacet
facet normal -6.34718195436091e-06 -3.3039806702894393e-07 -0.9999999999798022
  outer loop
    vertex 548.5972181550935 -201.70888833054565 -72.34317629197812
    vertex 549.1372032881579 -207.8203393281866 -72.34317445824222
    vertex 548.8468485754988 -206.81731006660686 -72.34317332534957
  endloop
endfacet
facet normal -6.34718195436091e-06 -3.3039806702894393e-07 -0.9999999999798022
  outer loop
    vertex 548.5972181550935 -201.70888833054565 -72.34317629197812
    vertex 548.8468485754988 -206.81731006660686 -72.34317332534957
    vertex 548.306784384071 -205.92360752779499 -72.34317042900057
  endloop
endfacet
facet normal -6.34718195436091e-06 -3.3039806702894393e-07 -0.9999999999798022
  outer loop
    vertex 548.5972181550935 -201.70888833054565 -72.34317629197812
    vertex 548.306784384071 -205.92360752779499 -72.34317042900057
    vertex 547.5538151960217 -205.2001360628578 -72.3431659665765
  endloop
endfacet
facet normal -6.34718195436091e-06 -3.3039806702894393e-07 -0.9999999999798022
  outer loop
    vertex 548.5972181550935 -201.70888833054565 -72.34317629197812
    vertex 547.5538151960217 -205.2001360628578 -72.3431659665765
    vertex 546.6392546171763 -204.69619905653755 -72.34316024218428
  endloop
endfacet
facet normal -6.34718195436091e-06 -3.3039806702894393e-07 -0.9999999999798022
  outer loop
    vertex 548.5972181550935 -201.70888833054565 -72.34317629197812
    vertex 546.6392546171763 -204.69619905653755 -72.34316024218428
    vertex 545.6254284396002 -204.4461389830198 -72.34315364593174
  endloop
endfacet
facet normal -6.34718195436091e-06 -3.3039806702894393e-07 -0.9999999999798022
  outer loop
    vertex 548.5972181550935 -201.70888833054565 -72.34317629197812
    vertex 545.6254284396002 -204.4461389830198 -72.34315364593174
    vertex 537.2633359669115 -201.70888833054568 -72.34298237997076
  endloop
endfacet
facet normal -6.34718195436091e-06 -3.3039806702894393e-07 -0.9999999999798022
  outer loop
    vertex 548.5972181550935 -201.70888833054565 -72.34317629197812
    vertex 537.2633359669115 -201.70888833054568 -72.34298237997076
    vertex 537.2633359616598 -194.84518172851406 -72.34313585832317
  endloop
endfacet
facet normal -6.34718195436091e-06 -3.3039806702894393e-07 -0.9999999999798022
  outer loop
    vertex 548.5972181550935 -201.70888833054565 -72.34317629197812
    vertex 537.2633359616598 -194.84518172851406 -72.34313585832317
    vertex 548.5972181550935 -200.99888833054564 -72.34317629197812
  endloop
endfacet
facet normal -6.34718195436091e-06 -3.3039806702894393e-07 -0.9999999999798022
  outer loop
    vertex 548.5972181550935 -200.99888833054564 -72.34317629197812
    vertex 537.2633359616598 -194.84518172851406 -72.34313585832317
    vertex 548.5972181550935 -194.80546427075654 -72.34317629197808
  endloop
endfacet
facet normal -6.34718195436091e-06 -3.3039806702894393e-07 -0.9999999999798022
  outer loop
    vertex 548.5972181550935 -194.80546427075654 -72.34317629197808
    vertex 537.2633359616598 -194.84518172851406 -72.34313585832317
    vertex 539.2039582321735 -193.30892289383 -72.34317629197808
  endloop
endfacet
facet normal -6.34718195436091e-06 -3.3039806702894393e-07 -0.9999999999798022
  outer loop
    vertex 548.5972181550935 -194.80546427075654 -72.34317629197808
    vertex 539.2039582321735 -193.30892289383 -72.34317629197808
    vertex 547.100676778167 -193.30892289383 -72.34317629197808
  endloop
endfacet
endsolid compact_holder
