solid compact_holder
facet normal 0.0 1.0 0.0
  outer loop
    vertex 558.282940545033 -267.02228041914424 -53.21948384138118
    vertex 564.92779369444 -267.02228041914424 -56.61948384138118
    vertex 558.282940545033 -267.02228041914424 -56.61948384138118
  endloop
endfacet
facet normal 0.0 1.0 0.0
  outer loop
    vertex 564.92779369444 -267.02228041914424 -56.61948384138118
    vertex 558.282940545033 -267.02228041914424 -53.21948384138118
    vertex 564.92779369444 -267.02228041914424 -53.21948384138118
  endloop
endfacet
facet normal 0.0 1.0 0.0
  outer loop
    vertex 499.4926696761613 -315.6764980060435 -54.61948384138119
    vertex 558.652669676161 -315.6764980060435 -56.6194838413812
    vertex 499.4926696761613 -315.6764980060435 -56.6194838413812
  endloop
endfacet
facet normal 0.0 1.0 0.0
  outer loop
    vertex 558.652669676161 -315.6764980060435 -56.6194838413812
    vertex 499.4926696761613 -315.6764980060435 -54.61948384138119
    vertex 558.652669676161 -315.6764980060435 -54.61948384138119
  endloop
endfacet
facet normal 0.0 -1.0 0.0
  outer loop
    vertex 567.6699024878897 -272.5064980060435 -53.21948384138119
    vertex 564.9913096362413 -272.5064980060435 -54.61948384138119
    vertex 567.6699024878897 -272.5064980060435 -54.619483841381225
  endloop
endfacet
facet normal 0.0 -1.0 0.0
  outer loop
    vertex 564.9913096362413 -272.5064980060435 -54.61948384138119
    vertex 567.6699024878897 -272.5064980060435 -53.21948384138119
    vertex 558.652669676161 -272.5064980060435 -54.61948384138119
  endloop
endfacet
facet normal 0.0 -1.0 0.0
  outer loop
    vertex 558.652669676161 -272.5064980060435 -54.61948384138119
    vertex 567.6699024878897 -272.5064980060435 -53.21948384138119
    vertex 499.4926696761613 -272.5064980060435 -54.61948384138119
  endloop
endfacet
facet normal 0.0 -1.0 0.0
  outer loop
    vertex 499.4926696761613 -272.5064980060435 -54.61948384138119
    vertex 567.6699024878897 -272.5064980060435 -53.21948384138119
    vertex 492.78440844566 -272.5064980060435 -54.61948384138119
  endloop
endfacet
facet normal 0.0 -1.0 0.0
  outer loop
    vertex 492.78440844566 -272.5064980060435 -54.61948384138119
    vertex 567.6699024878897 -272.5064980060435 -53.21948384138119
    vertex 489.3699024878895 -272.5064980060435 -54.61948384138119
  endloop
endfacet
facet normal 0.0 -1.0 0.0
  outer loop
    vertex 489.3699024878895 -272.5064980060435 -54.61948384138119
    vertex 567.6699024878897 -272.5064980060435 -53.21948384138119
    vertex 489.3699024878895 -272.5064980060435 -53.21948384138119
  endloop
endfacet
facet normal 0.0 -1.0 0.0
  outer loop
    vertex 489.3699024878895 -272.5064980060435 -53.21948384138119
    vertex 567.6699024878897 -272.5064980060435 -53.21948384138119
    vertex 558.282940545033 -272.5064980060435 -53.21948384138119
  endloop
endfacet
facet normal 0.0 -1.0 0.0
  outer loop
    vertex 489.3699024878895 -272.5064980060435 -53.21948384138119
    vertex 558.282940545033 -272.5064980060435 -53.21948384138119
    vertex 542.0429405450329 -272.5064980060435 -53.21948384138119
  endloop
endfacet
facet normal 0.0 -1.0 0.0
  outer loop
    vertex 558.652669676161 -272.5064980060435 -54.61948384138119
    vertex 499.4926696761613 -272.5064980060435 -56.6194838413812
    vertex 558.652669676161 -272.5064980060435 -56.6194838413812
  endloop
endfacet
facet normal 0.0 -1.0 0.0
  outer loop
    vertex 499.4926696761613 -272.5064980060435 -56.6194838413812
    vertex 558.652669676161 -272.5064980060435 -54.61948384138119
    vertex 499.4926696761613 -272.5064980060435 -54.61948384138119
  endloop
endfacet
facet normal 2.718344069564185e-16 -1.9888281233421646e-15 1.0
  outer loop
    vertex 567.6699024878897 -272.5064980060435 -53.21948384138119
    vertex 558.282940545033 -270.02228041914424 -53.21948384138118
    vertex 558.282940545033 -272.5064980060435 -53.21948384138119
  endloop
endfacet
facet normal 2.718344069564185e-16 -1.9888281233421646e-15 1.0
  outer loop
    vertex 558.282940545033 -270.02228041914424 -53.21948384138118
    vertex 567.6699024878897 -272.5064980060435 -53.21948384138119
    vertex 558.282940545033 -267.02228041914424 -53.21948384138118
  endloop
endfacet
facet normal 2.718344069564185e-16 -1.9888281233421646e-15 1.0
  outer loop
    vertex 558.282940545033 -267.02228041914424 -53.21948384138118
    vertex 567.6699024878897 -272.5064980060435 -53.21948384138119
    vertex 564.92779369444 -267.02228041914424 -53.21948384138118
  endloop
endfacet
facet normal 2.718344069564185e-16 -1.9888281233421646e-15 1.0
  outer loop
    vertex 564.92779369444 -267.02228041914424 -53.21948384138118
    vertex 567.6699024878897 -272.5064980060435 -53.21948384138119
    vertex 567.6699024878897 -269.76438921259387 -53.21948384138119
  endloop
endfacet
facet normal -1.0 0.0 0.0
  outer loop
    vertex 558.652669676161 -272.5064980060435 -54.61948384138119
    vertex 558.652669676161 -315.6764980060435 -56.6194838413812
    vertex 558.652669676161 -315.6764980060435 -54.61948384138119
  endloop
endfacet
facet normal -1.0 0.0 0.0
  outer loop
    vertex 558.652669676161 -315.6764980060435 -56.6194838413812
    vertex 558.652669676161 -272.5064980060435 -54.61948384138119
    vertex 558.652669676161 -272.5064980060435 -56.6194838413812
  endloop
endfacet
facet normal 1.0 0.0 0.0
  outer loop
    vertex 499.4926696761613 -272.5064980060435 -56.6194838413812
    vertex 499.4926696761613 -315.6764980060435 -54.61948384138119
    vertex 499.4926696761613 -315.6764980060435 -56.6194838413812
  endloop
endfacet
facet normal 1.0 0.0 0.0
  outer loop
    vertex 499.4926696761613 -315.6764980060435 -54.61948384138119
    vertex 499.4926696761613 -272.5064980060435 -56.6194838413812
    vertex 499.4926696761613 -272.5064980060435 -54.61948384138119
  endloop
endfacet
facet normal 2.3459606020810025e-05 -0.9999999818088102 0.0001892934929520255
  outer loop
    vertex 558.282940545033 -372.75606351742516 -56.61948384138118
    vertex 542.0429405450329 -372.75606351742516 -54.619483841381246
    vertex 492.38440844565923 -372.7560635174251 -54.61948384138137
  endloop
endfacet
facet normal 2.3459606020810025e-05 -0.9999999818088102 0.0001892934929520255
  outer loop
    vertex 542.0429405450329 -372.75606351742516 -54.619483841381246
    vertex 558.282940545033 -372.75606351742516 -56.61948384138118
    vertex 558.282940545033 -372.75606351742516 -54.6194838413812
  endloop
endfacet
facet normal 2.3459606020810025e-05 -0.9999999818088102 0.0001892934929520255
  outer loop
    vertex 487.85214280010234 -372.7584735261319 -56.61948384138151
    vertex 492.38440844565923 -372.7560635174251 -54.61948384138137
    vertex 487.85214280010257 -372.7584735261319 -52.569483841381505
  endloop
endfacet
facet normal 2.3459606020810025e-05 -0.9999999818088102 0.0001892934929520255
  outer loop
    vertex 492.38440844565923 -372.7560635174251 -54.61948384138137
    vertex 487.85214280010234 -372.7584735261319 -56.61948384138151
    vertex 558.282940545033 -372.75606351742516 -56.61948384138118
  endloop
endfacet
facet normal 2.3459606020810025e-05 -0.9999999818088102 0.0001892934929520255
  outer loop
    vertex 487.85214280010257 -372.7584735261319 -52.569483841381505
    vertex 492.38440844565923 -372.7560635174251 -54.61948384138137
    vertex 492.3844084456594 -372.7560635174251 -52.56948384138134
  endloop
endfacet
facet normal 1.3535839116229901e-14 -1.0 -2.0303758674344852e-13
  outer loop
    vertex 559.4136310194993 -319.9160635174237 -54.61948384138119
    vertex 541.1813096362412 -319.9160635174237 -56.61948384138118
    vertex 559.4136310194993 -319.9160635174237 -56.61948384138118
  endloop
endfacet
facet normal 1.3535839116229901e-14 -1.0 -2.0303758674344852e-13
  outer loop
    vertex 541.1813096362412 -319.9160635174237 -56.61948384138118
    vertex 559.4136310194993 -319.9160635174237 -54.61948384138119
    vertex 541.1813096362412 -319.9160635174245 -54.61948384138119
  endloop
endfacet
facet normal -6.0433766322976795e-15 -1.0 -2.0304257181890354e-13
  outer loop
    vertex 541.1813096362412 -321.9160635174245 -54.619483841381594
    vertex 496.3852807844436 -321.9160635174237 -56.61948384138159
    vertex 541.1813096362412 -321.9160635174237 -56.61948384138159
  endloop
endfacet
facet normal -6.0433766322976795e-15 -1.0 -2.0304257181890354e-13
  outer loop
    vertex 496.3852807844436 -321.9160635174237 -56.61948384138159
    vertex 541.1813096362412 -321.9160635174245 -54.619483841381594
    vertex 496.381981254556 -321.9160635174237 -54.619483841381594
  endloop
endfacet
facet normal 1.0 -6.0433766322976795e-15 -2.4540652144069404e-27
  outer loop
    vertex 541.1813096362412 -321.9160635174237 -56.61948384138159
    vertex 541.1813096362412 -319.9160635174245 -54.61948384138119
    vertex 541.1813096362412 -321.9160635174245 -54.619483841381594
  endloop
endfacet
facet normal 1.0 -6.0433766322976795e-15 -2.4540652144069404e-27
  outer loop
    vertex 541.1813096362412 -319.9160635174245 -54.61948384138119
    vertex 541.1813096362412 -321.9160635174237 -56.61948384138159
    vertex 541.1813096362412 -319.9160635174237 -56.61948384138118
  endloop
endfacet
facet normal -1.0 2.284624324291773e-15 -5.039654317913375e-14
  outer loop
    vertex 492.78440844566 -277.5064980060435 -54.61948384138119
    vertex 492.78440844566 -342.0660167886467 -56.61948384138133
    vertex 492.78440844565966 -342.0660167886467 -54.61948384138119
  endloop
endfacet
facet normal -1.0 2.284624324291773e-15 -5.039654317913375e-14
  outer loop
    vertex 492.78440844566 -342.0660167886467 -56.61948384138133
    vertex 492.78440844566 -277.5064980060435 -54.61948384138119
    vertex 492.78440844566 -277.5064980060435 -56.619483841381204
  endloop
endfacet
facet normal 0.7232940045782225 -0.6905402109516856 1.6303556202720318e-14
  outer loop
    vertex 496.3852807844436 -342.64632716506304 -56.61948384138141
    vertex 493.93386303556497 -345.2140208813157 -54.619483841381324
    vertex 493.9338630355651 -345.2140208813157 -56.61948384138137
  endloop
endfacet
facet normal 0.7232940045782225 -0.6905402109516856 1.6303556202720318e-14
  outer loop
    vertex 493.93386303556497 -345.2140208813157 -54.619483841381324
    vertex 496.3852807844436 -342.64632716506304 -56.61948384138141
    vertex 496.38528078444347 -342.64632716506304 -54.61948384138137
  endloop
endfacet
facet normal 0.9999996566179483 7.958241174805333e-05 0.0008248821886485259
  outer loop
    vertex 496.3852807844436 -321.9160635174237 -56.61948384138159
    vertex 496.38528078444347 -342.64632716506304 -54.61948384138137
    vertex 496.3852807844436 -342.64632716506304 -56.61948384138141
  endloop
endfacet
facet normal 0.9999996566179483 7.958241174805333e-05 0.0008248821886485259
  outer loop
    vertex 496.38528078444347 -342.64632716506304 -54.61948384138137
    vertex 496.3852807844436 -321.9160635174237 -56.61948384138159
    vertex 496.381981254556 -321.9160635174237 -54.619483841381594
  endloop
endfacet
facet normal -0.8440590285534757 0.5362502739555133 -6.665873614778439e-14
  outer loop
    vertex 492.78440844565966 -342.0660167886467 -54.61948384138119
    vertex 490.78440844566 -345.2140208813157 -56.61948384138132
    vertex 490.78440844566 -345.2140208813157 -54.61948384138125
  endloop
endfacet
facet normal -0.8440590285534757 0.5362502739555133 -6.665873614778439e-14
  outer loop
    vertex 490.78440844566 -345.2140208813157 -56.61948384138132
    vertex 492.78440844565966 -342.0660167886467 -54.61948384138119
    vertex 492.78440844566 -342.0660167886467 -56.61948384138133
  endloop
endfacet
facet normal 1.0 5.598345448655614e-29 2.2559731860382615e-14
  outer loop
    vertex 493.9338630355651 -345.2140208813157 -56.61948384138137
    vertex 493.93386303556497 -354.86443594194174 -54.6194838413813
    vertex 493.9338630355651 -354.86443594194174 -56.61948384138135
  endloop
endfacet
facet normal 1.0 5.598345448655614e-29 2.2559731860382615e-14
  outer loop
    vertex 493.93386303556497 -354.86443594194174 -54.6194838413813
    vertex 493.9338630355651 -345.2140208813157 -56.61948384138137
    vertex 493.93386303556497 -345.2140208813157 -54.619483841381324
  endloop
endfacet
facet normal 1.0 -3.86627203324152e-14 1.1279865930196164e-14
  outer loop
    vertex 496.38363101949983 -357.6625447532311 -56.61948384138179
    vertex 496.3836310194993 -369.91606351742536 -54.61948384138144
    vertex 496.3836310194995 -369.91606351742536 -56.61948384138177
  endloop
endfacet
facet normal 1.0 -3.86627203324152e-14 1.1279865930196164e-14
  outer loop
    vertex 496.3836310194993 -369.91606351742536 -54.61948384138144
    vertex 496.38363101949983 -357.6625447532311 -56.61948384138179
    vertex 496.38363101949994 -357.6625447532311 -54.61948384138175
  endloop
endfacet
facet normal 0.7523870705376565 0.6587212582631318 -1.6974568647607614e-14
  outer loop
    vertex 493.9338630355651 -354.86443594194174 -56.61948384138135
    vertex 496.38363101949994 -357.6625447532311 -54.61948384138175
    vertex 496.38363101949983 -357.6625447532311 -56.61948384138179
  endloop
endfacet
facet normal 0.7523870705376565 0.6587212582631318 -1.6974568647607614e-14
  outer loop
    vertex 496.38363101949994 -357.6625447532311 -54.61948384138175
    vertex 493.9338630355651 -354.86443594194174 -56.61948384138135
    vertex 493.93386303556497 -354.86443594194174 -54.6194838413813
  endloop
endfacet
facet normal 0.0 1.0 0.0
  outer loop
    vertex 496.3836310194993 -369.91606351742536 -54.61948384138144
    vertex 559.4136310194984 -369.91606351742536 -56.61948384137041
    vertex 496.3836310194995 -369.91606351742536 -56.61948384138177
  endloop
endfacet
facet normal 0.0 1.0 0.0
  outer loop
    vertex 559.4136310194984 -369.91606351742536 -56.61948384137041
    vertex 496.3836310194993 -369.91606351742536 -54.61948384138144
    vertex 559.4136310194983 -369.91606351742536 -54.61948384137008
  endloop
endfacet
facet normal 0.4732691951500675 0.8809178559445865 -1.0434429136729572e-17
  outer loop
    vertex 563.8920018108108 -362.55434974258634 -54.619483841381175
    vertex 567.6699024878901 -364.58401005737363 -56.61948384138118
    vertex 563.8920018108108 -362.55434974258634 -56.61948384138118
  endloop
endfacet
facet normal 0.4732691951500675 0.8809178559445865 -1.0434429136729572e-17
  outer loop
    vertex 567.6699024878901 -364.58401005737363 -56.61948384138118
    vertex 563.8920018108108 -362.55434974258634 -54.619483841381175
    vertex 567.6699024878901 -364.58401005737363 -53.21948384138119
  endloop
endfacet
facet normal 0.4732691951500675 0.8809178559445865 -1.0434429136729572e-17
  outer loop
    vertex 567.6699024878901 -364.58401005737363 -53.21948384138119
    vertex 563.8920018108108 -362.55434974258634 -54.619483841381175
    vertex 563.8920018108108 -362.55434974258634 -53.21948384138118
  endloop
endfacet
facet normal 1.0 0.0 0.0
  outer loop
    vertex 563.8920018108108 -326.65434974258636 -56.61948384138118
    vertex 563.8920018108108 -362.55434974258634 -54.619483841381175
    vertex 563.8920018108108 -362.55434974258634 -56.61948384138118
  endloop
endfacet
facet normal 1.0 0.0 0.0
  outer loop
    vertex 563.8920018108108 -362.55434974258634 -54.619483841381175
    vertex 563.8920018108108 -326.65434974258636 -56.61948384138118
    vertex 563.8920018108108 -326.65434974258636 -54.619483841381175
  endloop
endfacet
facet normal 0.599621556046113 -0.8002836931518962 -3.1049506415684705e-17
  outer loop
    vertex 567.581309636241 -323.8900943692137 -54.61948384138119
    vertex 563.8920018108108 -326.65434974258636 -56.61948384138118
    vertex 567.581309636241 -323.8900943692137 -56.61948384138118
  endloop
endfacet
facet normal 0.599621556046113 -0.8002836931518962 -3.1049506415684705e-17
  outer loop
    vertex 563.8920018108108 -326.65434974258636 -56.61948384138118
    vertex 567.581309636241 -323.8900943692137 -54.61948384138119
    vertex 563.8920018108108 -326.65434974258636 -54.619483841381175
  endloop
endfacet
facet normal 1.0 0.0 0.0
  outer loop
    vertex 567.6699024878901 -364.58401005737363 -56.61948384138118
    vertex 567.6699024878901 -370.8717664709438 -53.21948384138118
    vertex 567.6699024878901 -370.8717664709438 -56.61948384138118
  endloop
endfacet
facet normal 1.0 0.0 0.0
  outer loop
    vertex 567.6699024878901 -370.8717664709438 -53.21948384138118
    vertex 567.6699024878901 -364.58401005737363 -56.61948384138118
    vertex 567.6699024878901 -364.58401005737363 -53.21948384138119
  endloop
endfacet
facet normal -6.195048120268492e-16 -2.939373082746864e-16 1.0
  outer loop
    vertex 565.4171554667747 -372.75606351742516 -53.21948384138119
    vertex 563.1644084456592 -362.55434974258634 -53.21948384138119
    vertex 563.1644084456592 -372.75606351742516 -53.21948384138119
  endloop
endfacet
facet normal -6.195048120268492e-16 -2.939373082746864e-16 1.0
  outer loop
    vertex 563.1644084456592 -362.55434974258634 -53.21948384138119
    vertex 565.4171554667747 -372.75606351742516 -53.21948384138119
    vertex 563.8920018108108 -362.55434974258634 -53.21948384138118
  endloop
endfacet
facet normal -6.195048120268492e-16 -2.939373082746864e-16 1.0
  outer loop
    vertex 563.8920018108108 -362.55434974258634 -53.21948384138118
    vertex 565.4171554667747 -372.75606351742516 -53.21948384138119
    vertex 567.6699024878901 -364.58401005737363 -53.21948384138119
  endloop
endfacet
facet normal -6.195048120268492e-16 -2.939373082746864e-16 1.0
  outer loop
    vertex 567.6699024878901 -364.58401005737363 -53.21948384138119
    vertex 565.4171554667747 -372.75606351742516 -53.21948384138119
    vertex 567.6699024878901 -370.8717664709438 -53.21948384138118
  endloop
endfacet
facet normal -2.4558193050710003e-30 1.0 2.7559083061460183e-16
  outer loop
    vertex 563.1644084456592 -362.55434974258634 -53.21948384138119
    vertex 563.8920018108108 -362.55434974258634 -54.619483841381175
    vertex 563.1644084456592 -362.55434974258634 -54.61948384138119
  endloop
endfacet
facet normal -2.4558193050710003e-30 1.0 2.7559083061460183e-16
  outer loop
    vertex 563.8920018108108 -362.55434974258634 -54.619483841381175
    vertex 563.1644084456592 -362.55434974258634 -53.21948384138119
    vertex 563.8920018108108 -362.55434974258634 -53.21948384138118
  endloop
endfacet
facet normal -1.0 -0.0 -7.598664409151593e-16
  outer loop
    vertex 563.1644084456592 -362.55434974258634 -53.21948384138119
    vertex 563.1644084456592 -372.75606351742516 -54.61948384138119
    vertex 563.1644084456592 -372.75606351742516 -53.21948384138119
  endloop
endfacet
facet normal -1.0 -0.0 -7.598664409151593e-16
  outer loop
    vertex 563.1644084456592 -372.75606351742516 -54.61948384138119
    vertex 563.1644084456592 -362.55434974258634 -53.21948384138119
    vertex 563.1644084456592 -362.55434974258634 -54.61948384138119
  endloop
endfacet
facet normal -0.9999969761814088 -0.0024591925583479605 -4.734503952295898e-19
  outer loop
    vertex 490.78440844566 -345.2140208813157 -54.61948384138125
    vertex 490.83292671131494 -364.9433091713905 -56.61948384138143
    vertex 490.83292671131494 -364.9433091713905 -54.619483841381445
  endloop
endfacet
facet normal -0.9999969761814088 -0.0024591925583479605 -4.734503952295898e-19
  outer loop
    vertex 490.83292671131494 -364.9433091713905 -56.61948384138143
    vertex 490.78440844566 -345.2140208813157 -54.61948384138125
    vertex 490.78440844566 -345.2140208813157 -56.61948384138132
  endloop
endfacet
facet normal -0.35015654712865135 0.9366911937789 1.1731684477315161e-14
  outer loop
    vertex 487.83567913290807 -366.0637487249116 -52.56948384138144
    vertex 490.83292671131494 -364.9433091713905 -56.61948384138143
    vertex 487.8356791329079 -366.0637487249116 -56.61948384138148
  endloop
endfacet
facet normal -0.35015654712865135 0.9366911937789 1.1731684477315161e-14
  outer loop
    vertex 490.83292671131494 -364.9433091713905 -56.61948384138143
    vertex 487.83567913290807 -366.0637487249116 -52.56948384138144
    vertex 490.83292671131494 -364.9433091713905 -54.619483841381445
  endloop
endfacet
facet normal -0.35015654712865135 0.9366911937789 1.1731684477315161e-14
  outer loop
    vertex 490.83292671131494 -364.9433091713905 -54.619483841381445
    vertex 487.83567913290807 -366.0637487249116 -52.56948384138144
    vertex 490.8329267113151 -364.9433091713905 -52.56948384138143
  endloop
endfacet
facet normal -2.4107624620254025e-14 -1.4312941865113797e-15 1.0
  outer loop
    vertex 487.85214280010257 -372.7584735261319 -52.569483841381505
    vertex 490.8329267113151 -364.9433091713905 -52.56948384138143
    vertex 487.83567913290807 -366.0637487249116 -52.56948384138144
  endloop
endfacet
facet normal -2.4107624620254025e-14 -1.4312941865113797e-15 1.0
  outer loop
    vertex 490.8329267113151 -364.9433091713905 -52.56948384138143
    vertex 487.85214280010257 -372.7584735261319 -52.569483841381505
    vertex 492.3844084456594 -372.7560635174251 -52.56948384138134
  endloop
endfacet
facet normal -2.4107624620254025e-14 -1.4312941865113797e-15 1.0
  outer loop
    vertex 490.8329267113151 -364.9433091713905 -52.56948384138143
    vertex 492.3844084456594 -372.7560635174251 -52.56948384138134
    vertex 492.3844084456594 -364.9433091713905 -52.56948384138133
  endloop
endfacet
facet normal -2.3558107154751135e-28 1.0 3.4686707586355064e-15
  outer loop
    vertex 490.8329267113151 -364.9433091713905 -52.56948384138143
    vertex 492.38440844565923 -364.9433091713905 -54.619483841381346
    vertex 490.83292671131494 -364.9433091713905 -54.619483841381445
  endloop
endfacet
facet normal -2.3558107154751135e-28 1.0 3.4686707586355064e-15
  outer loop
    vertex 492.38440844565923 -364.9433091713905 -54.619483841381346
    vertex 490.8329267113151 -364.9433091713905 -52.56948384138143
    vertex 492.3844084456594 -364.9433091713905 -52.56948384138133
  endloop
endfacet
facet normal 1.0 6.147892485949187e-15 -6.602848349380422e-14
  outer loop
    vertex 492.38440844565923 -364.9433091713905 -54.619483841381346
    vertex 492.3844084456594 -372.7560635174251 -52.56948384138134
    vertex 492.38440844565923 -372.7560635174251 -54.61948384138137
  endloop
endfacet
facet normal 1.0 6.147892485949187e-15 -6.602848349380422e-14
  outer loop
    vertex 492.3844084456594 -372.7560635174251 -52.56948384138134
    vertex 492.38440844565923 -364.9433091713905 -54.619483841381346
    vertex 492.3844084456594 -364.9433091713905 -52.56948384138133
  endloop
endfacet
facet normal -0.9999969761814088 -0.002459192558348652 3.342186971400164e-14
  outer loop
    vertex 487.83567913290807 -366.0637487249116 -52.56948384138144
    vertex 487.85214280010234 -372.7584735261319 -56.61948384138151
    vertex 487.85214280010257 -372.7584735261319 -52.569483841381505
  endloop
endfacet
facet normal -0.9999969761814088 -0.002459192558348652 3.342186971400164e-14
  outer loop
    vertex 487.85214280010234 -372.7584735261319 -56.61948384138151
    vertex 487.83567913290807 -366.0637487249116 -52.56948384138144
    vertex 487.8356791329079 -366.0637487249116 -56.61948384138148
  endloop
endfacet
facet normal -1.0 0.0 0.0
  outer loop
    vertex 489.3699024878895 -268.9611575773157 -53.21948384138119
    vertex 489.3699024878895 -272.5064980060435 -54.61948384138119
    vertex 489.3699024878895 -272.5064980060435 -53.21948384138119
  endloop
endfacet
facet normal -1.0 0.0 0.0
  outer loop
    vertex 489.3699024878895 -272.5064980060435 -54.61948384138119
    vertex 489.3699024878895 -276.0962314462114 -56.6194838413812
    vertex 489.3699024878895 -276.0962314462114 -54.61948384138119
  endloop
endfacet
facet normal -1.0 0.0 0.0
  outer loop
    vertex 489.3699024878895 -276.0962314462114 -56.6194838413812
    vertex 489.3699024878895 -272.5064980060435 -54.61948384138119
    vertex 489.3699024878895 -268.9611575773157 -56.61948384138118
  endloop
endfacet
facet normal -1.0 0.0 0.0
  outer loop
    vertex 489.3699024878895 -268.9611575773157 -56.61948384138118
    vertex 489.3699024878895 -272.5064980060435 -54.61948384138119
    vertex 489.3699024878895 -268.9611575773157 -53.21948384138119
  endloop
endfacet
facet normal 1.0 0.0 0.0
  outer loop
    vertex 567.581309636241 -318.29497721623903 -56.619483841380124
    vertex 567.581309636241 -323.8900943692137 -54.61948384138119
    vertex 567.581309636241 -323.8900943692137 -56.61948384138118
  endloop
endfacet
facet normal 1.0 0.0 0.0
  outer loop
    vertex 567.581309636241 -323.8900943692137 -54.61948384138119
    vertex 567.581309636241 -318.29497721623903 -56.619483841380124
    vertex 567.581309636241 -318.29497721623903 -54.61948384138068
  endloop
endfacet
facet normal 1.0 0.0 0.0
  outer loop
    vertex 567.6699024878897 -269.76438921259387 -56.61948384138118
    vertex 567.6699024878897 -276.0962314462114 -54.619483841381225
    vertex 567.6699024878897 -276.0962314462114 -56.61948384138115
  endloop
endfacet
facet normal 1.0 0.0 0.0
  outer loop
    vertex 567.6699024878897 -276.0962314462114 -54.619483841381225
    vertex 567.6699024878897 -269.76438921259387 -56.61948384138118
    vertex 567.6699024878897 -272.5064980060435 -54.619483841381225
  endloop
endfacet
facet normal 1.0 0.0 0.0
  outer loop
    vertex 567.6699024878897 -272.5064980060435 -54.619483841381225
    vertex 567.6699024878897 -269.76438921259387 -56.61948384138118
    vertex 567.6699024878897 -272.5064980060435 -53.21948384138119
  endloop
endfacet
facet normal 1.0 0.0 0.0
  outer loop
    vertex 567.6699024878897 -272.5064980060435 -53.21948384138119
    vertex 567.6699024878897 -269.76438921259387 -56.61948384138118
    vertex 567.6699024878897 -269.76438921259387 -53.21948384138119
  endloop
endfacet
facet normal 1.8738135769797765e-14 -1.3903686575296775e-14 -1.0
  outer loop
    vertex 558.652669676161 -315.6764980060435 -56.6194838413812
    vertex 541.1813096362412 -319.9160635174237 -56.61948384138118
    vertex 499.4926696761613 -315.6764980060435 -56.6194838413812
  endloop
endfacet
facet normal 1.8738135769797765e-14 -1.3903686575296775e-14 -1.0
  outer loop
    vertex 541.1813096362412 -319.9160635174237 -56.61948384138118
    vertex 558.652669676161 -315.6764980060435 -56.6194838413812
    vertex 559.4136310194993 -319.9160635174237 -56.61948384138118
  endloop
endfacet
facet normal 1.8738135769797765e-14 -1.3903686575296775e-14 -1.0
  outer loop
    vertex 496.3852807844436 -321.9160635174237 -56.61948384138159
    vertex 499.4926696761613 -315.6764980060435 -56.6194838413812
    vertex 541.1813096362412 -321.9160635174237 -56.61948384138159
  endloop
endfacet
facet normal 1.8738135769797765e-14 -1.3903686575296775e-14 -1.0
  outer loop
    vertex 499.4926696761613 -315.6764980060435 -56.6194838413812
    vertex 496.3852807844436 -321.9160635174237 -56.61948384138159
    vertex 499.4926696761613 -272.5064980060435 -56.6194838413812
  endloop
endfacet
facet normal 1.8738135769797765e-14 -1.3903686575296775e-14 -1.0
  outer loop
    vertex 541.1813096362412 -321.9160635174237 -56.61948384138159
    vertex 499.4926696761613 -315.6764980060435 -56.6194838413812
    vertex 541.1813096362412 -319.9160635174237 -56.61948384138118
  endloop
endfacet
facet normal 1.8738135769797765e-14 -1.3903686575296775e-14 -1.0
  outer loop
    vertex 492.78440844566 -342.0660167886467 -56.61948384138133
    vertex 490.83292671131494 -364.9433091713905 -56.61948384138143
    vertex 490.78440844566 -345.2140208813157 -56.61948384138132
  endloop
endfacet
facet normal 1.8738135769797765e-14 -1.3903686575296775e-14 -1.0
  outer loop
    vertex 496.38363101949983 -357.6625447532311 -56.61948384138179
    vertex 496.3836310194995 -369.91606351742536 -56.61948384138177
    vertex 493.9338630355651 -354.86443594194174 -56.61948384138135
  endloop
endfacet
facet normal 1.8738135769797765e-14 -1.3903686575296775e-14 -1.0
  outer loop
    vertex 490.83292671131494 -364.9433091713905 -56.61948384138143
    vertex 487.85214280010234 -372.7584735261319 -56.61948384138151
    vertex 487.8356791329079 -366.0637487249116 -56.61948384138148
  endloop
endfacet
facet normal 1.8738135769797765e-14 -1.3903686575296775e-14 -1.0
  outer loop
    vertex 487.85214280010234 -372.7584735261319 -56.61948384138151
    vertex 490.83292671131494 -364.9433091713905 -56.61948384138143
    vertex 496.3836310194995 -369.91606351742536 -56.61948384138177
  endloop
endfacet
facet normal 1.8738135769797765e-14 -1.3903686575296775e-14 -1.0
  outer loop
    vertex 487.85214280010234 -372.7584735261319 -56.61948384138151
    vertex 496.3836310194995 -369.91606351742536 -56.61948384138177
    vertex 558.282940545033 -372.75606351742516 -56.61948384138118
  endloop
endfacet
facet normal 1.8738135769797765e-14 -1.3903686575296775e-14 -1.0
  outer loop
    vertex 496.3836310194995 -369.91606351742536 -56.61948384138177
    vertex 490.83292671131494 -364.9433091713905 -56.61948384138143
    vertex 493.9338630355651 -354.86443594194174 -56.61948384138135
  endloop
endfacet
facet normal 1.8738135769797765e-14 -1.3903686575296775e-14 -1.0
  outer loop
    vertex 493.9338630355651 -354.86443594194174 -56.61948384138135
    vertex 490.83292671131494 -364.9433091713905 -56.61948384138143
    vertex 492.78440844566 -342.0660167886467 -56.61948384138133
  endloop
endfacet
facet normal 1.8738135769797765e-14 -1.3903686575296775e-14 -1.0
  outer loop
    vertex 493.9338630355651 -354.86443594194174 -56.61948384138135
    vertex 492.78440844566 -342.0660167886467 -56.61948384138133
    vertex 493.9338630355651 -345.2140208813157 -56.61948384138137
  endloop
endfacet
facet normal 1.8738135769797765e-14 -1.3903686575296775e-14 -1.0
  outer loop
    vertex 558.282940545033 -372.75606351742516 -56.61948384138118
    vertex 496.3836310194995 -369.91606351742536 -56.61948384138177
    vertex 559.4136310194984 -369.91606351742536 -56.61948384137041
  endloop
endfacet
facet normal 1.8738135769797765e-14 -1.3903686575296775e-14 -1.0
  outer loop
    vertex 558.282940545033 -372.75606351742516 -56.61948384138118
    vertex 559.4136310194984 -369.91606351742536 -56.61948384137041
    vertex 559.4136310194993 -372.75606351742516 -56.61948384138118
  endloop
endfacet
facet normal 1.8738135769797765e-14 -1.3903686575296775e-14 -1.0
  outer loop
    vertex 567.6699024878897 -269.76438921259387 -56.61948384138118
    vertex 564.9913096362413 -277.5064980060435 -56.61948384138105
    vertex 564.92779369444 -267.02228041914424 -56.61948384138118
  endloop
endfacet
facet normal 1.8738135769797765e-14 -1.3903686575296775e-14 -1.0
  outer loop
    vertex 564.9913096362413 -277.5064980060435 -56.61948384138105
    vertex 567.6699024878897 -269.76438921259387 -56.61948384138118
    vertex 567.6699024878897 -276.0962314462114 -56.61948384138115
  endloop
endfacet
facet normal 1.8738135769797765e-14 -1.3903686575296775e-14 -1.0
  outer loop
    vertex 491.30877964606094 -267.02228041914424 -56.61948384138118
    vertex 489.3699024878895 -276.0962314462114 -56.6194838413812
    vertex 489.3699024878895 -268.9611575773157 -56.61948384138118
  endloop
endfacet
facet normal 1.8738135769797765e-14 -1.3903686575296775e-14 -1.0
  outer loop
    vertex 489.3699024878895 -276.0962314462114 -56.6194838413812
    vertex 491.30877964606094 -267.02228041914424 -56.61948384138118
    vertex 492.78440844566 -277.5064980060435 -56.619483841381204
  endloop
endfacet
facet normal 1.8738135769797765e-14 -1.3903686575296775e-14 -1.0
  outer loop
    vertex 492.78440844566 -277.5064980060435 -56.619483841381204
    vertex 491.30877964606094 -267.02228041914424 -56.61948384138118
    vertex 499.4926696761613 -272.5064980060435 -56.6194838413812
  endloop
endfacet
facet normal 1.8738135769797765e-14 -1.3903686575296775e-14 -1.0
  outer loop
    vertex 499.4926696761613 -272.5064980060435 -56.6194838413812
    vertex 491.30877964606094 -267.02228041914424 -56.61948384138118
    vertex 542.0429405450329 -267.02228041914424 -56.61948384138118
  endloop
endfacet
facet normal 1.8738135769797765e-14 -1.3903686575296775e-14 -1.0
  outer loop
    vertex 492.78440844566 -277.5064980060435 -56.619483841381204
    vertex 499.4926696761613 -272.5064980060435 -56.6194838413812
    vertex 492.78440844566 -342.0660167886467 -56.61948384138133
  endloop
endfacet
facet normal 1.8738135769797765e-14 -1.3903686575296775e-14 -1.0
  outer loop
    vertex 492.78440844566 -342.0660167886467 -56.61948384138133
    vertex 499.4926696761613 -272.5064980060435 -56.6194838413812
    vertex 493.9338630355651 -345.2140208813157 -56.61948384138137
  endloop
endfacet
facet normal 1.8738135769797765e-14 -1.3903686575296775e-14 -1.0
  outer loop
    vertex 493.9338630355651 -345.2140208813157 -56.61948384138137
    vertex 499.4926696761613 -272.5064980060435 -56.6194838413812
    vertex 496.3852807844436 -321.9160635174237 -56.61948384138159
  endloop
endfacet
facet normal 1.8738135769797765e-14 -1.3903686575296775e-14 -1.0
  outer loop
    vertex 499.4926696761613 -272.5064980060435 -56.6194838413812
    vertex 542.0429405450329 -267.02228041914424 -56.61948384138118
    vertex 558.652669676161 -272.5064980060435 -56.6194838413812
  endloop
endfacet
facet normal 1.8738135769797765e-14 -1.3903686575296775e-14 -1.0
  outer loop
    vertex 558.652669676161 -272.5064980060435 -56.6194838413812
    vertex 542.0429405450329 -267.02228041914424 -56.61948384138118
    vertex 558.282940545033 -267.02228041914424 -56.61948384138118
  endloop
endfacet
facet normal 1.8738135769797765e-14 -1.3903686575296775e-14 -1.0
  outer loop
    vertex 558.652669676161 -272.5064980060435 -56.6194838413812
    vertex 558.282940545033 -267.02228041914424 -56.61948384138118
    vertex 564.92779369444 -267.02228041914424 -56.61948384138118
  endloop
endfacet
facet normal 1.8738135769797765e-14 -1.3903686575296775e-14 -1.0
  outer loop
    vertex 558.652669676161 -272.5064980060435 -56.6194838413812
    vertex 564.92779369444 -267.02228041914424 -56.61948384138118
    vertex 558.652669676161 -315.6764980060435 -56.6194838413812
  endloop
endfacet
facet normal 1.8738135769797765e-14 -1.3903686575296775e-14 -1.0
  outer loop
    vertex 558.652669676161 -315.6764980060435 -56.6194838413812
    vertex 564.92779369444 -267.02228041914424 -56.61948384138118
    vertex 559.4136310194993 -319.9160635174237 -56.61948384138118
  endloop
endfacet
facet normal 1.8738135769797765e-14 -1.3903686575296775e-14 -1.0
  outer loop
    vertex 559.4136310194993 -319.9160635174237 -56.61948384138118
    vertex 564.92779369444 -267.02228041914424 -56.61948384138118
    vertex 559.4136310194993 -372.75606351742516 -56.61948384138118
  endloop
endfacet
facet normal 1.8738135769797765e-14 -1.3903686575296775e-14 -1.0
  outer loop
    vertex 559.4136310194993 -372.75606351742516 -56.61948384138118
    vertex 564.92779369444 -267.02228041914424 -56.61948384138118
    vertex 563.8920018108108 -326.65434974258636 -56.61948384138118
  endloop
endfacet
facet normal 1.8738135769797765e-14 -1.3903686575296775e-14 -1.0
  outer loop
    vertex 563.8920018108108 -326.65434974258636 -56.61948384138118
    vertex 564.92779369444 -267.02228041914424 -56.61948384138118
    vertex 564.9913096362413 -317.00480049732886 -56.61948384138001
  endloop
endfacet
facet normal 1.8738135769797765e-14 -1.3903686575296775e-14 -1.0
  outer loop
    vertex 563.8920018108108 -326.65434974258636 -56.61948384138118
    vertex 564.9913096362413 -317.00480049732886 -56.61948384138001
    vertex 567.581309636241 -323.8900943692137 -56.61948384138118
  endloop
endfacet
facet normal 1.8738135769797765e-14 -1.3903686575296775e-14 -1.0
  outer loop
    vertex 564.9913096362413 -317.00480049732886 -56.61948384138001
    vertex 564.92779369444 -267.02228041914424 -56.61948384138118
    vertex 564.9913096362413 -277.5064980060435 -56.61948384138105
  endloop
endfacet
facet normal 1.8738135769797765e-14 -1.3903686575296775e-14 -1.0
  outer loop
    vertex 567.581309636241 -323.8900943692137 -56.61948384138118
    vertex 564.9913096362413 -317.00480049732886 -56.61948384138001
    vertex 567.581309636241 -318.29497721623903 -56.619483841380124
  endloop
endfacet
facet normal 1.8738135769797765e-14 -1.3903686575296775e-14 -1.0
  outer loop
    vertex 559.4136310194993 -372.75606351742516 -56.61948384138118
    vertex 563.8920018108108 -362.55434974258634 -56.61948384138118
    vertex 565.4171554667747 -372.75606351742516 -56.61948384138118
  endloop
endfacet
facet normal 1.8738135769797765e-14 -1.3903686575296775e-14 -1.0
  outer loop
    vertex 563.8920018108108 -362.55434974258634 -56.61948384138118
    vertex 559.4136310194993 -372.75606351742516 -56.61948384138118
    vertex 563.8920018108108 -326.65434974258636 -56.61948384138118
  endloop
endfacet
facet normal 1.8738135769797765e-14 -1.3903686575296775e-14 -1.0
  outer loop
    vertex 565.4171554667747 -372.75606351742516 -56.61948384138118
    vertex 563.8920018108108 -362.55434974258634 -56.61948384138118
    vertex 567.6699024878901 -364.58401005737363 -56.61948384138118
  endloop
endfacet
facet normal 1.8738135769797765e-14 -1.3903686575296775e-14 -1.0
  outer loop
    vertex 565.4171554667747 -372.75606351742516 -56.61948384138118
    vertex 567.6699024878901 -364.58401005737363 -56.61948384138118
    vertex 567.6699024878901 -370.8717664709438 -56.61948384138118
  endloop
endfacet
facet normal 1.8738135769797765e-14 -1.3903686575296775e-14 -1.0
  outer loop
    vertex 559.4136310194993 -372.75606351742516 -56.61948384138118
    vertex 559.4136310194984 -369.91606351742536 -56.61948384137041
    vertex 559.4136310194993 -319.9160635174237 -56.61948384138118
  endloop
endfacet
facet normal 1.8738135769797765e-14 -1.3903686575296775e-14 -1.0
  outer loop
    vertex 496.3852807844436 -342.64632716506304 -56.61948384138141
    vertex 493.9338630355651 -345.2140208813157 -56.61948384138137
    vertex 496.3852807844436 -321.9160635174237 -56.61948384138159
  endloop
endfacet
facet normal 0.445879574146616 0.8950929590600254 -6.366461393327036e-17
  outer loop
    vertex 564.9913096362413 -317.00480049732886 -56.61948384138001
    vertex 567.581309636241 -318.29497721623903 -54.61948384138068
    vertex 567.581309636241 -318.29497721623903 -56.619483841380124
  endloop
endfacet
facet normal 0.445879574146616 0.8950929590600254 -6.366461393327036e-17
  outer loop
    vertex 567.581309636241 -318.29497721623903 -54.61948384138068
    vertex 564.9913096362413 -317.00480049732886 -56.61948384138001
    vertex 564.9913096362413 -317.00480049732886 -54.61948384138056
  endloop
endfacet
facet normal 0.6415915342711875 -0.767046480437492 -2.2987814795348623e-17
  outer loop
    vertex 567.6699024878901 -370.8717664709438 -53.21948384138118
    vertex 565.4171554667747 -372.75606351742516 -56.61948384138118
    vertex 567.6699024878901 -370.8717664709438 -56.61948384138118
  endloop
endfacet
facet normal 0.6415915342711875 -0.767046480437492 -2.2987814795348623e-17
  outer loop
    vertex 565.4171554667747 -372.75606351742516 -56.61948384138118
    vertex 567.6699024878901 -370.8717664709438 -53.21948384138118
    vertex 565.4171554667747 -372.75606351742516 -53.21948384138119
  endloop
endfacet
facet normal 0.7071067811865476 0.7071067811865476 0.0
  outer loop
    vertex 564.92779369444 -267.02228041914424 -56.61948384138118
    vertex 567.6699024878897 -269.76438921259387 -53.21948384138119
    vertex 567.6699024878897 -269.76438921259387 -56.61948384138118
  endloop
endfacet
facet normal 0.7071067811865476 0.7071067811865476 0.0
  outer loop
    vertex 567.6699024878897 -269.76438921259387 -53.21948384138119
    vertex 564.92779369444 -267.02228041914424 -56.61948384138118
    vertex 564.92779369444 -267.02228041914424 -53.21948384138118
  endloop
endfacet
facet normal -0.7071067811865476 0.7071067811865476 5.788156935524105e-30
  outer loop
    vertex 491.30877964606094 -267.02228041914424 -53.21948384138118
    vertex 489.3699024878895 -268.9611575773157 -56.61948384138118
    vertex 489.3699024878895 -268.9611575773157 -53.21948384138119
  endloop
endfacet
facet normal -0.7071067811865476 0.7071067811865476 5.788156935524105e-30
  outer loop
    vertex 489.3699024878895 -268.9611575773157 -56.61948384138118
    vertex 491.30877964606094 -267.02228041914424 -53.21948384138118
    vertex 491.30877964606094 -267.02228041914424 -56.61948384138118
  endloop
endfacet
facet normal 1.0 0.0 0.0
  outer loop
    vertex 564.9913096362413 -277.5064980060435 -56.61948384138105
    vertex 564.9913096362413 -317.00480049732886 -54.61948384138056
    vertex 564.9913096362413 -317.00480049732886 -56.61948384138001
  endloop
endfacet
facet normal 1.0 0.0 0.0
  outer loop
    vertex 564.9913096362413 -317.00480049732886 -54.61948384138056
    vertex 564.9913096362413 -277.5064980060435 -56.61948384138105
    vertex 564.9913096362413 -277.5064980060435 -54.61948384138112
  endloop
endfacet
facet normal -0.3817433069057516 -0.924268385066081 -2.764013595198645e-18
  outer loop
    vertex 492.78440844566 -277.5064980060435 -54.61948384138119
    vertex 489.3699024878895 -276.0962314462114 -56.6194838413812
    vertex 492.78440844566 -277.5064980060435 -56.619483841381204
  endloop
endfacet
facet normal -0.3817433069057516 -0.924268385066081 -2.764013595198645e-18
  outer loop
    vertex 489.3699024878895 -276.0962314462114 -56.6194838413812
    vertex 492.78440844566 -277.5064980060435 -54.61948384138119
    vertex 489.3699024878895 -276.0962314462114 -54.61948384138119
  endloop
endfacet
facet normal 0.46587081631706634 -0.8848527462262126 -3.781515107329885e-18
  outer loop
    vertex 567.6699024878897 -276.0962314462114 -54.619483841381225
    vertex 564.9913096362413 -277.5064980060435 -56.61948384138105
    vertex 567.6699024878897 -276.0962314462114 -56.61948384138115
  endloop
endfacet
facet normal 0.46587081631706634 -0.8848527462262126 -3.781515107329885e-18
  outer loop
    vertex 564.9913096362413 -277.5064980060435 -56.61948384138105
    vertex 567.6699024878897 -276.0962314462114 -54.619483841381225
    vertex 564.9913096362413 -277.5064980060435 -54.61948384138112
  endloop
endfacet
facet normal -1.0 1.9852564037126686e-14 -4.5119463720766334e-14
  outer loop
    vertex 559.4136310194993 -319.9160635174237 -54.61948384138119
    vertex 559.4136310194984 -369.91606351742536 -56.61948384137041
    vertex 559.4136310194983 -369.91606351742536 -54.61948384137008
  endloop
endfacet
facet normal -1.0 1.9852564037126686e-14 -4.5119463720766334e-14
  outer loop
    vertex 559.4136310194984 -369.91606351742536 -56.61948384137041
    vertex 559.4136310194993 -319.9160635174237 -54.61948384138119
    vertex 559.4136310194993 -319.9160635174237 -56.61948384138118
  endloop
endfacet
facet normal 0.0 1.0 0.0
  outer loop
    vertex 542.0429405450329 -267.02228041914424 -53.21948384138118
    vertex 558.282940545033 -267.02228041914424 -56.61948384138118
    vertex 542.0429405450329 -267.02228041914424 -56.61948384138118
  endloop
endfacet
facet normal 0.0 1.0 0.0
  outer loop
    vertex 558.282940545033 -267.02228041914424 -56.61948384138118
    vertex 542.0429405450329 -267.02228041914424 -53.21948384138118
    vertex 558.282940545033 -267.02228041914424 -53.21948384138118
  endloop
endfacet
facet normal 0.0 1.0 0.0
  outer loop
    vertex 558.282940545033 -267.02228041914424 -53.21948384138118
    vertex 542.0429405450329 -267.02228041914424 -53.21948384138118
    vertex 546.2590390811953 -267.02228041914424 -48.21948384138118
  endloop
endfacet
facet normal 0.0 1.0 0.0
  outer loop
    vertex 558.282940545033 -267.02228041914424 -53.21948384138118
    vertex 546.2590390811953 -267.02228041914424 -48.21948384138118
    vertex 558.282940545033 -267.02228041914424 -48.21948384138118
  endloop
endfacet
facet normal -3.472865126290517e-16 -2.2703055460353026e-15 1.0
  outer loop
    vertex 558.282940545033 -272.5064980060435 -53.21948384138119
    vertex 542.0429405450329 -270.02228041914424 -53.21948384138119
    vertex 542.0429405450329 -272.5064980060435 -53.21948384138119
  endloop
endfacet
facet normal -3.472865126290517e-16 -2.2703055460353026e-15 1.0
  outer loop
    vertex 542.0429405450329 -270.02228041914424 -53.21948384138119
    vertex 558.282940545033 -272.5064980060435 -53.21948384138119
    vertex 558.282940545033 -270.02228041914424 -53.21948384138118
  endloop
endfacet
facet normal 0.0 1.0 0.0
  outer loop
    vertex 491.30877964606094 -267.02228041914424 -53.21948384138118
    vertex 542.0429405450329 -267.02228041914424 -56.61948384138118
    vertex 491.30877964606094 -267.02228041914424 -56.61948384138118
  endloop
endfacet
facet normal 0.0 1.0 0.0
  outer loop
    vertex 542.0429405450329 -267.02228041914424 -56.61948384138118
    vertex 491.30877964606094 -267.02228041914424 -53.21948384138118
    vertex 542.0429405450329 -267.02228041914424 -53.21948384138118
  endloop
endfacet
facet normal -1.457213947940559e-17 -1.9565884731460017e-15 1.0
  outer loop
    vertex 542.0429405450329 -272.5064980060435 -53.21948384138119
    vertex 489.3699024878895 -268.9611575773157 -53.21948384138119
    vertex 489.3699024878895 -272.5064980060435 -53.21948384138119
  endloop
endfacet
facet normal -1.457213947940559e-17 -1.9565884731460017e-15 1.0
  outer loop
    vertex 489.3699024878895 -268.9611575773157 -53.21948384138119
    vertex 542.0429405450329 -272.5064980060435 -53.21948384138119
    vertex 491.30877964606094 -267.02228041914424 -53.21948384138118
  endloop
endfacet
facet normal -1.457213947940559e-17 -1.9565884731460017e-15 1.0
  outer loop
    vertex 491.30877964606094 -267.02228041914424 -53.21948384138118
    vertex 542.0429405450329 -272.5064980060435 -53.21948384138119
    vertex 542.0429405450329 -267.02228041914424 -53.21948384138118
  endloop
endfacet
facet normal -1.457213947940559e-17 -1.9565884731460017e-15 1.0
  outer loop
    vertex 542.0429405450329 -267.02228041914424 -53.21948384138118
    vertex 542.0429405450329 -272.5064980060435 -53.21948384138119
    vertex 542.0429405450329 -270.02228041914424 -53.21948384138119
  endloop
endfacet
facet normal 0.0 0.0 1.0
  outer loop
    vertex 558.282940545033 -270.02228041914424 -48.21948384138118
    vertex 546.2590390811953 -267.02228041914424 -48.21948384138118
    vertex 546.2590390811953 -270.02228041914424 -48.21948384138118
  endloop
endfacet
facet normal 0.0 0.0 1.0
  outer loop
    vertex 546.2590390811953 -267.02228041914424 -48.21948384138118
    vertex 558.282940545033 -270.02228041914424 -48.21948384138118
    vertex 558.282940545033 -267.02228041914424 -48.21948384138118
  endloop
endfacet
facet normal 0.0 -1.0 0.0
  outer loop
    vertex 558.282940545033 -270.02228041914424 -53.21948384138118
    vertex 546.2590390811953 -270.02228041914424 -48.21948384138118
    vertex 542.0429405450329 -270.02228041914424 -53.21948384138119
  endloop
endfacet
facet normal 0.0 -1.0 0.0
  outer loop
    vertex 546.2590390811953 -270.02228041914424 -48.21948384138118
    vertex 558.282940545033 -270.02228041914424 -53.21948384138118
    vertex 558.282940545033 -270.02228041914424 -48.21948384138118
  endloop
endfacet
facet normal 1.0 0.0 3.4728651262905173e-16
  outer loop
    vertex 558.282940545033 -267.02228041914424 -53.21948384138118
    vertex 558.282940545033 -270.02228041914424 -48.21948384138118
    vertex 558.282940545033 -270.02228041914424 -53.21948384138118
  endloop
endfacet
facet normal 1.0 0.0 3.4728651262905173e-16
  outer loop
    vertex 558.282940545033 -270.02228041914424 -48.21948384138118
    vertex 558.282940545033 -267.02228041914424 -53.21948384138118
    vertex 558.282940545033 -267.02228041914424 -48.21948384138118
  endloop
endfacet
facet normal -0.7644912581239042 -1.2024297432685213e-15 0.6446340948570205
  outer loop
    vertex 546.2590390811953 -267.02228041914424 -48.21948384138118
    vertex 542.0429405450329 -270.02228041914424 -53.21948384138119
    vertex 546.2590390811953 -270.02228041914424 -48.21948384138118
  endloop
endfacet
facet normal -0.7644912581239042 -1.2024297432685213e-15 0.6446340948570205
  outer loop
    vertex 542.0429405450329 -270.02228041914424 -53.21948384138119
    vertex 546.2590390811953 -267.02228041914424 -48.21948384138118
    vertex 542.0429405450329 -267.02228041914424 -53.21948384138118
  endloop
endfacet
facet normal 0.0 -1.0 0.0
  outer loop
    vertex 565.4171554667747 -372.75606351742516 -56.61948384138118
    vertex 563.1644084456592 -372.75606351742516 -54.61948384138119
    vertex 559.4136310194993 -372.75606351742516 -56.61948384138118
  endloop
endfacet
facet normal 0.0 -1.0 0.0
  outer loop
    vertex 563.1644084456592 -372.75606351742516 -54.61948384138119
    vertex 565.4171554667747 -372.75606351742516 -56.61948384138118
    vertex 565.4171554667747 -372.75606351742516 -53.21948384138119
  endloop
endfacet
facet normal 0.0 -1.0 0.0
  outer loop
    vertex 559.4136310194993 -372.75606351742516 -56.61948384138118
    vertex 563.1644084456592 -372.75606351742516 -54.61948384138119
    vertex 558.282940545033 -372.75606351742516 -56.61948384138118
  endloop
endfacet
facet normal 0.0 -1.0 0.0
  outer loop
    vertex 558.282940545033 -372.75606351742516 -56.61948384138118
    vertex 563.1644084456592 -372.75606351742516 -54.61948384138119
    vertex 558.282940545033 -372.75606351742516 -54.6194838413812
  endloop
endfacet
facet normal 0.0 -1.0 0.0
  outer loop
    vertex 563.1644084456592 -372.75606351742516 -54.61948384138119
    vertex 565.4171554667747 -372.75606351742516 -53.21948384138119
    vertex 563.1644084456592 -372.75606351742516 -53.21948384138119
  endloop
endfacet
facet normal -1.1220492356027538e-14 7.988365519774173e-15 1.0
  outer loop
    vertex 496.38528078444347 -342.64632716506304 -54.61948384138137
    vertex 496.381981254556 -321.9160635174237 -54.619483841381594
    vertex 493.93386303556497 -345.2140208813157 -54.619483841381324
  endloop
endfacet
facet normal -1.1220492356027538e-14 7.988365519774173e-15 1.0
  outer loop
    vertex 493.93386303556497 -345.2140208813157 -54.619483841381324
    vertex 492.78440844566 -345.2140208813157 -54.61948384138125
    vertex 493.93386303556497 -354.86443594194174 -54.6194838413813
  endloop
endfacet
facet normal -1.1220492356027538e-14 7.988365519774173e-15 1.0
  outer loop
    vertex 563.1644084456592 -372.75606351742516 -54.61948384138119
    vertex 558.282940545033 -370.7560635174251 -54.6194838413812
    vertex 558.282940545033 -372.75606351742516 -54.6194838413812
  endloop
endfacet
facet normal -1.1220492356027538e-14 7.988365519774173e-15 1.0
  outer loop
    vertex 558.282940545033 -370.7560635174251 -54.6194838413812
    vertex 563.1644084456592 -372.75606351742516 -54.61948384138119
    vertex 559.4136310194983 -369.91606351742536 -54.61948384137008
  endloop
endfacet
facet normal -1.1220492356027538e-14 7.988365519774173e-15 1.0
  outer loop
    vertex 559.4136310194983 -369.91606351742536 -54.61948384137008
    vertex 563.1644084456592 -372.75606351742516 -54.61948384138119
    vertex 559.4136310194993 -319.9160635174237 -54.61948384138119
  endloop
endfacet
facet normal -1.1220492356027538e-14 7.988365519774173e-15 1.0
  outer loop
    vertex 567.581309636241 -323.8900943692137 -54.61948384138119
    vertex 564.9913096362413 -317.00480049732886 -54.61948384138056
    vertex 563.8920018108108 -326.65434974258636 -54.619483841381175
  endloop
endfacet
facet normal -1.1220492356027538e-14 7.988365519774173e-15 1.0
  outer loop
    vertex 564.9913096362413 -317.00480049732886 -54.61948384138056
    vertex 567.581309636241 -323.8900943692137 -54.61948384138119
    vertex 567.581309636241 -318.29497721623903 -54.61948384138068
  endloop
endfacet
facet normal -1.1220492356027538e-14 7.988365519774173e-15 1.0
  outer loop
    vertex 541.1813096362412 -321.9160635174245 -54.619483841381594
    vertex 499.4926696761613 -315.6764980060435 -54.61948384138119
    vertex 496.381981254556 -321.9160635174237 -54.619483841381594
  endloop
endfacet
facet normal -1.1220492356027538e-14 7.988365519774173e-15 1.0
  outer loop
    vertex 499.4926696761613 -315.6764980060435 -54.61948384138119
    vertex 541.1813096362412 -321.9160635174245 -54.619483841381594
    vertex 541.1813096362412 -319.9160635174245 -54.61948384138119
  endloop
endfacet
facet normal -1.1220492356027538e-14 7.988365519774173e-15 1.0
  outer loop
    vertex 499.4926696761613 -315.6764980060435 -54.61948384138119
    vertex 541.1813096362412 -319.9160635174245 -54.61948384138119
    vertex 558.652669676161 -315.6764980060435 -54.61948384138119
  endloop
endfacet
facet normal -1.1220492356027538e-14 7.988365519774173e-15 1.0
  outer loop
    vertex 558.652669676161 -315.6764980060435 -54.61948384138119
    vertex 541.1813096362412 -319.9160635174245 -54.61948384138119
    vertex 559.4136310194993 -319.9160635174237 -54.61948384138119
  endloop
endfacet
facet normal -1.1220492356027538e-14 7.988365519774173e-15 1.0
  outer loop
    vertex 558.652669676161 -315.6764980060435 -54.61948384138119
    vertex 559.4136310194993 -319.9160635174237 -54.61948384138119
    vertex 558.652669676161 -272.5064980060435 -54.61948384138119
  endloop
endfacet
facet normal -1.1220492356027538e-14 7.988365519774173e-15 1.0
  outer loop
    vertex 558.652669676161 -272.5064980060435 -54.61948384138119
    vertex 559.4136310194993 -319.9160635174237 -54.61948384138119
    vertex 564.9913096362413 -272.5064980060435 -54.61948384138119
  endloop
endfacet
facet normal -1.1220492356027538e-14 7.988365519774173e-15 1.0
  outer loop
    vertex 564.9913096362413 -272.5064980060435 -54.61948384138119
    vertex 559.4136310194993 -319.9160635174237 -54.61948384138119
    vertex 563.8920018108108 -326.65434974258636 -54.619483841381175
  endloop
endfacet
facet normal -1.1220492356027538e-14 7.988365519774173e-15 1.0
  outer loop
    vertex 563.8920018108108 -326.65434974258636 -54.619483841381175
    vertex 559.4136310194993 -319.9160635174237 -54.61948384138119
    vertex 563.1644084456592 -362.55434974258634 -54.61948384138119
  endloop
endfacet
facet normal -1.1220492356027538e-14 7.988365519774173e-15 1.0
  outer loop
    vertex 563.1644084456592 -362.55434974258634 -54.61948384138119
    vertex 559.4136310194993 -319.9160635174237 -54.61948384138119
    vertex 563.1644084456592 -372.75606351742516 -54.61948384138119
  endloop
endfacet
facet normal -1.1220492356027538e-14 7.988365519774173e-15 1.0
  outer loop
    vertex 563.8920018108108 -326.65434974258636 -54.619483841381175
    vertex 563.1644084456592 -362.55434974258634 -54.61948384138119
    vertex 563.8920018108108 -362.55434974258634 -54.619483841381175
  endloop
endfacet
facet normal -1.1220492356027538e-14 7.988365519774173e-15 1.0
  outer loop
    vertex 564.9913096362413 -272.5064980060435 -54.61948384138119
    vertex 563.8920018108108 -326.65434974258636 -54.619483841381175
    vertex 564.9913096362413 -317.00480049732886 -54.61948384138056
  endloop
endfacet
facet normal -1.1220492356027538e-14 7.988365519774173e-15 1.0
  outer loop
    vertex 564.9913096362413 -272.5064980060435 -54.61948384138119
    vertex 564.9913096362413 -317.00480049732886 -54.61948384138056
    vertex 564.9913096362413 -277.5064980060435 -54.61948384138112
  endloop
endfacet
facet normal -1.1220492356027538e-14 7.988365519774173e-15 1.0
  outer loop
    vertex 564.9913096362413 -272.5064980060435 -54.61948384138119
    vertex 564.9913096362413 -277.5064980060435 -54.61948384138112
    vertex 567.6699024878897 -276.0962314462114 -54.619483841381225
  endloop
endfacet
facet normal -1.1220492356027538e-14 7.988365519774173e-15 1.0
  outer loop
    vertex 564.9913096362413 -272.5064980060435 -54.61948384138119
    vertex 567.6699024878897 -276.0962314462114 -54.619483841381225
    vertex 567.6699024878897 -272.5064980060435 -54.619483841381225
  endloop
endfacet
facet normal -1.1220492356027538e-14 7.988365519774173e-15 1.0
  outer loop
    vertex 492.38440844565923 -372.7560635174251 -54.61948384138137
    vertex 496.3836310194993 -369.91606351742536 -54.61948384138144
    vertex 492.38440844565923 -364.9433091713905 -54.619483841381346
  endloop
endfacet
facet normal -1.1220492356027538e-14 7.988365519774173e-15 1.0
  outer loop
    vertex 496.3836310194993 -369.91606351742536 -54.61948384138144
    vertex 492.38440844565923 -372.7560635174251 -54.61948384138137
    vertex 542.0429405450329 -372.75606351742516 -54.619483841381246
  endloop
endfacet
facet normal -1.1220492356027538e-14 7.988365519774173e-15 1.0
  outer loop
    vertex 492.38440844565923 -364.9433091713905 -54.619483841381346
    vertex 496.3836310194993 -369.91606351742536 -54.61948384138144
    vertex 493.93386303556497 -354.86443594194174 -54.6194838413813
  endloop
endfacet
facet normal -1.1220492356027538e-14 7.988365519774173e-15 1.0
  outer loop
    vertex 492.38440844565923 -364.9433091713905 -54.619483841381346
    vertex 493.93386303556497 -354.86443594194174 -54.6194838413813
    vertex 492.78440844566 -345.2140208813157 -54.61948384138125
  endloop
endfacet
facet normal -1.1220492356027538e-14 7.988365519774173e-15 1.0
  outer loop
    vertex 492.38440844565923 -364.9433091713905 -54.619483841381346
    vertex 492.78440844566 -345.2140208813157 -54.61948384138125
    vertex 492.78440844565966 -342.0660167886467 -54.61948384138119
  endloop
endfacet
facet normal -1.1220492356027538e-14 7.988365519774173e-15 1.0
  outer loop
    vertex 496.3836310194993 -369.91606351742536 -54.61948384138144
    vertex 542.0429405450329 -372.75606351742516 -54.619483841381246
    vertex 542.0429405450329 -370.7560635174251 -54.6194838413812
  endloop
endfacet
facet normal -1.1220492356027538e-14 7.988365519774173e-15 1.0
  outer loop
    vertex 496.3836310194993 -369.91606351742536 -54.61948384138144
    vertex 542.0429405450329 -370.7560635174251 -54.6194838413812
    vertex 559.4136310194983 -369.91606351742536 -54.61948384137008
  endloop
endfacet
facet normal -1.1220492356027538e-14 7.988365519774173e-15 1.0
  outer loop
    vertex 559.4136310194983 -369.91606351742536 -54.61948384137008
    vertex 542.0429405450329 -370.7560635174251 -54.6194838413812
    vertex 558.282940545033 -370.7560635174251 -54.6194838413812
  endloop
endfacet
facet normal -1.1220492356027538e-14 7.988365519774173e-15 1.0
  outer loop
    vertex 492.78440844566 -345.2140208813157 -54.61948384138125
    vertex 492.78440844566 -277.5064980060435 -54.61948384138119
    vertex 492.78440844565966 -342.0660167886467 -54.61948384138119
  endloop
endfacet
facet normal -1.1220492356027538e-14 7.988365519774173e-15 1.0
  outer loop
    vertex 492.78440844566 -277.5064980060435 -54.61948384138119
    vertex 492.78440844566 -345.2140208813157 -54.61948384138125
    vertex 493.93386303556497 -345.2140208813157 -54.619483841381324
  endloop
endfacet
facet normal -1.1220492356027538e-14 7.988365519774173e-15 1.0
  outer loop
    vertex 492.78440844566 -277.5064980060435 -54.61948384138119
    vertex 493.93386303556497 -345.2140208813157 -54.619483841381324
    vertex 492.78440844566 -272.5064980060435 -54.61948384138119
  endloop
endfacet
facet normal -1.1220492356027538e-14 7.988365519774173e-15 1.0
  outer loop
    vertex 492.78440844566 -272.5064980060435 -54.61948384138119
    vertex 493.93386303556497 -345.2140208813157 -54.619483841381324
    vertex 499.4926696761613 -272.5064980060435 -54.61948384138119
  endloop
endfacet
facet normal -1.1220492356027538e-14 7.988365519774173e-15 1.0
  outer loop
    vertex 499.4926696761613 -272.5064980060435 -54.61948384138119
    vertex 493.93386303556497 -345.2140208813157 -54.619483841381324
    vertex 496.381981254556 -321.9160635174237 -54.619483841381594
  endloop
endfacet
facet normal -1.1220492356027538e-14 7.988365519774173e-15 1.0
  outer loop
    vertex 499.4926696761613 -272.5064980060435 -54.61948384138119
    vertex 496.381981254556 -321.9160635174237 -54.619483841381594
    vertex 499.4926696761613 -315.6764980060435 -54.61948384138119
  endloop
endfacet
facet normal -1.1220492356027538e-14 7.988365519774173e-15 1.0
  outer loop
    vertex 496.38363101949994 -357.6625447532311 -54.61948384138175
    vertex 493.93386303556497 -354.86443594194174 -54.6194838413813
    vertex 496.3836310194993 -369.91606351742536 -54.61948384138144
  endloop
endfacet
facet normal -1.1220492356027538e-14 7.988365519774173e-15 1.0
  outer loop
    vertex 492.78440844566 -277.5064980060435 -54.61948384138119
    vertex 489.3699024878895 -272.5064980060435 -54.61948384138119
    vertex 489.3699024878895 -276.0962314462114 -54.61948384138119
  endloop
endfacet
facet normal -1.1220492356027538e-14 7.988365519774173e-15 1.0
  outer loop
    vertex 489.3699024878895 -272.5064980060435 -54.61948384138119
    vertex 492.78440844566 -277.5064980060435 -54.61948384138119
    vertex 492.78440844566 -272.5064980060435 -54.61948384138119
  endloop
endfacet
facet normal -1.1220492356027538e-14 7.988365519774173e-15 1.0
  outer loop
    vertex 490.83292671131494 -364.9433091713905 -54.619483841381445
    vertex 492.78440844565966 -342.0660167886467 -54.61948384138119
    vertex 490.78440844566 -345.2140208813157 -54.61948384138125
  endloop
endfacet
facet normal -1.1220492356027538e-14 7.988365519774173e-15 1.0
  outer loop
    vertex 492.78440844565966 -342.0660167886467 -54.61948384138119
    vertex 490.83292671131494 -364.9433091713905 -54.619483841381445
    vertex 492.38440844565923 -364.9433091713905 -54.619483841381346
  endloop
endfacet
facet normal -3.0292018790274355e-15 -9.023892744153288e-15 1.0
  outer loop
    vertex 558.282940545033 -372.7560635174252 -48.219483841382626
    vertex 547.1118139110301 -370.7560635174252 -48.21948384138264
    vertex 547.1118139110301 -372.7560635174252 -48.21948384138266
  endloop
endfacet
facet normal -3.0292018790274355e-15 -9.023892744153288e-15 1.0
  outer loop
    vertex 547.1118139110301 -370.7560635174252 -48.21948384138264
    vertex 558.282940545033 -372.7560635174252 -48.219483841382626
    vertex 558.282940545033 -370.75606351742516 -48.21948384138261
  endloop
endfacet
facet normal 1.0 -6.267752482911142e-30 1.389146050516207e-15
  outer loop
    vertex 558.282940545033 -372.75606351742516 -54.6194838413812
    vertex 558.282940545033 -370.75606351742516 -48.21948384138261
    vertex 558.282940545033 -372.7560635174252 -48.219483841382626
  endloop
endfacet
facet normal 1.0 -6.267752482911142e-30 1.389146050516207e-15
  outer loop
    vertex 558.282940545033 -370.75606351742516 -48.21948384138261
    vertex 558.282940545033 -372.75606351742516 -54.6194838413812
    vertex 558.282940545033 -370.7560635174251 -54.6194838413812
  endloop
endfacet
facet normal -3.3998477312929676e-16 1.0 9.345860327429945e-15
  outer loop
    vertex 547.1118139110301 -370.7560635174252 -48.21948384138264
    vertex 558.282940545033 -370.7560635174251 -54.6194838413812
    vertex 542.0429405450329 -370.7560635174251 -54.6194838413812
  endloop
endfacet
facet normal -3.3998477312929676e-16 1.0 9.345860327429945e-15
  outer loop
    vertex 558.282940545033 -370.7560635174251 -54.6194838413812
    vertex 547.1118139110301 -370.7560635174252 -48.21948384138264
    vertex 558.282940545033 -370.75606351742516 -48.21948384138261
  endloop
endfacet
facet normal 2.0309980315239822e-29 -1.0 -7.04991620637132e-15
  outer loop
    vertex 558.282940545033 -372.75606351742516 -54.6194838413812
    vertex 547.1118139110301 -372.7560635174252 -48.21948384138266
    vertex 542.0429405450329 -372.75606351742516 -54.619483841381246
  endloop
endfacet
facet normal 2.0309980315239822e-29 -1.0 -7.04991620637132e-15
  outer loop
    vertex 547.1118139110301 -372.7560635174252 -48.21948384138266
    vertex 558.282940545033 -372.75606351742516 -54.6194838413812
    vertex 558.282940545033 -372.7560635174252 -48.219483841382626
  endloop
endfacet
facet normal -0.7839142671065535 -9.782453865634296e-15 0.6208690859003975
  outer loop
    vertex 547.1118139110301 -370.7560635174252 -48.21948384138264
    vertex 542.0429405450329 -372.75606351742516 -54.619483841381246
    vertex 547.1118139110301 -372.7560635174252 -48.21948384138266
  endloop
endfacet
facet normal -0.7839142671065535 -9.782453865634296e-15 0.6208690859003975
  outer loop
    vertex 542.0429405450329 -372.75606351742516 -54.619483841381246
    vertex 547.1118139110301 -370.7560635174252 -48.21948384138264
    vertex 542.0429405450329 -370.7560635174251 -54.6194838413812
  endloop
endfacet
endsolid compact_holder
