ISO-10303-21;
HEADER;
FILE_DESCRIPTION (( 'STEP AP214' ),
    '1' );
FILE_NAME ('nut_plug.STEP',
    '2026-01-06T14:37:24',
    ( '' ),
    ( '' ),
    'SwSTEP 2.0',
    'SolidWorks 2024',
    '' );
FILE_SCHEMA (( 'AUTOMOTIVE_DESIGN' ));
ENDSEC;

DATA;
#1 = EDGE_CURVE ( 'NONE', #573, #328, #366, .T. ) ;
#2 = DIRECTION ( 'NONE',  ( 0.4999999999999998890, -0.8660254037844387076, 0.000000000000000000 ) ) ;
#3 = PLANE ( 'NONE',  #531 ) ;
#4 = ORIENTED_EDGE ( 'NONE', *, *, #267, .F. ) ;
#5 = VERTEX_POINT ( 'NONE', #363 ) ;
#6 = DIRECTION ( 'NONE',  ( 1.783162728471403980E-16, 1.000000000000000000, -0.000000000000000000 ) ) ;
#7 = DIRECTION ( 'NONE',  ( -0.000000000000000000, -0.000000000000000000, -1.000000000000000000 ) ) ;
#8 = ORIENTED_EDGE ( 'NONE', *, *, #105, .T. ) ;
#9 =( LENGTH_UNIT ( ) NAMED_UNIT ( * ) SI_UNIT ( .MILLI., .METRE. ) );
#10 = CARTESIAN_POINT ( 'NONE',  ( -4.431163316030384713, -8.175000000000009592, 2.000000000000000000 ) ) ;
#11 = FACE_OUTER_BOUND ( 'NONE', #237, .T. ) ;
#12 = ORIENTED_EDGE ( 'NONE', *, *, #586, .F. ) ;
#13 = STYLED_ITEM ( 'NONE', ( #271 ), #270 ) ;
#14 = VECTOR ( 'NONE', #384, 1000.000000000000000 ) ;
#15 = CARTESIAN_POINT ( 'NONE',  ( 5.441526287112270488, -9.424999999999982947, 1.000000000000000000 ) ) ;
#16 = PLANE ( 'NONE',  #254 ) ;
#17 = ORIENTED_EDGE ( 'NONE', *, *, #175, .F. ) ;
#18 =( NAMED_UNIT ( * ) PLANE_ANGLE_UNIT ( ) SI_UNIT ( $, .RADIAN. ) );
#19 = FACE_OUTER_BOUND ( 'NONE', #591, .T. ) ;
#20 = VERTEX_POINT ( 'NONE', #320 ) ;
#21 = CARTESIAN_POINT ( 'NONE',  ( 9.295339333952982841, 0.2500000000000043299, 2.000000000000000000 ) ) ;
#22 = LINE ( 'NONE', #302, #553 ) ;
#23 = ORIENTED_EDGE ( 'NONE', *, *, #66, .F. ) ;
#24 = VECTOR ( 'NONE', #39, 1000.000000000000000 ) ;
#25 = UNCERTAINTY_MEASURE_WITH_UNIT (LENGTH_MEASURE( 1.000000000000000082E-05 ), #360, 'distance_accuracy_value', 'NONE');
#26 = EDGE_CURVE ( 'NONE', #206, #232, #479, .T. ) ;
#27 = ADVANCED_FACE ( 'NONE', ( #342 ), #278, .F. ) ;
#28 = CARTESIAN_POINT ( 'NONE',  ( 4.864176017922601680, -8.425000000000011369, 2.000000000000000000 ) ) ;
#29 = ORIENTED_EDGE ( 'NONE', *, *, #504, .T. ) ;
#30 = DIRECTION ( 'NONE',  ( -0.000000000000000000, -0.000000000000000000, -1.000000000000000000 ) ) ;
#31 = ORIENTED_EDGE ( 'NONE', *, *, #351, .T. ) ;
#32 = SURFACE_SIDE_STYLE ('',( #400 ) ) ;
#33 = ORIENTED_EDGE ( 'NONE', *, *, #519, .F. ) ;
#34 = LINE ( 'NONE', #41, #96 ) ;
#35 = ADVANCED_FACE ( 'NONE', ( #191 ), #91, .F. ) ;
#36 = APPLICATION_CONTEXT ( 'automotive_design' ) ;
#37 = CARTESIAN_POINT ( 'NONE',  ( 4.575500883327788593, 7.925000000000012257, 2.000000000000000000 ) ) ;
#38 = VERTEX_POINT ( 'NONE', #112 ) ;
#39 = DIRECTION ( 'NONE',  ( 0.4999999999999950595, 0.8660254037844415942, 0.000000000000000000 ) ) ;
#40 = AXIS2_PLACEMENT_3D ( 'NONE', #503, #172, #324 ) ;
#41 = CARTESIAN_POINT ( 'NONE',  ( 9.728352035845201584, 5.864445014597906729E-15, 2.000000000000000000 ) ) ;
#42 = ORIENTED_EDGE ( 'NONE', *, *, #26, .T. ) ;
#43 = LINE ( 'NONE', #227, #308 ) ;
#44 = ADVANCED_FACE ( 'NONE', ( #155 ), #431, .F. ) ;
#45 = PLANE ( 'NONE',  #195 ) ;
#46 = CARTESIAN_POINT ( 'NONE',  ( -5.441526287112337101, 9.424999999999943867, 1.000000000000000000 ) ) ;
#47 = VERTEX_POINT ( 'NONE', #556 ) ;
#48 = CARTESIAN_POINT ( 'NONE',  ( 4.864176017922601680, -8.425000000000011369, 2.000000000000000000 ) ) ;
#49 = DIRECTION ( 'NONE',  ( 1.000000000000000000, 0.000000000000000000, -0.000000000000000000 ) ) ;
#50 = LINE ( 'NONE', #426, #129 ) ;
#51 = ORIENTED_EDGE ( 'NONE', *, *, #190, .F. ) ;
#52 = CARTESIAN_POINT ( 'NONE',  ( 0.000000000000000000, 0.000000000000000000, 0.000000000000000000 ) ) ;
#53 = CARTESIAN_POINT ( 'NONE',  ( -5.441526287112337101, 9.424999999999943867, 1.000000000000000000 ) ) ;
#54 = DIRECTION ( 'NONE',  ( -3.506729036840045144E-15, 1.000000000000000000, 0.000000000000000000 ) ) ;
#55 = ORIENTED_EDGE ( 'NONE', *, *, #180, .F. ) ;
#56 = DIRECTION ( 'NONE',  ( 0.5000000000000072164, -0.8660254037844344888, 0.000000000000000000 ) ) ;
#57 = CARTESIAN_POINT ( 'NONE',  ( -7.843715799990501836, -3.469446951953614189E-15, 3.132142857142860226 ) ) ;
#58 = CARTESIAN_POINT ( 'NONE',  ( -4.575500883327792145, -7.925000000000008704, 2.000000000000000000 ) ) ;
#59 = EDGE_LOOP ( 'NONE', ( #217, #581, #89, #436 ) ) ;
#60 = VECTOR ( 'NONE', #252, 1000.000000000000000 ) ;
#61 = LINE ( 'NONE', #188, #266 ) ;
#62 = LINE ( 'NONE', #355, #540 ) ;
#63 = VERTEX_POINT ( 'NONE', #58 ) ;
#64 = DIRECTION ( 'NONE',  ( 0.000000000000000000, -1.000000000000000000, 0.000000000000000000 ) ) ;
#65 = VERTEX_POINT ( 'NONE', #560 ) ;
#66 = EDGE_CURVE ( 'NONE', #260, #535, #510, .T. ) ;
#67 = DIRECTION ( 'NONE',  ( -0.5000000000000071054, 0.8660254037844344888, 0.000000000000000000 ) ) ;
#68 = ORIENTED_EDGE ( 'NONE', *, *, #297, .F. ) ;
#69 = AXIS2_PLACEMENT_3D ( 'NONE', #86, #362, #550 ) ;
#70 = PLANE ( 'NONE',  #382 ) ;
#71 = ORIENTED_EDGE ( 'NONE', *, *, #221, .F. ) ;
#72 = CARTESIAN_POINT ( 'NONE',  ( 4.575500883327791257, -7.925000000000010481, 2.000000000000000000 ) ) ;
#73 = ORIENTED_EDGE ( 'NONE', *, *, #559, .F. ) ;
#74 = PLANE ( 'NONE',  #305 ) ;
#75 = ORIENTED_EDGE ( 'NONE', *, *, #221, .T. ) ;
#76 = EDGE_CURVE ( 'NONE', #232, #169, #435, .T. ) ;
#77 = AXIS2_PLACEMENT_3D ( 'NONE', #46, #298, #245 ) ;
#78 = VECTOR ( 'NONE', #289, 1000.000000000000000 ) ;
#79 = CARTESIAN_POINT ( 'NONE',  ( 5.441526287112270488, -9.424999999999982947, 0.000000000000000000 ) ) ;
#80 =( NAMED_UNIT ( * ) PLANE_ANGLE_UNIT ( ) SI_UNIT ( $, .RADIAN. ) );
#81 = EDGE_CURVE ( 'NONE', #328, #20, #107, .T. ) ;
#82 = CARTESIAN_POINT ( 'NONE',  ( -5.441526287112337101, 9.424999999999943867, 0.000000000000000000 ) ) ;
#83 = ORIENTED_EDGE ( 'NONE', *, *, #293, .F. ) ;
#84 = PRESENTATION_LAYER_ASSIGNMENT (  '', '', ( #13 ) ) ;
#85 = VECTOR ( 'NONE', #110, 1000.000000000000114 ) ;
#86 = CARTESIAN_POINT ( 'NONE',  ( 6.863251324991684221, 3.962500000000007017, 2.000000000000000000 ) ) ;
#87 = CARTESIAN_POINT ( 'NONE',  ( -3.921857899995252694, -6.792857142857134711, 3.132142857142870884 ) ) ;
#88 = ADVANCED_FACE ( 'NONE', ( #330 ), #3, .F. ) ;
#89 = ORIENTED_EDGE ( 'NONE', *, *, #551, .F. ) ;
#90 = CARTESIAN_POINT ( 'NONE',  ( -6.863251324991686886, 3.962499999999999911, 2.000000000000000000 ) ) ;
#91 = PLANE ( 'NONE',  #147 ) ;
#92 = ORIENTED_EDGE ( 'NONE', *, *, #222, .F. ) ;
#93 = ADVANCED_FACE ( 'NONE', ( #419 ), #16, .T. ) ;
#94 = LINE ( 'NONE', #48, #296 ) ;
#95 = CARTESIAN_POINT ( 'NONE',  ( 9.728352035845201584, 5.864445014597906729E-15, 1.499999999999999112 ) ) ;
#96 = VECTOR ( 'NONE', #263, 1000.000000000000000 ) ;
#97 = VECTOR ( 'NONE', #285, 1000.000000000000114 ) ;
#98 = DIRECTION ( 'NONE',  ( 1.052018711052013228E-14, -1.000000000000000000, 0.000000000000000000 ) ) ;
#99 = ORIENTED_EDGE ( 'NONE', *, *, #406, .F. ) ;
#100 = DIRECTION ( 'NONE',  ( 1.000000000000000000, -1.783162728471403980E-16, 0.000000000000000000 ) ) ;
#101 = DIRECTION ( 'NONE',  ( 0.3779644730092224791, 0.6546536707079789741, 0.6546536707079779749 ) ) ;
#102 = CARTESIAN_POINT ( 'NONE',  ( -5.441526287112204763, -9.425000000000022027, 1.000000000000000000 ) ) ;
#103 = VERTEX_POINT ( 'NONE', #290 ) ;
#104 = LINE ( 'NONE', #114, #229 ) ;
#105 = EDGE_CURVE ( 'NONE', #397, #103, #526, .T. ) ;
#106 = CARTESIAN_POINT ( 'NONE',  ( -5.441526287112204763, -9.425000000000022027, 1.000000000000000000 ) ) ;
#107 = LINE ( 'NONE', #287, #354 ) ;
#108 = ORIENTED_EDGE ( 'NONE', *, *, #176, .F. ) ;
#109 = PLANE ( 'NONE',  #482 ) ;
#110 = DIRECTION ( 'NONE',  ( -0.4999999999999993894, -0.8660254037844389297, 0.000000000000000000 ) ) ;
#111 = CLOSED_SHELL ( 'NONE', ( #27, #44, #125, #35, #533, #88, #395, #595, #138, #456, #429, #258, #326, #251, #313, #387, #500, #592, #280, #450, #93 ) ) ;
#112 = CARTESIAN_POINT ( 'NONE',  ( -9.728352035845201584, -5.190781207220917272E-15, 1.000000000000000000 ) ) ;
#113 = ORIENTED_EDGE ( 'NONE', *, *, #413, .F. ) ;
#114 = CARTESIAN_POINT ( 'NONE',  ( 5.441526287112139926, 9.425000000000057554, 1.000000000000000000 ) ) ;
#115 = LINE ( 'NONE', #300, #159 ) ;
#116 = ORIENTED_EDGE ( 'NONE', *, *, #117, .F. ) ;
#117 = EDGE_CURVE ( 'NONE', #377, #527, #370, .T. ) ;
#118 = EDGE_CURVE ( 'NONE', #405, #65, #50, .T. ) ;
#119 = DIRECTION ( 'NONE',  ( -0.5000000000000002220, 0.8660254037844385966, 0.000000000000000000 ) ) ;
#120 = VERTEX_POINT ( 'NONE', #148 ) ;
#121 = DIRECTION ( 'NONE',  ( 0.000000000000000000, -0.000000000000000000, -1.000000000000000000 ) ) ;
#122 = VERTEX_POINT ( 'NONE', #572 ) ;
#123 = DIRECTION ( 'NONE',  ( -0.8660254037844390407, 0.4999999999999995004, 0.000000000000000000 ) ) ;
#124 = ORIENTED_EDGE ( 'NONE', *, *, #81, .F. ) ;
#125 = ADVANCED_FACE ( 'NONE', ( #522 ), #475, .F. ) ;
#126 = LINE ( 'NONE', #311, #451 ) ;
#127 = ORIENTED_EDGE ( 'NONE', *, *, #118, .T. ) ;
#128 = FACE_OUTER_BOUND ( 'NONE', #438, .T. ) ;
#129 = VECTOR ( 'NONE', #566, 1000.000000000000000 ) ;
#130 = CARTESIAN_POINT ( 'NONE',  ( 9.728352035845201584, 5.864445014597906729E-15, 2.000000000000000000 ) ) ;
#131 = ORIENTED_EDGE ( 'NONE', *, *, #316, .F. ) ;
#132 = DIRECTION ( 'NONE',  ( 0.5000000000000002220, -0.8660254037844384856, 0.000000000000000000 ) ) ;
#133 = CARTESIAN_POINT ( 'NONE',  ( 10.88305257422445571, 7.599594994510681873E-14, 1.000000000000000000 ) ) ;
#134 = VECTOR ( 'NONE', #416, 1000.000000000000000 ) ;
#135 = AXIS2_PLACEMENT_3D ( 'NONE', #484, #423, #374 ) ;
#136 = LINE ( 'NONE', #79, #24 ) ;
#137 = CARTESIAN_POINT ( 'NONE',  ( 10.88305257422445571, 7.599594994510681873E-14, 1.000000000000000000 ) ) ;
#138 = ADVANCED_FACE ( 'NONE', ( #11 ), #152, .F. ) ;
#139 = DIRECTION ( 'NONE',  ( 0.3779644730092221461, -0.6546536707079791961, -0.6546536707079779749 ) ) ;
#140 = EDGE_LOOP ( 'NONE', ( #537, #508, #524, #545 ) ) ;
#141 = DIRECTION ( 'NONE',  ( 0.000000000000000000, 0.000000000000000000, 1.000000000000000000 ) ) ;
#142 = PLANE ( 'NONE',  #518 ) ;
#143 = CARTESIAN_POINT ( 'NONE',  ( 4.864176017922599016, 8.425000000000011369, 1.000000000000000000 ) ) ;
#144 = ORIENTED_EDGE ( 'NONE', *, *, #462, .F. ) ;
#145 = DIRECTION ( 'NONE',  ( -0.000000000000000000, -0.000000000000000000, -1.000000000000000000 ) ) ;
#146 = FACE_OUTER_BOUND ( 'NONE', #343, .T. ) ;
#147 = AXIS2_PLACEMENT_3D ( 'NONE', #514, #529, #236 ) ;
#148 = CARTESIAN_POINT ( 'NONE',  ( 10.88305257422445571, 7.599594994510681873E-14, 1.000000000000000000 ) ) ;
#149 = ORIENTED_EDGE ( 'NONE', *, *, #551, .T. ) ;
#150 = PRODUCT_RELATED_PRODUCT_CATEGORY ( 'part', '', ( #411 ) ) ;
#151 = PLANE ( 'NONE',  #257 ) ;
#152 = PLANE ( 'NONE',  #244 ) ;
#153 = ORIENTED_EDGE ( 'NONE', *, *, #406, .T. ) ;
#154 = DIRECTION ( 'NONE',  ( 0.7559289460184523968, 8.443406240736082125E-16, 0.6546536707079795292 ) ) ;
#155 = FACE_OUTER_BOUND ( 'NONE', #497, .T. ) ;
#156 = ORIENTED_EDGE ( 'NONE', *, *, #215, .F. ) ;
#157 = DIRECTION ( 'NONE',  ( 0.000000000000000000, 0.000000000000000000, 1.000000000000000000 ) ) ;
#158 = EDGE_CURVE ( 'NONE', #122, #527, #170, .T. ) ;
#159 = VECTOR ( 'NONE', #487, 999.9999999999998863 ) ;
#160 = CARTESIAN_POINT ( 'NONE',  ( 5.441526287112139926, 9.425000000000057554, 1.000000000000000000 ) ) ;
#161 = ORIENTED_EDGE ( 'NONE', *, *, #158, .F. ) ;
#162 = EDGE_CURVE ( 'NONE', #253, #103, #534, .T. ) ;
#163 = CARTESIAN_POINT ( 'NONE',  ( 5.441526287112139926, 9.425000000000057554, 0.000000000000000000 ) ) ;
#164 = EDGE_LOOP ( 'NONE', ( #392, #249, #124, #337 ) ) ;
#165 = PRODUCT_DEFINITION_CONTEXT ( 'detailed design', #36, 'design' ) ;
#166 = LINE ( 'NONE', #446, #547 ) ;
#167 = ORIENTED_EDGE ( 'NONE', *, *, #162, .T. ) ;
#168 = LINE ( 'NONE', #255, #403 ) ;
#169 = VERTEX_POINT ( 'NONE', #209 ) ;
#170 = LINE ( 'NONE', #347, #60 ) ;
#171 = ORIENTED_EDGE ( 'NONE', *, *, #440, .T. ) ;
#172 = DIRECTION ( 'NONE',  ( -1.260886457261235037E-16, -0.7071067811865469066, 0.7071067811865481278 ) ) ;
#173 = UNCERTAINTY_MEASURE_WITH_UNIT (LENGTH_MEASURE( 1.000000000000000082E-05 ), #9, 'distance_accuracy_value', 'NONE');
#174 = DIRECTION ( 'NONE',  ( 1.000000000000000000, 0.000000000000000000, -0.000000000000000000 ) ) ;
#175 = EDGE_CURVE ( 'NONE', #38, #65, #115, .T. ) ;
#176 = EDGE_CURVE ( 'NONE', #573, #38, #22, .T. ) ;
#177 = CARTESIAN_POINT ( 'NONE',  ( 9.728352035845201584, 5.653842144874737559E-15, 1.500000000000000000 ) ) ;
#178 = DIRECTION ( 'NONE',  ( 0.4999999999999993894, 0.8660254037844389297, 0.000000000000000000 ) ) ;
#179 = FACE_OUTER_BOUND ( 'NONE', #272, .T. ) ;
#180 = EDGE_CURVE ( 'NONE', #47, #284, #261, .T. ) ;
#181 = VECTOR ( 'NONE', #404, 1000.000000000000000 ) ;
#182 = DIRECTION ( 'NONE',  ( -1.000000000000000000, 1.783162728471403980E-16, 0.000000000000000000 ) ) ;
#183 = CARTESIAN_POINT ( 'NONE',  ( 0.000000000000000000, 7.925000000000012257, 2.000000000000000000 ) ) ;
#184 = ORIENTED_EDGE ( 'NONE', *, *, #222, .T. ) ;
#185 = LINE ( 'NONE', #235, #225 ) ;
#186 = CARTESIAN_POINT ( 'NONE',  ( 5.441526287112139926, 9.425000000000057554, 1.000000000000000000 ) ) ;
#187 = ORIENTED_EDGE ( 'NONE', *, *, #373, .F. ) ;
#188 = CARTESIAN_POINT ( 'NONE',  ( 4.864176017922601680, -7.925000000000010481, 2.000000000000000000 ) ) ;
#189 = DIRECTION ( 'NONE',  ( -0.4999999999999999445, 0.8660254037844387076, 0.000000000000000000 ) ) ;
#190 = EDGE_CURVE ( 'NONE', #328, #169, #126, .T. ) ;
#191 = FACE_OUTER_BOUND ( 'NONE', #480, .T. ) ;
#192 = ORIENTED_EDGE ( 'NONE', *, *, #368, .T. ) ;
#193 = DIRECTION ( 'NONE',  ( -0.4999999999999999445, 0.8660254037844387076, 0.000000000000000000 ) ) ;
#194 = DIRECTION ( 'NONE',  ( -0.5000000000000071054, 0.8660254037844344888, 0.000000000000000000 ) ) ;
#195 = AXIS2_PLACEMENT_3D ( 'NONE', #425, #239, #422 ) ;
#196 = VECTOR ( 'NONE', #194, 1000.000000000000227 ) ;
#197 = DIRECTION ( 'NONE',  ( -1.000000000000000000, 0.000000000000000000, 0.000000000000000000 ) ) ;
#198 = ORIENTED_EDGE ( 'NONE', *, *, #215, .T. ) ;
#199 = CARTESIAN_POINT ( 'NONE',  ( -9.728352035845201584, -5.190781207220917272E-15, 1.499999999999999112 ) ) ;
#200 = CARTESIAN_POINT ( 'NONE',  ( 4.864176017922601680, -8.425000000000011369, 1.499999999999999112 ) ) ;
#201 = CARTESIAN_POINT ( 'NONE',  ( -5.441526287112337101, 9.424999999999943867, 0.000000000000000000 ) ) ;
#202 = ORIENTED_EDGE ( 'NONE', *, *, #158, .T. ) ;
#203 = LINE ( 'NONE', #393, #346 ) ;
#204 = EDGE_CURVE ( 'NONE', #284, #377, #580, .T. ) ;
#205 = FACE_OUTER_BOUND ( 'NONE', #485, .T. ) ;
#206 = VERTEX_POINT ( 'NONE', #536 ) ;
#207 = PLANE ( 'NONE',  #541 ) ;
#208 = VECTOR ( 'NONE', #490, 1000.000000000000000 ) ;
#209 = CARTESIAN_POINT ( 'NONE',  ( -4.864176017922602568, 8.425000000000011369, 1.000000000000000000 ) ) ;
#210 = ORIENTED_EDGE ( 'NONE', *, *, #520, .T. ) ;
#211 = LINE ( 'NONE', #398, #414 ) ;
#212 = VERTEX_POINT ( 'NONE', #544 ) ;
#213 = FILL_AREA_STYLE_COLOUR ( '', #458 ) ;
#214 = ORIENTED_EDGE ( 'NONE', *, *, #364, .F. ) ;
#215 = EDGE_CURVE ( 'NONE', #122, #350, #62, .T. ) ;
#216 = CARTESIAN_POINT ( 'NONE',  ( 4.864176017922599016, 8.425000000000011369, 1.000000000000000000 ) ) ;
#217 = ORIENTED_EDGE ( 'NONE', *, *, #204, .T. ) ;
#218 = VECTOR ( 'NONE', #460, 1000.000000000000114 ) ;
#219 = LINE ( 'NONE', #409, #443 ) ;
#220 = ORIENTED_EDGE ( 'NONE', *, *, #364, .T. ) ;
#221 = EDGE_CURVE ( 'NONE', #212, #279, #259, .T. ) ;
#222 = EDGE_CURVE ( 'NONE', #241, #122, #309, .T. ) ;
#223 = CARTESIAN_POINT ( 'NONE',  ( -4.864176017922602568, 8.425000000000011369, 1.499999999999999112 ) ) ;
#224 = LINE ( 'NONE', #133, #361 ) ;
#225 = VECTOR ( 'NONE', #461, 1000.000000000000000 ) ;
#226 = FACE_OUTER_BOUND ( 'NONE', #357, .T. ) ;
#227 = CARTESIAN_POINT ( 'NONE',  ( -4.864176017922602568, 7.925000000000012257, 2.000000000000000000 ) ) ;
#228 = DIRECTION ( 'NONE',  ( 0.3779644730092246996, -0.6546536707079767536, 0.6546536707079789741 ) ) ;
#229 = VECTOR ( 'NONE', #467, 1000.000000000000000 ) ;
#230 = PLANE ( 'NONE',  #459 ) ;
#231 = DIRECTION ( 'NONE',  ( 1.000000000000000000, 1.052018711052013228E-14, 0.000000000000000000 ) ) ;
#232 = VERTEX_POINT ( 'NONE', #216 ) ;
#233 = EDGE_CURVE ( 'NONE', #471, #447, #587, .T. ) ;
#234 = EDGE_CURVE ( 'NONE', #5, #284, #168, .T. ) ;
#235 = CARTESIAN_POINT ( 'NONE',  ( -5.441526287112204763, -9.425000000000022027, 1.000000000000000000 ) ) ;
#236 = DIRECTION ( 'NONE',  ( -0.4999999999999950040, -0.8660254037844415942, 0.000000000000000000 ) ) ;
#237 = EDGE_LOOP ( 'NONE', ( #108, #264, #530, #523 ) ) ;
#238 = CARTESIAN_POINT ( 'NONE',  ( 10.88305257422445571, 7.599594994510681873E-14, 1.000000000000000000 ) ) ;
#239 = DIRECTION ( 'NONE',  ( 0.000000000000000000, 0.000000000000000000, 1.000000000000000000 ) ) ;
#240 = DIRECTION ( 'NONE',  ( -1.000000000000000000, -3.506729036840045144E-15, 0.000000000000000000 ) ) ;
#241 = VERTEX_POINT ( 'NONE', #542 ) ;
#242 = FACE_OUTER_BOUND ( 'NONE', #585, .T. ) ;
#243 = CARTESIAN_POINT ( 'NONE',  ( -4.864176017922602568, -8.425000000000009592, 2.000000000000000000 ) ) ;
#244 = AXIS2_PLACEMENT_3D ( 'NONE', #339, #389, #576 ) ;
#245 = DIRECTION ( 'NONE',  ( 0.4999999999999951150, 0.8660254037844414832, 0.000000000000000000 ) ) ;
#246 = ORIENTED_EDGE ( 'NONE', *, *, #579, .T. ) ;
#247 = DIRECTION ( 'NONE',  ( -1.000000000000000000, 1.783162728471403980E-16, 0.000000000000000000 ) ) ;
#248 = CARTESIAN_POINT ( 'NONE',  ( -5.441526287112337101, 9.424999999999943867, 1.000000000000000000 ) ) ;
#249 = ORIENTED_EDGE ( 'NONE', *, *, #520, .F. ) ;
#250 = DIRECTION ( 'NONE',  ( -0.8660254037844344888, -0.5000000000000072164, 0.000000000000000000 ) ) ;
#251 = ADVANCED_FACE ( 'NONE', ( #205 ), #70, .F. ) ;
#252 = DIRECTION ( 'NONE',  ( -0.000000000000000000, -0.000000000000000000, -1.000000000000000000 ) ) ;
#253 = VERTEX_POINT ( 'NONE', #495 ) ;
#254 = AXIS2_PLACEMENT_3D ( 'NONE', #183, #334, #327 ) ;
#255 = CARTESIAN_POINT ( 'NONE',  ( 10.88305257422445571, 7.599594994510681873E-14, 0.000000000000000000 ) ) ;
#256 = ORIENTED_EDGE ( 'NONE', *, *, #486, .F. ) ;
#257 = AXIS2_PLACEMENT_3D ( 'NONE', #243, #6, #182 ) ;
#258 = ADVANCED_FACE ( 'NONE', ( #19 ), #391, .F. ) ;
#259 = LINE ( 'NONE', #590, #273 ) ;
#260 = VERTEX_POINT ( 'NONE', #72 ) ;
#261 = LINE ( 'NONE', #160, #498 ) ;
#262 = EDGE_LOOP ( 'NONE', ( #331, #113, #427, #256 ) ) ;
#263 = DIRECTION ( 'NONE',  ( -0.000000000000000000, -0.000000000000000000, -1.000000000000000000 ) ) ;
#264 = ORIENTED_EDGE ( 'NONE', *, *, #1, .T. ) ;
#265 = AXIS2_PLACEMENT_3D ( 'NONE', #28, #123, #444 ) ;
#266 = VECTOR ( 'NONE', #100, 1000.000000000000000 ) ;
#267 = EDGE_CURVE ( 'NONE', #65, #471, #211, .T. ) ;
#268 = DIRECTION ( 'NONE',  ( 0.5000000000000011102, -0.8660254037844380415, 0.000000000000000000 ) ) ;
#269 = EDGE_CURVE ( 'NONE', #447, #232, #166, .T. ) ;
#270 = MANIFOLD_SOLID_BREP ( '\X2\042404300441043a0430\X0\1', #111 ) ;
#271 = PRESENTATION_STYLE_ASSIGNMENT (( #599 ) ) ;
#272 = EDGE_LOOP ( 'NONE', ( #192, #131, #68, #71 ) ) ;
#273 = VECTOR ( 'NONE', #119, 999.9999999999998863 ) ;
#274 = CARTESIAN_POINT ( 'NONE',  ( -5.441526287112204763, -9.425000000000022027, 1.000000000000000000 ) ) ;
#275 = CARTESIAN_POINT ( 'NONE',  ( 4.864176017922601680, -8.425000000000011369, 1.000000000000000000 ) ) ;
#276 = ADVANCED_BREP_SHAPE_REPRESENTATION ( 'nut_plug', ( #270, #383 ), #532 ) ;
#277 = DIRECTION ( 'NONE',  ( -0.6123724356957969128, 0.3535533905932745635, 0.7071067811865450192 ) ) ;
#278 = PLANE ( 'NONE',  #77 ) ;
#279 = VERTEX_POINT ( 'NONE', #37 ) ;
#280 = ADVANCED_FACE ( 'NONE', ( #179 ), #538, .T. ) ;
#281 = VECTOR ( 'NONE', #546, 1000.000000000000114 ) ;
#282 = LINE ( 'NONE', #87, #598 ) ;
#283 = CARTESIAN_POINT ( 'NONE',  ( -5.441526287112204763, -9.425000000000022027, 0.000000000000000000 ) ) ;
#284 = VERTEX_POINT ( 'NONE', #315 ) ;
#285 = DIRECTION ( 'NONE',  ( 0.4999999999999994449, 0.8660254037844389297, 0.000000000000000000 ) ) ;
#286 = DIRECTION ( 'NONE',  ( 0.6123724356957969128, -0.3535533905932746190, 0.7071067811865451302 ) ) ;
#287 = CARTESIAN_POINT ( 'NONE',  ( -3.921857899995250918, 6.792857142857148034, 3.132142857142867332 ) ) ;
#288 = ORIENTED_EDGE ( 'NONE', *, *, #486, .T. ) ;
#289 = DIRECTION ( 'NONE',  ( 1.000000000000000000, 3.506729036840044749E-15, 0.000000000000000000 ) ) ;
#290 = CARTESIAN_POINT ( 'NONE',  ( 5.441526287112270488, -9.424999999999982947, 0.000000000000000000 ) ) ;
#291 = ORIENTED_EDGE ( 'NONE', *, *, #321, .F. ) ;
#292 = DIRECTION ( 'NONE',  ( 1.000000000000000000, 0.000000000000000000, -0.000000000000000000 ) ) ;
#293 = EDGE_CURVE ( 'NONE', #527, #397, #410, .T. ) ;
#294 = VECTOR ( 'NONE', #49, 1000.000000000000000 ) ;
#295 = CARTESIAN_POINT ( 'NONE',  ( -10.88305257422445749, 0.000000000000000000, 0.000000000000000000 ) ) ;
#296 = VECTOR ( 'NONE', #145, 1000.000000000000000 ) ;
#297 = EDGE_CURVE ( 'NONE', #279, #206, #501, .T. ) ;
#298 = DIRECTION ( 'NONE',  ( 0.8660254037844414832, -0.4999999999999951150, 0.000000000000000000 ) ) ;
#299 = ORIENTED_EDGE ( 'NONE', *, *, #105, .F. ) ;
#300 = CARTESIAN_POINT ( 'NONE',  ( -9.728352035845201584, -5.190781207220917272E-15, 1.000000000000000000 ) ) ;
#301 = ORIENTED_EDGE ( 'NONE', *, *, #233, .T. ) ;
#302 = CARTESIAN_POINT ( 'NONE',  ( -9.728352035845201584, -5.190781207220917272E-15, 2.000000000000000000 ) ) ;
#303 = EDGE_LOOP ( 'NONE', ( #455, #161, #92, #29 ) ) ;
#304 = EDGE_CURVE ( 'NONE', #169, #38, #594, .T. ) ;
#305 = AXIS2_PLACEMENT_3D ( 'NONE', #130, #318, #132 ) ;
#306 = CARTESIAN_POINT ( 'NONE',  ( 4.864176017922599016, 8.425000000000011369, 2.000000000000000000 ) ) ;
#307 = ORIENTED_EDGE ( 'NONE', *, *, #66, .T. ) ;
#308 = VECTOR ( 'NONE', #555, 1000.000000000000000 ) ;
#309 = LINE ( 'NONE', #248, #208 ) ;
#310 = EDGE_LOOP ( 'NONE', ( #116, #356, #494, #291, #299, #83 ) ) ;
#311 = CARTESIAN_POINT ( 'NONE',  ( -4.864176017922602568, 8.425000000000011369, 2.000000000000000000 ) ) ;
#312 = ORIENTED_EDGE ( 'NONE', *, *, #293, .T. ) ;
#313 = ADVANCED_FACE ( 'NONE', ( #602 ), #552, .T. ) ;
#314 = ORIENTED_EDGE ( 'NONE', *, *, #234, .T. ) ;
#315 = CARTESIAN_POINT ( 'NONE',  ( 5.441526287112139926, 9.425000000000057554, 0.000000000000000000 ) ) ;
#316 = EDGE_CURVE ( 'NONE', #206, #449, #548, .T. ) ;
#317 = VECTOR ( 'NONE', #380, 1000.000000000000000 ) ;
#318 = DIRECTION ( 'NONE',  ( -0.8660254037844385966, -0.5000000000000003331, 0.000000000000000000 ) ) ;
#319 = DIRECTION ( 'NONE',  ( -0.000000000000000000, -0.000000000000000000, -1.000000000000000000 ) ) ;
#320 = CARTESIAN_POINT ( 'NONE',  ( -4.575500883327792145, 7.925000000000012257, 2.000000000000000000 ) ) ;
#321 = EDGE_CURVE ( 'NONE', #103, #5, #136, .T. ) ;
#322 = PLANE ( 'NONE',  #40 ) ;
#323 = VECTOR ( 'NONE', #197, 1000.000000000000000 ) ;
#324 = DIRECTION ( 'NONE',  ( -1.000000000000000000, 1.783162728471403980E-16, 0.000000000000000000 ) ) ;
#325 = PLANE ( 'NONE',  #570 ) ;
#326 = ADVANCED_FACE ( 'NONE', ( #128 ), #74, .F. ) ;
#327 = DIRECTION ( 'NONE',  ( 1.000000000000000000, 0.000000000000000000, -0.000000000000000000 ) ) ;
#328 = VERTEX_POINT ( 'NONE', #365 ) ;
#329 = FACE_OUTER_BOUND ( 'NONE', #488, .T. ) ;
#330 = FACE_OUTER_BOUND ( 'NONE', #59, .T. ) ;
#331 = ORIENTED_EDGE ( 'NONE', *, *, #297, .T. ) ;
#332 = APPLICATION_PROTOCOL_DEFINITION ( 'draft international standard', 'automotive_design', 1998, #36 ) ;
#333 = DIRECTION ( 'NONE',  ( -0.4999999999999995004, -0.8660254037844390407, 0.000000000000000000 ) ) ;
#334 = DIRECTION ( 'NONE',  ( 0.000000000000000000, 0.7071067811865489050, 0.7071067811865462405 ) ) ;
#335 = ORIENTED_EDGE ( 'NONE', *, *, #417, .T. ) ;
#336 = APPLICATION_CONTEXT ( 'automotive_design' ) ;
#337 = ORIENTED_EDGE ( 'NONE', *, *, #1, .F. ) ;
#338 = LINE ( 'NONE', #200, #554 ) ;
#339 = CARTESIAN_POINT ( 'NONE',  ( -4.864176017922602568, 8.425000000000011369, 2.000000000000000000 ) ) ;
#340 = ORIENTED_EDGE ( 'NONE', *, *, #321, .T. ) ;
#341 = LINE ( 'NONE', #528, #85 ) ;
#342 = FACE_OUTER_BOUND ( 'NONE', #303, .T. ) ;
#343 = EDGE_LOOP ( 'NONE', ( #307, #348, #385, #12 ) ) ;
#344 = PLANE ( 'NONE',  #452 ) ;
#345 = AXIS2_PLACEMENT_3D ( 'NONE', #102, #54, #240 ) ;
#346 = VECTOR ( 'NONE', #247, 1000.000000000000000 ) ;
#347 = CARTESIAN_POINT ( 'NONE',  ( -10.88305257422445749, 0.000000000000000000, 1.000000000000000000 ) ) ;
#348 = ORIENTED_EDGE ( 'NONE', *, *, #417, .F. ) ;
#349 = DIRECTION ( 'NONE',  ( -1.000000000000000000, -1.052018711052013070E-14, 0.000000000000000000 ) ) ;
#350 = VERTEX_POINT ( 'NONE', #274 ) ;
#351 = EDGE_CURVE ( 'NONE', #120, #5, #224, .T. ) ;
#352 = DIRECTION ( 'NONE',  ( -0.5000000000000002220, 0.8660254037844384856, 0.000000000000000000 ) ) ;
#353 = ORIENTED_EDGE ( 'NONE', *, *, #304, .F. ) ;
#354 = VECTOR ( 'NONE', #228, 1000.000000000000227 ) ;
#355 = CARTESIAN_POINT ( 'NONE',  ( -10.88305257422445749, 0.000000000000000000, 1.000000000000000000 ) ) ;
#356 = ORIENTED_EDGE ( 'NONE', *, *, #204, .F. ) ;
#357 = EDGE_LOOP ( 'NONE', ( #144, #567, #23, #73 ) ) ;
#358 = DIRECTION ( 'NONE',  ( -0.000000000000000000, -0.000000000000000000, -1.000000000000000000 ) ) ;
#359 = ORIENTED_EDGE ( 'NONE', *, *, #162, .F. ) ;
#360 =( LENGTH_UNIT ( ) NAMED_UNIT ( * ) SI_UNIT ( .MILLI., .METRE. ) );
#361 = VECTOR ( 'NONE', #319, 1000.000000000000000 ) ;
#362 = DIRECTION ( 'NONE',  ( 0.6123724356957962467, 0.3535533905932750076, 0.7071067811865453523 ) ) ;
#363 = CARTESIAN_POINT ( 'NONE',  ( 10.88305257422445571, 7.599594994510681873E-14, 0.000000000000000000 ) ) ;
#364 = EDGE_CURVE ( 'NONE', #449, #447, #34, .T. ) ;
#365 = CARTESIAN_POINT ( 'NONE',  ( -4.864176017922602568, 8.425000000000011369, 1.499999999999999112 ) ) ;
#366 = LINE ( 'NONE', #223, #481 ) ;
#367 = DIRECTION ( 'NONE',  ( -0.4999999999999994449, -0.8660254037844389297, 0.000000000000000000 ) ) ;
#368 = EDGE_CURVE ( 'NONE', #212, #449, #453, .T. ) ;
#369 = FACE_OUTER_BOUND ( 'NONE', #164, .T. ) ;
#370 = LINE ( 'NONE', #201, #420 ) ;
#371 = ORIENTED_EDGE ( 'NONE', *, *, #462, .T. ) ;
#372 = LINE ( 'NONE', #137, #196 ) ;
#373 = EDGE_CURVE ( 'NONE', #405, #573, #219, .T. ) ;
#374 = DIRECTION ( 'NONE',  ( -0.5000000000000012212, 0.8660254037844380415, 0.000000000000000000 ) ) ;
#375 = ORIENTED_EDGE ( 'NONE', *, *, #561, .T. ) ;
#376 = CARTESIAN_POINT ( 'NONE',  ( -6.863251324991685998, -3.962500000000005240, 2.000000000000000000 ) ) ;
#377 = VERTEX_POINT ( 'NONE', #82 ) ;
#378 = DIRECTION ( 'NONE',  ( -0.4999999999999994449, -0.8660254037844389297, 0.000000000000000000 ) ) ;
#379 = PRODUCT_DEFINITION_SHAPE ( 'NONE', 'NONE',  #601 ) ;
#380 = DIRECTION ( 'NONE',  ( 1.000000000000000000, 3.506729036840044749E-15, 0.000000000000000000 ) ) ;
#381 = ORIENTED_EDGE ( 'NONE', *, *, #561, .F. ) ;
#382 = AXIS2_PLACEMENT_3D ( 'NONE', #306, #64, #121 ) ;
#383 = AXIS2_PLACEMENT_3D ( 'NONE', #477, #157, #386 ) ;
#384 = DIRECTION ( 'NONE',  ( -0.000000000000000000, -0.000000000000000000, -1.000000000000000000 ) ) ;
#385 = ORIENTED_EDGE ( 'NONE', *, *, #368, .F. ) ;
#386 = DIRECTION ( 'NONE',  ( 1.000000000000000000, 0.000000000000000000, 0.000000000000000000 ) ) ;
#387 = ADVANCED_FACE ( 'NONE', ( #226 ), #322, .T. ) ;
#388 = FACE_OUTER_BOUND ( 'NONE', #507, .T. ) ;
#389 = DIRECTION ( 'NONE',  ( 0.8660254037844390407, -0.4999999999999994449, 0.000000000000000000 ) ) ;
#390 = ORIENTED_EDGE ( 'NONE', *, *, #413, .T. ) ;
#391 = PLANE ( 'NONE',  #265 ) ;
#392 = ORIENTED_EDGE ( 'NONE', *, *, #519, .T. ) ;
#393 = CARTESIAN_POINT ( 'NONE',  ( -4.864176017922602568, -8.425000000000009592, 1.499999999999999556 ) ) ;
#394 = MECHANICAL_DESIGN_GEOMETRIC_PRESENTATION_REPRESENTATION (  '', ( #13 ), #402 ) ;
#395 = ADVANCED_FACE ( 'NONE', ( #469, #329 ), #45, .T. ) ;
#396 = DIRECTION ( 'NONE',  ( -0.000000000000000000, -0.000000000000000000, -1.000000000000000000 ) ) ;
#397 = VERTEX_POINT ( 'NONE', #418 ) ;
#398 = CARTESIAN_POINT ( 'NONE',  ( -4.864176017922602568, -8.425000000000009592, 1.000000000000000000 ) ) ;
#399 = EDGE_LOOP ( 'NONE', ( #314, #55, #515, #31 ) ) ;
#400 = SURFACE_STYLE_FILL_AREA ( #448 ) ;
#401 = ORIENTED_EDGE ( 'NONE', *, *, #269, .F. ) ;
#402 =( GEOMETRIC_REPRESENTATION_CONTEXT ( 3 ) GLOBAL_UNCERTAINTY_ASSIGNED_CONTEXT ( ( #25 ) ) GLOBAL_UNIT_ASSIGNED_CONTEXT ( ( #360, #80, #457 ) ) REPRESENTATION_CONTEXT ( 'NONE', 'WORKASPACE' ) );
#403 = VECTOR ( 'NONE', #67, 1000.000000000000227 ) ;
#404 = DIRECTION ( 'NONE',  ( 0.4999999999999995004, 0.8660254037844389297, 0.000000000000000000 ) ) ;
#405 = VERTEX_POINT ( 'NONE', #603 ) ;
#406 = EDGE_CURVE ( 'NONE', #253, #120, #513, .T. ) ;
#407 = VECTOR ( 'NONE', #2, 1000.000000000000000 ) ;
#408 = ORIENTED_EDGE ( 'NONE', *, *, #506, .T. ) ;
#409 = CARTESIAN_POINT ( 'NONE',  ( -9.728352035845201584, -5.309094180458694701E-15, 1.499999999999999112 ) ) ;
#410 = LINE ( 'NONE', #600, #604 ) ;
#411 = PRODUCT ( 'nut_plug', 'nut_plug', '', ( #563 ) ) ;
#412 = CARTESIAN_POINT ( 'NONE',  ( 7.843715799990501836, 6.071532165918824830E-15, 3.132142857142860226 ) ) ;
#413 = EDGE_CURVE ( 'NONE', #328, #206, #430, .T. ) ;
#414 = VECTOR ( 'NONE', #584, 1000.000000000000000 ) ;
#415 = DIRECTION ( 'NONE',  ( 0.000000000000000000, 0.000000000000000000, 1.000000000000000000 ) ) ;
#416 = DIRECTION ( 'NONE',  ( 0.3779644730092249216, 0.6546536707079766426, -0.6546536707079789741 ) ) ;
#417 = EDGE_CURVE ( 'NONE', #449, #535, #338, .T. ) ;
#418 = CARTESIAN_POINT ( 'NONE',  ( -5.441526287112204763, -9.425000000000022027, 0.000000000000000000 ) ) ;
#419 = FACE_OUTER_BOUND ( 'NONE', #262, .T. ) ;
#420 = VECTOR ( 'NONE', #470, 1000.000000000000000 ) ;
#421 = PRODUCT_DEFINITION_FORMATION_WITH_SPECIFIED_SOURCE ( 'ANY', '', #411, .NOT_KNOWN. ) ;
#422 = DIRECTION ( 'NONE',  ( 1.000000000000000000, 0.000000000000000000, -0.000000000000000000 ) ) ;
#423 = DIRECTION ( 'NONE',  ( 0.8660254037844380415, 0.5000000000000012212, -0.000000000000000000 ) ) ;
#424 = ORIENTED_EDGE ( 'NONE', *, *, #473, .T. ) ;
#425 = CARTESIAN_POINT ( 'NONE',  ( 0.000000000000000000, 0.000000000000000000, 1.000000000000000000 ) ) ;
#426 = CARTESIAN_POINT ( 'NONE',  ( -4.864176017922602568, -8.425000000000009592, 2.000000000000000000 ) ) ;
#427 = ORIENTED_EDGE ( 'NONE', *, *, #81, .T. ) ;
#428 = DIRECTION ( 'NONE',  ( -0.6123724356957964687, -0.3535533905932747856, 0.7071067811865453523 ) ) ;
#429 = ADVANCED_FACE ( 'NONE', ( #388 ), #151, .F. ) ;
#430 = LINE ( 'NONE', #565, #294 ) ;
#431 = PLANE ( 'NONE',  #135 ) ;
#432 = ORIENTED_EDGE ( 'NONE', *, *, #233, .F. ) ;
#433 = VECTOR ( 'NONE', #521, 1000.000000000000000 ) ;
#434 = DIRECTION ( 'NONE',  ( 0.8660254037844387076, 0.4999999999999999445, -0.000000000000000000 ) ) ;
#435 = LINE ( 'NONE', #143, #323 ) ;
#436 = ORIENTED_EDGE ( 'NONE', *, *, #180, .T. ) ;
#437 = DIRECTION ( 'NONE',  ( 0.5000000000000011102, -0.8660254037844380415, 0.000000000000000000 ) ) ;
#438 = EDGE_LOOP ( 'NONE', ( #577, #511, #220, #557 ) ) ;
#439 = LINE ( 'NONE', #21, #97 ) ;
#440 = EDGE_CURVE ( 'NONE', #539, #63, #575, .T. ) ;
#441 = CARTESIAN_POINT ( 'NONE',  ( 5.441526287112270488, -9.424999999999982947, 1.000000000000000000 ) ) ;
#442 = EDGE_LOOP ( 'NONE', ( #353, #562, #401, #432, #4, #17 ) ) ;
#443 = VECTOR ( 'NONE', #502, 1000.000000000000227 ) ;
#444 = DIRECTION ( 'NONE',  ( -0.4999999999999994449, -0.8660254037844389297, 0.000000000000000000 ) ) ;
#445 = ORIENTED_EDGE ( 'NONE', *, *, #267, .T. ) ;
#446 = CARTESIAN_POINT ( 'NONE',  ( 9.728352035845201584, 5.864445014597906729E-15, 1.000000000000000000 ) ) ;
#447 = VERTEX_POINT ( 'NONE', #505 ) ;
#448 = FILL_AREA_STYLE ('',( #213 ) ) ;
#449 = VERTEX_POINT ( 'NONE', #95 ) ;
#450 = ADVANCED_FACE ( 'NONE', ( #369 ), #230, .T. ) ;
#451 = VECTOR ( 'NONE', #582, 1000.000000000000000 ) ;
#452 = AXIS2_PLACEMENT_3D ( 'NONE', #238, #250, #56 ) ;
#453 = LINE ( 'NONE', #412, #218 ) ;
#454 = ORIENTED_EDGE ( 'NONE', *, *, #440, .F. ) ;
#455 = ORIENTED_EDGE ( 'NONE', *, *, #117, .T. ) ;
#456 = ADVANCED_FACE ( 'NONE', ( #509 ), #142, .F. ) ;
#457 =( NAMED_UNIT ( * ) SI_UNIT ( $, .STERADIAN. ) SOLID_ANGLE_UNIT ( ) );
#458 = COLOUR_RGB ( '',0.7921568627450980005, 0.8196078431372548767, 0.9333333333333333481 ) ;
#459 = AXIS2_PLACEMENT_3D ( 'NONE', #90, #277, #463 ) ;
#460 = DIRECTION ( 'NONE',  ( 0.7559289460184523968, 7.307436935524680887E-16, -0.6546536707079795292 ) ) ;
#461 = DIRECTION ( 'NONE',  ( -0.000000000000000000, -0.000000000000000000, -1.000000000000000000 ) ) ;
#462 = EDGE_CURVE ( 'NONE', #405, #63, #282, .T. ) ;
#463 = DIRECTION ( 'NONE',  ( 0.4999999999999993894, 0.8660254037844389297, -0.000000000000000000 ) ) ;
#464 = CARTESIAN_POINT ( 'NONE',  ( 3.921857899995267349, -6.792857142857161357, 3.132142857142846015 ) ) ;
#465 = ORIENTED_EDGE ( 'NONE', *, *, #473, .F. ) ;
#466 = VECTOR ( 'NONE', #396, 1000.000000000000000 ) ;
#467 = DIRECTION ( 'NONE',  ( -1.000000000000000000, -1.052018711052013070E-14, 0.000000000000000000 ) ) ;
#468 = VECTOR ( 'NONE', #154, 1000.000000000000114 ) ;
#469 = FACE_BOUND ( 'NONE', #442, .T. ) ;
#470 = DIRECTION ( 'NONE',  ( -0.4999999999999951705, -0.8660254037844414832, 0.000000000000000000 ) ) ;
#471 = VERTEX_POINT ( 'NONE', #275 ) ;
#472 = CARTESIAN_POINT ( 'NONE',  ( -9.151001766655578962, -3.072683843053235809E-15, 2.000000000000000000 ) ) ;
#473 = EDGE_CURVE ( 'NONE', #350, #397, #185, .T. ) ;
#474 = LINE ( 'NONE', #53, #14 ) ;
#475 = PLANE ( 'NONE',  #345 ) ;
#476 = ORIENTED_EDGE ( 'NONE', *, *, #351, .F. ) ;
#477 = CARTESIAN_POINT ( 'NONE',  ( 0.000000000000000000, 0.000000000000000000, 0.000000000000000000 ) ) ;
#478 = LINE ( 'NONE', #57, #468 ) ;
#479 = LINE ( 'NONE', #605, #516 ) ;
#480 = EDGE_LOOP ( 'NONE', ( #340, #476, #99, #167 ) ) ;
#481 = VECTOR ( 'NONE', #178, 1000.000000000000114 ) ;
#482 = AXIS2_PLACEMENT_3D ( 'NONE', #52, #141, #292 ) ;
#483 = FACE_OUTER_BOUND ( 'NONE', #399, .T. ) ;
#484 = CARTESIAN_POINT ( 'NONE',  ( -10.88305257422445749, 0.000000000000000000, 1.000000000000000000 ) ) ;
#485 = EDGE_LOOP ( 'NONE', ( #51, #390, #42, #583 ) ) ;
#486 = EDGE_CURVE ( 'NONE', #279, #20, #43, .T. ) ;
#487 = DIRECTION ( 'NONE',  ( 0.4999999999999999445, -0.8660254037844387076, 0.000000000000000000 ) ) ;
#488 = EDGE_LOOP ( 'NONE', ( #184, #198, #408, #153, #593, #149 ) ) ;
#489 = EDGE_CURVE ( 'NONE', #120, #47, #372, .T. ) ;
#490 = DIRECTION ( 'NONE',  ( -0.4999999999999951705, -0.8660254037844414832, 0.000000000000000000 ) ) ;
#491 = ORIENTED_EDGE ( 'NONE', *, *, #506, .F. ) ;
#492 = VECTOR ( 'NONE', #139, 1000.000000000000000 ) ;
#493 = CARTESIAN_POINT ( 'NONE',  ( 4.864176017922601680, -8.425000000000011369, 1.000000000000000000 ) ) ;
#494 = ORIENTED_EDGE ( 'NONE', *, *, #234, .F. ) ;
#495 = CARTESIAN_POINT ( 'NONE',  ( 5.441526287112270488, -9.424999999999982947, 1.000000000000000000 ) ) ;
#496 = EDGE_LOOP ( 'NONE', ( #8, #359, #491, #424 ) ) ;
#497 = EDGE_LOOP ( 'NONE', ( #312, #465, #156, #202 ) ) ;
#498 = VECTOR ( 'NONE', #358, 1000.000000000000000 ) ;
#499 = CARTESIAN_POINT ( 'NONE',  ( 3.921857899995249142, 6.792857142857152475, 3.132142857142863779 ) ) ;
#500 = ADVANCED_FACE ( 'NONE', ( #146 ), #325, .T. ) ;
#501 = LINE ( 'NONE', #499, #134 ) ;
#502 = DIRECTION ( 'NONE',  ( -0.4999999999999998890, 0.8660254037844385966, 0.000000000000000000 ) ) ;
#503 = CARTESIAN_POINT ( 'NONE',  ( -1.413156462313589325E-15, -7.925000000000008704, 2.000000000000000000 ) ) ;
#504 = EDGE_CURVE ( 'NONE', #241, #377, #474, .T. ) ;
#505 = CARTESIAN_POINT ( 'NONE',  ( 9.728352035845201584, 5.864445014597906729E-15, 1.000000000000000000 ) ) ;
#506 = EDGE_CURVE ( 'NONE', #350, #253, #571, .T. ) ;
#507 = EDGE_LOOP ( 'NONE', ( #381, #246, #127, #445 ) ) ;
#508 = ORIENTED_EDGE ( 'NONE', *, *, #373, .T. ) ;
#509 = FACE_OUTER_BOUND ( 'NONE', #140, .T. ) ;
#510 = LINE ( 'NONE', #464, #492 ) ;
#511 = ORIENTED_EDGE ( 'NONE', *, *, #316, .T. ) ;
#512 =( NAMED_UNIT ( * ) SI_UNIT ( $, .STERADIAN. ) SOLID_ANGLE_UNIT ( ) );
#513 = LINE ( 'NONE', #15, #433 ) ;
#514 = CARTESIAN_POINT ( 'NONE',  ( 5.441526287112270488, -9.424999999999982947, 1.000000000000000000 ) ) ;
#515 = ORIENTED_EDGE ( 'NONE', *, *, #489, .F. ) ;
#516 = VECTOR ( 'NONE', #7, 1000.000000000000000 ) ;
#517 = CARTESIAN_POINT ( 'NONE',  ( 4.864176017922601680, -8.425000000000011369, 1.499999999999999556 ) ) ;
#518 = AXIS2_PLACEMENT_3D ( 'NONE', #525, #434, #189 ) ;
#519 = EDGE_CURVE ( 'NONE', #573, #539, #478, .T. ) ;
#520 = EDGE_CURVE ( 'NONE', #20, #539, #341, .T. ) ;
#521 = DIRECTION ( 'NONE',  ( 0.4999999999999950595, 0.8660254037844415942, 0.000000000000000000 ) ) ;
#522 = FACE_OUTER_BOUND ( 'NONE', #496, .T. ) ;
#523 = ORIENTED_EDGE ( 'NONE', *, *, #304, .T. ) ;
#524 = ORIENTED_EDGE ( 'NONE', *, *, #176, .T. ) ;
#525 = CARTESIAN_POINT ( 'NONE',  ( -9.728352035845201584, -5.190781207220917272E-15, 2.000000000000000000 ) ) ;
#526 = LINE ( 'NONE', #283, #317 ) ;
#527 = VERTEX_POINT ( 'NONE', #295 ) ;
#528 = CARTESIAN_POINT ( 'NONE',  ( -9.295339333952984617, -0.2500000000000032752, 2.000000000000000000 ) ) ;
#529 = DIRECTION ( 'NONE',  ( -0.8660254037844415942, 0.4999999999999950040, 0.000000000000000000 ) ) ;
#530 = ORIENTED_EDGE ( 'NONE', *, *, #190, .T. ) ;
#531 = AXIS2_PLACEMENT_3D ( 'NONE', #186, #98, #231 ) ;
#532 =( GEOMETRIC_REPRESENTATION_CONTEXT ( 3 ) GLOBAL_UNCERTAINTY_ASSIGNED_CONTEXT ( ( #173 ) ) GLOBAL_UNIT_ASSIGNED_CONTEXT ( ( #9, #18, #512 ) ) REPRESENTATION_CONTEXT ( 'NONE', 'WORKASPACE' ) );
#533 = ADVANCED_FACE ( 'NONE', ( #483 ), #344, .F. ) ;
#534 = LINE ( 'NONE', #441, #466 ) ;
#535 = VERTEX_POINT ( 'NONE', #517 ) ;
#536 = CARTESIAN_POINT ( 'NONE',  ( 4.864176017922599016, 8.425000000000011369, 1.500000000000000000 ) ) ;
#537 = ORIENTED_EDGE ( 'NONE', *, *, #118, .F. ) ;
#538 = PLANE ( 'NONE',  #69 ) ;
#539 = VERTEX_POINT ( 'NONE', #472 ) ;
#540 = VECTOR ( 'NONE', #437, 1000.000000000000114 ) ;
#541 = AXIS2_PLACEMENT_3D ( 'NONE', #376, #428, #193 ) ;
#542 = CARTESIAN_POINT ( 'NONE',  ( -5.441526287112337101, 9.424999999999943867, 1.000000000000000000 ) ) ;
#543 = EDGE_LOOP ( 'NONE', ( #75, #288, #210, #171, #588, #564 ) ) ;
#544 = CARTESIAN_POINT ( 'NONE',  ( 9.151001766655578962, 6.184501495915629216E-15, 2.000000000000000000 ) ) ;
#545 = ORIENTED_EDGE ( 'NONE', *, *, #175, .T. ) ;
#546 = DIRECTION ( 'NONE',  ( 0.5000000000000002220, -0.8660254037844384856, -0.000000000000000000 ) ) ;
#547 = VECTOR ( 'NONE', #352, 1000.000000000000114 ) ;
#548 = LINE ( 'NONE', #177, #281 ) ;
#549 = CARTESIAN_POINT ( 'NONE',  ( 0.000000000000000000, 0.000000000000000000, 2.000000000000000000 ) ) ;
#550 = DIRECTION ( 'NONE',  ( 0.5000000000000002220, -0.8660254037844384856, 0.000000000000000000 ) ) ;
#551 = EDGE_CURVE ( 'NONE', #47, #241, #104, .T. ) ;
#552 = PLANE ( 'NONE',  #568 ) ;
#553 = VECTOR ( 'NONE', #30, 1000.000000000000000 ) ;
#554 = VECTOR ( 'NONE', #333, 999.9999999999998863 ) ;
#555 = DIRECTION ( 'NONE',  ( -1.000000000000000000, 0.000000000000000000, 0.000000000000000000 ) ) ;
#556 = CARTESIAN_POINT ( 'NONE',  ( 5.441526287112139926, 9.425000000000057554, 1.000000000000000000 ) ) ;
#557 = ORIENTED_EDGE ( 'NONE', *, *, #269, .T. ) ;
#558 = CARTESIAN_POINT ( 'NONE',  ( 6.863251324991685998, -3.962499999999999911, 2.000000000000000000 ) ) ;
#559 = EDGE_CURVE ( 'NONE', #63, #260, #61, .T. ) ;
#560 = CARTESIAN_POINT ( 'NONE',  ( -4.864176017922602568, -8.425000000000009592, 1.000000000000000000 ) ) ;
#561 = EDGE_CURVE ( 'NONE', #535, #471, #94, .T. ) ;
#562 = ORIENTED_EDGE ( 'NONE', *, *, #76, .F. ) ;
#563 = PRODUCT_CONTEXT ( 'NONE', #336, 'mechanical' ) ;
#564 = ORIENTED_EDGE ( 'NONE', *, *, #586, .T. ) ;
#565 = CARTESIAN_POINT ( 'NONE',  ( 4.864176017922599016, 8.425000000000011369, 1.499999999999999556 ) ) ;
#566 = DIRECTION ( 'NONE',  ( -0.000000000000000000, -0.000000000000000000, -1.000000000000000000 ) ) ;
#567 = ORIENTED_EDGE ( 'NONE', *, *, #579, .F. ) ;
#568 = AXIS2_PLACEMENT_3D ( 'NONE', #549, #415, #174 ) ;
#569 = FACE_OUTER_BOUND ( 'NONE', #310, .T. ) ;
#570 = AXIS2_PLACEMENT_3D ( 'NONE', #558, #286, #378 ) ;
#571 = LINE ( 'NONE', #106, #78 ) ;
#572 = CARTESIAN_POINT ( 'NONE',  ( -10.88305257422445749, 0.000000000000000000, 1.000000000000000000 ) ) ;
#573 = VERTEX_POINT ( 'NONE', #199 ) ;
#574 = SHAPE_DEFINITION_REPRESENTATION ( #379, #276 ) ;
#575 = LINE ( 'NONE', #10, #407 ) ;
#576 = DIRECTION ( 'NONE',  ( 0.4999999999999993894, 0.8660254037844389297, 0.000000000000000000 ) ) ;
#577 = ORIENTED_EDGE ( 'NONE', *, *, #26, .F. ) ;
#578 = APPLICATION_PROTOCOL_DEFINITION ( 'draft international standard', 'automotive_design', 1998, #336 ) ;
#579 = EDGE_CURVE ( 'NONE', #535, #405, #203, .T. ) ;
#580 = LINE ( 'NONE', #163, #597 ) ;
#581 = ORIENTED_EDGE ( 'NONE', *, *, #504, .F. ) ;
#582 = DIRECTION ( 'NONE',  ( -0.000000000000000000, -0.000000000000000000, -1.000000000000000000 ) ) ;
#583 = ORIENTED_EDGE ( 'NONE', *, *, #76, .T. ) ;
#584 = DIRECTION ( 'NONE',  ( 1.000000000000000000, -1.783162728471404226E-16, 0.000000000000000000 ) ) ;
#585 = EDGE_LOOP ( 'NONE', ( #371, #454, #33, #187 ) ) ;
#586 = EDGE_CURVE ( 'NONE', #260, #212, #439, .T. ) ;
#587 = LINE ( 'NONE', #493, #181 ) ;
#588 = ORIENTED_EDGE ( 'NONE', *, *, #559, .T. ) ;
#589 = VECTOR ( 'NONE', #367, 1000.000000000000114 ) ;
#590 = CARTESIAN_POINT ( 'NONE',  ( 4.431163316030382049, 8.175000000000011369, 2.000000000000000000 ) ) ;
#591 = EDGE_LOOP ( 'NONE', ( #214, #335, #375, #301 ) ) ;
#592 = ADVANCED_FACE ( 'NONE', ( #242 ), #207, .T. ) ;
#593 = ORIENTED_EDGE ( 'NONE', *, *, #489, .T. ) ;
#594 = LINE ( 'NONE', #596, #589 ) ;
#595 = ADVANCED_FACE ( 'NONE', ( #569 ), #109, .F. ) ;
#596 = CARTESIAN_POINT ( 'NONE',  ( -4.864176017922602568, 8.425000000000011369, 1.000000000000000000 ) ) ;
#597 = VECTOR ( 'NONE', #349, 1000.000000000000000 ) ;
#598 = VECTOR ( 'NONE', #101, 1000.000000000000000 ) ;
#599 = SURFACE_STYLE_USAGE ( .BOTH. , #32 ) ;
#600 = CARTESIAN_POINT ( 'NONE',  ( -10.88305257422445749, 0.000000000000000000, 0.000000000000000000 ) ) ;
#601 = PRODUCT_DEFINITION ( 'UNKNOWN', '', #421, #165 ) ;
#602 = FACE_OUTER_BOUND ( 'NONE', #543, .T. ) ;
#603 = CARTESIAN_POINT ( 'NONE',  ( -4.864176017922602568, -8.425000000000009592, 1.499999999999999112 ) ) ;
#604 = VECTOR ( 'NONE', #268, 1000.000000000000114 ) ;
#605 = CARTESIAN_POINT ( 'NONE',  ( 4.864176017922599016, 8.425000000000011369, 2.000000000000000000 ) ) ;
ENDSEC;
END-ISO-10303-21;
