solid stand
facet normal -0.9989887122998385 -0.04496168032347462 8.48790750859117e-14
  outer loop
    vertex -442.340898065555 936.6696602070175 -18.616503542315712
    vertex -442.2567114464709 934.7991455468411 -11.398803542314978
    vertex -442.3408980655544 936.6696602070177 -11.398803542314978
  endloop
endfacet
facet normal -0.9989887122998385 -0.04496168032347462 8.48790750859117e-14
  outer loop
    vertex -442.2567114464709 934.7991455468411 -11.398803542314978
    vertex -442.340898065555 936.6696602070175 -18.616503542315712
    vertex -442.2567114464713 934.7991455468408 -18.616503542315712
  endloop
endfacet
facet normal 0.5811262984551883 -0.8138133847779672 -3.0535634566073224e-14
  outer loop
    vertex -466.7953801078155 948.2365467307455 -18.61650354231395
    vertex -464.4271831581114 949.9276242592504 -11.398803542313715
    vertex -466.79538010781505 948.2365467307459 -11.39880354231358
  endloop
endfacet
facet normal 0.5811262984551883 -0.8138133847779672 -3.0535634566073224e-14
  outer loop
    vertex -464.4271831581114 949.9276242592504 -11.398803542313715
    vertex -466.7953801078155 948.2365467307455 -18.61650354231395
    vertex -464.4271831581117 949.9276242592504 -18.616503542314447
  endloop
endfacet
facet normal 0.8598522715968578 -0.510542917911632 -3.1981152139676905e-14
  outer loop
    vertex -469.7521419796942 943.2567921931533 -11.398803542312677
    vertex -466.7953801078155 948.2365467307455 -18.61650354231395
    vertex -466.79538010781505 948.2365467307459 -11.39880354231358
  endloop
endfacet
facet normal 0.8598522715968578 -0.510542917911632 -3.1981152139676905e-14
  outer loop
    vertex -466.7953801078155 948.2365467307455 -18.61650354231395
    vertex -469.7521419796942 943.2567921931533 -11.398803542312677
    vertex -469.7521419796948 943.256792193153 -18.61650354231341
  endloop
endfacet
facet normal -0.5146725175556197 -0.8573868436551616 6.244004716119702e-14
  outer loop
    vertex -464.4271831581117 949.9276242592504 -18.616503542314447
    vertex -442.3408980655544 936.6696602070177 -11.398803542314978
    vertex -464.4271831581114 949.9276242592504 -11.398803542313715
  endloop
endfacet
facet normal -0.5146725175556197 -0.8573868436551616 6.244004716119702e-14
  outer loop
    vertex -442.3408980655544 936.6696602070177 -11.398803542314978
    vertex -464.4271831581117 949.9276242592504 -18.616503542314447
    vertex -442.340898065555 936.6696602070175 -18.616503542315712
  endloop
endfacet
facet normal -0.036377476056335206 -0.9993381205756994 3.077649502568344e-14
  outer loop
    vertex -446.0451972401958 926.4599090864433 -18.616503542315147
    vertex -443.843093872075 926.3797490676291 -11.398803542314708
    vertex -446.04519724019536 926.4599090864436 -11.398803542314596
  endloop
endfacet
facet normal -0.036377476056335206 -0.9993381205756994 3.077649502568344e-14
  outer loop
    vertex -443.843093872075 926.3797490676291 -11.398803542314708
    vertex -446.0451972401958 926.4599090864433 -18.616503542315147
    vertex -443.8430938720756 926.3797490676288 -18.61650354231526
  endloop
endfacet
facet normal -0.8598522715968546 0.5105429179116379 3.2918574689496444e-14
  outer loop
    vertex -442.2567114464713 934.7991455468408 -18.616503542315712
    vertex -446.6020032857501 927.4808400182112 -11.39880354231437
    vertex -442.2567114464709 934.7991455468411 -11.398803542314978
  endloop
endfacet
facet normal -0.8598522715968546 0.5105429179116379 3.2918574689496444e-14
  outer loop
    vertex -446.6020032857501 927.4808400182112 -11.39880354231437
    vertex -442.2567114464713 934.7991455468408 -18.616503542315712
    vertex -446.60200328575047 927.4808400182109 -18.61650354231492
  endloop
endfacet
facet normal 0.24391307966565803 -0.9697970971125941 1.4109220614655381e-14
  outer loop
    vertex -443.8430938720756 926.3797490676288 -18.61650354231526
    vertex -442.82511524356187 926.6357802550327 -11.398803542314775
    vertex -443.843093872075 926.3797490676291 -11.398803542314708
  endloop
endfacet
facet normal 0.24391307966565803 -0.9697970971125941 1.4109220614655381e-14
  outer loop
    vertex -442.82511524356187 926.6357802550327 -11.398803542314775
    vertex -443.8430938720756 926.3797490676288 -18.61650354231526
    vertex -442.8251152435623 926.6357802550326 -18.61650354231533
  endloop
endfacet
facet normal -0.44594784263687365 -0.8950589486997591 5.088546353614876e-14
  outer loop
    vertex -446.6798167836124 926.7760974410684 -18.61650354231492
    vertex -446.04519724019536 926.4599090864436 -11.398803542314596
    vertex -446.67981678361195 926.7760974410686 -11.39880354231437
  endloop
endfacet
facet normal -0.44594784263687365 -0.8950589486997591 5.088546353614876e-14
  outer loop
    vertex -446.04519724019536 926.4599090864436 -11.398803542314596
    vertex -446.6798167836124 926.7760974410684 -18.61650354231492
    vertex -446.0451972401958 926.4599090864433 -18.616503542315147
  endloop
endfacet
facet normal 0.646307973104942 -0.7630766697396676 -1.453538903528767e-14
  outer loop
    vertex -442.8251152435623 926.6357802550326 -18.61650354231533
    vertex -442.0241273420463 927.3141981488557 -11.398803542314822
    vertex -442.82511524356187 926.6357802550327 -11.398803542314775
  endloop
endfacet
facet normal 0.646307973104942 -0.7630766697396676 -1.453538903528767e-14
  outer loop
    vertex -442.0241273420463 927.3141981488557 -11.398803542314822
    vertex -442.8251152435623 926.6357802550326 -18.61650354231533
    vertex -442.02412734204665 927.3141981488553 -18.61650354231537
  endloop
endfacet
facet normal -0.9939595411844342 0.10974712063844375 5.292653416719897e-14
  outer loop
    vertex -446.60200328575047 927.4808400182109 -18.61650354231492
    vertex -446.67981678361195 926.7760974410686 -11.39880354231437
    vertex -446.6020032857501 927.4808400182112 -11.39880354231437
  endloop
endfacet
facet normal -0.9939595411844342 0.10974712063844375 5.292653416719897e-14
  outer loop
    vertex -446.67981678361195 926.7760974410686 -11.39880354231437
    vertex -446.60200328575047 927.4808400182109 -18.61650354231492
    vertex -446.6798167836124 926.7760974410684 -18.61650354231492
  endloop
endfacet
facet normal 0.8335596805280862 -0.5524294153988499 -3.230904992010718e-14
  outer loop
    vertex -442.0241273420463 927.3141981488557 -11.398803542314822
    vertex -434.68921675984666 938.3818305941451 -18.6165035423158
    vertex -434.6892167598462 938.3818305941451 -11.398803542315068
  endloop
endfacet
facet normal 0.8335596805280862 -0.5524294153988499 -3.230904992010718e-14
  outer loop
    vertex -434.68921675984666 938.3818305941451 -18.6165035423158
    vertex -442.0241273420463 927.3141981488557 -11.398803542314822
    vertex -442.02412734204665 927.3141981488553 -18.61650354231537
  endloop
endfacet
facet normal -0.9389407098711404 0.34407897835624723 5.829794669708567e-14
  outer loop
    vertex -495.841853119338 950.8838100051184 -18.616503542312103
    vertex -494.51952568030896 954.4922462723233 -11.3988035423127
    vertex -494.5195256803094 954.4922462723235 -18.616503542312348
  endloop
endfacet
facet normal -0.9389407098711404 0.34407897835624723 5.829794669708567e-14
  outer loop
    vertex -494.51952568030896 954.4922462723233 -11.3988035423127
    vertex -495.841853119338 950.8838100051184 -18.616503542312103
    vertex -495.84185311933743 950.8838100051188 -11.39880354231155
  endloop
endfacet
facet normal -0.999820597630345 0.01894129230279256 6.28261467970505e-14
  outer loop
    vertex -495.841853119338 950.8838100051184 -18.616503542312103
    vertex -495.85790856334916 950.0363195926204 -11.39880354231155
    vertex -495.84185311933743 950.8838100051188 -11.39880354231155
  endloop
endfacet
facet normal -0.999820597630345 0.01894129230279256 6.28261467970505e-14
  outer loop
    vertex -495.85790856334916 950.0363195926204 -11.39880354231155
    vertex -495.841853119338 950.8838100051184 -18.616503542312103
    vertex -495.85790856334955 950.0363195926201 -18.616503542312103
  endloop
endfacet
facet normal -0.8168122786199445 -0.5769035460938806 6.726017804609842e-14
  outer loop
    vertex -495.85790856334955 950.0363195926201 -18.616503542312103
    vertex -495.3689006099127 949.3439548057958 -11.398803542311391
    vertex -495.85790856334916 950.0363195926204 -11.39880354231155
  endloop
endfacet
facet normal -0.8168122786199445 -0.5769035460938806 6.726017804609842e-14
  outer loop
    vertex -495.3689006099127 949.3439548057958 -11.398803542311391
    vertex -495.85790856334955 950.0363195926201 -18.616503542312103
    vertex -495.368900609913 949.3439548057954 -18.616503542312124
  endloop
endfacet
facet normal -0.25416377831479625 -0.9671611932830778 5.236784554295992e-14
  outer loop
    vertex -495.3689006099127 949.3439548057958 -11.398803542311391
    vertex -471.08931521415593 942.9634349886647 -18.616503542313342
    vertex -471.0893152141555 942.963434988665 -11.39880354231261
  endloop
endfacet
facet normal -0.25416377831479625 -0.9671611932830778 5.236784554295992e-14
  outer loop
    vertex -471.08931521415593 942.9634349886647 -18.616503542313342
    vertex -495.3689006099127 949.3439548057958 -11.398803542311391
    vertex -495.368900609913 949.3439548057954 -18.616503542312124
  endloop
endfacet
facet normal -0.19973644692514161 -0.9798496577382267 5.095669093622847e-14
  outer loop
    vertex -471.08931521415593 942.9634349886647 -18.616503542313342
    vertex -470.3557436414718 942.8139008449971 -11.398803542312654
    vertex -471.0893152141555 942.963434988665 -11.39880354231261
  endloop
endfacet
facet normal -0.19973644692514161 -0.9798496577382267 5.095669093622847e-14
  outer loop
    vertex -470.3557436414718 942.8139008449971 -11.398803542312654
    vertex -471.08931521415593 942.9634349886647 -18.616503542313342
    vertex -470.35574364147215 942.8139008449969 -18.61650354231339
  endloop
endfacet
facet normal 0.5915809064389874 -0.8062456394529066 -4.0266584910282046e-15
  outer loop
    vertex -470.35574364147215 942.8139008449969 -18.61650354231339
    vertex -469.7521419796942 943.2567921931533 -11.398803542312677
    vertex -470.3557436414718 942.8139008449971 -11.398803542312654
  endloop
endfacet
facet normal 0.5915809064389874 -0.8062456394529066 -4.0266584910282046e-15
  outer loop
    vertex -469.7521419796942 943.2567921931533 -11.398803542312677
    vertex -470.35574364147215 942.8139008449969 -18.61650354231339
    vertex -469.7521419796948 943.256792193153 -18.61650354231341
  endloop
endfacet
facet normal 0.9650669772102791 -0.2620033005483226 -4.523034088655617e-14
  outer loop
    vertex -434.6892167598462 938.3818305941451 -11.398803542315068
    vertex -434.4453965727892 939.2799216121352 -18.6165035423158
    vertex -434.4453965727888 939.2799216121354 -11.398803542315068
  endloop
endfacet
facet normal 0.9650669772102791 -0.2620033005483226 -4.523034088655617e-14
  outer loop
    vertex -434.4453965727892 939.2799216121352 -18.6165035423158
    vertex -434.6892167598462 938.3818305941451 -11.398803542315068
    vertex -434.68921675984666 938.3818305941451 -18.6165035423158
  endloop
endfacet
facet normal 1.0 1.1007834812390437e-14 -4.640732242933153e-14
  outer loop
    vertex -434.44539657278915 945.0905296875727 -11.398803542316331
    vertex -434.4453965727892 939.2799216121352 -18.6165035423158
    vertex -434.4453965727895 945.0905296875727 -18.616503542315982
  endloop
endfacet
facet normal 1.0 1.1007834812390437e-14 -4.640732242933153e-14
  outer loop
    vertex -434.4453965727892 939.2799216121352 -18.6165035423158
    vertex -434.44539657278915 945.0905296875727 -11.398803542316331
    vertex -434.4453965727888 939.2799216121354 -11.398803542315068
  endloop
endfacet
facet normal 1.95389748149321e-14 1.0 1.914437530582385e-14
  outer loop
    vertex -443.84711315753816 954.4922462723224 -11.39880354231597
    vertex -494.5195256803094 954.4922462723235 -18.616503542312348
    vertex -494.51952568030896 954.4922462723233 -11.3988035423127
  endloop
endfacet
facet normal 1.95389748149321e-14 1.0 1.914437530582385e-14
  outer loop
    vertex -494.5195256803094 954.4922462723235 -18.616503542312348
    vertex -443.84711315753816 954.4922462723224 -11.39880354231597
    vertex -443.8471131575385 954.4922462723224 -18.61650354231562
  endloop
endfacet
facet normal 7.380076542990147e-14 3.84899752279515e-14 1.0
  outer loop
    vertex -446.04519724019536 926.4599090864436 -11.398803542314596
    vertex -446.6020032857501 927.4808400182112 -11.39880354231437
    vertex -446.67981678361195 926.7760974410686 -11.39880354231437
  endloop
endfacet
facet normal 7.380076542990147e-14 3.84899752279515e-14 1.0
  outer loop
    vertex -446.6020032857501 927.4808400182112 -11.39880354231437
    vertex -446.04519724019536 926.4599090864436 -11.398803542314596
    vertex -442.2567114464709 934.7991455468411 -11.398803542314978
  endloop
endfacet
facet normal 7.380076542990147e-14 3.84899752279515e-14 1.0
  outer loop
    vertex -442.2567114464709 934.7991455468411 -11.398803542314978
    vertex -446.04519724019536 926.4599090864436 -11.398803542314596
    vertex -443.843093872075 926.3797490676291 -11.398803542314708
  endloop
endfacet
facet normal 7.380076542990147e-14 3.84899752279515e-14 1.0
  outer loop
    vertex -442.2567114464709 934.7991455468411 -11.398803542314978
    vertex -443.843093872075 926.3797490676291 -11.398803542314708
    vertex -442.82511524356187 926.6357802550327 -11.398803542314775
  endloop
endfacet
facet normal 7.380076542990147e-14 3.84899752279515e-14 1.0
  outer loop
    vertex -442.2567114464709 934.7991455468411 -11.398803542314978
    vertex -442.82511524356187 926.6357802550327 -11.398803542314775
    vertex -442.0241273420463 927.3141981488557 -11.398803542314822
  endloop
endfacet
facet normal 7.380076542990147e-14 3.84899752279515e-14 1.0
  outer loop
    vertex -495.3689006099127 949.3439548057958 -11.398803542311391
    vertex -495.84185311933743 950.8838100051188 -11.39880354231155
    vertex -495.85790856334916 950.0363195926204 -11.39880354231155
  endloop
endfacet
facet normal 7.380076542990147e-14 3.84899752279515e-14 1.0
  outer loop
    vertex -495.84185311933743 950.8838100051188 -11.39880354231155
    vertex -495.3689006099127 949.3439548057958 -11.398803542311391
    vertex -494.51952568030896 954.4922462723233 -11.3988035423127
  endloop
endfacet
facet normal 7.380076542990147e-14 3.84899752279515e-14 1.0
  outer loop
    vertex -494.51952568030896 954.4922462723233 -11.3988035423127
    vertex -495.3689006099127 949.3439548057958 -11.398803542311391
    vertex -471.0893152141555 942.963434988665 -11.39880354231261
  endloop
endfacet
facet normal 7.380076542990147e-14 3.84899752279515e-14 1.0
  outer loop
    vertex -494.51952568030896 954.4922462723233 -11.3988035423127
    vertex -471.0893152141555 942.963434988665 -11.39880354231261
    vertex -466.79538010781505 948.2365467307459 -11.39880354231358
  endloop
endfacet
facet normal 7.380076542990147e-14 3.84899752279515e-14 1.0
  outer loop
    vertex -494.51952568030896 954.4922462723233 -11.3988035423127
    vertex -466.79538010781505 948.2365467307459 -11.39880354231358
    vertex -464.4271831581114 949.9276242592504 -11.398803542313715
  endloop
endfacet
facet normal 7.380076542990147e-14 3.84899752279515e-14 1.0
  outer loop
    vertex -494.51952568030896 954.4922462723233 -11.3988035423127
    vertex -464.4271831581114 949.9276242592504 -11.398803542313715
    vertex -443.84711315753816 954.4922462723224 -11.39880354231597
  endloop
endfacet
facet normal 7.380076542990147e-14 3.84899752279515e-14 1.0
  outer loop
    vertex -466.79538010781505 948.2365467307459 -11.39880354231358
    vertex -471.0893152141555 942.963434988665 -11.39880354231261
    vertex -470.3557436414718 942.8139008449971 -11.398803542312654
  endloop
endfacet
facet normal 7.380076542990147e-14 3.84899752279515e-14 1.0
  outer loop
    vertex -466.79538010781505 948.2365467307459 -11.39880354231358
    vertex -470.3557436414718 942.8139008449971 -11.398803542312654
    vertex -469.7521419796942 943.2567921931533 -11.398803542312677
  endloop
endfacet
facet normal 7.380076542990147e-14 3.84899752279515e-14 1.0
  outer loop
    vertex -443.84711315753816 954.4922462723224 -11.39880354231597
    vertex -464.4271831581114 949.9276242592504 -11.398803542313715
    vertex -442.3408980655544 936.6696602070177 -11.398803542314978
  endloop
endfacet
facet normal 7.380076542990147e-14 3.84899752279515e-14 1.0
  outer loop
    vertex -443.84711315753816 954.4922462723224 -11.39880354231597
    vertex -442.3408980655544 936.6696602070177 -11.398803542314978
    vertex -434.44539657278915 945.0905296875727 -11.398803542316331
  endloop
endfacet
facet normal 7.380076542990147e-14 3.84899752279515e-14 1.0
  outer loop
    vertex -434.44539657278915 945.0905296875727 -11.398803542316331
    vertex -442.3408980655544 936.6696602070177 -11.398803542314978
    vertex -442.2567114464709 934.7991455468411 -11.398803542314978
  endloop
endfacet
facet normal 7.380076542990147e-14 3.84899752279515e-14 1.0
  outer loop
    vertex -434.44539657278915 945.0905296875727 -11.398803542316331
    vertex -442.2567114464709 934.7991455468411 -11.398803542314978
    vertex -442.0241273420463 927.3141981488557 -11.398803542314822
  endloop
endfacet
facet normal 7.380076542990147e-14 3.84899752279515e-14 1.0
  outer loop
    vertex -434.44539657278915 945.0905296875727 -11.398803542316331
    vertex -442.0241273420463 927.3141981488557 -11.398803542314822
    vertex -434.6892167598462 938.3818305941451 -11.398803542315068
  endloop
endfacet
facet normal 7.380076542990147e-14 3.84899752279515e-14 1.0
  outer loop
    vertex -434.44539657278915 945.0905296875727 -11.398803542316331
    vertex -434.6892167598462 938.3818305941451 -11.398803542315068
    vertex -434.4453965727888 939.2799216121354 -11.398803542315068
  endloop
endfacet
facet normal -6.656317394666194e-14 -1.4074333281376652e-14 -1.0
  outer loop
    vertex -495.841853119338 950.8838100051184 -18.616503542312103
    vertex -495.368900609913 949.3439548057954 -18.616503542312124
    vertex -495.85790856334955 950.0363195926201 -18.616503542312103
  endloop
endfacet
facet normal -6.656317394666194e-14 -1.4074333281376652e-14 -1.0
  outer loop
    vertex -495.368900609913 949.3439548057954 -18.616503542312124
    vertex -495.841853119338 950.8838100051184 -18.616503542312103
    vertex -494.5195256803094 954.4922462723235 -18.616503542312348
  endloop
endfacet
facet normal -6.656317394666194e-14 -1.4074333281376652e-14 -1.0
  outer loop
    vertex -495.368900609913 949.3439548057954 -18.616503542312124
    vertex -494.5195256803094 954.4922462723235 -18.616503542312348
    vertex -471.08931521415593 942.9634349886647 -18.616503542313342
  endloop
endfacet
facet normal -6.656317394666194e-14 -1.4074333281376652e-14 -1.0
  outer loop
    vertex -471.08931521415593 942.9634349886647 -18.616503542313342
    vertex -494.5195256803094 954.4922462723235 -18.616503542312348
    vertex -466.7953801078155 948.2365467307455 -18.61650354231395
  endloop
endfacet
facet normal -6.656317394666194e-14 -1.4074333281376652e-14 -1.0
  outer loop
    vertex -466.7953801078155 948.2365467307455 -18.61650354231395
    vertex -494.5195256803094 954.4922462723235 -18.616503542312348
    vertex -464.4271831581117 949.9276242592504 -18.616503542314447
  endloop
endfacet
facet normal -6.656317394666194e-14 -1.4074333281376652e-14 -1.0
  outer loop
    vertex -464.4271831581117 949.9276242592504 -18.616503542314447
    vertex -494.5195256803094 954.4922462723235 -18.616503542312348
    vertex -443.8471131575385 954.4922462723224 -18.61650354231562
  endloop
endfacet
facet normal -6.656317394666194e-14 -1.4074333281376652e-14 -1.0
  outer loop
    vertex -471.08931521415593 942.9634349886647 -18.616503542313342
    vertex -466.7953801078155 948.2365467307455 -18.61650354231395
    vertex -470.35574364147215 942.8139008449969 -18.61650354231339
  endloop
endfacet
facet normal -6.656317394666194e-14 -1.4074333281376652e-14 -1.0
  outer loop
    vertex -470.35574364147215 942.8139008449969 -18.61650354231339
    vertex -466.7953801078155 948.2365467307455 -18.61650354231395
    vertex -469.7521419796948 943.256792193153 -18.61650354231341
  endloop
endfacet
facet normal -6.656317394666194e-14 -1.4074333281376652e-14 -1.0
  outer loop
    vertex -464.4271831581117 949.9276242592504 -18.616503542314447
    vertex -443.8471131575385 954.4922462723224 -18.61650354231562
    vertex -442.340898065555 936.6696602070175 -18.616503542315712
  endloop
endfacet
facet normal -6.656317394666194e-14 -1.4074333281376652e-14 -1.0
  outer loop
    vertex -442.340898065555 936.6696602070175 -18.616503542315712
    vertex -443.8471131575385 954.4922462723224 -18.61650354231562
    vertex -434.4453965727895 945.0905296875727 -18.616503542315982
  endloop
endfacet
facet normal -6.656317394666194e-14 -1.4074333281376652e-14 -1.0
  outer loop
    vertex -442.340898065555 936.6696602070175 -18.616503542315712
    vertex -434.4453965727895 945.0905296875727 -18.616503542315982
    vertex -442.2567114464713 934.7991455468408 -18.616503542315712
  endloop
endfacet
facet normal -6.656317394666194e-14 -1.4074333281376652e-14 -1.0
  outer loop
    vertex -442.2567114464713 934.7991455468408 -18.616503542315712
    vertex -434.4453965727895 945.0905296875727 -18.616503542315982
    vertex -442.02412734204665 927.3141981488553 -18.61650354231537
  endloop
endfacet
facet normal -6.656317394666194e-14 -1.4074333281376652e-14 -1.0
  outer loop
    vertex -442.02412734204665 927.3141981488553 -18.61650354231537
    vertex -434.4453965727895 945.0905296875727 -18.616503542315982
    vertex -434.68921675984666 938.3818305941451 -18.6165035423158
  endloop
endfacet
facet normal -6.656317394666194e-14 -1.4074333281376652e-14 -1.0
  outer loop
    vertex -434.68921675984666 938.3818305941451 -18.6165035423158
    vertex -434.4453965727895 945.0905296875727 -18.616503542315982
    vertex -434.4453965727892 939.2799216121352 -18.6165035423158
  endloop
endfacet
facet normal -6.656317394666194e-14 -1.4074333281376652e-14 -1.0
  outer loop
    vertex -446.60200328575047 927.4808400182109 -18.61650354231492
    vertex -446.0451972401958 926.4599090864433 -18.616503542315147
    vertex -446.6798167836124 926.7760974410684 -18.61650354231492
  endloop
endfacet
facet normal -6.656317394666194e-14 -1.4074333281376652e-14 -1.0
  outer loop
    vertex -446.0451972401958 926.4599090864433 -18.616503542315147
    vertex -446.60200328575047 927.4808400182109 -18.61650354231492
    vertex -442.2567114464713 934.7991455468408 -18.616503542315712
  endloop
endfacet
facet normal -6.656317394666194e-14 -1.4074333281376652e-14 -1.0
  outer loop
    vertex -446.0451972401958 926.4599090864433 -18.616503542315147
    vertex -442.2567114464713 934.7991455468408 -18.616503542315712
    vertex -443.8430938720756 926.3797490676288 -18.61650354231526
  endloop
endfacet
facet normal -6.656317394666194e-14 -1.4074333281376652e-14 -1.0
  outer loop
    vertex -443.8430938720756 926.3797490676288 -18.61650354231526
    vertex -442.2567114464713 934.7991455468408 -18.616503542315712
    vertex -442.8251152435623 926.6357802550326 -18.61650354231533
  endloop
endfacet
facet normal -6.656317394666194e-14 -1.4074333281376652e-14 -1.0
  outer loop
    vertex -442.8251152435623 926.6357802550326 -18.61650354231533
    vertex -442.2567114464713 934.7991455468408 -18.616503542315712
    vertex -442.02412734204665 927.3141981488553 -18.61650354231537
  endloop
endfacet
facet normal 0.7071067811865621 0.707106781186533 -3.2779367684004776e-14
  outer loop
    vertex -434.4453965727895 945.0905296875727 -18.616503542315982
    vertex -443.84711315753816 954.4922462723224 -11.39880354231597
    vertex -434.44539657278915 945.0905296875727 -11.398803542316331
  endloop
endfacet
facet normal 0.7071067811865621 0.707106781186533 -3.2779367684004776e-14
  outer loop
    vertex -443.84711315753816 954.4922462723224 -11.39880354231597
    vertex -434.4453965727895 945.0905296875727 -18.616503542315982
    vertex -443.8471131575385 954.4922462723224 -18.61650354231562
  endloop
endfacet
facet normal 0.9979667540459654 0.0637366285503074 -6.668156207570666e-14
  outer loop
    vertex -464.9481691382063 928.8582733159169 -18.6165035423163
    vertex -465.0675101243707 930.7268744530754 -11.3988035423157
    vertex -464.94816913820574 928.8582733159171 -11.398803542315566
  endloop
endfacet
facet normal 0.9979667540459654 0.0637366285503074 -6.668156207570666e-14
  outer loop
    vertex -465.0675101243707 930.7268744530754 -11.3988035423157
    vertex -464.9481691382063 928.8582733159169 -18.6165035423163
    vertex -465.0675101243713 930.7268744530753 -18.616503542316433
  endloop
endfacet
facet normal -0.5963248181366549 0.8027432411887909 -5.860065393344315e-15
  outer loop
    vertex -440.2805303893723 917.7532224666381 -18.61650354231727
    vertex -442.6165132212308 916.0179172458606 -11.398803542316557
    vertex -440.2805303893717 917.7532224666384 -11.398803542316896
  endloop
endfacet
facet normal -0.5963248181366549 0.8027432411887909 -5.860065393344315e-15
  outer loop
    vertex -442.6165132212308 916.0179172458606 -11.398803542316557
    vertex -440.2805303893723 917.7532224666381 -18.61650354231727
    vertex -442.6165132212315 916.0179172458602 -18.61650354231729
  endloop
endfacet
facet normal -0.8692994563402887 0.4942858031609635 5.695573634410296e-14
  outer loop
    vertex -437.4179200870376 922.7876894968853 -11.398803542316829
    vertex -440.2805303893723 917.7532224666381 -18.61650354231727
    vertex -440.2805303893717 917.7532224666384 -11.398803542316896
  endloop
endfacet
facet normal -0.8692994563402887 0.4942858031609635 5.695573634410296e-14
  outer loop
    vertex -440.2805303893723 917.7532224666381 -18.61650354231727
    vertex -437.4179200870376 922.7876894968853 -11.398803542316829
    vertex -437.4179200870381 922.787689496885 -18.61650354231756
  endloop
endfacet
facet normal 0.49846102756430627 0.8669121085782204 -7.869820790840875e-14
  outer loop
    vertex -442.6165132212315 916.0179172458602 -18.61650354231729
    vertex -464.94816913820574 928.8582733159171 -11.398803542315566
    vertex -442.6165132212308 916.0179172458606 -11.398803542316557
  endloop
endfacet
facet normal 0.49846102756430627 0.8669121085782204 -7.869820790840875e-14
  outer loop
    vertex -464.94816913820574 928.8582733159171 -11.398803542315566
    vertex -442.6165132212315 916.0179172458602 -18.61650354231729
    vertex -464.9481691382063 928.8582733159169 -18.6165035423163
  endloop
endfacet
facet normal 0.017581579838518085 0.9998454320795699 -5.015425001906091e-14
  outer loop
    vertex -461.43648760312084 939.1358675439184 -18.61650354231704
    vertex -463.63970886352183 939.174609642696 -11.398803542316287
    vertex -461.4364876031202 939.1358675439187 -11.39880354231649
  endloop
endfacet
facet normal 0.017581579838518085 0.9998454320795699 -5.015425001906091e-14
  outer loop
    vertex -463.63970886352183 939.174609642696 -11.398803542316287
    vertex -461.43648760312084 939.1358675439184 -18.61650354231704
    vertex -463.6397088635223 939.1746096426957 -18.61650354231684
  endloop
endfacet
facet normal 0.8692994563402854 -0.4942858031609694 -5.601831379428247e-14
  outer loop
    vertex -465.0675101243713 930.7268744530753 -18.616503542316433
    vertex -460.8605845332128 938.1255861010142 -11.398803542316287
    vertex -465.0675101243707 930.7268744530754 -11.3988035423157
  endloop
endfacet
facet normal 0.8692994563402854 -0.4942858031609694 -5.601831379428247e-14
  outer loop
    vertex -460.8605845332128 938.1255861010142 -11.398803542316287
    vertex -465.0675101243713 930.7268744530753 -18.616503542316433
    vertex -460.8605845332134 938.1255861010138 -18.61650354231684
  endloop
endfacet
facet normal -0.2621040008166442 0.9650396327384222 -2.30181493272429e-14
  outer loop
    vertex -463.6397088635223 939.1746096426957 -18.61650354231684
    vertex -464.6526936669624 938.8994837714457 -11.398803542316175
    vertex -463.63970886352183 939.174609642696 -11.398803542316287
  endloop
endfacet
facet normal -0.2621040008166442 0.9650396327384222 -2.30181493272429e-14
  outer loop
    vertex -464.6526936669624 938.8994837714457 -11.398803542316175
    vertex -463.6397088635223 939.1746096426957 -18.61650354231684
    vertex -464.6526936669631 938.8994837714454 -18.616503542316725
  endloop
endfacet
facet normal 0.4290401936718196 0.903285399092694 -8.290755268329734e-14
  outer loop
    vertex -460.79603529729246 938.8316671421336 -18.616503542316885
    vertex -461.4364876031202 939.1358675439187 -11.39880354231649
    vertex -460.79603529729184 938.831667142134 -11.398803542316331
  endloop
endfacet
facet normal 0.4290401936718196 0.903285399092694 -8.290755268329734e-14
  outer loop
    vertex -461.4364876031202 939.1358675439187 -11.39880354231649
    vertex -460.79603529729246 938.8316671421336 -18.616503542316885
    vertex -461.43648760312084 939.1358675439184 -18.61650354231704
  endloop
endfacet
facet normal -0.6605410233556915 0.7507899549569212 2.3642378321811523e-14
  outer loop
    vertex -464.6526936669631 938.8994837714454 -18.616503542316725
    vertex -465.4407844242189 938.2061256999125 -11.398803542316061
    vertex -464.6526936669624 938.8994837714457 -11.398803542316175
  endloop
endfacet
facet normal -0.6605410233556915 0.7507899549569212 2.3642378321811523e-14
  outer loop
    vertex -465.4407844242189 938.2061256999125 -11.398803542316061
    vertex -464.6526936669631 938.8994837714454 -18.616503542316725
    vertex -465.44078442421966 938.2061256999124 -18.616503542316615
  endloop
endfacet
facet normal 0.9958472929451905 -0.09103938232290511 -8.619446572412709e-14
  outer loop
    vertex -460.8605845332134 938.1255861010138 -18.61650354231684
    vertex -460.79603529729184 938.831667142134 -11.398803542316331
    vertex -460.8605845332128 938.1255861010142 -11.398803542316287
  endloop
endfacet
facet normal 0.9958472929451905 -0.09103938232290511 -8.619446572412709e-14
  outer loop
    vertex -460.79603529729184 938.831667142134 -11.398803542316331
    vertex -460.8605845332134 938.1255861010138 -18.61650354231684
    vertex -460.79603529729246 938.8316671421336 -18.616503542316885
  endloop
endfacet
facet normal -0.8437990592224028 0.5366592472466937 4.9562313327744095e-14
  outer loop
    vertex -465.4407844242189 938.2061256999125 -11.398803542316061
    vertex -472.56630577036884 927.0025393661318 -18.6165035423151
    vertex -472.56630577036833 927.0025393661324 -11.39880354231437
  endloop
endfacet
facet normal -0.8437990592224028 0.5366592472466937 4.9562313327744095e-14
  outer loop
    vertex -472.56630577036884 927.0025393661318 -18.6165035423151
    vertex -465.4407844242189 938.2061256999125 -11.398803542316061
    vertex -465.44078442421966 938.2061256999124 -18.616503542316615
  endloop
endfacet
facet normal 0.9452440739676993 -0.3263642759692715 -5.495098831085786e-14
  outer loop
    vertex -411.18941836095024 915.6525563335401 -18.616503542319546
    vertex -412.4436665550547 912.0198956532581 -11.398803542319671
    vertex -412.44366655505536 912.0198956532574 -18.61650354231932
  endloop
endfacet
facet normal 0.9452440739676993 -0.3263642759692715 -5.495098831085786e-14
  outer loop
    vertex -412.4436665550547 912.0198956532581 -11.398803542319671
    vertex -411.18941836095024 915.6525563335401 -18.616503542319546
    vertex -411.1894183609496 915.6525563335405 -11.398803542318994
  endloop
endfacet
facet normal 0.9999999902828698 -0.00013940681571623229 -8.402772767701701e-14
  outer loop
    vertex -411.18941836095024 915.6525563335401 -18.616503542319546
    vertex -411.18930019381037 916.5001988068719 -11.398803542319039
    vertex -411.1894183609496 915.6525563335405 -11.398803542318994
  endloop
endfacet
facet normal 0.9999999902828698 -0.00013940681571623229 -8.402772767701701e-14
  outer loop
    vertex -411.18930019381037 916.5001988068719 -11.398803542319039
    vertex -411.18941836095024 915.6525563335401 -18.616503542319546
    vertex -411.189300193811 916.5001988068716 -18.61650354231959
  endloop
endfacet
facet normal 0.8058210007228573 0.5921591971708393 -9.748859600961163e-14
  outer loop
    vertex -411.189300193811 916.5001988068716 -18.61650354231959
    vertex -411.69123948518364 917.1832469196244 -11.398803542318882
    vertex -411.18930019381037 916.5001988068719 -11.398803542319039
  endloop
endfacet
facet normal 0.8058210007228573 0.5921591971708393 -9.748859600961163e-14
  outer loop
    vertex -411.69123948518364 917.1832469196244 -11.398803542318882
    vertex -411.189300193811 916.5001988068716 -18.61650354231959
    vertex -411.6912394851843 917.1832469196241 -18.616503542319613
  endloop
endfacet
facet normal 0.23593437137808404 0.9717689912743812 -5.84311478124971e-14
  outer loop
    vertex -411.69123948518364 917.1832469196244 -11.398803542318882
    vertex -436.08649890259704 923.1061362553958 -18.616503542317695
    vertex -436.0864989025965 923.1061362553961 -11.398803542316964
  endloop
endfacet
facet normal 0.23593437137808404 0.9717689912743812 -5.84311478124971e-14
  outer loop
    vertex -436.08649890259704 923.1061362553958 -18.616503542317695
    vertex -411.69123948518364 917.1832469196244 -11.398803542318882
    vertex -411.6912394851843 917.1832469196241 -18.616503542319613
  endloop
endfacet
facet normal 0.18127809382091156 0.9834318749667701 -5.272913137006259e-14
  outer loop
    vertex -436.08649890259704 923.1061362553958 -18.616503542317695
    vertex -436.8227523282617 923.2418514187653 -11.39880354231692
    vertex -436.0864989025965 923.1061362553961 -11.398803542316964
  endloop
endfacet
facet normal 0.18127809382091156 0.9834318749667701 -5.272913137006259e-14
  outer loop
    vertex -436.8227523282617 923.2418514187653 -11.39880354231692
    vertex -436.08649890259704 923.1061362553958 -18.616503542317695
    vertex -436.82275232826237 923.241851418765 -18.616503542317652
  endloop
endfacet
facet normal -0.60663528997443 0.7949802670240559 2.2771468480134776e-14
  outer loop
    vertex -436.82275232826237 923.241851418765 -18.616503542317652
    vertex -437.4179200870376 922.7876894968853 -11.398803542316829
    vertex -436.8227523282617 923.2418514187653 -11.39880354231692
  endloop
endfacet
facet normal -0.60663528997443 0.7949802670240559 2.2771468480134776e-14
  outer loop
    vertex -437.4179200870376 922.7876894968853 -11.398803542316829
    vertex -436.82275232826237 923.241851418765 -18.616503542317652
    vertex -437.4179200870381 922.787689496885 -18.61650354231756
  endloop
endfacet
facet normal -0.9698225433933134 0.24381188306997054 7.809717286889432e-14
  outer loop
    vertex -472.56630577036833 927.0025393661324 -11.39880354231437
    vertex -472.79319703018336 926.1000228197844 -18.616503542315012
    vertex -472.7931970301827 926.1000228197847 -11.39880354231428
  endloop
endfacet
facet normal -0.9698225433933134 0.24381188306997054 7.809717286889432e-14
  outer loop
    vertex -472.79319703018336 926.1000228197844 -18.616503542315012
    vertex -472.56630577036833 927.0025393661324 -11.39880354231437
    vertex -472.56630577036884 927.0025393661318 -18.6165035423151
  endloop
endfacet
facet normal -0.9998232284602034 -0.018801910312945418 1.0190484761771215e-13
  outer loop
    vertex -472.6839464982844 920.290441894484 -11.398803542315115
    vertex -472.79319703018336 926.1000228197844 -18.616503542315012
    vertex -472.68394649828514 920.2904418944835 -18.616503542314764
  endloop
endfacet
facet normal -0.9998232284602034 -0.018801910312945418 1.0190484761771215e-13
  outer loop
    vertex -472.79319703018336 926.1000228197844 -18.616503542315012
    vertex -472.6839464982844 920.290441894484 -11.398803542315115
    vertex -472.7931970301827 926.1000228197847 -11.39880354231428
  endloop
endfacet
facet normal 0.018801910312914876 -0.999823228460204 9.472992645690302e-14
  outer loop
    vertex -463.10712163743864 911.0671574976659 -11.398803542315429
    vertex -412.44366655505536 912.0198956532574 -18.61650354231932
    vertex -412.4436665550547 912.0198956532581 -11.398803542319671
  endloop
endfacet
facet normal 0.018801910312914876 -0.999823228460204 9.472992645690302e-14
  outer loop
    vertex -412.44366655505536 912.0198956532574 -18.61650354231932
    vertex -463.10712163743864 911.0671574976659 -11.398803542315429
    vertex -463.1071216374394 911.0671574976653 -18.61650354231508
  endloop
endfacet
facet normal 7.380076542990156e-14 3.848997522795145e-14 1.0
  outer loop
    vertex -461.4364876031202 939.1358675439187 -11.39880354231649
    vertex -460.8605845332128 938.1255861010142 -11.398803542316287
    vertex -460.79603529729184 938.831667142134 -11.398803542316331
  endloop
endfacet
facet normal 7.380076542990156e-14 3.848997522795145e-14 1.0
  outer loop
    vertex -460.8605845332128 938.1255861010142 -11.398803542316287
    vertex -461.4364876031202 939.1358675439187 -11.39880354231649
    vertex -465.0675101243707 930.7268744530754 -11.3988035423157
  endloop
endfacet
facet normal 7.380076542990156e-14 3.848997522795145e-14 1.0
  outer loop
    vertex -465.0675101243707 930.7268744530754 -11.3988035423157
    vertex -461.4364876031202 939.1358675439187 -11.39880354231649
    vertex -463.63970886352183 939.174609642696 -11.398803542316287
  endloop
endfacet
facet normal 7.380076542990156e-14 3.848997522795145e-14 1.0
  outer loop
    vertex -465.0675101243707 930.7268744530754 -11.3988035423157
    vertex -463.63970886352183 939.174609642696 -11.398803542316287
    vertex -464.6526936669624 938.8994837714457 -11.398803542316175
  endloop
endfacet
facet normal 7.380076542990156e-14 3.848997522795145e-14 1.0
  outer loop
    vertex -465.0675101243707 930.7268744530754 -11.3988035423157
    vertex -464.6526936669624 938.8994837714457 -11.398803542316175
    vertex -465.4407844242189 938.2061256999125 -11.398803542316061
  endloop
endfacet
facet normal 7.380076542990156e-14 3.848997522795145e-14 1.0
  outer loop
    vertex -411.69123948518364 917.1832469196244 -11.398803542318882
    vertex -411.1894183609496 915.6525563335405 -11.398803542318994
    vertex -411.18930019381037 916.5001988068719 -11.398803542319039
  endloop
endfacet
facet normal 7.380076542990156e-14 3.848997522795145e-14 1.0
  outer loop
    vertex -411.1894183609496 915.6525563335405 -11.398803542318994
    vertex -411.69123948518364 917.1832469196244 -11.398803542318882
    vertex -412.4436665550547 912.0198956532581 -11.398803542319671
  endloop
endfacet
facet normal 7.380076542990156e-14 3.848997522795145e-14 1.0
  outer loop
    vertex -412.4436665550547 912.0198956532581 -11.398803542319671
    vertex -411.69123948518364 917.1832469196244 -11.398803542318882
    vertex -436.0864989025965 923.1061362553961 -11.398803542316964
  endloop
endfacet
facet normal 7.380076542990156e-14 3.848997522795145e-14 1.0
  outer loop
    vertex -412.4436665550547 912.0198956532581 -11.398803542319671
    vertex -436.0864989025965 923.1061362553961 -11.398803542316964
    vertex -440.2805303893717 917.7532224666384 -11.398803542316896
  endloop
endfacet
facet normal 7.380076542990156e-14 3.848997522795145e-14 1.0
  outer loop
    vertex -412.4436665550547 912.0198956532581 -11.398803542319671
    vertex -440.2805303893717 917.7532224666384 -11.398803542316896
    vertex -442.6165132212308 916.0179172458606 -11.398803542316557
  endloop
endfacet
facet normal 7.380076542990156e-14 3.848997522795145e-14 1.0
  outer loop
    vertex -412.4436665550547 912.0198956532581 -11.398803542319671
    vertex -442.6165132212308 916.0179172458606 -11.398803542316557
    vertex -463.10712163743864 911.0671574976659 -11.398803542315429
  endloop
endfacet
facet normal 7.380076542990156e-14 3.848997522795145e-14 1.0
  outer loop
    vertex -440.2805303893717 917.7532224666384 -11.398803542316896
    vertex -436.0864989025965 923.1061362553961 -11.398803542316964
    vertex -436.8227523282617 923.2418514187653 -11.39880354231692
  endloop
endfacet
facet normal 7.380076542990156e-14 3.848997522795145e-14 1.0
  outer loop
    vertex -440.2805303893717 917.7532224666384 -11.398803542316896
    vertex -436.8227523282617 923.2418514187653 -11.39880354231692
    vertex -437.4179200870376 922.7876894968853 -11.398803542316829
  endloop
endfacet
facet normal 7.380076542990156e-14 3.848997522795145e-14 1.0
  outer loop
    vertex -463.10712163743864 911.0671574976659 -11.398803542315429
    vertex -442.6165132212308 916.0179172458606 -11.398803542316557
    vertex -464.94816913820574 928.8582733159171 -11.398803542315566
  endloop
endfacet
facet normal 7.380076542990156e-14 3.848997522795145e-14 1.0
  outer loop
    vertex -463.10712163743864 911.0671574976659 -11.398803542315429
    vertex -464.94816913820574 928.8582733159171 -11.398803542315566
    vertex -472.6839464982844 920.290441894484 -11.398803542315115
  endloop
endfacet
facet normal 7.380076542990156e-14 3.848997522795145e-14 1.0
  outer loop
    vertex -472.6839464982844 920.290441894484 -11.398803542315115
    vertex -464.94816913820574 928.8582733159171 -11.398803542315566
    vertex -465.0675101243707 930.7268744530754 -11.3988035423157
  endloop
endfacet
facet normal 7.380076542990156e-14 3.848997522795145e-14 1.0
  outer loop
    vertex -472.6839464982844 920.290441894484 -11.398803542315115
    vertex -465.0675101243707 930.7268744530754 -11.3988035423157
    vertex -465.4407844242189 938.2061256999125 -11.398803542316061
  endloop
endfacet
facet normal 7.380076542990156e-14 3.848997522795145e-14 1.0
  outer loop
    vertex -472.6839464982844 920.290441894484 -11.398803542315115
    vertex -465.4407844242189 938.2061256999125 -11.398803542316061
    vertex -472.56630577036833 927.0025393661324 -11.39880354231437
  endloop
endfacet
facet normal 7.380076542990156e-14 3.848997522795145e-14 1.0
  outer loop
    vertex -472.6839464982844 920.290441894484 -11.398803542315115
    vertex -472.56630577036833 927.0025393661324 -11.39880354231437
    vertex -472.7931970301827 926.1000228197847 -11.39880354231428
  endloop
endfacet
facet normal -8.057801680283796e-14 -6.303738172985382e-14 -1.0
  outer loop
    vertex -411.18941836095024 915.6525563335401 -18.616503542319546
    vertex -411.6912394851843 917.1832469196241 -18.616503542319613
    vertex -411.189300193811 916.5001988068716 -18.61650354231959
  endloop
endfacet
facet normal -8.057801680283796e-14 -6.303738172985382e-14 -1.0
  outer loop
    vertex -411.6912394851843 917.1832469196241 -18.616503542319613
    vertex -411.18941836095024 915.6525563335401 -18.616503542319546
    vertex -412.44366655505536 912.0198956532574 -18.61650354231932
  endloop
endfacet
facet normal -8.057801680283796e-14 -6.303738172985382e-14 -1.0
  outer loop
    vertex -411.6912394851843 917.1832469196241 -18.616503542319613
    vertex -412.44366655505536 912.0198956532574 -18.61650354231932
    vertex -436.08649890259704 923.1061362553958 -18.616503542317695
  endloop
endfacet
facet normal -8.057801680283796e-14 -6.303738172985382e-14 -1.0
  outer loop
    vertex -436.08649890259704 923.1061362553958 -18.616503542317695
    vertex -412.44366655505536 912.0198956532574 -18.61650354231932
    vertex -440.2805303893723 917.7532224666381 -18.61650354231727
  endloop
endfacet
facet normal -8.057801680283796e-14 -6.303738172985382e-14 -1.0
  outer loop
    vertex -440.2805303893723 917.7532224666381 -18.61650354231727
    vertex -412.44366655505536 912.0198956532574 -18.61650354231932
    vertex -442.6165132212315 916.0179172458602 -18.61650354231729
  endloop
endfacet
facet normal -8.057801680283796e-14 -6.303738172985382e-14 -1.0
  outer loop
    vertex -442.6165132212315 916.0179172458602 -18.61650354231729
    vertex -412.44366655505536 912.0198956532574 -18.61650354231932
    vertex -463.1071216374394 911.0671574976653 -18.61650354231508
  endloop
endfacet
facet normal -8.057801680283796e-14 -6.303738172985382e-14 -1.0
  outer loop
    vertex -436.08649890259704 923.1061362553958 -18.616503542317695
    vertex -440.2805303893723 917.7532224666381 -18.61650354231727
    vertex -436.82275232826237 923.241851418765 -18.616503542317652
  endloop
endfacet
facet normal -8.057801680283796e-14 -6.303738172985382e-14 -1.0
  outer loop
    vertex -436.82275232826237 923.241851418765 -18.616503542317652
    vertex -440.2805303893723 917.7532224666381 -18.61650354231727
    vertex -437.4179200870381 922.787689496885 -18.61650354231756
  endloop
endfacet
facet normal -8.057801680283796e-14 -6.303738172985382e-14 -1.0
  outer loop
    vertex -442.6165132212315 916.0179172458602 -18.61650354231729
    vertex -463.1071216374394 911.0671574976653 -18.61650354231508
    vertex -464.9481691382063 928.8582733159169 -18.6165035423163
  endloop
endfacet
facet normal -8.057801680283796e-14 -6.303738172985382e-14 -1.0
  outer loop
    vertex -464.9481691382063 928.8582733159169 -18.6165035423163
    vertex -463.1071216374394 911.0671574976653 -18.61650354231508
    vertex -472.68394649828514 920.2904418944835 -18.616503542314764
  endloop
endfacet
facet normal -8.057801680283796e-14 -6.303738172985382e-14 -1.0
  outer loop
    vertex -464.9481691382063 928.8582733159169 -18.6165035423163
    vertex -472.68394649828514 920.2904418944835 -18.616503542314764
    vertex -465.0675101243713 930.7268744530753 -18.616503542316433
  endloop
endfacet
facet normal -8.057801680283796e-14 -6.303738172985382e-14 -1.0
  outer loop
    vertex -465.0675101243713 930.7268744530753 -18.616503542316433
    vertex -472.68394649828514 920.2904418944835 -18.616503542314764
    vertex -465.44078442421966 938.2061256999124 -18.616503542316615
  endloop
endfacet
facet normal -8.057801680283796e-14 -6.303738172985382e-14 -1.0
  outer loop
    vertex -465.44078442421966 938.2061256999124 -18.616503542316615
    vertex -472.68394649828514 920.2904418944835 -18.616503542314764
    vertex -472.56630577036884 927.0025393661318 -18.6165035423151
  endloop
endfacet
facet normal -8.057801680283796e-14 -6.303738172985382e-14 -1.0
  outer loop
    vertex -472.56630577036884 927.0025393661318 -18.6165035423151
    vertex -472.68394649828514 920.2904418944835 -18.616503542314764
    vertex -472.79319703018336 926.1000228197844 -18.616503542315012
  endloop
endfacet
facet normal -8.057801680283796e-14 -6.303738172985382e-14 -1.0
  outer loop
    vertex -460.8605845332134 938.1255861010138 -18.61650354231684
    vertex -461.43648760312084 939.1358675439184 -18.61650354231704
    vertex -460.79603529729246 938.8316671421336 -18.616503542316885
  endloop
endfacet
facet normal -8.057801680283796e-14 -6.303738172985382e-14 -1.0
  outer loop
    vertex -461.43648760312084 939.1358675439184 -18.61650354231704
    vertex -460.8605845332134 938.1255861010138 -18.61650354231684
    vertex -465.0675101243713 930.7268744530753 -18.616503542316433
  endloop
endfacet
facet normal -8.057801680283796e-14 -6.303738172985382e-14 -1.0
  outer loop
    vertex -461.43648760312084 939.1358675439184 -18.61650354231704
    vertex -465.0675101243713 930.7268744530753 -18.616503542316433
    vertex -463.6397088635223 939.1746096426957 -18.61650354231684
  endloop
endfacet
facet normal -8.057801680283796e-14 -6.303738172985382e-14 -1.0
  outer loop
    vertex -463.6397088635223 939.1746096426957 -18.61650354231684
    vertex -465.0675101243713 930.7268744530753 -18.616503542316433
    vertex -464.6526936669631 938.8994837714454 -18.616503542316725
  endloop
endfacet
facet normal -8.057801680283796e-14 -6.303738172985382e-14 -1.0
  outer loop
    vertex -464.6526936669631 938.8994837714454 -18.616503542316725
    vertex -465.0675101243713 930.7268744530753 -18.616503542316433
    vertex -465.44078442421966 938.2061256999124 -18.616503542316615
  endloop
endfacet
facet normal -0.6936868265505143 -0.7202767431135596 1.255402292674013e-13
  outer loop
    vertex -472.68394649828514 920.2904418944835 -18.616503542314764
    vertex -463.10712163743864 911.0671574976659 -11.398803542315429
    vertex -472.6839464982844 920.290441894484 -11.398803542315115
  endloop
endfacet
facet normal -0.6936868265505143 -0.7202767431135596 1.255402292674013e-13
  outer loop
    vertex -463.10712163743864 911.0671574976659 -11.398803542315429
    vertex -472.68394649828514 920.2904418944835 -18.616503542314764
    vertex -463.1071216374394 911.0671574976653 -18.61650354231508
  endloop
endfacet
endsolid stand
