solid stand
facet normal -0.5319732545016347 0.8467611566994195 -1.8924815235067357e-14
  outer loop
    vertex -625.2425906345177 1045.730144353289 -7.696902117323846
    vertex -621.7354193004995 1047.93350634491 0.5007978826765523
    vertex -621.7354193004993 1047.93350634491 -7.696902117323741
  endloop
endfacet
facet normal -0.5319732545016347 0.8467611566994195 -1.8924815235067357e-14
  outer loop
    vertex -621.7354193004995 1047.93350634491 0.5007978826765523
    vertex -625.2425906345177 1045.730144353289 -7.696902117323846
    vertex -625.2425906345179 1045.730144353289 0.5007978826762657
  endloop
endfacet
facet normal 0.8974356579852965 -0.44114537261145337 7.473744386587376e-16
  outer loop
    vertex -620.4706049496212 1037.7789700968738 -7.696902117323602
    vertex -619.6446007349803 1039.4593359850546 0.5007978826767048
    vertex -620.4706049496216 1037.7789700968735 0.5007978826766903
  endloop
endfacet
facet normal 0.8974356579852965 -0.44114537261145337 7.473744386587376e-16
  outer loop
    vertex -619.6446007349803 1039.4593359850546 0.5007978826767048
    vertex -620.4706049496212 1037.7789700968738 -7.696902117323602
    vertex -619.6446007349799 1039.4593359850548 -7.696902117323587
  endloop
endfacet
facet normal -0.8583318823505257 -0.5130949032494897 -1.6377113248560574e-14
  outer loop
    vertex -594.097739159689 1042.7662172428152 -7.696902117322879
    vertex -592.6046329912333 1040.268471465175 0.5007978826769488
    vertex -594.0977391596894 1042.7662172428152 0.5007978826772334
  endloop
endfacet
facet normal -0.8583318823505257 -0.5130949032494897 -1.6377113248560574e-14
  outer loop
    vertex -592.6046329912333 1040.268471465175 0.5007978826769488
    vertex -594.097739159689 1042.7662172428152 -7.696902117322879
    vertex -592.604632991233 1040.268471465175 -7.696902117322983
  endloop
endfacet
facet normal -0.9923319378854891 -0.12360147674048907 -3.98249076783735e-14
  outer loop
    vertex -592.604632991233 1040.268471465175 -7.696902117322983
    vertex -591.8888065231488 1034.5214732496488 0.500797882677027
    vertex -592.6046329912333 1040.268471465175 0.5007978826769488
  endloop
endfacet
facet normal -0.9923319378854891 -0.12360147674048907 -3.98249076783735e-14
  outer loop
    vertex -591.8888065231488 1034.5214732496488 0.500797882677027
    vertex -592.604632991233 1040.268471465175 -7.696902117322983
    vertex -591.8888065231486 1034.521473249649 -7.696902117323266
  endloop
endfacet
facet normal 0.1283727196335498 -0.9917259928296154 -1.5448266655012265e-14
  outer loop
    vertex -619.6446007349803 1039.4593359850546 0.5007978826767048
    vertex -594.097739159689 1042.7662172428152 -7.696902117322879
    vertex -594.0977391596894 1042.7662172428152 0.5007978826772334
  endloop
endfacet
facet normal 0.1283727196335498 -0.9917259928296154 -1.5448266655012265e-14
  outer loop
    vertex -594.097739159689 1042.7662172428152 -7.696902117322879
    vertex -619.6446007349803 1039.4593359850546 0.5007978826767048
    vertex -619.6446007349799 1039.4593359850548 -7.696902117323587
  endloop
endfacet
facet normal -0.3667490865161704 -0.930319895272349 -2.4216974822236542e-14
  outer loop
    vertex -622.3876004551311 1029.4286422885602 0.500797882676517
    vertex -620.3375830159597 1028.6204879891857 -7.696902117323513
    vertex -620.33758301596 1028.6204879891854 0.5007978826765982
  endloop
endfacet
facet normal -0.3667490865161704 -0.930319895272349 -2.4216974822236542e-14
  outer loop
    vertex -620.3375830159597 1028.6204879891857 -7.696902117323513
    vertex -622.3876004551311 1029.4286422885602 0.500797882676517
    vertex -622.3876004551307 1029.4286422885605 -7.696902117323595
  endloop
endfacet
facet normal 0.9923319378854885 0.12360147674049554 3.888748512855366e-14
  outer loop
    vertex -619.4186179973781 1029.333114282855 0.5007978826766247
    vertex -620.4706049496212 1037.7789700968738 -7.696902117323602
    vertex -620.4706049496216 1037.7789700968735 0.5007978826766903
  endloop
endfacet
facet normal 0.9923319378854885 0.12360147674049554 3.888748512855366e-14
  outer loop
    vertex -620.4706049496212 1037.7789700968738 -7.696902117323602
    vertex -619.4186179973781 1029.333114282855 0.5007978826766247
    vertex -619.4186179973777 1029.333114282855 -7.696902117323488
  endloop
endfacet
facet normal -0.6117701850638937 -0.7910355495594933 -3.1632666002840934e-14
  outer loop
    vertex -623.2179362916098 1030.0708064853916 0.5007978826764813
    vertex -622.3876004551307 1029.4286422885605 -7.696902117323595
    vertex -622.3876004551311 1029.4286422885602 0.500797882676517
  endloop
endfacet
facet normal -0.6117701850638937 -0.7910355495594933 -3.1632666002840934e-14
  outer loop
    vertex -622.3876004551307 1029.4286422885605 -7.696902117323595
    vertex -623.2179362916098 1030.0708064853916 0.5007978826764813
    vertex -623.2179362916096 1030.0708064853916 -7.696902117323632
  endloop
endfacet
facet normal 0.05031399812774356 -0.9987334487201285 -9.643673562141412e-15
  outer loop
    vertex -620.33758301596 1028.6204879891854 0.5007978826765982
    vertex -619.629455617041 1028.6561618926373 -7.696902117323489
    vertex -619.6294556170413 1028.656161892637 0.5007978826766233
  endloop
endfacet
facet normal 0.05031399812774356 -0.9987334487201285 -9.643673562141412e-15
  outer loop
    vertex -619.629455617041 1028.6561618926373 -7.696902117323489
    vertex -620.33758301596 1028.6204879891854 0.5007978826765982
    vertex -620.3375830159597 1028.6204879891857 -7.696902117323513
  endloop
endfacet
facet normal -0.8977495448693115 -0.44050624818150336 -3.812917717923229e-14
  outer loop
    vertex -623.6803278039274 1031.0131580898205 -7.696902117323656
    vertex -623.2179362916098 1030.0708064853916 0.5007978826764813
    vertex -623.6803278039276 1031.0131580898203 0.5007978826764561
  endloop
endfacet
facet normal -0.8977495448693115 -0.44050624818150336 -3.812917717923229e-14
  outer loop
    vertex -623.2179362916098 1030.0708064853916 0.5007978826764813
    vertex -623.6803278039274 1031.0131580898205 -7.696902117323656
    vertex -623.2179362916096 1030.0708064853916 -7.696902117323632
  endloop
endfacet
facet normal 0.9547646318076951 -0.2973625696840754 3.1735973954083125e-14
  outer loop
    vertex -619.629455617041 1028.6561618926373 -7.696902117323489
    vertex -619.4186179973781 1029.333114282855 0.5007978826766247
    vertex -619.6294556170413 1028.656161892637 0.5007978826766233
  endloop
endfacet
facet normal 0.9547646318076951 -0.2973625696840754 3.1735973954083125e-14
  outer loop
    vertex -619.4186179973781 1029.333114282855 0.5007978826766247
    vertex -619.629455617041 1028.6561618926373 -7.696902117323489
    vertex -619.4186179973777 1029.333114282855 -7.696902117323488
  endloop
endfacet
facet normal -0.9850076061126519 -0.17251091530747498 -3.710298724280117e-14
  outer loop
    vertex -625.9708505439597 1044.0916483226529 -7.696902117323858
    vertex -623.6803278039276 1031.0131580898203 0.5007978826764561
    vertex -625.97085054396 1044.0916483226529 0.5007978826762545
  endloop
endfacet
facet normal -0.9850076061126519 -0.17251091530747498 -3.710298724280117e-14
  outer loop
    vertex -623.6803278039276 1031.0131580898203 0.5007978826764561
    vertex -625.9708505439597 1044.0916483226529 -7.696902117323858
    vertex -623.6803278039274 1031.0131580898205 -7.696902117323656
  endloop
endfacet
facet normal -0.9892441773480234 0.14627357103397942 -3.5916240653619035e-14
  outer loop
    vertex -625.8347284058934 1045.0122386352998 -7.6969021173238605
    vertex -625.97085054396 1044.0916483226529 0.5007978826762545
    vertex -625.8347284058937 1045.0122386352998 0.5007978826762509
  endloop
endfacet
facet normal -0.9892441773480234 0.14627357103397942 -3.5916240653619035e-14
  outer loop
    vertex -625.97085054396 1044.0916483226529 0.5007978826762545
    vertex -625.8347284058934 1045.0122386352998 -7.6969021173238605
    vertex -625.9708505439597 1044.0916483226529 -7.696902117323858
  endloop
endfacet
facet normal -0.7714441936321395 0.6362969873504496 -2.7742354954377576e-14
  outer loop
    vertex -625.2425906345177 1045.730144353289 -7.696902117323846
    vertex -625.8347284058937 1045.0122386352998 0.5007978826762509
    vertex -625.2425906345179 1045.730144353289 0.5007978826762657
  endloop
endfacet
facet normal -0.7714441936321395 0.6362969873504496 -2.7742354954377576e-14
  outer loop
    vertex -625.8347284058937 1045.0122386352998 0.5007978826762509
    vertex -625.2425906345177 1045.730144353289 -7.696902117323846
    vertex -625.8347284058934 1045.0122386352998 -7.6969021173238605
  endloop
endfacet
facet normal 0.9991943951144462 -0.040131792532558115 3.633280295792921e-14
  outer loop
    vertex -576.5167607732086 1037.8227331395458 0.5007978826773698
    vertex -576.1841516031877 1046.1039784434709 -7.696902117322445
    vertex -576.184151603188 1046.1039784434709 0.5007978826774867
  endloop
endfacet
facet normal 0.9991943951144462 -0.040131792532558115 3.633280295792921e-14
  outer loop
    vertex -576.1841516031877 1046.1039784434709 -7.696902117322445
    vertex -576.5167607732086 1037.8227331395458 0.5007978826773698
    vertex -576.5167607732084 1037.8227331395458 -7.696902117322742
  endloop
endfacet
facet normal 0.923781459965875 -0.38292011467578563 2.5747633552489953e-14
  outer loop
    vertex -576.8413401294545 1037.0396967303936 -7.696902117322748
    vertex -576.5167607732086 1037.8227331395458 0.5007978826773698
    vertex -576.8413401294548 1037.0396967303934 0.5007978826773652
  endloop
endfacet
facet normal 0.923781459965875 -0.38292011467578563 2.5747633552489953e-14
  outer loop
    vertex -576.5167607732086 1037.8227331395458 0.5007978826773698
    vertex -576.8413401294545 1037.0396967303936 -7.696902117322748
    vertex -576.5167607732084 1037.8227331395458 -7.696902117322742
  endloop
endfacet
facet normal 0.5175335526187521 -0.8556629137188391 -1.1780132324207888e-16
  outer loop
    vertex -577.5666363650253 1036.601013305557 0.5007978826773432
    vertex -576.8413401294545 1037.0396967303936 -7.696902117322748
    vertex -576.8413401294548 1037.0396967303934 0.5007978826773652
  endloop
endfacet
facet normal 0.5175335526187521 -0.8556629137188391 -1.1780132324207888e-16
  outer loop
    vertex -576.8413401294545 1037.0396967303936 -7.696902117322748
    vertex -577.5666363650253 1036.601013305557 0.5007978826773432
    vertex -577.5666363650249 1036.6010133055572 -7.696902117322769
  endloop
endfacet
facet normal -0.209250826829351 -0.9778620002184526 -3.048774725947379e-14
  outer loop
    vertex -591.5129995795563 1033.8739727836105 0.5007978826770464
    vertex -590.7809160811307 1033.7173156302297 -7.696902117323218
    vertex -590.7809160811311 1033.7173156302295 0.5007978826770743
  endloop
endfacet
facet normal -0.209250826829351 -0.9778620002184526 -3.048774725947379e-14
  outer loop
    vertex -590.7809160811307 1033.7173156302297 -7.696902117323218
    vertex -591.5129995795563 1033.8739727836105 0.5007978826770464
    vertex -591.5129995795561 1033.8739727836107 -7.696902117323246
  endloop
endfacet
facet normal -0.8648823559395379 -0.5019746112947094 -4.3806667791087985e-14
  outer loop
    vertex -591.8888065231486 1034.521473249649 -7.696902117323266
    vertex -591.5129995795563 1033.8739727836105 0.5007978826770464
    vertex -591.8888065231488 1034.5214732496488 0.500797882677027
  endloop
endfacet
facet normal -0.8648823559395379 -0.5019746112947094 -4.3806667791087985e-14
  outer loop
    vertex -591.5129995795563 1033.8739727836105 0.5007978826770464
    vertex -591.8888065231486 1034.521473249649 -7.696902117323266
    vertex -591.5129995795561 1033.8739727836107 -7.696902117323246
  endloop
endfacet
facet normal 2.0736370755587635e-14 -2.454627972405396e-15 -1.0
  outer loop
    vertex -576.1841516031877 1046.1039784434709 -7.696902117322445
    vertex -594.097739159689 1042.7662172428152 -7.696902117322879
    vertex -621.7354193004993 1047.93350634491 -7.696902117323741
  endloop
endfacet
facet normal 2.0736370755587635e-14 -2.454627972405396e-15 -1.0
  outer loop
    vertex -594.097739159689 1042.7662172428152 -7.696902117322879
    vertex -576.1841516031877 1046.1039784434709 -7.696902117322445
    vertex -576.5167607732084 1037.8227331395458 -7.696902117322742
  endloop
endfacet
facet normal 2.0736370755587635e-14 -2.454627972405396e-15 -1.0
  outer loop
    vertex -621.7354193004993 1047.93350634491 -7.696902117323741
    vertex -594.097739159689 1042.7662172428152 -7.696902117322879
    vertex -625.2425906345177 1045.730144353289 -7.696902117323846
  endloop
endfacet
facet normal 2.0736370755587635e-14 -2.454627972405396e-15 -1.0
  outer loop
    vertex -625.2425906345177 1045.730144353289 -7.696902117323846
    vertex -594.097739159689 1042.7662172428152 -7.696902117322879
    vertex -625.8347284058934 1045.0122386352998 -7.6969021173238605
  endloop
endfacet
facet normal 2.0736370755587635e-14 -2.454627972405396e-15 -1.0
  outer loop
    vertex -625.8347284058934 1045.0122386352998 -7.6969021173238605
    vertex -594.097739159689 1042.7662172428152 -7.696902117322879
    vertex -625.9708505439597 1044.0916483226529 -7.696902117323858
  endloop
endfacet
facet normal 2.0736370755587635e-14 -2.454627972405396e-15 -1.0
  outer loop
    vertex -594.097739159689 1042.7662172428152 -7.696902117322879
    vertex -576.5167607732084 1037.8227331395458 -7.696902117322742
    vertex -592.604632991233 1040.268471465175 -7.696902117322983
  endloop
endfacet
facet normal 2.0736370755587635e-14 -2.454627972405396e-15 -1.0
  outer loop
    vertex -592.604632991233 1040.268471465175 -7.696902117322983
    vertex -576.5167607732084 1037.8227331395458 -7.696902117322742
    vertex -591.8888065231486 1034.521473249649 -7.696902117323266
  endloop
endfacet
facet normal 2.0736370755587635e-14 -2.454627972405396e-15 -1.0
  outer loop
    vertex -591.8888065231486 1034.521473249649 -7.696902117323266
    vertex -576.5167607732084 1037.8227331395458 -7.696902117322742
    vertex -576.8413401294545 1037.0396967303936 -7.696902117322748
  endloop
endfacet
facet normal 2.0736370755587635e-14 -2.454627972405396e-15 -1.0
  outer loop
    vertex -591.8888065231486 1034.521473249649 -7.696902117323266
    vertex -576.8413401294545 1037.0396967303936 -7.696902117322748
    vertex -577.5666363650249 1036.6010133055572 -7.696902117322769
  endloop
endfacet
facet normal 2.0736370755587635e-14 -2.454627972405396e-15 -1.0
  outer loop
    vertex -591.8888065231486 1034.521473249649 -7.696902117323266
    vertex -577.5666363650249 1036.6010133055572 -7.696902117322769
    vertex -590.7809160811307 1033.7173156302297 -7.696902117323218
  endloop
endfacet
facet normal 2.0736370755587635e-14 -2.454627972405396e-15 -1.0
  outer loop
    vertex -591.8888065231486 1034.521473249649 -7.696902117323266
    vertex -590.7809160811307 1033.7173156302297 -7.696902117323218
    vertex -591.5129995795561 1033.8739727836107 -7.696902117323246
  endloop
endfacet
facet normal 2.0736370755587635e-14 -2.454627972405396e-15 -1.0
  outer loop
    vertex -625.9708505439597 1044.0916483226529 -7.696902117323858
    vertex -620.4706049496212 1037.7789700968738 -7.696902117323602
    vertex -623.6803278039274 1031.0131580898205 -7.696902117323656
  endloop
endfacet
facet normal 2.0736370755587635e-14 -2.454627972405396e-15 -1.0
  outer loop
    vertex -620.4706049496212 1037.7789700968738 -7.696902117323602
    vertex -625.9708505439597 1044.0916483226529 -7.696902117323858
    vertex -619.6446007349799 1039.4593359850548 -7.696902117323587
  endloop
endfacet
facet normal 2.0736370755587635e-14 -2.454627972405396e-15 -1.0
  outer loop
    vertex -619.6446007349799 1039.4593359850548 -7.696902117323587
    vertex -625.9708505439597 1044.0916483226529 -7.696902117323858
    vertex -594.097739159689 1042.7662172428152 -7.696902117322879
  endloop
endfacet
facet normal 2.0736370755587635e-14 -2.454627972405396e-15 -1.0
  outer loop
    vertex -623.6803278039274 1031.0131580898205 -7.696902117323656
    vertex -620.4706049496212 1037.7789700968738 -7.696902117323602
    vertex -619.4186179973777 1029.333114282855 -7.696902117323488
  endloop
endfacet
facet normal 2.0736370755587635e-14 -2.454627972405396e-15 -1.0
  outer loop
    vertex -623.6803278039274 1031.0131580898205 -7.696902117323656
    vertex -619.4186179973777 1029.333114282855 -7.696902117323488
    vertex -623.2179362916096 1030.0708064853916 -7.696902117323632
  endloop
endfacet
facet normal 2.0736370755587635e-14 -2.454627972405396e-15 -1.0
  outer loop
    vertex -623.2179362916096 1030.0708064853916 -7.696902117323632
    vertex -619.4186179973777 1029.333114282855 -7.696902117323488
    vertex -622.3876004551307 1029.4286422885605 -7.696902117323595
  endloop
endfacet
facet normal 2.0736370755587635e-14 -2.454627972405396e-15 -1.0
  outer loop
    vertex -622.3876004551307 1029.4286422885605 -7.696902117323595
    vertex -619.4186179973777 1029.333114282855 -7.696902117323488
    vertex -619.629455617041 1028.6561618926373 -7.696902117323489
  endloop
endfacet
facet normal 2.0736370755587635e-14 -2.454627972405396e-15 -1.0
  outer loop
    vertex -622.3876004551307 1029.4286422885605 -7.696902117323595
    vertex -619.629455617041 1028.6561618926373 -7.696902117323489
    vertex -620.3375830159597 1028.6204879891857 -7.696902117323513
  endloop
endfacet
facet normal 0.04013179253255799 0.9991943951144462 1.9719123558833638e-15
  outer loop
    vertex -621.7354193004993 1047.93350634491 -7.696902117323741
    vertex -576.184151603188 1046.1039784434709 0.5007978826774867
    vertex -576.1841516031877 1046.1039784434709 -7.696902117322445
  endloop
endfacet
facet normal 0.04013179253255799 0.9991943951144462 1.9719123558833638e-15
  outer loop
    vertex -576.184151603188 1046.1039784434709 0.5007978826774867
    vertex -621.7354193004993 1047.93350634491 -7.696902117323741
    vertex -621.7354193004995 1047.93350634491 0.5007978826765523
  endloop
endfacet
facet normal -1.9805518168277933e-14 3.8436443712164956e-15 1.0
  outer loop
    vertex -625.97085054396 1044.0916483226529 0.5007978826762545
    vertex -619.6446007349803 1039.4593359850546 0.5007978826767048
    vertex -594.0977391596894 1042.7662172428152 0.5007978826772334
  endloop
endfacet
facet normal -1.9805518168277933e-14 3.8436443712164956e-15 1.0
  outer loop
    vertex -619.6446007349803 1039.4593359850546 0.5007978826767048
    vertex -625.97085054396 1044.0916483226529 0.5007978826762545
    vertex -620.4706049496216 1037.7789700968735 0.5007978826766903
  endloop
endfacet
facet normal -1.9805518168277933e-14 3.8436443712164956e-15 1.0
  outer loop
    vertex -620.4706049496216 1037.7789700968735 0.5007978826766903
    vertex -625.97085054396 1044.0916483226529 0.5007978826762545
    vertex -623.6803278039276 1031.0131580898203 0.5007978826764561
  endloop
endfacet
facet normal -1.9805518168277933e-14 3.8436443712164956e-15 1.0
  outer loop
    vertex -620.4706049496216 1037.7789700968735 0.5007978826766903
    vertex -623.6803278039276 1031.0131580898203 0.5007978826764561
    vertex -619.4186179973781 1029.333114282855 0.5007978826766247
  endloop
endfacet
facet normal -1.9805518168277933e-14 3.8436443712164956e-15 1.0
  outer loop
    vertex -619.4186179973781 1029.333114282855 0.5007978826766247
    vertex -623.6803278039276 1031.0131580898203 0.5007978826764561
    vertex -623.2179362916098 1030.0708064853916 0.5007978826764813
  endloop
endfacet
facet normal -1.9805518168277933e-14 3.8436443712164956e-15 1.0
  outer loop
    vertex -619.4186179973781 1029.333114282855 0.5007978826766247
    vertex -623.2179362916098 1030.0708064853916 0.5007978826764813
    vertex -622.3876004551311 1029.4286422885602 0.500797882676517
  endloop
endfacet
facet normal -1.9805518168277933e-14 3.8436443712164956e-15 1.0
  outer loop
    vertex -619.4186179973781 1029.333114282855 0.5007978826766247
    vertex -622.3876004551311 1029.4286422885602 0.500797882676517
    vertex -619.6294556170413 1028.656161892637 0.5007978826766233
  endloop
endfacet
facet normal -1.9805518168277933e-14 3.8436443712164956e-15 1.0
  outer loop
    vertex -619.6294556170413 1028.656161892637 0.5007978826766233
    vertex -622.3876004551311 1029.4286422885602 0.500797882676517
    vertex -620.33758301596 1028.6204879891854 0.5007978826765982
  endloop
endfacet
facet normal -1.9805518168277933e-14 3.8436443712164956e-15 1.0
  outer loop
    vertex -576.184151603188 1046.1039784434709 0.5007978826774867
    vertex -594.0977391596894 1042.7662172428152 0.5007978826772334
    vertex -576.5167607732086 1037.8227331395458 0.5007978826773698
  endloop
endfacet
facet normal -1.9805518168277933e-14 3.8436443712164956e-15 1.0
  outer loop
    vertex -594.0977391596894 1042.7662172428152 0.5007978826772334
    vertex -576.184151603188 1046.1039784434709 0.5007978826774867
    vertex -621.7354193004995 1047.93350634491 0.5007978826765523
  endloop
endfacet
facet normal -1.9805518168277933e-14 3.8436443712164956e-15 1.0
  outer loop
    vertex -594.0977391596894 1042.7662172428152 0.5007978826772334
    vertex -621.7354193004995 1047.93350634491 0.5007978826765523
    vertex -625.2425906345179 1045.730144353289 0.5007978826762657
  endloop
endfacet
facet normal -1.9805518168277933e-14 3.8436443712164956e-15 1.0
  outer loop
    vertex -594.0977391596894 1042.7662172428152 0.5007978826772334
    vertex -625.2425906345179 1045.730144353289 0.5007978826762657
    vertex -625.8347284058937 1045.0122386352998 0.5007978826762509
  endloop
endfacet
facet normal -1.9805518168277933e-14 3.8436443712164956e-15 1.0
  outer loop
    vertex -594.0977391596894 1042.7662172428152 0.5007978826772334
    vertex -625.8347284058937 1045.0122386352998 0.5007978826762509
    vertex -625.97085054396 1044.0916483226529 0.5007978826762545
  endloop
endfacet
facet normal -1.9805518168277933e-14 3.8436443712164956e-15 1.0
  outer loop
    vertex -576.5167607732086 1037.8227331395458 0.5007978826773698
    vertex -594.0977391596894 1042.7662172428152 0.5007978826772334
    vertex -592.6046329912333 1040.268471465175 0.5007978826769488
  endloop
endfacet
facet normal -1.9805518168277933e-14 3.8436443712164956e-15 1.0
  outer loop
    vertex -576.5167607732086 1037.8227331395458 0.5007978826773698
    vertex -592.6046329912333 1040.268471465175 0.5007978826769488
    vertex -591.8888065231488 1034.5214732496488 0.500797882677027
  endloop
endfacet
facet normal -1.9805518168277933e-14 3.8436443712164956e-15 1.0
  outer loop
    vertex -576.5167607732086 1037.8227331395458 0.5007978826773698
    vertex -591.8888065231488 1034.5214732496488 0.500797882677027
    vertex -576.8413401294548 1037.0396967303934 0.5007978826773652
  endloop
endfacet
facet normal -1.9805518168277933e-14 3.8436443712164956e-15 1.0
  outer loop
    vertex -576.8413401294548 1037.0396967303934 0.5007978826773652
    vertex -591.8888065231488 1034.5214732496488 0.500797882677027
    vertex -577.5666363650253 1036.601013305557 0.5007978826773432
  endloop
endfacet
facet normal -1.9805518168277933e-14 3.8436443712164956e-15 1.0
  outer loop
    vertex -577.5666363650253 1036.601013305557 0.5007978826773432
    vertex -591.8888065231488 1034.5214732496488 0.500797882677027
    vertex -590.7809160811311 1033.7173156302295 0.5007978826770743
  endloop
endfacet
facet normal -1.9805518168277933e-14 3.8436443712164956e-15 1.0
  outer loop
    vertex -590.7809160811311 1033.7173156302295 0.5007978826770743
    vertex -591.8888065231488 1034.5214732496488 0.500797882677027
    vertex -591.5129995795563 1033.8739727836105 0.5007978826770464
  endloop
endfacet
facet normal 0.21320815739957324 -0.9770067971197943 -1.4376034935176657e-14
  outer loop
    vertex -590.7809160811311 1033.7173156302295 0.5007978826770743
    vertex -577.5666363650249 1036.6010133055572 -7.696902117322769
    vertex -577.5666363650253 1036.601013305557 0.5007978826773432
  endloop
endfacet
facet normal 0.21320815739957324 -0.9770067971197943 -1.4376034935176657e-14
  outer loop
    vertex -577.5666363650249 1036.6010133055572 -7.696902117322769
    vertex -590.7809160811311 1033.7173156302295 0.5007978826770743
    vertex -590.7809160811307 1033.7173156302297 -7.696902117323218
  endloop
endfacet
facet normal 0.5655267373141143 -0.8247299614921559 7.573487184252416e-15
  outer loop
    vertex -596.0153329856713 1023.1273937344059 -7.696902117323391
    vertex -599.4312540590066 1020.7850577096169 0.5007978826769005
    vertex -599.4312540590066 1020.7850577096169 -7.6969021173233925
  endloop
endfacet
facet normal 0.5655267373141143 -0.8247299614921559 7.573487184252416e-15
  outer loop
    vertex -599.4312540590066 1020.7850577096169 0.5007978826769005
    vertex -596.0153329856713 1023.1273937344059 -7.696902117323391
    vertex -596.0153329856713 1023.1273937344059 0.500797882676721
  endloop
endfacet
facet normal -0.9144166340050941 0.4047742821064524 -3.5396737026278616e-14
  outer loop
    vertex -601.1025692112348 1030.8806541465196 -7.696902117323388
    vertex -601.8604718976421 1029.1684929395349 0.5007978826769042
    vertex -601.1025692112348 1030.88065414652 0.500797882676905
  endloop
endfacet
facet normal -0.9144166340050941 0.4047742821064524 -3.5396737026278616e-14
  outer loop
    vertex -601.8604718976421 1029.1684929395349 0.5007978826769042
    vertex -601.1025692112348 1030.8806541465196 -7.696902117323388
    vertex -601.8604718976421 1029.1684929395344 -7.696902117323388
  endloop
endfacet
facet normal 0.837048987785956 0.5471279485152505 1.0087227352384424e-14
  outer loop
    vertex -627.2540417238711 1024.839034372874 -7.696902117323571
    vertex -628.8461840540505 1027.2748469273313 0.5007978826761814
    vertex -627.2540417238711 1024.839034372874 0.5007978826765412
  endloop
endfacet
facet normal 0.837048987785956 0.5471279485152505 1.0087227352384424e-14
  outer loop
    vertex -628.8461840540505 1027.2748469273313 0.5007978826761814
    vertex -627.2540417238711 1024.839034372874 -7.696902117323571
    vertex -628.8461840540505 1027.274846927331 -7.69690211732375
  endloop
endfacet
facet normal 0.9865721616069703 0.16332596224161705 -5.158512007742602e-15
  outer loop
    vertex -628.8461840540505 1027.274846927331 -7.69690211732375
    vertex -629.7920711889055 1032.9884879337112 0.500797882676184
    vertex -628.8461840540505 1027.2748469273313 0.5007978826761814
  endloop
endfacet
facet normal 0.9865721616069703 0.16332596224161705 -5.158512007742602e-15
  outer loop
    vertex -629.7920711889055 1032.9884879337112 0.500797882676184
    vertex -628.8461840540505 1027.274846927331 -7.69690211732375
    vertex -629.7920711889055 1032.988487933711 -7.696902117324108
  endloop
endfacet
facet normal -0.1680690437368245 0.985775226173487 -2.866789610991485e-14
  outer loop
    vertex -601.8604718976421 1029.1684929395349 0.5007978826769042
    vertex -627.2540417238711 1024.839034372874 -7.696902117323571
    vertex -627.2540417238711 1024.839034372874 0.5007978826765412
  endloop
endfacet
facet normal -0.1680690437368245 0.985775226173487 -2.866789610991485e-14
  outer loop
    vertex -627.2540417238711 1024.839034372874 -7.696902117323571
    vertex -601.8604718976421 1029.1684929395349 0.5007978826769042
    vertex -601.8604718976421 1029.1684929395344 -7.696902117323388
  endloop
endfacet
facet normal 0.3291182266343194 0.9442887232711619 -1.907303660599153e-14
  outer loop
    vertex -599.5222316698522 1039.3011873558678 0.5007978826767282
    vertex -601.6030302856356 1040.0264197276335 -7.696902117323384
    vertex -601.6030302856356 1040.0264197276335 0.5007978826767285
  endloop
endfacet
facet normal 0.3291182266343194 0.9442887232711619 -1.907303660599153e-14
  outer loop
    vertex -601.6030302856356 1040.0264197276335 -7.696902117323384
    vertex -599.5222316698522 1039.3011873558678 0.5007978826767282
    vertex -599.5222316698522 1039.3011873558676 -7.696902117323384
  endloop
endfacet
facet normal -0.9865721616069694 -0.1633259622416235 4.221089457922845e-15
  outer loop
    vertex -602.492656010938 1039.2774878157177 0.5007978826767282
    vertex -601.1025692112348 1030.8806541465196 -7.696902117323388
    vertex -601.1025692112348 1030.88065414652 0.500797882676905
  endloop
endfacet
facet normal -0.9865721616069694 -0.1633259622416235 4.221089457922845e-15
  outer loop
    vertex -601.1025692112348 1030.8806541465196 -7.696902117323388
    vertex -602.492656010938 1039.2774878157177 0.5007978826767282
    vertex -602.492656010938 1039.2774878157177 -7.696902117323384
  endloop
endfacet
facet normal 0.5795316654531703 0.81494972160071 -1.6457214316980038e-14
  outer loop
    vertex -598.6667935556609 1038.6928633551727 0.5007978826767279
    vertex -599.5222316698522 1039.3011873558676 -7.696902117323384
    vertex -599.5222316698522 1039.3011873558678 0.5007978826767282
  endloop
endfacet
facet normal 0.5795316654531703 0.81494972160071 -1.6457214316980038e-14
  outer loop
    vertex -599.5222316698522 1039.3011873558676 -7.696902117323384
    vertex -598.6667935556609 1038.6928633551727 0.5007978826767279
    vertex -598.6667935556609 1038.6928633551727 -7.696902117323384
  endloop
endfacet
facet normal -0.09035442848440256 0.9959096732401274 -2.0112841903467055e-14
  outer loop
    vertex -601.6030302856356 1040.0264197276335 0.5007978826767285
    vertex -602.3091555559699 1039.962356141393 -7.696902117323384
    vertex -602.3091555559699 1039.962356141393 0.5007978826767285
  endloop
endfacet
facet normal -0.09035442848440256 0.9959096732401274 -2.0112841903467055e-14
  outer loop
    vertex -602.3091555559699 1039.962356141393 -7.696902117323384
    vertex -601.6030302856356 1040.0264197276335 0.5007978826767285
    vertex -601.6030302856356 1040.0264197276335 -7.696902117323384
  endloop
endfacet
facet normal 0.8793480080886452 0.4761796726767449 -9.616042215755763e-15
  outer loop
    vertex -598.1669562891227 1037.7698275140415 -7.696902117323385
    vertex -598.6667935556609 1038.6928633551727 0.5007978826767279
    vertex -598.1669562891227 1037.7698275140415 0.5007978826767275
  endloop
endfacet
facet normal 0.8793480080886452 0.4761796726767449 -9.616042215755763e-15
  outer loop
    vertex -598.6667935556609 1038.6928633551727 0.5007978826767279
    vertex -598.1669562891227 1037.7698275140415 -7.696902117323385
    vertex -598.6667935556609 1038.6928633551727 -7.696902117323384
  endloop
endfacet
facet normal -0.9659291617092662 0.2588065968240263 -5.226450539389692e-15
  outer loop
    vertex -602.3091555559699 1039.962356141393 -7.696902117323384
    vertex -602.492656010938 1039.2774878157177 0.5007978826767282
    vertex -602.3091555559699 1039.962356141393 0.5007978826767285
  endloop
endfacet
facet normal -0.9659291617092662 0.2588065968240263 -5.226450539389692e-15
  outer loop
    vertex -602.492656010938 1039.2774878157177 0.5007978826767282
    vertex -602.3091555559699 1039.962356141393 -7.696902117323384
    vertex -602.492656010938 1039.2774878157177 -7.696902117323384
  endloop
endfacet
facet normal 0.9772909069101385 0.21190206056279656 -3.1243235985526493e-15
  outer loop
    vertex -595.3534155487372 1024.7937961602304 -7.696902117323391
    vertex -598.1669562891227 1037.7698275140415 0.5007978826767275
    vertex -595.3534155487372 1024.7937961602306 0.5007978826767218
  endloop
endfacet
facet normal 0.9772909069101385 0.21190206056279656 -3.1243235985526493e-15
  outer loop
    vertex -598.1669562891227 1037.7698275140415 0.5007978826767275
    vertex -595.3534155487372 1024.7937961602304 -7.696902117323391
    vertex -598.1669562891227 1037.7698275140415 -7.696902117323385
  endloop
endfacet
facet normal 0.994317458011478 -0.106455590241155 9.7826761143871e-16
  outer loop
    vertex -595.4524830867093 1023.8684846542328 -7.696902117323391
    vertex -595.3534155487372 1024.7937961602306 0.5007978826767218
    vertex -595.4524830867093 1023.8684846542328 0.5007978826767214
  endloop
endfacet
facet normal 0.994317458011478 -0.106455590241155 9.7826761143871e-16
  outer loop
    vertex -595.3534155487372 1024.7937961602306 0.5007978826767218
    vertex -595.4524830867093 1023.8684846542328 -7.696902117323391
    vertex -595.3534155487372 1024.7937961602304 -7.696902117323391
  endloop
endfacet
facet normal 0.7963584531062571 -0.6048249450594851 5.555908241879357e-15
  outer loop
    vertex -596.0153329856713 1023.1273937344059 -7.696902117323391
    vertex -595.4524830867093 1023.8684846542328 0.5007978826767214
    vertex -596.0153329856713 1023.1273937344059 0.500797882676721
  endloop
endfacet
facet normal 0.7963584531062571 -0.6048249450594851 5.555908241879357e-15
  outer loop
    vertex -595.4524830867093 1023.8684846542328 0.5007978826767214
    vertex -596.0153329856713 1023.1273937344059 -7.696902117323391
    vertex -595.4524830867093 1023.8684846542328 -7.696902117323391
  endloop
endfacet
facet normal -1.0 0.0 0.0
  outer loop
    vertex -645.0192476666912 1029.0729798040727 0.5007978826760018
    vertex -645.0192476666912 1020.7850577096169 -7.696902117323753
    vertex -645.0192476666912 1020.7850577096169 0.5007978826761785
  endloop
endfacet
facet normal -1.0 0.0 0.0
  outer loop
    vertex -645.0192476666912 1020.7850577096169 -7.696902117323753
    vertex -645.0192476666912 1029.0729798040727 0.5007978826760018
    vertex -645.0192476666912 1029.0729798040725 -7.69690211732411
  endloop
endfacet
facet normal -0.9384045277072541 0.34553862646385175 -1.0840589491205795e-14
  outer loop
    vertex -644.7263544478777 1029.868411346653 -7.69690211732411
    vertex -645.0192476666912 1029.0729798040727 0.5007978826760018
    vertex -644.7263544478777 1029.8684113466531 0.5007978826760021
  endloop
endfacet
facet normal -0.9384045277072541 0.34553862646385175 -1.0840589491205795e-14
  outer loop
    vertex -645.0192476666912 1029.0729798040727 0.5007978826760018
    vertex -644.7263544478777 1029.868411346653 -7.69690211732411
    vertex -645.0192476666912 1029.0729798040725 -7.69690211732411
  endloop
endfacet
facet normal -0.551455911591493 0.8342040383328264 -2.6173234758399797e-14
  outer loop
    vertex -644.0192476666912 1030.33584880403 0.5007978826760023
    vertex -644.7263544478777 1029.868411346653 -7.69690211732411
    vertex -644.7263544478777 1029.8684113466531 0.5007978826760021
  endloop
endfacet
facet normal -0.551455911591493 0.8342040383328264 -2.6173234758399797e-14
  outer loop
    vertex -644.7263544478777 1029.868411346653 -7.69690211732411
    vertex -644.0192476666912 1030.33584880403 0.5007978826760023
    vertex -644.0192476666912 1030.3358488040296 -7.69690211732411
  endloop
endfacet
facet normal 0.16983889842271188 0.9854718405832609 -3.142804484788166e-14
  outer loop
    vertex -630.193560734956 1033.6203849639182 0.5007978826761843
    vertex -630.9313413957166 1033.7475360904555 -7.696902117324108
    vertex -630.9313413957166 1033.7475360904557 0.5007978826761843
  endloop
endfacet
facet normal 0.16983889842271188 0.9854718405832609 -3.142804484788166e-14
  outer loop
    vertex -630.9313413957166 1033.7475360904555 -7.696902117324108
    vertex -630.193560734956 1033.6203849639182 0.5007978826761843
    vertex -630.193560734956 1033.6203849639178 -7.696902117324108
  endloop
endfacet
facet normal 0.8440404615310727 0.5362794973690619 -1.7010026513717016e-14
  outer loop
    vertex -629.7920711889055 1032.988487933711 -7.696902117324108
    vertex -630.193560734956 1033.6203849639182 0.5007978826761843
    vertex -629.7920711889055 1032.9884879337112 0.500797882676184
  endloop
endfacet
facet normal 0.8440404615310727 0.5362794973690619 -1.7010026513717016e-14
  outer loop
    vertex -630.193560734956 1033.6203849639182 0.5007978826761843
    vertex -629.7920711889055 1032.988487933711 -7.696902117324108
    vertex -630.193560734956 1033.6203849639178 -7.696902117324108
  endloop
endfacet
facet normal 1.5514628903397745e-14 -5.595391112030868e-15 -1.0
  outer loop
    vertex -645.0192476666912 1020.7850577096169 -7.696902117323753
    vertex -627.2540417238711 1024.839034372874 -7.696902117323571
    vertex -599.4312540590066 1020.7850577096169 -7.6969021173233925
  endloop
endfacet
facet normal 1.5514628903397745e-14 -5.595391112030868e-15 -1.0
  outer loop
    vertex -627.2540417238711 1024.839034372874 -7.696902117323571
    vertex -645.0192476666912 1020.7850577096169 -7.696902117323753
    vertex -645.0192476666912 1029.0729798040725 -7.69690211732411
  endloop
endfacet
facet normal 1.5514628903397745e-14 -5.595391112030868e-15 -1.0
  outer loop
    vertex -599.4312540590066 1020.7850577096169 -7.6969021173233925
    vertex -627.2540417238711 1024.839034372874 -7.696902117323571
    vertex -596.0153329856713 1023.1273937344059 -7.696902117323391
  endloop
endfacet
facet normal 1.5514628903397745e-14 -5.595391112030868e-15 -1.0
  outer loop
    vertex -596.0153329856713 1023.1273937344059 -7.696902117323391
    vertex -627.2540417238711 1024.839034372874 -7.696902117323571
    vertex -595.4524830867093 1023.8684846542328 -7.696902117323391
  endloop
endfacet
facet normal 1.5514628903397745e-14 -5.595391112030868e-15 -1.0
  outer loop
    vertex -595.4524830867093 1023.8684846542328 -7.696902117323391
    vertex -627.2540417238711 1024.839034372874 -7.696902117323571
    vertex -595.3534155487372 1024.7937961602304 -7.696902117323391
  endloop
endfacet
facet normal 1.5514628903397745e-14 -5.595391112030868e-15 -1.0
  outer loop
    vertex -627.2540417238711 1024.839034372874 -7.696902117323571
    vertex -645.0192476666912 1029.0729798040725 -7.69690211732411
    vertex -628.8461840540505 1027.274846927331 -7.69690211732375
  endloop
endfacet
facet normal 1.5514628903397745e-14 -5.595391112030868e-15 -1.0
  outer loop
    vertex -628.8461840540505 1027.274846927331 -7.69690211732375
    vertex -645.0192476666912 1029.0729798040725 -7.69690211732411
    vertex -629.7920711889055 1032.988487933711 -7.696902117324108
  endloop
endfacet
facet normal 1.5514628903397745e-14 -5.595391112030868e-15 -1.0
  outer loop
    vertex -629.7920711889055 1032.988487933711 -7.696902117324108
    vertex -645.0192476666912 1029.0729798040725 -7.69690211732411
    vertex -644.7263544478777 1029.868411346653 -7.69690211732411
  endloop
endfacet
facet normal 1.5514628903397745e-14 -5.595391112030868e-15 -1.0
  outer loop
    vertex -629.7920711889055 1032.988487933711 -7.696902117324108
    vertex -644.7263544478777 1029.868411346653 -7.69690211732411
    vertex -644.0192476666912 1030.3358488040296 -7.69690211732411
  endloop
endfacet
facet normal 1.5514628903397745e-14 -5.595391112030868e-15 -1.0
  outer loop
    vertex -629.7920711889055 1032.988487933711 -7.696902117324108
    vertex -644.0192476666912 1030.3358488040296 -7.69690211732411
    vertex -630.9313413957166 1033.7475360904555 -7.696902117324108
  endloop
endfacet
facet normal 1.5514628903397745e-14 -5.595391112030868e-15 -1.0
  outer loop
    vertex -629.7920711889055 1032.988487933711 -7.696902117324108
    vertex -630.9313413957166 1033.7475360904555 -7.696902117324108
    vertex -630.193560734956 1033.6203849639178 -7.696902117324108
  endloop
endfacet
facet normal 1.5514628903397745e-14 -5.595391112030868e-15 -1.0
  outer loop
    vertex -595.3534155487372 1024.7937961602304 -7.696902117323391
    vertex -601.1025692112348 1030.8806541465196 -7.696902117323388
    vertex -598.1669562891227 1037.7698275140415 -7.696902117323385
  endloop
endfacet
facet normal 1.5514628903397745e-14 -5.595391112030868e-15 -1.0
  outer loop
    vertex -601.1025692112348 1030.8806541465196 -7.696902117323388
    vertex -595.3534155487372 1024.7937961602304 -7.696902117323391
    vertex -601.8604718976421 1029.1684929395344 -7.696902117323388
  endloop
endfacet
facet normal 1.5514628903397745e-14 -5.595391112030868e-15 -1.0
  outer loop
    vertex -601.8604718976421 1029.1684929395344 -7.696902117323388
    vertex -595.3534155487372 1024.7937961602304 -7.696902117323391
    vertex -627.2540417238711 1024.839034372874 -7.696902117323571
  endloop
endfacet
facet normal 1.5514628903397745e-14 -5.595391112030868e-15 -1.0
  outer loop
    vertex -598.1669562891227 1037.7698275140415 -7.696902117323385
    vertex -601.1025692112348 1030.8806541465196 -7.696902117323388
    vertex -602.492656010938 1039.2774878157177 -7.696902117323384
  endloop
endfacet
facet normal 1.5514628903397745e-14 -5.595391112030868e-15 -1.0
  outer loop
    vertex -598.1669562891227 1037.7698275140415 -7.696902117323385
    vertex -602.492656010938 1039.2774878157177 -7.696902117323384
    vertex -598.6667935556609 1038.6928633551727 -7.696902117323384
  endloop
endfacet
facet normal 1.5514628903397745e-14 -5.595391112030868e-15 -1.0
  outer loop
    vertex -598.6667935556609 1038.6928633551727 -7.696902117323384
    vertex -602.492656010938 1039.2774878157177 -7.696902117323384
    vertex -599.5222316698522 1039.3011873558676 -7.696902117323384
  endloop
endfacet
facet normal 1.5514628903397745e-14 -5.595391112030868e-15 -1.0
  outer loop
    vertex -599.5222316698522 1039.3011873558676 -7.696902117323384
    vertex -602.492656010938 1039.2774878157177 -7.696902117323384
    vertex -602.3091555559699 1039.962356141393 -7.696902117323384
  endloop
endfacet
facet normal 1.5514628903397745e-14 -5.595391112030868e-15 -1.0
  outer loop
    vertex -599.5222316698522 1039.3011873558676 -7.696902117323384
    vertex -602.3091555559699 1039.962356141393 -7.696902117323384
    vertex -601.6030302856356 1040.0264197276335 -7.696902117323384
  endloop
endfacet
facet normal 1.237153144669189e-16 -1.0 9.187766250991397e-15
  outer loop
    vertex -599.4312540590066 1020.7850577096169 -7.6969021173233925
    vertex -645.0192476666912 1020.7850577096169 0.5007978826761785
    vertex -645.0192476666912 1020.7850577096169 -7.696902117323753
  endloop
endfacet
facet normal 1.237153144669189e-16 -1.0 9.187766250991397e-15
  outer loop
    vertex -645.0192476666912 1020.7850577096169 0.5007978826761785
    vertex -599.4312540590066 1020.7850577096169 -7.6969021173233925
    vertex -599.4312540590066 1020.7850577096169 0.5007978826769005
  endloop
endfacet
facet normal -1.6388987873373972e-14 4.170136928704457e-15 1.0
  outer loop
    vertex -595.3534155487372 1024.7937961602306 0.5007978826767218
    vertex -601.8604718976421 1029.1684929395349 0.5007978826769042
    vertex -627.2540417238711 1024.839034372874 0.5007978826765412
  endloop
endfacet
facet normal -1.6388987873373972e-14 4.170136928704457e-15 1.0
  outer loop
    vertex -601.8604718976421 1029.1684929395349 0.5007978826769042
    vertex -595.3534155487372 1024.7937961602306 0.5007978826767218
    vertex -601.1025692112348 1030.88065414652 0.500797882676905
  endloop
endfacet
facet normal -1.6388987873373972e-14 4.170136928704457e-15 1.0
  outer loop
    vertex -601.1025692112348 1030.88065414652 0.500797882676905
    vertex -595.3534155487372 1024.7937961602306 0.5007978826767218
    vertex -598.1669562891227 1037.7698275140415 0.5007978826767275
  endloop
endfacet
facet normal -1.6388987873373972e-14 4.170136928704457e-15 1.0
  outer loop
    vertex -601.1025692112348 1030.88065414652 0.500797882676905
    vertex -598.1669562891227 1037.7698275140415 0.5007978826767275
    vertex -602.492656010938 1039.2774878157177 0.5007978826767282
  endloop
endfacet
facet normal -1.6388987873373972e-14 4.170136928704457e-15 1.0
  outer loop
    vertex -602.492656010938 1039.2774878157177 0.5007978826767282
    vertex -598.1669562891227 1037.7698275140415 0.5007978826767275
    vertex -598.6667935556609 1038.6928633551727 0.5007978826767279
  endloop
endfacet
facet normal -1.6388987873373972e-14 4.170136928704457e-15 1.0
  outer loop
    vertex -602.492656010938 1039.2774878157177 0.5007978826767282
    vertex -598.6667935556609 1038.6928633551727 0.5007978826767279
    vertex -599.5222316698522 1039.3011873558678 0.5007978826767282
  endloop
endfacet
facet normal -1.6388987873373972e-14 4.170136928704457e-15 1.0
  outer loop
    vertex -602.492656010938 1039.2774878157177 0.5007978826767282
    vertex -599.5222316698522 1039.3011873558678 0.5007978826767282
    vertex -602.3091555559699 1039.962356141393 0.5007978826767285
  endloop
endfacet
facet normal -1.6388987873373972e-14 4.170136928704457e-15 1.0
  outer loop
    vertex -602.3091555559699 1039.962356141393 0.5007978826767285
    vertex -599.5222316698522 1039.3011873558678 0.5007978826767282
    vertex -601.6030302856356 1040.0264197276335 0.5007978826767285
  endloop
endfacet
facet normal -1.6388987873373972e-14 4.170136928704457e-15 1.0
  outer loop
    vertex -645.0192476666912 1020.7850577096169 0.5007978826761785
    vertex -627.2540417238711 1024.839034372874 0.5007978826765412
    vertex -645.0192476666912 1029.0729798040727 0.5007978826760018
  endloop
endfacet
facet normal -1.6388987873373972e-14 4.170136928704457e-15 1.0
  outer loop
    vertex -627.2540417238711 1024.839034372874 0.5007978826765412
    vertex -645.0192476666912 1020.7850577096169 0.5007978826761785
    vertex -599.4312540590066 1020.7850577096169 0.5007978826769005
  endloop
endfacet
facet normal -1.6388987873373972e-14 4.170136928704457e-15 1.0
  outer loop
    vertex -627.2540417238711 1024.839034372874 0.5007978826765412
    vertex -599.4312540590066 1020.7850577096169 0.5007978826769005
    vertex -596.0153329856713 1023.1273937344059 0.500797882676721
  endloop
endfacet
facet normal -1.6388987873373972e-14 4.170136928704457e-15 1.0
  outer loop
    vertex -627.2540417238711 1024.839034372874 0.5007978826765412
    vertex -596.0153329856713 1023.1273937344059 0.500797882676721
    vertex -595.4524830867093 1023.8684846542328 0.5007978826767214
  endloop
endfacet
facet normal -1.6388987873373972e-14 4.170136928704457e-15 1.0
  outer loop
    vertex -627.2540417238711 1024.839034372874 0.5007978826765412
    vertex -595.4524830867093 1023.8684846542328 0.5007978826767214
    vertex -595.3534155487372 1024.7937961602306 0.5007978826767218
  endloop
endfacet
facet normal -1.6388987873373972e-14 4.170136928704457e-15 1.0
  outer loop
    vertex -645.0192476666912 1029.0729798040727 0.5007978826760018
    vertex -627.2540417238711 1024.839034372874 0.5007978826765412
    vertex -628.8461840540505 1027.2748469273313 0.5007978826761814
  endloop
endfacet
facet normal -1.6388987873373972e-14 4.170136928704457e-15 1.0
  outer loop
    vertex -645.0192476666912 1029.0729798040727 0.5007978826760018
    vertex -628.8461840540505 1027.2748469273313 0.5007978826761814
    vertex -629.7920711889055 1032.9884879337112 0.500797882676184
  endloop
endfacet
facet normal -1.6388987873373972e-14 4.170136928704457e-15 1.0
  outer loop
    vertex -645.0192476666912 1029.0729798040727 0.5007978826760018
    vertex -629.7920711889055 1032.9884879337112 0.500797882676184
    vertex -644.7263544478777 1029.8684113466531 0.5007978826760021
  endloop
endfacet
facet normal -1.6388987873373972e-14 4.170136928704457e-15 1.0
  outer loop
    vertex -644.7263544478777 1029.8684113466531 0.5007978826760021
    vertex -629.7920711889055 1032.9884879337112 0.500797882676184
    vertex -644.0192476666912 1030.33584880403 0.5007978826760023
  endloop
endfacet
facet normal -1.6388987873373972e-14 4.170136928704457e-15 1.0
  outer loop
    vertex -644.0192476666912 1030.33584880403 0.5007978826760023
    vertex -629.7920711889055 1032.9884879337112 0.500797882676184
    vertex -630.9313413957166 1033.7475360904557 0.5007978826761843
  endloop
endfacet
facet normal -1.6388987873373972e-14 4.170136928704457e-15 1.0
  outer loop
    vertex -630.9313413957166 1033.7475360904557 0.5007978826761843
    vertex -629.7920711889055 1032.9884879337112 0.500797882676184
    vertex -630.193560734956 1033.6203849639182 0.5007978826761843
  endloop
endfacet
facet normal -0.2522454299512428 0.9676632901318064 -3.052333535988394e-14
  outer loop
    vertex -630.9313413957166 1033.7475360904557 0.5007978826761843
    vertex -644.0192476666912 1030.3358488040296 -7.69690211732411
    vertex -644.0192476666912 1030.33584880403 0.5007978826760023
  endloop
endfacet
facet normal -0.2522454299512428 0.9676632901318064 -3.052333535988394e-14
  outer loop
    vertex -644.0192476666912 1030.3358488040296 -7.69690211732411
    vertex -630.9313413957166 1033.7475360904557 0.5007978826761843
    vertex -630.9313413957166 1033.7475360904555 -7.696902117324108
  endloop
endfacet
endsolid stand
