solid slim_v2_стойка_v2
facet normal 0.7675071884351233 0.0 0.6410403385906479
  outer loop
    vertex 436.3908064416068 -277.99720386830836 75.60279032641886
    vertex 433.8851347752697 -277.99720386830836 78.60279032641886
    vertex 436.3908064416068 -293.97720386830883 75.60279032641886
  endloop
endfacet
facet normal 0.7675071884351233 0.0 0.6410403385906479
  outer loop
    vertex 433.8851347752697 -293.97720386830883 78.60279032641886
    vertex 436.3908064416068 -293.97720386830883 75.60279032641886
    vertex 433.8851347752697 -277.99720386830836 78.60279032641886
  endloop
endfacet
facet normal 0.0 0.0 1.0
  outer loop
    vertex 423.1602956923314 -281.89513770231173 78.60279032641886
    vertex 423.1602956923314 -293.97720386830883 78.60279032641886
    vertex 427.05822952633474 -277.99720386830836 78.60279032641886
  endloop
endfacet
facet normal 0.0 0.0 1.0
  outer loop
    vertex 433.8851347752697 -293.97720386830883 78.60279032641886
    vertex 427.05822952633474 -277.99720386830836 78.60279032641886
    vertex 423.1602956923314 -293.97720386830883 78.60279032641886
  endloop
endfacet
facet normal 0.0 0.0 1.0
  outer loop
    vertex 433.8851347752697 -277.99720386830836 78.60279032641886
    vertex 427.05822952633474 -277.99720386830836 78.60279032641886
    vertex 433.8851347752697 -293.97720386830883 78.60279032641886
  endloop
endfacet
facet normal 0.0 0.0 -1.0
  outer loop
    vertex 423.1602956923314 -293.97720386830883 75.60279032641886
    vertex 423.1602956923314 -281.89513770231173 75.60279032641886
    vertex 433.3908064416068 -293.97720386830883 75.60279032641886
  endloop
endfacet
facet normal 0.0 0.0 -1.0
  outer loop
    vertex 427.05822952633474 -277.99720386830836 75.60279032641886
    vertex 433.3908064416068 -293.97720386830883 75.60279032641886
    vertex 423.1602956923314 -281.89513770231173 75.60279032641886
  endloop
endfacet
facet normal 0.0 0.0 -1.0
  outer loop
    vertex 433.3908064416068 -277.99720386830836 75.60279032641886
    vertex 433.3908064416068 -293.97720386830883 75.60279032641886
    vertex 427.05822952633474 -277.99720386830836 75.60279032641886
  endloop
endfacet
facet normal 0.0 0.0 1.0
  outer loop
    vertex 416.21029569233133 -293.97720386830883 43.70465919104391
    vertex 422.2904904307097 -280.6933604505329 43.70465919104391
    vertex 416.21029569233133 -277.99720386830836 43.70465919104391
  endloop
endfacet
facet normal 0.0 0.0 1.0
  outer loop
    vertex 422.60832767590546 -280.27914688815986 43.70465919104391
    vertex 416.21029569233133 -277.99720386830836 43.70465919104391
    vertex 422.2904904307097 -280.6933604505329 43.70465919104391
  endloop
endfacet
facet normal 0.0 0.0 1.0
  outer loop
    vertex 423.0225412382785 -279.96130964296395 43.70465919104391
    vertex 416.21029569233133 -277.99720386830836 43.70465919104391
    vertex 422.60832767590546 -280.27914688815986 43.70465919104391
  endloop
endfacet
facet normal 0.0 0.0 1.0
  outer loop
    vertex 423.5049031480735 -279.76150879795483 43.70465919104391
    vertex 416.21029569233133 -277.99720386830836 43.70465919104391
    vertex 423.0225412382785 -279.96130964296395 43.70465919104391
  endloop
endfacet
facet normal 0.0 0.0 1.0
  outer loop
    vertex 433.3908064416068 -277.99720386830836 43.70465919104391
    vertex 416.21029569233133 -277.99720386830836 43.70465919104391
    vertex 423.5049031480735 -279.76150879795483 43.70465919104391
  endloop
endfacet
facet normal 0.0 0.0 1.0
  outer loop
    vertex 422.0906895857004 -281.1757223603278 43.70465919104391
    vertex 422.2904904307097 -280.6933604505329 43.70465919104391
    vertex 416.21029569233133 -293.97720386830883 43.70465919104391
  endloop
endfacet
facet normal 0.0 0.0 1.0
  outer loop
    vertex 422.02254123827856 -281.6933604505329 43.70465919104391
    vertex 422.0906895857004 -281.1757223603278 43.70465919104391
    vertex 416.21029569233133 -293.97720386830883 43.70465919104391
  endloop
endfacet
facet normal 0.0 0.0 1.0
  outer loop
    vertex 424.02254123827856 -279.69336045053296 43.70465919104391
    vertex 433.3908064416068 -277.99720386830836 43.70465919104391
    vertex 423.5049031480735 -279.76150879795483 43.70465919104391
  endloop
endfacet
facet normal 0.0 0.0 1.0
  outer loop
    vertex 424.54017932848365 -279.76150879795483 43.70465919104391
    vertex 433.3908064416068 -277.99720386830836 43.70465919104391
    vertex 424.02254123827856 -279.69336045053296 43.70465919104391
  endloop
endfacet
facet normal 0.0 0.0 1.0
  outer loop
    vertex 425.0225412382785 -279.96130964296395 43.70465919104391
    vertex 433.3908064416068 -277.99720386830836 43.70465919104391
    vertex 424.54017932848365 -279.76150879795483 43.70465919104391
  endloop
endfacet
facet normal 0.0 0.0 1.0
  outer loop
    vertex 425.43675480065167 -280.27914688815986 43.70465919104391
    vertex 433.3908064416068 -277.99720386830836 43.70465919104391
    vertex 425.0225412382785 -279.96130964296395 43.70465919104391
  endloop
endfacet
facet normal 0.0 0.0 1.0
  outer loop
    vertex 425.75459204584746 -280.6933604505329 43.70465919104391
    vertex 433.3908064416068 -277.99720386830836 43.70465919104391
    vertex 425.43675480065167 -280.27914688815986 43.70465919104391
  endloop
endfacet
facet normal 0.0 0.0 1.0
  outer loop
    vertex 425.95439289085675 -281.1757223603278 43.70465919104391
    vertex 433.3908064416068 -277.99720386830836 43.70465919104391
    vertex 425.75459204584746 -280.6933604505329 43.70465919104391
  endloop
endfacet
facet normal 0.0 0.0 1.0
  outer loop
    vertex 426.02254123827856 -281.6933604505329 43.70465919104391
    vertex 433.3908064416068 -277.99720386830836 43.70465919104391
    vertex 425.95439289085675 -281.1757223603278 43.70465919104391
  endloop
endfacet
facet normal 0.0 0.0 1.0
  outer loop
    vertex 426.02254123827856 -289.6133604505329 43.70465919104391
    vertex 433.3908064416068 -277.99720386830836 43.70465919104391
    vertex 426.02254123827856 -281.6933604505329 43.70465919104391
  endloop
endfacet
facet normal 0.0 0.0 1.0
  outer loop
    vertex 433.3908064416068 -293.97720386830883 43.70465919104391
    vertex 423.5049031480735 -291.545212103111 43.70465919104391
    vertex 416.21029569233133 -293.97720386830883 43.70465919104391
  endloop
endfacet
facet normal 0.0 0.0 1.0
  outer loop
    vertex 423.0225412382786 -291.3454112581019 43.70465919104391
    vertex 416.21029569233133 -293.97720386830883 43.70465919104391
    vertex 423.5049031480735 -291.545212103111 43.70465919104391
  endloop
endfacet
facet normal 0.0 0.0 1.0
  outer loop
    vertex 422.60832767590546 -291.0275740129059 43.70465919104391
    vertex 416.21029569233133 -293.97720386830883 43.70465919104391
    vertex 423.0225412382786 -291.3454112581019 43.70465919104391
  endloop
endfacet
facet normal 0.0 0.0 1.0
  outer loop
    vertex 422.2904904307097 -290.61336045053287 43.70465919104391
    vertex 416.21029569233133 -293.97720386830883 43.70465919104391
    vertex 422.60832767590546 -291.0275740129059 43.70465919104391
  endloop
endfacet
facet normal 0.0 0.0 1.0
  outer loop
    vertex 422.0906895857004 -290.130998540738 43.70465919104391
    vertex 416.21029569233133 -293.97720386830883 43.70465919104391
    vertex 422.2904904307097 -290.61336045053287 43.70465919104391
  endloop
endfacet
facet normal 0.0 0.0 1.0
  outer loop
    vertex 422.02254123827856 -289.6133604505329 43.70465919104391
    vertex 416.21029569233133 -293.97720386830883 43.70465919104391
    vertex 422.0906895857004 -290.130998540738 43.70465919104391
  endloop
endfacet
facet normal 0.0 0.0 1.0
  outer loop
    vertex 422.02254123827856 -281.6933604505329 43.70465919104391
    vertex 416.21029569233133 -293.97720386830883 43.70465919104391
    vertex 422.02254123827856 -289.6133604505329 43.70465919104391
  endloop
endfacet
facet normal 0.0 0.0 1.0
  outer loop
    vertex 424.02254123827856 -291.6133604505328 43.70465919104391
    vertex 423.5049031480735 -291.545212103111 43.70465919104391
    vertex 433.3908064416068 -293.97720386830883 43.70465919104391
  endloop
endfacet
facet normal 0.0 0.0 1.0
  outer loop
    vertex 424.54017932848365 -291.545212103111 43.70465919104391
    vertex 424.02254123827856 -291.6133604505328 43.70465919104391
    vertex 433.3908064416068 -293.97720386830883 43.70465919104391
  endloop
endfacet
facet normal 0.0 0.0 1.0
  outer loop
    vertex 425.0225412382786 -291.3454112581019 43.70465919104391
    vertex 424.54017932848365 -291.545212103111 43.70465919104391
    vertex 433.3908064416068 -293.97720386830883 43.70465919104391
  endloop
endfacet
facet normal 0.0 0.0 1.0
  outer loop
    vertex 425.43675480065167 -291.0275740129059 43.70465919104391
    vertex 425.0225412382786 -291.3454112581019 43.70465919104391
    vertex 433.3908064416068 -293.97720386830883 43.70465919104391
  endloop
endfacet
facet normal 0.0 0.0 1.0
  outer loop
    vertex 425.75459204584746 -290.61336045053287 43.70465919104391
    vertex 425.43675480065167 -291.0275740129059 43.70465919104391
    vertex 433.3908064416068 -293.97720386830883 43.70465919104391
  endloop
endfacet
facet normal 0.0 0.0 1.0
  outer loop
    vertex 425.95439289085675 -290.130998540738 43.70465919104391
    vertex 425.75459204584746 -290.61336045053287 43.70465919104391
    vertex 433.3908064416068 -293.97720386830883 43.70465919104391
  endloop
endfacet
facet normal 0.0 0.0 1.0
  outer loop
    vertex 426.02254123827856 -289.6133604505329 43.70465919104391
    vertex 425.95439289085675 -290.130998540738 43.70465919104391
    vertex 433.3908064416068 -293.97720386830883 43.70465919104391
  endloop
endfacet
facet normal 0.0 0.0 1.0
  outer loop
    vertex 433.3908064416068 -277.99720386830836 43.70465919104391
    vertex 426.02254123827856 -289.6133604505329 43.70465919104391
    vertex 433.3908064416068 -293.97720386830883 43.70465919104391
  endloop
endfacet
facet normal 0.0 0.0 1.0
  outer loop
    vertex 422.02254123827856 -281.6933604505329 43.70465919104391
    vertex 422.02254123827856 -289.6133604505329 43.70465919104391
    vertex 422.0906895857004 -282.21099854073793 43.70465919104391
  endloop
endfacet
facet normal 0.0 0.0 1.0
  outer loop
    vertex 422.0906895857004 -289.09572236032784 43.70465919104391
    vertex 422.0906895857004 -282.21099854073793 43.70465919104391
    vertex 422.02254123827856 -289.6133604505329 43.70465919104391
  endloop
endfacet
facet normal 0.0 0.0 1.0
  outer loop
    vertex 422.2904904307097 -282.69336045053285 43.70465919104391
    vertex 422.0906895857004 -282.21099854073793 43.70465919104391
    vertex 422.0906895857004 -289.09572236032784 43.70465919104391
  endloop
endfacet
facet normal 0.0 0.0 1.0
  outer loop
    vertex 422.2904904307097 -288.613360450533 43.70465919104391
    vertex 422.2904904307097 -282.69336045053285 43.70465919104391
    vertex 422.0906895857004 -289.09572236032784 43.70465919104391
  endloop
endfacet
facet normal 0.0 0.0 1.0
  outer loop
    vertex 422.60832767590546 -283.1075740129059 43.70465919104391
    vertex 422.2904904307097 -282.69336045053285 43.70465919104391
    vertex 422.2904904307097 -288.613360450533 43.70465919104391
  endloop
endfacet
facet normal 0.0 0.0 1.0
  outer loop
    vertex 422.60832767590546 -288.19914688815993 43.70465919104391
    vertex 422.60832767590546 -283.1075740129059 43.70465919104391
    vertex 422.2904904307097 -288.613360450533 43.70465919104391
  endloop
endfacet
facet normal 0.0 0.0 1.0
  outer loop
    vertex 423.0225412382786 -283.42541125810186 43.70465919104391
    vertex 422.60832767590546 -283.1075740129059 43.70465919104391
    vertex 422.60832767590546 -288.19914688815993 43.70465919104391
  endloop
endfacet
facet normal 0.0 0.0 1.0
  outer loop
    vertex 423.0225412382785 -287.88130964296397 43.70465919104391
    vertex 423.0225412382786 -283.42541125810186 43.70465919104391
    vertex 422.60832767590546 -288.19914688815993 43.70465919104391
  endloop
endfacet
facet normal 0.0 0.0 1.0
  outer loop
    vertex 423.5049031480735 -287.68150879795485 43.70465919104391
    vertex 423.0225412382786 -283.42541125810186 43.70465919104391
    vertex 423.0225412382785 -287.88130964296397 43.70465919104391
  endloop
endfacet
facet normal 0.0 0.0 1.0
  outer loop
    vertex 423.5049031480735 -283.625212103111 43.70465919104391
    vertex 423.0225412382786 -283.42541125810186 43.70465919104391
    vertex 423.5049031480735 -287.68150879795485 43.70465919104391
  endloop
endfacet
facet normal 0.0 0.0 1.0
  outer loop
    vertex 424.02254123827856 -283.6933604505328 43.70465919104391
    vertex 423.5049031480735 -283.625212103111 43.70465919104391
    vertex 423.5049031480735 -287.68150879795485 43.70465919104391
  endloop
endfacet
facet normal 0.0 0.0 1.0
  outer loop
    vertex 424.02254123827856 -287.61336045053304 43.70465919104391
    vertex 424.02254123827856 -283.6933604505328 43.70465919104391
    vertex 423.5049031480735 -287.68150879795485 43.70465919104391
  endloop
endfacet
facet normal 0.0 0.0 1.0
  outer loop
    vertex 424.54017932848365 -283.625212103111 43.70465919104391
    vertex 424.02254123827856 -283.6933604505328 43.70465919104391
    vertex 424.02254123827856 -287.61336045053304 43.70465919104391
  endloop
endfacet
facet normal 0.0 0.0 1.0
  outer loop
    vertex 424.54017932848365 -287.68150879795485 43.70465919104391
    vertex 424.54017932848365 -283.625212103111 43.70465919104391
    vertex 424.02254123827856 -287.61336045053304 43.70465919104391
  endloop
endfacet
facet normal 0.0 0.0 1.0
  outer loop
    vertex 425.0225412382786 -283.42541125810186 43.70465919104391
    vertex 424.54017932848365 -283.625212103111 43.70465919104391
    vertex 424.54017932848365 -287.68150879795485 43.70465919104391
  endloop
endfacet
facet normal 0.0 0.0 1.0
  outer loop
    vertex 425.0225412382785 -287.88130964296397 43.70465919104391
    vertex 425.0225412382786 -283.42541125810186 43.70465919104391
    vertex 424.54017932848365 -287.68150879795485 43.70465919104391
  endloop
endfacet
facet normal 0.0 0.0 1.0
  outer loop
    vertex 425.43675480065167 -288.19914688815993 43.70465919104391
    vertex 425.0225412382786 -283.42541125810186 43.70465919104391
    vertex 425.0225412382785 -287.88130964296397 43.70465919104391
  endloop
endfacet
facet normal 0.0 0.0 1.0
  outer loop
    vertex 425.43675480065167 -283.1075740129059 43.70465919104391
    vertex 425.0225412382786 -283.42541125810186 43.70465919104391
    vertex 425.43675480065167 -288.19914688815993 43.70465919104391
  endloop
endfacet
facet normal 0.0 0.0 1.0
  outer loop
    vertex 425.75459204584746 -282.69336045053285 43.70465919104391
    vertex 425.43675480065167 -283.1075740129059 43.70465919104391
    vertex 425.43675480065167 -288.19914688815993 43.70465919104391
  endloop
endfacet
facet normal 0.0 0.0 1.0
  outer loop
    vertex 425.75459204584746 -288.613360450533 43.70465919104391
    vertex 425.75459204584746 -282.69336045053285 43.70465919104391
    vertex 425.43675480065167 -288.19914688815993 43.70465919104391
  endloop
endfacet
facet normal 0.0 0.0 1.0
  outer loop
    vertex 425.95439289085675 -282.21099854073793 43.70465919104391
    vertex 425.75459204584746 -282.69336045053285 43.70465919104391
    vertex 425.75459204584746 -288.613360450533 43.70465919104391
  endloop
endfacet
facet normal 0.0 0.0 1.0
  outer loop
    vertex 425.95439289085675 -289.09572236032784 43.70465919104391
    vertex 425.95439289085675 -282.21099854073793 43.70465919104391
    vertex 425.75459204584746 -288.613360450533 43.70465919104391
  endloop
endfacet
facet normal 0.0 0.0 1.0
  outer loop
    vertex 426.02254123827856 -281.6933604505329 43.70465919104391
    vertex 425.95439289085675 -282.21099854073793 43.70465919104391
    vertex 425.95439289085675 -289.09572236032784 43.70465919104391
  endloop
endfacet
facet normal 0.0 0.0 1.0
  outer loop
    vertex 426.02254123827856 -289.6133604505329 43.70465919104391
    vertex 426.02254123827856 -281.6933604505329 43.70465919104391
    vertex 425.95439289085675 -289.09572236032784 43.70465919104391
  endloop
endfacet
facet normal -1.0 0.0 0.0
  outer loop
    vertex 416.21029569233133 -277.99720386830836 43.70465919104391
    vertex 416.21029569233133 -277.99720386830836 40.70465919104391
    vertex 416.21029569233133 -293.97720386830883 43.70465919104391
  endloop
endfacet
facet normal -1.0 0.0 0.0
  outer loop
    vertex 416.21029569233133 -293.97720386830883 40.70465919104391
    vertex 416.21029569233133 -293.97720386830883 43.70465919104391
    vertex 416.21029569233133 -277.99720386830836 40.70465919104391
  endloop
endfacet
facet normal 0.0 0.0 -1.0
  outer loop
    vertex 416.21029569233133 -293.97720386830883 40.70465919104391
    vertex 416.21029569233133 -277.99720386830836 40.70465919104391
    vertex 434.68281919469064 -293.97720386830883 40.70465919104391
  endloop
endfacet
facet normal 0.0 0.0 -1.0
  outer loop
    vertex 434.68281919469064 -277.99720386830836 40.70465919104391
    vertex 434.68281919469064 -293.97720386830883 40.70465919104391
    vertex 416.21029569233133 -277.99720386830836 40.70465919104391
  endloop
endfacet
facet normal 0.0 0.0 1.0
  outer loop
    vertex 422.02254123827856 -281.6933604505329 46.70465919104391
    vertex 422.0906895857004 -282.21099854073793 46.70465919104391
    vertex 422.0906895857004 -281.1757223603278 46.70465919104391
  endloop
endfacet
facet normal 0.0 0.0 1.0
  outer loop
    vertex 422.2904904307097 -280.6933604505329 46.70465919104391
    vertex 422.0906895857004 -281.1757223603278 46.70465919104391
    vertex 422.0906895857004 -282.21099854073793 46.70465919104391
  endloop
endfacet
facet normal 0.0 0.0 1.0
  outer loop
    vertex 422.2904904307097 -282.69336045053285 46.70465919104391
    vertex 422.2904904307097 -280.6933604505329 46.70465919104391
    vertex 422.0906895857004 -282.21099854073793 46.70465919104391
  endloop
endfacet
facet normal 0.0 0.0 1.0
  outer loop
    vertex 422.60832767590546 -280.27914688815986 46.70465919104391
    vertex 422.2904904307097 -280.6933604505329 46.70465919104391
    vertex 422.2904904307097 -282.69336045053285 46.70465919104391
  endloop
endfacet
facet normal 0.0 0.0 1.0
  outer loop
    vertex 422.60832767590546 -283.1075740129059 46.70465919104391
    vertex 422.60832767590546 -280.27914688815986 46.70465919104391
    vertex 422.2904904307097 -282.69336045053285 46.70465919104391
  endloop
endfacet
facet normal 0.0 0.0 1.0
  outer loop
    vertex 423.0225412382785 -279.96130964296395 46.70465919104391
    vertex 422.60832767590546 -280.27914688815986 46.70465919104391
    vertex 422.60832767590546 -283.1075740129059 46.70465919104391
  endloop
endfacet
facet normal 0.0 0.0 1.0
  outer loop
    vertex 423.0225412382786 -283.42541125810186 46.70465919104391
    vertex 423.0225412382785 -279.96130964296395 46.70465919104391
    vertex 422.60832767590546 -283.1075740129059 46.70465919104391
  endloop
endfacet
facet normal 0.0 0.0 1.0
  outer loop
    vertex 423.5049031480735 -279.76150879795483 46.70465919104391
    vertex 423.0225412382785 -279.96130964296395 46.70465919104391
    vertex 423.0225412382786 -283.42541125810186 46.70465919104391
  endloop
endfacet
facet normal 0.0 0.0 1.0
  outer loop
    vertex 423.5049031480735 -283.625212103111 46.70465919104391
    vertex 423.5049031480735 -279.76150879795483 46.70465919104391
    vertex 423.0225412382786 -283.42541125810186 46.70465919104391
  endloop
endfacet
facet normal 0.0 0.0 1.0
  outer loop
    vertex 424.02254123827856 -279.69336045053296 46.70465919104391
    vertex 423.5049031480735 -279.76150879795483 46.70465919104391
    vertex 423.5049031480735 -283.625212103111 46.70465919104391
  endloop
endfacet
facet normal 0.0 0.0 1.0
  outer loop
    vertex 424.02254123827856 -283.6933604505328 46.70465919104391
    vertex 424.02254123827856 -279.69336045053296 46.70465919104391
    vertex 423.5049031480735 -283.625212103111 46.70465919104391
  endloop
endfacet
facet normal 0.0 0.0 1.0
  outer loop
    vertex 424.54017932848365 -279.76150879795483 46.70465919104391
    vertex 424.02254123827856 -279.69336045053296 46.70465919104391
    vertex 424.02254123827856 -283.6933604505328 46.70465919104391
  endloop
endfacet
facet normal 0.0 0.0 1.0
  outer loop
    vertex 424.54017932848365 -283.625212103111 46.70465919104391
    vertex 424.54017932848365 -279.76150879795483 46.70465919104391
    vertex 424.02254123827856 -283.6933604505328 46.70465919104391
  endloop
endfacet
facet normal 0.0 0.0 1.0
  outer loop
    vertex 425.0225412382785 -279.96130964296395 46.70465919104391
    vertex 424.54017932848365 -279.76150879795483 46.70465919104391
    vertex 424.54017932848365 -283.625212103111 46.70465919104391
  endloop
endfacet
facet normal 0.0 0.0 1.0
  outer loop
    vertex 425.0225412382786 -283.42541125810186 46.70465919104391
    vertex 425.0225412382785 -279.96130964296395 46.70465919104391
    vertex 424.54017932848365 -283.625212103111 46.70465919104391
  endloop
endfacet
facet normal 0.0 0.0 1.0
  outer loop
    vertex 425.43675480065167 -280.27914688815986 46.70465919104391
    vertex 425.0225412382785 -279.96130964296395 46.70465919104391
    vertex 425.0225412382786 -283.42541125810186 46.70465919104391
  endloop
endfacet
facet normal 0.0 0.0 1.0
  outer loop
    vertex 425.43675480065167 -283.1075740129059 46.70465919104391
    vertex 425.43675480065167 -280.27914688815986 46.70465919104391
    vertex 425.0225412382786 -283.42541125810186 46.70465919104391
  endloop
endfacet
facet normal 0.0 0.0 1.0
  outer loop
    vertex 425.75459204584746 -280.6933604505329 46.70465919104391
    vertex 425.43675480065167 -280.27914688815986 46.70465919104391
    vertex 425.43675480065167 -283.1075740129059 46.70465919104391
  endloop
endfacet
facet normal 0.0 0.0 1.0
  outer loop
    vertex 425.75459204584746 -282.69336045053285 46.70465919104391
    vertex 425.75459204584746 -280.6933604505329 46.70465919104391
    vertex 425.43675480065167 -283.1075740129059 46.70465919104391
  endloop
endfacet
facet normal 0.0 0.0 1.0
  outer loop
    vertex 425.95439289085675 -281.1757223603278 46.70465919104391
    vertex 425.75459204584746 -280.6933604505329 46.70465919104391
    vertex 425.75459204584746 -282.69336045053285 46.70465919104391
  endloop
endfacet
facet normal 0.0 0.0 1.0
  outer loop
    vertex 425.95439289085675 -282.21099854073793 46.70465919104391
    vertex 425.95439289085675 -281.1757223603278 46.70465919104391
    vertex 425.75459204584746 -282.69336045053285 46.70465919104391
  endloop
endfacet
facet normal 0.0 0.0 1.0
  outer loop
    vertex 426.02254123827856 -281.6933604505329 46.70465919104391
    vertex 425.95439289085675 -281.1757223603278 46.70465919104391
    vertex 425.95439289085675 -282.21099854073793 46.70465919104391
  endloop
endfacet
facet normal 0.9914448613738197 -0.13052619221998144 0.0
  outer loop
    vertex 426.02254123827856 -281.6933604505329 43.70465919104391
    vertex 426.02254123827856 -281.6933604505329 46.70465919104391
    vertex 425.95439289085675 -282.21099854073793 43.70465919104391
  endloop
endfacet
facet normal 0.9914448613738197 -0.13052619221998144 0.0
  outer loop
    vertex 425.95439289085675 -282.21099854073793 46.70465919104391
    vertex 425.95439289085675 -282.21099854073793 43.70465919104391
    vertex 426.02254123827856 -281.6933604505329 46.70465919104391
  endloop
endfacet
facet normal 0.9914448613738197 0.13052619221998144 0.0
  outer loop
    vertex 425.95439289085675 -281.1757223603278 43.70465919104391
    vertex 425.95439289085675 -281.1757223603278 46.70465919104391
    vertex 426.02254123827856 -281.6933604505329 43.70465919104391
  endloop
endfacet
facet normal 0.9914448613738197 0.13052619221998144 0.0
  outer loop
    vertex 426.02254123827856 -281.6933604505329 46.70465919104391
    vertex 426.02254123827856 -281.6933604505329 43.70465919104391
    vertex 425.95439289085675 -281.1757223603278 46.70465919104391
  endloop
endfacet
facet normal 0.923879532511239 0.3826834323652056 0.0
  outer loop
    vertex 425.75459204584746 -280.6933604505329 43.70465919104391
    vertex 425.75459204584746 -280.6933604505329 46.70465919104391
    vertex 425.95439289085675 -281.1757223603278 43.70465919104391
  endloop
endfacet
facet normal 0.923879532511239 0.3826834323652056 0.0
  outer loop
    vertex 425.95439289085675 -281.1757223603278 46.70465919104391
    vertex 425.95439289085675 -281.1757223603278 43.70465919104391
    vertex 425.75459204584746 -280.6933604505329 46.70465919104391
  endloop
endfacet
facet normal 0.7933533402912196 0.6087614290087409 0.0
  outer loop
    vertex 425.43675480065167 -280.27914688815986 43.70465919104391
    vertex 425.43675480065167 -280.27914688815986 46.70465919104391
    vertex 425.75459204584746 -280.6933604505329 43.70465919104391
  endloop
endfacet
facet normal 0.7933533402912196 0.6087614290087409 0.0
  outer loop
    vertex 425.75459204584746 -280.6933604505329 46.70465919104391
    vertex 425.75459204584746 -280.6933604505329 43.70465919104391
    vertex 425.43675480065167 -280.27914688815986 46.70465919104391
  endloop
endfacet
facet normal 0.608761429008875 0.7933533402911168 0.0
  outer loop
    vertex 425.43675480065167 -280.27914688815986 43.70465919104391
    vertex 425.0225412382785 -279.96130964296395 43.70465919104391
    vertex 425.43675480065167 -280.27914688815986 46.70465919104391
  endloop
endfacet
facet normal 0.608761429008875 0.7933533402911168 0.0
  outer loop
    vertex 425.0225412382785 -279.96130964296395 46.70465919104391
    vertex 425.43675480065167 -280.27914688815986 46.70465919104391
    vertex 425.0225412382785 -279.96130964296395 43.70465919104391
  endloop
endfacet
facet normal 0.3826834323649104 0.923879532511361 0.0
  outer loop
    vertex 425.0225412382785 -279.96130964296395 43.70465919104391
    vertex 424.54017932848365 -279.76150879795483 43.70465919104391
    vertex 425.0225412382785 -279.96130964296395 46.70465919104391
  endloop
endfacet
facet normal 0.3826834323649104 0.923879532511361 0.0
  outer loop
    vertex 424.54017932848365 -279.76150879795483 46.70465919104391
    vertex 425.0225412382785 -279.96130964296395 46.70465919104391
    vertex 424.54017932848365 -279.76150879795483 43.70465919104391
  endloop
endfacet
facet normal 0.13052619221998144 0.9914448613738197 0.0
  outer loop
    vertex 424.54017932848365 -279.76150879795483 43.70465919104391
    vertex 424.02254123827856 -279.69336045053296 43.70465919104391
    vertex 424.54017932848365 -279.76150879795483 46.70465919104391
  endloop
endfacet
facet normal 0.13052619221998144 0.9914448613738197 0.0
  outer loop
    vertex 424.02254123827856 -279.69336045053296 46.70465919104391
    vertex 424.54017932848365 -279.76150879795483 46.70465919104391
    vertex 424.02254123827856 -279.69336045053296 43.70465919104391
  endloop
endfacet
facet normal -0.13052619221998144 0.9914448613738197 0.0
  outer loop
    vertex 424.02254123827856 -279.69336045053296 43.70465919104391
    vertex 423.5049031480735 -279.76150879795483 43.70465919104391
    vertex 424.02254123827856 -279.69336045053296 46.70465919104391
  endloop
endfacet
facet normal -0.13052619221998144 0.9914448613738197 0.0
  outer loop
    vertex 423.5049031480735 -279.76150879795483 46.70465919104391
    vertex 424.02254123827856 -279.69336045053296 46.70465919104391
    vertex 423.5049031480735 -279.76150879795483 43.70465919104391
  endloop
endfacet
facet normal -0.3826834323648493 0.9238795325113863 0.0
  outer loop
    vertex 423.5049031480735 -279.76150879795483 43.70465919104391
    vertex 423.0225412382785 -279.96130964296395 43.70465919104391
    vertex 423.5049031480735 -279.76150879795483 46.70465919104391
  endloop
endfacet
facet normal -0.3826834323648493 0.9238795325113863 0.0
  outer loop
    vertex 423.0225412382785 -279.96130964296395 46.70465919104391
    vertex 423.5049031480735 -279.76150879795483 46.70465919104391
    vertex 423.0225412382785 -279.96130964296395 43.70465919104391
  endloop
endfacet
facet normal -0.6087614290089584 0.7933533402910526 0.0
  outer loop
    vertex 423.0225412382785 -279.96130964296395 43.70465919104391
    vertex 422.60832767590546 -280.27914688815986 43.70465919104391
    vertex 423.0225412382785 -279.96130964296395 46.70465919104391
  endloop
endfacet
facet normal -0.6087614290089584 0.7933533402910526 0.0
  outer loop
    vertex 422.60832767590546 -280.27914688815986 46.70465919104391
    vertex 423.0225412382785 -279.96130964296395 46.70465919104391
    vertex 422.60832767590546 -280.27914688815986 43.70465919104391
  endloop
endfacet
facet normal -0.7933533402912196 0.6087614290087409 0.0
  outer loop
    vertex 422.60832767590546 -280.27914688815986 46.70465919104391
    vertex 422.60832767590546 -280.27914688815986 43.70465919104391
    vertex 422.2904904307097 -280.6933604505329 46.70465919104391
  endloop
endfacet
facet normal -0.7933533402912196 0.6087614290087409 0.0
  outer loop
    vertex 422.2904904307097 -280.6933604505329 43.70465919104391
    vertex 422.2904904307097 -280.6933604505329 46.70465919104391
    vertex 422.60832767590546 -280.27914688815986 43.70465919104391
  endloop
endfacet
facet normal -0.923879532511239 0.3826834323652056 0.0
  outer loop
    vertex 422.2904904307097 -280.6933604505329 46.70465919104391
    vertex 422.2904904307097 -280.6933604505329 43.70465919104391
    vertex 422.0906895857004 -281.1757223603278 46.70465919104391
  endloop
endfacet
facet normal -0.923879532511239 0.3826834323652056 0.0
  outer loop
    vertex 422.0906895857004 -281.1757223603278 43.70465919104391
    vertex 422.0906895857004 -281.1757223603278 46.70465919104391
    vertex 422.2904904307097 -280.6933604505329 43.70465919104391
  endloop
endfacet
facet normal -0.9914448613738197 0.13052619221998144 0.0
  outer loop
    vertex 422.0906895857004 -281.1757223603278 46.70465919104391
    vertex 422.0906895857004 -281.1757223603278 43.70465919104391
    vertex 422.02254123827856 -281.6933604505329 46.70465919104391
  endloop
endfacet
facet normal -0.9914448613738197 0.13052619221998144 0.0
  outer loop
    vertex 422.02254123827856 -281.6933604505329 43.70465919104391
    vertex 422.02254123827856 -281.6933604505329 46.70465919104391
    vertex 422.0906895857004 -281.1757223603278 43.70465919104391
  endloop
endfacet
facet normal -0.9914448613738197 -0.13052619221998144 0.0
  outer loop
    vertex 422.02254123827856 -281.6933604505329 46.70465919104391
    vertex 422.02254123827856 -281.6933604505329 43.70465919104391
    vertex 422.0906895857004 -282.21099854073793 46.70465919104391
  endloop
endfacet
facet normal -0.9914448613738197 -0.13052619221998144 0.0
  outer loop
    vertex 422.0906895857004 -282.21099854073793 43.70465919104391
    vertex 422.0906895857004 -282.21099854073793 46.70465919104391
    vertex 422.02254123827856 -281.6933604505329 43.70465919104391
  endloop
endfacet
facet normal -0.923879532511239 -0.3826834323652056 0.0
  outer loop
    vertex 422.0906895857004 -282.21099854073793 46.70465919104391
    vertex 422.0906895857004 -282.21099854073793 43.70465919104391
    vertex 422.2904904307097 -282.69336045053285 46.70465919104391
  endloop
endfacet
facet normal -0.923879532511239 -0.3826834323652056 0.0
  outer loop
    vertex 422.2904904307097 -282.69336045053285 43.70465919104391
    vertex 422.2904904307097 -282.69336045053285 46.70465919104391
    vertex 422.0906895857004 -282.21099854073793 43.70465919104391
  endloop
endfacet
facet normal -0.7933533402912196 -0.6087614290087409 0.0
  outer loop
    vertex 422.2904904307097 -282.69336045053285 46.70465919104391
    vertex 422.2904904307097 -282.69336045053285 43.70465919104391
    vertex 422.60832767590546 -283.1075740129059 46.70465919104391
  endloop
endfacet
facet normal -0.7933533402912196 -0.6087614290087409 0.0
  outer loop
    vertex 422.60832767590546 -283.1075740129059 43.70465919104391
    vertex 422.60832767590546 -283.1075740129059 46.70465919104391
    vertex 422.2904904307097 -282.69336045053285 43.70465919104391
  endloop
endfacet
facet normal -0.608761429008875 -0.7933533402911168 0.0
  outer loop
    vertex 422.60832767590546 -283.1075740129059 43.70465919104391
    vertex 423.0225412382786 -283.42541125810186 43.70465919104391
    vertex 422.60832767590546 -283.1075740129059 46.70465919104391
  endloop
endfacet
facet normal -0.608761429008875 -0.7933533402911168 0.0
  outer loop
    vertex 423.0225412382786 -283.42541125810186 46.70465919104391
    vertex 422.60832767590546 -283.1075740129059 46.70465919104391
    vertex 423.0225412382786 -283.42541125810186 43.70465919104391
  endloop
endfacet
facet normal -0.3826834323649104 -0.923879532511361 0.0
  outer loop
    vertex 423.0225412382786 -283.42541125810186 43.70465919104391
    vertex 423.5049031480735 -283.625212103111 43.70465919104391
    vertex 423.0225412382786 -283.42541125810186 46.70465919104391
  endloop
endfacet
facet normal -0.3826834323649104 -0.923879532511361 0.0
  outer loop
    vertex 423.5049031480735 -283.625212103111 46.70465919104391
    vertex 423.0225412382786 -283.42541125810186 46.70465919104391
    vertex 423.5049031480735 -283.625212103111 43.70465919104391
  endloop
endfacet
facet normal -0.13052619221998144 -0.9914448613738197 0.0
  outer loop
    vertex 423.5049031480735 -283.625212103111 43.70465919104391
    vertex 424.02254123827856 -283.6933604505328 43.70465919104391
    vertex 423.5049031480735 -283.625212103111 46.70465919104391
  endloop
endfacet
facet normal -0.13052619221998144 -0.9914448613738197 0.0
  outer loop
    vertex 424.02254123827856 -283.6933604505328 46.70465919104391
    vertex 423.5049031480735 -283.625212103111 46.70465919104391
    vertex 424.02254123827856 -283.6933604505328 43.70465919104391
  endloop
endfacet
facet normal 0.13052619221998144 -0.9914448613738197 0.0
  outer loop
    vertex 424.02254123827856 -283.6933604505328 43.70465919104391
    vertex 424.54017932848365 -283.625212103111 43.70465919104391
    vertex 424.02254123827856 -283.6933604505328 46.70465919104391
  endloop
endfacet
facet normal 0.13052619221998144 -0.9914448613738197 0.0
  outer loop
    vertex 424.54017932848365 -283.625212103111 46.70465919104391
    vertex 424.02254123827856 -283.6933604505328 46.70465919104391
    vertex 424.54017932848365 -283.625212103111 43.70465919104391
  endloop
endfacet
facet normal 0.3826834323648493 -0.9238795325113863 0.0
  outer loop
    vertex 424.54017932848365 -283.625212103111 43.70465919104391
    vertex 425.0225412382786 -283.42541125810186 43.70465919104391
    vertex 424.54017932848365 -283.625212103111 46.70465919104391
  endloop
endfacet
facet normal 0.3826834323648493 -0.9238795325113863 0.0
  outer loop
    vertex 425.0225412382786 -283.42541125810186 46.70465919104391
    vertex 424.54017932848365 -283.625212103111 46.70465919104391
    vertex 425.0225412382786 -283.42541125810186 43.70465919104391
  endloop
endfacet
facet normal 0.6087614290089584 -0.7933533402910526 0.0
  outer loop
    vertex 425.0225412382786 -283.42541125810186 43.70465919104391
    vertex 425.43675480065167 -283.1075740129059 43.70465919104391
    vertex 425.0225412382786 -283.42541125810186 46.70465919104391
  endloop
endfacet
facet normal 0.6087614290089584 -0.7933533402910526 0.0
  outer loop
    vertex 425.43675480065167 -283.1075740129059 46.70465919104391
    vertex 425.0225412382786 -283.42541125810186 46.70465919104391
    vertex 425.43675480065167 -283.1075740129059 43.70465919104391
  endloop
endfacet
facet normal 0.7933533402912196 -0.6087614290087409 0.0
  outer loop
    vertex 425.75459204584746 -282.69336045053285 43.70465919104391
    vertex 425.75459204584746 -282.69336045053285 46.70465919104391
    vertex 425.43675480065167 -283.1075740129059 43.70465919104391
  endloop
endfacet
facet normal 0.7933533402912196 -0.6087614290087409 0.0
  outer loop
    vertex 425.43675480065167 -283.1075740129059 46.70465919104391
    vertex 425.43675480065167 -283.1075740129059 43.70465919104391
    vertex 425.75459204584746 -282.69336045053285 46.70465919104391
  endloop
endfacet
facet normal 0.923879532511239 -0.3826834323652056 0.0
  outer loop
    vertex 425.95439289085675 -282.21099854073793 43.70465919104391
    vertex 425.95439289085675 -282.21099854073793 46.70465919104391
    vertex 425.75459204584746 -282.69336045053285 43.70465919104391
  endloop
endfacet
facet normal 0.923879532511239 -0.3826834323652056 0.0
  outer loop
    vertex 425.75459204584746 -282.69336045053285 46.70465919104391
    vertex 425.75459204584746 -282.69336045053285 43.70465919104391
    vertex 425.95439289085675 -282.21099854073793 46.70465919104391
  endloop
endfacet
facet normal 0.0 0.0 1.0
  outer loop
    vertex 422.02254123827856 -289.6133604505329 46.70465919104391
    vertex 422.0906895857004 -290.130998540738 46.70465919104391
    vertex 422.0906895857004 -289.09572236032784 46.70465919104391
  endloop
endfacet
facet normal 0.0 0.0 1.0
  outer loop
    vertex 422.2904904307097 -288.613360450533 46.70465919104391
    vertex 422.0906895857004 -289.09572236032784 46.70465919104391
    vertex 422.0906895857004 -290.130998540738 46.70465919104391
  endloop
endfacet
facet normal 0.0 0.0 1.0
  outer loop
    vertex 422.2904904307097 -290.61336045053287 46.70465919104391
    vertex 422.2904904307097 -288.613360450533 46.70465919104391
    vertex 422.0906895857004 -290.130998540738 46.70465919104391
  endloop
endfacet
facet normal 0.0 0.0 1.0
  outer loop
    vertex 422.60832767590546 -288.19914688815993 46.70465919104391
    vertex 422.2904904307097 -288.613360450533 46.70465919104391
    vertex 422.2904904307097 -290.61336045053287 46.70465919104391
  endloop
endfacet
facet normal 0.0 0.0 1.0
  outer loop
    vertex 422.60832767590546 -291.0275740129059 46.70465919104391
    vertex 422.60832767590546 -288.19914688815993 46.70465919104391
    vertex 422.2904904307097 -290.61336045053287 46.70465919104391
  endloop
endfacet
facet normal 0.0 0.0 1.0
  outer loop
    vertex 423.0225412382785 -287.88130964296397 46.70465919104391
    vertex 422.60832767590546 -288.19914688815993 46.70465919104391
    vertex 422.60832767590546 -291.0275740129059 46.70465919104391
  endloop
endfacet
facet normal 0.0 0.0 1.0
  outer loop
    vertex 423.0225412382786 -291.3454112581019 46.70465919104391
    vertex 423.0225412382785 -287.88130964296397 46.70465919104391
    vertex 422.60832767590546 -291.0275740129059 46.70465919104391
  endloop
endfacet
facet normal 0.0 0.0 1.0
  outer loop
    vertex 423.5049031480735 -287.68150879795485 46.70465919104391
    vertex 423.0225412382785 -287.88130964296397 46.70465919104391
    vertex 423.0225412382786 -291.3454112581019 46.70465919104391
  endloop
endfacet
facet normal 0.0 0.0 1.0
  outer loop
    vertex 423.5049031480735 -291.545212103111 46.70465919104391
    vertex 423.5049031480735 -287.68150879795485 46.70465919104391
    vertex 423.0225412382786 -291.3454112581019 46.70465919104391
  endloop
endfacet
facet normal 0.0 0.0 1.0
  outer loop
    vertex 424.02254123827856 -287.61336045053304 46.70465919104391
    vertex 423.5049031480735 -287.68150879795485 46.70465919104391
    vertex 423.5049031480735 -291.545212103111 46.70465919104391
  endloop
endfacet
facet normal 0.0 0.0 1.0
  outer loop
    vertex 424.02254123827856 -291.6133604505328 46.70465919104391
    vertex 424.02254123827856 -287.61336045053304 46.70465919104391
    vertex 423.5049031480735 -291.545212103111 46.70465919104391
  endloop
endfacet
facet normal 0.0 0.0 1.0
  outer loop
    vertex 424.54017932848365 -287.68150879795485 46.70465919104391
    vertex 424.02254123827856 -287.61336045053304 46.70465919104391
    vertex 424.02254123827856 -291.6133604505328 46.70465919104391
  endloop
endfacet
facet normal 0.0 0.0 1.0
  outer loop
    vertex 424.54017932848365 -291.545212103111 46.70465919104391
    vertex 424.54017932848365 -287.68150879795485 46.70465919104391
    vertex 424.02254123827856 -291.6133604505328 46.70465919104391
  endloop
endfacet
facet normal 0.0 0.0 1.0
  outer loop
    vertex 425.0225412382785 -287.88130964296397 46.70465919104391
    vertex 424.54017932848365 -287.68150879795485 46.70465919104391
    vertex 424.54017932848365 -291.545212103111 46.70465919104391
  endloop
endfacet
facet normal 0.0 0.0 1.0
  outer loop
    vertex 425.0225412382786 -291.3454112581019 46.70465919104391
    vertex 425.0225412382785 -287.88130964296397 46.70465919104391
    vertex 424.54017932848365 -291.545212103111 46.70465919104391
  endloop
endfacet
facet normal 0.0 0.0 1.0
  outer loop
    vertex 425.43675480065167 -288.19914688815993 46.70465919104391
    vertex 425.0225412382785 -287.88130964296397 46.70465919104391
    vertex 425.0225412382786 -291.3454112581019 46.70465919104391
  endloop
endfacet
facet normal 0.0 0.0 1.0
  outer loop
    vertex 425.43675480065167 -291.0275740129059 46.70465919104391
    vertex 425.43675480065167 -288.19914688815993 46.70465919104391
    vertex 425.0225412382786 -291.3454112581019 46.70465919104391
  endloop
endfacet
facet normal 0.0 0.0 1.0
  outer loop
    vertex 425.75459204584746 -288.613360450533 46.70465919104391
    vertex 425.43675480065167 -288.19914688815993 46.70465919104391
    vertex 425.43675480065167 -291.0275740129059 46.70465919104391
  endloop
endfacet
facet normal 0.0 0.0 1.0
  outer loop
    vertex 425.75459204584746 -290.61336045053287 46.70465919104391
    vertex 425.75459204584746 -288.613360450533 46.70465919104391
    vertex 425.43675480065167 -291.0275740129059 46.70465919104391
  endloop
endfacet
facet normal 0.0 0.0 1.0
  outer loop
    vertex 425.95439289085675 -289.09572236032784 46.70465919104391
    vertex 425.75459204584746 -288.613360450533 46.70465919104391
    vertex 425.75459204584746 -290.61336045053287 46.70465919104391
  endloop
endfacet
facet normal 0.0 0.0 1.0
  outer loop
    vertex 425.95439289085675 -290.130998540738 46.70465919104391
    vertex 425.95439289085675 -289.09572236032784 46.70465919104391
    vertex 425.75459204584746 -290.61336045053287 46.70465919104391
  endloop
endfacet
facet normal 0.0 0.0 1.0
  outer loop
    vertex 426.02254123827856 -289.6133604505329 46.70465919104391
    vertex 425.95439289085675 -289.09572236032784 46.70465919104391
    vertex 425.95439289085675 -290.130998540738 46.70465919104391
  endloop
endfacet
facet normal 0.9914448613738197 -0.13052619221998144 0.0
  outer loop
    vertex 426.02254123827856 -289.6133604505329 43.70465919104391
    vertex 426.02254123827856 -289.6133604505329 46.70465919104391
    vertex 425.95439289085675 -290.130998540738 43.70465919104391
  endloop
endfacet
facet normal 0.9914448613738197 -0.13052619221998144 0.0
  outer loop
    vertex 425.95439289085675 -290.130998540738 46.70465919104391
    vertex 425.95439289085675 -290.130998540738 43.70465919104391
    vertex 426.02254123827856 -289.6133604505329 46.70465919104391
  endloop
endfacet
facet normal 0.9914448613738197 0.13052619221998144 0.0
  outer loop
    vertex 425.95439289085675 -289.09572236032784 43.70465919104391
    vertex 425.95439289085675 -289.09572236032784 46.70465919104391
    vertex 426.02254123827856 -289.6133604505329 43.70465919104391
  endloop
endfacet
facet normal 0.9914448613738197 0.13052619221998144 0.0
  outer loop
    vertex 426.02254123827856 -289.6133604505329 46.70465919104391
    vertex 426.02254123827856 -289.6133604505329 43.70465919104391
    vertex 425.95439289085675 -289.09572236032784 46.70465919104391
  endloop
endfacet
facet normal 0.923879532511239 0.3826834323652056 0.0
  outer loop
    vertex 425.75459204584746 -288.613360450533 43.70465919104391
    vertex 425.75459204584746 -288.613360450533 46.70465919104391
    vertex 425.95439289085675 -289.09572236032784 43.70465919104391
  endloop
endfacet
facet normal 0.923879532511239 0.3826834323652056 0.0
  outer loop
    vertex 425.95439289085675 -289.09572236032784 46.70465919104391
    vertex 425.95439289085675 -289.09572236032784 43.70465919104391
    vertex 425.75459204584746 -288.613360450533 46.70465919104391
  endloop
endfacet
facet normal 0.7933533402912196 0.6087614290087409 0.0
  outer loop
    vertex 425.43675480065167 -288.19914688815993 43.70465919104391
    vertex 425.43675480065167 -288.19914688815993 46.70465919104391
    vertex 425.75459204584746 -288.613360450533 43.70465919104391
  endloop
endfacet
facet normal 0.7933533402912196 0.6087614290087409 0.0
  outer loop
    vertex 425.75459204584746 -288.613360450533 46.70465919104391
    vertex 425.75459204584746 -288.613360450533 43.70465919104391
    vertex 425.43675480065167 -288.19914688815993 46.70465919104391
  endloop
endfacet
facet normal 0.608761429008875 0.7933533402911168 0.0
  outer loop
    vertex 425.43675480065167 -288.19914688815993 43.70465919104391
    vertex 425.0225412382785 -287.88130964296397 43.70465919104391
    vertex 425.43675480065167 -288.19914688815993 46.70465919104391
  endloop
endfacet
facet normal 0.608761429008875 0.7933533402911168 0.0
  outer loop
    vertex 425.0225412382785 -287.88130964296397 46.70465919104391
    vertex 425.43675480065167 -288.19914688815993 46.70465919104391
    vertex 425.0225412382785 -287.88130964296397 43.70465919104391
  endloop
endfacet
facet normal 0.3826834323649104 0.923879532511361 0.0
  outer loop
    vertex 425.0225412382785 -287.88130964296397 43.70465919104391
    vertex 424.54017932848365 -287.68150879795485 43.70465919104391
    vertex 425.0225412382785 -287.88130964296397 46.70465919104391
  endloop
endfacet
facet normal 0.3826834323649104 0.923879532511361 0.0
  outer loop
    vertex 424.54017932848365 -287.68150879795485 46.70465919104391
    vertex 425.0225412382785 -287.88130964296397 46.70465919104391
    vertex 424.54017932848365 -287.68150879795485 43.70465919104391
  endloop
endfacet
facet normal 0.13052619221998144 0.9914448613738197 0.0
  outer loop
    vertex 424.54017932848365 -287.68150879795485 43.70465919104391
    vertex 424.02254123827856 -287.61336045053304 43.70465919104391
    vertex 424.54017932848365 -287.68150879795485 46.70465919104391
  endloop
endfacet
facet normal 0.13052619221998144 0.9914448613738197 0.0
  outer loop
    vertex 424.02254123827856 -287.61336045053304 46.70465919104391
    vertex 424.54017932848365 -287.68150879795485 46.70465919104391
    vertex 424.02254123827856 -287.61336045053304 43.70465919104391
  endloop
endfacet
facet normal -0.13052619221998144 0.9914448613738197 0.0
  outer loop
    vertex 424.02254123827856 -287.61336045053304 43.70465919104391
    vertex 423.5049031480735 -287.68150879795485 43.70465919104391
    vertex 424.02254123827856 -287.61336045053304 46.70465919104391
  endloop
endfacet
facet normal -0.13052619221998144 0.9914448613738197 0.0
  outer loop
    vertex 423.5049031480735 -287.68150879795485 46.70465919104391
    vertex 424.02254123827856 -287.61336045053304 46.70465919104391
    vertex 423.5049031480735 -287.68150879795485 43.70465919104391
  endloop
endfacet
facet normal -0.3826834323648493 0.9238795325113863 0.0
  outer loop
    vertex 423.5049031480735 -287.68150879795485 43.70465919104391
    vertex 423.0225412382785 -287.88130964296397 43.70465919104391
    vertex 423.5049031480735 -287.68150879795485 46.70465919104391
  endloop
endfacet
facet normal -0.3826834323648493 0.9238795325113863 0.0
  outer loop
    vertex 423.0225412382785 -287.88130964296397 46.70465919104391
    vertex 423.5049031480735 -287.68150879795485 46.70465919104391
    vertex 423.0225412382785 -287.88130964296397 43.70465919104391
  endloop
endfacet
facet normal -0.6087614290089584 0.7933533402910526 0.0
  outer loop
    vertex 423.0225412382785 -287.88130964296397 43.70465919104391
    vertex 422.60832767590546 -288.19914688815993 43.70465919104391
    vertex 423.0225412382785 -287.88130964296397 46.70465919104391
  endloop
endfacet
facet normal -0.6087614290089584 0.7933533402910526 0.0
  outer loop
    vertex 422.60832767590546 -288.19914688815993 46.70465919104391
    vertex 423.0225412382785 -287.88130964296397 46.70465919104391
    vertex 422.60832767590546 -288.19914688815993 43.70465919104391
  endloop
endfacet
facet normal -0.7933533402912196 0.6087614290087409 0.0
  outer loop
    vertex 422.60832767590546 -288.19914688815993 46.70465919104391
    vertex 422.60832767590546 -288.19914688815993 43.70465919104391
    vertex 422.2904904307097 -288.613360450533 46.70465919104391
  endloop
endfacet
facet normal -0.7933533402912196 0.6087614290087409 0.0
  outer loop
    vertex 422.2904904307097 -288.613360450533 43.70465919104391
    vertex 422.2904904307097 -288.613360450533 46.70465919104391
    vertex 422.60832767590546 -288.19914688815993 43.70465919104391
  endloop
endfacet
facet normal -0.923879532511239 0.3826834323652056 0.0
  outer loop
    vertex 422.2904904307097 -288.613360450533 46.70465919104391
    vertex 422.2904904307097 -288.613360450533 43.70465919104391
    vertex 422.0906895857004 -289.09572236032784 46.70465919104391
  endloop
endfacet
facet normal -0.923879532511239 0.3826834323652056 0.0
  outer loop
    vertex 422.0906895857004 -289.09572236032784 43.70465919104391
    vertex 422.0906895857004 -289.09572236032784 46.70465919104391
    vertex 422.2904904307097 -288.613360450533 43.70465919104391
  endloop
endfacet
facet normal -0.9914448613738197 0.13052619221998144 0.0
  outer loop
    vertex 422.0906895857004 -289.09572236032784 46.70465919104391
    vertex 422.0906895857004 -289.09572236032784 43.70465919104391
    vertex 422.02254123827856 -289.6133604505329 46.70465919104391
  endloop
endfacet
facet normal -0.9914448613738197 0.13052619221998144 0.0
  outer loop
    vertex 422.02254123827856 -289.6133604505329 43.70465919104391
    vertex 422.02254123827856 -289.6133604505329 46.70465919104391
    vertex 422.0906895857004 -289.09572236032784 43.70465919104391
  endloop
endfacet
facet normal -0.9914448613738197 -0.13052619221998144 0.0
  outer loop
    vertex 422.02254123827856 -289.6133604505329 46.70465919104391
    vertex 422.02254123827856 -289.6133604505329 43.70465919104391
    vertex 422.0906895857004 -290.130998540738 46.70465919104391
  endloop
endfacet
facet normal -0.9914448613738197 -0.13052619221998144 0.0
  outer loop
    vertex 422.0906895857004 -290.130998540738 43.70465919104391
    vertex 422.0906895857004 -290.130998540738 46.70465919104391
    vertex 422.02254123827856 -289.6133604505329 43.70465919104391
  endloop
endfacet
facet normal -0.923879532511239 -0.3826834323652056 0.0
  outer loop
    vertex 422.0906895857004 -290.130998540738 46.70465919104391
    vertex 422.0906895857004 -290.130998540738 43.70465919104391
    vertex 422.2904904307097 -290.61336045053287 46.70465919104391
  endloop
endfacet
facet normal -0.923879532511239 -0.3826834323652056 0.0
  outer loop
    vertex 422.2904904307097 -290.61336045053287 43.70465919104391
    vertex 422.2904904307097 -290.61336045053287 46.70465919104391
    vertex 422.0906895857004 -290.130998540738 43.70465919104391
  endloop
endfacet
facet normal -0.7933533402912196 -0.6087614290087409 0.0
  outer loop
    vertex 422.2904904307097 -290.61336045053287 46.70465919104391
    vertex 422.2904904307097 -290.61336045053287 43.70465919104391
    vertex 422.60832767590546 -291.0275740129059 46.70465919104391
  endloop
endfacet
facet normal -0.7933533402912196 -0.6087614290087409 0.0
  outer loop
    vertex 422.60832767590546 -291.0275740129059 43.70465919104391
    vertex 422.60832767590546 -291.0275740129059 46.70465919104391
    vertex 422.2904904307097 -290.61336045053287 43.70465919104391
  endloop
endfacet
facet normal -0.608761429008875 -0.7933533402911168 0.0
  outer loop
    vertex 422.60832767590546 -291.0275740129059 43.70465919104391
    vertex 423.0225412382786 -291.3454112581019 43.70465919104391
    vertex 422.60832767590546 -291.0275740129059 46.70465919104391
  endloop
endfacet
facet normal -0.608761429008875 -0.7933533402911168 0.0
  outer loop
    vertex 423.0225412382786 -291.3454112581019 46.70465919104391
    vertex 422.60832767590546 -291.0275740129059 46.70465919104391
    vertex 423.0225412382786 -291.3454112581019 43.70465919104391
  endloop
endfacet
facet normal -0.3826834323649104 -0.923879532511361 0.0
  outer loop
    vertex 423.0225412382786 -291.3454112581019 43.70465919104391
    vertex 423.5049031480735 -291.545212103111 43.70465919104391
    vertex 423.0225412382786 -291.3454112581019 46.70465919104391
  endloop
endfacet
facet normal -0.3826834323649104 -0.923879532511361 0.0
  outer loop
    vertex 423.5049031480735 -291.545212103111 46.70465919104391
    vertex 423.0225412382786 -291.3454112581019 46.70465919104391
    vertex 423.5049031480735 -291.545212103111 43.70465919104391
  endloop
endfacet
facet normal -0.13052619221998144 -0.9914448613738197 0.0
  outer loop
    vertex 423.5049031480735 -291.545212103111 43.70465919104391
    vertex 424.02254123827856 -291.6133604505328 43.70465919104391
    vertex 423.5049031480735 -291.545212103111 46.70465919104391
  endloop
endfacet
facet normal -0.13052619221998144 -0.9914448613738197 0.0
  outer loop
    vertex 424.02254123827856 -291.6133604505328 46.70465919104391
    vertex 423.5049031480735 -291.545212103111 46.70465919104391
    vertex 424.02254123827856 -291.6133604505328 43.70465919104391
  endloop
endfacet
facet normal 0.13052619221998144 -0.9914448613738197 0.0
  outer loop
    vertex 424.02254123827856 -291.6133604505328 43.70465919104391
    vertex 424.54017932848365 -291.545212103111 43.70465919104391
    vertex 424.02254123827856 -291.6133604505328 46.70465919104391
  endloop
endfacet
facet normal 0.13052619221998144 -0.9914448613738197 0.0
  outer loop
    vertex 424.54017932848365 -291.545212103111 46.70465919104391
    vertex 424.02254123827856 -291.6133604505328 46.70465919104391
    vertex 424.54017932848365 -291.545212103111 43.70465919104391
  endloop
endfacet
facet normal 0.3826834323648493 -0.9238795325113863 0.0
  outer loop
    vertex 424.54017932848365 -291.545212103111 43.70465919104391
    vertex 425.0225412382786 -291.3454112581019 43.70465919104391
    vertex 424.54017932848365 -291.545212103111 46.70465919104391
  endloop
endfacet
facet normal 0.3826834323648493 -0.9238795325113863 0.0
  outer loop
    vertex 425.0225412382786 -291.3454112581019 46.70465919104391
    vertex 424.54017932848365 -291.545212103111 46.70465919104391
    vertex 425.0225412382786 -291.3454112581019 43.70465919104391
  endloop
endfacet
facet normal 0.6087614290089584 -0.7933533402910526 0.0
  outer loop
    vertex 425.0225412382786 -291.3454112581019 43.70465919104391
    vertex 425.43675480065167 -291.0275740129059 43.70465919104391
    vertex 425.0225412382786 -291.3454112581019 46.70465919104391
  endloop
endfacet
facet normal 0.6087614290089584 -0.7933533402910526 0.0
  outer loop
    vertex 425.43675480065167 -291.0275740129059 46.70465919104391
    vertex 425.0225412382786 -291.3454112581019 46.70465919104391
    vertex 425.43675480065167 -291.0275740129059 43.70465919104391
  endloop
endfacet
facet normal 0.7933533402912196 -0.6087614290087409 0.0
  outer loop
    vertex 425.75459204584746 -290.61336045053287 43.70465919104391
    vertex 425.75459204584746 -290.61336045053287 46.70465919104391
    vertex 425.43675480065167 -291.0275740129059 43.70465919104391
  endloop
endfacet
facet normal 0.7933533402912196 -0.6087614290087409 0.0
  outer loop
    vertex 425.43675480065167 -291.0275740129059 46.70465919104391
    vertex 425.43675480065167 -291.0275740129059 43.70465919104391
    vertex 425.75459204584746 -290.61336045053287 46.70465919104391
  endloop
endfacet
facet normal 0.923879532511239 -0.3826834323652056 0.0
  outer loop
    vertex 425.95439289085675 -290.130998540738 43.70465919104391
    vertex 425.95439289085675 -290.130998540738 46.70465919104391
    vertex 425.75459204584746 -290.61336045053287 43.70465919104391
  endloop
endfacet
facet normal 0.923879532511239 -0.3826834323652056 0.0
  outer loop
    vertex 425.75459204584746 -290.61336045053287 46.70465919104391
    vertex 425.75459204584746 -290.61336045053287 43.70465919104391
    vertex 425.95439289085675 -290.130998540738 46.70465919104391
  endloop
endfacet
facet normal 0.7071067811865409 0.0 -0.7071067811865542
  outer loop
    vertex 434.68281919469064 -293.97720386830883 40.70465919104391
    vertex 434.68281919469064 -277.99720386830836 40.70465919104391
    vertex 436.3908064416068 -293.97720386830883 42.412646437960035
  endloop
endfacet
facet normal 0.7071067811865409 0.0 -0.7071067811865542
  outer loop
    vertex 436.3908064416068 -277.99720386830836 42.412646437960035
    vertex 436.3908064416068 -293.97720386830883 42.412646437960035
    vertex 434.68281919469064 -277.99720386830836 40.70465919104391
  endloop
endfacet
facet normal -0.7071067811865476 0.7071067811865476 0.0
  outer loop
    vertex 427.05822952633474 -277.99720386830836 78.60279032641886
    vertex 427.05822952633474 -277.99720386830836 75.60279032641886
    vertex 423.1602956923314 -281.89513770231173 78.60279032641886
  endloop
endfacet
facet normal -0.7071067811865476 0.7071067811865476 0.0
  outer loop
    vertex 423.1602956923314 -281.89513770231173 75.60279032641886
    vertex 423.1602956923314 -281.89513770231173 78.60279032641886
    vertex 427.05822952633474 -277.99720386830836 75.60279032641886
  endloop
endfacet
facet normal -1.0 0.0 0.0
  outer loop
    vertex 423.1602956923314 -281.89513770231173 78.60279032641886
    vertex 423.1602956923314 -281.89513770231173 75.60279032641886
    vertex 423.1602956923314 -293.97720386830883 78.60279032641886
  endloop
endfacet
facet normal -1.0 0.0 0.0
  outer loop
    vertex 423.1602956923314 -293.97720386830883 75.60279032641886
    vertex 423.1602956923314 -293.97720386830883 78.60279032641886
    vertex 423.1602956923314 -281.89513770231173 75.60279032641886
  endloop
endfacet
facet normal 1.0 0.0 0.0
  outer loop
    vertex 436.3908064416068 -277.99720386830836 42.412646437960035
    vertex 436.3908064416068 -277.99720386830836 75.60279032641886
    vertex 436.3908064416068 -293.97720386830883 42.412646437960035
  endloop
endfacet
facet normal 1.0 0.0 0.0
  outer loop
    vertex 436.3908064416068 -293.97720386830883 75.60279032641886
    vertex 436.3908064416068 -293.97720386830883 42.412646437960035
    vertex 436.3908064416068 -277.99720386830836 75.60279032641886
  endloop
endfacet
facet normal -1.0 0.0 0.0
  outer loop
    vertex 433.3908064416068 -277.99720386830836 75.60279032641886
    vertex 433.3908064416068 -277.99720386830836 43.70465919104391
    vertex 433.3908064416068 -293.97720386830883 75.60279032641886
  endloop
endfacet
facet normal -1.0 0.0 0.0
  outer loop
    vertex 433.3908064416068 -293.97720386830883 43.70465919104391
    vertex 433.3908064416068 -293.97720386830883 75.60279032641886
    vertex 433.3908064416068 -277.99720386830836 43.70465919104391
  endloop
endfacet
facet normal 0.0 -1.0 0.0
  outer loop
    vertex 423.1602956923314 -293.97720386830883 75.60279032641886
    vertex 433.3908064416068 -293.97720386830883 75.60279032641886
    vertex 423.1602956923314 -293.97720386830883 78.60279032641886
  endloop
endfacet
facet normal 0.0 -1.0 0.0
  outer loop
    vertex 436.3908064416068 -293.97720386830883 75.60279032641886
    vertex 423.1602956923314 -293.97720386830883 78.60279032641886
    vertex 433.3908064416068 -293.97720386830883 75.60279032641886
  endloop
endfacet
facet normal 0.0 -1.0 0.0
  outer loop
    vertex 433.8851347752697 -293.97720386830883 78.60279032641886
    vertex 423.1602956923314 -293.97720386830883 78.60279032641886
    vertex 436.3908064416068 -293.97720386830883 75.60279032641886
  endloop
endfacet
facet normal 0.0 -1.0 0.0
  outer loop
    vertex 416.21029569233133 -293.97720386830883 40.70465919104391
    vertex 434.68281919469064 -293.97720386830883 40.70465919104391
    vertex 416.21029569233133 -293.97720386830883 43.70465919104391
  endloop
endfacet
facet normal 0.0 -1.0 0.0
  outer loop
    vertex 436.3908064416068 -293.97720386830883 42.412646437960035
    vertex 416.21029569233133 -293.97720386830883 43.70465919104391
    vertex 434.68281919469064 -293.97720386830883 40.70465919104391
  endloop
endfacet
facet normal 0.0 -1.0 0.0
  outer loop
    vertex 433.3908064416068 -293.97720386830883 43.70465919104391
    vertex 416.21029569233133 -293.97720386830883 43.70465919104391
    vertex 436.3908064416068 -293.97720386830883 42.412646437960035
  endloop
endfacet
facet normal 0.0 -1.0 0.0
  outer loop
    vertex 436.3908064416068 -293.97720386830883 75.60279032641886
    vertex 433.3908064416068 -293.97720386830883 43.70465919104391
    vertex 436.3908064416068 -293.97720386830883 42.412646437960035
  endloop
endfacet
facet normal 0.0 -1.0 0.0
  outer loop
    vertex 433.3908064416068 -293.97720386830883 75.60279032641886
    vertex 433.3908064416068 -293.97720386830883 43.70465919104391
    vertex 436.3908064416068 -293.97720386830883 75.60279032641886
  endloop
endfacet
facet normal 0.0 1.0 0.0
  outer loop
    vertex 436.3908064416068 -277.99720386830836 42.412646437960035
    vertex 433.3908064416068 -277.99720386830836 43.70465919104391
    vertex 436.3908064416068 -277.99720386830836 75.60279032641886
  endloop
endfacet
facet normal 0.0 1.0 0.0
  outer loop
    vertex 433.3908064416068 -277.99720386830836 75.60279032641886
    vertex 436.3908064416068 -277.99720386830836 75.60279032641886
    vertex 433.3908064416068 -277.99720386830836 43.70465919104391
  endloop
endfacet
facet normal 0.0 1.0 0.0
  outer loop
    vertex 433.8851347752697 -277.99720386830836 78.60279032641886
    vertex 436.3908064416068 -277.99720386830836 75.60279032641886
    vertex 433.3908064416068 -277.99720386830836 75.60279032641886
  endloop
endfacet
facet normal 0.0 1.0 0.0
  outer loop
    vertex 427.05822952633474 -277.99720386830836 75.60279032641886
    vertex 433.8851347752697 -277.99720386830836 78.60279032641886
    vertex 433.3908064416068 -277.99720386830836 75.60279032641886
  endloop
endfacet
facet normal 0.0 1.0 0.0
  outer loop
    vertex 427.05822952633474 -277.99720386830836 78.60279032641886
    vertex 433.8851347752697 -277.99720386830836 78.60279032641886
    vertex 427.05822952633474 -277.99720386830836 75.60279032641886
  endloop
endfacet
facet normal 0.0 1.0 0.0
  outer loop
    vertex 434.68281919469064 -277.99720386830836 40.70465919104391
    vertex 416.21029569233133 -277.99720386830836 40.70465919104391
    vertex 436.3908064416068 -277.99720386830836 42.412646437960035
  endloop
endfacet
facet normal 0.0 1.0 0.0
  outer loop
    vertex 416.21029569233133 -277.99720386830836 43.70465919104391
    vertex 436.3908064416068 -277.99720386830836 42.412646437960035
    vertex 416.21029569233133 -277.99720386830836 40.70465919104391
  endloop
endfacet
facet normal 0.0 1.0 0.0
  outer loop
    vertex 433.3908064416068 -277.99720386830836 43.70465919104391
    vertex 436.3908064416068 -277.99720386830836 42.412646437960035
    vertex 416.21029569233133 -277.99720386830836 43.70465919104391
  endloop
endfacet
endsolid slim_v2_стойка_v2
