solid slim_v2_стойка_v2
facet normal 0.7675071884351233 0.0 0.6410403385906479
  outer loop
    vertex 436.3908064416068 -338.15340165428165 75.60279032641886
    vertex 433.8851347752697 -354.1334016542821 78.60279032641886
    vertex 436.3908064416068 -354.1334016542821 75.60279032641886
  endloop
endfacet
facet normal 0.7675071884351233 0.0 0.6410403385906479
  outer loop
    vertex 433.8851347752697 -354.1334016542821 78.60279032641886
    vertex 436.3908064416068 -338.15340165428165 75.60279032641886
    vertex 433.8851347752697 -338.15340165428165 78.60279032641886
  endloop
endfacet
facet normal 0.0 0.0 1.0
  outer loop
    vertex 427.05822952633474 -354.1334016542821 78.60279032641886
    vertex 423.1602956923314 -338.15340165428165 78.60279032641886
    vertex 423.1602956923314 -350.2354678202787 78.60279032641886
  endloop
endfacet
facet normal 0.0 0.0 1.0
  outer loop
    vertex 423.1602956923314 -338.15340165428165 78.60279032641886
    vertex 427.05822952633474 -354.1334016542821 78.60279032641886
    vertex 433.8851347752697 -338.15340165428165 78.60279032641886
  endloop
endfacet
facet normal 0.0 0.0 1.0
  outer loop
    vertex 433.8851347752697 -338.15340165428165 78.60279032641886
    vertex 427.05822952633474 -354.1334016542821 78.60279032641886
    vertex 433.8851347752697 -354.1334016542821 78.60279032641886
  endloop
endfacet
facet normal 0.0 0.0 -1.0
  outer loop
    vertex 433.3908064416068 -338.15340165428165 75.60279032641886
    vertex 423.1602956923314 -350.2354678202787 75.60279032641886
    vertex 423.1602956923314 -338.15340165428165 75.60279032641886
  endloop
endfacet
facet normal 0.0 0.0 -1.0
  outer loop
    vertex 423.1602956923314 -350.2354678202787 75.60279032641886
    vertex 433.3908064416068 -338.15340165428165 75.60279032641886
    vertex 427.05822952633474 -354.1334016542821 75.60279032641886
  endloop
endfacet
facet normal 0.0 0.0 -1.0
  outer loop
    vertex 427.05822952633474 -354.1334016542821 75.60279032641886
    vertex 433.3908064416068 -338.15340165428165 75.60279032641886
    vertex 433.3908064416068 -354.1334016542821 75.60279032641886
  endloop
endfacet
facet normal 0.0 0.0 1.0
  outer loop
    vertex 416.21029569233133 -354.1334016542821 43.70465919104391
    vertex 422.2904904307097 -351.4372450720575 43.70465919104391
    vertex 416.21029569233133 -338.15340165428165 43.70465919104391
  endloop
endfacet
facet normal 0.0 0.0 1.0
  outer loop
    vertex 422.2904904307097 -351.4372450720575 43.70465919104391
    vertex 416.21029569233133 -354.1334016542821 43.70465919104391
    vertex 422.60832767590546 -351.85145863443057 43.70465919104391
  endloop
endfacet
facet normal 0.0 0.0 1.0
  outer loop
    vertex 422.60832767590546 -351.85145863443057 43.70465919104391
    vertex 416.21029569233133 -354.1334016542821 43.70465919104391
    vertex 423.0225412382785 -352.16929587962653 43.70465919104391
  endloop
endfacet
facet normal 0.0 0.0 1.0
  outer loop
    vertex 423.0225412382785 -352.16929587962653 43.70465919104391
    vertex 416.21029569233133 -354.1334016542821 43.70465919104391
    vertex 423.5049031480735 -352.36909672463565 43.70465919104391
  endloop
endfacet
facet normal 0.0 0.0 1.0
  outer loop
    vertex 423.5049031480735 -352.36909672463565 43.70465919104391
    vertex 416.21029569233133 -354.1334016542821 43.70465919104391
    vertex 433.3908064416068 -354.1334016542821 43.70465919104391
  endloop
endfacet
facet normal 0.0 0.0 1.0
  outer loop
    vertex 416.21029569233133 -338.15340165428165 43.70465919104391
    vertex 422.2904904307097 -351.4372450720575 43.70465919104391
    vertex 422.0906895857004 -350.95488316226266 43.70465919104391
  endloop
endfacet
facet normal 0.0 0.0 1.0
  outer loop
    vertex 416.21029569233133 -338.15340165428165 43.70465919104391
    vertex 422.0906895857004 -350.95488316226266 43.70465919104391
    vertex 422.02254123827856 -350.4372450720576 43.70465919104391
  endloop
endfacet
facet normal 0.0 0.0 1.0
  outer loop
    vertex 423.5049031480735 -352.36909672463565 43.70465919104391
    vertex 433.3908064416068 -354.1334016542821 43.70465919104391
    vertex 424.02254123827856 -352.43724507205746 43.70465919104391
  endloop
endfacet
facet normal 0.0 0.0 1.0
  outer loop
    vertex 424.02254123827856 -352.43724507205746 43.70465919104391
    vertex 433.3908064416068 -354.1334016542821 43.70465919104391
    vertex 424.54017932848365 -352.36909672463565 43.70465919104391
  endloop
endfacet
facet normal 0.0 0.0 1.0
  outer loop
    vertex 424.54017932848365 -352.36909672463565 43.70465919104391
    vertex 433.3908064416068 -354.1334016542821 43.70465919104391
    vertex 425.0225412382785 -352.16929587962653 43.70465919104391
  endloop
endfacet
facet normal 0.0 0.0 1.0
  outer loop
    vertex 425.0225412382785 -352.16929587962653 43.70465919104391
    vertex 433.3908064416068 -354.1334016542821 43.70465919104391
    vertex 425.43675480065167 -351.85145863443057 43.70465919104391
  endloop
endfacet
facet normal 0.0 0.0 1.0
  outer loop
    vertex 425.43675480065167 -351.85145863443057 43.70465919104391
    vertex 433.3908064416068 -354.1334016542821 43.70465919104391
    vertex 425.75459204584746 -351.4372450720575 43.70465919104391
  endloop
endfacet
facet normal 0.0 0.0 1.0
  outer loop
    vertex 425.75459204584746 -351.4372450720575 43.70465919104391
    vertex 433.3908064416068 -354.1334016542821 43.70465919104391
    vertex 425.95439289085675 -350.95488316226266 43.70465919104391
  endloop
endfacet
facet normal 0.0 0.0 1.0
  outer loop
    vertex 425.95439289085675 -350.95488316226266 43.70465919104391
    vertex 433.3908064416068 -354.1334016542821 43.70465919104391
    vertex 426.02254123827856 -350.4372450720576 43.70465919104391
  endloop
endfacet
facet normal 0.0 0.0 1.0
  outer loop
    vertex 426.02254123827856 -350.4372450720576 43.70465919104391
    vertex 433.3908064416068 -354.1334016542821 43.70465919104391
    vertex 426.02254123827856 -342.51724507205756 43.70465919104391
  endloop
endfacet
facet normal 0.0 0.0 1.0
  outer loop
    vertex 416.21029569233133 -338.15340165428165 43.70465919104391
    vertex 423.5049031480735 -340.5853934194795 43.70465919104391
    vertex 433.3908064416068 -338.15340165428165 43.70465919104391
  endloop
endfacet
facet normal 0.0 0.0 1.0
  outer loop
    vertex 423.5049031480735 -340.5853934194795 43.70465919104391
    vertex 416.21029569233133 -338.15340165428165 43.70465919104391
    vertex 423.0225412382786 -340.7851942644886 43.70465919104391
  endloop
endfacet
facet normal 0.0 0.0 1.0
  outer loop
    vertex 423.0225412382786 -340.7851942644886 43.70465919104391
    vertex 416.21029569233133 -338.15340165428165 43.70465919104391
    vertex 422.60832767590546 -341.1030315096845 43.70465919104391
  endloop
endfacet
facet normal 0.0 0.0 1.0
  outer loop
    vertex 422.60832767590546 -341.1030315096845 43.70465919104391
    vertex 416.21029569233133 -338.15340165428165 43.70465919104391
    vertex 422.2904904307097 -341.51724507205756 43.70465919104391
  endloop
endfacet
facet normal 0.0 0.0 1.0
  outer loop
    vertex 422.2904904307097 -341.51724507205756 43.70465919104391
    vertex 416.21029569233133 -338.15340165428165 43.70465919104391
    vertex 422.0906895857004 -341.9996069818525 43.70465919104391
  endloop
endfacet
facet normal 0.0 0.0 1.0
  outer loop
    vertex 422.0906895857004 -341.9996069818525 43.70465919104391
    vertex 416.21029569233133 -338.15340165428165 43.70465919104391
    vertex 422.02254123827856 -342.51724507205756 43.70465919104391
  endloop
endfacet
facet normal 0.0 0.0 1.0
  outer loop
    vertex 422.02254123827856 -342.51724507205756 43.70465919104391
    vertex 416.21029569233133 -338.15340165428165 43.70465919104391
    vertex 422.02254123827856 -350.4372450720576 43.70465919104391
  endloop
endfacet
facet normal 0.0 0.0 1.0
  outer loop
    vertex 433.3908064416068 -338.15340165428165 43.70465919104391
    vertex 423.5049031480735 -340.5853934194795 43.70465919104391
    vertex 424.02254123827856 -340.5172450720576 43.70465919104391
  endloop
endfacet
facet normal 0.0 0.0 1.0
  outer loop
    vertex 433.3908064416068 -338.15340165428165 43.70465919104391
    vertex 424.02254123827856 -340.5172450720576 43.70465919104391
    vertex 424.54017932848365 -340.5853934194795 43.70465919104391
  endloop
endfacet
facet normal 0.0 0.0 1.0
  outer loop
    vertex 433.3908064416068 -338.15340165428165 43.70465919104391
    vertex 424.54017932848365 -340.5853934194795 43.70465919104391
    vertex 425.0225412382786 -340.7851942644886 43.70465919104391
  endloop
endfacet
facet normal 0.0 0.0 1.0
  outer loop
    vertex 433.3908064416068 -338.15340165428165 43.70465919104391
    vertex 425.0225412382786 -340.7851942644886 43.70465919104391
    vertex 425.43675480065167 -341.1030315096845 43.70465919104391
  endloop
endfacet
facet normal 0.0 0.0 1.0
  outer loop
    vertex 433.3908064416068 -338.15340165428165 43.70465919104391
    vertex 425.43675480065167 -341.1030315096845 43.70465919104391
    vertex 425.75459204584746 -341.51724507205756 43.70465919104391
  endloop
endfacet
facet normal 0.0 0.0 1.0
  outer loop
    vertex 433.3908064416068 -338.15340165428165 43.70465919104391
    vertex 425.75459204584746 -341.51724507205756 43.70465919104391
    vertex 425.95439289085675 -341.9996069818525 43.70465919104391
  endloop
endfacet
facet normal 0.0 0.0 1.0
  outer loop
    vertex 433.3908064416068 -338.15340165428165 43.70465919104391
    vertex 425.95439289085675 -341.9996069818525 43.70465919104391
    vertex 426.02254123827856 -342.51724507205756 43.70465919104391
  endloop
endfacet
facet normal 0.0 0.0 1.0
  outer loop
    vertex 433.3908064416068 -338.15340165428165 43.70465919104391
    vertex 426.02254123827856 -342.51724507205756 43.70465919104391
    vertex 433.3908064416068 -354.1334016542821 43.70465919104391
  endloop
endfacet
facet normal 0.0 0.0 1.0
  outer loop
    vertex 422.0906895857004 -349.9196069818525 43.70465919104391
    vertex 422.02254123827856 -342.51724507205756 43.70465919104391
    vertex 422.02254123827856 -350.4372450720576 43.70465919104391
  endloop
endfacet
facet normal 0.0 0.0 1.0
  outer loop
    vertex 422.02254123827856 -342.51724507205756 43.70465919104391
    vertex 422.0906895857004 -349.9196069818525 43.70465919104391
    vertex 422.0906895857004 -343.0348831622626 43.70465919104391
  endloop
endfacet
facet normal 0.0 0.0 1.0
  outer loop
    vertex 422.0906895857004 -343.0348831622626 43.70465919104391
    vertex 422.0906895857004 -349.9196069818525 43.70465919104391
    vertex 422.2904904307097 -349.43724507205764 43.70465919104391
  endloop
endfacet
facet normal 0.0 0.0 1.0
  outer loop
    vertex 422.0906895857004 -343.0348831622626 43.70465919104391
    vertex 422.2904904307097 -349.43724507205764 43.70465919104391
    vertex 422.2904904307097 -343.5172450720575 43.70465919104391
  endloop
endfacet
facet normal 0.0 0.0 1.0
  outer loop
    vertex 422.2904904307097 -343.5172450720575 43.70465919104391
    vertex 422.2904904307097 -349.43724507205764 43.70465919104391
    vertex 422.60832767590546 -349.0230315096846 43.70465919104391
  endloop
endfacet
facet normal 0.0 0.0 1.0
  outer loop
    vertex 422.2904904307097 -343.5172450720575 43.70465919104391
    vertex 422.60832767590546 -349.0230315096846 43.70465919104391
    vertex 422.60832767590546 -343.93145863443056 43.70465919104391
  endloop
endfacet
facet normal 0.0 0.0 1.0
  outer loop
    vertex 422.60832767590546 -343.93145863443056 43.70465919104391
    vertex 422.60832767590546 -349.0230315096846 43.70465919104391
    vertex 423.0225412382786 -348.7051942644886 43.70465919104391
  endloop
endfacet
facet normal 0.0 0.0 1.0
  outer loop
    vertex 422.60832767590546 -343.93145863443056 43.70465919104391
    vertex 423.0225412382786 -348.7051942644886 43.70465919104391
    vertex 423.0225412382785 -344.2492958796265 43.70465919104391
  endloop
endfacet
facet normal 0.0 0.0 1.0
  outer loop
    vertex 423.0225412382785 -344.2492958796265 43.70465919104391
    vertex 423.0225412382786 -348.7051942644886 43.70465919104391
    vertex 423.5049031480735 -344.44909672463564 43.70465919104391
  endloop
endfacet
facet normal 0.0 0.0 1.0
  outer loop
    vertex 423.5049031480735 -344.44909672463564 43.70465919104391
    vertex 423.0225412382786 -348.7051942644886 43.70465919104391
    vertex 423.5049031480735 -348.5053934194795 43.70465919104391
  endloop
endfacet
facet normal 0.0 0.0 1.0
  outer loop
    vertex 423.5049031480735 -344.44909672463564 43.70465919104391
    vertex 423.5049031480735 -348.5053934194795 43.70465919104391
    vertex 424.02254123827856 -348.4372450720577 43.70465919104391
  endloop
endfacet
facet normal 0.0 0.0 1.0
  outer loop
    vertex 423.5049031480735 -344.44909672463564 43.70465919104391
    vertex 424.02254123827856 -348.4372450720577 43.70465919104391
    vertex 424.02254123827856 -344.51724507205745 43.70465919104391
  endloop
endfacet
facet normal 0.0 0.0 1.0
  outer loop
    vertex 424.02254123827856 -344.51724507205745 43.70465919104391
    vertex 424.02254123827856 -348.4372450720577 43.70465919104391
    vertex 424.54017932848365 -348.5053934194795 43.70465919104391
  endloop
endfacet
facet normal 0.0 0.0 1.0
  outer loop
    vertex 424.02254123827856 -344.51724507205745 43.70465919104391
    vertex 424.54017932848365 -348.5053934194795 43.70465919104391
    vertex 424.54017932848365 -344.44909672463564 43.70465919104391
  endloop
endfacet
facet normal 0.0 0.0 1.0
  outer loop
    vertex 424.54017932848365 -344.44909672463564 43.70465919104391
    vertex 424.54017932848365 -348.5053934194795 43.70465919104391
    vertex 425.0225412382786 -348.7051942644886 43.70465919104391
  endloop
endfacet
facet normal 0.0 0.0 1.0
  outer loop
    vertex 424.54017932848365 -344.44909672463564 43.70465919104391
    vertex 425.0225412382786 -348.7051942644886 43.70465919104391
    vertex 425.0225412382785 -344.2492958796265 43.70465919104391
  endloop
endfacet
facet normal 0.0 0.0 1.0
  outer loop
    vertex 425.0225412382785 -344.2492958796265 43.70465919104391
    vertex 425.0225412382786 -348.7051942644886 43.70465919104391
    vertex 425.43675480065167 -343.93145863443056 43.70465919104391
  endloop
endfacet
facet normal 0.0 0.0 1.0
  outer loop
    vertex 425.43675480065167 -343.93145863443056 43.70465919104391
    vertex 425.0225412382786 -348.7051942644886 43.70465919104391
    vertex 425.43675480065167 -349.0230315096846 43.70465919104391
  endloop
endfacet
facet normal 0.0 0.0 1.0
  outer loop
    vertex 425.43675480065167 -343.93145863443056 43.70465919104391
    vertex 425.43675480065167 -349.0230315096846 43.70465919104391
    vertex 425.75459204584746 -349.43724507205764 43.70465919104391
  endloop
endfacet
facet normal 0.0 0.0 1.0
  outer loop
    vertex 425.43675480065167 -343.93145863443056 43.70465919104391
    vertex 425.75459204584746 -349.43724507205764 43.70465919104391
    vertex 425.75459204584746 -343.5172450720575 43.70465919104391
  endloop
endfacet
facet normal 0.0 0.0 1.0
  outer loop
    vertex 425.75459204584746 -343.5172450720575 43.70465919104391
    vertex 425.75459204584746 -349.43724507205764 43.70465919104391
    vertex 425.95439289085675 -349.9196069818525 43.70465919104391
  endloop
endfacet
facet normal 0.0 0.0 1.0
  outer loop
    vertex 425.75459204584746 -343.5172450720575 43.70465919104391
    vertex 425.95439289085675 -349.9196069818525 43.70465919104391
    vertex 425.95439289085675 -343.0348831622626 43.70465919104391
  endloop
endfacet
facet normal 0.0 0.0 1.0
  outer loop
    vertex 425.95439289085675 -343.0348831622626 43.70465919104391
    vertex 425.95439289085675 -349.9196069818525 43.70465919104391
    vertex 426.02254123827856 -350.4372450720576 43.70465919104391
  endloop
endfacet
facet normal 0.0 0.0 1.0
  outer loop
    vertex 425.95439289085675 -343.0348831622626 43.70465919104391
    vertex 426.02254123827856 -350.4372450720576 43.70465919104391
    vertex 426.02254123827856 -342.51724507205756 43.70465919104391
  endloop
endfacet
facet normal -1.0 0.0 0.0
  outer loop
    vertex 416.21029569233133 -338.15340165428165 43.70465919104391
    vertex 416.21029569233133 -354.1334016542821 40.70465919104391
    vertex 416.21029569233133 -354.1334016542821 43.70465919104391
  endloop
endfacet
facet normal -1.0 0.0 0.0
  outer loop
    vertex 416.21029569233133 -354.1334016542821 40.70465919104391
    vertex 416.21029569233133 -338.15340165428165 43.70465919104391
    vertex 416.21029569233133 -338.15340165428165 40.70465919104391
  endloop
endfacet
facet normal 0.0 0.0 -1.0
  outer loop
    vertex 434.68281919469064 -338.15340165428165 40.70465919104391
    vertex 416.21029569233133 -354.1334016542821 40.70465919104391
    vertex 416.21029569233133 -338.15340165428165 40.70465919104391
  endloop
endfacet
facet normal 0.0 0.0 -1.0
  outer loop
    vertex 416.21029569233133 -354.1334016542821 40.70465919104391
    vertex 434.68281919469064 -338.15340165428165 40.70465919104391
    vertex 434.68281919469064 -354.1334016542821 40.70465919104391
  endloop
endfacet
facet normal 0.0 0.0 1.0
  outer loop
    vertex 422.0906895857004 -350.95488316226266 46.70465919104391
    vertex 422.0906895857004 -349.9196069818525 46.70465919104391
    vertex 422.02254123827856 -350.4372450720576 46.70465919104391
  endloop
endfacet
facet normal 0.0 0.0 1.0
  outer loop
    vertex 422.0906895857004 -349.9196069818525 46.70465919104391
    vertex 422.0906895857004 -350.95488316226266 46.70465919104391
    vertex 422.2904904307097 -351.4372450720575 46.70465919104391
  endloop
endfacet
facet normal 0.0 0.0 1.0
  outer loop
    vertex 422.0906895857004 -349.9196069818525 46.70465919104391
    vertex 422.2904904307097 -351.4372450720575 46.70465919104391
    vertex 422.2904904307097 -349.43724507205764 46.70465919104391
  endloop
endfacet
facet normal 0.0 0.0 1.0
  outer loop
    vertex 422.2904904307097 -349.43724507205764 46.70465919104391
    vertex 422.2904904307097 -351.4372450720575 46.70465919104391
    vertex 422.60832767590546 -351.85145863443057 46.70465919104391
  endloop
endfacet
facet normal 0.0 0.0 1.0
  outer loop
    vertex 422.2904904307097 -349.43724507205764 46.70465919104391
    vertex 422.60832767590546 -351.85145863443057 46.70465919104391
    vertex 422.60832767590546 -349.0230315096846 46.70465919104391
  endloop
endfacet
facet normal 0.0 0.0 1.0
  outer loop
    vertex 422.60832767590546 -349.0230315096846 46.70465919104391
    vertex 422.60832767590546 -351.85145863443057 46.70465919104391
    vertex 423.0225412382785 -352.16929587962653 46.70465919104391
  endloop
endfacet
facet normal 0.0 0.0 1.0
  outer loop
    vertex 422.60832767590546 -349.0230315096846 46.70465919104391
    vertex 423.0225412382785 -352.16929587962653 46.70465919104391
    vertex 423.0225412382786 -348.7051942644886 46.70465919104391
  endloop
endfacet
facet normal 0.0 0.0 1.0
  outer loop
    vertex 423.0225412382786 -348.7051942644886 46.70465919104391
    vertex 423.0225412382785 -352.16929587962653 46.70465919104391
    vertex 423.5049031480735 -352.36909672463565 46.70465919104391
  endloop
endfacet
facet normal 0.0 0.0 1.0
  outer loop
    vertex 423.0225412382786 -348.7051942644886 46.70465919104391
    vertex 423.5049031480735 -352.36909672463565 46.70465919104391
    vertex 423.5049031480735 -348.5053934194795 46.70465919104391
  endloop
endfacet
facet normal 0.0 0.0 1.0
  outer loop
    vertex 423.5049031480735 -348.5053934194795 46.70465919104391
    vertex 423.5049031480735 -352.36909672463565 46.70465919104391
    vertex 424.02254123827856 -352.43724507205746 46.70465919104391
  endloop
endfacet
facet normal 0.0 0.0 1.0
  outer loop
    vertex 423.5049031480735 -348.5053934194795 46.70465919104391
    vertex 424.02254123827856 -352.43724507205746 46.70465919104391
    vertex 424.02254123827856 -348.4372450720577 46.70465919104391
  endloop
endfacet
facet normal 0.0 0.0 1.0
  outer loop
    vertex 424.02254123827856 -348.4372450720577 46.70465919104391
    vertex 424.02254123827856 -352.43724507205746 46.70465919104391
    vertex 424.54017932848365 -352.36909672463565 46.70465919104391
  endloop
endfacet
facet normal 0.0 0.0 1.0
  outer loop
    vertex 424.02254123827856 -348.4372450720577 46.70465919104391
    vertex 424.54017932848365 -352.36909672463565 46.70465919104391
    vertex 424.54017932848365 -348.5053934194795 46.70465919104391
  endloop
endfacet
facet normal 0.0 0.0 1.0
  outer loop
    vertex 424.54017932848365 -348.5053934194795 46.70465919104391
    vertex 424.54017932848365 -352.36909672463565 46.70465919104391
    vertex 425.0225412382785 -352.16929587962653 46.70465919104391
  endloop
endfacet
facet normal 0.0 0.0 1.0
  outer loop
    vertex 424.54017932848365 -348.5053934194795 46.70465919104391
    vertex 425.0225412382785 -352.16929587962653 46.70465919104391
    vertex 425.0225412382786 -348.7051942644886 46.70465919104391
  endloop
endfacet
facet normal 0.0 0.0 1.0
  outer loop
    vertex 425.0225412382786 -348.7051942644886 46.70465919104391
    vertex 425.0225412382785 -352.16929587962653 46.70465919104391
    vertex 425.43675480065167 -351.85145863443057 46.70465919104391
  endloop
endfacet
facet normal 0.0 0.0 1.0
  outer loop
    vertex 425.0225412382786 -348.7051942644886 46.70465919104391
    vertex 425.43675480065167 -351.85145863443057 46.70465919104391
    vertex 425.43675480065167 -349.0230315096846 46.70465919104391
  endloop
endfacet
facet normal 0.0 0.0 1.0
  outer loop
    vertex 425.43675480065167 -349.0230315096846 46.70465919104391
    vertex 425.43675480065167 -351.85145863443057 46.70465919104391
    vertex 425.75459204584746 -351.4372450720575 46.70465919104391
  endloop
endfacet
facet normal 0.0 0.0 1.0
  outer loop
    vertex 425.43675480065167 -349.0230315096846 46.70465919104391
    vertex 425.75459204584746 -351.4372450720575 46.70465919104391
    vertex 425.75459204584746 -349.43724507205764 46.70465919104391
  endloop
endfacet
facet normal 0.0 0.0 1.0
  outer loop
    vertex 425.75459204584746 -349.43724507205764 46.70465919104391
    vertex 425.75459204584746 -351.4372450720575 46.70465919104391
    vertex 425.95439289085675 -350.95488316226266 46.70465919104391
  endloop
endfacet
facet normal 0.0 0.0 1.0
  outer loop
    vertex 425.75459204584746 -349.43724507205764 46.70465919104391
    vertex 425.95439289085675 -350.95488316226266 46.70465919104391
    vertex 425.95439289085675 -349.9196069818525 46.70465919104391
  endloop
endfacet
facet normal 0.0 0.0 1.0
  outer loop
    vertex 425.95439289085675 -349.9196069818525 46.70465919104391
    vertex 425.95439289085675 -350.95488316226266 46.70465919104391
    vertex 426.02254123827856 -350.4372450720576 46.70465919104391
  endloop
endfacet
facet normal 0.9914448613738197 0.13052619221998144 0.0
  outer loop
    vertex 425.95439289085675 -349.9196069818525 43.70465919104391
    vertex 426.02254123827856 -350.4372450720576 46.70465919104391
    vertex 426.02254123827856 -350.4372450720576 43.70465919104391
  endloop
endfacet
facet normal 0.9914448613738197 0.13052619221998144 0.0
  outer loop
    vertex 426.02254123827856 -350.4372450720576 46.70465919104391
    vertex 425.95439289085675 -349.9196069818525 43.70465919104391
    vertex 425.95439289085675 -349.9196069818525 46.70465919104391
  endloop
endfacet
facet normal 0.9914448613738197 -0.13052619221998144 0.0
  outer loop
    vertex 426.02254123827856 -350.4372450720576 43.70465919104391
    vertex 425.95439289085675 -350.95488316226266 46.70465919104391
    vertex 425.95439289085675 -350.95488316226266 43.70465919104391
  endloop
endfacet
facet normal 0.9914448613738197 -0.13052619221998144 0.0
  outer loop
    vertex 425.95439289085675 -350.95488316226266 46.70465919104391
    vertex 426.02254123827856 -350.4372450720576 43.70465919104391
    vertex 426.02254123827856 -350.4372450720576 46.70465919104391
  endloop
endfacet
facet normal 0.923879532511239 -0.3826834323652056 0.0
  outer loop
    vertex 425.95439289085675 -350.95488316226266 43.70465919104391
    vertex 425.75459204584746 -351.4372450720575 46.70465919104391
    vertex 425.75459204584746 -351.4372450720575 43.70465919104391
  endloop
endfacet
facet normal 0.923879532511239 -0.3826834323652056 0.0
  outer loop
    vertex 425.75459204584746 -351.4372450720575 46.70465919104391
    vertex 425.95439289085675 -350.95488316226266 43.70465919104391
    vertex 425.95439289085675 -350.95488316226266 46.70465919104391
  endloop
endfacet
facet normal 0.7933533402912196 -0.6087614290087409 0.0
  outer loop
    vertex 425.75459204584746 -351.4372450720575 43.70465919104391
    vertex 425.43675480065167 -351.85145863443057 46.70465919104391
    vertex 425.43675480065167 -351.85145863443057 43.70465919104391
  endloop
endfacet
facet normal 0.7933533402912196 -0.6087614290087409 0.0
  outer loop
    vertex 425.43675480065167 -351.85145863443057 46.70465919104391
    vertex 425.75459204584746 -351.4372450720575 43.70465919104391
    vertex 425.75459204584746 -351.4372450720575 46.70465919104391
  endloop
endfacet
facet normal 0.608761429008875 -0.7933533402911168 0.0
  outer loop
    vertex 425.43675480065167 -351.85145863443057 46.70465919104391
    vertex 425.0225412382785 -352.16929587962653 43.70465919104391
    vertex 425.43675480065167 -351.85145863443057 43.70465919104391
  endloop
endfacet
facet normal 0.608761429008875 -0.7933533402911168 0.0
  outer loop
    vertex 425.0225412382785 -352.16929587962653 43.70465919104391
    vertex 425.43675480065167 -351.85145863443057 46.70465919104391
    vertex 425.0225412382785 -352.16929587962653 46.70465919104391
  endloop
endfacet
facet normal 0.3826834323649104 -0.923879532511361 0.0
  outer loop
    vertex 425.0225412382785 -352.16929587962653 46.70465919104391
    vertex 424.54017932848365 -352.36909672463565 43.70465919104391
    vertex 425.0225412382785 -352.16929587962653 43.70465919104391
  endloop
endfacet
facet normal 0.3826834323649104 -0.923879532511361 0.0
  outer loop
    vertex 424.54017932848365 -352.36909672463565 43.70465919104391
    vertex 425.0225412382785 -352.16929587962653 46.70465919104391
    vertex 424.54017932848365 -352.36909672463565 46.70465919104391
  endloop
endfacet
facet normal 0.13052619221998144 -0.9914448613738197 0.0
  outer loop
    vertex 424.54017932848365 -352.36909672463565 46.70465919104391
    vertex 424.02254123827856 -352.43724507205746 43.70465919104391
    vertex 424.54017932848365 -352.36909672463565 43.70465919104391
  endloop
endfacet
facet normal 0.13052619221998144 -0.9914448613738197 0.0
  outer loop
    vertex 424.02254123827856 -352.43724507205746 43.70465919104391
    vertex 424.54017932848365 -352.36909672463565 46.70465919104391
    vertex 424.02254123827856 -352.43724507205746 46.70465919104391
  endloop
endfacet
facet normal -0.13052619221998144 -0.9914448613738197 0.0
  outer loop
    vertex 424.02254123827856 -352.43724507205746 46.70465919104391
    vertex 423.5049031480735 -352.36909672463565 43.70465919104391
    vertex 424.02254123827856 -352.43724507205746 43.70465919104391
  endloop
endfacet
facet normal -0.13052619221998144 -0.9914448613738197 0.0
  outer loop
    vertex 423.5049031480735 -352.36909672463565 43.70465919104391
    vertex 424.02254123827856 -352.43724507205746 46.70465919104391
    vertex 423.5049031480735 -352.36909672463565 46.70465919104391
  endloop
endfacet
facet normal -0.3826834323648493 -0.9238795325113863 0.0
  outer loop
    vertex 423.5049031480735 -352.36909672463565 46.70465919104391
    vertex 423.0225412382785 -352.16929587962653 43.70465919104391
    vertex 423.5049031480735 -352.36909672463565 43.70465919104391
  endloop
endfacet
facet normal -0.3826834323648493 -0.9238795325113863 0.0
  outer loop
    vertex 423.0225412382785 -352.16929587962653 43.70465919104391
    vertex 423.5049031480735 -352.36909672463565 46.70465919104391
    vertex 423.0225412382785 -352.16929587962653 46.70465919104391
  endloop
endfacet
facet normal -0.6087614290089584 -0.7933533402910526 0.0
  outer loop
    vertex 423.0225412382785 -352.16929587962653 46.70465919104391
    vertex 422.60832767590546 -351.85145863443057 43.70465919104391
    vertex 423.0225412382785 -352.16929587962653 43.70465919104391
  endloop
endfacet
facet normal -0.6087614290089584 -0.7933533402910526 0.0
  outer loop
    vertex 422.60832767590546 -351.85145863443057 43.70465919104391
    vertex 423.0225412382785 -352.16929587962653 46.70465919104391
    vertex 422.60832767590546 -351.85145863443057 46.70465919104391
  endloop
endfacet
facet normal -0.7933533402912196 -0.6087614290087409 0.0
  outer loop
    vertex 422.2904904307097 -351.4372450720575 46.70465919104391
    vertex 422.60832767590546 -351.85145863443057 43.70465919104391
    vertex 422.60832767590546 -351.85145863443057 46.70465919104391
  endloop
endfacet
facet normal -0.7933533402912196 -0.6087614290087409 0.0
  outer loop
    vertex 422.60832767590546 -351.85145863443057 43.70465919104391
    vertex 422.2904904307097 -351.4372450720575 46.70465919104391
    vertex 422.2904904307097 -351.4372450720575 43.70465919104391
  endloop
endfacet
facet normal -0.923879532511239 -0.3826834323652056 0.0
  outer loop
    vertex 422.0906895857004 -350.95488316226266 46.70465919104391
    vertex 422.2904904307097 -351.4372450720575 43.70465919104391
    vertex 422.2904904307097 -351.4372450720575 46.70465919104391
  endloop
endfacet
facet normal -0.923879532511239 -0.3826834323652056 0.0
  outer loop
    vertex 422.2904904307097 -351.4372450720575 43.70465919104391
    vertex 422.0906895857004 -350.95488316226266 46.70465919104391
    vertex 422.0906895857004 -350.95488316226266 43.70465919104391
  endloop
endfacet
facet normal -0.9914448613738197 -0.13052619221998144 0.0
  outer loop
    vertex 422.02254123827856 -350.4372450720576 46.70465919104391
    vertex 422.0906895857004 -350.95488316226266 43.70465919104391
    vertex 422.0906895857004 -350.95488316226266 46.70465919104391
  endloop
endfacet
facet normal -0.9914448613738197 -0.13052619221998144 0.0
  outer loop
    vertex 422.0906895857004 -350.95488316226266 43.70465919104391
    vertex 422.02254123827856 -350.4372450720576 46.70465919104391
    vertex 422.02254123827856 -350.4372450720576 43.70465919104391
  endloop
endfacet
facet normal -0.9914448613738197 0.13052619221998144 0.0
  outer loop
    vertex 422.0906895857004 -349.9196069818525 46.70465919104391
    vertex 422.02254123827856 -350.4372450720576 43.70465919104391
    vertex 422.02254123827856 -350.4372450720576 46.70465919104391
  endloop
endfacet
facet normal -0.9914448613738197 0.13052619221998144 0.0
  outer loop
    vertex 422.02254123827856 -350.4372450720576 43.70465919104391
    vertex 422.0906895857004 -349.9196069818525 46.70465919104391
    vertex 422.0906895857004 -349.9196069818525 43.70465919104391
  endloop
endfacet
facet normal -0.923879532511239 0.3826834323652056 0.0
  outer loop
    vertex 422.2904904307097 -349.43724507205764 46.70465919104391
    vertex 422.0906895857004 -349.9196069818525 43.70465919104391
    vertex 422.0906895857004 -349.9196069818525 46.70465919104391
  endloop
endfacet
facet normal -0.923879532511239 0.3826834323652056 0.0
  outer loop
    vertex 422.0906895857004 -349.9196069818525 43.70465919104391
    vertex 422.2904904307097 -349.43724507205764 46.70465919104391
    vertex 422.2904904307097 -349.43724507205764 43.70465919104391
  endloop
endfacet
facet normal -0.7933533402912196 0.6087614290087409 0.0
  outer loop
    vertex 422.60832767590546 -349.0230315096846 46.70465919104391
    vertex 422.2904904307097 -349.43724507205764 43.70465919104391
    vertex 422.2904904307097 -349.43724507205764 46.70465919104391
  endloop
endfacet
facet normal -0.7933533402912196 0.6087614290087409 0.0
  outer loop
    vertex 422.2904904307097 -349.43724507205764 43.70465919104391
    vertex 422.60832767590546 -349.0230315096846 46.70465919104391
    vertex 422.60832767590546 -349.0230315096846 43.70465919104391
  endloop
endfacet
facet normal -0.608761429008875 0.7933533402911168 0.0
  outer loop
    vertex 422.60832767590546 -349.0230315096846 46.70465919104391
    vertex 423.0225412382786 -348.7051942644886 43.70465919104391
    vertex 422.60832767590546 -349.0230315096846 43.70465919104391
  endloop
endfacet
facet normal -0.608761429008875 0.7933533402911168 0.0
  outer loop
    vertex 423.0225412382786 -348.7051942644886 43.70465919104391
    vertex 422.60832767590546 -349.0230315096846 46.70465919104391
    vertex 423.0225412382786 -348.7051942644886 46.70465919104391
  endloop
endfacet
facet normal -0.3826834323649104 0.923879532511361 0.0
  outer loop
    vertex 423.0225412382786 -348.7051942644886 46.70465919104391
    vertex 423.5049031480735 -348.5053934194795 43.70465919104391
    vertex 423.0225412382786 -348.7051942644886 43.70465919104391
  endloop
endfacet
facet normal -0.3826834323649104 0.923879532511361 0.0
  outer loop
    vertex 423.5049031480735 -348.5053934194795 43.70465919104391
    vertex 423.0225412382786 -348.7051942644886 46.70465919104391
    vertex 423.5049031480735 -348.5053934194795 46.70465919104391
  endloop
endfacet
facet normal -0.13052619221998144 0.9914448613738197 0.0
  outer loop
    vertex 423.5049031480735 -348.5053934194795 46.70465919104391
    vertex 424.02254123827856 -348.4372450720577 43.70465919104391
    vertex 423.5049031480735 -348.5053934194795 43.70465919104391
  endloop
endfacet
facet normal -0.13052619221998144 0.9914448613738197 0.0
  outer loop
    vertex 424.02254123827856 -348.4372450720577 43.70465919104391
    vertex 423.5049031480735 -348.5053934194795 46.70465919104391
    vertex 424.02254123827856 -348.4372450720577 46.70465919104391
  endloop
endfacet
facet normal 0.13052619221998144 0.9914448613738197 0.0
  outer loop
    vertex 424.02254123827856 -348.4372450720577 46.70465919104391
    vertex 424.54017932848365 -348.5053934194795 43.70465919104391
    vertex 424.02254123827856 -348.4372450720577 43.70465919104391
  endloop
endfacet
facet normal 0.13052619221998144 0.9914448613738197 0.0
  outer loop
    vertex 424.54017932848365 -348.5053934194795 43.70465919104391
    vertex 424.02254123827856 -348.4372450720577 46.70465919104391
    vertex 424.54017932848365 -348.5053934194795 46.70465919104391
  endloop
endfacet
facet normal 0.3826834323648493 0.9238795325113863 0.0
  outer loop
    vertex 424.54017932848365 -348.5053934194795 46.70465919104391
    vertex 425.0225412382786 -348.7051942644886 43.70465919104391
    vertex 424.54017932848365 -348.5053934194795 43.70465919104391
  endloop
endfacet
facet normal 0.3826834323648493 0.9238795325113863 0.0
  outer loop
    vertex 425.0225412382786 -348.7051942644886 43.70465919104391
    vertex 424.54017932848365 -348.5053934194795 46.70465919104391
    vertex 425.0225412382786 -348.7051942644886 46.70465919104391
  endloop
endfacet
facet normal 0.6087614290089584 0.7933533402910526 0.0
  outer loop
    vertex 425.0225412382786 -348.7051942644886 46.70465919104391
    vertex 425.43675480065167 -349.0230315096846 43.70465919104391
    vertex 425.0225412382786 -348.7051942644886 43.70465919104391
  endloop
endfacet
facet normal 0.6087614290089584 0.7933533402910526 0.0
  outer loop
    vertex 425.43675480065167 -349.0230315096846 43.70465919104391
    vertex 425.0225412382786 -348.7051942644886 46.70465919104391
    vertex 425.43675480065167 -349.0230315096846 46.70465919104391
  endloop
endfacet
facet normal 0.7933533402912196 0.6087614290087409 0.0
  outer loop
    vertex 425.43675480065167 -349.0230315096846 43.70465919104391
    vertex 425.75459204584746 -349.43724507205764 46.70465919104391
    vertex 425.75459204584746 -349.43724507205764 43.70465919104391
  endloop
endfacet
facet normal 0.7933533402912196 0.6087614290087409 0.0
  outer loop
    vertex 425.75459204584746 -349.43724507205764 46.70465919104391
    vertex 425.43675480065167 -349.0230315096846 43.70465919104391
    vertex 425.43675480065167 -349.0230315096846 46.70465919104391
  endloop
endfacet
facet normal 0.923879532511239 0.3826834323652056 0.0
  outer loop
    vertex 425.75459204584746 -349.43724507205764 43.70465919104391
    vertex 425.95439289085675 -349.9196069818525 46.70465919104391
    vertex 425.95439289085675 -349.9196069818525 43.70465919104391
  endloop
endfacet
facet normal 0.923879532511239 0.3826834323652056 0.0
  outer loop
    vertex 425.95439289085675 -349.9196069818525 46.70465919104391
    vertex 425.75459204584746 -349.43724507205764 43.70465919104391
    vertex 425.75459204584746 -349.43724507205764 46.70465919104391
  endloop
endfacet
facet normal 0.0 0.0 1.0
  outer loop
    vertex 422.0906895857004 -343.0348831622626 46.70465919104391
    vertex 422.0906895857004 -341.9996069818525 46.70465919104391
    vertex 422.02254123827856 -342.51724507205756 46.70465919104391
  endloop
endfacet
facet normal 0.0 0.0 1.0
  outer loop
    vertex 422.0906895857004 -341.9996069818525 46.70465919104391
    vertex 422.0906895857004 -343.0348831622626 46.70465919104391
    vertex 422.2904904307097 -343.5172450720575 46.70465919104391
  endloop
endfacet
facet normal 0.0 0.0 1.0
  outer loop
    vertex 422.0906895857004 -341.9996069818525 46.70465919104391
    vertex 422.2904904307097 -343.5172450720575 46.70465919104391
    vertex 422.2904904307097 -341.51724507205756 46.70465919104391
  endloop
endfacet
facet normal 0.0 0.0 1.0
  outer loop
    vertex 422.2904904307097 -341.51724507205756 46.70465919104391
    vertex 422.2904904307097 -343.5172450720575 46.70465919104391
    vertex 422.60832767590546 -343.93145863443056 46.70465919104391
  endloop
endfacet
facet normal 0.0 0.0 1.0
  outer loop
    vertex 422.2904904307097 -341.51724507205756 46.70465919104391
    vertex 422.60832767590546 -343.93145863443056 46.70465919104391
    vertex 422.60832767590546 -341.1030315096845 46.70465919104391
  endloop
endfacet
facet normal 0.0 0.0 1.0
  outer loop
    vertex 422.60832767590546 -341.1030315096845 46.70465919104391
    vertex 422.60832767590546 -343.93145863443056 46.70465919104391
    vertex 423.0225412382785 -344.2492958796265 46.70465919104391
  endloop
endfacet
facet normal 0.0 0.0 1.0
  outer loop
    vertex 422.60832767590546 -341.1030315096845 46.70465919104391
    vertex 423.0225412382785 -344.2492958796265 46.70465919104391
    vertex 423.0225412382786 -340.7851942644886 46.70465919104391
  endloop
endfacet
facet normal 0.0 0.0 1.0
  outer loop
    vertex 423.0225412382786 -340.7851942644886 46.70465919104391
    vertex 423.0225412382785 -344.2492958796265 46.70465919104391
    vertex 423.5049031480735 -344.44909672463564 46.70465919104391
  endloop
endfacet
facet normal 0.0 0.0 1.0
  outer loop
    vertex 423.0225412382786 -340.7851942644886 46.70465919104391
    vertex 423.5049031480735 -344.44909672463564 46.70465919104391
    vertex 423.5049031480735 -340.5853934194795 46.70465919104391
  endloop
endfacet
facet normal 0.0 0.0 1.0
  outer loop
    vertex 423.5049031480735 -340.5853934194795 46.70465919104391
    vertex 423.5049031480735 -344.44909672463564 46.70465919104391
    vertex 424.02254123827856 -344.51724507205745 46.70465919104391
  endloop
endfacet
facet normal 0.0 0.0 1.0
  outer loop
    vertex 423.5049031480735 -340.5853934194795 46.70465919104391
    vertex 424.02254123827856 -344.51724507205745 46.70465919104391
    vertex 424.02254123827856 -340.5172450720576 46.70465919104391
  endloop
endfacet
facet normal 0.0 0.0 1.0
  outer loop
    vertex 424.02254123827856 -340.5172450720576 46.70465919104391
    vertex 424.02254123827856 -344.51724507205745 46.70465919104391
    vertex 424.54017932848365 -344.44909672463564 46.70465919104391
  endloop
endfacet
facet normal 0.0 0.0 1.0
  outer loop
    vertex 424.02254123827856 -340.5172450720576 46.70465919104391
    vertex 424.54017932848365 -344.44909672463564 46.70465919104391
    vertex 424.54017932848365 -340.5853934194795 46.70465919104391
  endloop
endfacet
facet normal 0.0 0.0 1.0
  outer loop
    vertex 424.54017932848365 -340.5853934194795 46.70465919104391
    vertex 424.54017932848365 -344.44909672463564 46.70465919104391
    vertex 425.0225412382785 -344.2492958796265 46.70465919104391
  endloop
endfacet
facet normal 0.0 0.0 1.0
  outer loop
    vertex 424.54017932848365 -340.5853934194795 46.70465919104391
    vertex 425.0225412382785 -344.2492958796265 46.70465919104391
    vertex 425.0225412382786 -340.7851942644886 46.70465919104391
  endloop
endfacet
facet normal 0.0 0.0 1.0
  outer loop
    vertex 425.0225412382786 -340.7851942644886 46.70465919104391
    vertex 425.0225412382785 -344.2492958796265 46.70465919104391
    vertex 425.43675480065167 -343.93145863443056 46.70465919104391
  endloop
endfacet
facet normal 0.0 0.0 1.0
  outer loop
    vertex 425.0225412382786 -340.7851942644886 46.70465919104391
    vertex 425.43675480065167 -343.93145863443056 46.70465919104391
    vertex 425.43675480065167 -341.1030315096845 46.70465919104391
  endloop
endfacet
facet normal 0.0 0.0 1.0
  outer loop
    vertex 425.43675480065167 -341.1030315096845 46.70465919104391
    vertex 425.43675480065167 -343.93145863443056 46.70465919104391
    vertex 425.75459204584746 -343.5172450720575 46.70465919104391
  endloop
endfacet
facet normal 0.0 0.0 1.0
  outer loop
    vertex 425.43675480065167 -341.1030315096845 46.70465919104391
    vertex 425.75459204584746 -343.5172450720575 46.70465919104391
    vertex 425.75459204584746 -341.51724507205756 46.70465919104391
  endloop
endfacet
facet normal 0.0 0.0 1.0
  outer loop
    vertex 425.75459204584746 -341.51724507205756 46.70465919104391
    vertex 425.75459204584746 -343.5172450720575 46.70465919104391
    vertex 425.95439289085675 -343.0348831622626 46.70465919104391
  endloop
endfacet
facet normal 0.0 0.0 1.0
  outer loop
    vertex 425.75459204584746 -341.51724507205756 46.70465919104391
    vertex 425.95439289085675 -343.0348831622626 46.70465919104391
    vertex 425.95439289085675 -341.9996069818525 46.70465919104391
  endloop
endfacet
facet normal 0.0 0.0 1.0
  outer loop
    vertex 425.95439289085675 -341.9996069818525 46.70465919104391
    vertex 425.95439289085675 -343.0348831622626 46.70465919104391
    vertex 426.02254123827856 -342.51724507205756 46.70465919104391
  endloop
endfacet
facet normal 0.9914448613738197 0.13052619221998144 0.0
  outer loop
    vertex 425.95439289085675 -341.9996069818525 43.70465919104391
    vertex 426.02254123827856 -342.51724507205756 46.70465919104391
    vertex 426.02254123827856 -342.51724507205756 43.70465919104391
  endloop
endfacet
facet normal 0.9914448613738197 0.13052619221998144 0.0
  outer loop
    vertex 426.02254123827856 -342.51724507205756 46.70465919104391
    vertex 425.95439289085675 -341.9996069818525 43.70465919104391
    vertex 425.95439289085675 -341.9996069818525 46.70465919104391
  endloop
endfacet
facet normal 0.9914448613738197 -0.13052619221998144 0.0
  outer loop
    vertex 426.02254123827856 -342.51724507205756 43.70465919104391
    vertex 425.95439289085675 -343.0348831622626 46.70465919104391
    vertex 425.95439289085675 -343.0348831622626 43.70465919104391
  endloop
endfacet
facet normal 0.9914448613738197 -0.13052619221998144 0.0
  outer loop
    vertex 425.95439289085675 -343.0348831622626 46.70465919104391
    vertex 426.02254123827856 -342.51724507205756 43.70465919104391
    vertex 426.02254123827856 -342.51724507205756 46.70465919104391
  endloop
endfacet
facet normal 0.923879532511239 -0.3826834323652056 0.0
  outer loop
    vertex 425.95439289085675 -343.0348831622626 43.70465919104391
    vertex 425.75459204584746 -343.5172450720575 46.70465919104391
    vertex 425.75459204584746 -343.5172450720575 43.70465919104391
  endloop
endfacet
facet normal 0.923879532511239 -0.3826834323652056 0.0
  outer loop
    vertex 425.75459204584746 -343.5172450720575 46.70465919104391
    vertex 425.95439289085675 -343.0348831622626 43.70465919104391
    vertex 425.95439289085675 -343.0348831622626 46.70465919104391
  endloop
endfacet
facet normal 0.7933533402912196 -0.6087614290087409 0.0
  outer loop
    vertex 425.75459204584746 -343.5172450720575 43.70465919104391
    vertex 425.43675480065167 -343.93145863443056 46.70465919104391
    vertex 425.43675480065167 -343.93145863443056 43.70465919104391
  endloop
endfacet
facet normal 0.7933533402912196 -0.6087614290087409 0.0
  outer loop
    vertex 425.43675480065167 -343.93145863443056 46.70465919104391
    vertex 425.75459204584746 -343.5172450720575 43.70465919104391
    vertex 425.75459204584746 -343.5172450720575 46.70465919104391
  endloop
endfacet
facet normal 0.608761429008875 -0.7933533402911168 0.0
  outer loop
    vertex 425.43675480065167 -343.93145863443056 46.70465919104391
    vertex 425.0225412382785 -344.2492958796265 43.70465919104391
    vertex 425.43675480065167 -343.93145863443056 43.70465919104391
  endloop
endfacet
facet normal 0.608761429008875 -0.7933533402911168 0.0
  outer loop
    vertex 425.0225412382785 -344.2492958796265 43.70465919104391
    vertex 425.43675480065167 -343.93145863443056 46.70465919104391
    vertex 425.0225412382785 -344.2492958796265 46.70465919104391
  endloop
endfacet
facet normal 0.3826834323649104 -0.923879532511361 0.0
  outer loop
    vertex 425.0225412382785 -344.2492958796265 46.70465919104391
    vertex 424.54017932848365 -344.44909672463564 43.70465919104391
    vertex 425.0225412382785 -344.2492958796265 43.70465919104391
  endloop
endfacet
facet normal 0.3826834323649104 -0.923879532511361 0.0
  outer loop
    vertex 424.54017932848365 -344.44909672463564 43.70465919104391
    vertex 425.0225412382785 -344.2492958796265 46.70465919104391
    vertex 424.54017932848365 -344.44909672463564 46.70465919104391
  endloop
endfacet
facet normal 0.13052619221998144 -0.9914448613738197 0.0
  outer loop
    vertex 424.54017932848365 -344.44909672463564 46.70465919104391
    vertex 424.02254123827856 -344.51724507205745 43.70465919104391
    vertex 424.54017932848365 -344.44909672463564 43.70465919104391
  endloop
endfacet
facet normal 0.13052619221998144 -0.9914448613738197 0.0
  outer loop
    vertex 424.02254123827856 -344.51724507205745 43.70465919104391
    vertex 424.54017932848365 -344.44909672463564 46.70465919104391
    vertex 424.02254123827856 -344.51724507205745 46.70465919104391
  endloop
endfacet
facet normal -0.13052619221998144 -0.9914448613738197 0.0
  outer loop
    vertex 424.02254123827856 -344.51724507205745 46.70465919104391
    vertex 423.5049031480735 -344.44909672463564 43.70465919104391
    vertex 424.02254123827856 -344.51724507205745 43.70465919104391
  endloop
endfacet
facet normal -0.13052619221998144 -0.9914448613738197 0.0
  outer loop
    vertex 423.5049031480735 -344.44909672463564 43.70465919104391
    vertex 424.02254123827856 -344.51724507205745 46.70465919104391
    vertex 423.5049031480735 -344.44909672463564 46.70465919104391
  endloop
endfacet
facet normal -0.3826834323648493 -0.9238795325113863 0.0
  outer loop
    vertex 423.5049031480735 -344.44909672463564 46.70465919104391
    vertex 423.0225412382785 -344.2492958796265 43.70465919104391
    vertex 423.5049031480735 -344.44909672463564 43.70465919104391
  endloop
endfacet
facet normal -0.3826834323648493 -0.9238795325113863 0.0
  outer loop
    vertex 423.0225412382785 -344.2492958796265 43.70465919104391
    vertex 423.5049031480735 -344.44909672463564 46.70465919104391
    vertex 423.0225412382785 -344.2492958796265 46.70465919104391
  endloop
endfacet
facet normal -0.6087614290089584 -0.7933533402910526 0.0
  outer loop
    vertex 423.0225412382785 -344.2492958796265 46.70465919104391
    vertex 422.60832767590546 -343.93145863443056 43.70465919104391
    vertex 423.0225412382785 -344.2492958796265 43.70465919104391
  endloop
endfacet
facet normal -0.6087614290089584 -0.7933533402910526 0.0
  outer loop
    vertex 422.60832767590546 -343.93145863443056 43.70465919104391
    vertex 423.0225412382785 -344.2492958796265 46.70465919104391
    vertex 422.60832767590546 -343.93145863443056 46.70465919104391
  endloop
endfacet
facet normal -0.7933533402912196 -0.6087614290087409 0.0
  outer loop
    vertex 422.2904904307097 -343.5172450720575 46.70465919104391
    vertex 422.60832767590546 -343.93145863443056 43.70465919104391
    vertex 422.60832767590546 -343.93145863443056 46.70465919104391
  endloop
endfacet
facet normal -0.7933533402912196 -0.6087614290087409 0.0
  outer loop
    vertex 422.60832767590546 -343.93145863443056 43.70465919104391
    vertex 422.2904904307097 -343.5172450720575 46.70465919104391
    vertex 422.2904904307097 -343.5172450720575 43.70465919104391
  endloop
endfacet
facet normal -0.923879532511239 -0.3826834323652056 0.0
  outer loop
    vertex 422.0906895857004 -343.0348831622626 46.70465919104391
    vertex 422.2904904307097 -343.5172450720575 43.70465919104391
    vertex 422.2904904307097 -343.5172450720575 46.70465919104391
  endloop
endfacet
facet normal -0.923879532511239 -0.3826834323652056 0.0
  outer loop
    vertex 422.2904904307097 -343.5172450720575 43.70465919104391
    vertex 422.0906895857004 -343.0348831622626 46.70465919104391
    vertex 422.0906895857004 -343.0348831622626 43.70465919104391
  endloop
endfacet
facet normal -0.9914448613738197 -0.13052619221998144 0.0
  outer loop
    vertex 422.02254123827856 -342.51724507205756 46.70465919104391
    vertex 422.0906895857004 -343.0348831622626 43.70465919104391
    vertex 422.0906895857004 -343.0348831622626 46.70465919104391
  endloop
endfacet
facet normal -0.9914448613738197 -0.13052619221998144 0.0
  outer loop
    vertex 422.0906895857004 -343.0348831622626 43.70465919104391
    vertex 422.02254123827856 -342.51724507205756 46.70465919104391
    vertex 422.02254123827856 -342.51724507205756 43.70465919104391
  endloop
endfacet
facet normal -0.9914448613738197 0.13052619221998144 0.0
  outer loop
    vertex 422.0906895857004 -341.9996069818525 46.70465919104391
    vertex 422.02254123827856 -342.51724507205756 43.70465919104391
    vertex 422.02254123827856 -342.51724507205756 46.70465919104391
  endloop
endfacet
facet normal -0.9914448613738197 0.13052619221998144 0.0
  outer loop
    vertex 422.02254123827856 -342.51724507205756 43.70465919104391
    vertex 422.0906895857004 -341.9996069818525 46.70465919104391
    vertex 422.0906895857004 -341.9996069818525 43.70465919104391
  endloop
endfacet
facet normal -0.923879532511239 0.3826834323652056 0.0
  outer loop
    vertex 422.2904904307097 -341.51724507205756 46.70465919104391
    vertex 422.0906895857004 -341.9996069818525 43.70465919104391
    vertex 422.0906895857004 -341.9996069818525 46.70465919104391
  endloop
endfacet
facet normal -0.923879532511239 0.3826834323652056 0.0
  outer loop
    vertex 422.0906895857004 -341.9996069818525 43.70465919104391
    vertex 422.2904904307097 -341.51724507205756 46.70465919104391
    vertex 422.2904904307097 -341.51724507205756 43.70465919104391
  endloop
endfacet
facet normal -0.7933533402912196 0.6087614290087409 0.0
  outer loop
    vertex 422.60832767590546 -341.1030315096845 46.70465919104391
    vertex 422.2904904307097 -341.51724507205756 43.70465919104391
    vertex 422.2904904307097 -341.51724507205756 46.70465919104391
  endloop
endfacet
facet normal -0.7933533402912196 0.6087614290087409 0.0
  outer loop
    vertex 422.2904904307097 -341.51724507205756 43.70465919104391
    vertex 422.60832767590546 -341.1030315096845 46.70465919104391
    vertex 422.60832767590546 -341.1030315096845 43.70465919104391
  endloop
endfacet
facet normal -0.608761429008875 0.7933533402911168 0.0
  outer loop
    vertex 422.60832767590546 -341.1030315096845 46.70465919104391
    vertex 423.0225412382786 -340.7851942644886 43.70465919104391
    vertex 422.60832767590546 -341.1030315096845 43.70465919104391
  endloop
endfacet
facet normal -0.608761429008875 0.7933533402911168 0.0
  outer loop
    vertex 423.0225412382786 -340.7851942644886 43.70465919104391
    vertex 422.60832767590546 -341.1030315096845 46.70465919104391
    vertex 423.0225412382786 -340.7851942644886 46.70465919104391
  endloop
endfacet
facet normal -0.3826834323649104 0.923879532511361 0.0
  outer loop
    vertex 423.0225412382786 -340.7851942644886 46.70465919104391
    vertex 423.5049031480735 -340.5853934194795 43.70465919104391
    vertex 423.0225412382786 -340.7851942644886 43.70465919104391
  endloop
endfacet
facet normal -0.3826834323649104 0.923879532511361 0.0
  outer loop
    vertex 423.5049031480735 -340.5853934194795 43.70465919104391
    vertex 423.0225412382786 -340.7851942644886 46.70465919104391
    vertex 423.5049031480735 -340.5853934194795 46.70465919104391
  endloop
endfacet
facet normal -0.13052619221998144 0.9914448613738197 0.0
  outer loop
    vertex 423.5049031480735 -340.5853934194795 46.70465919104391
    vertex 424.02254123827856 -340.5172450720576 43.70465919104391
    vertex 423.5049031480735 -340.5853934194795 43.70465919104391
  endloop
endfacet
facet normal -0.13052619221998144 0.9914448613738197 0.0
  outer loop
    vertex 424.02254123827856 -340.5172450720576 43.70465919104391
    vertex 423.5049031480735 -340.5853934194795 46.70465919104391
    vertex 424.02254123827856 -340.5172450720576 46.70465919104391
  endloop
endfacet
facet normal 0.13052619221998144 0.9914448613738197 0.0
  outer loop
    vertex 424.02254123827856 -340.5172450720576 46.70465919104391
    vertex 424.54017932848365 -340.5853934194795 43.70465919104391
    vertex 424.02254123827856 -340.5172450720576 43.70465919104391
  endloop
endfacet
facet normal 0.13052619221998144 0.9914448613738197 0.0
  outer loop
    vertex 424.54017932848365 -340.5853934194795 43.70465919104391
    vertex 424.02254123827856 -340.5172450720576 46.70465919104391
    vertex 424.54017932848365 -340.5853934194795 46.70465919104391
  endloop
endfacet
facet normal 0.3826834323648493 0.9238795325113863 0.0
  outer loop
    vertex 424.54017932848365 -340.5853934194795 46.70465919104391
    vertex 425.0225412382786 -340.7851942644886 43.70465919104391
    vertex 424.54017932848365 -340.5853934194795 43.70465919104391
  endloop
endfacet
facet normal 0.3826834323648493 0.9238795325113863 0.0
  outer loop
    vertex 425.0225412382786 -340.7851942644886 43.70465919104391
    vertex 424.54017932848365 -340.5853934194795 46.70465919104391
    vertex 425.0225412382786 -340.7851942644886 46.70465919104391
  endloop
endfacet
facet normal 0.6087614290089584 0.7933533402910526 0.0
  outer loop
    vertex 425.0225412382786 -340.7851942644886 46.70465919104391
    vertex 425.43675480065167 -341.1030315096845 43.70465919104391
    vertex 425.0225412382786 -340.7851942644886 43.70465919104391
  endloop
endfacet
facet normal 0.6087614290089584 0.7933533402910526 0.0
  outer loop
    vertex 425.43675480065167 -341.1030315096845 43.70465919104391
    vertex 425.0225412382786 -340.7851942644886 46.70465919104391
    vertex 425.43675480065167 -341.1030315096845 46.70465919104391
  endloop
endfacet
facet normal 0.7933533402912196 0.6087614290087409 0.0
  outer loop
    vertex 425.43675480065167 -341.1030315096845 43.70465919104391
    vertex 425.75459204584746 -341.51724507205756 46.70465919104391
    vertex 425.75459204584746 -341.51724507205756 43.70465919104391
  endloop
endfacet
facet normal 0.7933533402912196 0.6087614290087409 0.0
  outer loop
    vertex 425.75459204584746 -341.51724507205756 46.70465919104391
    vertex 425.43675480065167 -341.1030315096845 43.70465919104391
    vertex 425.43675480065167 -341.1030315096845 46.70465919104391
  endloop
endfacet
facet normal 0.923879532511239 0.3826834323652056 0.0
  outer loop
    vertex 425.75459204584746 -341.51724507205756 43.70465919104391
    vertex 425.95439289085675 -341.9996069818525 46.70465919104391
    vertex 425.95439289085675 -341.9996069818525 43.70465919104391
  endloop
endfacet
facet normal 0.923879532511239 0.3826834323652056 0.0
  outer loop
    vertex 425.95439289085675 -341.9996069818525 46.70465919104391
    vertex 425.75459204584746 -341.51724507205756 43.70465919104391
    vertex 425.75459204584746 -341.51724507205756 46.70465919104391
  endloop
endfacet
facet normal 0.7071067811865409 0.0 -0.7071067811865542
  outer loop
    vertex 436.3908064416068 -338.15340165428165 42.412646437960035
    vertex 434.68281919469064 -354.1334016542821 40.70465919104391
    vertex 434.68281919469064 -338.15340165428165 40.70465919104391
  endloop
endfacet
facet normal 0.7071067811865409 0.0 -0.7071067811865542
  outer loop
    vertex 434.68281919469064 -354.1334016542821 40.70465919104391
    vertex 436.3908064416068 -338.15340165428165 42.412646437960035
    vertex 436.3908064416068 -354.1334016542821 42.412646437960035
  endloop
endfacet
facet normal -0.7071067811865476 -0.7071067811865476 0.0
  outer loop
    vertex 423.1602956923314 -350.2354678202787 78.60279032641886
    vertex 427.05822952633474 -354.1334016542821 75.60279032641886
    vertex 427.05822952633474 -354.1334016542821 78.60279032641886
  endloop
endfacet
facet normal -0.7071067811865476 -0.7071067811865476 0.0
  outer loop
    vertex 427.05822952633474 -354.1334016542821 75.60279032641886
    vertex 423.1602956923314 -350.2354678202787 78.60279032641886
    vertex 423.1602956923314 -350.2354678202787 75.60279032641886
  endloop
endfacet
facet normal -1.0 0.0 0.0
  outer loop
    vertex 423.1602956923314 -338.15340165428165 78.60279032641886
    vertex 423.1602956923314 -350.2354678202787 75.60279032641886
    vertex 423.1602956923314 -350.2354678202787 78.60279032641886
  endloop
endfacet
facet normal -1.0 0.0 0.0
  outer loop
    vertex 423.1602956923314 -350.2354678202787 75.60279032641886
    vertex 423.1602956923314 -338.15340165428165 78.60279032641886
    vertex 423.1602956923314 -338.15340165428165 75.60279032641886
  endloop
endfacet
facet normal 1.0 0.0 0.0
  outer loop
    vertex 436.3908064416068 -338.15340165428165 42.412646437960035
    vertex 436.3908064416068 -354.1334016542821 75.60279032641886
    vertex 436.3908064416068 -354.1334016542821 42.412646437960035
  endloop
endfacet
facet normal 1.0 0.0 0.0
  outer loop
    vertex 436.3908064416068 -354.1334016542821 75.60279032641886
    vertex 436.3908064416068 -338.15340165428165 42.412646437960035
    vertex 436.3908064416068 -338.15340165428165 75.60279032641886
  endloop
endfacet
facet normal -1.0 0.0 0.0
  outer loop
    vertex 433.3908064416068 -338.15340165428165 75.60279032641886
    vertex 433.3908064416068 -354.1334016542821 43.70465919104391
    vertex 433.3908064416068 -354.1334016542821 75.60279032641886
  endloop
endfacet
facet normal -1.0 0.0 0.0
  outer loop
    vertex 433.3908064416068 -354.1334016542821 43.70465919104391
    vertex 433.3908064416068 -338.15340165428165 75.60279032641886
    vertex 433.3908064416068 -338.15340165428165 43.70465919104391
  endloop
endfacet
facet normal 0.0 1.0 0.0
  outer loop
    vertex 423.1602956923314 -338.15340165428165 78.60279032641886
    vertex 433.3908064416068 -338.15340165428165 75.60279032641886
    vertex 423.1602956923314 -338.15340165428165 75.60279032641886
  endloop
endfacet
facet normal 0.0 1.0 0.0
  outer loop
    vertex 433.3908064416068 -338.15340165428165 75.60279032641886
    vertex 423.1602956923314 -338.15340165428165 78.60279032641886
    vertex 436.3908064416068 -338.15340165428165 75.60279032641886
  endloop
endfacet
facet normal 0.0 1.0 0.0
  outer loop
    vertex 436.3908064416068 -338.15340165428165 75.60279032641886
    vertex 423.1602956923314 -338.15340165428165 78.60279032641886
    vertex 433.8851347752697 -338.15340165428165 78.60279032641886
  endloop
endfacet
facet normal 0.0 1.0 0.0
  outer loop
    vertex 416.21029569233133 -338.15340165428165 43.70465919104391
    vertex 434.68281919469064 -338.15340165428165 40.70465919104391
    vertex 416.21029569233133 -338.15340165428165 40.70465919104391
  endloop
endfacet
facet normal 0.0 1.0 0.0
  outer loop
    vertex 434.68281919469064 -338.15340165428165 40.70465919104391
    vertex 416.21029569233133 -338.15340165428165 43.70465919104391
    vertex 436.3908064416068 -338.15340165428165 42.412646437960035
  endloop
endfacet
facet normal 0.0 1.0 0.0
  outer loop
    vertex 436.3908064416068 -338.15340165428165 42.412646437960035
    vertex 416.21029569233133 -338.15340165428165 43.70465919104391
    vertex 433.3908064416068 -338.15340165428165 43.70465919104391
  endloop
endfacet
facet normal 0.0 1.0 0.0
  outer loop
    vertex 436.3908064416068 -338.15340165428165 42.412646437960035
    vertex 433.3908064416068 -338.15340165428165 43.70465919104391
    vertex 436.3908064416068 -338.15340165428165 75.60279032641886
  endloop
endfacet
facet normal 0.0 1.0 0.0
  outer loop
    vertex 436.3908064416068 -338.15340165428165 75.60279032641886
    vertex 433.3908064416068 -338.15340165428165 43.70465919104391
    vertex 433.3908064416068 -338.15340165428165 75.60279032641886
  endloop
endfacet
facet normal 0.0 -1.0 0.0
  outer loop
    vertex 436.3908064416068 -354.1334016542821 75.60279032641886
    vertex 433.3908064416068 -354.1334016542821 43.70465919104391
    vertex 436.3908064416068 -354.1334016542821 42.412646437960035
  endloop
endfacet
facet normal 0.0 -1.0 0.0
  outer loop
    vertex 433.3908064416068 -354.1334016542821 43.70465919104391
    vertex 436.3908064416068 -354.1334016542821 75.60279032641886
    vertex 433.3908064416068 -354.1334016542821 75.60279032641886
  endloop
endfacet
facet normal 0.0 -1.0 0.0
  outer loop
    vertex 433.3908064416068 -354.1334016542821 75.60279032641886
    vertex 436.3908064416068 -354.1334016542821 75.60279032641886
    vertex 433.8851347752697 -354.1334016542821 78.60279032641886
  endloop
endfacet
facet normal 0.0 -1.0 0.0
  outer loop
    vertex 433.3908064416068 -354.1334016542821 75.60279032641886
    vertex 433.8851347752697 -354.1334016542821 78.60279032641886
    vertex 427.05822952633474 -354.1334016542821 75.60279032641886
  endloop
endfacet
facet normal 0.0 -1.0 0.0
  outer loop
    vertex 427.05822952633474 -354.1334016542821 75.60279032641886
    vertex 433.8851347752697 -354.1334016542821 78.60279032641886
    vertex 427.05822952633474 -354.1334016542821 78.60279032641886
  endloop
endfacet
facet normal 0.0 -1.0 0.0
  outer loop
    vertex 436.3908064416068 -354.1334016542821 42.412646437960035
    vertex 416.21029569233133 -354.1334016542821 40.70465919104391
    vertex 434.68281919469064 -354.1334016542821 40.70465919104391
  endloop
endfacet
facet normal 0.0 -1.0 0.0
  outer loop
    vertex 416.21029569233133 -354.1334016542821 40.70465919104391
    vertex 436.3908064416068 -354.1334016542821 42.412646437960035
    vertex 416.21029569233133 -354.1334016542821 43.70465919104391
  endloop
endfacet
facet normal 0.0 -1.0 0.0
  outer loop
    vertex 416.21029569233133 -354.1334016542821 43.70465919104391
    vertex 436.3908064416068 -354.1334016542821 42.412646437960035
    vertex 433.3908064416068 -354.1334016542821 43.70465919104391
  endloop
endfacet
endsolid slim_v2_стойка_v2
