solid slim_v2_стойка_v2
facet normal 1.0 0.0 0.0
  outer loop
    vertex 434.53080644160684 -338.3143075153532 33.93316180870252
    vertex 434.53080644160684 -348.7209023983324 36.93316180870252
    vertex 434.53080644160684 -348.7209023983324 33.93316180870252
  endloop
endfacet
facet normal 1.0 0.0 0.0
  outer loop
    vertex 434.53080644160684 -348.7209023983324 36.93316180870252
    vertex 434.53080644160684 -338.3143075153532 33.93316180870252
    vertex 434.53080644160684 -338.3143075153532 36.93316180870252
  endloop
endfacet
facet normal 0.0 0.0 -1.0
  outer loop
    vertex 434.53080644160684 -316.06530276129524 33.93316180870252
    vertex 427.0375175478303 -351.5143075153531 33.93316180870252
    vertex 427.0375175478303 -316.06530276129524 33.93316180870252
  endloop
endfacet
facet normal 0.0 0.0 -1.0
  outer loop
    vertex 427.0375175478303 -351.5143075153531 33.93316180870252
    vertex 434.53080644160684 -316.06530276129524 33.93316180870252
    vertex 428.8535220818055 -344.59812078516916 33.93316180870253
  endloop
endfacet
facet normal 0.0 0.0 -1.0
  outer loop
    vertex 427.0375175478303 -351.5143075153531 33.93316180870252
    vertex 428.8535220818055 -344.59812078516916 33.93316180870253
    vertex 428.7853737343837 -345.11575887537424 33.93316180870253
  endloop
endfacet
facet normal 0.0 0.0 -1.0
  outer loop
    vertex 428.8535220818055 -344.59812078516916 33.93316180870253
    vertex 434.53080644160684 -316.06530276129524 33.93316180870252
    vertex 429.0533229268148 -344.1157588753743 33.93316180870253
  endloop
endfacet
facet normal 0.0 0.0 -1.0
  outer loop
    vertex 429.0533229268148 -344.1157588753743 33.93316180870253
    vertex 434.53080644160684 -316.06530276129524 33.93316180870252
    vertex 429.3711601720106 -343.701545313001 33.93316180870253
  endloop
endfacet
facet normal 0.0 0.0 -1.0
  outer loop
    vertex 429.3711601720106 -343.701545313001 33.93316180870253
    vertex 434.53080644160684 -316.06530276129524 33.93316180870252
    vertex 429.7853737343837 -343.3837080678053 33.93316180870253
  endloop
endfacet
facet normal 0.0 0.0 -1.0
  outer loop
    vertex 429.7853737343837 -343.3837080678053 33.93316180870253
    vertex 434.53080644160684 -316.06530276129524 33.93316180870252
    vertex 430.2677356441787 -343.183907222796 33.93316180870253
  endloop
endfacet
facet normal 0.0 0.0 -1.0
  outer loop
    vertex 430.2677356441787 -343.183907222796 33.93316180870253
    vertex 434.53080644160684 -316.06530276129524 33.93316180870252
    vertex 430.78537373438377 -343.1157588753741 33.93316180870253
  endloop
endfacet
facet normal 0.0 0.0 -1.0
  outer loop
    vertex 430.78537373438377 -343.1157588753741 33.93316180870253
    vertex 434.53080644160684 -316.06530276129524 33.93316180870252
    vertex 431.30301182458885 -343.183907222796 33.93316180870253
  endloop
endfacet
facet normal 0.0 0.0 -1.0
  outer loop
    vertex 431.30301182458885 -343.183907222796 33.93316180870253
    vertex 434.53080644160684 -316.06530276129524 33.93316180870252
    vertex 431.7853737343838 -343.3837080678053 33.93316180870253
  endloop
endfacet
facet normal 0.0 0.0 -1.0
  outer loop
    vertex 431.7853737343838 -343.3837080678053 33.93316180870253
    vertex 434.53080644160684 -316.06530276129524 33.93316180870252
    vertex 432.199587296757 -343.701545313001 33.93316180870253
  endloop
endfacet
facet normal 0.0 0.0 -1.0
  outer loop
    vertex 432.199587296757 -343.701545313001 33.93316180870253
    vertex 434.53080644160684 -316.06530276129524 33.93316180870252
    vertex 432.5174245419527 -344.1157588753741 33.93316180870253
  endloop
endfacet
facet normal 0.0 0.0 -1.0
  outer loop
    vertex 432.5174245419527 -344.1157588753741 33.93316180870253
    vertex 434.53080644160684 -316.06530276129524 33.93316180870252
    vertex 432.717225386962 -344.59812078516916 33.93316180870253
  endloop
endfacet
facet normal 0.0 0.0 -1.0
  outer loop
    vertex 432.717225386962 -344.59812078516916 33.93316180870253
    vertex 434.53080644160684 -316.06530276129524 33.93316180870252
    vertex 432.7853737343839 -345.11575887537424 33.93316180870253
  endloop
endfacet
facet normal 0.0 0.0 -1.0
  outer loop
    vertex 427.0375175478303 -351.5143075153531 33.93316180870252
    vertex 428.8535220818055 -345.6333969655793 33.93316180870253
    vertex 431.0441352220753 -351.5143075153531 33.93316180870252
  endloop
endfacet
facet normal 0.0 0.0 -1.0
  outer loop
    vertex 428.8535220818055 -345.6333969655793 33.93316180870253
    vertex 427.0375175478303 -351.5143075153531 33.93316180870252
    vertex 428.7853737343837 -345.11575887537424 33.93316180870253
  endloop
endfacet
facet normal 0.0 0.0 -1.0
  outer loop
    vertex 431.0441352220753 -351.5143075153531 33.93316180870252
    vertex 428.8535220818055 -345.6333969655793 33.93316180870253
    vertex 429.0533229268148 -346.11575887537435 33.93316180870253
  endloop
endfacet
facet normal 0.0 0.0 -1.0
  outer loop
    vertex 431.0441352220753 -351.5143075153531 33.93316180870252
    vertex 429.0533229268148 -346.11575887537435 33.93316180870253
    vertex 429.3711601720106 -346.5299724377474 33.93316180870253
  endloop
endfacet
facet normal 0.0 0.0 -1.0
  outer loop
    vertex 431.0441352220753 -351.5143075153531 33.93316180870252
    vertex 429.3711601720106 -346.5299724377474 33.93316180870253
    vertex 429.7853737343837 -346.8478096829432 33.93316180870253
  endloop
endfacet
facet normal 0.0 0.0 -1.0
  outer loop
    vertex 431.0441352220753 -351.5143075153531 33.93316180870252
    vertex 429.7853737343837 -346.8478096829432 33.93316180870253
    vertex 430.2677356441787 -347.0476105279525 33.93316180870253
  endloop
endfacet
facet normal 0.0 0.0 -1.0
  outer loop
    vertex 431.0441352220753 -351.5143075153531 33.93316180870252
    vertex 430.2677356441787 -347.0476105279525 33.93316180870253
    vertex 430.78537373438377 -347.1157588753743 33.93316180870253
  endloop
endfacet
facet normal 0.0 0.0 -1.0
  outer loop
    vertex 431.0441352220753 -351.5143075153531 33.93316180870252
    vertex 430.78537373438377 -347.1157588753743 33.93316180870253
    vertex 431.30301182458885 -347.0476105279525 33.93316180870253
  endloop
endfacet
facet normal 0.0 0.0 -1.0
  outer loop
    vertex 431.0441352220753 -351.5143075153531 33.93316180870252
    vertex 431.30301182458885 -347.0476105279525 33.93316180870253
    vertex 434.53080644160684 -348.7209023983324 33.93316180870252
  endloop
endfacet
facet normal 0.0 0.0 -1.0
  outer loop
    vertex 434.53080644160684 -348.7209023983324 33.93316180870252
    vertex 431.30301182458885 -347.0476105279525 33.93316180870253
    vertex 431.7853737343838 -346.8478096829432 33.93316180870253
  endloop
endfacet
facet normal 0.0 0.0 -1.0
  outer loop
    vertex 434.53080644160684 -348.7209023983324 33.93316180870252
    vertex 431.7853737343838 -346.8478096829432 33.93316180870253
    vertex 432.199587296757 -346.5299724377474 33.93316180870253
  endloop
endfacet
facet normal 0.0 0.0 -1.0
  outer loop
    vertex 434.53080644160684 -348.7209023983324 33.93316180870252
    vertex 432.199587296757 -346.5299724377474 33.93316180870253
    vertex 432.5174245419527 -346.1157588753742 33.93316180870253
  endloop
endfacet
facet normal 0.0 0.0 -1.0
  outer loop
    vertex 434.53080644160684 -348.7209023983324 33.93316180870252
    vertex 432.5174245419527 -346.1157588753742 33.93316180870253
    vertex 432.717225386962 -345.6333969655793 33.93316180870253
  endloop
endfacet
facet normal 0.0 0.0 -1.0
  outer loop
    vertex 434.53080644160684 -348.7209023983324 33.93316180870252
    vertex 432.717225386962 -345.6333969655793 33.93316180870253
    vertex 432.7853737343839 -345.11575887537424 33.93316180870253
  endloop
endfacet
facet normal 0.0 0.0 -1.0
  outer loop
    vertex 434.53080644160684 -348.7209023983324 33.93316180870252
    vertex 432.7853737343839 -345.11575887537424 33.93316180870253
    vertex 434.53080644160684 -316.06530276129524 33.93316180870252
  endloop
endfacet
facet normal 0.0 0.0 -1.0
  outer loop
    vertex 434.53080644160684 -348.7209023983324 33.93316180870252
    vertex 434.53080644160684 -316.06530276129524 33.93316180870252
    vertex 434.53080644160684 -338.3143075153532 33.93316180870252
  endloop
endfacet
facet normal 1.0 0.0 0.0
  outer loop
    vertex 434.53080644160684 -316.06530276129524 33.93316180870252
    vertex 434.53080644160684 -338.3143075153532 36.93316180870252
    vertex 434.53080644160684 -338.3143075153532 33.93316180870252
  endloop
endfacet
facet normal 1.0 0.0 0.0
  outer loop
    vertex 434.53080644160684 -338.3143075153532 36.93316180870252
    vertex 434.53080644160684 -316.06530276129524 33.93316180870252
    vertex 434.53080644160684 -316.06530276129524 36.93316180870252
  endloop
endfacet
facet normal 0.0 -1.0 0.0
  outer loop
    vertex 431.0441352220753 -351.5143075153531 36.93316180870252
    vertex 427.0375175478303 -351.5143075153531 33.93316180870252
    vertex 431.0441352220753 -351.5143075153531 33.93316180870252
  endloop
endfacet
facet normal 0.0 -1.0 0.0
  outer loop
    vertex 427.0375175478303 -351.5143075153531 33.93316180870252
    vertex 431.0441352220753 -351.5143075153531 36.93316180870252
    vertex 427.0375175478303 -351.5143075153531 36.93316180870252
  endloop
endfacet
facet normal 0.0 1.0 0.0
  outer loop
    vertex 427.0375175478303 -316.06530276129524 36.93316180870252
    vertex 434.53080644160684 -316.06530276129524 33.93316180870252
    vertex 427.0375175478303 -316.06530276129524 33.93316180870252
  endloop
endfacet
facet normal 0.0 1.0 0.0
  outer loop
    vertex 434.53080644160684 -316.06530276129524 33.93316180870252
    vertex 427.0375175478303 -316.06530276129524 36.93316180870252
    vertex 434.53080644160684 -316.06530276129524 36.93316180870252
  endloop
endfacet
facet normal -1.0 0.0 0.0
  outer loop
    vertex 427.0375175478303 -316.06530276129524 36.93316180870252
    vertex 427.0375175478303 -351.5143075153531 33.93316180870252
    vertex 427.0375175478303 -351.5143075153531 36.93316180870252
  endloop
endfacet
facet normal -1.0 0.0 0.0
  outer loop
    vertex 427.0375175478303 -351.5143075153531 33.93316180870252
    vertex 427.0375175478303 -316.06530276129524 36.93316180870252
    vertex 427.0375175478303 -316.06530276129524 33.93316180870252
  endloop
endfacet
facet normal 0.0 0.0 1.0
  outer loop
    vertex 431.0441352220753 -351.5143075153531 36.93316180870252
    vertex 427.0375175478303 -316.06530276129524 36.93316180870252
    vertex 427.0375175478303 -351.5143075153531 36.93316180870252
  endloop
endfacet
facet normal 0.0 0.0 1.0
  outer loop
    vertex 427.0375175478303 -316.06530276129524 36.93316180870252
    vertex 431.0441352220753 -351.5143075153531 36.93316180870252
    vertex 434.53080644160684 -316.06530276129524 36.93316180870252
  endloop
endfacet
facet normal 0.0 0.0 1.0
  outer loop
    vertex 434.53080644160684 -316.06530276129524 36.93316180870252
    vertex 431.0441352220753 -351.5143075153531 36.93316180870252
    vertex 434.53080644160684 -348.7209023983324 36.93316180870252
  endloop
endfacet
facet normal 0.0 0.0 1.0
  outer loop
    vertex 434.53080644160684 -316.06530276129524 36.93316180870252
    vertex 434.53080644160684 -348.7209023983324 36.93316180870252
    vertex 434.53080644160684 -338.3143075153532 36.93316180870252
  endloop
endfacet
facet normal 0.0 0.0 -1.0
  outer loop
    vertex 428.8535220818055 -344.59812078516916 30.93316180870251
    vertex 428.8535220818055 -345.6333969655793 30.93316180870251
    vertex 428.7853737343837 -345.11575887537424 30.93316180870251
  endloop
endfacet
facet normal 0.0 0.0 -1.0
  outer loop
    vertex 428.8535220818055 -345.6333969655793 30.93316180870251
    vertex 428.8535220818055 -344.59812078516916 30.93316180870251
    vertex 429.0533229268148 -344.1157588753743 30.93316180870251
  endloop
endfacet
facet normal 0.0 0.0 -1.0
  outer loop
    vertex 428.8535220818055 -345.6333969655793 30.93316180870251
    vertex 429.0533229268148 -344.1157588753743 30.93316180870251
    vertex 429.0533229268148 -346.11575887537435 30.93316180870251
  endloop
endfacet
facet normal 0.0 0.0 -1.0
  outer loop
    vertex 429.0533229268148 -346.11575887537435 30.93316180870251
    vertex 429.0533229268148 -344.1157588753743 30.93316180870251
    vertex 429.3711601720106 -343.701545313001 30.93316180870251
  endloop
endfacet
facet normal 0.0 0.0 -1.0
  outer loop
    vertex 429.0533229268148 -346.11575887537435 30.93316180870251
    vertex 429.3711601720106 -343.701545313001 30.93316180870251
    vertex 429.3711601720106 -346.5299724377474 30.93316180870251
  endloop
endfacet
facet normal 0.0 0.0 -1.0
  outer loop
    vertex 429.3711601720106 -346.5299724377474 30.93316180870251
    vertex 429.3711601720106 -343.701545313001 30.93316180870251
    vertex 429.7853737343837 -343.3837080678053 30.93316180870251
  endloop
endfacet
facet normal 0.0 0.0 -1.0
  outer loop
    vertex 429.3711601720106 -346.5299724377474 30.93316180870251
    vertex 429.7853737343837 -343.3837080678053 30.93316180870251
    vertex 429.7853737343837 -346.8478096829432 30.93316180870251
  endloop
endfacet
facet normal 0.0 0.0 -1.0
  outer loop
    vertex 429.7853737343837 -346.8478096829432 30.93316180870251
    vertex 429.7853737343837 -343.3837080678053 30.93316180870251
    vertex 430.2677356441787 -343.183907222796 30.93316180870251
  endloop
endfacet
facet normal 0.0 0.0 -1.0
  outer loop
    vertex 429.7853737343837 -346.8478096829432 30.93316180870251
    vertex 430.2677356441787 -343.183907222796 30.93316180870251
    vertex 430.2677356441787 -347.0476105279525 30.93316180870251
  endloop
endfacet
facet normal 0.0 0.0 -1.0
  outer loop
    vertex 430.2677356441787 -347.0476105279525 30.93316180870251
    vertex 430.2677356441787 -343.183907222796 30.93316180870251
    vertex 430.78537373438377 -343.1157588753741 30.93316180870251
  endloop
endfacet
facet normal 0.0 0.0 -1.0
  outer loop
    vertex 430.2677356441787 -347.0476105279525 30.93316180870251
    vertex 430.78537373438377 -343.1157588753741 30.93316180870251
    vertex 430.78537373438377 -347.1157588753743 30.93316180870251
  endloop
endfacet
facet normal 0.0 0.0 -1.0
  outer loop
    vertex 430.78537373438377 -347.1157588753743 30.93316180870251
    vertex 430.78537373438377 -343.1157588753741 30.93316180870251
    vertex 431.30301182458885 -343.183907222796 30.93316180870251
  endloop
endfacet
facet normal 0.0 0.0 -1.0
  outer loop
    vertex 430.78537373438377 -347.1157588753743 30.93316180870251
    vertex 431.30301182458885 -343.183907222796 30.93316180870251
    vertex 431.30301182458885 -347.0476105279525 30.93316180870251
  endloop
endfacet
facet normal 0.0 0.0 -1.0
  outer loop
    vertex 431.30301182458885 -347.0476105279525 30.93316180870251
    vertex 431.30301182458885 -343.183907222796 30.93316180870251
    vertex 431.7853737343838 -343.3837080678053 30.93316180870251
  endloop
endfacet
facet normal 0.0 0.0 -1.0
  outer loop
    vertex 431.30301182458885 -347.0476105279525 30.93316180870251
    vertex 431.7853737343838 -343.3837080678053 30.93316180870251
    vertex 431.7853737343838 -346.8478096829432 30.93316180870251
  endloop
endfacet
facet normal 0.0 0.0 -1.0
  outer loop
    vertex 431.7853737343838 -346.8478096829432 30.93316180870251
    vertex 431.7853737343838 -343.3837080678053 30.93316180870251
    vertex 432.199587296757 -343.701545313001 30.93316180870251
  endloop
endfacet
facet normal 0.0 0.0 -1.0
  outer loop
    vertex 431.7853737343838 -346.8478096829432 30.93316180870251
    vertex 432.199587296757 -343.701545313001 30.93316180870251
    vertex 432.199587296757 -346.5299724377474 30.93316180870251
  endloop
endfacet
facet normal 0.0 0.0 -1.0
  outer loop
    vertex 432.199587296757 -346.5299724377474 30.93316180870251
    vertex 432.199587296757 -343.701545313001 30.93316180870251
    vertex 432.5174245419527 -344.1157588753741 30.93316180870251
  endloop
endfacet
facet normal 0.0 0.0 -1.0
  outer loop
    vertex 432.199587296757 -346.5299724377474 30.93316180870251
    vertex 432.5174245419527 -344.1157588753741 30.93316180870251
    vertex 432.5174245419527 -346.1157588753742 30.93316180870251
  endloop
endfacet
facet normal 0.0 0.0 -1.0
  outer loop
    vertex 432.5174245419527 -346.1157588753742 30.93316180870251
    vertex 432.5174245419527 -344.1157588753741 30.93316180870251
    vertex 432.717225386962 -344.59812078516916 30.93316180870251
  endloop
endfacet
facet normal 0.0 0.0 -1.0
  outer loop
    vertex 432.5174245419527 -346.1157588753742 30.93316180870251
    vertex 432.717225386962 -344.59812078516916 30.93316180870251
    vertex 432.717225386962 -345.6333969655793 30.93316180870251
  endloop
endfacet
facet normal 0.0 0.0 -1.0
  outer loop
    vertex 432.717225386962 -345.6333969655793 30.93316180870251
    vertex 432.717225386962 -344.59812078516916 30.93316180870251
    vertex 432.7853737343839 -345.11575887537424 30.93316180870251
  endloop
endfacet
facet normal 0.923879532511239 -0.3826834323652056 0.0
  outer loop
    vertex 432.717225386962 -345.6333969655793 30.93316180870251
    vertex 432.5174245419527 -346.1157588753742 33.93316180870253
    vertex 432.5174245419527 -346.1157588753742 30.93316180870251
  endloop
endfacet
facet normal 0.923879532511239 -0.3826834323652056 0.0
  outer loop
    vertex 432.5174245419527 -346.1157588753742 33.93316180870253
    vertex 432.717225386962 -345.6333969655793 30.93316180870251
    vertex 432.717225386962 -345.6333969655793 33.93316180870253
  endloop
endfacet
facet normal 0.9914448613738197 -0.13052619221998144 0.0
  outer loop
    vertex 432.7853737343839 -345.11575887537424 30.93316180870251
    vertex 432.717225386962 -345.6333969655793 33.93316180870253
    vertex 432.717225386962 -345.6333969655793 30.93316180870251
  endloop
endfacet
facet normal 0.9914448613738197 -0.13052619221998144 0.0
  outer loop
    vertex 432.717225386962 -345.6333969655793 33.93316180870253
    vertex 432.7853737343839 -345.11575887537424 30.93316180870251
    vertex 432.7853737343839 -345.11575887537424 33.93316180870253
  endloop
endfacet
facet normal 0.9914448613738197 0.13052619221998144 0.0
  outer loop
    vertex 432.717225386962 -344.59812078516916 30.93316180870251
    vertex 432.7853737343839 -345.11575887537424 33.93316180870253
    vertex 432.7853737343839 -345.11575887537424 30.93316180870251
  endloop
endfacet
facet normal 0.9914448613738197 0.13052619221998144 0.0
  outer loop
    vertex 432.7853737343839 -345.11575887537424 33.93316180870253
    vertex 432.717225386962 -344.59812078516916 30.93316180870251
    vertex 432.717225386962 -344.59812078516916 33.93316180870253
  endloop
endfacet
facet normal 0.9238795325112895 0.38268343236508334 0.0
  outer loop
    vertex 432.5174245419527 -344.1157588753741 30.93316180870251
    vertex 432.717225386962 -344.59812078516916 33.93316180870253
    vertex 432.717225386962 -344.59812078516916 30.93316180870251
  endloop
endfacet
facet normal 0.9238795325112895 0.38268343236508334 0.0
  outer loop
    vertex 432.717225386962 -344.59812078516916 33.93316180870253
    vertex 432.5174245419527 -344.1157588753741 30.93316180870251
    vertex 432.5174245419527 -344.1157588753741 33.93316180870253
  endloop
endfacet
facet normal 0.7933533402912196 0.6087614290087409 0.0
  outer loop
    vertex 432.199587296757 -343.701545313001 30.93316180870251
    vertex 432.5174245419527 -344.1157588753741 33.93316180870253
    vertex 432.5174245419527 -344.1157588753741 30.93316180870251
  endloop
endfacet
facet normal 0.7933533402912196 0.6087614290087409 0.0
  outer loop
    vertex 432.5174245419527 -344.1157588753741 33.93316180870253
    vertex 432.199587296757 -343.701545313001 30.93316180870251
    vertex 432.199587296757 -343.701545313001 33.93316180870253
  endloop
endfacet
facet normal 0.6087614290086574 0.7933533402912837 0.0
  outer loop
    vertex 431.7853737343838 -343.3837080678053 33.93316180870253
    vertex 432.199587296757 -343.701545313001 30.93316180870251
    vertex 431.7853737343838 -343.3837080678053 30.93316180870251
  endloop
endfacet
facet normal 0.6087614290086574 0.7933533402912837 0.0
  outer loop
    vertex 432.199587296757 -343.701545313001 30.93316180870251
    vertex 431.7853737343838 -343.3837080678053 33.93316180870253
    vertex 432.199587296757 -343.701545313001 33.93316180870253
  endloop
endfacet
facet normal 0.3826834323651444 0.9238795325112642 0.0
  outer loop
    vertex 431.30301182458885 -343.183907222796 33.93316180870253
    vertex 431.7853737343838 -343.3837080678053 30.93316180870251
    vertex 431.30301182458885 -343.183907222796 30.93316180870251
  endloop
endfacet
facet normal 0.3826834323651444 0.9238795325112642 0.0
  outer loop
    vertex 431.7853737343838 -343.3837080678053 30.93316180870251
    vertex 431.30301182458885 -343.183907222796 33.93316180870253
    vertex 431.7853737343838 -343.3837080678053 33.93316180870253
  endloop
endfacet
facet normal 0.13052619221998144 0.9914448613738197 0.0
  outer loop
    vertex 430.78537373438377 -343.1157588753741 33.93316180870253
    vertex 431.30301182458885 -343.183907222796 30.93316180870251
    vertex 430.78537373438377 -343.1157588753741 30.93316180870251
  endloop
endfacet
facet normal 0.13052619221998144 0.9914448613738197 0.0
  outer loop
    vertex 431.30301182458885 -343.183907222796 30.93316180870251
    vertex 430.78537373438377 -343.1157588753741 33.93316180870253
    vertex 431.30301182458885 -343.183907222796 33.93316180870253
  endloop
endfacet
facet normal -0.13052619221998144 0.9914448613738197 0.0
  outer loop
    vertex 430.2677356441787 -343.183907222796 33.93316180870253
    vertex 430.78537373438377 -343.1157588753741 30.93316180870251
    vertex 430.2677356441787 -343.183907222796 30.93316180870251
  endloop
endfacet
facet normal -0.13052619221998144 0.9914448613738197 0.0
  outer loop
    vertex 430.78537373438377 -343.1157588753741 30.93316180870251
    vertex 430.2677356441787 -343.183907222796 33.93316180870253
    vertex 430.78537373438377 -343.1157588753741 33.93316180870253
  endloop
endfacet
facet normal -0.3826834323651444 0.9238795325112642 0.0
  outer loop
    vertex 429.7853737343837 -343.3837080678053 33.93316180870253
    vertex 430.2677356441787 -343.183907222796 30.93316180870251
    vertex 429.7853737343837 -343.3837080678053 30.93316180870251
  endloop
endfacet
facet normal -0.3826834323651444 0.9238795325112642 0.0
  outer loop
    vertex 430.2677356441787 -343.183907222796 30.93316180870251
    vertex 429.7853737343837 -343.3837080678053 33.93316180870253
    vertex 430.2677356441787 -343.183907222796 33.93316180870253
  endloop
endfacet
facet normal -0.6087614290086574 0.7933533402912837 0.0
  outer loop
    vertex 429.3711601720106 -343.701545313001 33.93316180870253
    vertex 429.7853737343837 -343.3837080678053 30.93316180870251
    vertex 429.3711601720106 -343.701545313001 30.93316180870251
  endloop
endfacet
facet normal -0.6087614290086574 0.7933533402912837 0.0
  outer loop
    vertex 429.7853737343837 -343.3837080678053 30.93316180870251
    vertex 429.3711601720106 -343.701545313001 33.93316180870253
    vertex 429.7853737343837 -343.3837080678053 33.93316180870253
  endloop
endfacet
facet normal -0.7933533402913477 0.6087614290085739 0.0
  outer loop
    vertex 429.3711601720106 -343.701545313001 33.93316180870253
    vertex 429.0533229268148 -344.1157588753743 30.93316180870251
    vertex 429.0533229268148 -344.1157588753743 33.93316180870253
  endloop
endfacet
facet normal -0.7933533402913477 0.6087614290085739 0.0
  outer loop
    vertex 429.0533229268148 -344.1157588753743 30.93316180870251
    vertex 429.3711601720106 -343.701545313001 33.93316180870253
    vertex 429.3711601720106 -343.701545313001 30.93316180870251
  endloop
endfacet
facet normal -0.923879532511239 0.3826834323652056 0.0
  outer loop
    vertex 429.0533229268148 -344.1157588753743 33.93316180870253
    vertex 428.8535220818055 -344.59812078516916 30.93316180870251
    vertex 428.8535220818055 -344.59812078516916 33.93316180870253
  endloop
endfacet
facet normal -0.923879532511239 0.3826834323652056 0.0
  outer loop
    vertex 428.8535220818055 -344.59812078516916 30.93316180870251
    vertex 429.0533229268148 -344.1157588753743 33.93316180870253
    vertex 429.0533229268148 -344.1157588753743 30.93316180870251
  endloop
endfacet
facet normal -0.9914448613738197 0.13052619221998144 0.0
  outer loop
    vertex 428.8535220818055 -344.59812078516916 33.93316180870253
    vertex 428.7853737343837 -345.11575887537424 30.93316180870251
    vertex 428.7853737343837 -345.11575887537424 33.93316180870253
  endloop
endfacet
facet normal -0.9914448613738197 0.13052619221998144 0.0
  outer loop
    vertex 428.7853737343837 -345.11575887537424 30.93316180870251
    vertex 428.8535220818055 -344.59812078516916 33.93316180870253
    vertex 428.8535220818055 -344.59812078516916 30.93316180870251
  endloop
endfacet
facet normal -0.9914448613738197 -0.13052619221998144 0.0
  outer loop
    vertex 428.7853737343837 -345.11575887537424 33.93316180870253
    vertex 428.8535220818055 -345.6333969655793 30.93316180870251
    vertex 428.8535220818055 -345.6333969655793 33.93316180870253
  endloop
endfacet
facet normal -0.9914448613738197 -0.13052619221998144 0.0
  outer loop
    vertex 428.8535220818055 -345.6333969655793 30.93316180870251
    vertex 428.7853737343837 -345.11575887537424 33.93316180870253
    vertex 428.7853737343837 -345.11575887537424 30.93316180870251
  endloop
endfacet
facet normal -0.9238795325112895 -0.38268343236508334 0.0
  outer loop
    vertex 428.8535220818055 -345.6333969655793 33.93316180870253
    vertex 429.0533229268148 -346.11575887537435 30.93316180870251
    vertex 429.0533229268148 -346.11575887537435 33.93316180870253
  endloop
endfacet
facet normal -0.9238795325112895 -0.38268343236508334 0.0
  outer loop
    vertex 429.0533229268148 -346.11575887537435 30.93316180870251
    vertex 428.8535220818055 -345.6333969655793 33.93316180870253
    vertex 428.8535220818055 -345.6333969655793 30.93316180870251
  endloop
endfacet
facet normal -0.7933533402912196 -0.6087614290087409 0.0
  outer loop
    vertex 429.0533229268148 -346.11575887537435 33.93316180870253
    vertex 429.3711601720106 -346.5299724377474 30.93316180870251
    vertex 429.3711601720106 -346.5299724377474 33.93316180870253
  endloop
endfacet
facet normal -0.7933533402912196 -0.6087614290087409 0.0
  outer loop
    vertex 429.3711601720106 -346.5299724377474 30.93316180870251
    vertex 429.0533229268148 -346.11575887537435 33.93316180870253
    vertex 429.0533229268148 -346.11575887537435 30.93316180870251
  endloop
endfacet
facet normal -0.6087614290086574 -0.7933533402912837 0.0
  outer loop
    vertex 429.7853737343837 -346.8478096829432 33.93316180870253
    vertex 429.3711601720106 -346.5299724377474 30.93316180870251
    vertex 429.7853737343837 -346.8478096829432 30.93316180870251
  endloop
endfacet
facet normal -0.6087614290086574 -0.7933533402912837 0.0
  outer loop
    vertex 429.3711601720106 -346.5299724377474 30.93316180870251
    vertex 429.7853737343837 -346.8478096829432 33.93316180870253
    vertex 429.3711601720106 -346.5299724377474 33.93316180870253
  endloop
endfacet
facet normal -0.3826834323651444 -0.9238795325112642 0.0
  outer loop
    vertex 430.2677356441787 -347.0476105279525 33.93316180870253
    vertex 429.7853737343837 -346.8478096829432 30.93316180870251
    vertex 430.2677356441787 -347.0476105279525 30.93316180870251
  endloop
endfacet
facet normal -0.3826834323651444 -0.9238795325112642 0.0
  outer loop
    vertex 429.7853737343837 -346.8478096829432 30.93316180870251
    vertex 430.2677356441787 -347.0476105279525 33.93316180870253
    vertex 429.7853737343837 -346.8478096829432 33.93316180870253
  endloop
endfacet
facet normal -0.13052619221998144 -0.9914448613738197 0.0
  outer loop
    vertex 430.78537373438377 -347.1157588753743 33.93316180870253
    vertex 430.2677356441787 -347.0476105279525 30.93316180870251
    vertex 430.78537373438377 -347.1157588753743 30.93316180870251
  endloop
endfacet
facet normal -0.13052619221998144 -0.9914448613738197 0.0
  outer loop
    vertex 430.2677356441787 -347.0476105279525 30.93316180870251
    vertex 430.78537373438377 -347.1157588753743 33.93316180870253
    vertex 430.2677356441787 -347.0476105279525 33.93316180870253
  endloop
endfacet
facet normal 0.13052619221998144 -0.9914448613738197 0.0
  outer loop
    vertex 431.30301182458885 -347.0476105279525 33.93316180870253
    vertex 430.78537373438377 -347.1157588753743 30.93316180870251
    vertex 431.30301182458885 -347.0476105279525 30.93316180870251
  endloop
endfacet
facet normal 0.13052619221998144 -0.9914448613738197 0.0
  outer loop
    vertex 430.78537373438377 -347.1157588753743 30.93316180870251
    vertex 431.30301182458885 -347.0476105279525 33.93316180870253
    vertex 430.78537373438377 -347.1157588753743 33.93316180870253
  endloop
endfacet
facet normal 0.3826834323651444 -0.9238795325112642 0.0
  outer loop
    vertex 431.7853737343838 -346.8478096829432 33.93316180870253
    vertex 431.30301182458885 -347.0476105279525 30.93316180870251
    vertex 431.7853737343838 -346.8478096829432 30.93316180870251
  endloop
endfacet
facet normal 0.3826834323651444 -0.9238795325112642 0.0
  outer loop
    vertex 431.30301182458885 -347.0476105279525 30.93316180870251
    vertex 431.7853737343838 -346.8478096829432 33.93316180870253
    vertex 431.30301182458885 -347.0476105279525 33.93316180870253
  endloop
endfacet
facet normal 0.6087614290086574 -0.7933533402912837 0.0
  outer loop
    vertex 432.199587296757 -346.5299724377474 33.93316180870253
    vertex 431.7853737343838 -346.8478096829432 30.93316180870251
    vertex 432.199587296757 -346.5299724377474 30.93316180870251
  endloop
endfacet
facet normal 0.6087614290086574 -0.7933533402912837 0.0
  outer loop
    vertex 431.7853737343838 -346.8478096829432 30.93316180870251
    vertex 432.199587296757 -346.5299724377474 33.93316180870253
    vertex 431.7853737343838 -346.8478096829432 33.93316180870253
  endloop
endfacet
facet normal 0.7933533402913477 -0.6087614290085739 0.0
  outer loop
    vertex 432.5174245419527 -346.1157588753742 30.93316180870251
    vertex 432.199587296757 -346.5299724377474 33.93316180870253
    vertex 432.199587296757 -346.5299724377474 30.93316180870251
  endloop
endfacet
facet normal 0.7933533402913477 -0.6087614290085739 0.0
  outer loop
    vertex 432.199587296757 -346.5299724377474 33.93316180870253
    vertex 432.5174245419527 -346.1157588753742 30.93316180870251
    vertex 432.5174245419527 -346.1157588753742 33.93316180870253
  endloop
endfacet
facet normal 0.6252501185207804 -0.7804244289421943 0.0
  outer loop
    vertex 434.53080644160684 -348.7209023983324 36.93316180870252
    vertex 431.0441352220753 -351.5143075153531 33.93316180870252
    vertex 434.53080644160684 -348.7209023983324 33.93316180870252
  endloop
endfacet
facet normal 0.6252501185207804 -0.7804244289421943 0.0
  outer loop
    vertex 431.0441352220753 -351.5143075153531 33.93316180870252
    vertex 434.53080644160684 -348.7209023983324 36.93316180870252
    vertex 431.0441352220753 -351.5143075153531 36.93316180870252
  endloop
endfacet
facet normal 1.0 0.0 0.0
  outer loop
    vertex 434.53080644160684 -283.4097031242581 33.93316180870252
    vertex 434.53080644160684 -283.4097031242581 36.93316180870252
    vertex 434.53080644160684 -293.81629800723726 33.93316180870252
  endloop
endfacet
facet normal 1.0 0.0 0.0
  outer loop
    vertex 434.53080644160684 -293.81629800723726 36.93316180870252
    vertex 434.53080644160684 -293.81629800723726 33.93316180870252
    vertex 434.53080644160684 -283.4097031242581 36.93316180870252
  endloop
endfacet
facet normal 0.0 0.0 -1.0
  outer loop
    vertex 427.0375175478303 -316.06530276129524 33.93316180870252
    vertex 427.0375175478303 -280.61629800723733 33.93316180870252
    vertex 434.53080644160684 -316.06530276129524 33.93316180870252
  endloop
endfacet
facet normal 0.0 0.0 -1.0
  outer loop
    vertex 428.8535220818055 -287.53248473742127 33.93316180870253
    vertex 434.53080644160684 -316.06530276129524 33.93316180870252
    vertex 427.0375175478303 -280.61629800723733 33.93316180870252
  endloop
endfacet
facet normal 0.0 0.0 -1.0
  outer loop
    vertex 428.7853737343837 -287.01484664721625 33.93316180870253
    vertex 428.8535220818055 -287.53248473742127 33.93316180870253
    vertex 427.0375175478303 -280.61629800723733 33.93316180870252
  endloop
endfacet
facet normal 0.0 0.0 -1.0
  outer loop
    vertex 429.0533229268148 -288.0148466472162 33.93316180870253
    vertex 434.53080644160684 -316.06530276129524 33.93316180870252
    vertex 428.8535220818055 -287.53248473742127 33.93316180870253
  endloop
endfacet
facet normal 0.0 0.0 -1.0
  outer loop
    vertex 429.3711601720106 -288.4290602095894 33.93316180870253
    vertex 434.53080644160684 -316.06530276129524 33.93316180870252
    vertex 429.0533229268148 -288.0148466472162 33.93316180870253
  endloop
endfacet
facet normal 0.0 0.0 -1.0
  outer loop
    vertex 429.7853737343837 -288.7468974547852 33.93316180870253
    vertex 434.53080644160684 -316.06530276129524 33.93316180870252
    vertex 429.3711601720106 -288.4290602095894 33.93316180870253
  endloop
endfacet
facet normal 0.0 0.0 -1.0
  outer loop
    vertex 430.2677356441787 -288.9466982997945 33.93316180870253
    vertex 434.53080644160684 -316.06530276129524 33.93316180870252
    vertex 429.7853737343837 -288.7468974547852 33.93316180870253
  endloop
endfacet
facet normal 0.0 0.0 -1.0
  outer loop
    vertex 430.78537373438377 -289.0148466472163 33.93316180870253
    vertex 434.53080644160684 -316.06530276129524 33.93316180870252
    vertex 430.2677356441787 -288.9466982997945 33.93316180870253
  endloop
endfacet
facet normal 0.0 0.0 -1.0
  outer loop
    vertex 431.30301182458885 -288.9466982997945 33.93316180870253
    vertex 434.53080644160684 -316.06530276129524 33.93316180870252
    vertex 430.78537373438377 -289.0148466472163 33.93316180870253
  endloop
endfacet
facet normal 0.0 0.0 -1.0
  outer loop
    vertex 431.7853737343838 -288.7468974547852 33.93316180870253
    vertex 434.53080644160684 -316.06530276129524 33.93316180870252
    vertex 431.30301182458885 -288.9466982997945 33.93316180870253
  endloop
endfacet
facet normal 0.0 0.0 -1.0
  outer loop
    vertex 432.199587296757 -288.4290602095894 33.93316180870253
    vertex 434.53080644160684 -316.06530276129524 33.93316180870252
    vertex 431.7853737343838 -288.7468974547852 33.93316180870253
  endloop
endfacet
facet normal 0.0 0.0 -1.0
  outer loop
    vertex 432.5174245419527 -288.01484664721636 33.93316180870253
    vertex 434.53080644160684 -316.06530276129524 33.93316180870252
    vertex 432.199587296757 -288.4290602095894 33.93316180870253
  endloop
endfacet
facet normal 0.0 0.0 -1.0
  outer loop
    vertex 432.717225386962 -287.53248473742127 33.93316180870253
    vertex 434.53080644160684 -316.06530276129524 33.93316180870252
    vertex 432.5174245419527 -288.01484664721636 33.93316180870253
  endloop
endfacet
facet normal 0.0 0.0 -1.0
  outer loop
    vertex 432.7853737343839 -287.01484664721625 33.93316180870253
    vertex 434.53080644160684 -316.06530276129524 33.93316180870252
    vertex 432.717225386962 -287.53248473742127 33.93316180870253
  endloop
endfacet
facet normal 0.0 0.0 -1.0
  outer loop
    vertex 431.0441352220753 -280.61629800723733 33.93316180870252
    vertex 428.8535220818055 -286.49720855701116 33.93316180870253
    vertex 427.0375175478303 -280.61629800723733 33.93316180870252
  endloop
endfacet
facet normal 0.0 0.0 -1.0
  outer loop
    vertex 428.7853737343837 -287.01484664721625 33.93316180870253
    vertex 427.0375175478303 -280.61629800723733 33.93316180870252
    vertex 428.8535220818055 -286.49720855701116 33.93316180870253
  endloop
endfacet
facet normal 0.0 0.0 -1.0
  outer loop
    vertex 429.0533229268148 -286.0148466472161 33.93316180870253
    vertex 428.8535220818055 -286.49720855701116 33.93316180870253
    vertex 431.0441352220753 -280.61629800723733 33.93316180870252
  endloop
endfacet
facet normal 0.0 0.0 -1.0
  outer loop
    vertex 429.3711601720106 -285.600633084843 33.93316180870253
    vertex 429.0533229268148 -286.0148466472161 33.93316180870253
    vertex 431.0441352220753 -280.61629800723733 33.93316180870252
  endloop
endfacet
facet normal 0.0 0.0 -1.0
  outer loop
    vertex 429.7853737343837 -285.2827958396473 33.93316180870253
    vertex 429.3711601720106 -285.600633084843 33.93316180870253
    vertex 431.0441352220753 -280.61629800723733 33.93316180870252
  endloop
endfacet
facet normal 0.0 0.0 -1.0
  outer loop
    vertex 430.2677356441787 -285.08299499463794 33.93316180870253
    vertex 429.7853737343837 -285.2827958396473 33.93316180870253
    vertex 431.0441352220753 -280.61629800723733 33.93316180870252
  endloop
endfacet
facet normal 0.0 0.0 -1.0
  outer loop
    vertex 430.78537373438377 -285.01484664721613 33.93316180870253
    vertex 430.2677356441787 -285.08299499463794 33.93316180870253
    vertex 431.0441352220753 -280.61629800723733 33.93316180870252
  endloop
endfacet
facet normal 0.0 0.0 -1.0
  outer loop
    vertex 431.30301182458885 -285.08299499463794 33.93316180870253
    vertex 430.78537373438377 -285.01484664721613 33.93316180870253
    vertex 431.0441352220753 -280.61629800723733 33.93316180870252
  endloop
endfacet
facet normal 0.0 0.0 -1.0
  outer loop
    vertex 434.53080644160684 -283.4097031242581 33.93316180870252
    vertex 431.30301182458885 -285.08299499463794 33.93316180870253
    vertex 431.0441352220753 -280.61629800723733 33.93316180870252
  endloop
endfacet
facet normal 0.0 0.0 -1.0
  outer loop
    vertex 431.7853737343838 -285.2827958396473 33.93316180870253
    vertex 431.30301182458885 -285.08299499463794 33.93316180870253
    vertex 434.53080644160684 -283.4097031242581 33.93316180870252
  endloop
endfacet
facet normal 0.0 0.0 -1.0
  outer loop
    vertex 432.199587296757 -285.600633084843 33.93316180870253
    vertex 431.7853737343838 -285.2827958396473 33.93316180870253
    vertex 434.53080644160684 -283.4097031242581 33.93316180870252
  endloop
endfacet
facet normal 0.0 0.0 -1.0
  outer loop
    vertex 432.5174245419527 -286.0148466472163 33.93316180870253
    vertex 432.199587296757 -285.600633084843 33.93316180870253
    vertex 434.53080644160684 -283.4097031242581 33.93316180870252
  endloop
endfacet
facet normal 0.0 0.0 -1.0
  outer loop
    vertex 432.717225386962 -286.49720855701116 33.93316180870253
    vertex 432.5174245419527 -286.0148466472163 33.93316180870253
    vertex 434.53080644160684 -283.4097031242581 33.93316180870252
  endloop
endfacet
facet normal 0.0 0.0 -1.0
  outer loop
    vertex 432.7853737343839 -287.01484664721625 33.93316180870253
    vertex 432.717225386962 -286.49720855701116 33.93316180870253
    vertex 434.53080644160684 -283.4097031242581 33.93316180870252
  endloop
endfacet
facet normal 0.0 0.0 -1.0
  outer loop
    vertex 434.53080644160684 -316.06530276129524 33.93316180870252
    vertex 432.7853737343839 -287.01484664721625 33.93316180870253
    vertex 434.53080644160684 -283.4097031242581 33.93316180870252
  endloop
endfacet
facet normal 0.0 0.0 -1.0
  outer loop
    vertex 434.53080644160684 -293.81629800723726 33.93316180870252
    vertex 434.53080644160684 -316.06530276129524 33.93316180870252
    vertex 434.53080644160684 -283.4097031242581 33.93316180870252
  endloop
endfacet
facet normal 1.0 0.0 0.0
  outer loop
    vertex 434.53080644160684 -293.81629800723726 33.93316180870252
    vertex 434.53080644160684 -293.81629800723726 36.93316180870252
    vertex 434.53080644160684 -316.06530276129524 33.93316180870252
  endloop
endfacet
facet normal 1.0 0.0 0.0
  outer loop
    vertex 434.53080644160684 -316.06530276129524 36.93316180870252
    vertex 434.53080644160684 -316.06530276129524 33.93316180870252
    vertex 434.53080644160684 -293.81629800723726 36.93316180870252
  endloop
endfacet
facet normal 0.0 1.0 0.0
  outer loop
    vertex 431.0441352220753 -280.61629800723733 33.93316180870252
    vertex 427.0375175478303 -280.61629800723733 33.93316180870252
    vertex 431.0441352220753 -280.61629800723733 36.93316180870252
  endloop
endfacet
facet normal 0.0 1.0 0.0
  outer loop
    vertex 427.0375175478303 -280.61629800723733 36.93316180870252
    vertex 431.0441352220753 -280.61629800723733 36.93316180870252
    vertex 427.0375175478303 -280.61629800723733 33.93316180870252
  endloop
endfacet
facet normal 0.0 -1.0 0.0
  outer loop
    vertex 427.0375175478303 -316.06530276129524 33.93316180870252
    vertex 434.53080644160684 -316.06530276129524 33.93316180870252
    vertex 427.0375175478303 -316.06530276129524 36.93316180870252
  endloop
endfacet
facet normal 0.0 -1.0 0.0
  outer loop
    vertex 434.53080644160684 -316.06530276129524 36.93316180870252
    vertex 427.0375175478303 -316.06530276129524 36.93316180870252
    vertex 434.53080644160684 -316.06530276129524 33.93316180870252
  endloop
endfacet
facet normal -1.0 0.0 0.0
  outer loop
    vertex 427.0375175478303 -280.61629800723733 36.93316180870252
    vertex 427.0375175478303 -280.61629800723733 33.93316180870252
    vertex 427.0375175478303 -316.06530276129524 36.93316180870252
  endloop
endfacet
facet normal -1.0 0.0 0.0
  outer loop
    vertex 427.0375175478303 -316.06530276129524 33.93316180870252
    vertex 427.0375175478303 -316.06530276129524 36.93316180870252
    vertex 427.0375175478303 -280.61629800723733 33.93316180870252
  endloop
endfacet
facet normal 0.0 0.0 1.0
  outer loop
    vertex 427.0375175478303 -280.61629800723733 36.93316180870252
    vertex 427.0375175478303 -316.06530276129524 36.93316180870252
    vertex 431.0441352220753 -280.61629800723733 36.93316180870252
  endloop
endfacet
facet normal 0.0 0.0 1.0
  outer loop
    vertex 434.53080644160684 -316.06530276129524 36.93316180870252
    vertex 431.0441352220753 -280.61629800723733 36.93316180870252
    vertex 427.0375175478303 -316.06530276129524 36.93316180870252
  endloop
endfacet
facet normal 0.0 0.0 1.0
  outer loop
    vertex 434.53080644160684 -283.4097031242581 36.93316180870252
    vertex 431.0441352220753 -280.61629800723733 36.93316180870252
    vertex 434.53080644160684 -316.06530276129524 36.93316180870252
  endloop
endfacet
facet normal 0.0 0.0 1.0
  outer loop
    vertex 434.53080644160684 -293.81629800723726 36.93316180870252
    vertex 434.53080644160684 -283.4097031242581 36.93316180870252
    vertex 434.53080644160684 -316.06530276129524 36.93316180870252
  endloop
endfacet
facet normal 0.0 0.0 -1.0
  outer loop
    vertex 428.7853737343837 -287.01484664721625 30.93316180870251
    vertex 428.8535220818055 -286.49720855701116 30.93316180870251
    vertex 428.8535220818055 -287.53248473742127 30.93316180870251
  endloop
endfacet
facet normal 0.0 0.0 -1.0
  outer loop
    vertex 429.0533229268148 -288.0148466472162 30.93316180870251
    vertex 428.8535220818055 -287.53248473742127 30.93316180870251
    vertex 428.8535220818055 -286.49720855701116 30.93316180870251
  endloop
endfacet
facet normal 0.0 0.0 -1.0
  outer loop
    vertex 429.0533229268148 -286.0148466472161 30.93316180870251
    vertex 429.0533229268148 -288.0148466472162 30.93316180870251
    vertex 428.8535220818055 -286.49720855701116 30.93316180870251
  endloop
endfacet
facet normal 0.0 0.0 -1.0
  outer loop
    vertex 429.3711601720106 -288.4290602095894 30.93316180870251
    vertex 429.0533229268148 -288.0148466472162 30.93316180870251
    vertex 429.0533229268148 -286.0148466472161 30.93316180870251
  endloop
endfacet
facet normal 0.0 0.0 -1.0
  outer loop
    vertex 429.3711601720106 -285.600633084843 30.93316180870251
    vertex 429.3711601720106 -288.4290602095894 30.93316180870251
    vertex 429.0533229268148 -286.0148466472161 30.93316180870251
  endloop
endfacet
facet normal 0.0 0.0 -1.0
  outer loop
    vertex 429.7853737343837 -288.7468974547852 30.93316180870251
    vertex 429.3711601720106 -288.4290602095894 30.93316180870251
    vertex 429.3711601720106 -285.600633084843 30.93316180870251
  endloop
endfacet
facet normal 0.0 0.0 -1.0
  outer loop
    vertex 429.7853737343837 -285.2827958396473 30.93316180870251
    vertex 429.7853737343837 -288.7468974547852 30.93316180870251
    vertex 429.3711601720106 -285.600633084843 30.93316180870251
  endloop
endfacet
facet normal 0.0 0.0 -1.0
  outer loop
    vertex 430.2677356441787 -288.9466982997945 30.93316180870251
    vertex 429.7853737343837 -288.7468974547852 30.93316180870251
    vertex 429.7853737343837 -285.2827958396473 30.93316180870251
  endloop
endfacet
facet normal 0.0 0.0 -1.0
  outer loop
    vertex 430.2677356441787 -285.08299499463794 30.93316180870251
    vertex 430.2677356441787 -288.9466982997945 30.93316180870251
    vertex 429.7853737343837 -285.2827958396473 30.93316180870251
  endloop
endfacet
facet normal 0.0 0.0 -1.0
  outer loop
    vertex 430.78537373438377 -289.0148466472163 30.93316180870251
    vertex 430.2677356441787 -288.9466982997945 30.93316180870251
    vertex 430.2677356441787 -285.08299499463794 30.93316180870251
  endloop
endfacet
facet normal 0.0 0.0 -1.0
  outer loop
    vertex 430.78537373438377 -285.01484664721613 30.93316180870251
    vertex 430.78537373438377 -289.0148466472163 30.93316180870251
    vertex 430.2677356441787 -285.08299499463794 30.93316180870251
  endloop
endfacet
facet normal 0.0 0.0 -1.0
  outer loop
    vertex 431.30301182458885 -288.9466982997945 30.93316180870251
    vertex 430.78537373438377 -289.0148466472163 30.93316180870251
    vertex 430.78537373438377 -285.01484664721613 30.93316180870251
  endloop
endfacet
facet normal 0.0 0.0 -1.0
  outer loop
    vertex 431.30301182458885 -285.08299499463794 30.93316180870251
    vertex 431.30301182458885 -288.9466982997945 30.93316180870251
    vertex 430.78537373438377 -285.01484664721613 30.93316180870251
  endloop
endfacet
facet normal 0.0 0.0 -1.0
  outer loop
    vertex 431.7853737343838 -288.7468974547852 30.93316180870251
    vertex 431.30301182458885 -288.9466982997945 30.93316180870251
    vertex 431.30301182458885 -285.08299499463794 30.93316180870251
  endloop
endfacet
facet normal 0.0 0.0 -1.0
  outer loop
    vertex 431.7853737343838 -285.2827958396473 30.93316180870251
    vertex 431.7853737343838 -288.7468974547852 30.93316180870251
    vertex 431.30301182458885 -285.08299499463794 30.93316180870251
  endloop
endfacet
facet normal 0.0 0.0 -1.0
  outer loop
    vertex 432.199587296757 -288.4290602095894 30.93316180870251
    vertex 431.7853737343838 -288.7468974547852 30.93316180870251
    vertex 431.7853737343838 -285.2827958396473 30.93316180870251
  endloop
endfacet
facet normal 0.0 0.0 -1.0
  outer loop
    vertex 432.199587296757 -285.600633084843 30.93316180870251
    vertex 432.199587296757 -288.4290602095894 30.93316180870251
    vertex 431.7853737343838 -285.2827958396473 30.93316180870251
  endloop
endfacet
facet normal 0.0 0.0 -1.0
  outer loop
    vertex 432.5174245419527 -288.01484664721636 30.93316180870251
    vertex 432.199587296757 -288.4290602095894 30.93316180870251
    vertex 432.199587296757 -285.600633084843 30.93316180870251
  endloop
endfacet
facet normal 0.0 0.0 -1.0
  outer loop
    vertex 432.5174245419527 -286.0148466472163 30.93316180870251
    vertex 432.5174245419527 -288.01484664721636 30.93316180870251
    vertex 432.199587296757 -285.600633084843 30.93316180870251
  endloop
endfacet
facet normal 0.0 0.0 -1.0
  outer loop
    vertex 432.717225386962 -287.53248473742127 30.93316180870251
    vertex 432.5174245419527 -288.01484664721636 30.93316180870251
    vertex 432.5174245419527 -286.0148466472163 30.93316180870251
  endloop
endfacet
facet normal 0.0 0.0 -1.0
  outer loop
    vertex 432.717225386962 -286.49720855701116 30.93316180870251
    vertex 432.717225386962 -287.53248473742127 30.93316180870251
    vertex 432.5174245419527 -286.0148466472163 30.93316180870251
  endloop
endfacet
facet normal 0.0 0.0 -1.0
  outer loop
    vertex 432.7853737343839 -287.01484664721625 30.93316180870251
    vertex 432.717225386962 -287.53248473742127 30.93316180870251
    vertex 432.717225386962 -286.49720855701116 30.93316180870251
  endloop
endfacet
facet normal 0.923879532511239 0.3826834323652056 0.0
  outer loop
    vertex 432.5174245419527 -286.0148466472163 30.93316180870251
    vertex 432.5174245419527 -286.0148466472163 33.93316180870253
    vertex 432.717225386962 -286.49720855701116 30.93316180870251
  endloop
endfacet
facet normal 0.923879532511239 0.3826834323652056 0.0
  outer loop
    vertex 432.717225386962 -286.49720855701116 33.93316180870253
    vertex 432.717225386962 -286.49720855701116 30.93316180870251
    vertex 432.5174245419527 -286.0148466472163 33.93316180870253
  endloop
endfacet
facet normal 0.9914448613738197 0.13052619221998144 0.0
  outer loop
    vertex 432.717225386962 -286.49720855701116 30.93316180870251
    vertex 432.717225386962 -286.49720855701116 33.93316180870253
    vertex 432.7853737343839 -287.01484664721625 30.93316180870251
  endloop
endfacet
facet normal 0.9914448613738197 0.13052619221998144 0.0
  outer loop
    vertex 432.7853737343839 -287.01484664721625 33.93316180870253
    vertex 432.7853737343839 -287.01484664721625 30.93316180870251
    vertex 432.717225386962 -286.49720855701116 33.93316180870253
  endloop
endfacet
facet normal 0.9914448613738197 -0.13052619221998144 0.0
  outer loop
    vertex 432.7853737343839 -287.01484664721625 30.93316180870251
    vertex 432.7853737343839 -287.01484664721625 33.93316180870253
    vertex 432.717225386962 -287.53248473742127 30.93316180870251
  endloop
endfacet
facet normal 0.9914448613738197 -0.13052619221998144 0.0
  outer loop
    vertex 432.717225386962 -287.53248473742127 33.93316180870253
    vertex 432.717225386962 -287.53248473742127 30.93316180870251
    vertex 432.7853737343839 -287.01484664721625 33.93316180870253
  endloop
endfacet
facet normal 0.9238795325112895 -0.38268343236508334 0.0
  outer loop
    vertex 432.717225386962 -287.53248473742127 30.93316180870251
    vertex 432.717225386962 -287.53248473742127 33.93316180870253
    vertex 432.5174245419527 -288.01484664721636 30.93316180870251
  endloop
endfacet
facet normal 0.9238795325112895 -0.38268343236508334 0.0
  outer loop
    vertex 432.5174245419527 -288.01484664721636 33.93316180870253
    vertex 432.5174245419527 -288.01484664721636 30.93316180870251
    vertex 432.717225386962 -287.53248473742127 33.93316180870253
  endloop
endfacet
facet normal 0.7933533402912196 -0.6087614290087409 0.0
  outer loop
    vertex 432.5174245419527 -288.01484664721636 30.93316180870251
    vertex 432.5174245419527 -288.01484664721636 33.93316180870253
    vertex 432.199587296757 -288.4290602095894 30.93316180870251
  endloop
endfacet
facet normal 0.7933533402912196 -0.6087614290087409 0.0
  outer loop
    vertex 432.199587296757 -288.4290602095894 33.93316180870253
    vertex 432.199587296757 -288.4290602095894 30.93316180870251
    vertex 432.5174245419527 -288.01484664721636 33.93316180870253
  endloop
endfacet
facet normal 0.6087614290086574 -0.7933533402912837 0.0
  outer loop
    vertex 431.7853737343838 -288.7468974547852 30.93316180870251
    vertex 432.199587296757 -288.4290602095894 30.93316180870251
    vertex 431.7853737343838 -288.7468974547852 33.93316180870253
  endloop
endfacet
facet normal 0.6087614290086574 -0.7933533402912837 0.0
  outer loop
    vertex 432.199587296757 -288.4290602095894 33.93316180870253
    vertex 431.7853737343838 -288.7468974547852 33.93316180870253
    vertex 432.199587296757 -288.4290602095894 30.93316180870251
  endloop
endfacet
facet normal 0.3826834323651444 -0.9238795325112642 0.0
  outer loop
    vertex 431.30301182458885 -288.9466982997945 30.93316180870251
    vertex 431.7853737343838 -288.7468974547852 30.93316180870251
    vertex 431.30301182458885 -288.9466982997945 33.93316180870253
  endloop
endfacet
facet normal 0.3826834323651444 -0.9238795325112642 0.0
  outer loop
    vertex 431.7853737343838 -288.7468974547852 33.93316180870253
    vertex 431.30301182458885 -288.9466982997945 33.93316180870253
    vertex 431.7853737343838 -288.7468974547852 30.93316180870251
  endloop
endfacet
facet normal 0.13052619221998144 -0.9914448613738197 0.0
  outer loop
    vertex 430.78537373438377 -289.0148466472163 30.93316180870251
    vertex 431.30301182458885 -288.9466982997945 30.93316180870251
    vertex 430.78537373438377 -289.0148466472163 33.93316180870253
  endloop
endfacet
facet normal 0.13052619221998144 -0.9914448613738197 0.0
  outer loop
    vertex 431.30301182458885 -288.9466982997945 33.93316180870253
    vertex 430.78537373438377 -289.0148466472163 33.93316180870253
    vertex 431.30301182458885 -288.9466982997945 30.93316180870251
  endloop
endfacet
facet normal -0.13052619221998144 -0.9914448613738197 0.0
  outer loop
    vertex 430.2677356441787 -288.9466982997945 30.93316180870251
    vertex 430.78537373438377 -289.0148466472163 30.93316180870251
    vertex 430.2677356441787 -288.9466982997945 33.93316180870253
  endloop
endfacet
facet normal -0.13052619221998144 -0.9914448613738197 0.0
  outer loop
    vertex 430.78537373438377 -289.0148466472163 33.93316180870253
    vertex 430.2677356441787 -288.9466982997945 33.93316180870253
    vertex 430.78537373438377 -289.0148466472163 30.93316180870251
  endloop
endfacet
facet normal -0.3826834323651444 -0.9238795325112642 0.0
  outer loop
    vertex 429.7853737343837 -288.7468974547852 30.93316180870251
    vertex 430.2677356441787 -288.9466982997945 30.93316180870251
    vertex 429.7853737343837 -288.7468974547852 33.93316180870253
  endloop
endfacet
facet normal -0.3826834323651444 -0.9238795325112642 0.0
  outer loop
    vertex 430.2677356441787 -288.9466982997945 33.93316180870253
    vertex 429.7853737343837 -288.7468974547852 33.93316180870253
    vertex 430.2677356441787 -288.9466982997945 30.93316180870251
  endloop
endfacet
facet normal -0.6087614290086574 -0.7933533402912837 0.0
  outer loop
    vertex 429.3711601720106 -288.4290602095894 30.93316180870251
    vertex 429.7853737343837 -288.7468974547852 30.93316180870251
    vertex 429.3711601720106 -288.4290602095894 33.93316180870253
  endloop
endfacet
facet normal -0.6087614290086574 -0.7933533402912837 0.0
  outer loop
    vertex 429.7853737343837 -288.7468974547852 33.93316180870253
    vertex 429.3711601720106 -288.4290602095894 33.93316180870253
    vertex 429.7853737343837 -288.7468974547852 30.93316180870251
  endloop
endfacet
facet normal -0.7933533402913477 -0.6087614290085739 0.0
  outer loop
    vertex 429.0533229268148 -288.0148466472162 33.93316180870253
    vertex 429.0533229268148 -288.0148466472162 30.93316180870251
    vertex 429.3711601720106 -288.4290602095894 33.93316180870253
  endloop
endfacet
facet normal -0.7933533402913477 -0.6087614290085739 0.0
  outer loop
    vertex 429.3711601720106 -288.4290602095894 30.93316180870251
    vertex 429.3711601720106 -288.4290602095894 33.93316180870253
    vertex 429.0533229268148 -288.0148466472162 30.93316180870251
  endloop
endfacet
facet normal -0.923879532511239 -0.3826834323652056 0.0
  outer loop
    vertex 428.8535220818055 -287.53248473742127 33.93316180870253
    vertex 428.8535220818055 -287.53248473742127 30.93316180870251
    vertex 429.0533229268148 -288.0148466472162 33.93316180870253
  endloop
endfacet
facet normal -0.923879532511239 -0.3826834323652056 0.0
  outer loop
    vertex 429.0533229268148 -288.0148466472162 30.93316180870251
    vertex 429.0533229268148 -288.0148466472162 33.93316180870253
    vertex 428.8535220818055 -287.53248473742127 30.93316180870251
  endloop
endfacet
facet normal -0.9914448613738197 -0.13052619221998144 0.0
  outer loop
    vertex 428.7853737343837 -287.01484664721625 33.93316180870253
    vertex 428.7853737343837 -287.01484664721625 30.93316180870251
    vertex 428.8535220818055 -287.53248473742127 33.93316180870253
  endloop
endfacet
facet normal -0.9914448613738197 -0.13052619221998144 0.0
  outer loop
    vertex 428.8535220818055 -287.53248473742127 30.93316180870251
    vertex 428.8535220818055 -287.53248473742127 33.93316180870253
    vertex 428.7853737343837 -287.01484664721625 30.93316180870251
  endloop
endfacet
facet normal -0.9914448613738197 0.13052619221998144 0.0
  outer loop
    vertex 428.8535220818055 -286.49720855701116 33.93316180870253
    vertex 428.8535220818055 -286.49720855701116 30.93316180870251
    vertex 428.7853737343837 -287.01484664721625 33.93316180870253
  endloop
endfacet
facet normal -0.9914448613738197 0.13052619221998144 0.0
  outer loop
    vertex 428.7853737343837 -287.01484664721625 30.93316180870251
    vertex 428.7853737343837 -287.01484664721625 33.93316180870253
    vertex 428.8535220818055 -286.49720855701116 30.93316180870251
  endloop
endfacet
facet normal -0.9238795325112895 0.38268343236508334 0.0
  outer loop
    vertex 429.0533229268148 -286.0148466472161 33.93316180870253
    vertex 429.0533229268148 -286.0148466472161 30.93316180870251
    vertex 428.8535220818055 -286.49720855701116 33.93316180870253
  endloop
endfacet
facet normal -0.9238795325112895 0.38268343236508334 0.0
  outer loop
    vertex 428.8535220818055 -286.49720855701116 30.93316180870251
    vertex 428.8535220818055 -286.49720855701116 33.93316180870253
    vertex 429.0533229268148 -286.0148466472161 30.93316180870251
  endloop
endfacet
facet normal -0.7933533402912196 0.6087614290087409 0.0
  outer loop
    vertex 429.3711601720106 -285.600633084843 33.93316180870253
    vertex 429.3711601720106 -285.600633084843 30.93316180870251
    vertex 429.0533229268148 -286.0148466472161 33.93316180870253
  endloop
endfacet
facet normal -0.7933533402912196 0.6087614290087409 0.0
  outer loop
    vertex 429.0533229268148 -286.0148466472161 30.93316180870251
    vertex 429.0533229268148 -286.0148466472161 33.93316180870253
    vertex 429.3711601720106 -285.600633084843 30.93316180870251
  endloop
endfacet
facet normal -0.6087614290086574 0.7933533402912837 0.0
  outer loop
    vertex 429.7853737343837 -285.2827958396473 30.93316180870251
    vertex 429.3711601720106 -285.600633084843 30.93316180870251
    vertex 429.7853737343837 -285.2827958396473 33.93316180870253
  endloop
endfacet
facet normal -0.6087614290086574 0.7933533402912837 0.0
  outer loop
    vertex 429.3711601720106 -285.600633084843 33.93316180870253
    vertex 429.7853737343837 -285.2827958396473 33.93316180870253
    vertex 429.3711601720106 -285.600633084843 30.93316180870251
  endloop
endfacet
facet normal -0.3826834323651444 0.9238795325112642 0.0
  outer loop
    vertex 430.2677356441787 -285.08299499463794 30.93316180870251
    vertex 429.7853737343837 -285.2827958396473 30.93316180870251
    vertex 430.2677356441787 -285.08299499463794 33.93316180870253
  endloop
endfacet
facet normal -0.3826834323651444 0.9238795325112642 0.0
  outer loop
    vertex 429.7853737343837 -285.2827958396473 33.93316180870253
    vertex 430.2677356441787 -285.08299499463794 33.93316180870253
    vertex 429.7853737343837 -285.2827958396473 30.93316180870251
  endloop
endfacet
facet normal -0.13052619221998144 0.9914448613738197 0.0
  outer loop
    vertex 430.78537373438377 -285.01484664721613 30.93316180870251
    vertex 430.2677356441787 -285.08299499463794 30.93316180870251
    vertex 430.78537373438377 -285.01484664721613 33.93316180870253
  endloop
endfacet
facet normal -0.13052619221998144 0.9914448613738197 0.0
  outer loop
    vertex 430.2677356441787 -285.08299499463794 33.93316180870253
    vertex 430.78537373438377 -285.01484664721613 33.93316180870253
    vertex 430.2677356441787 -285.08299499463794 30.93316180870251
  endloop
endfacet
facet normal 0.13052619221998144 0.9914448613738197 0.0
  outer loop
    vertex 431.30301182458885 -285.08299499463794 30.93316180870251
    vertex 430.78537373438377 -285.01484664721613 30.93316180870251
    vertex 431.30301182458885 -285.08299499463794 33.93316180870253
  endloop
endfacet
facet normal 0.13052619221998144 0.9914448613738197 0.0
  outer loop
    vertex 430.78537373438377 -285.01484664721613 33.93316180870253
    vertex 431.30301182458885 -285.08299499463794 33.93316180870253
    vertex 430.78537373438377 -285.01484664721613 30.93316180870251
  endloop
endfacet
facet normal 0.3826834323651444 0.9238795325112642 0.0
  outer loop
    vertex 431.7853737343838 -285.2827958396473 30.93316180870251
    vertex 431.30301182458885 -285.08299499463794 30.93316180870251
    vertex 431.7853737343838 -285.2827958396473 33.93316180870253
  endloop
endfacet
facet normal 0.3826834323651444 0.9238795325112642 0.0
  outer loop
    vertex 431.30301182458885 -285.08299499463794 33.93316180870253
    vertex 431.7853737343838 -285.2827958396473 33.93316180870253
    vertex 431.30301182458885 -285.08299499463794 30.93316180870251
  endloop
endfacet
facet normal 0.6087614290086574 0.7933533402912837 0.0
  outer loop
    vertex 432.199587296757 -285.600633084843 30.93316180870251
    vertex 431.7853737343838 -285.2827958396473 30.93316180870251
    vertex 432.199587296757 -285.600633084843 33.93316180870253
  endloop
endfacet
facet normal 0.6087614290086574 0.7933533402912837 0.0
  outer loop
    vertex 431.7853737343838 -285.2827958396473 33.93316180870253
    vertex 432.199587296757 -285.600633084843 33.93316180870253
    vertex 431.7853737343838 -285.2827958396473 30.93316180870251
  endloop
endfacet
facet normal 0.7933533402913477 0.6087614290085739 0.0
  outer loop
    vertex 432.199587296757 -285.600633084843 30.93316180870251
    vertex 432.199587296757 -285.600633084843 33.93316180870253
    vertex 432.5174245419527 -286.0148466472163 30.93316180870251
  endloop
endfacet
facet normal 0.7933533402913477 0.6087614290085739 0.0
  outer loop
    vertex 432.5174245419527 -286.0148466472163 33.93316180870253
    vertex 432.5174245419527 -286.0148466472163 30.93316180870251
    vertex 432.199587296757 -285.600633084843 33.93316180870253
  endloop
endfacet
facet normal 0.6252501185207804 0.7804244289421943 0.0
  outer loop
    vertex 434.53080644160684 -283.4097031242581 33.93316180870252
    vertex 431.0441352220753 -280.61629800723733 33.93316180870252
    vertex 434.53080644160684 -283.4097031242581 36.93316180870252
  endloop
endfacet
facet normal 0.6252501185207804 0.7804244289421943 0.0
  outer loop
    vertex 431.0441352220753 -280.61629800723733 36.93316180870252
    vertex 434.53080644160684 -283.4097031242581 36.93316180870252
    vertex 431.0441352220753 -280.61629800723733 33.93316180870252
  endloop
endfacet
endsolid slim_v2_стойка_v2
