solid slim_v2_стойка_v2
facet normal 0.8018654480307783 0.0 -0.5975046470567399
  outer loop
    vertex 378.9865218042777 -337.91430751535324 33.93316180870251
    vertex 379.04752720553756 -351.7143075153531 34.01503250821009
    vertex 378.9865218042777 -351.7143075153531 33.93316180870251
  endloop
endfacet
facet normal 0.8018654480307783 0.0 -0.5975046470567399
  outer loop
    vertex 379.04752720553756 -351.7143075153531 34.01503250821009
    vertex 378.9865218042777 -337.91430751535324 33.93316180870251
    vertex 379.04752720553756 -337.91430751535324 34.01503250821009
  endloop
endfacet
facet normal 1.0 0.0 0.0
  outer loop
    vertex 434.53080644160684 -337.91430751535324 30.93316180870251
    vertex 434.53080644160684 -348.7209023983324 33.93316180870251
    vertex 434.53080644160684 -348.7209023983324 30.93316180870251
  endloop
endfacet
facet normal 1.0 0.0 0.0
  outer loop
    vertex 434.53080644160684 -348.7209023983324 33.93316180870251
    vertex 434.53080644160684 -337.91430751535324 30.93316180870251
    vertex 434.53080644160684 -337.91430751535324 33.93316180870251
  endloop
endfacet
facet normal -0.11652147921528433 0.0 -0.9931881719399815
  outer loop
    vertex 373.8794070558813 -337.91430751535324 30.93316180870251
    vertex 372.31928768030997 -351.7143075153531 31.11619602369816
    vertex 372.31928768030997 -337.91430751535324 31.11619602369816
  endloop
endfacet
facet normal -0.11652147921528433 0.0 -0.9931881719399815
  outer loop
    vertex 372.31928768030997 -351.7143075153531 31.11619602369816
    vertex 373.8794070558813 -337.91430751535324 30.93316180870251
    vertex 373.8794070558813 -351.7143075153531 30.93316180870251
  endloop
endfacet
facet normal -0.36960712036011356 0.0 -0.9291881276572064
  outer loop
    vertex 372.31928768030997 -337.91430751535324 31.11619602369816
    vertex 370.8597008240982 -351.7143075153531 31.69678210608827
    vertex 370.8597008240982 -337.91430751535324 31.69678210608827
  endloop
endfacet
facet normal -0.36960712036011356 0.0 -0.9291881276572064
  outer loop
    vertex 370.8597008240982 -351.7143075153531 31.69678210608827
    vertex 372.31928768030997 -337.91430751535324 31.11619602369816
    vertex 372.31928768030997 -351.7143075153531 31.11619602369816
  endloop
endfacet
facet normal -0.5975046470569227 0.0 -0.801865448030642
  outer loop
    vertex 370.8597008240982 -337.91430751535324 31.69678210608827
    vertex 369.6001149194149 -351.7143075153531 32.63535407382182
    vertex 369.6001149194149 -337.91430751535324 32.63535407382182
  endloop
endfacet
facet normal -0.5975046470569227 0.0 -0.801865448030642
  outer loop
    vertex 369.6001149194149 -351.7143075153531 32.63535407382182
    vertex 370.8597008240982 -337.91430751535324 31.69678210608827
    vertex 370.8597008240982 -351.7143075153531 31.69678210608827
  endloop
endfacet
facet normal -0.7846832194800702 0.0 -0.6198969632659865
  outer loop
    vertex 368.62636866410054 -337.91430751535324 33.867949798361416
    vertex 369.6001149194149 -351.7143075153531 32.63535407382182
    vertex 368.62636866410054 -351.7143075153531 33.867949798361416
  endloop
endfacet
facet normal -0.7846832194800702 0.0 -0.6198969632659865
  outer loop
    vertex 369.6001149194149 -351.7143075153531 32.63535407382182
    vertex 368.62636866410054 -337.91430751535324 33.867949798361416
    vertex 369.6001149194149 -337.91430751535324 32.63535407382182
  endloop
endfacet
facet normal -0.9183869272458857 0.0 -0.3956835248830312
  outer loop
    vertex 368.00482125626297 -337.91430751535324 35.31056991803996
    vertex 368.62636866410054 -351.7143075153531 33.867949798361416
    vertex 368.00482125626297 -351.7143075153531 35.31056991803996
  endloop
endfacet
facet normal -0.9183869272458857 0.0 -0.3956835248830312
  outer loop
    vertex 368.62636866410054 -351.7143075153531 33.867949798361416
    vertex 368.00482125626297 -337.91430751535324 35.31056991803996
    vertex 368.62636866410054 -337.91430751535324 33.867949798361416
  endloop
endfacet
facet normal -0.9895040836260924 0.0 -0.14450490817715195
  outer loop
    vertex 367.77783012459054 -337.91430751535324 36.86490225574462
    vertex 368.00482125626297 -351.7143075153531 35.31056991803996
    vertex 367.77783012459054 -351.7143075153531 36.86490225574462
  endloop
endfacet
facet normal -0.9895040836260924 0.0 -0.14450490817715195
  outer loop
    vertex 368.00482125626297 -351.7143075153531 35.31056991803996
    vertex 367.77783012459054 -337.91430751535324 36.86490225574462
    vertex 368.00482125626297 -337.91430751535324 35.31056991803996
  endloop
endfacet
facet normal -0.9931881719399842 0.0 0.11652147921526168
  outer loop
    vertex 367.9608643395861 -337.91430751535324 38.42502163131569
    vertex 367.77783012459054 -351.7143075153531 36.86490225574462
    vertex 367.9608643395861 -351.7143075153531 38.42502163131569
  endloop
endfacet
facet normal -0.9931881719399842 0.0 0.11652147921526168
  outer loop
    vertex 367.77783012459054 -351.7143075153531 36.86490225574462
    vertex 367.9608643395861 -337.91430751535324 38.42502163131569
    vertex 367.77783012459054 -337.91430751535324 36.86490225574462
  endloop
endfacet
facet normal -0.9291881276572184 0.0 0.36960712036008314
  outer loop
    vertex 368.54145042197626 -337.91430751535324 39.88460848752767
    vertex 367.9608643395861 -351.7143075153531 38.42502163131569
    vertex 368.54145042197626 -351.7143075153531 39.88460848752767
  endloop
endfacet
facet normal -0.9291881276572184 0.0 0.36960712036008314
  outer loop
    vertex 367.9608643395861 -351.7143075153531 38.42502163131569
    vertex 368.54145042197626 -337.91430751535324 39.88460848752767
    vertex 367.9608643395861 -337.91430751535324 38.42502163131569
  endloop
endfacet
facet normal -0.801865448030583 0.0 0.5975046470570019
  outer loop
    vertex 369.4800223897099 -337.91430751535324 41.14419439221085
    vertex 368.54145042197626 -351.7143075153531 39.88460848752767
    vertex 369.4800223897099 -351.7143075153531 41.14419439221085
  endloop
endfacet
facet normal -0.801865448030583 0.0 0.5975046470570019
  outer loop
    vertex 368.54145042197626 -351.7143075153531 39.88460848752767
    vertex 369.4800223897099 -337.91430751535324 41.14419439221085
    vertex 368.54145042197626 -337.91430751535324 39.88460848752767
  endloop
endfacet
facet normal -0.6198969632660365 0.0 0.784683219480031
  outer loop
    vertex 370.7126181142493 -351.7143075153531 42.117940647525195
    vertex 369.4800223897099 -337.91430751535324 41.14419439221085
    vertex 369.4800223897099 -351.7143075153531 41.14419439221085
  endloop
endfacet
facet normal -0.6198969632660365 0.0 0.784683219480031
  outer loop
    vertex 369.4800223897099 -337.91430751535324 41.14419439221085
    vertex 370.7126181142493 -351.7143075153531 42.117940647525195
    vertex 370.7126181142493 -337.91430751535324 42.117940647525195
  endloop
endfacet
facet normal -0.3956835248829976 0.0 0.9183869272459001
  outer loop
    vertex 372.1552382339281 -351.7143075153531 42.739488055362806
    vertex 370.7126181142493 -337.91430751535324 42.117940647525195
    vertex 370.7126181142493 -351.7143075153531 42.117940647525195
  endloop
endfacet
facet normal -0.3956835248829976 0.0 0.9183869272459001
  outer loop
    vertex 370.7126181142493 -337.91430751535324 42.117940647525195
    vertex 372.1552382339281 -351.7143075153531 42.739488055362806
    vertex 372.1552382339281 -337.91430751535324 42.739488055362806
  endloop
endfacet
facet normal -0.14450490817717854 0.0 0.9895040836260887
  outer loop
    vertex 373.7095705716325 -351.7143075153531 42.966479187035254
    vertex 372.1552382339281 -337.91430751535324 42.739488055362806
    vertex 372.1552382339281 -351.7143075153531 42.739488055362806
  endloop
endfacet
facet normal -0.14450490817717854 0.0 0.9895040836260887
  outer loop
    vertex 372.1552382339281 -337.91430751535324 42.739488055362806
    vertex 373.7095705716325 -351.7143075153531 42.966479187035254
    vertex 373.7095705716325 -337.91430751535324 42.966479187035254
  endloop
endfacet
facet normal 0.11652147921527903 0.0 0.9931881719399822
  outer loop
    vertex 375.26968994720386 -351.7143075153531 42.78344497203962
    vertex 373.7095705716325 -337.91430751535324 42.966479187035254
    vertex 373.7095705716325 -351.7143075153531 42.966479187035254
  endloop
endfacet
facet normal 0.11652147921527903 0.0 0.9931881719399822
  outer loop
    vertex 373.7095705716325 -337.91430751535324 42.966479187035254
    vertex 375.26968994720386 -351.7143075153531 42.78344497203962
    vertex 375.26968994720386 -337.91430751535324 42.78344497203962
  endloop
endfacet
facet normal 0.3696071203601112 0.0 0.9291881276572072
  outer loop
    vertex 376.72927680341564 -351.7143075153531 42.202858889649505
    vertex 375.26968994720386 -337.91430751535324 42.78344497203962
    vertex 375.26968994720386 -351.7143075153531 42.78344497203962
  endloop
endfacet
facet normal 0.3696071203601112 0.0 0.9291881276572072
  outer loop
    vertex 375.26968994720386 -337.91430751535324 42.78344497203962
    vertex 376.72927680341564 -351.7143075153531 42.202858889649505
    vertex 376.72927680341564 -337.91430751535324 42.202858889649505
  endloop
endfacet
facet normal 0.597504647056914 0.0 0.8018654480306484
  outer loop
    vertex 377.9888627080989 -351.7143075153531 41.264286921915975
    vertex 376.72927680341564 -337.91430751535324 42.202858889649505
    vertex 376.72927680341564 -351.7143075153531 42.202858889649505
  endloop
endfacet
facet normal 0.597504647056914 0.0 0.8018654480306484
  outer loop
    vertex 376.72927680341564 -337.91430751535324 42.202858889649505
    vertex 377.9888627080989 -351.7143075153531 41.264286921915975
    vertex 377.9888627080989 -337.91430751535324 41.264286921915975
  endloop
endfacet
facet normal 0.784683219480082 0.0 0.6198969632659718
  outer loop
    vertex 378.9626089634133 -337.91430751535324 40.031691197376325
    vertex 377.9888627080989 -351.7143075153531 41.264286921915975
    vertex 378.9626089634133 -351.7143075153531 40.031691197376325
  endloop
endfacet
facet normal 0.784683219480082 0.0 0.6198969632659718
  outer loop
    vertex 377.9888627080989 -351.7143075153531 41.264286921915975
    vertex 378.9626089634133 -337.91430751535324 40.031691197376325
    vertex 377.9888627080989 -337.91430751535324 41.264286921915975
  endloop
endfacet
facet normal 0.9183869272458836 0.0 0.3956835248830361
  outer loop
    vertex 379.58415637125086 -337.91430751535324 38.5890710776978
    vertex 378.9626089634133 -351.7143075153531 40.031691197376325
    vertex 379.58415637125086 -351.7143075153531 38.5890710776978
  endloop
endfacet
facet normal 0.9183869272458836 0.0 0.3956835248830361
  outer loop
    vertex 378.9626089634133 -351.7143075153531 40.031691197376325
    vertex 379.58415637125086 -337.91430751535324 38.5890710776978
    vertex 378.9626089634133 -337.91430751535324 40.031691197376325
  endloop
endfacet
facet normal 0.9895040836260925 0.0 0.14450490817715156
  outer loop
    vertex 379.8111475029233 -337.91430751535324 37.03473873999315
    vertex 379.58415637125086 -351.7143075153531 38.5890710776978
    vertex 379.8111475029233 -351.7143075153531 37.03473873999315
  endloop
endfacet
facet normal 0.9895040836260925 0.0 0.14450490817715156
  outer loop
    vertex 379.58415637125086 -351.7143075153531 38.5890710776978
    vertex 379.8111475029233 -337.91430751535324 37.03473873999315
    vertex 379.58415637125086 -337.91430751535324 38.5890710776978
  endloop
endfacet
facet normal 0.9931881719399842 0.0 -0.11652147921526189
  outer loop
    vertex 379.6281132879277 -337.91430751535324 35.47461936442208
    vertex 379.8111475029233 -351.7143075153531 37.03473873999315
    vertex 379.6281132879277 -351.7143075153531 35.47461936442208
  endloop
endfacet
facet normal 0.9931881719399842 0.0 -0.11652147921526189
  outer loop
    vertex 379.8111475029233 -351.7143075153531 37.03473873999315
    vertex 379.6281132879277 -337.91430751535324 35.47461936442208
    vertex 379.8111475029233 -337.91430751535324 37.03473873999315
  endloop
endfacet
facet normal 0.929188127657219 0.0 -0.36960712036008125
  outer loop
    vertex 379.04752720553756 -337.91430751535324 34.01503250821009
    vertex 379.6281132879277 -351.7143075153531 35.47461936442208
    vertex 379.04752720553756 -351.7143075153531 34.01503250821009
  endloop
endfacet
facet normal 0.929188127657219 0.0 -0.36960712036008125
  outer loop
    vertex 379.6281132879277 -351.7143075153531 35.47461936442208
    vertex 379.04752720553756 -337.91430751535324 34.01503250821009
    vertex 379.6281132879277 -337.91430751535324 35.47461936442208
  endloop
endfacet
facet normal 0.9183869272458796 0.0 0.39568352488304553
  outer loop
    vertex 370.35895706998235 -337.91430751535324 34.90113271357442
    vertex 369.94578055936483 -351.7143075153531 35.86012110235905
    vertex 370.35895706998235 -351.7143075153531 34.90113271357442
  endloop
endfacet
facet normal 0.9183869272458796 0.0 0.39568352488304553
  outer loop
    vertex 369.94578055936483 -351.7143075153531 35.86012110235905
    vertex 370.35895706998235 -337.91430751535324 34.90113271357442
    vertex 369.94578055936483 -337.91430751535324 35.86012110235905
  endloop
endfacet
facet normal 0.7846832194800776 0.0 0.6198969632659772
  outer loop
    vertex 371.0062593914534 -337.91430751535324 34.0817590116728
    vertex 370.35895706998235 -351.7143075153531 34.90113271357442
    vertex 371.0062593914534 -351.7143075153531 34.0817590116728
  endloop
endfacet
facet normal 0.7846832194800776 0.0 0.6198969632659772
  outer loop
    vertex 370.35895706998235 -351.7143075153531 34.90113271357442
    vertex 371.0062593914534 -337.91430751535324 34.0817590116728
    vertex 370.35895706998235 -337.91430751535324 34.90113271357442
  endloop
endfacet
facet normal 0.5975046470569366 0.0 0.8018654480306316
  outer loop
    vertex 371.84357494028757 -351.7143075153531 33.45783896035973
    vertex 371.0062593914534 -337.91430751535324 34.0817590116728
    vertex 371.0062593914534 -351.7143075153531 34.0817590116728
  endloop
endfacet
facet normal 0.5975046470569366 0.0 0.8018654480306316
  outer loop
    vertex 371.0062593914534 -337.91430751535324 34.0817590116728
    vertex 371.84357494028757 -351.7143075153531 33.45783896035973
    vertex 371.84357494028757 -337.91430751535324 33.45783896035973
  endloop
endfacet
facet normal 0.36960712036009885 0.0 0.929188127657212
  outer loop
    vertex 372.81384204556093 -351.7143075153531 33.07189168005558
    vertex 371.84357494028757 -337.91430751535324 33.45783896035973
    vertex 371.84357494028757 -351.7143075153531 33.45783896035973
  endloop
endfacet
facet normal 0.36960712036009885 0.0 0.929188127657212
  outer loop
    vertex 371.84357494028757 -337.91430751535324 33.45783896035973
    vertex 372.81384204556093 -351.7143075153531 33.07189168005558
    vertex 372.81384204556093 -337.91430751535324 33.07189168005558
  endloop
endfacet
facet normal 0.11652147921528778 0.0 0.9931881719399811
  outer loop
    vertex 373.8509386074915 -351.7143075153531 32.950218840105016
    vertex 372.81384204556093 -337.91430751535324 33.07189168005558
    vertex 372.81384204556093 -351.7143075153531 33.07189168005558
  endloop
endfacet
facet normal 0.11652147921528778 0.0 0.9931881719399811
  outer loop
    vertex 372.81384204556093 -337.91430751535324 33.07189168005558
    vertex 373.8509386074915 -351.7143075153531 32.950218840105016
    vertex 373.8509386074915 -337.91430751535324 32.950218840105016
  endloop
endfacet
facet normal -0.1445049081771784 0.0 0.9895040836260885
  outer loop
    vertex 374.8841882092667 -351.7143075153531 33.10111224347681
    vertex 373.8509386074915 -337.91430751535324 32.950218840105016
    vertex 373.8509386074915 -351.7143075153531 32.950218840105016
  endloop
endfacet
facet normal -0.1445049081771784 0.0 0.9895040836260885
  outer loop
    vertex 373.8509386074915 -337.91430751535324 32.950218840105016
    vertex 374.8841882092667 -351.7143075153531 33.10111224347681
    vertex 374.8841882092667 -337.91430751535324 33.10111224347681
  endloop
endfacet
facet normal -0.39568352488299374 0.0 0.9183869272459019
  outer loop
    vertex 375.84317659805146 -351.7143075153531 33.514288754094316
    vertex 374.8841882092667 -337.91430751535324 33.10111224347681
    vertex 374.8841882092667 -351.7143075153531 33.10111224347681
  endloop
endfacet
facet normal -0.39568352488299374 0.0 0.9183869272459019
  outer loop
    vertex 374.8841882092667 -337.91430751535324 33.10111224347681
    vertex 375.84317659805146 -351.7143075153531 33.514288754094316
    vertex 375.84317659805146 -337.91430751535324 33.514288754094316
  endloop
endfacet
facet normal -0.6198969632660334 0.0 0.7846832194800335
  outer loop
    vertex 376.662550299953 -351.7143075153531 34.16159107556541
    vertex 375.84317659805146 -337.91430751535324 33.514288754094316
    vertex 375.84317659805146 -351.7143075153531 33.514288754094316
  endloop
endfacet
facet normal -0.6198969632660334 0.0 0.7846832194800335
  outer loop
    vertex 375.84317659805146 -337.91430751535324 33.514288754094316
    vertex 376.662550299953 -351.7143075153531 34.16159107556541
    vertex 376.662550299953 -337.91430751535324 34.16159107556541
  endloop
endfacet
facet normal -0.8018654480306013 0.0 0.5975046470569771
  outer loop
    vertex 377.2864703512661 -337.91430751535324 34.998906624399496
    vertex 376.662550299953 -351.7143075153531 34.16159107556541
    vertex 377.2864703512661 -351.7143075153531 34.998906624399496
  endloop
endfacet
facet normal -0.8018654480306013 0.0 0.5975046470569771
  outer loop
    vertex 376.662550299953 -351.7143075153531 34.16159107556541
    vertex 377.2864703512661 -337.91430751535324 34.998906624399496
    vertex 376.662550299953 -337.91430751535324 34.16159107556541
  endloop
endfacet
facet normal -0.9291881276572133 0.0 0.36960712036009563
  outer loop
    vertex 377.6724176315703 -337.91430751535324 35.96917372967291
    vertex 377.2864703512661 -351.7143075153531 34.998906624399496
    vertex 377.6724176315703 -351.7143075153531 35.96917372967291
  endloop
endfacet
facet normal -0.9291881276572133 0.0 0.36960712036009563
  outer loop
    vertex 377.2864703512661 -351.7143075153531 34.998906624399496
    vertex 377.6724176315703 -337.91430751535324 35.96917372967291
    vertex 377.2864703512661 -337.91430751535324 34.998906624399496
  endloop
endfacet
facet normal -0.9931881719399848 0.0 0.11652147921525627
  outer loop
    vertex 377.7940904715208 -337.91430751535324 37.006270291603464
    vertex 377.6724176315703 -351.7143075153531 35.96917372967291
    vertex 377.7940904715208 -351.7143075153531 37.006270291603464
  endloop
endfacet
facet normal -0.9931881719399848 0.0 0.11652147921525627
  outer loop
    vertex 377.6724176315703 -351.7143075153531 35.96917372967291
    vertex 377.7940904715208 -337.91430751535324 37.006270291603464
    vertex 377.6724176315703 -337.91430751535324 35.96917372967291
  endloop
endfacet
facet normal -0.9895040836260927 0.0 -0.14450490817715148
  outer loop
    vertex 377.643197068149 -337.91430751535324 38.03951989337871
    vertex 377.7940904715208 -351.7143075153531 37.006270291603464
    vertex 377.643197068149 -351.7143075153531 38.03951989337871
  endloop
endfacet
facet normal -0.9895040836260927 0.0 -0.14450490817715148
  outer loop
    vertex 377.7940904715208 -351.7143075153531 37.006270291603464
    vertex 377.643197068149 -337.91430751535324 38.03951989337871
    vertex 377.7940904715208 -337.91430751535324 37.006270291603464
  endloop
endfacet
facet normal -0.91838692724588 0.0 -0.3956835248830446
  outer loop
    vertex 377.2300205575315 -337.91430751535324 38.99850828216336
    vertex 377.643197068149 -351.7143075153531 38.03951989337871
    vertex 377.2300205575315 -351.7143075153531 38.99850828216336
  endloop
endfacet
facet normal -0.91838692724588 0.0 -0.3956835248830446
  outer loop
    vertex 377.643197068149 -351.7143075153531 38.03951989337871
    vertex 377.2300205575315 -337.91430751535324 38.99850828216336
    vertex 377.643197068149 -337.91430751535324 38.03951989337871
  endloop
endfacet
facet normal -0.7846832194800802 0.0 -0.619896963265974
  outer loop
    vertex 376.58271823606043 -337.91430751535324 39.817881984064975
    vertex 377.2300205575315 -351.7143075153531 38.99850828216336
    vertex 376.58271823606043 -351.7143075153531 39.817881984064975
  endloop
endfacet
facet normal -0.7846832194800802 0.0 -0.619896963265974
  outer loop
    vertex 377.2300205575315 -351.7143075153531 38.99850828216336
    vertex 376.58271823606043 -337.91430751535324 39.817881984064975
    vertex 377.2300205575315 -337.91430751535324 38.99850828216336
  endloop
endfacet
facet normal -0.5975046470569332 0.0 -0.8018654480306342
  outer loop
    vertex 376.58271823606043 -337.91430751535324 39.817881984064975
    vertex 375.74540268722626 -351.7143075153531 40.44180203537803
    vertex 375.74540268722626 -337.91430751535324 40.44180203537803
  endloop
endfacet
facet normal -0.5975046470569332 0.0 -0.8018654480306342
  outer loop
    vertex 375.74540268722626 -351.7143075153531 40.44180203537803
    vertex 376.58271823606043 -337.91430751535324 39.817881984064975
    vertex 376.58271823606043 -351.7143075153531 39.817881984064975
  endloop
endfacet
facet normal -0.36960712036009535 0.0 -0.9291881276572135
  outer loop
    vertex 375.74540268722626 -337.91430751535324 40.44180203537803
    vertex 374.7751355819529 -351.7143075153531 40.82774931568219
    vertex 374.7751355819529 -337.91430751535324 40.82774931568219
  endloop
endfacet
facet normal -0.36960712036009535 0.0 -0.9291881276572135
  outer loop
    vertex 374.7751355819529 -351.7143075153531 40.82774931568219
    vertex 375.74540268722626 -337.91430751535324 40.44180203537803
    vertex 375.74540268722626 -351.7143075153531 40.44180203537803
  endloop
endfacet
facet normal -0.11652147921528377 0.0 -0.9931881719399815
  outer loop
    vertex 374.7751355819529 -337.91430751535324 40.82774931568219
    vertex 373.7380390200223 -351.7143075153531 40.949422155632746
    vertex 373.7380390200223 -337.91430751535324 40.949422155632746
  endloop
endfacet
facet normal -0.11652147921528377 0.0 -0.9931881719399815
  outer loop
    vertex 373.7380390200223 -351.7143075153531 40.949422155632746
    vertex 374.7751355819529 -337.91430751535324 40.82774931568219
    vertex 374.7751355819529 -351.7143075153531 40.82774931568219
  endloop
endfacet
facet normal 0.1445049081771771 0.0 -0.9895040836260889
  outer loop
    vertex 373.7380390200223 -337.91430751535324 40.949422155632746
    vertex 372.7047894182471 -351.7143075153531 40.79852875226095
    vertex 372.7047894182471 -337.91430751535324 40.79852875226095
  endloop
endfacet
facet normal 0.1445049081771771 0.0 -0.9895040836260889
  outer loop
    vertex 372.7047894182471 -351.7143075153531 40.79852875226095
    vertex 373.7380390200223 -337.91430751535324 40.949422155632746
    vertex 373.7380390200223 -351.7143075153531 40.949422155632746
  endloop
endfacet
facet normal 0.39568352488299374 0.0 -0.9183869272459019
  outer loop
    vertex 372.7047894182471 -337.91430751535324 40.79852875226095
    vertex 371.7458010294624 -351.7143075153531 40.38535224164345
    vertex 371.7458010294624 -337.91430751535324 40.38535224164345
  endloop
endfacet
facet normal 0.39568352488299374 0.0 -0.9183869272459019
  outer loop
    vertex 371.7458010294624 -351.7143075153531 40.38535224164345
    vertex 372.7047894182471 -337.91430751535324 40.79852875226095
    vertex 372.7047894182471 -351.7143075153531 40.79852875226095
  endloop
endfacet
facet normal 0.6198969632660307 0.0 -0.7846832194800353
  outer loop
    vertex 371.7458010294624 -337.91430751535324 40.38535224164345
    vertex 370.9264273275608 -351.7143075153531 39.73804992017236
    vertex 370.9264273275608 -337.91430751535324 39.73804992017236
  endloop
endfacet
facet normal 0.6198969632660307 0.0 -0.7846832194800353
  outer loop
    vertex 370.9264273275608 -351.7143075153531 39.73804992017236
    vertex 371.7458010294624 -337.91430751535324 40.38535224164345
    vertex 371.7458010294624 -351.7143075153531 40.38535224164345
  endloop
endfacet
facet normal 0.8018654480306018 0.0 -0.5975046470569766
  outer loop
    vertex 370.30250727624775 -337.91430751535324 38.900734371338274
    vertex 370.9264273275608 -351.7143075153531 39.73804992017236
    vertex 370.30250727624775 -351.7143075153531 38.900734371338274
  endloop
endfacet
facet normal 0.8018654480306018 0.0 -0.5975046470569766
  outer loop
    vertex 370.9264273275608 -351.7143075153531 39.73804992017236
    vertex 370.30250727624775 -337.91430751535324 38.900734371338274
    vertex 370.9264273275608 -337.91430751535324 39.73804992017236
  endloop
endfacet
facet normal 0.9291881276572133 0.0 -0.36960712036009563
  outer loop
    vertex 369.9165599959436 -337.91430751535324 37.93046726606486
    vertex 370.30250727624775 -351.7143075153531 38.900734371338274
    vertex 369.9165599959436 -351.7143075153531 37.93046726606486
  endloop
endfacet
facet normal 0.9291881276572133 0.0 -0.36960712036009563
  outer loop
    vertex 370.30250727624775 -351.7143075153531 38.900734371338274
    vertex 369.9165599959436 -337.91430751535324 37.93046726606486
    vertex 370.30250727624775 -337.91430751535324 38.900734371338274
  endloop
endfacet
facet normal 0.9931881719399848 0.0 -0.11652147921525627
  outer loop
    vertex 369.7948871559931 -337.91430751535324 36.8933707041343
    vertex 369.9165599959436 -351.7143075153531 37.93046726606486
    vertex 369.7948871559931 -351.7143075153531 36.8933707041343
  endloop
endfacet
facet normal 0.9931881719399848 0.0 -0.11652147921525627
  outer loop
    vertex 369.9165599959436 -351.7143075153531 37.93046726606486
    vertex 369.7948871559931 -337.91430751535324 36.8933707041343
    vertex 369.9165599959436 -337.91430751535324 37.93046726606486
  endloop
endfacet
facet normal 0.9895040836260927 0.0 0.14450490817715148
  outer loop
    vertex 369.94578055936483 -337.91430751535324 35.86012110235905
    vertex 369.7948871559931 -351.7143075153531 36.8933707041343
    vertex 369.94578055936483 -351.7143075153531 35.86012110235905
  endloop
endfacet
facet normal 0.9895040836260927 0.0 0.14450490817715148
  outer loop
    vertex 369.7948871559931 -351.7143075153531 36.8933707041343
    vertex 369.94578055936483 -337.91430751535324 35.86012110235905
    vertex 369.7948871559931 -337.91430751535324 36.8933707041343
  endloop
endfacet
facet normal -0.1305261922199976 -0.9914448613738175 0.0
  outer loop
    vertex 431.3288937290991 -343.0873146401671 33.933161808702515
    vertex 430.78537373438377 -343.01575887537416 30.9331618087025
    vertex 431.3288937290991 -343.0873146401671 30.9331618087025
  endloop
endfacet
facet normal -0.1305261922199976 -0.9914448613738175 0.0
  outer loop
    vertex 430.78537373438377 -343.01575887537416 30.9331618087025
    vertex 431.3288937290991 -343.0873146401671 33.933161808702515
    vertex 430.78537373438377 -343.01575887537416 33.933161808702515
  endloop
endfacet
facet normal 0.13052619221999762 -0.9914448613738175 0.0
  outer loop
    vertex 430.78537373438377 -343.01575887537416 33.933161808702515
    vertex 430.24185373966844 -343.0873146401671 30.9331618087025
    vertex 430.78537373438377 -343.01575887537416 30.9331618087025
  endloop
endfacet
facet normal 0.13052619221999762 -0.9914448613738175 0.0
  outer loop
    vertex 430.24185373966844 -343.0873146401671 30.9331618087025
    vertex 430.78537373438377 -343.01575887537416 33.933161808702515
    vertex 430.24185373966844 -343.0873146401671 33.933161808702515
  endloop
endfacet
facet normal 0.3826834323652234 -0.9238795325112313 0.0
  outer loop
    vertex 430.24185373966844 -343.0873146401671 33.933161808702515
    vertex 429.73537373438376 -343.29710552742694 30.9331618087025
    vertex 430.24185373966844 -343.0873146401671 30.9331618087025
  endloop
endfacet
facet normal 0.3826834323652234 -0.9238795325112313 0.0
  outer loop
    vertex 429.73537373438376 -343.29710552742694 30.9331618087025
    vertex 430.24185373966844 -343.0873146401671 33.933161808702515
    vertex 429.73537373438376 -343.29710552742694 33.933161808702515
  endloop
endfacet
facet normal 0.608761429008729 -0.793353340291229 0.0
  outer loop
    vertex 429.73537373438376 -343.29710552742694 33.933161808702515
    vertex 429.30044949389196 -343.6308346348825 30.9331618087025
    vertex 429.73537373438376 -343.29710552742694 30.9331618087025
  endloop
endfacet
facet normal 0.608761429008729 -0.793353340291229 0.0
  outer loop
    vertex 429.30044949389196 -343.6308346348825 30.9331618087025
    vertex 429.73537373438376 -343.29710552742694 33.933161808702515
    vertex 429.30044949389196 -343.6308346348825 33.933161808702515
  endloop
endfacet
facet normal 0.793353340291229 -0.608761429008729 0.0
  outer loop
    vertex 429.30044949389196 -343.6308346348825 30.9331618087025
    vertex 428.96672038643635 -344.0657588753743 33.933161808702515
    vertex 428.96672038643635 -344.0657588753743 30.9331618087025
  endloop
endfacet
facet normal 0.793353340291229 -0.608761429008729 0.0
  outer loop
    vertex 428.96672038643635 -344.0657588753743 33.933161808702515
    vertex 429.30044949389196 -343.6308346348825 30.9331618087025
    vertex 429.30044949389196 -343.6308346348825 33.933161808702515
  endloop
endfacet
facet normal 0.9238795325112895 -0.3826834323650829 0.0
  outer loop
    vertex 428.96672038643635 -344.0657588753743 30.9331618087025
    vertex 428.75692949917664 -344.57223888065903 33.933161808702515
    vertex 428.75692949917664 -344.57223888065903 30.9331618087025
  endloop
endfacet
facet normal 0.9238795325112895 -0.3826834323650829 0.0
  outer loop
    vertex 428.75692949917664 -344.57223888065903 33.933161808702515
    vertex 428.96672038643635 -344.0657588753743 30.9331618087025
    vertex 428.96672038643635 -344.0657588753743 33.933161808702515
  endloop
endfacet
facet normal 0.9914448613738147 -0.1305261922200189 0.0
  outer loop
    vertex 428.75692949917664 -344.57223888065903 30.9331618087025
    vertex 428.6853737343837 -345.11575887537424 33.933161808702515
    vertex 428.6853737343837 -345.11575887537424 30.9331618087025
  endloop
endfacet
facet normal 0.9914448613738147 -0.1305261922200189 0.0
  outer loop
    vertex 428.6853737343837 -345.11575887537424 33.933161808702515
    vertex 428.75692949917664 -344.57223888065903 30.9331618087025
    vertex 428.75692949917664 -344.57223888065903 33.933161808702515
  endloop
endfacet
facet normal 0.9914448613738147 0.1305261922200189 0.0
  outer loop
    vertex 428.6853737343837 -345.11575887537424 30.9331618087025
    vertex 428.75692949917664 -345.65927887008945 33.933161808702515
    vertex 428.75692949917664 -345.65927887008945 30.9331618087025
  endloop
endfacet
facet normal 0.9914448613738147 0.1305261922200189 0.0
  outer loop
    vertex 428.75692949917664 -345.65927887008945 33.933161808702515
    vertex 428.6853737343837 -345.11575887537424 30.9331618087025
    vertex 428.6853737343837 -345.11575887537424 33.933161808702515
  endloop
endfacet
facet normal 0.9238795325113379 0.38268343236496655 0.0
  outer loop
    vertex 428.75692949917664 -345.65927887008945 30.9331618087025
    vertex 428.96672038643635 -346.16575887537437 33.933161808702515
    vertex 428.96672038643635 -346.16575887537437 30.9331618087025
  endloop
endfacet
facet normal 0.9238795325113379 0.38268343236496655 0.0
  outer loop
    vertex 428.96672038643635 -346.16575887537437 33.933161808702515
    vertex 428.75692949917664 -345.65927887008945 30.9331618087025
    vertex 428.75692949917664 -345.65927887008945 33.933161808702515
  endloop
endfacet
facet normal 0.7933533402911067 0.608761429008888 0.0
  outer loop
    vertex 428.96672038643635 -346.16575887537437 30.9331618087025
    vertex 429.30044949389196 -346.60068311586593 33.933161808702515
    vertex 429.30044949389196 -346.60068311586593 30.9331618087025
  endloop
endfacet
facet normal 0.7933533402911067 0.608761429008888 0.0
  outer loop
    vertex 429.30044949389196 -346.60068311586593 33.933161808702515
    vertex 428.96672038643635 -346.16575887537437 30.9331618087025
    vertex 428.96672038643635 -346.16575887537437 33.933161808702515
  endloop
endfacet
facet normal 0.608761429008729 0.793353340291229 0.0
  outer loop
    vertex 429.30044949389196 -346.60068311586593 33.933161808702515
    vertex 429.73537373438376 -346.93441222332154 30.9331618087025
    vertex 429.30044949389196 -346.60068311586593 30.9331618087025
  endloop
endfacet
facet normal 0.608761429008729 0.793353340291229 0.0
  outer loop
    vertex 429.73537373438376 -346.93441222332154 30.9331618087025
    vertex 429.30044949389196 -346.60068311586593 33.933161808702515
    vertex 429.73537373438376 -346.93441222332154 33.933161808702515
  endloop
endfacet
facet normal 0.3826834323652234 0.9238795325112313 0.0
  outer loop
    vertex 429.73537373438376 -346.93441222332154 33.933161808702515
    vertex 430.24185373966844 -347.1442031105814 30.9331618087025
    vertex 429.73537373438376 -346.93441222332154 30.9331618087025
  endloop
endfacet
facet normal 0.3826834323652234 0.9238795325112313 0.0
  outer loop
    vertex 430.24185373966844 -347.1442031105814 30.9331618087025
    vertex 429.73537373438376 -346.93441222332154 33.933161808702515
    vertex 430.24185373966844 -347.1442031105814 33.933161808702515
  endloop
endfacet
facet normal 0.1305261922199976 0.9914448613738175 0.0
  outer loop
    vertex 430.24185373966844 -347.1442031105814 33.933161808702515
    vertex 430.78537373438377 -347.2157588753743 30.9331618087025
    vertex 430.24185373966844 -347.1442031105814 30.9331618087025
  endloop
endfacet
facet normal 0.1305261922199976 0.9914448613738175 0.0
  outer loop
    vertex 430.78537373438377 -347.2157588753743 30.9331618087025
    vertex 430.24185373966844 -347.1442031105814 33.933161808702515
    vertex 430.78537373438377 -347.2157588753743 33.933161808702515
  endloop
endfacet
facet normal -0.13052619221999762 0.9914448613738175 0.0
  outer loop
    vertex 430.78537373438377 -347.2157588753743 33.933161808702515
    vertex 431.3288937290991 -347.1442031105814 30.9331618087025
    vertex 430.78537373438377 -347.2157588753743 30.9331618087025
  endloop
endfacet
facet normal -0.13052619221999762 0.9914448613738175 0.0
  outer loop
    vertex 431.3288937290991 -347.1442031105814 30.9331618087025
    vertex 430.78537373438377 -347.2157588753743 33.933161808702515
    vertex 431.3288937290991 -347.1442031105814 33.933161808702515
  endloop
endfacet
facet normal -0.3826834323652234 0.9238795325112313 0.0
  outer loop
    vertex 431.3288937290991 -347.1442031105814 33.933161808702515
    vertex 431.8353737343838 -346.93441222332154 30.9331618087025
    vertex 431.3288937290991 -347.1442031105814 30.9331618087025
  endloop
endfacet
facet normal -0.3826834323652234 0.9238795325112313 0.0
  outer loop
    vertex 431.8353737343838 -346.93441222332154 30.9331618087025
    vertex 431.3288937290991 -347.1442031105814 33.933161808702515
    vertex 431.8353737343838 -346.93441222332154 33.933161808702515
  endloop
endfacet
facet normal -0.608761429008729 0.793353340291229 0.0
  outer loop
    vertex 431.8353737343838 -346.93441222332154 33.933161808702515
    vertex 432.2702979748756 -346.60068311586593 30.9331618087025
    vertex 431.8353737343838 -346.93441222332154 30.9331618087025
  endloop
endfacet
facet normal -0.608761429008729 0.793353340291229 0.0
  outer loop
    vertex 432.2702979748756 -346.60068311586593 30.9331618087025
    vertex 431.8353737343838 -346.93441222332154 33.933161808702515
    vertex 432.2702979748756 -346.60068311586593 33.933161808702515
  endloop
endfacet
facet normal -0.793353340291229 0.608761429008729 0.0
  outer loop
    vertex 432.6040270823312 -346.1657588753742 33.933161808702515
    vertex 432.2702979748756 -346.60068311586593 30.9331618087025
    vertex 432.2702979748756 -346.60068311586593 33.933161808702515
  endloop
endfacet
facet normal -0.793353340291229 0.608761429008729 0.0
  outer loop
    vertex 432.2702979748756 -346.60068311586593 30.9331618087025
    vertex 432.6040270823312 -346.1657588753742 33.933161808702515
    vertex 432.6040270823312 -346.1657588753742 30.9331618087025
  endloop
endfacet
facet normal -0.9238795325112895 0.3826834323650829 0.0
  outer loop
    vertex 432.8138179695909 -345.65927887008945 33.933161808702515
    vertex 432.6040270823312 -346.1657588753742 30.9331618087025
    vertex 432.6040270823312 -346.1657588753742 33.933161808702515
  endloop
endfacet
facet normal -0.9238795325112895 0.3826834323650829 0.0
  outer loop
    vertex 432.6040270823312 -346.1657588753742 30.9331618087025
    vertex 432.8138179695909 -345.65927887008945 33.933161808702515
    vertex 432.8138179695909 -345.65927887008945 30.9331618087025
  endloop
endfacet
facet normal -0.9914448613738147 0.1305261922200189 0.0
  outer loop
    vertex 432.88537373438385 -345.11575887537424 33.933161808702515
    vertex 432.8138179695909 -345.65927887008945 30.9331618087025
    vertex 432.8138179695909 -345.65927887008945 33.933161808702515
  endloop
endfacet
facet normal -0.9914448613738147 0.1305261922200189 0.0
  outer loop
    vertex 432.8138179695909 -345.65927887008945 30.9331618087025
    vertex 432.88537373438385 -345.11575887537424 33.933161808702515
    vertex 432.88537373438385 -345.11575887537424 30.9331618087025
  endloop
endfacet
facet normal -0.9914448613738147 -0.1305261922200189 0.0
  outer loop
    vertex 432.8138179695909 -344.57223888065903 33.933161808702515
    vertex 432.88537373438385 -345.11575887537424 30.9331618087025
    vertex 432.88537373438385 -345.11575887537424 33.933161808702515
  endloop
endfacet
facet normal -0.9914448613738147 -0.1305261922200189 0.0
  outer loop
    vertex 432.88537373438385 -345.11575887537424 30.9331618087025
    vertex 432.8138179695909 -344.57223888065903 33.933161808702515
    vertex 432.8138179695909 -344.57223888065903 30.9331618087025
  endloop
endfacet
facet normal -0.9238795325113379 -0.38268343236496655 0.0
  outer loop
    vertex 432.6040270823312 -344.0657588753741 33.933161808702515
    vertex 432.8138179695909 -344.57223888065903 30.9331618087025
    vertex 432.8138179695909 -344.57223888065903 33.933161808702515
  endloop
endfacet
facet normal -0.9238795325113379 -0.38268343236496655 0.0
  outer loop
    vertex 432.8138179695909 -344.57223888065903 30.9331618087025
    vertex 432.6040270823312 -344.0657588753741 33.933161808702515
    vertex 432.6040270823312 -344.0657588753741 30.9331618087025
  endloop
endfacet
facet normal -0.7933533402911067 -0.608761429008888 0.0
  outer loop
    vertex 432.2702979748756 -343.6308346348825 33.933161808702515
    vertex 432.6040270823312 -344.0657588753741 30.9331618087025
    vertex 432.6040270823312 -344.0657588753741 33.933161808702515
  endloop
endfacet
facet normal -0.7933533402911067 -0.608761429008888 0.0
  outer loop
    vertex 432.6040270823312 -344.0657588753741 30.9331618087025
    vertex 432.2702979748756 -343.6308346348825 33.933161808702515
    vertex 432.2702979748756 -343.6308346348825 30.9331618087025
  endloop
endfacet
facet normal -0.608761429008729 -0.793353340291229 0.0
  outer loop
    vertex 432.2702979748756 -343.6308346348825 33.933161808702515
    vertex 431.8353737343838 -343.29710552742694 30.9331618087025
    vertex 432.2702979748756 -343.6308346348825 30.9331618087025
  endloop
endfacet
facet normal -0.608761429008729 -0.793353340291229 0.0
  outer loop
    vertex 431.8353737343838 -343.29710552742694 30.9331618087025
    vertex 432.2702979748756 -343.6308346348825 33.933161808702515
    vertex 431.8353737343838 -343.29710552742694 33.933161808702515
  endloop
endfacet
facet normal -0.3826834323652234 -0.9238795325112313 0.0
  outer loop
    vertex 431.8353737343838 -343.29710552742694 33.933161808702515
    vertex 431.3288937290991 -343.0873146401671 30.9331618087025
    vertex 431.8353737343838 -343.29710552742694 30.9331618087025
  endloop
endfacet
facet normal -0.3826834323652234 -0.9238795325112313 0.0
  outer loop
    vertex 431.3288937290991 -343.0873146401671 30.9331618087025
    vertex 431.8353737343838 -343.29710552742694 33.933161808702515
    vertex 431.3288937290991 -343.0873146401671 33.933161808702515
  endloop
endfacet
facet normal 0.6252501185207804 -0.7804244289421943 3.5357303800365495e-29
  outer loop
    vertex 434.53080644160684 -348.7209023983324 33.93316180870251
    vertex 431.0441352220753 -351.5143075153531 30.93316180870251
    vertex 434.53080644160684 -348.7209023983324 30.93316180870251
  endloop
endfacet
facet normal 0.6252501185207804 -0.7804244289421943 3.5357303800365495e-29
  outer loop
    vertex 431.0441352220753 -351.5143075153531 30.93316180870251
    vertex 434.53080644160684 -348.7209023983324 33.93316180870251
    vertex 431.0441352220753 -351.5143075153531 33.93316180870251
  endloop
endfacet
facet normal 1.0 0.0 0.0
  outer loop
    vertex 431.0441352220753 -351.5143075153531 30.93316180870251
    vertex 431.0441352220753 -351.7143075153531 33.93316180870251
    vertex 431.0441352220753 -351.7143075153531 30.93316180870251
  endloop
endfacet
facet normal 1.0 0.0 0.0
  outer loop
    vertex 431.0441352220753 -351.7143075153531 33.93316180870251
    vertex 431.0441352220753 -351.5143075153531 30.93316180870251
    vertex 431.0441352220753 -351.5143075153531 33.93316180870251
  endloop
endfacet
facet normal 0.0 -1.0 0.0
  outer loop
    vertex 431.0441352220753 -351.7143075153531 33.93316180870251
    vertex 373.8794070558813 -351.7143075153531 30.93316180870251
    vertex 431.0441352220753 -351.7143075153531 30.93316180870251
  endloop
endfacet
facet normal 0.0 -1.0 0.0
  outer loop
    vertex 373.8794070558813 -351.7143075153531 30.93316180870251
    vertex 431.0441352220753 -351.7143075153531 33.93316180870251
    vertex 372.31928768030997 -351.7143075153531 31.11619602369816
  endloop
endfacet
facet normal 0.0 -1.0 0.0
  outer loop
    vertex 372.31928768030997 -351.7143075153531 31.11619602369816
    vertex 431.0441352220753 -351.7143075153531 33.93316180870251
    vertex 370.8597008240982 -351.7143075153531 31.69678210608827
  endloop
endfacet
facet normal 0.0 -1.0 0.0
  outer loop
    vertex 370.8597008240982 -351.7143075153531 31.69678210608827
    vertex 431.0441352220753 -351.7143075153531 33.93316180870251
    vertex 369.6001149194149 -351.7143075153531 32.63535407382182
  endloop
endfacet
facet normal 0.0 -1.0 0.0
  outer loop
    vertex 369.6001149194149 -351.7143075153531 32.63535407382182
    vertex 431.0441352220753 -351.7143075153531 33.93316180870251
    vertex 373.8509386074915 -351.7143075153531 32.950218840105016
  endloop
endfacet
facet normal 0.0 -1.0 0.0
  outer loop
    vertex 373.8509386074915 -351.7143075153531 32.950218840105016
    vertex 431.0441352220753 -351.7143075153531 33.93316180870251
    vertex 374.8841882092667 -351.7143075153531 33.10111224347681
  endloop
endfacet
facet normal 0.0 -1.0 0.0
  outer loop
    vertex 374.8841882092667 -351.7143075153531 33.10111224347681
    vertex 431.0441352220753 -351.7143075153531 33.93316180870251
    vertex 375.84317659805146 -351.7143075153531 33.514288754094316
  endloop
endfacet
facet normal 0.0 -1.0 0.0
  outer loop
    vertex 375.84317659805146 -351.7143075153531 33.514288754094316
    vertex 431.0441352220753 -351.7143075153531 33.93316180870251
    vertex 378.9865218042777 -351.7143075153531 33.93316180870251
  endloop
endfacet
facet normal 0.0 -1.0 0.0
  outer loop
    vertex 375.84317659805146 -351.7143075153531 33.514288754094316
    vertex 378.9865218042777 -351.7143075153531 33.93316180870251
    vertex 376.662550299953 -351.7143075153531 34.16159107556541
  endloop
endfacet
facet normal 0.0 -1.0 0.0
  outer loop
    vertex 376.662550299953 -351.7143075153531 34.16159107556541
    vertex 378.9865218042777 -351.7143075153531 33.93316180870251
    vertex 379.04752720553756 -351.7143075153531 34.01503250821009
  endloop
endfacet
facet normal 0.0 -1.0 0.0
  outer loop
    vertex 376.662550299953 -351.7143075153531 34.16159107556541
    vertex 379.04752720553756 -351.7143075153531 34.01503250821009
    vertex 379.6281132879277 -351.7143075153531 35.47461936442208
  endloop
endfacet
facet normal 0.0 -1.0 0.0
  outer loop
    vertex 376.662550299953 -351.7143075153531 34.16159107556541
    vertex 379.6281132879277 -351.7143075153531 35.47461936442208
    vertex 377.2864703512661 -351.7143075153531 34.998906624399496
  endloop
endfacet
facet normal 0.0 -1.0 0.0
  outer loop
    vertex 377.2864703512661 -351.7143075153531 34.998906624399496
    vertex 379.6281132879277 -351.7143075153531 35.47461936442208
    vertex 377.6724176315703 -351.7143075153531 35.96917372967291
  endloop
endfacet
facet normal 0.0 -1.0 0.0
  outer loop
    vertex 377.6724176315703 -351.7143075153531 35.96917372967291
    vertex 379.6281132879277 -351.7143075153531 35.47461936442208
    vertex 379.8111475029233 -351.7143075153531 37.03473873999315
  endloop
endfacet
facet normal 0.0 -1.0 0.0
  outer loop
    vertex 377.6724176315703 -351.7143075153531 35.96917372967291
    vertex 379.8111475029233 -351.7143075153531 37.03473873999315
    vertex 377.7940904715208 -351.7143075153531 37.006270291603464
  endloop
endfacet
facet normal 0.0 -1.0 0.0
  outer loop
    vertex 377.7940904715208 -351.7143075153531 37.006270291603464
    vertex 379.8111475029233 -351.7143075153531 37.03473873999315
    vertex 377.643197068149 -351.7143075153531 38.03951989337871
  endloop
endfacet
facet normal 0.0 -1.0 0.0
  outer loop
    vertex 377.643197068149 -351.7143075153531 38.03951989337871
    vertex 379.8111475029233 -351.7143075153531 37.03473873999315
    vertex 379.58415637125086 -351.7143075153531 38.5890710776978
  endloop
endfacet
facet normal 0.0 -1.0 0.0
  outer loop
    vertex 377.643197068149 -351.7143075153531 38.03951989337871
    vertex 379.58415637125086 -351.7143075153531 38.5890710776978
    vertex 377.2300205575315 -351.7143075153531 38.99850828216336
  endloop
endfacet
facet normal 0.0 -1.0 0.0
  outer loop
    vertex 377.2300205575315 -351.7143075153531 38.99850828216336
    vertex 379.58415637125086 -351.7143075153531 38.5890710776978
    vertex 378.9626089634133 -351.7143075153531 40.031691197376325
  endloop
endfacet
facet normal 0.0 -1.0 0.0
  outer loop
    vertex 377.2300205575315 -351.7143075153531 38.99850828216336
    vertex 378.9626089634133 -351.7143075153531 40.031691197376325
    vertex 376.58271823606043 -351.7143075153531 39.817881984064975
  endloop
endfacet
facet normal 0.0 -1.0 0.0
  outer loop
    vertex 376.58271823606043 -351.7143075153531 39.817881984064975
    vertex 378.9626089634133 -351.7143075153531 40.031691197376325
    vertex 375.74540268722626 -351.7143075153531 40.44180203537803
  endloop
endfacet
facet normal 0.0 -1.0 0.0
  outer loop
    vertex 375.74540268722626 -351.7143075153531 40.44180203537803
    vertex 378.9626089634133 -351.7143075153531 40.031691197376325
    vertex 377.9888627080989 -351.7143075153531 41.264286921915975
  endloop
endfacet
facet normal 0.0 -1.0 0.0
  outer loop
    vertex 375.74540268722626 -351.7143075153531 40.44180203537803
    vertex 377.9888627080989 -351.7143075153531 41.264286921915975
    vertex 374.7751355819529 -351.7143075153531 40.82774931568219
  endloop
endfacet
facet normal 0.0 -1.0 0.0
  outer loop
    vertex 374.7751355819529 -351.7143075153531 40.82774931568219
    vertex 377.9888627080989 -351.7143075153531 41.264286921915975
    vertex 373.7380390200223 -351.7143075153531 40.949422155632746
  endloop
endfacet
facet normal 0.0 -1.0 0.0
  outer loop
    vertex 373.7380390200223 -351.7143075153531 40.949422155632746
    vertex 377.9888627080989 -351.7143075153531 41.264286921915975
    vertex 369.4800223897099 -351.7143075153531 41.14419439221085
  endloop
endfacet
facet normal 0.0 -1.0 0.0
  outer loop
    vertex 369.4800223897099 -351.7143075153531 41.14419439221085
    vertex 377.9888627080989 -351.7143075153531 41.264286921915975
    vertex 370.7126181142493 -351.7143075153531 42.117940647525195
  endloop
endfacet
facet normal 0.0 -1.0 0.0
  outer loop
    vertex 370.7126181142493 -351.7143075153531 42.117940647525195
    vertex 377.9888627080989 -351.7143075153531 41.264286921915975
    vertex 376.72927680341564 -351.7143075153531 42.202858889649505
  endloop
endfacet
facet normal 0.0 -1.0 0.0
  outer loop
    vertex 370.7126181142493 -351.7143075153531 42.117940647525195
    vertex 376.72927680341564 -351.7143075153531 42.202858889649505
    vertex 372.1552382339281 -351.7143075153531 42.739488055362806
  endloop
endfacet
facet normal 0.0 -1.0 0.0
  outer loop
    vertex 372.1552382339281 -351.7143075153531 42.739488055362806
    vertex 376.72927680341564 -351.7143075153531 42.202858889649505
    vertex 375.26968994720386 -351.7143075153531 42.78344497203962
  endloop
endfacet
facet normal 0.0 -1.0 0.0
  outer loop
    vertex 372.1552382339281 -351.7143075153531 42.739488055362806
    vertex 375.26968994720386 -351.7143075153531 42.78344497203962
    vertex 373.7095705716325 -351.7143075153531 42.966479187035254
  endloop
endfacet
facet normal 0.0 -1.0 0.0
  outer loop
    vertex 369.6001149194149 -351.7143075153531 32.63535407382182
    vertex 372.81384204556093 -351.7143075153531 33.07189168005558
    vertex 368.62636866410054 -351.7143075153531 33.867949798361416
  endloop
endfacet
facet normal 0.0 -1.0 0.0
  outer loop
    vertex 372.81384204556093 -351.7143075153531 33.07189168005558
    vertex 369.6001149194149 -351.7143075153531 32.63535407382182
    vertex 373.8509386074915 -351.7143075153531 32.950218840105016
  endloop
endfacet
facet normal 0.0 -1.0 0.0
  outer loop
    vertex 368.62636866410054 -351.7143075153531 33.867949798361416
    vertex 372.81384204556093 -351.7143075153531 33.07189168005558
    vertex 371.84357494028757 -351.7143075153531 33.45783896035973
  endloop
endfacet
facet normal 0.0 -1.0 0.0
  outer loop
    vertex 368.62636866410054 -351.7143075153531 33.867949798361416
    vertex 371.84357494028757 -351.7143075153531 33.45783896035973
    vertex 371.0062593914534 -351.7143075153531 34.0817590116728
  endloop
endfacet
facet normal 0.0 -1.0 0.0
  outer loop
    vertex 368.62636866410054 -351.7143075153531 33.867949798361416
    vertex 371.0062593914534 -351.7143075153531 34.0817590116728
    vertex 368.00482125626297 -351.7143075153531 35.31056991803996
  endloop
endfacet
facet normal 0.0 -1.0 0.0
  outer loop
    vertex 368.00482125626297 -351.7143075153531 35.31056991803996
    vertex 371.0062593914534 -351.7143075153531 34.0817590116728
    vertex 370.35895706998235 -351.7143075153531 34.90113271357442
  endloop
endfacet
facet normal 0.0 -1.0 0.0
  outer loop
    vertex 368.00482125626297 -351.7143075153531 35.31056991803996
    vertex 370.35895706998235 -351.7143075153531 34.90113271357442
    vertex 369.94578055936483 -351.7143075153531 35.86012110235905
  endloop
endfacet
facet normal 0.0 -1.0 0.0
  outer loop
    vertex 368.00482125626297 -351.7143075153531 35.31056991803996
    vertex 369.94578055936483 -351.7143075153531 35.86012110235905
    vertex 367.77783012459054 -351.7143075153531 36.86490225574462
  endloop
endfacet
facet normal 0.0 -1.0 0.0
  outer loop
    vertex 367.77783012459054 -351.7143075153531 36.86490225574462
    vertex 369.94578055936483 -351.7143075153531 35.86012110235905
    vertex 369.7948871559931 -351.7143075153531 36.8933707041343
  endloop
endfacet
facet normal 0.0 -1.0 0.0
  outer loop
    vertex 367.77783012459054 -351.7143075153531 36.86490225574462
    vertex 369.7948871559931 -351.7143075153531 36.8933707041343
    vertex 367.9608643395861 -351.7143075153531 38.42502163131569
  endloop
endfacet
facet normal 0.0 -1.0 0.0
  outer loop
    vertex 367.9608643395861 -351.7143075153531 38.42502163131569
    vertex 369.7948871559931 -351.7143075153531 36.8933707041343
    vertex 369.9165599959436 -351.7143075153531 37.93046726606486
  endloop
endfacet
facet normal 0.0 -1.0 0.0
  outer loop
    vertex 367.9608643395861 -351.7143075153531 38.42502163131569
    vertex 369.9165599959436 -351.7143075153531 37.93046726606486
    vertex 370.30250727624775 -351.7143075153531 38.900734371338274
  endloop
endfacet
facet normal 0.0 -1.0 0.0
  outer loop
    vertex 367.9608643395861 -351.7143075153531 38.42502163131569
    vertex 370.30250727624775 -351.7143075153531 38.900734371338274
    vertex 368.54145042197626 -351.7143075153531 39.88460848752767
  endloop
endfacet
facet normal 0.0 -1.0 0.0
  outer loop
    vertex 368.54145042197626 -351.7143075153531 39.88460848752767
    vertex 370.30250727624775 -351.7143075153531 38.900734371338274
    vertex 370.9264273275608 -351.7143075153531 39.73804992017236
  endloop
endfacet
facet normal 0.0 -1.0 0.0
  outer loop
    vertex 368.54145042197626 -351.7143075153531 39.88460848752767
    vertex 370.9264273275608 -351.7143075153531 39.73804992017236
    vertex 371.7458010294624 -351.7143075153531 40.38535224164345
  endloop
endfacet
facet normal 0.0 -1.0 0.0
  outer loop
    vertex 368.54145042197626 -351.7143075153531 39.88460848752767
    vertex 371.7458010294624 -351.7143075153531 40.38535224164345
    vertex 369.4800223897099 -351.7143075153531 41.14419439221085
  endloop
endfacet
facet normal 0.0 -1.0 0.0
  outer loop
    vertex 369.4800223897099 -351.7143075153531 41.14419439221085
    vertex 371.7458010294624 -351.7143075153531 40.38535224164345
    vertex 372.7047894182471 -351.7143075153531 40.79852875226095
  endloop
endfacet
facet normal 0.0 -1.0 0.0
  outer loop
    vertex 369.4800223897099 -351.7143075153531 41.14419439221085
    vertex 372.7047894182471 -351.7143075153531 40.79852875226095
    vertex 373.7380390200223 -351.7143075153531 40.949422155632746
  endloop
endfacet
facet normal 0.0 1.0 0.0
  outer loop
    vertex 369.6001149194149 -337.91430751535324 32.63535407382182
    vertex 372.81384204556093 -337.91430751535324 33.07189168005558
    vertex 373.8509386074915 -337.91430751535324 32.950218840105016
  endloop
endfacet
facet normal 0.0 1.0 0.0
  outer loop
    vertex 372.81384204556093 -337.91430751535324 33.07189168005558
    vertex 369.6001149194149 -337.91430751535324 32.63535407382182
    vertex 368.62636866410054 -337.91430751535324 33.867949798361416
  endloop
endfacet
facet normal 0.0 1.0 0.0
  outer loop
    vertex 372.81384204556093 -337.91430751535324 33.07189168005558
    vertex 368.62636866410054 -337.91430751535324 33.867949798361416
    vertex 371.84357494028757 -337.91430751535324 33.45783896035973
  endloop
endfacet
facet normal 0.0 1.0 0.0
  outer loop
    vertex 371.84357494028757 -337.91430751535324 33.45783896035973
    vertex 368.62636866410054 -337.91430751535324 33.867949798361416
    vertex 371.0062593914534 -337.91430751535324 34.0817590116728
  endloop
endfacet
facet normal 0.0 1.0 0.0
  outer loop
    vertex 371.0062593914534 -337.91430751535324 34.0817590116728
    vertex 368.62636866410054 -337.91430751535324 33.867949798361416
    vertex 368.00482125626297 -337.91430751535324 35.31056991803996
  endloop
endfacet
facet normal 0.0 1.0 0.0
  outer loop
    vertex 371.0062593914534 -337.91430751535324 34.0817590116728
    vertex 368.00482125626297 -337.91430751535324 35.31056991803996
    vertex 370.35895706998235 -337.91430751535324 34.90113271357442
  endloop
endfacet
facet normal 0.0 1.0 0.0
  outer loop
    vertex 370.35895706998235 -337.91430751535324 34.90113271357442
    vertex 368.00482125626297 -337.91430751535324 35.31056991803996
    vertex 369.94578055936483 -337.91430751535324 35.86012110235905
  endloop
endfacet
facet normal 0.0 1.0 0.0
  outer loop
    vertex 369.94578055936483 -337.91430751535324 35.86012110235905
    vertex 368.00482125626297 -337.91430751535324 35.31056991803996
    vertex 367.77783012459054 -337.91430751535324 36.86490225574462
  endloop
endfacet
facet normal 0.0 1.0 0.0
  outer loop
    vertex 369.94578055936483 -337.91430751535324 35.86012110235905
    vertex 367.77783012459054 -337.91430751535324 36.86490225574462
    vertex 369.7948871559931 -337.91430751535324 36.8933707041343
  endloop
endfacet
facet normal 0.0 1.0 0.0
  outer loop
    vertex 369.7948871559931 -337.91430751535324 36.8933707041343
    vertex 367.77783012459054 -337.91430751535324 36.86490225574462
    vertex 367.9608643395861 -337.91430751535324 38.42502163131569
  endloop
endfacet
facet normal 0.0 1.0 0.0
  outer loop
    vertex 369.7948871559931 -337.91430751535324 36.8933707041343
    vertex 367.9608643395861 -337.91430751535324 38.42502163131569
    vertex 369.9165599959436 -337.91430751535324 37.93046726606486
  endloop
endfacet
facet normal 0.0 1.0 0.0
  outer loop
    vertex 369.9165599959436 -337.91430751535324 37.93046726606486
    vertex 367.9608643395861 -337.91430751535324 38.42502163131569
    vertex 370.30250727624775 -337.91430751535324 38.900734371338274
  endloop
endfacet
facet normal 0.0 1.0 0.0
  outer loop
    vertex 370.30250727624775 -337.91430751535324 38.900734371338274
    vertex 367.9608643395861 -337.91430751535324 38.42502163131569
    vertex 368.54145042197626 -337.91430751535324 39.88460848752767
  endloop
endfacet
facet normal 0.0 1.0 0.0
  outer loop
    vertex 370.30250727624775 -337.91430751535324 38.900734371338274
    vertex 368.54145042197626 -337.91430751535324 39.88460848752767
    vertex 370.9264273275608 -337.91430751535324 39.73804992017236
  endloop
endfacet
facet normal 0.0 1.0 0.0
  outer loop
    vertex 370.9264273275608 -337.91430751535324 39.73804992017236
    vertex 368.54145042197626 -337.91430751535324 39.88460848752767
    vertex 371.7458010294624 -337.91430751535324 40.38535224164345
  endloop
endfacet
facet normal 0.0 1.0 0.0
  outer loop
    vertex 371.7458010294624 -337.91430751535324 40.38535224164345
    vertex 368.54145042197626 -337.91430751535324 39.88460848752767
    vertex 369.4800223897099 -337.91430751535324 41.14419439221085
  endloop
endfacet
facet normal 0.0 1.0 0.0
  outer loop
    vertex 371.7458010294624 -337.91430751535324 40.38535224164345
    vertex 369.4800223897099 -337.91430751535324 41.14419439221085
    vertex 372.7047894182471 -337.91430751535324 40.79852875226095
  endloop
endfacet
facet normal 0.0 1.0 0.0
  outer loop
    vertex 372.7047894182471 -337.91430751535324 40.79852875226095
    vertex 369.4800223897099 -337.91430751535324 41.14419439221085
    vertex 373.7380390200223 -337.91430751535324 40.949422155632746
  endloop
endfacet
facet normal 0.0 1.0 0.0
  outer loop
    vertex 376.662550299953 -337.91430751535324 34.16159107556541
    vertex 378.9865218042777 -337.91430751535324 33.93316180870251
    vertex 375.84317659805146 -337.91430751535324 33.514288754094316
  endloop
endfacet
facet normal 0.0 1.0 0.0
  outer loop
    vertex 378.9865218042777 -337.91430751535324 33.93316180870251
    vertex 376.662550299953 -337.91430751535324 34.16159107556541
    vertex 379.04752720553756 -337.91430751535324 34.01503250821009
  endloop
endfacet
facet normal 0.0 1.0 0.0
  outer loop
    vertex 379.04752720553756 -337.91430751535324 34.01503250821009
    vertex 376.662550299953 -337.91430751535324 34.16159107556541
    vertex 379.6281132879277 -337.91430751535324 35.47461936442208
  endloop
endfacet
facet normal 0.0 1.0 0.0
  outer loop
    vertex 379.6281132879277 -337.91430751535324 35.47461936442208
    vertex 376.662550299953 -337.91430751535324 34.16159107556541
    vertex 377.2864703512661 -337.91430751535324 34.998906624399496
  endloop
endfacet
facet normal 0.0 1.0 0.0
  outer loop
    vertex 379.6281132879277 -337.91430751535324 35.47461936442208
    vertex 377.2864703512661 -337.91430751535324 34.998906624399496
    vertex 377.6724176315703 -337.91430751535324 35.96917372967291
  endloop
endfacet
facet normal 0.0 1.0 0.0
  outer loop
    vertex 379.6281132879277 -337.91430751535324 35.47461936442208
    vertex 377.6724176315703 -337.91430751535324 35.96917372967291
    vertex 379.8111475029233 -337.91430751535324 37.03473873999315
  endloop
endfacet
facet normal 0.0 1.0 0.0
  outer loop
    vertex 379.8111475029233 -337.91430751535324 37.03473873999315
    vertex 377.6724176315703 -337.91430751535324 35.96917372967291
    vertex 377.7940904715208 -337.91430751535324 37.006270291603464
  endloop
endfacet
facet normal 0.0 1.0 0.0
  outer loop
    vertex 379.8111475029233 -337.91430751535324 37.03473873999315
    vertex 377.7940904715208 -337.91430751535324 37.006270291603464
    vertex 377.643197068149 -337.91430751535324 38.03951989337871
  endloop
endfacet
facet normal 0.0 1.0 0.0
  outer loop
    vertex 379.8111475029233 -337.91430751535324 37.03473873999315
    vertex 377.643197068149 -337.91430751535324 38.03951989337871
    vertex 379.58415637125086 -337.91430751535324 38.5890710776978
  endloop
endfacet
facet normal 0.0 1.0 0.0
  outer loop
    vertex 379.58415637125086 -337.91430751535324 38.5890710776978
    vertex 377.643197068149 -337.91430751535324 38.03951989337871
    vertex 377.2300205575315 -337.91430751535324 38.99850828216336
  endloop
endfacet
facet normal 0.0 1.0 0.0
  outer loop
    vertex 379.58415637125086 -337.91430751535324 38.5890710776978
    vertex 377.2300205575315 -337.91430751535324 38.99850828216336
    vertex 378.9626089634133 -337.91430751535324 40.031691197376325
  endloop
endfacet
facet normal 0.0 1.0 0.0
  outer loop
    vertex 378.9626089634133 -337.91430751535324 40.031691197376325
    vertex 377.2300205575315 -337.91430751535324 38.99850828216336
    vertex 376.58271823606043 -337.91430751535324 39.817881984064975
  endloop
endfacet
facet normal 0.0 1.0 0.0
  outer loop
    vertex 378.9626089634133 -337.91430751535324 40.031691197376325
    vertex 376.58271823606043 -337.91430751535324 39.817881984064975
    vertex 375.74540268722626 -337.91430751535324 40.44180203537803
  endloop
endfacet
facet normal 0.0 1.0 0.0
  outer loop
    vertex 378.9626089634133 -337.91430751535324 40.031691197376325
    vertex 375.74540268722626 -337.91430751535324 40.44180203537803
    vertex 377.9888627080989 -337.91430751535324 41.264286921915975
  endloop
endfacet
facet normal 0.0 1.0 0.0
  outer loop
    vertex 377.9888627080989 -337.91430751535324 41.264286921915975
    vertex 375.74540268722626 -337.91430751535324 40.44180203537803
    vertex 374.7751355819529 -337.91430751535324 40.82774931568219
  endloop
endfacet
facet normal 0.0 1.0 0.0
  outer loop
    vertex 377.9888627080989 -337.91430751535324 41.264286921915975
    vertex 374.7751355819529 -337.91430751535324 40.82774931568219
    vertex 373.7380390200223 -337.91430751535324 40.949422155632746
  endloop
endfacet
facet normal 0.0 1.0 0.0
  outer loop
    vertex 377.9888627080989 -337.91430751535324 41.264286921915975
    vertex 373.7380390200223 -337.91430751535324 40.949422155632746
    vertex 369.4800223897099 -337.91430751535324 41.14419439221085
  endloop
endfacet
facet normal 0.0 1.0 0.0
  outer loop
    vertex 377.9888627080989 -337.91430751535324 41.264286921915975
    vertex 369.4800223897099 -337.91430751535324 41.14419439221085
    vertex 370.7126181142493 -337.91430751535324 42.117940647525195
  endloop
endfacet
facet normal 0.0 1.0 0.0
  outer loop
    vertex 377.9888627080989 -337.91430751535324 41.264286921915975
    vertex 370.7126181142493 -337.91430751535324 42.117940647525195
    vertex 376.72927680341564 -337.91430751535324 42.202858889649505
  endloop
endfacet
facet normal 0.0 1.0 0.0
  outer loop
    vertex 376.72927680341564 -337.91430751535324 42.202858889649505
    vertex 370.7126181142493 -337.91430751535324 42.117940647525195
    vertex 372.1552382339281 -337.91430751535324 42.739488055362806
  endloop
endfacet
facet normal 0.0 1.0 0.0
  outer loop
    vertex 376.72927680341564 -337.91430751535324 42.202858889649505
    vertex 372.1552382339281 -337.91430751535324 42.739488055362806
    vertex 375.26968994720386 -337.91430751535324 42.78344497203962
  endloop
endfacet
facet normal 0.0 1.0 0.0
  outer loop
    vertex 375.26968994720386 -337.91430751535324 42.78344497203962
    vertex 372.1552382339281 -337.91430751535324 42.739488055362806
    vertex 373.7095705716325 -337.91430751535324 42.966479187035254
  endloop
endfacet
facet normal 0.0 1.0 0.0
  outer loop
    vertex 372.31928768030997 -337.91430751535324 31.11619602369816
    vertex 434.53080644160684 -337.91430751535324 30.93316180870251
    vertex 373.8794070558813 -337.91430751535324 30.93316180870251
  endloop
endfacet
facet normal 0.0 1.0 0.0
  outer loop
    vertex 434.53080644160684 -337.91430751535324 30.93316180870251
    vertex 372.31928768030997 -337.91430751535324 31.11619602369816
    vertex 434.53080644160684 -337.91430751535324 33.93316180870251
  endloop
endfacet
facet normal 0.0 1.0 0.0
  outer loop
    vertex 434.53080644160684 -337.91430751535324 33.93316180870251
    vertex 372.31928768030997 -337.91430751535324 31.11619602369816
    vertex 370.8597008240982 -337.91430751535324 31.69678210608827
  endloop
endfacet
facet normal 0.0 1.0 0.0
  outer loop
    vertex 434.53080644160684 -337.91430751535324 33.93316180870251
    vertex 370.8597008240982 -337.91430751535324 31.69678210608827
    vertex 369.6001149194149 -337.91430751535324 32.63535407382182
  endloop
endfacet
facet normal 0.0 1.0 0.0
  outer loop
    vertex 434.53080644160684 -337.91430751535324 33.93316180870251
    vertex 369.6001149194149 -337.91430751535324 32.63535407382182
    vertex 373.8509386074915 -337.91430751535324 32.950218840105016
  endloop
endfacet
facet normal 0.0 1.0 0.0
  outer loop
    vertex 434.53080644160684 -337.91430751535324 33.93316180870251
    vertex 373.8509386074915 -337.91430751535324 32.950218840105016
    vertex 374.8841882092667 -337.91430751535324 33.10111224347681
  endloop
endfacet
facet normal 0.0 1.0 0.0
  outer loop
    vertex 434.53080644160684 -337.91430751535324 33.93316180870251
    vertex 374.8841882092667 -337.91430751535324 33.10111224347681
    vertex 375.84317659805146 -337.91430751535324 33.514288754094316
  endloop
endfacet
facet normal 0.0 1.0 0.0
  outer loop
    vertex 434.53080644160684 -337.91430751535324 33.93316180870251
    vertex 375.84317659805146 -337.91430751535324 33.514288754094316
    vertex 378.9865218042777 -337.91430751535324 33.93316180870251
  endloop
endfacet
facet normal -1.5513214506941348e-16 -4.289682749878604e-16 -1.0
  outer loop
    vertex 434.53080644160684 -337.91430751535324 30.93316180870251
    vertex 373.8794070558813 -351.7143075153531 30.93316180870251
    vertex 373.8794070558813 -337.91430751535324 30.93316180870251
  endloop
endfacet
facet normal -1.5513214506941348e-16 -4.289682749878604e-16 -1.0
  outer loop
    vertex 373.8794070558813 -351.7143075153531 30.93316180870251
    vertex 434.53080644160684 -337.91430751535324 30.93316180870251
    vertex 429.30044949389196 -343.6308346348825 30.9331618087025
  endloop
endfacet
facet normal -1.5513214506941348e-16 -4.289682749878604e-16 -1.0
  outer loop
    vertex 373.8794070558813 -351.7143075153531 30.93316180870251
    vertex 429.30044949389196 -343.6308346348825 30.9331618087025
    vertex 428.96672038643635 -344.0657588753743 30.9331618087025
  endloop
endfacet
facet normal -1.5513214506941348e-16 -4.289682749878604e-16 -1.0
  outer loop
    vertex 373.8794070558813 -351.7143075153531 30.93316180870251
    vertex 428.96672038643635 -344.0657588753743 30.9331618087025
    vertex 428.75692949917664 -344.57223888065903 30.9331618087025
  endloop
endfacet
facet normal -1.5513214506941348e-16 -4.289682749878604e-16 -1.0
  outer loop
    vertex 373.8794070558813 -351.7143075153531 30.93316180870251
    vertex 428.75692949917664 -344.57223888065903 30.9331618087025
    vertex 428.6853737343837 -345.11575887537424 30.9331618087025
  endloop
endfacet
facet normal -1.5513214506941348e-16 -4.289682749878604e-16 -1.0
  outer loop
    vertex 429.30044949389196 -343.6308346348825 30.9331618087025
    vertex 434.53080644160684 -337.91430751535324 30.93316180870251
    vertex 429.73537373438376 -343.29710552742694 30.9331618087025
  endloop
endfacet
facet normal -1.5513214506941348e-16 -4.289682749878604e-16 -1.0
  outer loop
    vertex 429.73537373438376 -343.29710552742694 30.9331618087025
    vertex 434.53080644160684 -337.91430751535324 30.93316180870251
    vertex 430.24185373966844 -343.0873146401671 30.9331618087025
  endloop
endfacet
facet normal -1.5513214506941348e-16 -4.289682749878604e-16 -1.0
  outer loop
    vertex 430.24185373966844 -343.0873146401671 30.9331618087025
    vertex 434.53080644160684 -337.91430751535324 30.93316180870251
    vertex 430.78537373438377 -343.01575887537416 30.9331618087025
  endloop
endfacet
facet normal -1.5513214506941348e-16 -4.289682749878604e-16 -1.0
  outer loop
    vertex 430.78537373438377 -343.01575887537416 30.9331618087025
    vertex 434.53080644160684 -337.91430751535324 30.93316180870251
    vertex 431.3288937290991 -343.0873146401671 30.9331618087025
  endloop
endfacet
facet normal -1.5513214506941348e-16 -4.289682749878604e-16 -1.0
  outer loop
    vertex 431.3288937290991 -343.0873146401671 30.9331618087025
    vertex 434.53080644160684 -337.91430751535324 30.93316180870251
    vertex 431.8353737343838 -343.29710552742694 30.9331618087025
  endloop
endfacet
facet normal -1.5513214506941348e-16 -4.289682749878604e-16 -1.0
  outer loop
    vertex 431.8353737343838 -343.29710552742694 30.9331618087025
    vertex 434.53080644160684 -337.91430751535324 30.93316180870251
    vertex 432.2702979748756 -343.6308346348825 30.9331618087025
  endloop
endfacet
facet normal -1.5513214506941348e-16 -4.289682749878604e-16 -1.0
  outer loop
    vertex 432.2702979748756 -343.6308346348825 30.9331618087025
    vertex 434.53080644160684 -337.91430751535324 30.93316180870251
    vertex 432.6040270823312 -344.0657588753741 30.9331618087025
  endloop
endfacet
facet normal -1.5513214506941348e-16 -4.289682749878604e-16 -1.0
  outer loop
    vertex 432.6040270823312 -344.0657588753741 30.9331618087025
    vertex 434.53080644160684 -337.91430751535324 30.93316180870251
    vertex 432.8138179695909 -344.57223888065903 30.9331618087025
  endloop
endfacet
facet normal -1.5513214506941348e-16 -4.289682749878604e-16 -1.0
  outer loop
    vertex 432.8138179695909 -344.57223888065903 30.9331618087025
    vertex 434.53080644160684 -337.91430751535324 30.93316180870251
    vertex 432.88537373438385 -345.11575887537424 30.9331618087025
  endloop
endfacet
facet normal -1.5513214506941348e-16 -4.289682749878604e-16 -1.0
  outer loop
    vertex 431.3288937290991 -347.1442031105814 30.9331618087025
    vertex 431.0441352220753 -351.5143075153531 30.93316180870251
    vertex 430.78537373438377 -347.2157588753743 30.9331618087025
  endloop
endfacet
facet normal -1.5513214506941348e-16 -4.289682749878604e-16 -1.0
  outer loop
    vertex 431.0441352220753 -351.5143075153531 30.93316180870251
    vertex 431.3288937290991 -347.1442031105814 30.9331618087025
    vertex 434.53080644160684 -348.7209023983324 30.93316180870251
  endloop
endfacet
facet normal -1.5513214506941348e-16 -4.289682749878604e-16 -1.0
  outer loop
    vertex 434.53080644160684 -348.7209023983324 30.93316180870251
    vertex 431.3288937290991 -347.1442031105814 30.9331618087025
    vertex 431.8353737343838 -346.93441222332154 30.9331618087025
  endloop
endfacet
facet normal -1.5513214506941348e-16 -4.289682749878604e-16 -1.0
  outer loop
    vertex 434.53080644160684 -348.7209023983324 30.93316180870251
    vertex 431.8353737343838 -346.93441222332154 30.9331618087025
    vertex 432.2702979748756 -346.60068311586593 30.9331618087025
  endloop
endfacet
facet normal -1.5513214506941348e-16 -4.289682749878604e-16 -1.0
  outer loop
    vertex 434.53080644160684 -348.7209023983324 30.93316180870251
    vertex 432.2702979748756 -346.60068311586593 30.9331618087025
    vertex 432.6040270823312 -346.1657588753742 30.9331618087025
  endloop
endfacet
facet normal -1.5513214506941348e-16 -4.289682749878604e-16 -1.0
  outer loop
    vertex 434.53080644160684 -348.7209023983324 30.93316180870251
    vertex 432.6040270823312 -346.1657588753742 30.9331618087025
    vertex 432.8138179695909 -345.65927887008945 30.9331618087025
  endloop
endfacet
facet normal -1.5513214506941348e-16 -4.289682749878604e-16 -1.0
  outer loop
    vertex 434.53080644160684 -348.7209023983324 30.93316180870251
    vertex 432.8138179695909 -345.65927887008945 30.9331618087025
    vertex 432.88537373438385 -345.11575887537424 30.9331618087025
  endloop
endfacet
facet normal -1.5513214506941348e-16 -4.289682749878604e-16 -1.0
  outer loop
    vertex 434.53080644160684 -348.7209023983324 30.93316180870251
    vertex 432.88537373438385 -345.11575887537424 30.9331618087025
    vertex 434.53080644160684 -337.91430751535324 30.93316180870251
  endloop
endfacet
facet normal -1.5513214506941348e-16 -4.289682749878604e-16 -1.0
  outer loop
    vertex 373.8794070558813 -351.7143075153531 30.93316180870251
    vertex 428.75692949917664 -345.65927887008945 30.9331618087025
    vertex 431.0441352220753 -351.7143075153531 30.93316180870251
  endloop
endfacet
facet normal -1.5513214506941348e-16 -4.289682749878604e-16 -1.0
  outer loop
    vertex 428.75692949917664 -345.65927887008945 30.9331618087025
    vertex 373.8794070558813 -351.7143075153531 30.93316180870251
    vertex 428.6853737343837 -345.11575887537424 30.9331618087025
  endloop
endfacet
facet normal -1.5513214506941348e-16 -4.289682749878604e-16 -1.0
  outer loop
    vertex 431.0441352220753 -351.7143075153531 30.93316180870251
    vertex 428.75692949917664 -345.65927887008945 30.9331618087025
    vertex 428.96672038643635 -346.16575887537437 30.9331618087025
  endloop
endfacet
facet normal -1.5513214506941348e-16 -4.289682749878604e-16 -1.0
  outer loop
    vertex 431.0441352220753 -351.7143075153531 30.93316180870251
    vertex 428.96672038643635 -346.16575887537437 30.9331618087025
    vertex 429.30044949389196 -346.60068311586593 30.9331618087025
  endloop
endfacet
facet normal -1.5513214506941348e-16 -4.289682749878604e-16 -1.0
  outer loop
    vertex 431.0441352220753 -351.7143075153531 30.93316180870251
    vertex 429.30044949389196 -346.60068311586593 30.9331618087025
    vertex 429.73537373438376 -346.93441222332154 30.9331618087025
  endloop
endfacet
facet normal -1.5513214506941348e-16 -4.289682749878604e-16 -1.0
  outer loop
    vertex 431.0441352220753 -351.7143075153531 30.93316180870251
    vertex 429.73537373438376 -346.93441222332154 30.9331618087025
    vertex 430.24185373966844 -347.1442031105814 30.9331618087025
  endloop
endfacet
facet normal -1.5513214506941348e-16 -4.289682749878604e-16 -1.0
  outer loop
    vertex 431.0441352220753 -351.7143075153531 30.93316180870251
    vertex 430.24185373966844 -347.1442031105814 30.9331618087025
    vertex 430.78537373438377 -347.2157588753743 30.9331618087025
  endloop
endfacet
facet normal -1.5513214506941348e-16 -4.289682749878604e-16 -1.0
  outer loop
    vertex 431.0441352220753 -351.7143075153531 30.93316180870251
    vertex 430.78537373438377 -347.2157588753743 30.9331618087025
    vertex 431.0441352220753 -351.5143075153531 30.93316180870251
  endloop
endfacet
facet normal -7.808719921704238e-17 -2.1135000349688946e-17 1.0
  outer loop
    vertex 431.0441352220753 -351.7143075153531 33.93316180870251
    vertex 378.9865218042777 -337.91430751535324 33.93316180870251
    vertex 378.9865218042777 -351.7143075153531 33.93316180870251
  endloop
endfacet
facet normal -7.808719921704238e-17 -2.1135000349688946e-17 1.0
  outer loop
    vertex 378.9865218042777 -337.91430751535324 33.93316180870251
    vertex 431.0441352220753 -351.7143075153531 33.93316180870251
    vertex 428.75692949917664 -345.65927887008945 33.933161808702515
  endloop
endfacet
facet normal -7.808719921704238e-17 -2.1135000349688946e-17 1.0
  outer loop
    vertex 378.9865218042777 -337.91430751535324 33.93316180870251
    vertex 428.75692949917664 -345.65927887008945 33.933161808702515
    vertex 428.6853737343837 -345.11575887537424 33.933161808702515
  endloop
endfacet
facet normal -7.808719921704238e-17 -2.1135000349688946e-17 1.0
  outer loop
    vertex 428.75692949917664 -345.65927887008945 33.933161808702515
    vertex 431.0441352220753 -351.7143075153531 33.93316180870251
    vertex 428.96672038643635 -346.16575887537437 33.933161808702515
  endloop
endfacet
facet normal -7.808719921704238e-17 -2.1135000349688946e-17 1.0
  outer loop
    vertex 428.96672038643635 -346.16575887537437 33.933161808702515
    vertex 431.0441352220753 -351.7143075153531 33.93316180870251
    vertex 429.30044949389196 -346.60068311586593 33.933161808702515
  endloop
endfacet
facet normal -7.808719921704238e-17 -2.1135000349688946e-17 1.0
  outer loop
    vertex 429.30044949389196 -346.60068311586593 33.933161808702515
    vertex 431.0441352220753 -351.7143075153531 33.93316180870251
    vertex 429.73537373438376 -346.93441222332154 33.933161808702515
  endloop
endfacet
facet normal -7.808719921704238e-17 -2.1135000349688946e-17 1.0
  outer loop
    vertex 429.73537373438376 -346.93441222332154 33.933161808702515
    vertex 431.0441352220753 -351.7143075153531 33.93316180870251
    vertex 430.24185373966844 -347.1442031105814 33.933161808702515
  endloop
endfacet
facet normal -7.808719921704238e-17 -2.1135000349688946e-17 1.0
  outer loop
    vertex 430.24185373966844 -347.1442031105814 33.933161808702515
    vertex 431.0441352220753 -351.7143075153531 33.93316180870251
    vertex 430.78537373438377 -347.2157588753743 33.933161808702515
  endloop
endfacet
facet normal -7.808719921704238e-17 -2.1135000349688946e-17 1.0
  outer loop
    vertex 430.78537373438377 -347.2157588753743 33.933161808702515
    vertex 431.0441352220753 -351.7143075153531 33.93316180870251
    vertex 431.0441352220753 -351.5143075153531 33.93316180870251
  endloop
endfacet
facet normal -7.808719921704238e-17 -2.1135000349688946e-17 1.0
  outer loop
    vertex 430.78537373438377 -347.2157588753743 33.933161808702515
    vertex 431.0441352220753 -351.5143075153531 33.93316180870251
    vertex 431.3288937290991 -347.1442031105814 33.933161808702515
  endloop
endfacet
facet normal -7.808719921704238e-17 -2.1135000349688946e-17 1.0
  outer loop
    vertex 431.3288937290991 -347.1442031105814 33.933161808702515
    vertex 431.0441352220753 -351.5143075153531 33.93316180870251
    vertex 434.53080644160684 -348.7209023983324 33.93316180870251
  endloop
endfacet
facet normal -7.808719921704238e-17 -2.1135000349688946e-17 1.0
  outer loop
    vertex 431.3288937290991 -347.1442031105814 33.933161808702515
    vertex 434.53080644160684 -348.7209023983324 33.93316180870251
    vertex 431.8353737343838 -346.93441222332154 33.933161808702515
  endloop
endfacet
facet normal -7.808719921704238e-17 -2.1135000349688946e-17 1.0
  outer loop
    vertex 431.8353737343838 -346.93441222332154 33.933161808702515
    vertex 434.53080644160684 -348.7209023983324 33.93316180870251
    vertex 432.2702979748756 -346.60068311586593 33.933161808702515
  endloop
endfacet
facet normal -7.808719921704238e-17 -2.1135000349688946e-17 1.0
  outer loop
    vertex 432.2702979748756 -346.60068311586593 33.933161808702515
    vertex 434.53080644160684 -348.7209023983324 33.93316180870251
    vertex 432.6040270823312 -346.1657588753742 33.933161808702515
  endloop
endfacet
facet normal -7.808719921704238e-17 -2.1135000349688946e-17 1.0
  outer loop
    vertex 432.6040270823312 -346.1657588753742 33.933161808702515
    vertex 434.53080644160684 -348.7209023983324 33.93316180870251
    vertex 432.8138179695909 -345.65927887008945 33.933161808702515
  endloop
endfacet
facet normal -7.808719921704238e-17 -2.1135000349688946e-17 1.0
  outer loop
    vertex 432.8138179695909 -345.65927887008945 33.933161808702515
    vertex 434.53080644160684 -348.7209023983324 33.93316180870251
    vertex 432.88537373438385 -345.11575887537424 33.933161808702515
  endloop
endfacet
facet normal -7.808719921704238e-17 -2.1135000349688946e-17 1.0
  outer loop
    vertex 378.9865218042777 -337.91430751535324 33.93316180870251
    vertex 429.30044949389196 -343.6308346348825 33.933161808702515
    vertex 434.53080644160684 -337.91430751535324 33.93316180870251
  endloop
endfacet
facet normal -7.808719921704238e-17 -2.1135000349688946e-17 1.0
  outer loop
    vertex 429.30044949389196 -343.6308346348825 33.933161808702515
    vertex 378.9865218042777 -337.91430751535324 33.93316180870251
    vertex 428.96672038643635 -344.0657588753743 33.933161808702515
  endloop
endfacet
facet normal -7.808719921704238e-17 -2.1135000349688946e-17 1.0
  outer loop
    vertex 428.96672038643635 -344.0657588753743 33.933161808702515
    vertex 378.9865218042777 -337.91430751535324 33.93316180870251
    vertex 428.75692949917664 -344.57223888065903 33.933161808702515
  endloop
endfacet
facet normal -7.808719921704238e-17 -2.1135000349688946e-17 1.0
  outer loop
    vertex 428.75692949917664 -344.57223888065903 33.933161808702515
    vertex 378.9865218042777 -337.91430751535324 33.93316180870251
    vertex 428.6853737343837 -345.11575887537424 33.933161808702515
  endloop
endfacet
facet normal -7.808719921704238e-17 -2.1135000349688946e-17 1.0
  outer loop
    vertex 434.53080644160684 -337.91430751535324 33.93316180870251
    vertex 429.30044949389196 -343.6308346348825 33.933161808702515
    vertex 429.73537373438376 -343.29710552742694 33.933161808702515
  endloop
endfacet
facet normal -7.808719921704238e-17 -2.1135000349688946e-17 1.0
  outer loop
    vertex 434.53080644160684 -337.91430751535324 33.93316180870251
    vertex 429.73537373438376 -343.29710552742694 33.933161808702515
    vertex 430.24185373966844 -343.0873146401671 33.933161808702515
  endloop
endfacet
facet normal -7.808719921704238e-17 -2.1135000349688946e-17 1.0
  outer loop
    vertex 434.53080644160684 -337.91430751535324 33.93316180870251
    vertex 430.24185373966844 -343.0873146401671 33.933161808702515
    vertex 430.78537373438377 -343.01575887537416 33.933161808702515
  endloop
endfacet
facet normal -7.808719921704238e-17 -2.1135000349688946e-17 1.0
  outer loop
    vertex 434.53080644160684 -337.91430751535324 33.93316180870251
    vertex 430.78537373438377 -343.01575887537416 33.933161808702515
    vertex 431.3288937290991 -343.0873146401671 33.933161808702515
  endloop
endfacet
facet normal -7.808719921704238e-17 -2.1135000349688946e-17 1.0
  outer loop
    vertex 434.53080644160684 -337.91430751535324 33.93316180870251
    vertex 431.3288937290991 -343.0873146401671 33.933161808702515
    vertex 431.8353737343838 -343.29710552742694 33.933161808702515
  endloop
endfacet
facet normal -7.808719921704238e-17 -2.1135000349688946e-17 1.0
  outer loop
    vertex 434.53080644160684 -337.91430751535324 33.93316180870251
    vertex 431.8353737343838 -343.29710552742694 33.933161808702515
    vertex 432.2702979748756 -343.6308346348825 33.933161808702515
  endloop
endfacet
facet normal -7.808719921704238e-17 -2.1135000349688946e-17 1.0
  outer loop
    vertex 434.53080644160684 -337.91430751535324 33.93316180870251
    vertex 432.2702979748756 -343.6308346348825 33.933161808702515
    vertex 432.6040270823312 -344.0657588753741 33.933161808702515
  endloop
endfacet
facet normal -7.808719921704238e-17 -2.1135000349688946e-17 1.0
  outer loop
    vertex 434.53080644160684 -337.91430751535324 33.93316180870251
    vertex 432.6040270823312 -344.0657588753741 33.933161808702515
    vertex 432.8138179695909 -344.57223888065903 33.933161808702515
  endloop
endfacet
facet normal -7.808719921704238e-17 -2.1135000349688946e-17 1.0
  outer loop
    vertex 434.53080644160684 -337.91430751535324 33.93316180870251
    vertex 432.8138179695909 -344.57223888065903 33.933161808702515
    vertex 432.88537373438385 -345.11575887537424 33.933161808702515
  endloop
endfacet
facet normal -7.808719921704238e-17 -2.1135000349688946e-17 1.0
  outer loop
    vertex 434.53080644160684 -337.91430751535324 33.93316180870251
    vertex 432.88537373438385 -345.11575887537424 33.933161808702515
    vertex 434.53080644160684 -348.7209023983324 33.93316180870251
  endloop
endfacet
endsolid slim_v2_стойка_v2
