solid slim
facet normal 0.0 1.0 0.0
  outer loop
    vertex 359.70191082399975 -315.6764980060435 111.25041481831701
    vertex 418.86191082399944 -315.6764980060435 109.25041481831701
    vertex 359.70191082399975 -315.6764980060435 109.25041481831701
  endloop
endfacet
facet normal 0.0 1.0 0.0
  outer loop
    vertex 418.86191082399944 -315.6764980060435 109.25041481831701
    vertex 359.70191082399975 -315.6764980060435 111.25041481831701
    vertex 418.86191082399944 -315.6764980060435 111.25041481831701
  endloop
endfacet
facet normal 0.0 -1.0 0.0
  outer loop
    vertex 427.87914363572804 -272.5064980060435 112.650414818317
    vertex 418.86191082399944 -272.5064980060435 111.25041481831701
    vertex 427.87914363572804 -272.5064980060435 111.25041481831697
  endloop
endfacet
facet normal 0.0 -1.0 0.0
  outer loop
    vertex 418.86191082399944 -272.5064980060435 111.25041481831701
    vertex 427.87914363572804 -272.5064980060435 112.650414818317
    vertex 359.70191082399975 -272.5064980060435 111.25041481831701
  endloop
endfacet
facet normal 0.0 -1.0 0.0
  outer loop
    vertex 359.70191082399975 -272.5064980060435 111.25041481831701
    vertex 427.87914363572804 -272.5064980060435 112.650414818317
    vertex 352.99364959349845 -272.5064980060435 111.25041481831701
  endloop
endfacet
facet normal 0.0 -1.0 0.0
  outer loop
    vertex 352.99364959349845 -272.5064980060435 111.25041481831701
    vertex 427.87914363572804 -272.5064980060435 112.650414818317
    vertex 349.57914363572786 -272.5064980060435 111.25041481831701
  endloop
endfacet
facet normal 0.0 -1.0 0.0
  outer loop
    vertex 349.57914363572786 -272.5064980060435 111.25041481831701
    vertex 427.87914363572804 -272.5064980060435 112.650414818317
    vertex 349.57914363572786 -272.5064980060435 112.650414818317
  endloop
endfacet
facet normal 0.0 -1.0 0.0
  outer loop
    vertex 418.86191082399944 -272.5064980060435 111.25041481831701
    vertex 359.70191082399975 -272.5064980060435 109.25041481831701
    vertex 418.86191082399944 -272.5064980060435 109.25041481831701
  endloop
endfacet
facet normal 0.0 -1.0 0.0
  outer loop
    vertex 359.70191082399975 -272.5064980060435 109.25041481831701
    vertex 418.86191082399944 -272.5064980060435 111.25041481831701
    vertex 359.70191082399975 -272.5064980060435 111.25041481831701
  endloop
endfacet
facet normal -1.0 0.0 0.0
  outer loop
    vertex 418.86191082399944 -272.5064980060435 111.25041481831701
    vertex 418.86191082399944 -315.6764980060435 109.25041481831701
    vertex 418.86191082399944 -315.6764980060435 111.25041481831701
  endloop
endfacet
facet normal -1.0 0.0 0.0
  outer loop
    vertex 418.86191082399944 -315.6764980060435 109.25041481831701
    vertex 418.86191082399944 -272.5064980060435 111.25041481831701
    vertex 418.86191082399944 -272.5064980060435 109.25041481831701
  endloop
endfacet
facet normal 1.0 0.0 0.0
  outer loop
    vertex 359.70191082399975 -272.5064980060435 109.25041481831701
    vertex 359.70191082399975 -315.6764980060435 111.25041481831701
    vertex 359.70191082399975 -315.6764980060435 109.25041481831701
  endloop
endfacet
facet normal 1.0 0.0 0.0
  outer loop
    vertex 359.70191082399975 -315.6764980060435 111.25041481831701
    vertex 359.70191082399975 -272.5064980060435 109.25041481831701
    vertex 359.70191082399975 -272.5064980060435 111.25041481831701
  endloop
endfacet
facet normal 1.3535839116229901e-14 -1.0 -2.0303758674344852e-13
  outer loop
    vertex 419.6228721673378 -319.9160635174237 111.25041481831701
    vertex 401.39055078407955 -319.9160635174237 109.25041481831701
    vertex 419.6228721673378 -319.9160635174237 109.25041481831701
  endloop
endfacet
facet normal 1.3535839116229901e-14 -1.0 -2.0303758674344852e-13
  outer loop
    vertex 401.39055078407955 -319.9160635174237 109.25041481831701
    vertex 419.6228721673378 -319.9160635174237 111.25041481831701
    vertex 401.39055078407955 -319.9160635174245 111.25041481831701
  endloop
endfacet
facet normal -6.0433766322976795e-15 -1.0 -2.0304257181890354e-13
  outer loop
    vertex 401.39055078407955 -321.9160635174245 111.2504148183166
    vertex 356.594521932282 -321.9160635174237 109.25041481831661
    vertex 401.39055078407955 -321.9160635174237 109.25041481831661
  endloop
endfacet
facet normal -6.0433766322976795e-15 -1.0 -2.0304257181890354e-13
  outer loop
    vertex 356.594521932282 -321.9160635174237 109.25041481831661
    vertex 401.39055078407955 -321.9160635174245 111.2504148183166
    vertex 356.59122240239446 -321.9160635174237 111.2504148183166
  endloop
endfacet
facet normal 1.0 -6.0433766322976795e-15 -2.4540652144069404e-27
  outer loop
    vertex 401.39055078407955 -321.9160635174237 109.25041481831661
    vertex 401.39055078407955 -319.9160635174245 111.25041481831701
    vertex 401.39055078407955 -321.9160635174245 111.2504148183166
  endloop
endfacet
facet normal 1.0 -6.0433766322976795e-15 -2.4540652144069404e-27
  outer loop
    vertex 401.39055078407955 -319.9160635174245 111.25041481831701
    vertex 401.39055078407955 -321.9160635174237 109.25041481831661
    vertex 401.39055078407955 -319.9160635174237 109.25041481831701
  endloop
endfacet
facet normal -1.0 0.0 0.0
  outer loop
    vertex 352.99364959349845 -277.5064980060435 111.25041481831701
    vertex 352.99364959349845 -282.0666732664042 109.250414818317
    vertex 352.99364959349845 -282.0666732664042 111.25041481831701
  endloop
endfacet
facet normal -1.0 0.0 0.0
  outer loop
    vertex 352.99364959349845 -282.0666732664042 109.250414818317
    vertex 352.99364959349845 -277.5064980060435 111.25041481831701
    vertex 352.99364959349845 -277.5064980060435 109.25041481831701
  endloop
endfacet
facet normal 0.7232940045782225 -0.6905402109516856 1.6303556202720318e-14
  outer loop
    vertex 356.594521932282 -342.64632716506304 109.25041481831678
    vertex 354.1431041834034 -345.2140208813157 111.25041481831687
    vertex 354.1431041834035 -345.2140208813157 109.25041481831684
  endloop
endfacet
facet normal 0.7232940045782225 -0.6905402109516856 1.6303556202720318e-14
  outer loop
    vertex 354.1431041834034 -345.2140208813157 111.25041481831687
    vertex 356.594521932282 -342.64632716506304 109.25041481831678
    vertex 356.5945219322819 -342.64632716506304 111.25041481831683
  endloop
endfacet
facet normal 0.9999996566179483 7.958241174805333e-05 0.0008248821886485259
  outer loop
    vertex 356.594521932282 -321.9160635174237 109.25041481831661
    vertex 356.5945219322819 -342.64632716506304 111.25041481831683
    vertex 356.594521932282 -342.64632716506304 109.25041481831678
  endloop
endfacet
facet normal 0.9999996566179483 7.958241174805333e-05 0.0008248821886485259
  outer loop
    vertex 356.5945219322819 -342.64632716506304 111.25041481831683
    vertex 356.594521932282 -321.9160635174237 109.25041481831661
    vertex 356.59122240239446 -321.9160635174237 111.2504148183166
  endloop
endfacet
facet normal -0.8440590285534757 0.5362502739555133 -6.665873614778439e-14
  outer loop
    vertex 352.9936495934981 -342.0660167886467 111.25041481831701
    vertex 350.99364959349845 -345.2140208813157 109.25041481831688
    vertex 350.99364959349845 -345.2140208813157 111.25041481831697
  endloop
endfacet
facet normal -0.8440590285534757 0.5362502739555133 -6.665873614778439e-14
  outer loop
    vertex 350.99364959349845 -345.2140208813157 109.25041481831688
    vertex 352.9936495934981 -342.0660167886467 111.25041481831701
    vertex 352.99364959349845 -342.0660167886467 109.25041481831688
  endloop
endfacet
facet normal 1.0 5.598345448655614e-29 2.2559731860382615e-14
  outer loop
    vertex 354.1431041834035 -345.2140208813157 109.25041481831684
    vertex 354.1431041834034 -354.86443594194174 111.25041481831693
    vertex 354.1431041834035 -354.86443594194174 109.25041481831684
  endloop
endfacet
facet normal 1.0 5.598345448655614e-29 2.2559731860382615e-14
  outer loop
    vertex 354.1431041834034 -354.86443594194174 111.25041481831693
    vertex 354.1431041834035 -345.2140208813157 109.25041481831684
    vertex 354.1431041834034 -345.2140208813157 111.25041481831687
  endloop
endfacet
facet normal 1.0 -3.86627203324152e-14 1.1279865930196164e-14
  outer loop
    vertex 356.59287216733827 -357.6625447532311 109.25041481831643
    vertex 356.5928721673377 -369.91606351742536 111.25041481831678
    vertex 356.59287216733793 -369.91606351742536 109.25041481831643
  endloop
endfacet
facet normal 1.0 -3.86627203324152e-14 1.1279865930196164e-14
  outer loop
    vertex 356.5928721673377 -369.91606351742536 111.25041481831678
    vertex 356.59287216733827 -357.6625447532311 109.25041481831643
    vertex 356.5928721673384 -357.6625447532311 111.25041481831647
  endloop
endfacet
facet normal 0.7523870705376565 0.6587212582631318 -1.6974568647607614e-14
  outer loop
    vertex 354.1431041834035 -354.86443594194174 109.25041481831684
    vertex 356.5928721673384 -357.6625447532311 111.25041481831647
    vertex 356.59287216733827 -357.6625447532311 109.25041481831643
  endloop
endfacet
facet normal 0.7523870705376565 0.6587212582631318 -1.6974568647607614e-14
  outer loop
    vertex 356.5928721673384 -357.6625447532311 111.25041481831647
    vertex 354.1431041834035 -354.86443594194174 109.25041481831684
    vertex 354.1431041834034 -354.86443594194174 111.25041481831693
  endloop
endfacet
facet normal 0.0 1.0 0.0
  outer loop
    vertex 356.5928721673377 -369.91606351742536 111.25041481831678
    vertex 419.6228721673369 -369.91606351742536 109.2504148183278
    vertex 356.59287216733793 -369.91606351742536 109.25041481831643
  endloop
endfacet
facet normal 0.0 1.0 0.0
  outer loop
    vertex 419.6228721673369 -369.91606351742536 109.2504148183278
    vertex 356.5928721673377 -369.91606351742536 111.25041481831678
    vertex 419.6228721673367 -369.91606351742536 111.25041481832811
  endloop
endfacet
facet normal 0.4732691951500719 0.8809178559445842 1.0659622270119314e-14
  outer loop
    vertex 424.1012429586492 -362.55434974258634 111.25041481831701
    vertex 427.87914363572855 -364.58401005737363 109.25041481831701
    vertex 424.1012429586492 -362.55434974258634 109.25041481831701
  endloop
endfacet
facet normal 0.4732691951500719 0.8809178559445842 1.0659622270119314e-14
  outer loop
    vertex 427.87914363572855 -364.58401005737363 109.25041481831701
    vertex 424.1012429586492 -362.55434974258634 111.25041481831701
    vertex 427.8791436357279 -364.5840100573735 113.3004148183126
  endloop
endfacet
facet normal 0.4732691951500719 0.8809178559445842 1.0659622270119314e-14
  outer loop
    vertex 427.8791436357279 -364.5840100573735 113.3004148183126
    vertex 424.1012429586492 -362.55434974258634 111.25041481831701
    vertex 424.1012429586487 -362.5543497425862 113.3004148183126
  endloop
endfacet
facet normal 1.0 0.0 0.0
  outer loop
    vertex 424.1012429586492 -326.65434974258636 109.25041481831701
    vertex 424.1012429586492 -362.55434974258634 111.25041481831701
    vertex 424.1012429586492 -362.55434974258634 109.25041481831701
  endloop
endfacet
facet normal 1.0 0.0 0.0
  outer loop
    vertex 424.1012429586492 -362.55434974258634 111.25041481831701
    vertex 424.1012429586492 -326.65434974258636 109.25041481831701
    vertex 424.1012429586492 -326.65434974258636 111.25041481831701
  endloop
endfacet
facet normal 0.599621556046113 -0.8002836931518962 -3.1049506415684705e-17
  outer loop
    vertex 427.7905507840795 -323.8900943692137 111.25041481831701
    vertex 424.1012429586492 -326.65434974258636 109.25041481831701
    vertex 427.7905507840795 -323.8900943692137 109.25041481831701
  endloop
endfacet
facet normal 0.599621556046113 -0.8002836931518962 -3.1049506415684705e-17
  outer loop
    vertex 424.1012429586492 -326.65434974258636 109.25041481831701
    vertex 427.7905507840795 -323.8900943692137 111.25041481831701
    vertex 424.1012429586492 -326.65434974258636 111.25041481831701
  endloop
endfacet
facet normal 1.0 0.0 0.0
  outer loop
    vertex 427.87914363572855 -364.58401005737363 109.25041481831701
    vertex 427.8791436357279 -369.35985914403483 113.30041481831243
    vertex 427.87914363572855 -369.35985914403494 109.25041481831684
  endloop
endfacet
facet normal 1.0 0.0 0.0
  outer loop
    vertex 427.8791436357279 -369.35985914403483 113.30041481831243
    vertex 427.87914363572855 -364.58401005737363 109.25041481831701
    vertex 427.8791436357279 -364.5840100573735 113.3004148183126
  endloop
endfacet
facet normal -0.9999969761814088 -0.0024591925583479605 -4.734503952295898e-19
  outer loop
    vertex 350.99364959349845 -345.2140208813157 111.25041481831697
    vertex 351.0421678591533 -364.9433091713905 109.25041481831678
    vertex 351.0421678591533 -364.9433091713905 111.25041481831674
  endloop
endfacet
facet normal -0.9999969761814088 -0.0024591925583479605 -4.734503952295898e-19
  outer loop
    vertex 351.0421678591533 -364.9433091713905 109.25041481831678
    vertex 350.99364959349845 -345.2140208813157 111.25041481831697
    vertex 350.99364959349845 -345.2140208813157 109.25041481831688
  endloop
endfacet
facet normal -0.9999969761814088 -0.002459192558366972 2.2281159239501005e-14
  outer loop
    vertex 348.55571116302514 -366.0637367419585 113.30041481831677
    vertex 348.5667404120376 -370.548629811665 109.25041481831674
    vertex 348.5667404120376 -370.548629811665 113.30041481831672
  endloop
endfacet
facet normal -0.9999969761814088 -0.002459192558366972 2.2281159239501005e-14
  outer loop
    vertex 348.5667404120376 -370.548629811665 109.25041481831674
    vertex 348.55571116302514 -366.0637367419585 113.30041481831677
    vertex 348.5557111630249 -366.0637367419585 109.25041481831674
  endloop
endfacet
facet normal -1.0 0.0 0.0
  outer loop
    vertex 349.57914363572786 -268.9611575773157 112.650414818317
    vertex 349.57914363572786 -272.5064980060435 111.25041481831701
    vertex 349.57914363572786 -272.5064980060435 112.650414818317
  endloop
endfacet
facet normal -1.0 0.0 0.0
  outer loop
    vertex 349.57914363572786 -272.5064980060435 111.25041481831701
    vertex 349.57914363572786 -276.0962314462114 109.25041481831701
    vertex 349.57914363572786 -276.0962314462114 111.25041481831701
  endloop
endfacet
facet normal -1.0 0.0 0.0
  outer loop
    vertex 349.57914363572786 -276.0962314462114 109.25041481831701
    vertex 349.57914363572786 -272.5064980060435 111.25041481831701
    vertex 349.57914363572786 -268.9611575773157 109.25041481831701
  endloop
endfacet
facet normal -1.0 0.0 0.0
  outer loop
    vertex 349.57914363572786 -268.9611575773157 109.25041481831701
    vertex 349.57914363572786 -272.5064980060435 111.25041481831701
    vertex 349.57914363572786 -268.9611575773157 112.650414818317
  endloop
endfacet
facet normal 1.0 0.0 0.0
  outer loop
    vertex 427.7905507840795 -318.29497721623903 109.25041481831809
    vertex 427.7905507840795 -323.8900943692137 111.25041481831701
    vertex 427.7905507840795 -323.8900943692137 109.25041481831701
  endloop
endfacet
facet normal 1.0 0.0 0.0
  outer loop
    vertex 427.7905507840795 -323.8900943692137 111.25041481831701
    vertex 427.7905507840795 -318.29497721623903 109.25041481831809
    vertex 427.7905507840795 -318.29497721623903 111.25041481831751
  endloop
endfacet
facet normal 1.0 0.0 0.0
  outer loop
    vertex 427.87914363572804 -269.76438921259387 109.25041481831701
    vertex 427.87914363572804 -272.5064980060435 111.25041481831697
    vertex 427.87914363572804 -272.5064980060435 109.25041481831693
  endloop
endfacet
facet normal 1.0 0.0 0.0
  outer loop
    vertex 427.87914363572804 -272.5064980060435 111.25041481831697
    vertex 427.87914363572804 -269.76438921259387 109.25041481831701
    vertex 427.87914363572804 -272.5064980060435 112.650414818317
  endloop
endfacet
facet normal 1.0 0.0 0.0
  outer loop
    vertex 427.87914363572804 -272.5064980060435 112.650414818317
    vertex 427.87914363572804 -269.76438921259387 109.25041481831701
    vertex 427.87914363572804 -269.76438921259387 112.650414818317
  endloop
endfacet
facet normal 0.445879574146616 0.8950929590600254 -6.366461393327036e-17
  outer loop
    vertex 425.2005507840797 -317.00480049732886 109.25041481831819
    vertex 427.7905507840795 -318.29497721623903 111.25041481831751
    vertex 427.7905507840795 -318.29497721623903 109.25041481831809
  endloop
endfacet
facet normal 0.445879574146616 0.8950929590600254 -6.366461393327036e-17
  outer loop
    vertex 427.7905507840795 -318.29497721623903 111.25041481831751
    vertex 425.2005507840797 -317.00480049732886 109.25041481831819
    vertex 425.2005507840797 -317.00480049732886 111.25041481831764
  endloop
endfacet
facet normal 0.7071067811865476 0.7071067811865476 0.0
  outer loop
    vertex 425.1370348422784 -267.02228041914424 109.25041481831701
    vertex 427.87914363572804 -269.76438921259387 112.650414818317
    vertex 427.87914363572804 -269.76438921259387 109.25041481831701
  endloop
endfacet
facet normal 0.7071067811865476 0.7071067811865476 0.0
  outer loop
    vertex 427.87914363572804 -269.76438921259387 112.650414818317
    vertex 425.1370348422784 -267.02228041914424 109.25041481831701
    vertex 425.1370348422784 -267.02228041914424 112.650414818317
  endloop
endfacet
facet normal -0.7071067811865476 0.7071067811865476 5.788156935524105e-30
  outer loop
    vertex 351.5180207938994 -267.02228041914424 112.650414818317
    vertex 349.57914363572786 -268.9611575773157 109.25041481831701
    vertex 349.57914363572786 -268.9611575773157 112.650414818317
  endloop
endfacet
facet normal -0.7071067811865476 0.7071067811865476 5.788156935524105e-30
  outer loop
    vertex 349.57914363572786 -268.9611575773157 109.25041481831701
    vertex 351.5180207938994 -267.02228041914424 112.650414818317
    vertex 351.5180207938994 -267.02228041914424 109.25041481831701
  endloop
endfacet
facet normal -0.3817433069057516 -0.924268385066081 -2.764013595198645e-18
  outer loop
    vertex 352.99364959349845 -277.5064980060435 111.25041481831701
    vertex 349.57914363572786 -276.0962314462114 109.25041481831701
    vertex 352.99364959349845 -277.5064980060435 109.25041481831701
  endloop
endfacet
facet normal -0.3817433069057516 -0.924268385066081 -2.764013595198645e-18
  outer loop
    vertex 349.57914363572786 -276.0962314462114 109.25041481831701
    vertex 352.99364959349845 -277.5064980060435 111.25041481831701
    vertex 349.57914363572786 -276.0962314462114 111.25041481831701
  endloop
endfacet
facet normal -1.0 1.9852564037126686e-14 -4.5119463720766334e-14
  outer loop
    vertex 419.6228721673378 -319.9160635174237 111.25041481831701
    vertex 419.6228721673369 -369.91606351742536 109.2504148183278
    vertex 419.6228721673367 -369.91606351742536 111.25041481832811
  endloop
endfacet
facet normal -1.0 1.9852564037126686e-14 -4.5119463720766334e-14
  outer loop
    vertex 419.6228721673369 -369.91606351742536 109.2504148183278
    vertex 419.6228721673378 -319.9160635174237 111.25041481831701
    vertex 419.6228721673378 -319.9160635174237 109.25041481831701
  endloop
endfacet
facet normal 0.0 1.0 0.0
  outer loop
    vertex 351.5180207938994 -267.02228041914424 112.650414818317
    vertex 425.1370348422784 -267.02228041914424 109.25041481831701
    vertex 351.5180207938994 -267.02228041914424 109.25041481831701
  endloop
endfacet
facet normal 0.0 1.0 0.0
  outer loop
    vertex 425.1370348422784 -267.02228041914424 109.25041481831701
    vertex 351.5180207938994 -267.02228041914424 112.650414818317
    vertex 425.1370348422784 -267.02228041914424 112.650414818317
  endloop
endfacet
facet normal 0.0 0.0 1.0
  outer loop
    vertex 427.87914363572804 -272.5064980060435 112.650414818317
    vertex 349.57914363572786 -268.9611575773157 112.650414818317
    vertex 349.57914363572786 -272.5064980060435 112.650414818317
  endloop
endfacet
facet normal 0.0 0.0 1.0
  outer loop
    vertex 349.57914363572786 -268.9611575773157 112.650414818317
    vertex 427.87914363572804 -272.5064980060435 112.650414818317
    vertex 351.5180207938994 -267.02228041914424 112.650414818317
  endloop
endfacet
facet normal 0.0 0.0 1.0
  outer loop
    vertex 351.5180207938994 -267.02228041914424 112.650414818317
    vertex 427.87914363572804 -272.5064980060435 112.650414818317
    vertex 425.1370348422784 -267.02228041914424 112.650414818317
  endloop
endfacet
facet normal 0.0 0.0 1.0
  outer loop
    vertex 425.1370348422784 -267.02228041914424 112.650414818317
    vertex 427.87914363572804 -272.5064980060435 112.650414818317
    vertex 427.87914363572804 -269.76438921259387 112.650414818317
  endloop
endfacet
facet normal -0.41082873634227707 0.911712536600988 1.834215718232744e-14
  outer loop
    vertex 348.55571116302514 -366.0637367419585 113.30041481831677
    vertex 351.0421678591533 -364.9433091713905 109.25041481831678
    vertex 348.5557111630249 -366.0637367419585 109.25041481831674
  endloop
endfacet
facet normal -0.41082873634227707 0.911712536600988 1.834215718232744e-14
  outer loop
    vertex 351.0421678591533 -364.9433091713905 109.25041481831678
    vertex 348.55571116302514 -366.0637367419585 113.30041481831677
    vertex 351.0421678591533 -364.9433091713905 111.25041481831674
  endloop
endfacet
facet normal -0.41082873634227707 0.911712536600988 1.834215718232744e-14
  outer loop
    vertex 351.0421678591533 -364.9433091713905 111.25041481831674
    vertex 348.55571116302514 -366.0637367419585 113.30041481831677
    vertex 351.0421678591535 -364.9433091713905 113.30041481831677
  endloop
endfacet
facet normal -0.6666251738058613 -0.7453931009507032 5.1994230884131066e-05
  outer loop
    vertex 351.0366708751625 -372.75727280223384 113.30041481831677
    vertex 348.5667404120376 -370.548629811665 109.25041481831674
    vertex 351.03667089454103 -372.75783782783964 109.2504148183167
  endloop
endfacet
facet normal -0.6666251738058613 -0.7453931009507032 5.1994230884131066e-05
  outer loop
    vertex 348.5667404120376 -370.548629811665 109.25041481831674
    vertex 351.0366708751625 -372.75727280223384 113.30041481831677
    vertex 348.5667404120376 -370.548629811665 113.30041481831672
  endloop
endfacet
facet normal 1.0 0.0 0.0
  outer loop
    vertex 424.5144868517768 -371.06033177568827 109.25041481831701
    vertex 424.51448685177616 -372.7560635174251 113.30041481831265
    vertex 424.5144868517768 -372.75606351742516 109.25041481831701
  endloop
endfacet
facet normal 1.0 0.0 0.0
  outer loop
    vertex 424.51448685177616 -372.7560635174251 113.30041481831265
    vertex 424.5144868517768 -371.06033177568827 109.25041481831701
    vertex 424.51448685177616 -371.0603317756882 113.30041481831265
  endloop
endfacet
facet normal -0.18953567539524135 -0.9818738349464609 8.97042223308586e-14
  outer loop
    vertex 425.50032626136493 -371.25063294441 113.30041481831223
    vertex 424.5144868517768 -371.06033177568827 109.25041481831701
    vertex 425.50032626136556 -371.2506329444101 109.25041481831661
  endloop
endfacet
facet normal -0.18953567539524135 -0.9818738349464609 8.97042223308586e-14
  outer loop
    vertex 424.5144868517768 -371.06033177568827 109.25041481831701
    vertex 425.50032626136493 -371.25063294441 113.30041481831223
    vertex 424.51448685177616 -371.0603317756882 113.30041481831265
  endloop
endfacet
facet normal 0.21249082275342177 -0.9771630622601195 8.86543653226154e-14
  outer loop
    vertex 426.4963976772619 -371.0340303702239 113.30041481831223
    vertex 425.50032626136556 -371.2506329444101 109.25041481831661
    vertex 426.4963976772625 -371.034030370224 109.25041481831661
  endloop
endfacet
facet normal 0.21249082275342177 -0.9771630622601195 8.86543653226154e-14
  outer loop
    vertex 425.50032626136556 -371.2506329444101 109.25041481831661
    vertex 426.4963976772619 -371.0340303702239 113.30041481831223
    vertex 425.50032626136493 -371.25063294441 113.30041481831223
  endloop
endfacet
facet normal 0.5555702330196424 -0.8314696123025185 7.485736488576601e-14
  outer loop
    vertex 427.2680932143313 -370.51839989737636 113.30041481831223
    vertex 426.4963976772625 -371.034030370224 109.25041481831661
    vertex 427.26809321433194 -370.51839989737647 109.25041481831661
  endloop
endfacet
facet normal 0.5555702330196424 -0.8314696123025185 7.485736488576601e-14
  outer loop
    vertex 426.4963976772625 -371.034030370224 109.25041481831661
    vertex 427.2680932143313 -370.51839989737636 113.30041481831223
    vertex 426.4963976772619 -371.0340303702239 113.30041481831223
  endloop
endfacet
facet normal 0.8314696123025085 -0.5555702330196575 4.930728930133393e-14
  outer loop
    vertex 427.8100250926439 -369.7073415253228 109.25041481831661
    vertex 427.2680932143313 -370.51839989737636 113.30041481831223
    vertex 427.26809321433194 -370.51839989737647 109.25041481831661
  endloop
endfacet
facet normal 0.8314696123025085 -0.5555702330196575 4.930728930133393e-14
  outer loop
    vertex 427.2680932143313 -370.51839989737636 113.30041481831223
    vertex 427.8100250926439 -369.7073415253228 109.25041481831661
    vertex 427.8100250926433 -369.7073415253227 113.30041481831223
  endloop
endfacet
facet normal 0.9807852804032383 -0.19509032201608922 -2.814280587977603e-19
  outer loop
    vertex 427.87914363572855 -369.35985914403494 109.25041481831684
    vertex 427.8100250926433 -369.7073415253227 113.30041481831223
    vertex 427.8100250926439 -369.7073415253228 109.25041481831661
  endloop
endfacet
facet normal 0.9807852804032383 -0.19509032201608922 -2.814280587977603e-19
  outer loop
    vertex 427.8100250926433 -369.7073415253227 113.30041481831223
    vertex 427.87914363572855 -369.35985914403494 109.25041481831684
    vertex 427.8791436357279 -369.35985914403483 113.30041481831243
  endloop
endfacet
facet normal 0.9807852804032448 -0.19509032201605686 1.092730333389372e-19
  outer loop
    vertex 427.87914363572804 -275.3096389211978 109.25041481831684
    vertex 427.8100250926439 -275.657121302483 111.24041481831664
    vertex 427.8100250926439 -275.657121302483 109.25041481831661
  endloop
endfacet
facet normal 0.9807852804032448 -0.19509032201605686 1.092730333389372e-19
  outer loop
    vertex 427.8100250926439 -275.657121302483 111.24041481831664
    vertex 427.87914363572804 -275.3096389211978 109.25041481831684
    vertex 427.87914363572804 -275.3096389211978 111.24041481831686
  endloop
endfacet
facet normal 0.831469612302499 -0.5555702330196713 1.312130177819235e-18
  outer loop
    vertex 427.8100250926439 -275.657121302483 109.25041481831661
    vertex 427.31987396781574 -276.39068430047763 111.24041481831686
    vertex 427.31987396781574 -276.39068430047763 109.25041481831684
  endloop
endfacet
facet normal 0.831469612302499 -0.5555702330196713 1.312130177819235e-18
  outer loop
    vertex 427.31987396781574 -276.39068430047763 111.24041481831686
    vertex 427.8100250926439 -275.657121302483 109.25041481831661
    vertex 427.8100250926439 -275.657121302483 111.24041481831664
  endloop
endfacet
facet normal 0.46913205380771805 -0.883127530237873 0.000938842962032145
  outer loop
    vertex 427.31987396781574 -276.39068430047763 109.25041481831684
    vertex 425.97693975804094 -277.10195575676266 111.24675965054399
    vertex 425.978680551822 -277.10526213720937 109.25041481831661
  endloop
endfacet
facet normal 0.46913205380771805 -0.883127530237873 0.000938842962032145
  outer loop
    vertex 425.97693975804094 -277.10195575676266 111.24675965054399
    vertex 427.31987396781574 -276.39068430047763 109.25041481831684
    vertex 427.31987396781574 -276.39068430047763 111.24041481831686
  endloop
endfacet
facet normal 0.9999590608252364 0.009048573009652562 -2.434190629816702e-18
  outer loop
    vertex 424.9333270694407 -287.4738706550591 109.25041481831742
    vertex 425.2005507840797 -317.00480049732886 111.25041481831764
    vertex 425.2005507840797 -317.00480049732886 109.25041481831819
  endloop
endfacet
facet normal 0.9999590608252364 0.009048573009652562 -2.434190629816702e-18
  outer loop
    vertex 425.2005507840797 -317.00480049732886 111.25041481831764
    vertex 424.9333270694407 -287.4738706550591 109.25041481831742
    vertex 424.9333270694407 -287.4738706550591 111.25041481831748
  endloop
endfacet
facet normal 0.10280760118937153 -0.9947008824403041 0.0008669545361787872
  outer loop
    vertex 425.97693975804094 -277.10195575676266 111.24675965054399
    vertex 424.8405507840797 -277.22115046620166 109.25041481831715
    vertex 425.978680551822 -277.10526213720937 109.25041481831661
  endloop
endfacet
facet normal 0.10280760118937153 -0.9947008824403041 0.0008669545361787872
  outer loop
    vertex 424.8405507840797 -277.22115046620166 109.25041481831715
    vertex 425.97693975804094 -277.10195575676266 111.24675965054399
    vertex 424.8405507840797 -277.22115046620166 111.2504148183171
  endloop
endfacet
facet normal 1.0 0.0 0.0
  outer loop
    vertex 427.87914363572804 -272.5064980060435 109.25041481831693
    vertex 427.87914363572804 -275.3096389211978 111.24041481831686
    vertex 427.87914363572804 -275.3096389211978 109.25041481831684
  endloop
endfacet
facet normal 1.0 0.0 0.0
  outer loop
    vertex 427.87914363572804 -275.3096389211978 111.24041481831686
    vertex 427.87914363572804 -272.5064980060435 109.25041481831693
    vertex 427.87914363572804 -272.5064980060435 111.25041481831697
  endloop
endfacet
facet normal 0.003449648337256475 -0.002223297871214624 0.999991578401001
  outer loop
    vertex 427.87914363572804 -272.5064980060435 111.25041481831697
    vertex 424.8405507840797 -277.22115046620166 111.2504148183171
    vertex 425.97693975804094 -277.10195575676266 111.24675965054399
  endloop
endfacet
facet normal 0.006590620363840484 -0.0035234290445665356 0.9999720741955685
  outer loop
    vertex 427.87914363572804 -272.5064980060435 111.25041481831697
    vertex 425.97693975804094 -277.10195575676266 111.24675965054399
    vertex 427.31987396781574 -276.39068430047763 111.24041481831686
  endloop
endfacet
facet normal 0.004911359392151104 -0.003281665428672741 0.9999825544582944
  outer loop
    vertex 427.87914363572804 -272.5064980060435 111.25041481831697
    vertex 427.31987396781574 -276.39068430047763 111.24041481831686
    vertex 427.8100250926439 -275.657121302483 111.24041481831664
  endloop
endfacet
facet normal 0.017931667855357564 -0.003566830504822658 0.9998328525349001
  outer loop
    vertex 427.87914363572804 -272.5064980060435 111.25041481831697
    vertex 427.8100250926439 -275.657121302483 111.24041481831664
    vertex 427.87914363572804 -275.3096389211978 111.24041481831686
  endloop
endfacet
facet normal -1.0 3.3032232628526854e-15 -9.023892744153085e-14
  outer loop
    vertex 352.99364959349845 -287.42912411696926 111.25041481831701
    vertex 352.99364959349845 -342.0660167886467 109.25041481831688
    vertex 352.9936495934981 -342.0660167886467 111.25041481831701
  endloop
endfacet
facet normal -1.0 3.3032232628526854e-15 -9.023892744153085e-14
  outer loop
    vertex 352.99364959349845 -342.0660167886467 109.25041481831688
    vertex 352.99364959349845 -287.42912411696926 111.25041481831701
    vertex 352.99364959349845 -287.42912411696926 109.25041481831697
  endloop
endfacet
facet normal -0.8099087436378531 -0.5865559026886987 -2.2544519989394026e-19
  outer loop
    vertex 349.6005564253455 -285.1758849770831 111.25041481831701
    vertex 350.56055642534545 -286.50144046178343 109.25041481831701
    vertex 350.56055642534545 -286.50144046178343 111.25041481831701
  endloop
endfacet
facet normal -0.8099087436378531 -0.5865559026886987 -2.2544519989394026e-19
  outer loop
    vertex 350.56055642534545 -286.50144046178343 109.25041481831701
    vertex 349.6005564253455 -285.1758849770831 111.25041481831701
    vertex 349.6005564253455 -285.1758849770831 109.25041481831701
  endloop
endfacet
facet normal -0.27766299686965934 0.960678541536845 1.2642626540406094e-17
  outer loop
    vertex 350.56055642534545 -282.7699053170043 109.25041481831705
    vertex 352.99364959349845 -282.0666732664042 111.25041481831701
    vertex 352.99364959349845 -282.0666732664042 109.250414818317
  endloop
endfacet
facet normal -0.27766299686965934 0.960678541536845 1.2642626540406094e-17
  outer loop
    vertex 352.99364959349845 -282.0666732664042 111.25041481831701
    vertex 350.56055642534545 -282.7699053170043 109.25041481831705
    vertex 350.56055642534545 -282.7699053170043 111.25041481831701
  endloop
endfacet
facet normal -0.35626059195407367 -0.9343866387211095 8.810764661133492e-18
  outer loop
    vertex 352.99364959349845 -287.42912411696926 111.25041481831701
    vertex 350.56055642534545 -286.50144046178343 109.25041481831701
    vertex 352.99364959349845 -287.42912411696926 109.25041481831697
  endloop
endfacet
facet normal -0.35626059195407367 -0.9343866387211095 8.810764661133492e-18
  outer loop
    vertex 350.56055642534545 -286.50144046178343 109.25041481831701
    vertex 352.99364959349845 -287.42912411696926 111.25041481831701
    vertex 350.56055642534545 -286.50144046178343 111.25041481831701
  endloop
endfacet
facet normal -0.7648522080889538 0.6442057899316427 -3.701887834660305e-18
  outer loop
    vertex 350.56055642534545 -282.7699053170043 111.25041481831701
    vertex 349.6505564253454 -283.8503294923828 109.25041481831704
    vertex 349.6505564253454 -283.8503294923828 111.25041481831701
  endloop
endfacet
facet normal -0.7648522080889538 0.6442057899316427 -3.701887834660305e-18
  outer loop
    vertex 349.6505564253454 -283.8503294923828 109.25041481831704
    vertex 350.56055642534545 -282.7699053170043 111.25041481831701
    vertex 350.56055642534545 -282.7699053170043 109.25041481831705
  endloop
endfacet
facet normal -0.9992893576963658 0.03769323009221525 2.9291604359376824e-20
  outer loop
    vertex 349.6505564253454 -283.8503294923828 111.25041481831701
    vertex 349.6005564253455 -285.1758849770831 109.25041481831701
    vertex 349.6005564253455 -285.1758849770831 111.25041481831701
  endloop
endfacet
facet normal -0.9992893576963658 0.03769323009221525 2.9291604359376824e-20
  outer loop
    vertex 349.6005564253455 -285.1758849770831 109.25041481831701
    vertex 349.6505564253454 -283.8503294923828 111.25041481831701
    vertex 349.6505564253454 -283.8503294923828 109.25041481831704
  endloop
endfacet
facet normal 0.8105488788493616 -0.5856709955222666 5.4858095646889976e-14
  outer loop
    vertex 427.8100250926439 -285.65712130248295 109.25041481831701
    vertex 426.5162278743369 -287.4476929592233 111.25041481831748
    vertex 426.5162278743369 -287.4476929592233 109.25041481831742
  endloop
endfacet
facet normal 0.8105488788493616 -0.5856709955222666 5.4858095646889976e-14
  outer loop
    vertex 426.5162278743369 -287.4476929592233 111.25041481831748
    vertex 427.8100250926439 -285.65712130248295 109.25041481831701
    vertex 427.8100250926436 -285.65712130248295 111.25041481831742
  endloop
endfacet
facet normal 0.016535538237611086 -0.9998632786412314 -1.2721797960968173e-28
  outer loop
    vertex 426.5162278743369 -287.4476929592233 111.25041481831748
    vertex 424.9333270694407 -287.4738706550591 109.25041481831742
    vertex 426.5162278743369 -287.4476929592233 109.25041481831742
  endloop
endfacet
facet normal 0.016535538237611086 -0.9998632786412314 -1.2721797960968173e-28
  outer loop
    vertex 424.9333270694407 -287.4738706550591 109.25041481831742
    vertex 426.5162278743369 -287.4476929592233 111.25041481831748
    vertex 424.9333270694407 -287.4738706550591 111.25041481831748
  endloop
endfacet
facet normal 0.9999590608252364 0.009048573009653803 5.656274933534039e-15
  outer loop
    vertex 424.88671231916214 -282.3224681234711 109.25041481831715
    vertex 424.8405507840797 -277.22115046620166 111.2504148183171
    vertex 424.8869389267602 -282.34751056063044 111.25041481831728
  endloop
endfacet
facet normal 0.9999590608252364 0.009048573009653803 5.656274933534039e-15
  outer loop
    vertex 424.8405507840797 -277.22115046620166 111.2504148183171
    vertex 424.88671231916214 -282.3224681234711 109.25041481831715
    vertex 424.8405507840797 -277.22115046620166 109.25041481831715
  endloop
endfacet
facet normal 9.202962544211953e-15 -8.575488177258432e-15 -1.0
  outer loop
    vertex 418.86191082399944 -315.6764980060435 109.25041481831701
    vertex 401.39055078407955 -319.9160635174237 109.25041481831701
    vertex 359.70191082399975 -315.6764980060435 109.25041481831701
  endloop
endfacet
facet normal 9.202962544211953e-15 -8.575488177258432e-15 -1.0
  outer loop
    vertex 401.39055078407955 -319.9160635174237 109.25041481831701
    vertex 418.86191082399944 -315.6764980060435 109.25041481831701
    vertex 419.6228721673378 -319.9160635174237 109.25041481831701
  endloop
endfacet
facet normal 9.202962544211953e-15 -8.575488177258432e-15 -1.0
  outer loop
    vertex 356.594521932282 -321.9160635174237 109.25041481831661
    vertex 359.70191082399975 -315.6764980060435 109.25041481831701
    vertex 401.39055078407955 -321.9160635174237 109.25041481831661
  endloop
endfacet
facet normal 9.202962544211953e-15 -8.575488177258432e-15 -1.0
  outer loop
    vertex 359.70191082399975 -315.6764980060435 109.25041481831701
    vertex 356.594521932282 -321.9160635174237 109.25041481831661
    vertex 359.70191082399975 -272.5064980060435 109.25041481831701
  endloop
endfacet
facet normal 9.202962544211953e-15 -8.575488177258432e-15 -1.0
  outer loop
    vertex 401.39055078407955 -321.9160635174237 109.25041481831661
    vertex 359.70191082399975 -315.6764980060435 109.25041481831701
    vertex 401.39055078407955 -319.9160635174237 109.25041481831701
  endloop
endfacet
facet normal 9.202962544211953e-15 -8.575488177258432e-15 -1.0
  outer loop
    vertex 352.99364959349845 -342.0660167886467 109.25041481831688
    vertex 351.0421678591533 -364.9433091713905 109.25041481831678
    vertex 350.99364959349845 -345.2140208813157 109.25041481831688
  endloop
endfacet
facet normal 9.202962544211953e-15 -8.575488177258432e-15 -1.0
  outer loop
    vertex 356.59287216733827 -357.6625447532311 109.25041481831643
    vertex 356.59287216733793 -369.91606351742536 109.25041481831643
    vertex 354.1431041834035 -354.86443594194174 109.25041481831684
  endloop
endfacet
facet normal 9.202962544211953e-15 -8.575488177258432e-15 -1.0
  outer loop
    vertex 351.0421678591533 -364.9433091713905 109.25041481831678
    vertex 348.5667404120376 -370.548629811665 109.25041481831674
    vertex 348.5557111630249 -366.0637367419585 109.25041481831674
  endloop
endfacet
facet normal 9.202962544211953e-15 -8.575488177258432e-15 -1.0
  outer loop
    vertex 348.5667404120376 -370.548629811665 109.25041481831674
    vertex 351.0421678591533 -364.9433091713905 109.25041481831678
    vertex 351.03667089454103 -372.75783782783964 109.2504148183167
  endloop
endfacet
facet normal 9.202962544211953e-15 -8.575488177258432e-15 -1.0
  outer loop
    vertex 351.03667089454103 -372.75783782783964 109.2504148183167
    vertex 351.0421678591533 -364.9433091713905 109.25041481831678
    vertex 356.59287216733793 -369.91606351742536 109.25041481831643
  endloop
endfacet
facet normal 9.202962544211953e-15 -8.575488177258432e-15 -1.0
  outer loop
    vertex 351.03667089454103 -372.75783782783964 109.2504148183167
    vertex 356.59287216733793 -369.91606351742536 109.25041481831643
    vertex 419.6228721673378 -372.75606351742516 109.25041481831701
  endloop
endfacet
facet normal 9.202962544211953e-15 -8.575488177258432e-15 -1.0
  outer loop
    vertex 356.59287216733793 -369.91606351742536 109.25041481831643
    vertex 351.0421678591533 -364.9433091713905 109.25041481831678
    vertex 354.1431041834035 -354.86443594194174 109.25041481831684
  endloop
endfacet
facet normal 9.202962544211953e-15 -8.575488177258432e-15 -1.0
  outer loop
    vertex 354.1431041834035 -354.86443594194174 109.25041481831684
    vertex 351.0421678591533 -364.9433091713905 109.25041481831678
    vertex 352.99364959349845 -342.0660167886467 109.25041481831688
  endloop
endfacet
facet normal 9.202962544211953e-15 -8.575488177258432e-15 -1.0
  outer loop
    vertex 354.1431041834035 -354.86443594194174 109.25041481831684
    vertex 352.99364959349845 -342.0660167886467 109.25041481831688
    vertex 354.1431041834035 -345.2140208813157 109.25041481831684
  endloop
endfacet
facet normal 9.202962544211953e-15 -8.575488177258432e-15 -1.0
  outer loop
    vertex 419.6228721673378 -372.75606351742516 109.25041481831701
    vertex 356.59287216733793 -369.91606351742536 109.25041481831643
    vertex 419.6228721673369 -369.91606351742536 109.2504148183278
  endloop
endfacet
facet normal 9.202962544211953e-15 -8.575488177258432e-15 -1.0
  outer loop
    vertex 351.5180207938994 -267.02228041914424 109.25041481831701
    vertex 349.57914363572786 -276.0962314462114 109.25041481831701
    vertex 349.57914363572786 -268.9611575773157 109.25041481831701
  endloop
endfacet
facet normal 9.202962544211953e-15 -8.575488177258432e-15 -1.0
  outer loop
    vertex 349.57914363572786 -276.0962314462114 109.25041481831701
    vertex 351.5180207938994 -267.02228041914424 109.25041481831701
    vertex 352.99364959349845 -277.5064980060435 109.25041481831701
  endloop
endfacet
facet normal 9.202962544211953e-15 -8.575488177258432e-15 -1.0
  outer loop
    vertex 352.99364959349845 -277.5064980060435 109.25041481831701
    vertex 351.5180207938994 -267.02228041914424 109.25041481831701
    vertex 359.70191082399975 -272.5064980060435 109.25041481831701
  endloop
endfacet
facet normal 9.202962544211953e-15 -8.575488177258432e-15 -1.0
  outer loop
    vertex 359.70191082399975 -272.5064980060435 109.25041481831701
    vertex 351.5180207938994 -267.02228041914424 109.25041481831701
    vertex 425.1370348422784 -267.02228041914424 109.25041481831701
  endloop
endfacet
facet normal 9.202962544211953e-15 -8.575488177258432e-15 -1.0
  outer loop
    vertex 352.99364959349845 -277.5064980060435 109.25041481831701
    vertex 359.70191082399975 -272.5064980060435 109.25041481831701
    vertex 352.99364959349845 -282.0666732664042 109.250414818317
  endloop
endfacet
facet normal 9.202962544211953e-15 -8.575488177258432e-15 -1.0
  outer loop
    vertex 352.99364959349845 -282.0666732664042 109.250414818317
    vertex 359.70191082399975 -272.5064980060435 109.25041481831701
    vertex 352.99364959349845 -287.42912411696926 109.25041481831697
  endloop
endfacet
facet normal 9.202962544211953e-15 -8.575488177258432e-15 -1.0
  outer loop
    vertex 352.99364959349845 -287.42912411696926 109.25041481831697
    vertex 359.70191082399975 -272.5064980060435 109.25041481831701
    vertex 352.99364959349845 -342.0660167886467 109.25041481831688
  endloop
endfacet
facet normal 9.202962544211953e-15 -8.575488177258432e-15 -1.0
  outer loop
    vertex 352.99364959349845 -342.0660167886467 109.25041481831688
    vertex 359.70191082399975 -272.5064980060435 109.25041481831701
    vertex 354.1431041834035 -345.2140208813157 109.25041481831684
  endloop
endfacet
facet normal 9.202962544211953e-15 -8.575488177258432e-15 -1.0
  outer loop
    vertex 354.1431041834035 -345.2140208813157 109.25041481831684
    vertex 359.70191082399975 -272.5064980060435 109.25041481831701
    vertex 356.594521932282 -321.9160635174237 109.25041481831661
  endloop
endfacet
facet normal 9.202962544211953e-15 -8.575488177258432e-15 -1.0
  outer loop
    vertex 359.70191082399975 -272.5064980060435 109.25041481831701
    vertex 425.1370348422784 -267.02228041914424 109.25041481831701
    vertex 418.86191082399944 -272.5064980060435 109.25041481831701
  endloop
endfacet
facet normal 9.202962544211953e-15 -8.575488177258432e-15 -1.0
  outer loop
    vertex 418.86191082399944 -272.5064980060435 109.25041481831701
    vertex 425.1370348422784 -267.02228041914424 109.25041481831701
    vertex 418.86191082399944 -315.6764980060435 109.25041481831701
  endloop
endfacet
facet normal 9.202962544211953e-15 -8.575488177258432e-15 -1.0
  outer loop
    vertex 418.86191082399944 -315.6764980060435 109.25041481831701
    vertex 425.1370348422784 -267.02228041914424 109.25041481831701
    vertex 419.6228721673378 -319.9160635174237 109.25041481831701
  endloop
endfacet
facet normal 9.202962544211953e-15 -8.575488177258432e-15 -1.0
  outer loop
    vertex 419.6228721673378 -319.9160635174237 109.25041481831701
    vertex 425.1370348422784 -267.02228041914424 109.25041481831701
    vertex 419.6228721673378 -372.75606351742516 109.25041481831701
  endloop
endfacet
facet normal 9.202962544211953e-15 -8.575488177258432e-15 -1.0
  outer loop
    vertex 419.6228721673378 -372.75606351742516 109.25041481831701
    vertex 425.1370348422784 -267.02228041914424 109.25041481831701
    vertex 424.8405507840797 -277.22115046620166 109.25041481831715
  endloop
endfacet
facet normal 9.202962544211953e-15 -8.575488177258432e-15 -1.0
  outer loop
    vertex 419.6228721673378 -372.75606351742516 109.25041481831701
    vertex 424.8405507840797 -277.22115046620166 109.25041481831715
    vertex 424.1012429586492 -326.65434974258636 109.25041481831701
  endloop
endfacet
facet normal 9.202962544211953e-15 -8.575488177258432e-15 -1.0
  outer loop
    vertex 424.8405507840797 -277.22115046620166 109.25041481831715
    vertex 425.1370348422784 -267.02228041914424 109.25041481831701
    vertex 425.978680551822 -277.10526213720937 109.25041481831661
  endloop
endfacet
facet normal 9.202962544211953e-15 -8.575488177258432e-15 -1.0
  outer loop
    vertex 425.978680551822 -277.10526213720937 109.25041481831661
    vertex 425.1370348422784 -267.02228041914424 109.25041481831701
    vertex 427.87914363572804 -269.76438921259387 109.25041481831701
  endloop
endfacet
facet normal 9.202962544211953e-15 -8.575488177258432e-15 -1.0
  outer loop
    vertex 425.978680551822 -277.10526213720937 109.25041481831661
    vertex 427.87914363572804 -269.76438921259387 109.25041481831701
    vertex 427.31987396781574 -276.39068430047763 109.25041481831684
  endloop
endfacet
facet normal 9.202962544211953e-15 -8.575488177258432e-15 -1.0
  outer loop
    vertex 427.31987396781574 -276.39068430047763 109.25041481831684
    vertex 427.87914363572804 -269.76438921259387 109.25041481831701
    vertex 427.8100250926439 -275.657121302483 109.25041481831661
  endloop
endfacet
facet normal 9.202962544211953e-15 -8.575488177258432e-15 -1.0
  outer loop
    vertex 427.8100250926439 -275.657121302483 109.25041481831661
    vertex 427.87914363572804 -269.76438921259387 109.25041481831701
    vertex 427.87914363572804 -275.3096389211978 109.25041481831684
  endloop
endfacet
facet normal 9.202962544211953e-15 -8.575488177258432e-15 -1.0
  outer loop
    vertex 427.87914363572804 -275.3096389211978 109.25041481831684
    vertex 427.87914363572804 -269.76438921259387 109.25041481831701
    vertex 427.87914363572804 -272.5064980060435 109.25041481831693
  endloop
endfacet
facet normal 9.202962544211953e-15 -8.575488177258432e-15 -1.0
  outer loop
    vertex 426.6196131240583 -282.29629042763526 109.25041481831715
    vertex 424.9333270694407 -287.4738706550591 109.25041481831742
    vertex 424.88671231916214 -282.3224681234711 109.25041481831715
  endloop
endfacet
facet normal 9.202962544211953e-15 -8.575488177258432e-15 -1.0
  outer loop
    vertex 424.9333270694407 -287.4738706550591 109.25041481831742
    vertex 426.6196131240583 -282.29629042763526 109.25041481831715
    vertex 426.5162278743369 -287.4476929592233 109.25041481831742
  endloop
endfacet
facet normal 9.202962544211953e-15 -8.575488177258432e-15 -1.0
  outer loop
    vertex 426.5162278743369 -287.4476929592233 109.25041481831742
    vertex 426.6196131240583 -282.29629042763526 109.25041481831715
    vertex 427.8100250926439 -285.65712130248295 109.25041481831701
  endloop
endfacet
facet normal 9.202962544211953e-15 -8.575488177258432e-15 -1.0
  outer loop
    vertex 427.8100250926439 -285.65712130248295 109.25041481831701
    vertex 426.6196131240583 -282.29629042763526 109.25041481831715
    vertex 427.8100250926439 -283.7437041406575 109.25041481831701
  endloop
endfacet
facet normal 9.202962544211953e-15 -8.575488177258432e-15 -1.0
  outer loop
    vertex 424.1012429586492 -326.65434974258636 109.25041481831701
    vertex 425.2005507840797 -317.00480049732886 109.25041481831819
    vertex 427.7905507840795 -323.8900943692137 109.25041481831701
  endloop
endfacet
facet normal 9.202962544211953e-15 -8.575488177258432e-15 -1.0
  outer loop
    vertex 425.2005507840797 -317.00480049732886 109.25041481831819
    vertex 424.1012429586492 -326.65434974258636 109.25041481831701
    vertex 424.9333270694407 -287.4738706550591 109.25041481831742
  endloop
endfacet
facet normal 9.202962544211953e-15 -8.575488177258432e-15 -1.0
  outer loop
    vertex 424.9333270694407 -287.4738706550591 109.25041481831742
    vertex 424.1012429586492 -326.65434974258636 109.25041481831701
    vertex 424.8405507840797 -277.22115046620166 109.25041481831715
  endloop
endfacet
facet normal 9.202962544211953e-15 -8.575488177258432e-15 -1.0
  outer loop
    vertex 424.9333270694407 -287.4738706550591 109.25041481831742
    vertex 424.8405507840797 -277.22115046620166 109.25041481831715
    vertex 424.88671231916214 -282.3224681234711 109.25041481831715
  endloop
endfacet
facet normal 9.202962544211953e-15 -8.575488177258432e-15 -1.0
  outer loop
    vertex 427.7905507840795 -323.8900943692137 109.25041481831701
    vertex 425.2005507840797 -317.00480049732886 109.25041481831819
    vertex 427.7905507840795 -318.29497721623903 109.25041481831809
  endloop
endfacet
facet normal 9.202962544211953e-15 -8.575488177258432e-15 -1.0
  outer loop
    vertex 427.87914363572855 -364.58401005737363 109.25041481831701
    vertex 424.5144868517768 -371.06033177568827 109.25041481831701
    vertex 424.1012429586492 -362.55434974258634 109.25041481831701
  endloop
endfacet
facet normal 9.202962544211953e-15 -8.575488177258432e-15 -1.0
  outer loop
    vertex 424.5144868517768 -371.06033177568827 109.25041481831701
    vertex 427.87914363572855 -364.58401005737363 109.25041481831701
    vertex 425.50032626136556 -371.2506329444101 109.25041481831661
  endloop
endfacet
facet normal 9.202962544211953e-15 -8.575488177258432e-15 -1.0
  outer loop
    vertex 425.50032626136556 -371.2506329444101 109.25041481831661
    vertex 427.87914363572855 -364.58401005737363 109.25041481831701
    vertex 426.4963976772625 -371.034030370224 109.25041481831661
  endloop
endfacet
facet normal 9.202962544211953e-15 -8.575488177258432e-15 -1.0
  outer loop
    vertex 426.4963976772625 -371.034030370224 109.25041481831661
    vertex 427.87914363572855 -364.58401005737363 109.25041481831701
    vertex 427.26809321433194 -370.51839989737647 109.25041481831661
  endloop
endfacet
facet normal 9.202962544211953e-15 -8.575488177258432e-15 -1.0
  outer loop
    vertex 427.26809321433194 -370.51839989737647 109.25041481831661
    vertex 427.87914363572855 -364.58401005737363 109.25041481831701
    vertex 427.8100250926439 -369.7073415253228 109.25041481831661
  endloop
endfacet
facet normal 9.202962544211953e-15 -8.575488177258432e-15 -1.0
  outer loop
    vertex 427.8100250926439 -369.7073415253228 109.25041481831661
    vertex 427.87914363572855 -364.58401005737363 109.25041481831701
    vertex 427.87914363572855 -369.35985914403494 109.25041481831684
  endloop
endfacet
facet normal 9.202962544211953e-15 -8.575488177258432e-15 -1.0
  outer loop
    vertex 419.6228721673378 -372.75606351742516 109.25041481831701
    vertex 424.1012429586492 -362.55434974258634 109.25041481831701
    vertex 424.5144868517768 -372.75606351742516 109.25041481831701
  endloop
endfacet
facet normal 9.202962544211953e-15 -8.575488177258432e-15 -1.0
  outer loop
    vertex 424.1012429586492 -362.55434974258634 109.25041481831701
    vertex 419.6228721673378 -372.75606351742516 109.25041481831701
    vertex 424.1012429586492 -326.65434974258636 109.25041481831701
  endloop
endfacet
facet normal 9.202962544211953e-15 -8.575488177258432e-15 -1.0
  outer loop
    vertex 424.5144868517768 -372.75606351742516 109.25041481831701
    vertex 424.1012429586492 -362.55434974258634 109.25041481831701
    vertex 424.5144868517768 -371.06033177568827 109.25041481831701
  endloop
endfacet
facet normal 9.202962544211953e-15 -8.575488177258432e-15 -1.0
  outer loop
    vertex 419.6228721673378 -372.75606351742516 109.25041481831701
    vertex 419.6228721673369 -369.91606351742536 109.2504148183278
    vertex 419.6228721673378 -319.9160635174237 109.25041481831701
  endloop
endfacet
facet normal 9.202962544211953e-15 -8.575488177258432e-15 -1.0
  outer loop
    vertex 349.6505564253454 -283.8503294923828 109.25041481831704
    vertex 350.56055642534545 -286.50144046178343 109.25041481831701
    vertex 349.6005564253455 -285.1758849770831 109.25041481831701
  endloop
endfacet
facet normal 9.202962544211953e-15 -8.575488177258432e-15 -1.0
  outer loop
    vertex 350.56055642534545 -286.50144046178343 109.25041481831701
    vertex 349.6505564253454 -283.8503294923828 109.25041481831704
    vertex 350.56055642534545 -282.7699053170043 109.25041481831705
  endloop
endfacet
facet normal 9.202962544211953e-15 -8.575488177258432e-15 -1.0
  outer loop
    vertex 350.56055642534545 -286.50144046178343 109.25041481831701
    vertex 350.56055642534545 -282.7699053170043 109.25041481831705
    vertex 352.99364959349845 -282.0666732664042 109.250414818317
  endloop
endfacet
facet normal 9.202962544211953e-15 -8.575488177258432e-15 -1.0
  outer loop
    vertex 350.56055642534545 -286.50144046178343 109.25041481831701
    vertex 352.99364959349845 -282.0666732664042 109.250414818317
    vertex 352.99364959349845 -287.42912411696926 109.25041481831697
  endloop
endfacet
facet normal 9.202962544211953e-15 -8.575488177258432e-15 -1.0
  outer loop
    vertex 356.594521932282 -342.64632716506304 109.25041481831678
    vertex 354.1431041834035 -345.2140208813157 109.25041481831684
    vertex 356.594521932282 -321.9160635174237 109.25041481831661
  endloop
endfacet
facet normal 3.574522342200634e-14 1.9274354867075042e-14 1.0
  outer loop
    vertex 426.5162278743369 -287.4476929592233 111.25041481831748
    vertex 424.9333270694407 -282.34751056063044 111.25041481831748
    vertex 424.9333270694407 -287.4738706550591 111.25041481831748
  endloop
endfacet
facet normal 3.574522342200634e-14 1.9274354867075042e-14 1.0
  outer loop
    vertex 424.9333270694407 -282.34751056063044 111.25041481831748
    vertex 426.5162278743369 -287.4476929592233 111.25041481831748
    vertex 426.6198397316564 -282.32133286479456 111.25041481831728
  endloop
endfacet
facet normal 3.574522342200634e-14 1.9274354867075042e-14 1.0
  outer loop
    vertex 426.6198397316564 -282.32133286479456 111.25041481831728
    vertex 426.5162278743369 -287.4476929592233 111.25041481831748
    vertex 427.8100250926436 -285.65712130248295 111.25041481831742
  endloop
endfacet
facet normal 3.574522342200634e-14 1.9274354867075042e-14 1.0
  outer loop
    vertex 426.6198397316564 -282.32133286479456 111.25041481831728
    vertex 427.8100250926436 -285.65712130248295 111.25041481831742
    vertex 427.80136859960436 -283.74378247277355 111.25041481831735
  endloop
endfacet
facet normal -0.015214317061442384 0.9998045845300098 0.012622096067163054
  outer loop
    vertex 424.8869389267602 -282.34751056063044 111.25041481831728
    vertex 426.6196131240583 -282.29629042763526 109.25041481831715
    vertex 424.88671231916214 -282.3224681234711 109.25041481831715
  endloop
endfacet
facet normal -0.015214317061442384 0.9998045845300098 0.012622096067163054
  outer loop
    vertex 426.6196131240583 -282.29629042763526 109.25041481831715
    vertex 424.8869389267602 -282.34751056063044 111.25041481831728
    vertex 426.6198397316564 -282.32133286479456 111.25041481831728
  endloop
endfacet
facet normal -0.015214317061442384 0.9998045845300098 0.012622096067163054
  outer loop
    vertex 426.6198397316564 -282.32133286479456 111.25041481831728
    vertex 424.8869389267602 -282.34751056063044 111.25041481831728
    vertex 424.9333270694407 -282.34751056063044 111.25041481831748
  endloop
endfacet
facet normal 0.9999950997888597 0.0022620395557453846 0.0021641569528803705
  outer loop
    vertex 427.8100250926439 -283.7437041406575 109.25041481831701
    vertex 427.8100250926436 -285.65712130248295 111.25041481831742
    vertex 427.8100250926439 -285.65712130248295 109.25041481831701
  endloop
endfacet
facet normal 0.9999950997888597 0.0022620395557453846 0.0021641569528803705
  outer loop
    vertex 427.8100250926436 -285.65712130248295 111.25041481831742
    vertex 427.8100250926439 -283.7437041406575 109.25041481831701
    vertex 427.80136859960436 -283.74378247277355 111.25041481831735
  endloop
endfacet
facet normal 0.7708068438677571 0.6370440851530629 0.005625212718177354
  outer loop
    vertex 427.8100250926439 -283.7437041406575 109.25041481831701
    vertex 426.6198397316564 -282.32133286479456 111.25041481831728
    vertex 427.80136859960436 -283.74378247277355 111.25041481831735
  endloop
endfacet
facet normal 0.7708068438677571 0.6370440851530629 0.005625212718177354
  outer loop
    vertex 426.6198397316564 -282.32133286479456 111.25041481831728
    vertex 427.8100250926439 -283.7437041406575 109.25041481831701
    vertex 426.6196131240583 -282.29629042763526 109.25041481831715
  endloop
endfacet
facet normal -2.7689136857701134e-14 -2.877209074406977e-15 1.0
  outer loop
    vertex 348.5667404120376 -370.548629811665 113.30041481831672
    vertex 351.0421678591535 -364.9433091713905 113.30041481831677
    vertex 348.55571116302514 -366.0637367419585 113.30041481831677
  endloop
endfacet
facet normal -2.7689136857701134e-14 -2.877209074406977e-15 1.0
  outer loop
    vertex 351.0421678591535 -364.9433091713905 113.30041481831677
    vertex 348.5667404120376 -370.548629811665 113.30041481831672
    vertex 351.0366708751625 -372.75727280223384 113.30041481831677
  endloop
endfacet
facet normal -2.7689136857701134e-14 -2.877209074406977e-15 1.0
  outer loop
    vertex 351.0421678591535 -364.9433091713905 113.30041481831677
    vertex 351.0366708751625 -372.75727280223384 113.30041481831677
    vertex 352.59364959349784 -372.7560635174251 113.30041481831687
  endloop
endfacet
facet normal -2.7689136857701134e-14 -2.877209074406977e-15 1.0
  outer loop
    vertex 351.0421678591535 -364.9433091713905 113.30041481831677
    vertex 352.59364959349784 -372.7560635174251 113.30041481831687
    vertex 352.59364959349784 -364.9433091713905 113.30041481831687
  endloop
endfacet
facet normal 1.1600875341826017e-05 -0.9999999968274162 7.880727810461618e-05
  outer loop
    vertex 424.5144868517768 -372.75606351742516 109.25041481831701
    vertex 423.3736495934976 -372.75606351742516 111.25041481831701
    vertex 419.6228721673378 -372.75606351742516 109.25041481831701
  endloop
endfacet
facet normal 1.1600875341826017e-05 -0.9999999968274162 7.880727810461618e-05
  outer loop
    vertex 423.3736495934976 -372.75606351742516 111.25041481831701
    vertex 424.5144868517768 -372.75606351742516 109.25041481831701
    vertex 424.51448685177616 -372.7560635174251 113.30041481831265
  endloop
endfacet
facet normal 1.1600875341826017e-05 -0.9999999968274162 7.880727810461618e-05
  outer loop
    vertex 419.6228721673378 -372.75606351742516 109.25041481831701
    vertex 423.3736495934976 -372.75606351742516 111.25041481831701
    vertex 352.5936495934976 -372.7560635174251 111.25041481831683
  endloop
endfacet
facet normal 1.1600875341826017e-05 -0.9999999968274162 7.880727810461618e-05
  outer loop
    vertex 423.3736495934976 -372.75606351742516 111.25041481831701
    vertex 424.51448685177616 -372.7560635174251 113.30041481831265
    vertex 423.373649593497 -372.7560635174251 113.3004148183126
  endloop
endfacet
facet normal 1.1600875341826017e-05 -0.9999999968274162 7.880727810461618e-05
  outer loop
    vertex 351.03667089454103 -372.75783782783964 109.2504148183167
    vertex 352.5936495934976 -372.7560635174251 111.25041481831683
    vertex 351.0366708751625 -372.75727280223384 113.30041481831677
  endloop
endfacet
facet normal 1.1600875341826017e-05 -0.9999999968274162 7.880727810461618e-05
  outer loop
    vertex 352.5936495934976 -372.7560635174251 111.25041481831683
    vertex 351.03667089454103 -372.75783782783964 109.2504148183167
    vertex 419.6228721673378 -372.75606351742516 109.25041481831701
  endloop
endfacet
facet normal 1.1600875341826017e-05 -0.9999999968274162 7.880727810461618e-05
  outer loop
    vertex 351.0366708751625 -372.75727280223384 113.30041481831677
    vertex 352.5936495934976 -372.7560635174251 111.25041481831683
    vertex 352.59364959349784 -372.7560635174251 113.30041481831687
  endloop
endfacet
facet normal -1.0472641589362859e-14 6.617995911938646e-15 1.0
  outer loop
    vertex 356.5945219322819 -342.64632716506304 111.25041481831683
    vertex 356.59122240239446 -321.9160635174237 111.2504148183166
    vertex 354.1431041834034 -345.2140208813157 111.25041481831687
  endloop
endfacet
facet normal -1.0472641589362859e-14 6.617995911938646e-15 1.0
  outer loop
    vertex 354.1431041834034 -345.2140208813157 111.25041481831687
    vertex 352.99364959349845 -345.2140208813157 111.25041481831697
    vertex 354.1431041834034 -354.86443594194174 111.25041481831693
  endloop
endfacet
facet normal -1.0472641589362859e-14 6.617995911938646e-15 1.0
  outer loop
    vertex 352.5936495934976 -372.7560635174251 111.25041481831683
    vertex 356.5928721673377 -369.91606351742536 111.25041481831678
    vertex 352.5936495934976 -364.9433091713905 111.25041481831687
  endloop
endfacet
facet normal -1.0472641589362859e-14 6.617995911938646e-15 1.0
  outer loop
    vertex 356.5928721673377 -369.91606351742536 111.25041481831678
    vertex 352.5936495934976 -372.7560635174251 111.25041481831683
    vertex 423.3736495934976 -372.75606351742516 111.25041481831701
  endloop
endfacet
facet normal -1.0472641589362859e-14 6.617995911938646e-15 1.0
  outer loop
    vertex 352.5936495934976 -364.9433091713905 111.25041481831687
    vertex 356.5928721673377 -369.91606351742536 111.25041481831678
    vertex 354.1431041834034 -354.86443594194174 111.25041481831693
  endloop
endfacet
facet normal -1.0472641589362859e-14 6.617995911938646e-15 1.0
  outer loop
    vertex 352.5936495934976 -364.9433091713905 111.25041481831687
    vertex 354.1431041834034 -354.86443594194174 111.25041481831693
    vertex 352.99364959349845 -345.2140208813157 111.25041481831697
  endloop
endfacet
facet normal -1.0472641589362859e-14 6.617995911938646e-15 1.0
  outer loop
    vertex 352.5936495934976 -364.9433091713905 111.25041481831687
    vertex 352.99364959349845 -345.2140208813157 111.25041481831697
    vertex 352.9936495934981 -342.0660167886467 111.25041481831701
  endloop
endfacet
facet normal -1.0472641589362859e-14 6.617995911938646e-15 1.0
  outer loop
    vertex 356.5928721673377 -369.91606351742536 111.25041481831678
    vertex 423.3736495934976 -372.75606351742516 111.25041481831701
    vertex 419.6228721673367 -369.91606351742536 111.25041481832811
  endloop
endfacet
facet normal -1.0472641589362859e-14 6.617995911938646e-15 1.0
  outer loop
    vertex 419.6228721673367 -369.91606351742536 111.25041481832811
    vertex 423.3736495934976 -372.75606351742516 111.25041481831701
    vertex 419.6228721673378 -319.9160635174237 111.25041481831701
  endloop
endfacet
facet normal -1.0472641589362859e-14 6.617995911938646e-15 1.0
  outer loop
    vertex 401.39055078407955 -321.9160635174245 111.2504148183166
    vertex 359.70191082399975 -315.6764980060435 111.25041481831701
    vertex 356.59122240239446 -321.9160635174237 111.2504148183166
  endloop
endfacet
facet normal -1.0472641589362859e-14 6.617995911938646e-15 1.0
  outer loop
    vertex 359.70191082399975 -315.6764980060435 111.25041481831701
    vertex 401.39055078407955 -321.9160635174245 111.2504148183166
    vertex 401.39055078407955 -319.9160635174245 111.25041481831701
  endloop
endfacet
facet normal -1.0472641589362859e-14 6.617995911938646e-15 1.0
  outer loop
    vertex 359.70191082399975 -315.6764980060435 111.25041481831701
    vertex 401.39055078407955 -319.9160635174245 111.25041481831701
    vertex 418.86191082399944 -315.6764980060435 111.25041481831701
  endloop
endfacet
facet normal -1.0472641589362859e-14 6.617995911938646e-15 1.0
  outer loop
    vertex 418.86191082399944 -315.6764980060435 111.25041481831701
    vertex 401.39055078407955 -319.9160635174245 111.25041481831701
    vertex 419.6228721673378 -319.9160635174237 111.25041481831701
  endloop
endfacet
facet normal -1.0472641589362859e-14 6.617995911938646e-15 1.0
  outer loop
    vertex 418.86191082399944 -315.6764980060435 111.25041481831701
    vertex 419.6228721673378 -319.9160635174237 111.25041481831701
    vertex 418.86191082399944 -272.5064980060435 111.25041481831701
  endloop
endfacet
facet normal -1.0472641589362859e-14 6.617995911938646e-15 1.0
  outer loop
    vertex 418.86191082399944 -272.5064980060435 111.25041481831701
    vertex 419.6228721673378 -319.9160635174237 111.25041481831701
    vertex 424.8405507840797 -277.22115046620166 111.2504148183171
  endloop
endfacet
facet normal -1.0472641589362859e-14 6.617995911938646e-15 1.0
  outer loop
    vertex 418.86191082399944 -272.5064980060435 111.25041481831701
    vertex 424.8405507840797 -277.22115046620166 111.2504148183171
    vertex 427.87914363572804 -272.5064980060435 111.25041481831697
  endloop
endfacet
facet normal -1.0472641589362859e-14 6.617995911938646e-15 1.0
  outer loop
    vertex 424.8405507840797 -277.22115046620166 111.2504148183171
    vertex 419.6228721673378 -319.9160635174237 111.25041481831701
    vertex 423.37364959349765 -362.55434974258634 111.25041481831701
  endloop
endfacet
facet normal -1.0472641589362859e-14 6.617995911938646e-15 1.0
  outer loop
    vertex 423.37364959349765 -362.55434974258634 111.25041481831701
    vertex 419.6228721673378 -319.9160635174237 111.25041481831701
    vertex 423.3736495934976 -372.75606351742516 111.25041481831701
  endloop
endfacet
facet normal -1.0472641589362859e-14 6.617995911938646e-15 1.0
  outer loop
    vertex 423.37364959349765 -362.55434974258634 111.25041481831701
    vertex 423.3736495934976 -372.75606351742516 111.25041481831701
    vertex 423.37364959349765 -370.7560635174251 111.25041481831701
  endloop
endfacet
facet normal -1.0472641589362859e-14 6.617995911938646e-15 1.0
  outer loop
    vertex 424.8405507840797 -277.22115046620166 111.2504148183171
    vertex 423.37364959349765 -362.55434974258634 111.25041481831701
    vertex 424.1012429586492 -326.65434974258636 111.25041481831701
  endloop
endfacet
facet normal -1.0472641589362859e-14 6.617995911938646e-15 1.0
  outer loop
    vertex 424.1012429586492 -326.65434974258636 111.25041481831701
    vertex 423.37364959349765 -362.55434974258634 111.25041481831701
    vertex 424.1012429586492 -362.55434974258634 111.25041481831701
  endloop
endfacet
facet normal -1.0472641589362859e-14 6.617995911938646e-15 1.0
  outer loop
    vertex 352.99364959349845 -345.2140208813157 111.25041481831697
    vertex 352.99364959349845 -287.42912411696926 111.25041481831701
    vertex 352.9936495934981 -342.0660167886467 111.25041481831701
  endloop
endfacet
facet normal -1.0472641589362859e-14 6.617995911938646e-15 1.0
  outer loop
    vertex 352.99364959349845 -287.42912411696926 111.25041481831701
    vertex 352.99364959349845 -345.2140208813157 111.25041481831697
    vertex 354.1431041834034 -345.2140208813157 111.25041481831687
  endloop
endfacet
facet normal -1.0472641589362859e-14 6.617995911938646e-15 1.0
  outer loop
    vertex 352.99364959349845 -287.42912411696926 111.25041481831701
    vertex 354.1431041834034 -345.2140208813157 111.25041481831687
    vertex 352.99364959349845 -282.0666732664042 111.25041481831701
  endloop
endfacet
facet normal -1.0472641589362859e-14 6.617995911938646e-15 1.0
  outer loop
    vertex 352.99364959349845 -282.0666732664042 111.25041481831701
    vertex 354.1431041834034 -345.2140208813157 111.25041481831687
    vertex 352.99364959349845 -277.5064980060435 111.25041481831701
  endloop
endfacet
facet normal -1.0472641589362859e-14 6.617995911938646e-15 1.0
  outer loop
    vertex 352.99364959349845 -277.5064980060435 111.25041481831701
    vertex 354.1431041834034 -345.2140208813157 111.25041481831687
    vertex 352.99364959349845 -272.5064980060435 111.25041481831701
  endloop
endfacet
facet normal -1.0472641589362859e-14 6.617995911938646e-15 1.0
  outer loop
    vertex 352.99364959349845 -272.5064980060435 111.25041481831701
    vertex 354.1431041834034 -345.2140208813157 111.25041481831687
    vertex 359.70191082399975 -272.5064980060435 111.25041481831701
  endloop
endfacet
facet normal -1.0472641589362859e-14 6.617995911938646e-15 1.0
  outer loop
    vertex 359.70191082399975 -272.5064980060435 111.25041481831701
    vertex 354.1431041834034 -345.2140208813157 111.25041481831687
    vertex 356.59122240239446 -321.9160635174237 111.2504148183166
  endloop
endfacet
facet normal -1.0472641589362859e-14 6.617995911938646e-15 1.0
  outer loop
    vertex 359.70191082399975 -272.5064980060435 111.25041481831701
    vertex 356.59122240239446 -321.9160635174237 111.2504148183166
    vertex 359.70191082399975 -315.6764980060435 111.25041481831701
  endloop
endfacet
facet normal -1.0472641589362859e-14 6.617995911938646e-15 1.0
  outer loop
    vertex 356.5928721673384 -357.6625447532311 111.25041481831647
    vertex 354.1431041834034 -354.86443594194174 111.25041481831693
    vertex 356.5928721673377 -369.91606351742536 111.25041481831678
  endloop
endfacet
facet normal -1.0472641589362859e-14 6.617995911938646e-15 1.0
  outer loop
    vertex 352.99364959349845 -277.5064980060435 111.25041481831701
    vertex 349.57914363572786 -272.5064980060435 111.25041481831701
    vertex 349.57914363572786 -276.0962314462114 111.25041481831701
  endloop
endfacet
facet normal -1.0472641589362859e-14 6.617995911938646e-15 1.0
  outer loop
    vertex 349.57914363572786 -272.5064980060435 111.25041481831701
    vertex 352.99364959349845 -277.5064980060435 111.25041481831701
    vertex 352.99364959349845 -272.5064980060435 111.25041481831701
  endloop
endfacet
facet normal -1.0472641589362859e-14 6.617995911938646e-15 1.0
  outer loop
    vertex 350.56055642534545 -286.50144046178343 111.25041481831701
    vertex 349.6505564253454 -283.8503294923828 111.25041481831701
    vertex 349.6005564253455 -285.1758849770831 111.25041481831701
  endloop
endfacet
facet normal -1.0472641589362859e-14 6.617995911938646e-15 1.0
  outer loop
    vertex 349.6505564253454 -283.8503294923828 111.25041481831701
    vertex 350.56055642534545 -286.50144046178343 111.25041481831701
    vertex 350.56055642534545 -282.7699053170043 111.25041481831701
  endloop
endfacet
facet normal -1.0472641589362859e-14 6.617995911938646e-15 1.0
  outer loop
    vertex 350.56055642534545 -282.7699053170043 111.25041481831701
    vertex 350.56055642534545 -286.50144046178343 111.25041481831701
    vertex 352.99364959349845 -287.42912411696926 111.25041481831701
  endloop
endfacet
facet normal -1.0472641589362859e-14 6.617995911938646e-15 1.0
  outer loop
    vertex 350.56055642534545 -282.7699053170043 111.25041481831701
    vertex 352.99364959349845 -287.42912411696926 111.25041481831701
    vertex 352.99364959349845 -282.0666732664042 111.25041481831701
  endloop
endfacet
facet normal -1.0472641589362859e-14 6.617995911938646e-15 1.0
  outer loop
    vertex 351.0421678591533 -364.9433091713905 111.25041481831674
    vertex 352.9936495934981 -342.0660167886467 111.25041481831701
    vertex 350.99364959349845 -345.2140208813157 111.25041481831697
  endloop
endfacet
facet normal -1.0472641589362859e-14 6.617995911938646e-15 1.0
  outer loop
    vertex 352.9936495934981 -342.0660167886467 111.25041481831701
    vertex 351.0421678591533 -364.9433091713905 111.25041481831674
    vertex 352.5936495934976 -364.9433091713905 111.25041481831687
  endloop
endfacet
facet normal -1.0472641589362859e-14 6.617995911938646e-15 1.0
  outer loop
    vertex 424.1012429586492 -326.65434974258636 111.25041481831701
    vertex 424.8869389267602 -282.34751056063044 111.25041481831728
    vertex 424.8405507840797 -277.22115046620166 111.2504148183171
  endloop
endfacet
facet normal -1.0472641589362859e-14 6.617995911938646e-15 1.0
  outer loop
    vertex 424.8869389267602 -282.34751056063044 111.25041481831728
    vertex 424.1012429586492 -326.65434974258636 111.25041481831701
    vertex 424.9333270694407 -287.4738706550591 111.25041481831748
  endloop
endfacet
facet normal -1.0472641589362859e-14 6.617995911938646e-15 1.0
  outer loop
    vertex 424.9333270694407 -287.4738706550591 111.25041481831748
    vertex 424.1012429586492 -326.65434974258636 111.25041481831701
    vertex 425.2005507840797 -317.00480049732886 111.25041481831764
  endloop
endfacet
facet normal -1.0472641589362859e-14 6.617995911938646e-15 1.0
  outer loop
    vertex 425.2005507840797 -317.00480049732886 111.25041481831764
    vertex 424.1012429586492 -326.65434974258636 111.25041481831701
    vertex 427.7905507840795 -323.8900943692137 111.25041481831701
  endloop
endfacet
facet normal -1.0472641589362859e-14 6.617995911938646e-15 1.0
  outer loop
    vertex 425.2005507840797 -317.00480049732886 111.25041481831764
    vertex 427.7905507840795 -323.8900943692137 111.25041481831701
    vertex 427.7905507840795 -318.29497721623903 111.25041481831751
  endloop
endfacet
facet normal -1.0472641589362859e-14 6.617995911938646e-15 1.0
  outer loop
    vertex 424.9333270694407 -282.34751056063044 111.25041481831748
    vertex 424.8869389267602 -282.34751056063044 111.25041481831728
    vertex 424.9333270694407 -287.4738706550591 111.25041481831748
  endloop
endfacet
facet normal -2.3558107154751135e-28 1.0 3.4686707586355064e-15
  outer loop
    vertex 351.0421678591535 -364.9433091713905 113.30041481831677
    vertex 352.5936495934976 -364.9433091713905 111.25041481831687
    vertex 351.0421678591533 -364.9433091713905 111.25041481831674
  endloop
endfacet
facet normal -2.3558107154751135e-28 1.0 3.4686707586355064e-15
  outer loop
    vertex 352.5936495934976 -364.9433091713905 111.25041481831687
    vertex 351.0421678591535 -364.9433091713905 113.30041481831677
    vertex 352.59364959349784 -364.9433091713905 113.30041481831687
  endloop
endfacet
facet normal 1.0 6.147892485949187e-15 -6.602848349380422e-14
  outer loop
    vertex 352.5936495934976 -364.9433091713905 111.25041481831687
    vertex 352.59364959349784 -372.7560635174251 113.30041481831687
    vertex 352.5936495934976 -372.7560635174251 111.25041481831683
  endloop
endfacet
facet normal 1.0 6.147892485949187e-15 -6.602848349380422e-14
  outer loop
    vertex 352.59364959349784 -372.7560635174251 113.30041481831687
    vertex 352.5936495934976 -364.9433091713905 111.25041481831687
    vertex 352.59364959349784 -364.9433091713905 113.30041481831687
  endloop
endfacet
facet normal 5.91247735158796e-14 -1.2757300351539275e-14 1.0
  outer loop
    vertex 424.51448685177616 -372.7560635174251 113.30041481831265
    vertex 423.37364959349713 -370.75606351742505 113.3004148183126
    vertex 423.373649593497 -372.7560635174251 113.3004148183126
  endloop
endfacet
facet normal 5.91247735158796e-14 -1.2757300351539275e-14 1.0
  outer loop
    vertex 423.37364959349713 -370.75606351742505 113.3004148183126
    vertex 424.51448685177616 -372.7560635174251 113.30041481831265
    vertex 423.37364959349713 -362.5543497425862 113.3004148183126
  endloop
endfacet
facet normal 5.91247735158796e-14 -1.2757300351539275e-14 1.0
  outer loop
    vertex 423.37364959349713 -362.5543497425862 113.3004148183126
    vertex 424.51448685177616 -372.7560635174251 113.30041481831265
    vertex 424.1012429586487 -362.5543497425862 113.3004148183126
  endloop
endfacet
facet normal 5.91247735158796e-14 -1.2757300351539275e-14 1.0
  outer loop
    vertex 424.1012429586487 -362.5543497425862 113.3004148183126
    vertex 424.51448685177616 -372.7560635174251 113.30041481831265
    vertex 424.51448685177616 -371.0603317756882 113.30041481831265
  endloop
endfacet
facet normal 5.91247735158796e-14 -1.2757300351539275e-14 1.0
  outer loop
    vertex 424.1012429586487 -362.5543497425862 113.3004148183126
    vertex 424.51448685177616 -371.0603317756882 113.30041481831265
    vertex 427.8791436357279 -364.5840100573735 113.3004148183126
  endloop
endfacet
facet normal 5.91247735158796e-14 -1.2757300351539275e-14 1.0
  outer loop
    vertex 427.8791436357279 -364.5840100573735 113.3004148183126
    vertex 424.51448685177616 -371.0603317756882 113.30041481831265
    vertex 425.50032626136493 -371.25063294441 113.30041481831223
  endloop
endfacet
facet normal 5.91247735158796e-14 -1.2757300351539275e-14 1.0
  outer loop
    vertex 427.8791436357279 -364.5840100573735 113.3004148183126
    vertex 425.50032626136493 -371.25063294441 113.30041481831223
    vertex 426.4963976772619 -371.0340303702239 113.30041481831223
  endloop
endfacet
facet normal 5.91247735158796e-14 -1.2757300351539275e-14 1.0
  outer loop
    vertex 427.8791436357279 -364.5840100573735 113.3004148183126
    vertex 426.4963976772619 -371.0340303702239 113.30041481831223
    vertex 427.2680932143313 -370.51839989737636 113.30041481831223
  endloop
endfacet
facet normal 5.91247735158796e-14 -1.2757300351539275e-14 1.0
  outer loop
    vertex 427.8791436357279 -364.5840100573735 113.3004148183126
    vertex 427.2680932143313 -370.51839989737636 113.30041481831223
    vertex 427.8100250926433 -369.7073415253227 113.30041481831223
  endloop
endfacet
facet normal 5.91247735158796e-14 -1.2757300351539275e-14 1.0
  outer loop
    vertex 427.8791436357279 -364.5840100573735 113.3004148183126
    vertex 427.8100250926433 -369.7073415253227 113.30041481831223
    vertex 427.8791436357279 -369.35985914403483 113.30041481831243
  endloop
endfacet
facet normal 0.0 1.0 1.2757300351539275e-14
  outer loop
    vertex 423.37364959349713 -362.5543497425862 113.3004148183126
    vertex 424.1012429586492 -362.55434974258634 111.25041481831701
    vertex 423.37364959349765 -362.55434974258634 111.25041481831701
  endloop
endfacet
facet normal 0.0 1.0 1.2757300351539275e-14
  outer loop
    vertex 424.1012429586492 -362.55434974258634 111.25041481831701
    vertex 423.37364959349713 -362.5543497425862 113.3004148183126
    vertex 424.1012429586487 -362.5543497425862 113.3004148183126
  endloop
endfacet
facet normal -1.0 0.0 5.91247735158796e-14
  outer loop
    vertex 423.37364959349713 -370.75606351742505 113.3004148183126
    vertex 423.37364959349765 -362.55434974258634 111.25041481831701
    vertex 423.37364959349765 -370.7560635174251 111.25041481831701
  endloop
endfacet
facet normal -1.0 0.0 5.91247735158796e-14
  outer loop
    vertex 423.37364959349765 -362.55434974258634 111.25041481831701
    vertex 423.37364959349713 -370.75606351742505 113.3004148183126
    vertex 423.37364959349713 -362.5543497425862 113.3004148183126
  endloop
endfacet
facet normal -1.0 4.5119463720765425e-14 5.912477351588017e-14
  outer loop
    vertex 423.373649593497 -372.7560635174251 113.3004148183126
    vertex 423.37364959349765 -370.7560635174251 111.25041481831701
    vertex 423.3736495934976 -372.75606351742516 111.25041481831701
  endloop
endfacet
facet normal -1.0 4.5119463720765425e-14 5.912477351588017e-14
  outer loop
    vertex 423.37364959349765 -370.7560635174251 111.25041481831701
    vertex 423.373649593497 -372.7560635174251 113.3004148183126
    vertex 423.37364959349713 -370.75606351742505 113.3004148183126
  endloop
endfacet
endsolid slim
